G04*
G04 #@! TF.GenerationSoftware,Altium Limited,Altium Designer,24.1.2 (44)*
G04*
G04 Layer_Physical_Order=2*
G04 Layer_Color=36540*
%FSLAX44Y44*%
%MOMM*%
G71*
G04*
G04 #@! TF.SameCoordinates,79274CF1-F64A-4BB2-BB1D-09D00C332B84*
G04*
G04*
G04 #@! TF.FilePolarity,Positive*
G04*
G01*
G75*
%ADD11C,0.5000*%
%ADD82C,0.7000*%
%ADD83C,0.7000*%
%ADD85C,1.0000*%
%ADD86C,2.5000*%
%ADD87O,2.0000X2.5000*%
%ADD88O,2.3000X1.3000*%
%ADD89O,1.8000X2.0000*%
%ADD90C,1.5000*%
G04:AMPARAMS|DCode=91|XSize=1.5mm|YSize=1.5mm|CornerRadius=0.375mm|HoleSize=0mm|Usage=FLASHONLY|Rotation=90.000|XOffset=0mm|YOffset=0mm|HoleType=Round|Shape=RoundedRectangle|*
%AMROUNDEDRECTD91*
21,1,1.5000,0.7500,0,0,90.0*
21,1,0.7500,1.5000,0,0,90.0*
1,1,0.7500,0.3750,0.3750*
1,1,0.7500,0.3750,-0.3750*
1,1,0.7500,-0.3750,-0.3750*
1,1,0.7500,-0.3750,0.3750*
%
%ADD91ROUNDEDRECTD91*%
%ADD92C,1.8000*%
G04:AMPARAMS|DCode=93|XSize=1.5mm|YSize=1.5mm|CornerRadius=0.375mm|HoleSize=0mm|Usage=FLASHONLY|Rotation=0.000|XOffset=0mm|YOffset=0mm|HoleType=Round|Shape=RoundedRectangle|*
%AMROUNDEDRECTD93*
21,1,1.5000,0.7500,0,0,0.0*
21,1,0.7500,1.5000,0,0,0.0*
1,1,0.7500,0.3750,-0.3750*
1,1,0.7500,-0.3750,-0.3750*
1,1,0.7500,-0.3750,0.3750*
1,1,0.7500,0.3750,0.3750*
%
%ADD93ROUNDEDRECTD93*%
%ADD94C,1.5240*%
%ADD95C,0.5000*%
%ADD96C,6.0000*%
%ADD97C,8.0000*%
%ADD98C,3.2000*%
G36*
X1816740Y1366189D02*
X1819118Y1363811D01*
X1820986Y1361015D01*
X1822273Y1357908D01*
X1822929Y1354610D01*
Y1352929D01*
Y1195521D01*
Y1193019D01*
X1821953Y1188112D01*
X1820038Y1183490D01*
X1817258Y1179330D01*
X1805368Y1167439D01*
X1805368D01*
X1803599Y1165670D01*
X1799439Y1162891D01*
X1794817Y1160976D01*
X1789910Y1160000D01*
X1678319D01*
X1675020Y1160656D01*
X1671914Y1161943D01*
X1669118Y1163811D01*
X1667929Y1165000D01*
X1666740Y1166189D01*
X1664872Y1168985D01*
X1663585Y1172092D01*
X1662929Y1175390D01*
Y1189610D01*
X1663585Y1192908D01*
X1664872Y1196015D01*
X1666740Y1198811D01*
X1667929Y1200000D01*
X1690489Y1222561D01*
X1690489D01*
X1690489Y1222561D01*
X1692163Y1224407D01*
X1694930Y1228548D01*
X1696835Y1233148D01*
X1697807Y1238031D01*
X1697929Y1240521D01*
Y1344479D01*
Y1346981D01*
X1698905Y1351888D01*
X1700820Y1356510D01*
X1703599Y1360670D01*
X1707929Y1365000D01*
X1707929D01*
X1707929Y1365000D01*
X1709118Y1366189D01*
X1711669Y1367893D01*
X1814189D01*
X1816740Y1366189D01*
D02*
G37*
G36*
X1196740D02*
X1199118Y1363811D01*
X1200986Y1361015D01*
X1202273Y1357908D01*
X1202929Y1354610D01*
Y1352929D01*
Y1195521D01*
Y1193019D01*
X1201953Y1188112D01*
X1200038Y1183490D01*
X1197258Y1179330D01*
X1185368Y1167439D01*
X1185368D01*
X1183599Y1165670D01*
X1179439Y1162891D01*
X1174817Y1160976D01*
X1169910Y1160000D01*
X1058319D01*
X1055021Y1160656D01*
X1051914Y1161943D01*
X1049118Y1163811D01*
X1047929Y1165000D01*
X1046740Y1166189D01*
X1044872Y1168985D01*
X1043585Y1172092D01*
X1042929Y1175390D01*
Y1189610D01*
X1043585Y1192908D01*
X1044872Y1196015D01*
X1046740Y1198811D01*
X1047929Y1200000D01*
X1070489Y1222561D01*
X1070490D01*
X1070489Y1222561D01*
X1072163Y1224407D01*
X1074930Y1228548D01*
X1076835Y1233148D01*
X1077807Y1238031D01*
X1077929Y1240521D01*
Y1344479D01*
Y1346981D01*
X1078905Y1351888D01*
X1080820Y1356510D01*
X1083599Y1360670D01*
X1087929Y1365000D01*
X1087929D01*
X1087929Y1365000D01*
X1089118Y1366189D01*
X1091669Y1367893D01*
X1194189D01*
X1196740Y1366189D01*
D02*
G37*
G36*
X573811D02*
X576189Y1363811D01*
X578057Y1361015D01*
X579344Y1357908D01*
X580000Y1354610D01*
Y1352929D01*
Y1195521D01*
Y1193019D01*
X579024Y1188112D01*
X577109Y1183490D01*
X574329Y1179330D01*
X562439Y1167439D01*
X562439D01*
X560671Y1165670D01*
X556510Y1162891D01*
X551888Y1160976D01*
X546981Y1160000D01*
X435390D01*
X432092Y1160656D01*
X428985Y1161943D01*
X426189Y1163811D01*
X425000Y1165000D01*
X423811Y1166189D01*
X421943Y1168985D01*
X420656Y1172092D01*
X420000Y1175390D01*
Y1189610D01*
X420656Y1192908D01*
X421706Y1195443D01*
X450631Y1224368D01*
X450631Y1224368D01*
X453381Y1227718D01*
X455424Y1231540D01*
X456682Y1235687D01*
X457106Y1240000D01*
X457106Y1240000D01*
Y1354616D01*
X457891Y1356510D01*
X460671Y1360670D01*
X465000Y1365000D01*
X465000D01*
X465000Y1365000D01*
X466189Y1366189D01*
X468740Y1367893D01*
X571260D01*
X573811Y1366189D01*
D02*
G37*
G36*
X1781888Y944024D02*
X1786510Y942109D01*
X1790670Y939329D01*
X1792440Y937561D01*
X1792440Y937561D01*
X1807560Y922439D01*
X1809330Y920670D01*
X1812109Y916510D01*
X1814024Y911888D01*
X1815000Y906981D01*
Y904479D01*
Y885521D01*
X1815122Y883031D01*
X1816094Y878148D01*
X1817999Y873548D01*
X1820766Y869407D01*
X1822440Y867561D01*
X1832560Y857439D01*
X1834330Y855670D01*
X1837109Y851510D01*
X1839024Y846888D01*
X1840000Y841981D01*
Y839479D01*
Y811402D01*
X1839462Y810996D01*
X1838730Y810698D01*
X1836272Y811717D01*
X1833400Y812095D01*
X1830528Y811717D01*
X1827852Y810608D01*
X1825555Y808845D01*
X1823792Y806547D01*
X1822683Y803872D01*
X1822305Y801000D01*
Y799000D01*
X1822683Y796128D01*
X1823792Y793453D01*
X1825555Y791155D01*
X1827707Y789503D01*
X1827969Y788956D01*
X1828132Y788132D01*
X1822440Y782439D01*
X1820766Y780592D01*
X1817999Y776452D01*
X1816094Y771852D01*
X1815122Y766969D01*
X1815000Y764479D01*
Y670500D01*
X1813406D01*
X1811384Y669663D01*
X1809837Y668115D01*
X1809000Y666094D01*
Y663906D01*
X1809837Y661885D01*
X1811384Y660337D01*
X1812656Y659810D01*
X1812109Y658490D01*
X1809330Y654330D01*
X1807560Y652561D01*
X1807560D01*
X1807560Y652561D01*
X1805000Y650000D01*
X1803811Y648811D01*
X1801015Y646943D01*
X1797908Y645656D01*
X1794610Y645000D01*
X1762790D01*
X1761695Y646507D01*
X1757508Y650695D01*
X1752717Y654175D01*
X1747441Y656864D01*
X1741809Y658693D01*
X1735961Y659620D01*
X1730039D01*
X1724191Y658693D01*
X1718559Y656864D01*
X1713283Y654175D01*
X1708492Y650695D01*
X1704305Y646507D01*
X1703210Y645000D01*
X1668019D01*
X1663112Y645976D01*
X1658490Y647891D01*
X1654330Y650670D01*
X1641268Y663732D01*
X1639753Y668395D01*
X1638935Y670000D01*
X1639753Y671605D01*
X1641577Y677219D01*
X1642500Y683049D01*
Y688951D01*
X1641577Y694781D01*
X1639753Y700395D01*
X1638935Y702000D01*
X1639753Y703605D01*
X1641577Y709219D01*
X1642500Y715049D01*
Y720951D01*
X1641577Y726781D01*
X1639753Y732395D01*
X1638935Y734000D01*
X1639753Y735605D01*
X1641577Y741219D01*
X1642500Y747049D01*
Y752951D01*
X1641577Y758781D01*
X1639753Y764395D01*
X1638935Y766000D01*
X1639753Y767605D01*
X1641577Y773219D01*
X1642500Y779049D01*
Y784951D01*
X1641577Y790781D01*
X1639753Y796395D01*
X1637073Y801654D01*
X1633604Y806430D01*
X1629430Y810603D01*
X1628829Y811039D01*
X1627560Y812439D01*
X1627560Y812439D01*
X1592440Y847561D01*
X1590670Y849330D01*
X1587891Y853490D01*
X1585976Y858112D01*
X1585000Y863019D01*
Y865521D01*
Y897929D01*
Y899610D01*
X1585656Y902908D01*
X1586943Y906015D01*
X1588811Y908811D01*
X1590000Y910000D01*
X1590000D01*
X1617560Y937561D01*
X1619330Y939329D01*
X1623490Y942109D01*
X1628112Y944024D01*
X1633019Y945000D01*
X1741214D01*
X1743727Y944500D01*
X1747273D01*
X1749787Y945000D01*
X1776981D01*
X1781888Y944024D01*
D02*
G37*
G36*
X1161888D02*
X1166510Y942109D01*
X1170670Y939329D01*
X1172439Y937561D01*
X1172439Y937561D01*
X1187561Y922439D01*
X1189329Y920670D01*
X1192109Y916510D01*
X1194024Y911888D01*
X1195000Y906981D01*
Y904479D01*
Y885521D01*
X1195122Y883031D01*
X1196094Y878148D01*
X1197999Y873548D01*
X1200766Y869407D01*
X1202439Y867561D01*
X1212561Y857439D01*
X1214329Y855670D01*
X1217109Y851510D01*
X1219024Y846888D01*
X1220000Y841981D01*
Y839479D01*
Y811648D01*
X1219967Y811596D01*
X1218730Y810864D01*
X1216672Y811717D01*
X1213800Y812095D01*
X1210928Y811717D01*
X1208252Y810608D01*
X1205955Y808845D01*
X1204192Y806547D01*
X1203083Y803872D01*
X1202705Y801000D01*
Y799000D01*
X1203083Y796128D01*
X1204192Y793453D01*
X1205955Y791155D01*
X1207881Y789677D01*
X1208193Y788193D01*
X1202439Y782439D01*
X1200766Y780592D01*
X1197999Y776452D01*
X1196094Y771852D01*
X1195122Y766969D01*
X1195000Y764479D01*
Y670500D01*
X1193406D01*
X1191385Y669663D01*
X1189837Y668115D01*
X1189000Y666094D01*
Y663906D01*
X1189837Y661885D01*
X1191385Y660337D01*
X1192656Y659810D01*
X1192109Y658490D01*
X1189329Y654330D01*
X1187561Y652561D01*
X1187561D01*
X1187561Y652561D01*
X1185000Y650000D01*
X1183811Y648811D01*
X1181015Y646943D01*
X1177908Y645656D01*
X1174610Y645000D01*
X1142790D01*
X1141695Y646507D01*
X1137508Y650695D01*
X1132717Y654175D01*
X1127441Y656864D01*
X1121809Y658693D01*
X1115961Y659620D01*
X1110039D01*
X1104191Y658693D01*
X1098559Y656864D01*
X1093283Y654175D01*
X1088492Y650695D01*
X1084305Y646507D01*
X1083210Y645000D01*
X1048019D01*
X1043112Y645976D01*
X1038490Y647891D01*
X1034330Y650670D01*
X1021267Y663733D01*
X1019752Y668395D01*
X1018935Y670000D01*
X1019752Y671605D01*
X1021576Y677219D01*
X1022500Y683049D01*
Y688951D01*
X1021576Y694781D01*
X1019752Y700395D01*
X1018935Y702000D01*
X1019752Y703605D01*
X1021576Y709219D01*
X1022500Y715049D01*
Y720951D01*
X1021576Y726781D01*
X1019752Y732395D01*
X1018935Y734000D01*
X1019752Y735605D01*
X1021576Y741219D01*
X1022500Y747049D01*
Y752951D01*
X1021576Y758781D01*
X1019752Y764395D01*
X1018935Y766000D01*
X1019752Y767605D01*
X1021576Y773219D01*
X1022500Y779049D01*
Y784951D01*
X1021576Y790781D01*
X1019752Y796395D01*
X1017073Y801654D01*
X1013603Y806430D01*
X1009429Y810603D01*
X1008830Y811039D01*
X1007561Y812439D01*
X1007561Y812439D01*
X972439Y847561D01*
X970670Y849330D01*
X967891Y853490D01*
X965976Y858112D01*
X965000Y863019D01*
Y865521D01*
Y897929D01*
Y899610D01*
X965656Y902908D01*
X966943Y906015D01*
X968811Y908811D01*
X970000Y910000D01*
X970000D01*
X997561Y937561D01*
X999330Y939329D01*
X1003490Y942109D01*
X1008112Y944024D01*
X1013019Y945000D01*
X1121213D01*
X1123727Y944500D01*
X1127273D01*
X1129787Y945000D01*
X1156981D01*
X1161888Y944024D01*
D02*
G37*
G36*
X541888D02*
X546510Y942109D01*
X550671Y939329D01*
X552439Y937561D01*
X552439Y937561D01*
X567561Y922439D01*
X569329Y920670D01*
X572109Y916510D01*
X574024Y911888D01*
X575000Y906981D01*
Y904479D01*
Y885521D01*
X575122Y883031D01*
X576094Y878148D01*
X577999Y873548D01*
X580765Y869407D01*
X582439Y867561D01*
X592561Y857439D01*
X594329Y855670D01*
X597109Y851510D01*
X599024Y846888D01*
X600000Y841981D01*
Y839479D01*
Y810521D01*
Y808645D01*
X598730Y808214D01*
X598245Y808845D01*
X595948Y810608D01*
X593272Y811717D01*
X590400Y812095D01*
X587529Y811717D01*
X584853Y810608D01*
X582555Y808845D01*
X580792Y806547D01*
X579683Y803872D01*
X579305Y801000D01*
Y799000D01*
X579683Y796128D01*
X580792Y793453D01*
X582555Y791155D01*
X584853Y789391D01*
X586792Y788588D01*
X587110Y787110D01*
X582439Y782439D01*
X580765Y780592D01*
X577999Y776452D01*
X576094Y771852D01*
X575122Y766969D01*
X575000Y764479D01*
Y670500D01*
X573406D01*
X571385Y669663D01*
X569838Y668115D01*
X569000Y666094D01*
Y663906D01*
X569838Y661885D01*
X571385Y660337D01*
X572656Y659811D01*
X572109Y658490D01*
X569329Y654330D01*
X567561Y652561D01*
X567561D01*
X567561Y652561D01*
X565000Y650000D01*
X563811Y648811D01*
X561015Y646943D01*
X557908Y645656D01*
X554610Y645000D01*
X522790D01*
X521695Y646507D01*
X517508Y650695D01*
X512717Y654175D01*
X507441Y656864D01*
X501809Y658693D01*
X495961Y659620D01*
X490039D01*
X484190Y658693D01*
X478559Y656864D01*
X473283Y654175D01*
X468492Y650695D01*
X464305Y646507D01*
X463210Y645000D01*
X428019D01*
X423112Y645976D01*
X418490Y647891D01*
X414329Y650670D01*
X401268Y663732D01*
X399753Y668395D01*
X398935Y670000D01*
X399753Y671605D01*
X401577Y677219D01*
X402500Y683049D01*
Y688951D01*
X401577Y694781D01*
X399753Y700395D01*
X398935Y702000D01*
X399753Y703605D01*
X401577Y709219D01*
X402500Y715049D01*
Y720951D01*
X401577Y726781D01*
X399753Y732395D01*
X398935Y734000D01*
X399753Y735605D01*
X401577Y741219D01*
X402500Y747049D01*
Y752951D01*
X401577Y758781D01*
X399753Y764395D01*
X398935Y766000D01*
X399753Y767605D01*
X401577Y773219D01*
X402500Y779049D01*
Y784951D01*
X401577Y790781D01*
X399753Y796395D01*
X397073Y801654D01*
X393603Y806430D01*
X389430Y810603D01*
X388829Y811039D01*
X387561Y812439D01*
X387561Y812439D01*
X352439Y847561D01*
X350671Y849330D01*
X347891Y853490D01*
X345976Y858112D01*
X345000Y863019D01*
Y865521D01*
Y897929D01*
Y899610D01*
X345656Y902908D01*
X346943Y906015D01*
X348811Y908811D01*
X350000Y910000D01*
X350000D01*
X377561Y937561D01*
X379329Y939329D01*
X383490Y942109D01*
X388112Y944024D01*
X393019Y945000D01*
X501214D01*
X503727Y944500D01*
X507273D01*
X509787Y945000D01*
X536981D01*
X541888Y944024D01*
D02*
G37*
G36*
X1458440Y878765D02*
X1457283Y878175D01*
X1452492Y874695D01*
X1448305Y870508D01*
X1444824Y865717D01*
X1442136Y860441D01*
X1440306Y854809D01*
X1439380Y848961D01*
Y843039D01*
X1440306Y837190D01*
X1442136Y831559D01*
X1444824Y826283D01*
X1448305Y821492D01*
X1452492Y817305D01*
X1457283Y813824D01*
X1462559Y811136D01*
X1468190Y809306D01*
X1474039Y808380D01*
X1479961D01*
X1485809Y809306D01*
X1491441Y811136D01*
X1493000Y811930D01*
X1494559Y811136D01*
X1500190Y809306D01*
X1506039Y808380D01*
X1511960D01*
X1517809Y809306D01*
X1523441Y811136D01*
X1523917Y811379D01*
X1525000Y810715D01*
Y766040D01*
X1523799D01*
X1521579Y765120D01*
X1519880Y763421D01*
X1518989Y761270D01*
X1525000D01*
Y758730D01*
X1518989D01*
X1519880Y756579D01*
X1521579Y754880D01*
X1523799Y753960D01*
X1525000D01*
Y730521D01*
X1525122Y728031D01*
X1526094Y723148D01*
X1527999Y718548D01*
X1530766Y714407D01*
X1532440Y712561D01*
X1536733Y708267D01*
X1538248Y703605D01*
X1540927Y698346D01*
X1544397Y693570D01*
X1548571Y689397D01*
X1553346Y685927D01*
X1558422Y683341D01*
X1559024Y681888D01*
X1560000Y676981D01*
Y660390D01*
X1559344Y657092D01*
X1558057Y653985D01*
X1556189Y651189D01*
X1553811Y648811D01*
X1551015Y646943D01*
X1547908Y645656D01*
X1544610Y645000D01*
X1520521D01*
X1518031Y644878D01*
X1513148Y643906D01*
X1508548Y642001D01*
X1504407Y639235D01*
X1502560Y637561D01*
X1490251Y625250D01*
X1485809Y626693D01*
X1479961Y627620D01*
X1474039D01*
X1468190Y626693D01*
X1462559Y624864D01*
X1457283Y622175D01*
X1452492Y618695D01*
X1448305Y614508D01*
X1444824Y609717D01*
X1442136Y604441D01*
X1440306Y598809D01*
X1439380Y592961D01*
Y587039D01*
X1440306Y581190D01*
X1442136Y575559D01*
X1444824Y570283D01*
X1448305Y565492D01*
X1452492Y561305D01*
X1457283Y557824D01*
X1460365Y556254D01*
X1460191Y554996D01*
X1459250Y554808D01*
X1455974Y553451D01*
X1453026Y551482D01*
X1450518Y548974D01*
X1448549Y546026D01*
X1447192Y542751D01*
X1446500Y539273D01*
Y535727D01*
X1447192Y532250D01*
X1448549Y528974D01*
X1450518Y526026D01*
X1453026Y523519D01*
X1455974Y521549D01*
X1459250Y520192D01*
X1462727Y519500D01*
X1463299D01*
X1464105Y518518D01*
X1464024Y518112D01*
X1462109Y513490D01*
X1459330Y509329D01*
X1455000Y505000D01*
X1455000D01*
X1453811Y503811D01*
X1451015Y501943D01*
X1447908Y500656D01*
X1444610Y500000D01*
X1403019D01*
X1398112Y500976D01*
X1393490Y502891D01*
X1389330Y505671D01*
X1387560Y507439D01*
X1372440Y522561D01*
X1370670Y524329D01*
X1367891Y528490D01*
X1365976Y533112D01*
X1365000Y538019D01*
Y540521D01*
Y608598D01*
X1365538Y609003D01*
X1366270Y609301D01*
X1368728Y608283D01*
X1371600Y607905D01*
X1374472Y608283D01*
X1377148Y609391D01*
X1379445Y611155D01*
X1381208Y613452D01*
X1382317Y616128D01*
X1382695Y619000D01*
Y621000D01*
X1382317Y623871D01*
X1381208Y626547D01*
X1379445Y628845D01*
X1377293Y630497D01*
X1377031Y631043D01*
X1376867Y631867D01*
X1390000Y645000D01*
Y748950D01*
X1391594D01*
X1393616Y749788D01*
X1395163Y751335D01*
X1396000Y753356D01*
Y755544D01*
X1395163Y757566D01*
X1393616Y759113D01*
X1391594Y759950D01*
X1390000D01*
Y865000D01*
Y866189D01*
X1390464Y868521D01*
X1391374Y870718D01*
X1392695Y872695D01*
X1393535Y873536D01*
X1395000Y875000D01*
X1395000D01*
X1395000Y875000D01*
X1396189Y876189D01*
X1398985Y878057D01*
X1402092Y879344D01*
X1405390Y880000D01*
X1458144D01*
X1458440Y878765D01*
D02*
G37*
G36*
X838440D02*
X837283Y878175D01*
X832492Y874695D01*
X828305Y870508D01*
X824825Y865717D01*
X822136Y860441D01*
X820306Y854809D01*
X819380Y848961D01*
Y843039D01*
X820306Y837190D01*
X822136Y831559D01*
X824825Y826283D01*
X828305Y821492D01*
X832492Y817305D01*
X837283Y813824D01*
X842559Y811136D01*
X848191Y809306D01*
X854039Y808380D01*
X859961D01*
X865809Y809306D01*
X871441Y811136D01*
X873000Y811930D01*
X874559Y811136D01*
X880191Y809306D01*
X886039Y808380D01*
X891961D01*
X897809Y809306D01*
X903441Y811136D01*
X903730Y811283D01*
X905000Y810505D01*
Y766040D01*
X903799D01*
X901579Y765120D01*
X899880Y763421D01*
X898988Y761270D01*
X905000D01*
Y758730D01*
X898988D01*
X899880Y756579D01*
X901579Y754880D01*
X903799Y753960D01*
X905000D01*
Y730521D01*
X905122Y728031D01*
X906094Y723148D01*
X907999Y718548D01*
X910766Y714407D01*
X912439Y712561D01*
X916732Y708268D01*
X918247Y703605D01*
X920927Y698346D01*
X924397Y693570D01*
X928570Y689397D01*
X933346Y685927D01*
X938422Y683341D01*
X939024Y681888D01*
X940000Y676981D01*
Y660390D01*
X939344Y657092D01*
X938057Y653985D01*
X936189Y651189D01*
X933811Y648811D01*
X931015Y646943D01*
X927908Y645656D01*
X924610Y645000D01*
X900521D01*
X898031Y644878D01*
X893148Y643906D01*
X888548Y642001D01*
X884407Y639235D01*
X882561Y637561D01*
X870250Y625251D01*
X865809Y626693D01*
X859961Y627620D01*
X854039D01*
X848191Y626693D01*
X842559Y624864D01*
X837283Y622175D01*
X832492Y618695D01*
X828305Y614508D01*
X824825Y609717D01*
X822136Y604441D01*
X820306Y598809D01*
X819380Y592961D01*
Y587039D01*
X820306Y581190D01*
X822136Y575559D01*
X824825Y570283D01*
X828305Y565492D01*
X832492Y561305D01*
X837283Y557824D01*
X840366Y556254D01*
X840191Y554996D01*
X839250Y554808D01*
X835974Y553451D01*
X833026Y551482D01*
X830519Y548974D01*
X828549Y546026D01*
X827192Y542751D01*
X826500Y539273D01*
Y535727D01*
X827192Y532250D01*
X828549Y528974D01*
X830519Y526026D01*
X833026Y523519D01*
X835974Y521549D01*
X839250Y520192D01*
X842727Y519500D01*
X843299D01*
X844105Y518518D01*
X844024Y518112D01*
X842109Y513490D01*
X839330Y509329D01*
X835000Y505000D01*
X835000D01*
X833811Y503811D01*
X831015Y501943D01*
X827908Y500656D01*
X824610Y500000D01*
X783019D01*
X778112Y500976D01*
X773490Y502891D01*
X769330Y505671D01*
X767561Y507439D01*
X752439Y522561D01*
X750670Y524329D01*
X747891Y528490D01*
X745976Y533112D01*
X745000Y538019D01*
Y540521D01*
Y608598D01*
X745538Y609003D01*
X746270Y609301D01*
X748729Y608283D01*
X751600Y607905D01*
X754472Y608283D01*
X757148Y609391D01*
X759445Y611155D01*
X761209Y613452D01*
X762317Y616128D01*
X762695Y619000D01*
Y621000D01*
X762317Y623871D01*
X761209Y626547D01*
X759445Y628845D01*
X757293Y630497D01*
X757031Y631042D01*
X756867Y631867D01*
X770000Y645000D01*
Y748950D01*
X771594D01*
X773615Y749788D01*
X775163Y751335D01*
X776000Y753356D01*
Y755544D01*
X775163Y757566D01*
X773615Y759113D01*
X771594Y759950D01*
X770000D01*
Y865000D01*
Y866189D01*
X770464Y868521D01*
X771374Y870718D01*
X772695Y872695D01*
X773536Y873536D01*
X775000Y875000D01*
X775000D01*
X775000Y875000D01*
X776189Y876189D01*
X778985Y878057D01*
X782092Y879344D01*
X785390Y880000D01*
X838144D01*
X838440Y878765D01*
D02*
G37*
G36*
X218440D02*
X217283Y878175D01*
X212492Y874695D01*
X208305Y870508D01*
X204824Y865717D01*
X202136Y860441D01*
X200306Y854809D01*
X199380Y848961D01*
Y843039D01*
X200306Y837190D01*
X202136Y831559D01*
X204824Y826283D01*
X208305Y821492D01*
X212492Y817305D01*
X217283Y813824D01*
X222559Y811136D01*
X228190Y809306D01*
X234039Y808380D01*
X239960D01*
X245809Y809306D01*
X251441Y811136D01*
X253000Y811930D01*
X254559Y811136D01*
X260191Y809306D01*
X266040Y808380D01*
X271961D01*
X277810Y809306D01*
X283441Y811136D01*
X283917Y811378D01*
X285000Y810715D01*
Y766040D01*
X283799D01*
X281579Y765120D01*
X279880Y763421D01*
X278989Y761270D01*
X285000D01*
Y758730D01*
X278989D01*
X279880Y756579D01*
X281579Y754880D01*
X283799Y753960D01*
X285000D01*
Y730521D01*
X285122Y728031D01*
X286094Y723148D01*
X287999Y718548D01*
X290765Y714407D01*
X292439Y712561D01*
X296733Y708267D01*
X298248Y703605D01*
X300927Y698346D01*
X304397Y693570D01*
X308570Y689397D01*
X313346Y685927D01*
X318422Y683341D01*
X319024Y681888D01*
X320000Y676981D01*
Y660390D01*
X319344Y657092D01*
X318057Y653985D01*
X316189Y651189D01*
X313811Y648811D01*
X311015Y646943D01*
X307908Y645656D01*
X304610Y645000D01*
X280521D01*
X278031Y644878D01*
X273148Y643906D01*
X268547Y642001D01*
X264407Y639235D01*
X262561Y637561D01*
X250250Y625250D01*
X245809Y626693D01*
X239960Y627620D01*
X234039D01*
X228190Y626693D01*
X222559Y624864D01*
X217283Y622175D01*
X212492Y618695D01*
X208305Y614508D01*
X204824Y609717D01*
X202136Y604441D01*
X200306Y598809D01*
X199380Y592961D01*
Y587039D01*
X200306Y581190D01*
X202136Y575559D01*
X204824Y570283D01*
X208305Y565492D01*
X212492Y561305D01*
X217283Y557824D01*
X220365Y556254D01*
X220191Y554996D01*
X219249Y554808D01*
X215974Y553451D01*
X213026Y551482D01*
X210518Y548974D01*
X208549Y546026D01*
X207192Y542751D01*
X206500Y539273D01*
Y535727D01*
X207192Y532250D01*
X208549Y528974D01*
X210518Y526026D01*
X213026Y523519D01*
X215974Y521549D01*
X219249Y520192D01*
X222727Y519500D01*
X223299D01*
X224105Y518518D01*
X224024Y518112D01*
X222109Y513490D01*
X219329Y509329D01*
X215000Y505000D01*
X215000D01*
X213811Y503811D01*
X211015Y501943D01*
X207908Y500656D01*
X204610Y500000D01*
X163019D01*
X158112Y500976D01*
X153490Y502891D01*
X149330Y505671D01*
X147561Y507439D01*
X132439Y522561D01*
X130670Y524329D01*
X127891Y528490D01*
X125976Y533112D01*
X125000Y538019D01*
Y540521D01*
Y609479D01*
Y610133D01*
X126270Y610759D01*
X128053Y609391D01*
X130729Y608283D01*
X133600Y607905D01*
X136472Y608283D01*
X139148Y609391D01*
X141446Y611155D01*
X143209Y613452D01*
X144317Y616128D01*
X144695Y619000D01*
Y621000D01*
X144317Y623871D01*
X143209Y626547D01*
X141446Y628845D01*
X139148Y630608D01*
X137701Y631208D01*
X137453Y632453D01*
X150000Y645000D01*
Y748950D01*
X151594D01*
X153616Y749788D01*
X155163Y751335D01*
X156000Y753356D01*
Y755544D01*
X155163Y757566D01*
X153616Y759113D01*
X151594Y759950D01*
X150000D01*
Y865000D01*
Y866189D01*
X150464Y868521D01*
X151374Y870718D01*
X152695Y872695D01*
X153535Y873536D01*
X155000Y875000D01*
X155000D01*
X155000Y875000D01*
X156189Y876189D01*
X158985Y878057D01*
X162092Y879344D01*
X165390Y880000D01*
X218144D01*
X218440Y878765D01*
D02*
G37*
G36*
X1605759Y791683D02*
X1606532Y790830D01*
X1607070Y790323D01*
X1607551Y789760D01*
X1608676Y788800D01*
X1610650Y786825D01*
X1611335Y785882D01*
X1611865Y784843D01*
X1612225Y783734D01*
X1612407Y782583D01*
Y781417D01*
X1612225Y780266D01*
X1611689Y778617D01*
X1610315Y775299D01*
X1609213Y770707D01*
X1608842Y766000D01*
X1609213Y761292D01*
X1610315Y756701D01*
X1611689Y753383D01*
X1612225Y751734D01*
X1612407Y750583D01*
Y749417D01*
X1612225Y748266D01*
X1611689Y746617D01*
X1610315Y743299D01*
X1609213Y738708D01*
X1608842Y734000D01*
X1609213Y729293D01*
X1610315Y724701D01*
X1611689Y721383D01*
X1612225Y719734D01*
X1612407Y718583D01*
Y717417D01*
X1612225Y716266D01*
X1611689Y714617D01*
X1610315Y711299D01*
X1609213Y706708D01*
X1608842Y702000D01*
X1609213Y697292D01*
X1610315Y692701D01*
X1611689Y689383D01*
X1612225Y687735D01*
X1612407Y686583D01*
Y685417D01*
X1612225Y684266D01*
X1611689Y682617D01*
X1610315Y679299D01*
X1609213Y674708D01*
X1608842Y670000D01*
X1609213Y665293D01*
X1610315Y660701D01*
X1611689Y657383D01*
X1612648Y654433D01*
X1612648Y654433D01*
X1614455Y650070D01*
X1616922Y646044D01*
X1619989Y642454D01*
X1633051Y629392D01*
X1633501Y629007D01*
X1633902Y628573D01*
X1635294Y627476D01*
X1636641Y626325D01*
X1637146Y626016D01*
X1637611Y625649D01*
X1641771Y622870D01*
X1642287Y622580D01*
X1642766Y622233D01*
X1644345Y621428D01*
X1645000Y621061D01*
Y605521D01*
X1645537Y603215D01*
X1647273Y598817D01*
X1649835Y594841D01*
X1653122Y591442D01*
X1655000Y590000D01*
X1655000Y590000D01*
X1655000Y590000D01*
X1664800Y579670D01*
X1666136Y575559D01*
X1668824Y570283D01*
X1672305Y565492D01*
X1676492Y561305D01*
X1681283Y557824D01*
X1686559Y555136D01*
X1688754Y554423D01*
X1709901Y532133D01*
X1710387Y529070D01*
X1712138Y523681D01*
X1714710Y518632D01*
X1718041Y514048D01*
X1722048Y510041D01*
X1726632Y506710D01*
X1731681Y504137D01*
X1737070Y502387D01*
X1738309Y502190D01*
X1747560Y492439D01*
X1749330Y490671D01*
X1752109Y486510D01*
X1754024Y481888D01*
X1755000Y476981D01*
X1755000Y474479D01*
X1755000D01*
X1755000Y474479D01*
Y457500D01*
X1796327Y416173D01*
X1795841Y415000D01*
X1755000D01*
Y415000D01*
X1934479D01*
X1934479Y415000D01*
X1934479Y415000D01*
X1936981Y415000D01*
X1941888Y414024D01*
X1946510Y412109D01*
X1950670Y409329D01*
X1952440Y407561D01*
X1982560Y377439D01*
X1982560Y377439D01*
X1984330Y375671D01*
X1987109Y371510D01*
X1989024Y366888D01*
X1990000Y361981D01*
X1990000Y359479D01*
X1990000Y151794D01*
X1988868Y151218D01*
X1988540Y151456D01*
X1983071Y154243D01*
X1977232Y156140D01*
X1971169Y157100D01*
X1965030D01*
X1958967Y156140D01*
X1955400Y154981D01*
X1951832Y156140D01*
X1945769Y157100D01*
X1939630D01*
X1933567Y156140D01*
X1930000Y154981D01*
X1926432Y156140D01*
X1920369Y157100D01*
X1914230D01*
X1908167Y156140D01*
X1904600Y154981D01*
X1901032Y156140D01*
X1894969Y157100D01*
X1888830D01*
X1882767Y156140D01*
X1876929Y154243D01*
X1871459Y151456D01*
X1866493Y147848D01*
X1862152Y143507D01*
X1858544Y138541D01*
X1855757Y133071D01*
X1853860Y127233D01*
X1852900Y121170D01*
Y115031D01*
X1853860Y108968D01*
X1855757Y103130D01*
X1858544Y97660D01*
X1862152Y92694D01*
X1866493Y88353D01*
X1871459Y84745D01*
X1876929Y81958D01*
X1880898Y80668D01*
Y79333D01*
X1876929Y78043D01*
X1871459Y75256D01*
X1866493Y71648D01*
X1862152Y67307D01*
X1858544Y62341D01*
X1855757Y56871D01*
X1853860Y51033D01*
X1852900Y44970D01*
Y38831D01*
X1853860Y32768D01*
X1855757Y26930D01*
X1858544Y21460D01*
X1862152Y16494D01*
X1862472Y16173D01*
X1861986Y15000D01*
X1791176D01*
X1790768Y16203D01*
X1793082Y17978D01*
X1797021Y21918D01*
X1800413Y26337D01*
X1803199Y31162D01*
X1805331Y36309D01*
X1806773Y41691D01*
X1807500Y47214D01*
Y52786D01*
X1806773Y58309D01*
X1805331Y63690D01*
X1803199Y68837D01*
X1800413Y73662D01*
X1797021Y78082D01*
X1793082Y82022D01*
X1788662Y85413D01*
X1783837Y88199D01*
X1778690Y90331D01*
X1773309Y91773D01*
X1767785Y92500D01*
X1762214D01*
X1756691Y91773D01*
X1755000Y91320D01*
X1751309Y90331D01*
X1746162Y88199D01*
X1741337Y85413D01*
X1736918Y82022D01*
X1732978Y78082D01*
X1729586Y73662D01*
X1726801Y68837D01*
X1724669Y63690D01*
X1723227Y58309D01*
X1722500Y52786D01*
Y47214D01*
X1723227Y41691D01*
X1724669Y36309D01*
X1726801Y31162D01*
X1729586Y26337D01*
X1729739Y26139D01*
D01*
X1732978Y21918D01*
X1736918Y17978D01*
X1739231Y16203D01*
X1738823Y15000D01*
X1631177D01*
X1630768Y16203D01*
X1633082Y17978D01*
X1637022Y21918D01*
X1640413Y26337D01*
X1643199Y31162D01*
X1645331Y36309D01*
X1646773Y41691D01*
X1647500Y47214D01*
Y52786D01*
X1646773Y58309D01*
X1645331Y63690D01*
X1643199Y68837D01*
X1640413Y73662D01*
X1637022Y78082D01*
X1633082Y82022D01*
X1628663Y85413D01*
X1623838Y88199D01*
X1618691Y90331D01*
X1613309Y91773D01*
X1607786Y92500D01*
X1602215D01*
X1596691Y91773D01*
X1591310Y90331D01*
X1586163Y88199D01*
X1581338Y85413D01*
X1576918Y82022D01*
X1572978Y78082D01*
X1569587Y73662D01*
X1566801Y68837D01*
X1564669Y63690D01*
X1563227Y58309D01*
X1562500Y52786D01*
Y47214D01*
X1563227Y41691D01*
X1564669Y36309D01*
X1566801Y31162D01*
X1569587Y26337D01*
X1572978Y21918D01*
X1576918Y17978D01*
X1579232Y16203D01*
X1578824Y15000D01*
X1471176D01*
X1470768Y16203D01*
X1473082Y17978D01*
X1477022Y21918D01*
X1480413Y26337D01*
X1483199Y31162D01*
X1485331Y36309D01*
X1486773Y41691D01*
X1487500Y47214D01*
Y52786D01*
X1486773Y58309D01*
X1485331Y63690D01*
X1483199Y68837D01*
X1480413Y73662D01*
X1477022Y78082D01*
X1473082Y82022D01*
X1468662Y85413D01*
X1463837Y88199D01*
X1458690Y90331D01*
X1453309Y91773D01*
X1447785Y92500D01*
X1442214D01*
X1436691Y91773D01*
X1431309Y90331D01*
X1426162Y88199D01*
X1421337Y85413D01*
X1416918Y82022D01*
X1412978Y78082D01*
X1409587Y73662D01*
X1406801Y68837D01*
X1404669Y63690D01*
X1403227Y58309D01*
X1402500Y52786D01*
Y47214D01*
X1403227Y41691D01*
X1404669Y36309D01*
X1406801Y31162D01*
X1409587Y26337D01*
X1412978Y21918D01*
X1416918Y17978D01*
X1419232Y16203D01*
X1418823Y15000D01*
X1311176D01*
X1310768Y16203D01*
X1313082Y17978D01*
X1317021Y21918D01*
X1320413Y26337D01*
X1323199Y31162D01*
X1325331Y36309D01*
X1326772Y41691D01*
X1327500Y47214D01*
Y52786D01*
X1326772Y58309D01*
X1325331Y63690D01*
X1323199Y68837D01*
X1320413Y73662D01*
X1317021Y78082D01*
X1313082Y82022D01*
X1308662Y85413D01*
X1303837Y88199D01*
X1298690Y90331D01*
X1293309Y91773D01*
X1287785Y92500D01*
X1282214D01*
X1276691Y91773D01*
X1271309Y90331D01*
X1266162Y88199D01*
X1261337Y85413D01*
X1256917Y82022D01*
X1252978Y78082D01*
X1249586Y73662D01*
X1246801Y68837D01*
X1244669Y63690D01*
X1243227Y58309D01*
X1242500Y52786D01*
Y47214D01*
X1243227Y41691D01*
X1244669Y36309D01*
X1246801Y31162D01*
X1249586Y26337D01*
X1252978Y21918D01*
X1256917Y17978D01*
X1259231Y16203D01*
X1258823Y15000D01*
X1151177D01*
X1150768Y16203D01*
X1153082Y17978D01*
X1157022Y21918D01*
X1160413Y26337D01*
X1163199Y31162D01*
X1165331Y36309D01*
X1166773Y41691D01*
X1167500Y47214D01*
Y52786D01*
X1166773Y58309D01*
X1165331Y63690D01*
X1163199Y68837D01*
X1160413Y73662D01*
X1157022Y78082D01*
X1153082Y82022D01*
X1148662Y85413D01*
X1143838Y88199D01*
X1138690Y90331D01*
X1133309Y91773D01*
X1127786Y92500D01*
X1122214D01*
X1116691Y91773D01*
X1111310Y90331D01*
X1106162Y88199D01*
X1101338Y85413D01*
X1096918Y82022D01*
X1092978Y78082D01*
X1089587Y73662D01*
X1086801Y68837D01*
X1084669Y63690D01*
X1083227Y58309D01*
X1082500Y52786D01*
Y47214D01*
X1083227Y41691D01*
X1084669Y36309D01*
X1086801Y31162D01*
X1089587Y26337D01*
X1092978Y21918D01*
X1096918Y17978D01*
X1099232Y16203D01*
X1098823Y15000D01*
X991177D01*
X990768Y16203D01*
X993082Y17978D01*
X997022Y21918D01*
X1000413Y26337D01*
X1003199Y31162D01*
X1005331Y36309D01*
X1006773Y41691D01*
X1007500Y47214D01*
Y52786D01*
X1006773Y58309D01*
X1005331Y63690D01*
X1003199Y68837D01*
X1000413Y73662D01*
X997022Y78082D01*
X993082Y82022D01*
X988662Y85413D01*
X983838Y88199D01*
X978690Y90331D01*
X973309Y91773D01*
X967785Y92500D01*
X962214D01*
X956691Y91773D01*
X951309Y90331D01*
X946162Y88199D01*
X941338Y85413D01*
X936917Y82022D01*
X932978Y78082D01*
X929587Y73662D01*
X926801Y68837D01*
X924669Y63690D01*
X923227Y58309D01*
X922500Y52786D01*
Y47214D01*
X923227Y41691D01*
X924669Y36309D01*
X926801Y31162D01*
X929587Y26337D01*
X932978Y21918D01*
X936917Y17978D01*
X939231Y16203D01*
X938823Y15000D01*
X831177D01*
X830769Y16203D01*
X833083Y17978D01*
X837022Y21918D01*
X840413Y26337D01*
X843199Y31162D01*
X845331Y36309D01*
X846773Y41691D01*
X847500Y47214D01*
Y52786D01*
X846773Y58309D01*
X845331Y63690D01*
X843199Y68837D01*
X840413Y73662D01*
X837022Y78082D01*
X833083Y82022D01*
X828663Y85413D01*
X823838Y88199D01*
X818691Y90331D01*
X813309Y91773D01*
X807786Y92500D01*
X802215D01*
X796691Y91773D01*
X791310Y90331D01*
X786163Y88199D01*
X781338Y85413D01*
X776918Y82022D01*
X772978Y78082D01*
X769587Y73662D01*
X766801Y68837D01*
X764669Y63690D01*
X763227Y58309D01*
X762500Y52786D01*
Y47214D01*
X763227Y41691D01*
X764669Y36309D01*
X766801Y31162D01*
X769587Y26337D01*
X772978Y21918D01*
X776918Y17978D01*
X779232Y16203D01*
X778824Y15000D01*
X671177D01*
X670768Y16203D01*
X673082Y17978D01*
X677022Y21918D01*
X680413Y26337D01*
X683199Y31162D01*
X685331Y36309D01*
X686773Y41691D01*
X687500Y47214D01*
Y52786D01*
X686773Y58309D01*
X685331Y63690D01*
X683199Y68837D01*
X680413Y73662D01*
X677022Y78082D01*
X673082Y82022D01*
X668662Y85413D01*
X663838Y88199D01*
X658690Y90331D01*
X653309Y91773D01*
X647786Y92500D01*
X642214D01*
X636691Y91773D01*
X631310Y90331D01*
X626162Y88199D01*
X621338Y85413D01*
X616918Y82022D01*
X612978Y78082D01*
X609587Y73662D01*
X606801Y68837D01*
X604669Y63690D01*
X603227Y58309D01*
X602500Y52786D01*
Y47214D01*
X603227Y41691D01*
X604669Y36309D01*
X606801Y31162D01*
X609587Y26337D01*
X612978Y21918D01*
X616918Y17978D01*
X619232Y16203D01*
X618823Y15000D01*
X511176D01*
X510768Y16203D01*
X513082Y17978D01*
X517021Y21918D01*
X520413Y26337D01*
X523199Y31162D01*
X525331Y36309D01*
X526773Y41691D01*
X527500Y47214D01*
Y52786D01*
X526773Y58309D01*
X525331Y63690D01*
X523199Y68837D01*
X520413Y73662D01*
X517021Y78082D01*
X513827Y81277D01*
X513082Y82022D01*
X508662Y85413D01*
X503837Y88199D01*
X498690Y90331D01*
X493309Y91773D01*
X487785Y92500D01*
X482214D01*
X476691Y91773D01*
X471309Y90331D01*
X466162Y88199D01*
X461337Y85413D01*
X456917Y82022D01*
X452978Y78082D01*
X449586Y73662D01*
X446801Y68837D01*
X444669Y63690D01*
X443227Y58309D01*
X442500Y52786D01*
Y47214D01*
X443227Y41691D01*
X444669Y36309D01*
X446801Y31162D01*
X449586Y26337D01*
X452978Y21918D01*
X456917Y17978D01*
X459231Y16203D01*
X458823Y15000D01*
X351177D01*
X350769Y16203D01*
X353082Y17978D01*
X357022Y21918D01*
X360413Y26337D01*
X363199Y31162D01*
X365331Y36309D01*
X366773Y41691D01*
X367500Y47214D01*
Y52786D01*
X366773Y58309D01*
X365331Y63690D01*
X363199Y68837D01*
X360413Y73662D01*
X357022Y78082D01*
X353082Y82022D01*
X348662Y85413D01*
X343838Y88199D01*
X338691Y90331D01*
X333309Y91773D01*
X327786Y92500D01*
X322215D01*
X316691Y91773D01*
X311310Y90331D01*
X306162Y88199D01*
X301338Y85413D01*
X296918Y82022D01*
X292978Y78082D01*
X289587Y73662D01*
X286801Y68837D01*
X284669Y63690D01*
X283227Y58309D01*
X282500Y52786D01*
Y47214D01*
X283227Y41691D01*
X284669Y36309D01*
X286801Y31162D01*
X289587Y26337D01*
X292978Y21918D01*
X296918Y17978D01*
X299232Y16203D01*
X298824Y15000D01*
X238019D01*
X233112Y15976D01*
X228490Y17891D01*
X224329Y20670D01*
X222561Y22439D01*
X207439Y37561D01*
X207439D01*
X205671Y39330D01*
X202891Y43490D01*
X200976Y48112D01*
X200000Y53019D01*
X200000Y55521D01*
Y63236D01*
X201181Y63423D01*
X206795Y65247D01*
X212054Y67927D01*
X216829Y71396D01*
X221003Y75570D01*
X224473Y80345D01*
X227153Y85605D01*
X228976Y91219D01*
X229900Y97049D01*
Y102951D01*
X228976Y108781D01*
X227153Y114395D01*
X224473Y119654D01*
X221003Y124429D01*
X216829Y128603D01*
X212054Y132073D01*
X206795Y134752D01*
X201181Y136576D01*
X200000Y136763D01*
Y359479D01*
X200000Y361981D01*
X200976Y366888D01*
X202891Y371510D01*
X205671Y375671D01*
X207439Y377439D01*
X237561Y407561D01*
X239329Y409329D01*
X243490Y412109D01*
X248112Y414024D01*
X253019Y415000D01*
X255521Y415000D01*
X440000D01*
Y415000D01*
X401659D01*
X401173Y416173D01*
X440000Y455000D01*
Y459479D01*
X439878Y461969D01*
X438906Y466852D01*
X437001Y471452D01*
X434235Y475592D01*
X432561Y477439D01*
X432561Y477439D01*
X425000Y485000D01*
Y488369D01*
X424245Y495066D01*
X422746Y501636D01*
X420520Y507997D01*
X417596Y514069D01*
X414011Y519775D01*
X409809Y525044D01*
X405044Y529809D01*
X399775Y534011D01*
X394069Y537596D01*
X387997Y540520D01*
X381636Y542746D01*
X375066Y544245D01*
X368370Y545000D01*
X365000D01*
X335384Y574616D01*
X335864Y575559D01*
X337694Y581190D01*
X338620Y587039D01*
Y592961D01*
X337694Y598809D01*
X335864Y604441D01*
X333176Y609717D01*
X329695Y614508D01*
X325508Y618695D01*
X324921Y619121D01*
X324996Y620389D01*
X325160Y620480D01*
X326738Y621284D01*
X327217Y621632D01*
X327734Y621922D01*
X330530Y623790D01*
X330994Y624156D01*
X331499Y624466D01*
X332847Y625616D01*
X334238Y626713D01*
X334640Y627148D01*
X335090Y627532D01*
X337468Y629910D01*
X337852Y630360D01*
X338287Y630762D01*
X339384Y632154D01*
X340535Y633501D01*
X340844Y634006D01*
X341210Y634470D01*
X343078Y637266D01*
X343368Y637783D01*
X343715Y638261D01*
X344520Y639840D01*
X345386Y641386D01*
X345591Y641942D01*
X345859Y642469D01*
X347146Y645576D01*
X347329Y646139D01*
X347577Y646676D01*
X348058Y648381D01*
X348605Y650067D01*
X348698Y650651D01*
X348858Y651221D01*
X349515Y654519D01*
X349584Y655107D01*
X349722Y655682D01*
X349861Y657449D01*
X350070Y659208D01*
X350046Y659800D01*
X350093Y660390D01*
Y676981D01*
X350046Y677571D01*
X350070Y678162D01*
X349861Y679922D01*
X349722Y681688D01*
X349584Y682264D01*
X349515Y682851D01*
X348538Y687759D01*
X348378Y688328D01*
X348285Y688913D01*
X347738Y690598D01*
X347257Y692303D01*
X347009Y692841D01*
X346826Y693404D01*
X346224Y694857D01*
X345687Y695910D01*
X345235Y697003D01*
X344617Y698011D01*
X344081Y699064D01*
X343386Y700021D01*
X342768Y701029D01*
X342000Y701928D01*
X341305Y702884D01*
X340469Y703720D01*
X339701Y704620D01*
X338802Y705387D01*
X337966Y706223D01*
X337009Y706918D01*
X336110Y707686D01*
X335102Y708304D01*
X334146Y708999D01*
X333092Y709536D01*
X332084Y710154D01*
X329118Y711665D01*
X328175Y712350D01*
X327350Y713175D01*
X326665Y714118D01*
X326136Y715157D01*
X325353Y717566D01*
X325353Y717567D01*
X324551Y719502D01*
X323546Y721929D01*
X321078Y725955D01*
X318012Y729546D01*
X315093Y732465D01*
Y745110D01*
X316959Y749616D01*
X318190Y754743D01*
X318604Y760000D01*
X318190Y765257D01*
X316959Y770384D01*
X315093Y774890D01*
Y803516D01*
X317092Y804344D01*
X320390Y805000D01*
X322071Y805000D01*
X322071Y805000D01*
X352442D01*
X365759Y791683D01*
X366532Y790830D01*
X367070Y790323D01*
X367551Y789761D01*
X368675Y788800D01*
X370650Y786825D01*
X371335Y785882D01*
X371865Y784843D01*
X372225Y783734D01*
X372407Y782583D01*
Y781417D01*
X372225Y780266D01*
X371689Y778617D01*
X370315Y775299D01*
X369213Y770707D01*
X368842Y766000D01*
X369213Y761292D01*
X370315Y756701D01*
X371689Y753383D01*
X372225Y751734D01*
X372407Y750583D01*
Y749417D01*
X372225Y748266D01*
X371689Y746617D01*
X370315Y743299D01*
X369213Y738708D01*
X368842Y734000D01*
X369213Y729293D01*
X370315Y724701D01*
X371689Y721383D01*
X372225Y719734D01*
X372407Y718583D01*
Y717417D01*
X372225Y716266D01*
X371689Y714617D01*
X370315Y711299D01*
X369213Y706708D01*
X368842Y702000D01*
X369213Y697292D01*
X370315Y692701D01*
X371689Y689383D01*
X372225Y687735D01*
X372407Y686583D01*
Y685417D01*
X372225Y684266D01*
X371689Y682617D01*
X370315Y679299D01*
X369213Y674708D01*
X368842Y670000D01*
X369213Y665293D01*
X370315Y660701D01*
X371689Y657383D01*
X372648Y654433D01*
X374455Y650070D01*
X376922Y646044D01*
X379989Y642454D01*
X393051Y629392D01*
X393501Y629007D01*
X393903Y628573D01*
X395294Y627476D01*
X396641Y626325D01*
X397146Y626016D01*
X397611Y625649D01*
X401771Y622870D01*
X402287Y622580D01*
X402766Y622233D01*
X404345Y621428D01*
X405000Y621061D01*
Y605521D01*
X405537Y603215D01*
X407273Y598817D01*
X409835Y594841D01*
X413122Y591442D01*
X415000Y590000D01*
X415000Y590000D01*
X415000Y590000D01*
X424800Y579671D01*
X426136Y575559D01*
X428824Y570283D01*
X432305Y565492D01*
X436492Y561305D01*
X441283Y557824D01*
X446559Y555136D01*
X448754Y554423D01*
X469902Y532133D01*
X470387Y529070D01*
X472138Y523681D01*
X474710Y518632D01*
X478041Y514048D01*
X482048Y510041D01*
X486632Y506710D01*
X491681Y504137D01*
X497070Y502387D01*
X498310Y502190D01*
X507561Y492439D01*
X509329Y490671D01*
X512109Y486510D01*
X514024Y481888D01*
X515000Y476981D01*
X515000Y474479D01*
X515000D01*
X515000Y474479D01*
Y455000D01*
X553827Y416173D01*
X553341Y415000D01*
X515000D01*
Y415000D01*
X1060000Y415000D01*
Y415000D01*
X1024159D01*
X1023673Y416173D01*
X1060000Y452500D01*
Y459479D01*
X1059878Y461969D01*
X1058906Y466852D01*
X1057001Y471452D01*
X1054234Y475592D01*
X1052561Y477439D01*
X1052561Y477439D01*
X1045000Y485000D01*
Y488369D01*
X1044245Y495066D01*
X1042746Y501636D01*
X1040520Y507997D01*
X1037596Y514069D01*
X1034011Y519775D01*
X1029809Y525044D01*
X1025044Y529809D01*
X1019775Y534011D01*
X1014069Y537596D01*
X1007997Y540520D01*
X1001636Y542746D01*
X995066Y544245D01*
X988369Y545000D01*
X985000D01*
X955384Y574616D01*
X955864Y575559D01*
X957694Y581190D01*
X958620Y587039D01*
Y592961D01*
X957694Y598809D01*
X955864Y604441D01*
X953175Y609717D01*
X949695Y614508D01*
X945508Y618695D01*
X944921Y619121D01*
X944996Y620388D01*
X945160Y620480D01*
X946738Y621284D01*
X947217Y621632D01*
X947734Y621922D01*
X950530Y623790D01*
X950994Y624156D01*
X951499Y624466D01*
X952847Y625616D01*
X954238Y626713D01*
X954640Y627148D01*
X955090Y627532D01*
X957468Y629910D01*
X957852Y630360D01*
X958287Y630762D01*
X959384Y632154D01*
X960535Y633501D01*
X960844Y634006D01*
X961210Y634470D01*
X963078Y637266D01*
X963367Y637783D01*
X963715Y638261D01*
X964520Y639840D01*
X965386Y641386D01*
X965591Y641942D01*
X965859Y642469D01*
X967146Y645576D01*
X967329Y646139D01*
X967577Y646676D01*
X968058Y648381D01*
X968605Y650067D01*
X968698Y650651D01*
X968858Y651221D01*
X969514Y654519D01*
X969584Y655107D01*
X969722Y655682D01*
X969861Y657449D01*
X970070Y659208D01*
X970046Y659800D01*
X970093Y660390D01*
Y676981D01*
X970046Y677571D01*
X970070Y678162D01*
X969861Y679922D01*
X969722Y681688D01*
X969584Y682264D01*
X969514Y682851D01*
X968538Y687759D01*
X968378Y688328D01*
X968285Y688913D01*
X967738Y690598D01*
X967257Y692303D01*
X967009Y692841D01*
X966826Y693404D01*
X966224Y694857D01*
X965687Y695910D01*
X965235Y697002D01*
X964617Y698010D01*
X964080Y699064D01*
X963385Y700021D01*
X962768Y701029D01*
X962000Y701928D01*
X961305Y702884D01*
X960469Y703720D01*
X959701Y704619D01*
X958802Y705387D01*
X957966Y706223D01*
X957009Y706918D01*
X956110Y707686D01*
X955102Y708304D01*
X954146Y708999D01*
X953092Y709536D01*
X952084Y710154D01*
X949118Y711665D01*
X948175Y712350D01*
X947350Y713175D01*
X946665Y714118D01*
X946135Y715157D01*
X945352Y717567D01*
X945352Y717567D01*
X943545Y721929D01*
X941078Y725956D01*
X938011Y729546D01*
X938011Y729547D01*
X935093Y732465D01*
Y745111D01*
X936959Y749616D01*
X938190Y754743D01*
X938604Y760000D01*
X938190Y765257D01*
X936959Y770384D01*
X935093Y774889D01*
Y803516D01*
X937092Y804344D01*
X940390Y805000D01*
X942071Y805000D01*
X942071Y805000D01*
X972442D01*
X985759Y791683D01*
X986533Y790829D01*
X987071Y790323D01*
X987551Y789760D01*
X988674Y788801D01*
X990650Y786825D01*
X991335Y785882D01*
X991864Y784843D01*
X992225Y783734D01*
X992407Y782583D01*
Y781417D01*
X992225Y780266D01*
X991689Y778617D01*
X990315Y775299D01*
X989212Y770707D01*
X988842Y766000D01*
X989212Y761292D01*
X990315Y756701D01*
X991689Y753383D01*
X992225Y751734D01*
X992407Y750583D01*
Y749417D01*
X992225Y748266D01*
X991689Y746617D01*
X990315Y743299D01*
X989212Y738708D01*
X988842Y734000D01*
X989212Y729293D01*
X990315Y724701D01*
X991689Y721383D01*
X992225Y719734D01*
X992407Y718583D01*
Y717417D01*
X992225Y716266D01*
X991689Y714617D01*
X990315Y711299D01*
X989212Y706708D01*
X988842Y702000D01*
X989212Y697292D01*
X990315Y692701D01*
X991689Y689383D01*
X992225Y687735D01*
X992407Y686583D01*
Y685417D01*
X992225Y684266D01*
X991689Y682617D01*
X990315Y679299D01*
X989212Y674708D01*
X988842Y670000D01*
X989212Y665293D01*
X990315Y660701D01*
X991689Y657383D01*
X992647Y654434D01*
X992647Y654434D01*
X994454Y650071D01*
X996922Y646045D01*
X999988Y642454D01*
X1013051Y629392D01*
X1013501Y629007D01*
X1013903Y628573D01*
X1015294Y627476D01*
X1016641Y626325D01*
X1017146Y626016D01*
X1017611Y625649D01*
X1021771Y622870D01*
X1022287Y622580D01*
X1022766Y622233D01*
X1024345Y621428D01*
X1025000Y621061D01*
Y605521D01*
X1025537Y603215D01*
X1027273Y598817D01*
X1029835Y594841D01*
X1033122Y591442D01*
X1035000Y590000D01*
X1035000Y590000D01*
X1035000Y590000D01*
X1044800Y579670D01*
X1046136Y575559D01*
X1048825Y570283D01*
X1052305Y565492D01*
X1056492Y561305D01*
X1061283Y557824D01*
X1066559Y555136D01*
X1068754Y554423D01*
X1089901Y532133D01*
X1090386Y529070D01*
X1092137Y523681D01*
X1094710Y518632D01*
X1098041Y514048D01*
X1102048Y510041D01*
X1106632Y506710D01*
X1111681Y504137D01*
X1117070Y502387D01*
X1118309Y502190D01*
X1127561Y492439D01*
X1129330Y490671D01*
X1132109Y486510D01*
X1134024Y481888D01*
X1135000Y476981D01*
X1135000Y474479D01*
X1135000D01*
X1135000Y474479D01*
Y457500D01*
X1176327Y416173D01*
X1175841Y415000D01*
X1135000D01*
Y415000D01*
X1680000Y415000D01*
Y415000D01*
X1644159D01*
X1643673Y416173D01*
X1680000Y452500D01*
Y459479D01*
X1679878Y461969D01*
X1678906Y466852D01*
X1677001Y471452D01*
X1674234Y475592D01*
X1672560Y477439D01*
X1672560Y477439D01*
X1665000Y485000D01*
Y488369D01*
X1664246Y495066D01*
X1662746Y501636D01*
X1660520Y507997D01*
X1657596Y514069D01*
X1654011Y519775D01*
X1649809Y525044D01*
X1645044Y529809D01*
X1639775Y534011D01*
X1634069Y537596D01*
X1627997Y540520D01*
X1621636Y542746D01*
X1615066Y544245D01*
X1608370Y545000D01*
X1605000D01*
X1575384Y574616D01*
X1575864Y575559D01*
X1577694Y581190D01*
X1578620Y587039D01*
Y592961D01*
X1577694Y598809D01*
X1575864Y604441D01*
X1573176Y609717D01*
X1569695Y614508D01*
X1565508Y618695D01*
X1564922Y619121D01*
X1564996Y620389D01*
X1565160Y620480D01*
X1566738Y621284D01*
X1567217Y621632D01*
X1567734Y621922D01*
X1570530Y623790D01*
X1570995Y624156D01*
X1571499Y624466D01*
X1572847Y625616D01*
X1574238Y626713D01*
X1574640Y627148D01*
X1575090Y627532D01*
X1577468Y629910D01*
X1577852Y630360D01*
X1578287Y630762D01*
X1579384Y632154D01*
X1580535Y633501D01*
X1580844Y634006D01*
X1581210Y634470D01*
X1583078Y637266D01*
X1583367Y637783D01*
X1583715Y638261D01*
X1584520Y639840D01*
X1585386Y641386D01*
X1585591Y641942D01*
X1585859Y642469D01*
X1587146Y645576D01*
X1587329Y646139D01*
X1587577Y646676D01*
X1588058Y648381D01*
X1588605Y650067D01*
X1588698Y650651D01*
X1588858Y651221D01*
X1589514Y654519D01*
X1589584Y655107D01*
X1589722Y655682D01*
X1589861Y657449D01*
X1590070Y659208D01*
X1590046Y659800D01*
X1590093Y660390D01*
Y676981D01*
X1590046Y677571D01*
X1590070Y678162D01*
X1589861Y679922D01*
X1589722Y681688D01*
X1589584Y682264D01*
X1589514Y682851D01*
X1588538Y687759D01*
X1588378Y688328D01*
X1588285Y688913D01*
X1587737Y690598D01*
X1587257Y692303D01*
X1587009Y692841D01*
X1586826Y693404D01*
X1586224Y694857D01*
X1585687Y695910D01*
X1585235Y697003D01*
X1584617Y698011D01*
X1584080Y699064D01*
X1583385Y700021D01*
X1582768Y701029D01*
X1582000Y701928D01*
X1581305Y702885D01*
X1580469Y703720D01*
X1579701Y704620D01*
X1578802Y705387D01*
X1577966Y706224D01*
X1577009Y706919D01*
X1576110Y707686D01*
X1575102Y708304D01*
X1574145Y708999D01*
X1573092Y709536D01*
X1572084Y710154D01*
X1569118Y711665D01*
X1568175Y712350D01*
X1567350Y713175D01*
X1566665Y714118D01*
X1566136Y715157D01*
X1565353Y717566D01*
X1565353Y717566D01*
X1564551Y719502D01*
X1563546Y721929D01*
X1561078Y725955D01*
X1559556Y727737D01*
X1558012Y729546D01*
X1558011Y729546D01*
X1555093Y732465D01*
Y745110D01*
X1556959Y749616D01*
X1558190Y754743D01*
X1558604Y760000D01*
X1558190Y765257D01*
X1556959Y770384D01*
X1555093Y774890D01*
Y803516D01*
X1557092Y804344D01*
X1560390Y805000D01*
X1562071Y805000D01*
X1562071Y805000D01*
X1592442D01*
X1605759Y791683D01*
D02*
G37*
G36*
X2000000Y547107D02*
X1860000D01*
Y743737D01*
X1880632Y764369D01*
X1883381Y767719D01*
X1884141Y769141D01*
X1885000Y770000D01*
Y770748D01*
X1885424Y771541D01*
X1886682Y775688D01*
X1887106Y780001D01*
X1887106Y780001D01*
Y870000D01*
X1886682Y874313D01*
X1885424Y878460D01*
X1885000Y879252D01*
Y880000D01*
X1884142Y880858D01*
X1883381Y882281D01*
X1880632Y885631D01*
X1877282Y888381D01*
X1875859Y889141D01*
X1865000Y900000D01*
Y1380747D01*
X1865424Y1381540D01*
X1866682Y1385687D01*
X1867107Y1390000D01*
X1866682Y1394312D01*
X1865424Y1398459D01*
X1865000Y1399252D01*
Y1400000D01*
X1864142Y1400858D01*
X1863381Y1402281D01*
X1860632Y1405631D01*
X1857282Y1408381D01*
X1855859Y1409141D01*
X1855000Y1410000D01*
X1854252D01*
X1853460Y1410423D01*
X1849313Y1411681D01*
X1845000Y1412106D01*
X1675000D01*
X1670687Y1411681D01*
X1666540Y1410423D01*
X1665748Y1410000D01*
X1665000D01*
X1664141Y1409141D01*
X1662718Y1408381D01*
X1659368Y1405631D01*
X1656619Y1402281D01*
X1655859Y1400859D01*
X1655000Y1400000D01*
Y1399252D01*
X1654576Y1398459D01*
X1653318Y1394312D01*
X1652894Y1390000D01*
Y1249157D01*
X1355142Y951406D01*
X1353793Y951852D01*
X1353284Y953081D01*
X1352018Y954346D01*
X1350364Y955032D01*
X1348574D01*
X1346920Y954346D01*
X1345654Y953081D01*
X1344969Y951427D01*
Y949636D01*
X1345654Y947982D01*
X1346920Y946717D01*
X1348185Y946192D01*
X1348633Y945104D01*
X1348654Y944762D01*
X1346619Y942282D01*
X1345858Y940858D01*
X1345000Y940000D01*
Y939252D01*
X1344576Y938460D01*
X1343318Y934313D01*
X1342894Y930000D01*
X1343318Y925687D01*
X1344576Y921540D01*
X1345000Y920748D01*
Y670000D01*
X1329142Y654142D01*
X1327718Y653381D01*
X1324368Y650632D01*
X1321619Y647282D01*
X1320858Y645858D01*
X1320000Y645000D01*
Y644253D01*
X1319576Y643460D01*
X1318318Y639313D01*
X1317893Y635000D01*
Y547107D01*
X1240000D01*
Y738201D01*
X1241270Y738454D01*
X1241685Y737451D01*
X1242951Y736185D01*
X1244605Y735500D01*
X1246395D01*
X1248049Y736185D01*
X1249315Y737451D01*
X1250000Y739105D01*
Y740895D01*
X1249315Y742549D01*
X1248049Y743815D01*
X1246395Y744500D01*
X1244605D01*
X1242951Y743815D01*
X1241685Y742549D01*
X1241270Y741547D01*
X1240000Y741799D01*
Y748737D01*
X1260631Y769369D01*
X1260631Y769369D01*
X1263381Y772719D01*
X1263381Y772719D01*
X1264141Y774141D01*
X1265000Y775000D01*
Y775748D01*
X1265424Y776540D01*
X1265424Y776541D01*
X1266682Y780687D01*
X1266682Y780688D01*
X1267106Y785000D01*
X1267106Y785001D01*
Y865000D01*
X1266682Y869313D01*
X1265424Y873460D01*
X1265000Y874252D01*
Y875000D01*
X1264141Y875859D01*
X1263381Y877282D01*
X1260631Y880632D01*
X1257281Y883381D01*
X1255859Y884141D01*
X1245000Y895000D01*
Y1380748D01*
X1245424Y1381540D01*
X1246682Y1385687D01*
X1247106Y1390000D01*
X1246682Y1394312D01*
X1245424Y1398459D01*
X1245000Y1399252D01*
Y1400000D01*
X1244141Y1400859D01*
X1243381Y1402281D01*
X1240631Y1405631D01*
X1237281Y1408381D01*
X1235859Y1409141D01*
X1235000Y1410000D01*
X1234252D01*
X1233460Y1410423D01*
X1229313Y1411681D01*
X1225000Y1412106D01*
X1055000D01*
X1050687Y1411681D01*
X1046540Y1410423D01*
X1045748Y1410000D01*
X1045000D01*
X1044141Y1409141D01*
X1042719Y1408381D01*
X1039369Y1405631D01*
X1036619Y1402281D01*
X1035859Y1400859D01*
X1035000Y1400000D01*
Y1399252D01*
X1034576Y1398459D01*
X1033318Y1394312D01*
X1032894Y1390000D01*
Y1249157D01*
X729368Y945632D01*
X726619Y942282D01*
X725858Y940858D01*
X725000Y940000D01*
Y939253D01*
X724576Y938460D01*
X723318Y934313D01*
X722893Y930000D01*
X723318Y925687D01*
X724576Y921540D01*
X725000Y920747D01*
Y670000D01*
X709141Y654141D01*
X707718Y653381D01*
X704369Y650632D01*
X701619Y647282D01*
X700859Y645859D01*
X700000Y645000D01*
Y644252D01*
X699576Y643460D01*
X698318Y639313D01*
X697894Y635000D01*
Y547107D01*
X620000D01*
Y755000D01*
X645000Y780000D01*
Y870000D01*
X620000Y895000D01*
Y1380748D01*
X620424Y1381540D01*
X621682Y1385687D01*
X622106Y1390000D01*
X621682Y1394312D01*
X620424Y1398459D01*
X620000Y1399252D01*
Y1400000D01*
X619141Y1400859D01*
X618381Y1402281D01*
X615631Y1405631D01*
X612281Y1408381D01*
X610859Y1409141D01*
X610000Y1410000D01*
X609252D01*
X608460Y1410423D01*
X604313Y1411681D01*
X600000Y1412106D01*
X435005D01*
X435000Y1412107D01*
X430687Y1411682D01*
X426540Y1410424D01*
X425747Y1410000D01*
X425000D01*
X424142Y1409142D01*
X422718Y1408381D01*
X419368Y1405632D01*
X416619Y1402282D01*
X415858Y1400858D01*
X415000Y1400000D01*
Y1399253D01*
X414576Y1398460D01*
X413318Y1394313D01*
X412893Y1390000D01*
Y1249157D01*
X109368Y945632D01*
X106619Y942282D01*
X105858Y940858D01*
X105000Y940000D01*
Y939253D01*
X104576Y938460D01*
X103318Y934313D01*
X102894Y930000D01*
X103318Y925687D01*
X104576Y921540D01*
X105000Y920748D01*
Y670000D01*
X90392Y655392D01*
X88968Y654631D01*
X85618Y651882D01*
X82869Y648532D01*
X82108Y647108D01*
X80000Y645000D01*
Y641986D01*
X79568Y640563D01*
X79144Y636250D01*
Y0D01*
X0D01*
Y1500000D01*
X2000000D01*
Y547107D01*
D02*
G37*
%LPC*%
G36*
X1796670Y1208481D02*
Y1194770D01*
X1808048D01*
Y1196000D01*
X1807617Y1199273D01*
X1806354Y1202324D01*
X1804344Y1204943D01*
X1801724Y1206953D01*
X1798674Y1208217D01*
X1796670Y1208481D01*
D02*
G37*
G36*
X1717930D02*
X1715926Y1208217D01*
X1712876Y1206953D01*
X1710256Y1204943D01*
X1708246Y1202324D01*
X1706983Y1199273D01*
X1706552Y1196000D01*
Y1194770D01*
X1717930D01*
Y1208481D01*
D02*
G37*
G36*
X1808048Y1192230D02*
X1796670D01*
Y1178519D01*
X1798674Y1178783D01*
X1801724Y1180046D01*
X1804344Y1182056D01*
X1806354Y1184676D01*
X1807617Y1187726D01*
X1808048Y1191000D01*
Y1192230D01*
D02*
G37*
G36*
X1771270Y1208481D02*
Y1193500D01*
Y1178519D01*
X1773274Y1178783D01*
X1776324Y1180046D01*
X1778944Y1182056D01*
X1780954Y1184676D01*
X1782013Y1187232D01*
X1783387D01*
X1784446Y1184676D01*
X1786456Y1182056D01*
X1789076Y1180046D01*
X1792126Y1178783D01*
X1794130Y1178519D01*
Y1193500D01*
Y1208481D01*
X1792126Y1208217D01*
X1789076Y1206953D01*
X1786456Y1204943D01*
X1784446Y1202324D01*
X1783387Y1199767D01*
X1782013D01*
X1780954Y1202324D01*
X1778944Y1204943D01*
X1776324Y1206953D01*
X1773274Y1208217D01*
X1771270Y1208481D01*
D02*
G37*
G36*
X1745870D02*
Y1193500D01*
Y1178519D01*
X1747874Y1178783D01*
X1750924Y1180046D01*
X1753544Y1182056D01*
X1755554Y1184676D01*
X1756613Y1187232D01*
X1757987D01*
X1759046Y1184676D01*
X1761056Y1182056D01*
X1763676Y1180046D01*
X1766726Y1178783D01*
X1768730Y1178519D01*
Y1193500D01*
Y1208481D01*
X1766726Y1208217D01*
X1763676Y1206953D01*
X1761056Y1204943D01*
X1759046Y1202324D01*
X1757987Y1199767D01*
X1756613D01*
X1755554Y1202324D01*
X1753544Y1204943D01*
X1750924Y1206953D01*
X1747874Y1208217D01*
X1745870Y1208481D01*
D02*
G37*
G36*
X1720470D02*
Y1193500D01*
Y1178519D01*
X1722474Y1178783D01*
X1725524Y1180046D01*
X1728144Y1182056D01*
X1730154Y1184676D01*
X1731213Y1187232D01*
X1732587D01*
X1733646Y1184676D01*
X1735656Y1182056D01*
X1738276Y1180046D01*
X1741326Y1178783D01*
X1743330Y1178519D01*
Y1193500D01*
Y1208481D01*
X1741326Y1208217D01*
X1738276Y1206953D01*
X1735656Y1204943D01*
X1733646Y1202324D01*
X1732587Y1199767D01*
X1731213D01*
X1730154Y1202324D01*
X1728144Y1204943D01*
X1725524Y1206953D01*
X1722474Y1208217D01*
X1720470Y1208481D01*
D02*
G37*
G36*
X1717930Y1192230D02*
X1706552D01*
Y1191000D01*
X1706983Y1187726D01*
X1708246Y1184676D01*
X1710256Y1182056D01*
X1712876Y1180046D01*
X1715926Y1178783D01*
X1717930Y1178519D01*
Y1192230D01*
D02*
G37*
G36*
X1176670Y1208481D02*
Y1194770D01*
X1188048D01*
Y1196000D01*
X1187617Y1199273D01*
X1186354Y1202324D01*
X1184344Y1204943D01*
X1181724Y1206953D01*
X1178674Y1208217D01*
X1176670Y1208481D01*
D02*
G37*
G36*
X1097930D02*
X1095927Y1208217D01*
X1092876Y1206953D01*
X1090257Y1204943D01*
X1088247Y1202324D01*
X1086983Y1199273D01*
X1086552Y1196000D01*
Y1194770D01*
X1097930D01*
Y1208481D01*
D02*
G37*
G36*
X1188048Y1192230D02*
X1176670D01*
Y1178519D01*
X1178674Y1178783D01*
X1181724Y1180046D01*
X1184344Y1182056D01*
X1186354Y1184676D01*
X1187617Y1187726D01*
X1188048Y1191000D01*
Y1192230D01*
D02*
G37*
G36*
X1151270Y1208481D02*
Y1193500D01*
Y1178519D01*
X1153274Y1178783D01*
X1156324Y1180046D01*
X1158944Y1182056D01*
X1160954Y1184676D01*
X1162013Y1187232D01*
X1163388D01*
X1164447Y1184676D01*
X1166457Y1182056D01*
X1169076Y1180046D01*
X1172127Y1178783D01*
X1174130Y1178519D01*
Y1193500D01*
Y1208481D01*
X1172127Y1208217D01*
X1169076Y1206953D01*
X1166457Y1204943D01*
X1164447Y1202324D01*
X1163388Y1199767D01*
X1162013D01*
X1160954Y1202324D01*
X1158944Y1204943D01*
X1156324Y1206953D01*
X1153274Y1208217D01*
X1151270Y1208481D01*
D02*
G37*
G36*
X1125870D02*
Y1193500D01*
Y1178519D01*
X1127874Y1178783D01*
X1130924Y1180046D01*
X1133544Y1182056D01*
X1135554Y1184676D01*
X1136613Y1187232D01*
X1137988D01*
X1139047Y1184676D01*
X1141057Y1182056D01*
X1143676Y1180046D01*
X1146727Y1178783D01*
X1148730Y1178519D01*
Y1193500D01*
Y1208481D01*
X1146727Y1208217D01*
X1143676Y1206953D01*
X1141057Y1204943D01*
X1139047Y1202324D01*
X1137988Y1199767D01*
X1136613D01*
X1135554Y1202324D01*
X1133544Y1204943D01*
X1130924Y1206953D01*
X1127874Y1208217D01*
X1125870Y1208481D01*
D02*
G37*
G36*
X1100470D02*
Y1193500D01*
X1099200D01*
D01*
X1100470D01*
Y1178519D01*
X1102474Y1178783D01*
X1105524Y1180046D01*
X1108144Y1182056D01*
X1110154Y1184676D01*
X1111213Y1187232D01*
X1112588D01*
X1113647Y1184676D01*
X1115657Y1182056D01*
X1118276Y1180046D01*
X1121327Y1178783D01*
X1123330Y1178519D01*
Y1193500D01*
Y1208481D01*
X1121327Y1208217D01*
X1118276Y1206953D01*
X1115657Y1204943D01*
X1113647Y1202324D01*
X1112588Y1199767D01*
X1111213D01*
X1110154Y1202324D01*
X1108144Y1204943D01*
X1105524Y1206953D01*
X1102474Y1208217D01*
X1100470Y1208481D01*
D02*
G37*
G36*
X1097930Y1192230D02*
X1086552D01*
Y1191000D01*
X1086983Y1187726D01*
X1088247Y1184676D01*
X1090257Y1182056D01*
X1092876Y1180046D01*
X1095927Y1178783D01*
X1097930Y1178519D01*
Y1192230D01*
D02*
G37*
G36*
X551670Y1208481D02*
Y1194770D01*
X563048D01*
Y1196000D01*
X562617Y1199273D01*
X561354Y1202324D01*
X559344Y1204943D01*
X556724Y1206953D01*
X553674Y1208217D01*
X551670Y1208481D01*
D02*
G37*
G36*
X472930D02*
X470927Y1208217D01*
X467876Y1206953D01*
X465257Y1204943D01*
X463246Y1202324D01*
X461983Y1199273D01*
X461552Y1196000D01*
Y1194770D01*
X472930D01*
Y1208481D01*
D02*
G37*
G36*
X563048Y1192230D02*
X551670D01*
Y1178519D01*
X553674Y1178783D01*
X556724Y1180046D01*
X559344Y1182056D01*
X561354Y1184676D01*
X562617Y1187726D01*
X563048Y1191000D01*
Y1192230D01*
D02*
G37*
G36*
X526270Y1208481D02*
Y1193500D01*
Y1178519D01*
X528274Y1178783D01*
X531324Y1180046D01*
X533944Y1182056D01*
X535954Y1184676D01*
X537013Y1187232D01*
X538387D01*
X539446Y1184676D01*
X541457Y1182056D01*
X544076Y1180046D01*
X547127Y1178783D01*
X549130Y1178519D01*
Y1193500D01*
Y1208481D01*
X547127Y1208217D01*
X544076Y1206953D01*
X541457Y1204943D01*
X539446Y1202324D01*
X538387Y1199767D01*
X537013D01*
X535954Y1202324D01*
X533944Y1204943D01*
X531324Y1206953D01*
X528274Y1208217D01*
X526270Y1208481D01*
D02*
G37*
G36*
X500870D02*
Y1193500D01*
Y1178519D01*
X502874Y1178783D01*
X505924Y1180046D01*
X508544Y1182056D01*
X510554Y1184676D01*
X511613Y1187232D01*
X512988D01*
X514047Y1184676D01*
X516057Y1182056D01*
X518676Y1180046D01*
X521727Y1178783D01*
X523730Y1178519D01*
Y1193500D01*
Y1208481D01*
X521727Y1208217D01*
X518676Y1206953D01*
X516057Y1204943D01*
X514047Y1202324D01*
X512988Y1199767D01*
X511613D01*
X510554Y1202324D01*
X508544Y1204943D01*
X505924Y1206953D01*
X502874Y1208217D01*
X500870Y1208481D01*
D02*
G37*
G36*
X475470D02*
Y1193500D01*
Y1178519D01*
X477474Y1178783D01*
X480524Y1180046D01*
X483144Y1182056D01*
X485154Y1184676D01*
X486213Y1187232D01*
X487588D01*
X488647Y1184676D01*
X490657Y1182056D01*
X493276Y1180046D01*
X496327Y1178783D01*
X498330Y1178519D01*
Y1193500D01*
Y1208481D01*
X496327Y1208217D01*
X493276Y1206953D01*
X490657Y1204943D01*
X488647Y1202324D01*
X487588Y1199767D01*
X486213D01*
X485154Y1202324D01*
X483144Y1204943D01*
X480524Y1206953D01*
X477474Y1208217D01*
X475470Y1208481D01*
D02*
G37*
G36*
X472930Y1192230D02*
X461552D01*
Y1191000D01*
X461983Y1187726D01*
X463246Y1184676D01*
X465257Y1182056D01*
X467876Y1180046D01*
X470927Y1178783D01*
X472930Y1178519D01*
Y1192230D01*
D02*
G37*
G36*
X1781270Y906012D02*
Y901270D01*
X1786012D01*
X1785121Y903422D01*
X1783421Y905121D01*
X1781270Y906012D01*
D02*
G37*
G36*
X1778730D02*
X1776579Y905121D01*
X1774879Y903422D01*
X1773988Y901270D01*
X1778730D01*
Y906012D01*
D02*
G37*
G36*
X1638266Y919620D02*
X1635733D01*
X1633287Y918965D01*
X1631093Y917698D01*
X1629302Y915907D01*
X1628036Y913713D01*
X1627380Y911267D01*
Y908734D01*
X1628036Y906287D01*
X1629302Y904093D01*
X1631093Y902302D01*
X1633287Y901036D01*
X1635733Y900380D01*
X1638266D01*
X1640713Y901036D01*
X1642907Y902302D01*
X1644698Y904093D01*
X1645964Y906287D01*
X1646620Y908734D01*
Y911267D01*
X1645964Y913713D01*
X1644698Y915907D01*
X1642907Y917698D01*
X1640713Y918965D01*
X1638266Y919620D01*
D02*
G37*
G36*
X1806094Y905500D02*
X1803906D01*
X1801885Y904663D01*
X1800338Y903116D01*
X1799500Y901094D01*
Y898906D01*
X1800338Y896885D01*
X1801885Y895338D01*
X1803906Y894500D01*
X1806094D01*
X1808116Y895338D01*
X1809663Y896885D01*
X1810500Y898906D01*
Y901094D01*
X1809663Y903116D01*
X1808116Y904663D01*
X1806094Y905500D01*
D02*
G37*
G36*
X1786012Y898730D02*
X1781270D01*
Y893989D01*
X1783421Y894880D01*
X1785121Y896579D01*
X1786012Y898730D01*
D02*
G37*
G36*
X1778730D02*
X1773988D01*
X1774879Y896579D01*
X1776579Y894880D01*
X1778730Y893989D01*
Y898730D01*
D02*
G37*
G36*
X1735961Y883620D02*
X1730039D01*
X1724191Y882693D01*
X1718559Y880864D01*
X1717000Y880069D01*
X1715441Y880864D01*
X1709809Y882693D01*
X1703961Y883620D01*
X1698039D01*
X1692191Y882693D01*
X1686559Y880864D01*
X1681283Y878175D01*
X1676492Y874695D01*
X1672305Y870508D01*
X1668824Y865717D01*
X1666136Y860441D01*
X1664306Y854809D01*
X1663380Y848961D01*
Y843039D01*
X1664306Y837190D01*
X1666136Y831559D01*
X1668824Y826283D01*
X1672305Y821492D01*
X1676492Y817305D01*
X1681283Y813824D01*
X1686559Y811136D01*
X1692191Y809306D01*
X1695743Y808743D01*
X1696306Y805191D01*
X1698136Y799559D01*
X1700824Y794283D01*
X1704305Y789492D01*
X1708492Y785305D01*
X1713283Y781824D01*
X1718559Y779136D01*
X1724191Y777306D01*
X1730039Y776380D01*
X1735961D01*
X1741809Y777306D01*
X1747441Y779136D01*
X1752717Y781824D01*
X1757508Y785305D01*
X1761695Y789492D01*
X1765175Y794283D01*
X1767864Y799559D01*
X1769693Y805191D01*
X1770620Y811039D01*
Y816961D01*
X1769693Y822809D01*
X1767864Y828441D01*
X1767069Y830000D01*
X1767864Y831559D01*
X1769693Y837190D01*
X1770620Y843039D01*
Y848961D01*
X1769693Y854809D01*
X1767864Y860441D01*
X1765175Y865717D01*
X1761695Y870508D01*
X1757508Y874695D01*
X1752717Y878175D01*
X1747441Y880864D01*
X1741809Y882693D01*
X1735961Y883620D01*
D02*
G37*
G36*
X1801094Y865500D02*
X1798906D01*
X1796884Y864662D01*
X1795337Y863115D01*
X1794500Y861094D01*
Y858906D01*
X1795337Y856884D01*
X1796884Y855337D01*
X1798906Y854500D01*
X1801094D01*
X1803115Y855337D01*
X1804663Y856884D01*
X1805500Y858906D01*
Y861094D01*
X1804663Y863115D01*
X1803115Y864662D01*
X1801094Y865500D01*
D02*
G37*
G36*
X1781270Y856011D02*
Y851270D01*
X1786012D01*
X1785121Y853421D01*
X1783421Y855120D01*
X1781270Y856011D01*
D02*
G37*
G36*
X1778730D02*
X1776579Y855120D01*
X1774879Y853421D01*
X1773988Y851270D01*
X1778730D01*
Y856011D01*
D02*
G37*
G36*
X1786012Y848730D02*
X1781270D01*
Y843988D01*
X1783421Y844879D01*
X1785121Y846578D01*
X1786012Y848730D01*
D02*
G37*
G36*
X1778730D02*
X1773988D01*
X1774879Y846578D01*
X1776579Y844879D01*
X1778730Y843988D01*
Y848730D01*
D02*
G37*
G36*
X1809270Y812472D02*
Y801270D01*
X1819604D01*
X1819243Y804013D01*
X1818080Y806820D01*
X1816230Y809230D01*
X1813820Y811080D01*
X1811013Y812243D01*
X1809270Y812472D01*
D02*
G37*
G36*
X1806730Y812472D02*
X1804987Y812243D01*
X1802180Y811080D01*
X1799769Y809230D01*
X1797920Y806820D01*
X1796757Y804013D01*
X1796396Y801270D01*
X1806730D01*
Y812472D01*
D02*
G37*
G36*
X1782600Y812095D02*
X1779728Y811717D01*
X1777052Y810608D01*
X1774755Y808845D01*
X1772991Y806547D01*
X1771883Y803872D01*
X1771505Y801000D01*
Y799000D01*
X1771883Y796128D01*
X1772991Y793453D01*
X1774755Y791155D01*
X1777052Y789391D01*
X1779728Y788283D01*
X1782600Y787905D01*
X1785471Y788283D01*
X1788147Y789391D01*
X1790445Y791155D01*
X1792208Y793453D01*
X1793317Y796128D01*
X1793695Y799000D01*
Y801000D01*
X1793317Y803872D01*
X1792208Y806547D01*
X1790445Y808845D01*
X1788147Y810608D01*
X1785471Y811717D01*
X1782600Y812095D01*
D02*
G37*
G36*
X1819604Y798730D02*
X1809270D01*
Y787528D01*
X1811013Y787757D01*
X1813820Y788920D01*
X1816230Y790770D01*
X1818080Y793180D01*
X1819243Y795987D01*
X1819604Y798730D01*
D02*
G37*
G36*
X1806730D02*
X1796396D01*
X1796757Y795987D01*
X1797920Y793180D01*
X1799769Y790770D01*
X1802180Y788920D01*
X1804987Y787757D01*
X1806730Y787527D01*
Y798730D01*
D02*
G37*
G36*
X1611094Y870500D02*
X1608906D01*
X1606884Y869663D01*
X1605337Y868115D01*
X1604500Y866094D01*
Y863906D01*
X1605337Y861885D01*
X1606884Y860337D01*
X1608906Y859500D01*
X1609011D01*
X1708418Y760093D01*
X1709313Y759192D01*
Y759192D01*
X1710253Y758390D01*
X1712892Y756136D01*
X1716905Y753677D01*
X1721253Y751876D01*
X1725829Y750777D01*
X1730521Y750407D01*
Y750411D01*
X1730521Y750412D01*
X1801810D01*
X1801885Y750337D01*
X1803906Y749500D01*
X1806094D01*
X1808116Y750337D01*
X1809663Y751884D01*
X1810500Y753906D01*
Y756094D01*
X1809663Y758115D01*
X1808116Y759662D01*
X1806094Y760500D01*
X1803906D01*
X1801885Y759662D01*
X1801810Y759588D01*
X1730522D01*
X1730521Y759588D01*
Y759588D01*
X1729276Y759649D01*
X1726449Y759928D01*
X1722533Y761115D01*
X1718924Y763044D01*
X1716728Y764847D01*
X1715805Y765684D01*
X1714907Y766581D01*
X1615500Y865989D01*
Y866094D01*
X1614662Y868115D01*
X1613115Y869663D01*
X1611094Y870500D01*
D02*
G37*
G36*
X1702266Y727620D02*
X1699733D01*
X1697287Y726964D01*
X1695093Y725698D01*
X1693302Y723907D01*
X1692036Y721713D01*
X1691380Y719267D01*
Y716734D01*
X1692036Y714287D01*
X1693302Y712093D01*
X1695093Y710302D01*
X1697287Y709036D01*
X1699733Y708380D01*
X1702266D01*
X1704713Y709036D01*
X1706907Y710302D01*
X1708698Y712093D01*
X1709964Y714287D01*
X1710620Y716734D01*
Y719267D01*
X1709964Y721713D01*
X1708698Y723907D01*
X1706907Y725698D01*
X1704713Y726964D01*
X1702266Y727620D01*
D02*
G37*
G36*
X1161270Y906012D02*
Y901270D01*
X1166012D01*
X1165121Y903422D01*
X1163422Y905121D01*
X1161270Y906012D01*
D02*
G37*
G36*
X1158730D02*
X1156579Y905121D01*
X1154880Y903422D01*
X1153989Y901270D01*
X1158730D01*
Y906012D01*
D02*
G37*
G36*
X1018267Y919620D02*
X1015734D01*
X1013287Y918965D01*
X1011093Y917698D01*
X1009302Y915907D01*
X1008036Y913713D01*
X1007380Y911267D01*
Y908734D01*
X1008036Y906287D01*
X1009302Y904093D01*
X1011093Y902302D01*
X1013287Y901036D01*
X1015734Y900380D01*
X1018267D01*
X1020713Y901036D01*
X1022907Y902302D01*
X1024698Y904093D01*
X1025965Y906287D01*
X1026620Y908734D01*
Y911267D01*
X1025965Y913713D01*
X1024698Y915907D01*
X1022907Y917698D01*
X1020713Y918965D01*
X1018267Y919620D01*
D02*
G37*
G36*
X1186094Y905500D02*
X1183906D01*
X1181884Y904663D01*
X1180337Y903116D01*
X1179500Y901094D01*
Y898906D01*
X1180337Y896885D01*
X1181884Y895338D01*
X1183906Y894500D01*
X1186094D01*
X1188115Y895338D01*
X1189663Y896885D01*
X1190500Y898906D01*
Y901094D01*
X1189663Y903116D01*
X1188115Y904663D01*
X1186094Y905500D01*
D02*
G37*
G36*
X1166012Y898730D02*
X1161270D01*
Y893989D01*
X1163422Y894880D01*
X1165121Y896579D01*
X1166012Y898730D01*
D02*
G37*
G36*
X1158730D02*
X1153989D01*
X1154880Y896579D01*
X1156579Y894880D01*
X1158730Y893989D01*
Y898730D01*
D02*
G37*
G36*
X1115961Y883620D02*
X1110039D01*
X1104191Y882693D01*
X1098559Y880864D01*
X1097000Y880069D01*
X1095441Y880864D01*
X1089809Y882693D01*
X1083961Y883620D01*
X1078039D01*
X1072191Y882693D01*
X1066559Y880864D01*
X1061283Y878175D01*
X1056492Y874695D01*
X1052305Y870508D01*
X1048825Y865717D01*
X1046136Y860441D01*
X1044306Y854809D01*
X1043380Y848961D01*
Y843039D01*
X1044306Y837190D01*
X1046136Y831559D01*
X1048825Y826283D01*
X1052305Y821492D01*
X1056492Y817305D01*
X1061283Y813824D01*
X1066559Y811136D01*
X1072191Y809306D01*
X1075744Y808743D01*
X1076306Y805191D01*
X1078136Y799559D01*
X1080825Y794283D01*
X1084305Y789492D01*
X1088492Y785305D01*
X1093283Y781824D01*
X1098559Y779136D01*
X1104191Y777306D01*
X1110039Y776380D01*
X1115961D01*
X1121809Y777306D01*
X1127441Y779136D01*
X1132717Y781824D01*
X1137508Y785305D01*
X1141695Y789492D01*
X1145176Y794283D01*
X1147864Y799559D01*
X1149694Y805191D01*
X1150620Y811039D01*
Y816961D01*
X1149694Y822809D01*
X1147864Y828441D01*
X1147070Y830000D01*
X1147864Y831559D01*
X1149694Y837190D01*
X1150620Y843039D01*
Y848961D01*
X1149694Y854809D01*
X1147864Y860441D01*
X1145176Y865717D01*
X1141695Y870508D01*
X1137508Y874695D01*
X1132717Y878175D01*
X1127441Y880864D01*
X1121809Y882693D01*
X1115961Y883620D01*
D02*
G37*
G36*
X1181094Y865500D02*
X1178906D01*
X1176885Y864662D01*
X1175338Y863115D01*
X1174500Y861094D01*
Y858906D01*
X1175338Y856884D01*
X1176885Y855337D01*
X1178906Y854500D01*
X1181094D01*
X1183116Y855337D01*
X1184663Y856884D01*
X1185500Y858906D01*
Y861094D01*
X1184663Y863115D01*
X1183116Y864662D01*
X1181094Y865500D01*
D02*
G37*
G36*
X1161270Y856011D02*
Y851270D01*
X1166012D01*
X1165121Y853421D01*
X1163422Y855120D01*
X1161270Y856011D01*
D02*
G37*
G36*
X1158730D02*
X1156579Y855120D01*
X1154880Y853421D01*
X1153989Y851270D01*
X1158730D01*
Y856011D01*
D02*
G37*
G36*
X1166012Y848730D02*
X1161270D01*
Y843988D01*
X1163422Y844879D01*
X1165121Y846578D01*
X1166012Y848730D01*
D02*
G37*
G36*
X1158730D02*
X1153989D01*
X1154880Y846578D01*
X1156579Y844879D01*
X1158730Y843988D01*
Y848730D01*
D02*
G37*
G36*
X1189670Y812472D02*
Y801270D01*
X1200004D01*
X1199643Y804013D01*
X1198480Y806820D01*
X1196630Y809230D01*
X1194220Y811080D01*
X1191413Y812243D01*
X1189670Y812472D01*
D02*
G37*
G36*
X1187130D02*
X1185387Y812243D01*
X1182580Y811080D01*
X1180170Y809230D01*
X1178320Y806820D01*
X1177157Y804013D01*
X1176796Y801270D01*
X1187130D01*
Y812472D01*
D02*
G37*
G36*
X1163000Y812095D02*
X1160128Y811717D01*
X1157452Y810608D01*
X1155155Y808845D01*
X1153391Y806547D01*
X1152283Y803872D01*
X1151905Y801000D01*
Y799000D01*
X1152283Y796128D01*
X1153391Y793453D01*
X1155155Y791155D01*
X1157452Y789391D01*
X1160128Y788283D01*
X1163000Y787905D01*
X1165872Y788283D01*
X1168547Y789391D01*
X1170845Y791155D01*
X1172608Y793453D01*
X1173717Y796128D01*
X1174095Y799000D01*
Y801000D01*
X1173717Y803872D01*
X1172608Y806547D01*
X1170845Y808845D01*
X1168547Y810608D01*
X1165872Y811717D01*
X1163000Y812095D01*
D02*
G37*
G36*
X1200004Y798730D02*
X1189670D01*
Y787527D01*
X1191413Y787757D01*
X1194220Y788920D01*
X1196630Y790770D01*
X1198480Y793180D01*
X1199643Y795987D01*
X1200004Y798730D01*
D02*
G37*
G36*
X1187130D02*
X1176796D01*
X1177157Y795987D01*
X1178320Y793180D01*
X1180170Y790770D01*
X1182580Y788920D01*
X1185387Y787757D01*
X1187130Y787527D01*
Y798730D01*
D02*
G37*
G36*
X991094Y870500D02*
X988906D01*
X986885Y869663D01*
X985337Y868115D01*
X984500Y866094D01*
Y863906D01*
X985337Y861885D01*
X986885Y860337D01*
X988906Y859500D01*
X989011D01*
X1088418Y760093D01*
X1089313Y759192D01*
Y759192D01*
X1090253Y758390D01*
X1092892Y756136D01*
X1096905Y753677D01*
X1101253Y751876D01*
X1105829Y750777D01*
X1110521Y750407D01*
Y750412D01*
X1181810D01*
X1181884Y750337D01*
X1183906Y749500D01*
X1186094D01*
X1188115Y750337D01*
X1189663Y751884D01*
X1190500Y753906D01*
Y756094D01*
X1189663Y758115D01*
X1188115Y759662D01*
X1186094Y760500D01*
X1183906D01*
X1181884Y759662D01*
X1181810Y759588D01*
X1110522D01*
X1110521Y759588D01*
X1109276Y759649D01*
X1106449Y759928D01*
X1102533Y761115D01*
X1098924Y763044D01*
X1095922Y765508D01*
X1095805Y765684D01*
X995500Y865989D01*
Y866094D01*
X994663Y868115D01*
X993115Y869663D01*
X991094Y870500D01*
D02*
G37*
G36*
X1082267Y727620D02*
X1079734D01*
X1077287Y726964D01*
X1075093Y725698D01*
X1073302Y723907D01*
X1072036Y721713D01*
X1071380Y719267D01*
Y716734D01*
X1072036Y714287D01*
X1073302Y712093D01*
X1075093Y710302D01*
X1077287Y709036D01*
X1079734Y708380D01*
X1082267D01*
X1084713Y709036D01*
X1086907Y710302D01*
X1088698Y712093D01*
X1089965Y714287D01*
X1090620Y716734D01*
Y719267D01*
X1089965Y721713D01*
X1088698Y723907D01*
X1086907Y725698D01*
X1084713Y726964D01*
X1082267Y727620D01*
D02*
G37*
G36*
X541270Y906012D02*
Y901270D01*
X546012D01*
X545120Y903422D01*
X543421Y905121D01*
X541270Y906012D01*
D02*
G37*
G36*
X538730D02*
X536579Y905121D01*
X534879Y903422D01*
X533988Y901270D01*
X538730D01*
Y906012D01*
D02*
G37*
G36*
X398266Y919620D02*
X395733D01*
X393287Y918965D01*
X391093Y917698D01*
X389302Y915907D01*
X388036Y913713D01*
X387380Y911267D01*
Y908734D01*
X388036Y906287D01*
X389302Y904093D01*
X391093Y902302D01*
X393287Y901036D01*
X395733Y900380D01*
X398266D01*
X400713Y901036D01*
X402907Y902302D01*
X404698Y904093D01*
X405964Y906287D01*
X406620Y908734D01*
Y911267D01*
X405964Y913713D01*
X404698Y915907D01*
X402907Y917698D01*
X400713Y918965D01*
X398266Y919620D01*
D02*
G37*
G36*
X566094Y905500D02*
X563906D01*
X561885Y904663D01*
X560337Y903116D01*
X559500Y901094D01*
Y898906D01*
X560337Y896885D01*
X561885Y895338D01*
X563906Y894500D01*
X566094D01*
X568116Y895338D01*
X569663Y896885D01*
X570500Y898906D01*
Y901094D01*
X569663Y903116D01*
X568116Y904663D01*
X566094Y905500D01*
D02*
G37*
G36*
X546012Y898730D02*
X541270D01*
Y893989D01*
X543421Y894880D01*
X545120Y896579D01*
X546012Y898730D01*
D02*
G37*
G36*
X538730D02*
X533988D01*
X534879Y896579D01*
X536579Y894880D01*
X538730Y893989D01*
Y898730D01*
D02*
G37*
G36*
X495961Y883620D02*
X490039D01*
X484190Y882693D01*
X478559Y880864D01*
X477000Y880069D01*
X475441Y880864D01*
X469809Y882693D01*
X463961Y883620D01*
X458039D01*
X452191Y882693D01*
X446559Y880864D01*
X441283Y878175D01*
X436492Y874695D01*
X432305Y870508D01*
X428824Y865717D01*
X426136Y860441D01*
X424306Y854809D01*
X423380Y848961D01*
Y843039D01*
X424306Y837190D01*
X426136Y831559D01*
X428824Y826283D01*
X432305Y821492D01*
X436492Y817305D01*
X441283Y813824D01*
X446559Y811136D01*
X452191Y809306D01*
X455743Y808743D01*
X456306Y805191D01*
X458136Y799559D01*
X460824Y794283D01*
X464305Y789492D01*
X468492Y785305D01*
X473283Y781824D01*
X478559Y779136D01*
X484190Y777306D01*
X490039Y776380D01*
X495961D01*
X501809Y777306D01*
X507441Y779136D01*
X512717Y781824D01*
X517508Y785305D01*
X521695Y789492D01*
X525175Y794283D01*
X527297Y798447D01*
X528608Y798222D01*
X528883Y796128D01*
X529992Y793453D01*
X531755Y791155D01*
X534053Y789391D01*
X536729Y788283D01*
X539600Y787905D01*
X542472Y788283D01*
X545148Y789391D01*
X547445Y791155D01*
X549209Y793453D01*
X550317Y796128D01*
X550695Y799000D01*
Y801000D01*
X550317Y803872D01*
X549209Y806547D01*
X547445Y808845D01*
X545148Y810608D01*
X542472Y811717D01*
X539600Y812095D01*
X536729Y811717D01*
X534053Y810608D01*
X531755Y808845D01*
X531507Y808522D01*
X530303Y809039D01*
X530620Y811039D01*
Y816961D01*
X529693Y822809D01*
X527864Y828441D01*
X527069Y830000D01*
X527864Y831559D01*
X529693Y837190D01*
X530620Y843039D01*
Y848961D01*
X529693Y854809D01*
X527864Y860441D01*
X525175Y865717D01*
X521695Y870508D01*
X517508Y874695D01*
X512717Y878175D01*
X507441Y880864D01*
X501809Y882693D01*
X495961Y883620D01*
D02*
G37*
G36*
X561094Y865500D02*
X558906D01*
X556884Y864662D01*
X555337Y863115D01*
X554500Y861094D01*
Y858906D01*
X555337Y856884D01*
X556884Y855337D01*
X558906Y854500D01*
X561094D01*
X563115Y855337D01*
X564663Y856884D01*
X565500Y858906D01*
Y861094D01*
X564663Y863115D01*
X563115Y864662D01*
X561094Y865500D01*
D02*
G37*
G36*
X541270Y856011D02*
Y851270D01*
X546012D01*
X545120Y853421D01*
X543421Y855120D01*
X541270Y856011D01*
D02*
G37*
G36*
X538730D02*
X536579Y855120D01*
X534879Y853421D01*
X533988Y851270D01*
X538730D01*
Y856011D01*
D02*
G37*
G36*
X546012Y848730D02*
X541270D01*
Y843988D01*
X543421Y844879D01*
X545120Y846578D01*
X546012Y848730D01*
D02*
G37*
G36*
X538730D02*
X533988D01*
X534879Y846578D01*
X536579Y844879D01*
X538730Y843988D01*
Y848730D01*
D02*
G37*
G36*
X566270Y812472D02*
Y801270D01*
X576604D01*
X576243Y804013D01*
X575080Y806820D01*
X573231Y809230D01*
X570820Y811080D01*
X568013Y812243D01*
X566270Y812472D01*
D02*
G37*
G36*
X563730D02*
X561988Y812243D01*
X559180Y811080D01*
X556770Y809230D01*
X554920Y806820D01*
X553757Y804013D01*
X553396Y801270D01*
X563730D01*
Y812472D01*
D02*
G37*
G36*
X576604Y798730D02*
X566270D01*
Y787527D01*
X568013Y787757D01*
X570820Y788920D01*
X573231Y790770D01*
X575080Y793180D01*
X576243Y795987D01*
X576604Y798730D01*
D02*
G37*
G36*
X563730D02*
X553396D01*
X553757Y795987D01*
X554920Y793180D01*
X556770Y790770D01*
X559180Y788920D01*
X561988Y787757D01*
X563730Y787527D01*
Y798730D01*
D02*
G37*
G36*
X371094Y870500D02*
X368906D01*
X366884Y869663D01*
X365337Y868115D01*
X364500Y866094D01*
Y863906D01*
X365337Y861885D01*
X366884Y860337D01*
X368906Y859500D01*
X369011D01*
X468418Y760093D01*
X469313Y759192D01*
X469313Y759192D01*
X470240Y758401D01*
X470253Y758390D01*
X470260Y758384D01*
X472892Y756136D01*
X476905Y753677D01*
X481253Y751876D01*
X485829Y750777D01*
X490521Y750407D01*
Y750411D01*
X490521Y750412D01*
X561810D01*
X561885Y750337D01*
X563906Y749500D01*
X566094D01*
X568116Y750337D01*
X569663Y751884D01*
X570500Y753906D01*
Y756094D01*
X569663Y758115D01*
X568116Y759662D01*
X566094Y760500D01*
X563906D01*
X561885Y759662D01*
X561810Y759588D01*
X490522D01*
X490521Y759588D01*
Y759588D01*
X489276Y759649D01*
X486449Y759928D01*
X482533Y761115D01*
X478924Y763044D01*
X476728Y764847D01*
X475805Y765684D01*
X475805Y765684D01*
X475804Y765684D01*
X375500Y865989D01*
Y866094D01*
X374662Y868115D01*
X373115Y869663D01*
X371094Y870500D01*
D02*
G37*
G36*
X462266Y727620D02*
X459733D01*
X457287Y726964D01*
X455093Y725698D01*
X453302Y723907D01*
X452035Y721713D01*
X451380Y719267D01*
Y716734D01*
X452035Y714287D01*
X453302Y712093D01*
X455093Y710302D01*
X457287Y709036D01*
X459733Y708380D01*
X462266D01*
X464713Y709036D01*
X466907Y710302D01*
X468698Y712093D01*
X469964Y714287D01*
X470620Y716734D01*
Y719267D01*
X469964Y721713D01*
X468698Y723907D01*
X466907Y725698D01*
X464713Y726964D01*
X462266Y727620D01*
D02*
G37*
G36*
X1510266D02*
X1507733D01*
X1505287Y726964D01*
X1503093Y725698D01*
X1501302Y723907D01*
X1500035Y721713D01*
X1499380Y719267D01*
Y716734D01*
X1500035Y714287D01*
X1501302Y712093D01*
X1503093Y710302D01*
X1505287Y709036D01*
X1507733Y708380D01*
X1510266D01*
X1512713Y709036D01*
X1514907Y710302D01*
X1516698Y712093D01*
X1517964Y714287D01*
X1518620Y716734D01*
Y719267D01*
X1517964Y721713D01*
X1516698Y723907D01*
X1514907Y725698D01*
X1512713Y726964D01*
X1510266Y727620D01*
D02*
G37*
G36*
X1406270Y661012D02*
Y656270D01*
X1411012D01*
X1410120Y658421D01*
X1408421Y660120D01*
X1406270Y661012D01*
D02*
G37*
G36*
X1403730D02*
X1401579Y660120D01*
X1399879Y658421D01*
X1398988Y656270D01*
X1403730D01*
Y661012D01*
D02*
G37*
G36*
X1411012Y653730D02*
X1406270D01*
Y648988D01*
X1408421Y649880D01*
X1410120Y651579D01*
X1411012Y653730D01*
D02*
G37*
G36*
X1403730D02*
X1398988D01*
X1399879Y651579D01*
X1401579Y649880D01*
X1403730Y648988D01*
Y653730D01*
D02*
G37*
G36*
X1398270Y632472D02*
Y621270D01*
X1408604D01*
X1408243Y624012D01*
X1407080Y626820D01*
X1405230Y629230D01*
X1402820Y631080D01*
X1400013Y632243D01*
X1398270Y632472D01*
D02*
G37*
G36*
X1395730D02*
X1393987Y632243D01*
X1391180Y631080D01*
X1388770Y629230D01*
X1386920Y626820D01*
X1385757Y624012D01*
X1385396Y621270D01*
X1395730D01*
Y632472D01*
D02*
G37*
G36*
X1422400Y632095D02*
X1419528Y631717D01*
X1416853Y630608D01*
X1414555Y628845D01*
X1412791Y626547D01*
X1411683Y623871D01*
X1411305Y621000D01*
Y619000D01*
X1411683Y616128D01*
X1412791Y613452D01*
X1414555Y611155D01*
X1416853Y609391D01*
X1419528Y608283D01*
X1422400Y607905D01*
X1425272Y608283D01*
X1427948Y609391D01*
X1430245Y611155D01*
X1432009Y613452D01*
X1433117Y616128D01*
X1433495Y619000D01*
Y621000D01*
X1433117Y623871D01*
X1432009Y626547D01*
X1430245Y628845D01*
X1427948Y630608D01*
X1425272Y631717D01*
X1422400Y632095D01*
D02*
G37*
G36*
X1408604Y618730D02*
X1398270D01*
Y607527D01*
X1400013Y607757D01*
X1402820Y608920D01*
X1405230Y610769D01*
X1407080Y613180D01*
X1408243Y615987D01*
X1408604Y618730D01*
D02*
G37*
G36*
X1395730D02*
X1385396D01*
X1385757Y615987D01*
X1386920Y613180D01*
X1388770Y610769D01*
X1391180Y608920D01*
X1393987Y607757D01*
X1395730Y607527D01*
Y618730D01*
D02*
G37*
G36*
X890266Y727620D02*
X887734D01*
X885287Y726964D01*
X883093Y725698D01*
X881302Y723907D01*
X880036Y721713D01*
X879380Y719267D01*
Y716734D01*
X880036Y714287D01*
X881302Y712093D01*
X883093Y710302D01*
X885287Y709036D01*
X887734Y708380D01*
X890266D01*
X892713Y709036D01*
X894907Y710302D01*
X896698Y712093D01*
X897964Y714287D01*
X898620Y716734D01*
Y719267D01*
X897964Y721713D01*
X896698Y723907D01*
X894907Y725698D01*
X892713Y726964D01*
X890266Y727620D01*
D02*
G37*
G36*
X786270Y661012D02*
Y656270D01*
X791012D01*
X790121Y658421D01*
X788422Y660120D01*
X786270Y661012D01*
D02*
G37*
G36*
X783730D02*
X781579Y660120D01*
X779880Y658421D01*
X778989Y656270D01*
X783730D01*
Y661012D01*
D02*
G37*
G36*
X791012Y653730D02*
X786270D01*
Y648988D01*
X788422Y649880D01*
X790121Y651579D01*
X791012Y653730D01*
D02*
G37*
G36*
X783730D02*
X778989D01*
X779880Y651579D01*
X781579Y649880D01*
X783730Y648988D01*
Y653730D01*
D02*
G37*
G36*
X778270Y632472D02*
Y621270D01*
X788604D01*
X788243Y624012D01*
X787080Y626820D01*
X785231Y629230D01*
X782820Y631080D01*
X780013Y632243D01*
X778270Y632472D01*
D02*
G37*
G36*
X775730D02*
X773988Y632243D01*
X771180Y631080D01*
X768770Y629230D01*
X766920Y626820D01*
X765757Y624012D01*
X765396Y621270D01*
X775730D01*
Y632472D01*
D02*
G37*
G36*
X802400Y632095D02*
X799529Y631717D01*
X796853Y630608D01*
X794555Y628845D01*
X792792Y626547D01*
X791683Y623871D01*
X791305Y621000D01*
Y619000D01*
X791683Y616128D01*
X792792Y613452D01*
X794555Y611155D01*
X796853Y609391D01*
X799529Y608283D01*
X802400Y607905D01*
X805272Y608283D01*
X807948Y609391D01*
X810246Y611155D01*
X812009Y613452D01*
X813117Y616128D01*
X813495Y619000D01*
Y621000D01*
X813117Y623871D01*
X812009Y626547D01*
X810246Y628845D01*
X807948Y630608D01*
X805272Y631717D01*
X802400Y632095D01*
D02*
G37*
G36*
X788604Y618730D02*
X778270D01*
Y607527D01*
X780013Y607757D01*
X782820Y608920D01*
X785231Y610769D01*
X787080Y613180D01*
X788243Y615987D01*
X788604Y618730D01*
D02*
G37*
G36*
X775730D02*
X765396D01*
X765757Y615987D01*
X766920Y613180D01*
X768770Y610769D01*
X771180Y608920D01*
X773988Y607757D01*
X775730Y607527D01*
Y618730D01*
D02*
G37*
G36*
X270267Y727620D02*
X267734D01*
X265287Y726964D01*
X263093Y725698D01*
X261302Y723907D01*
X260036Y721713D01*
X259380Y719267D01*
Y716734D01*
X260036Y714287D01*
X261302Y712093D01*
X263093Y710302D01*
X265287Y709036D01*
X267734Y708380D01*
X270267D01*
X272713Y709036D01*
X274907Y710302D01*
X276698Y712093D01*
X277965Y714287D01*
X278620Y716734D01*
Y719267D01*
X277965Y721713D01*
X276698Y723907D01*
X274907Y725698D01*
X272713Y726964D01*
X270267Y727620D01*
D02*
G37*
G36*
X166270Y661012D02*
Y656270D01*
X171012D01*
X170120Y658421D01*
X168421Y660120D01*
X166270Y661012D01*
D02*
G37*
G36*
X163730D02*
X161579Y660120D01*
X159880Y658421D01*
X158988Y656270D01*
X163730D01*
Y661012D01*
D02*
G37*
G36*
X171012Y653730D02*
X166270D01*
Y648988D01*
X168421Y649880D01*
X170120Y651579D01*
X171012Y653730D01*
D02*
G37*
G36*
X163730D02*
X158988D01*
X159880Y651579D01*
X161579Y649880D01*
X163730Y648988D01*
Y653730D01*
D02*
G37*
G36*
X160270Y632472D02*
Y621270D01*
X170604D01*
X170243Y624012D01*
X169081Y626820D01*
X167231Y629230D01*
X164820Y631080D01*
X162013Y632243D01*
X160270Y632472D01*
D02*
G37*
G36*
X157730D02*
X155988Y632243D01*
X153181Y631080D01*
X150770Y629230D01*
X148920Y626820D01*
X147758Y624012D01*
X147396Y621270D01*
X157730D01*
Y632472D01*
D02*
G37*
G36*
X184400Y632095D02*
X181529Y631717D01*
X178853Y630608D01*
X176555Y628845D01*
X174792Y626547D01*
X173684Y623871D01*
X173305Y621000D01*
Y619000D01*
X173684Y616128D01*
X174792Y613452D01*
X176555Y611155D01*
X178853Y609391D01*
X181529Y608283D01*
X184400Y607905D01*
X187272Y608283D01*
X189948Y609391D01*
X192246Y611155D01*
X194009Y613452D01*
X195117Y616128D01*
X195495Y619000D01*
Y621000D01*
X195117Y623871D01*
X194009Y626547D01*
X192246Y628845D01*
X189948Y630608D01*
X187272Y631717D01*
X184400Y632095D01*
D02*
G37*
G36*
X170604Y618730D02*
X160270D01*
Y607527D01*
X162013Y607757D01*
X164820Y608920D01*
X167231Y610769D01*
X169081Y613180D01*
X170243Y615987D01*
X170604Y618730D01*
D02*
G37*
G36*
X157730D02*
X147396D01*
X147758Y615987D01*
X148920Y613180D01*
X150770Y610769D01*
X153181Y608920D01*
X155988Y607757D01*
X157730Y607527D01*
Y618730D01*
D02*
G37*
G36*
X132822Y1487440D02*
X132770D01*
Y1478670D01*
X141540D01*
Y1478722D01*
X140856Y1481275D01*
X139534Y1483565D01*
X137665Y1485434D01*
X135375Y1486756D01*
X132822Y1487440D01*
D02*
G37*
G36*
X107422D02*
X107370D01*
Y1478670D01*
X116140D01*
Y1478722D01*
X115456Y1481275D01*
X114134Y1483565D01*
X112265Y1485434D01*
X109975Y1486756D01*
X107422Y1487440D01*
D02*
G37*
G36*
X130230D02*
X130178D01*
X127625Y1486756D01*
X125335Y1485434D01*
X123466Y1483565D01*
X122144Y1481275D01*
X121460Y1478722D01*
Y1478670D01*
X130230D01*
Y1487440D01*
D02*
G37*
G36*
X104830D02*
X104778D01*
X102225Y1486756D01*
X99935Y1485434D01*
X98066Y1483565D01*
X96744Y1481275D01*
X96060Y1478722D01*
Y1478670D01*
X104830D01*
Y1487440D01*
D02*
G37*
G36*
X141540Y1476130D02*
X132770D01*
Y1467360D01*
X132822D01*
X135375Y1468044D01*
X137665Y1469366D01*
X139534Y1471235D01*
X140856Y1473525D01*
X141540Y1476078D01*
Y1476130D01*
D02*
G37*
G36*
X130230D02*
X121460D01*
Y1476078D01*
X122144Y1473525D01*
X123466Y1471235D01*
X125335Y1469366D01*
X127625Y1468044D01*
X130178Y1467360D01*
X130230D01*
Y1476130D01*
D02*
G37*
G36*
X116140D02*
X107370D01*
Y1467360D01*
X107422D01*
X109975Y1468044D01*
X112265Y1469366D01*
X114134Y1471235D01*
X115456Y1473525D01*
X116140Y1476078D01*
Y1476130D01*
D02*
G37*
G36*
X104830D02*
X96060D01*
Y1476078D01*
X96744Y1473525D01*
X98066Y1471235D01*
X99935Y1469366D01*
X102225Y1468044D01*
X104778Y1467360D01*
X104830D01*
Y1476130D01*
D02*
G37*
G36*
X132751Y1461500D02*
X130249D01*
X127833Y1460853D01*
X125667Y1459602D01*
X123898Y1457833D01*
X122647Y1455667D01*
X122000Y1453251D01*
Y1450749D01*
X122647Y1448333D01*
X123898Y1446167D01*
X125667Y1444398D01*
X127833Y1443148D01*
X130249Y1442500D01*
X132751D01*
X135167Y1443148D01*
X137333Y1444398D01*
X139102Y1446167D01*
X140352Y1448333D01*
X141000Y1450749D01*
Y1453251D01*
X140352Y1455667D01*
X139102Y1457833D01*
X137333Y1459602D01*
X135167Y1460853D01*
X132751Y1461500D01*
D02*
G37*
G36*
X107351D02*
X104849D01*
X102433Y1460853D01*
X100267Y1459602D01*
X98498Y1457833D01*
X97247Y1455667D01*
X96600Y1453251D01*
Y1450749D01*
X97247Y1448333D01*
X98498Y1446167D01*
X100267Y1444398D01*
X102433Y1443148D01*
X104849Y1442500D01*
X107351D01*
X109767Y1443148D01*
X111933Y1444398D01*
X113702Y1446167D01*
X114952Y1448333D01*
X115600Y1450749D01*
Y1453251D01*
X114952Y1455667D01*
X113702Y1457833D01*
X111933Y1459602D01*
X109767Y1460853D01*
X107351Y1461500D01*
D02*
G37*
G36*
X132751Y1436100D02*
X130249D01*
X127833Y1435453D01*
X125667Y1434202D01*
X123898Y1432433D01*
X122647Y1430267D01*
X122000Y1427851D01*
Y1425349D01*
X122647Y1422933D01*
X123898Y1420767D01*
X125667Y1418998D01*
X127833Y1417748D01*
X130249Y1417100D01*
X132751D01*
X135167Y1417748D01*
X137333Y1418998D01*
X139102Y1420767D01*
X140352Y1422933D01*
X141000Y1425349D01*
Y1427851D01*
X140352Y1430267D01*
X139102Y1432433D01*
X137333Y1434202D01*
X135167Y1435453D01*
X132751Y1436100D01*
D02*
G37*
G36*
X107351D02*
X104849D01*
X102433Y1435453D01*
X100267Y1434202D01*
X98498Y1432433D01*
X97247Y1430267D01*
X96600Y1427851D01*
Y1425349D01*
X97247Y1422933D01*
X98498Y1420767D01*
X100267Y1418998D01*
X102433Y1417748D01*
X104849Y1417100D01*
X107351D01*
X109767Y1417748D01*
X111933Y1418998D01*
X113702Y1420767D01*
X114952Y1422933D01*
X115600Y1425349D01*
Y1427851D01*
X114952Y1430267D01*
X113702Y1432433D01*
X111933Y1434202D01*
X109767Y1435453D01*
X107351Y1436100D01*
D02*
G37*
G36*
X690895Y1424500D02*
X689105D01*
X687451Y1423815D01*
X686185Y1422549D01*
X685500Y1420895D01*
Y1419105D01*
X686185Y1417451D01*
X687451Y1416185D01*
X689105Y1415500D01*
X690500D01*
Y1414105D01*
X691185Y1412451D01*
X692451Y1411185D01*
X694105Y1410500D01*
X695895D01*
X697549Y1411185D01*
X698815Y1412451D01*
X699500Y1414105D01*
Y1415895D01*
X698815Y1417549D01*
X697549Y1418815D01*
X695895Y1419500D01*
X694500D01*
Y1420895D01*
X693815Y1422549D01*
X692549Y1423815D01*
X690895Y1424500D01*
D02*
G37*
G36*
X671395Y1405000D02*
X669605D01*
X667951Y1404315D01*
X666685Y1403049D01*
X666000Y1401395D01*
Y1399605D01*
X666685Y1397951D01*
X667951Y1396685D01*
X669605Y1396000D01*
X671395D01*
X673049Y1396685D01*
X674315Y1397951D01*
X675000Y1399605D01*
Y1401395D01*
X674315Y1403049D01*
X673049Y1404315D01*
X671395Y1405000D01*
D02*
G37*
G36*
X1280895Y1404500D02*
X1279105D01*
X1277451Y1403815D01*
X1276185Y1402549D01*
X1275500Y1400895D01*
Y1399105D01*
X1276185Y1397451D01*
X1277451Y1396185D01*
X1279105Y1395500D01*
X1280895D01*
X1282549Y1396185D01*
X1283815Y1397451D01*
X1284500Y1399105D01*
Y1400895D01*
X1283815Y1402549D01*
X1282549Y1403815D01*
X1280895Y1404500D01*
D02*
G37*
G36*
X132751Y1410700D02*
X130249D01*
X127833Y1410053D01*
X125667Y1408802D01*
X123898Y1407033D01*
X122647Y1404867D01*
X122000Y1402451D01*
Y1399949D01*
X122647Y1397533D01*
X123898Y1395367D01*
X125667Y1393598D01*
X127833Y1392348D01*
X130249Y1391700D01*
X132751D01*
X135167Y1392348D01*
X137333Y1393598D01*
X139102Y1395367D01*
X140352Y1397533D01*
X141000Y1399949D01*
Y1402451D01*
X140352Y1404867D01*
X139102Y1407033D01*
X137333Y1408802D01*
X135167Y1410053D01*
X132751Y1410700D01*
D02*
G37*
G36*
X107351D02*
X104849D01*
X102433Y1410053D01*
X100267Y1408802D01*
X98498Y1407033D01*
X97247Y1404867D01*
X96600Y1402451D01*
Y1399949D01*
X97247Y1397533D01*
X98498Y1395367D01*
X100267Y1393598D01*
X102433Y1392348D01*
X104849Y1391700D01*
X107351D01*
X109767Y1392348D01*
X111933Y1393598D01*
X113702Y1395367D01*
X114952Y1397533D01*
X115600Y1399949D01*
Y1402451D01*
X114952Y1404867D01*
X113702Y1407033D01*
X111933Y1408802D01*
X109767Y1410053D01*
X107351Y1410700D01*
D02*
G37*
G36*
X1305506Y1406889D02*
X1303716D01*
X1302062Y1406204D01*
X1300796Y1404938D01*
X1300111Y1403284D01*
Y1401494D01*
X1300796Y1399840D01*
X1302062Y1398574D01*
X1302086Y1398450D01*
X1301185Y1397549D01*
X1300500Y1395895D01*
Y1394105D01*
X1301185Y1392451D01*
X1302451Y1391185D01*
X1304105Y1390500D01*
X1305895D01*
X1307549Y1391185D01*
X1308815Y1392451D01*
X1309500Y1394105D01*
Y1395895D01*
X1308815Y1397549D01*
X1307549Y1398815D01*
X1307524Y1398939D01*
X1308426Y1399840D01*
X1309111Y1401494D01*
Y1403284D01*
X1308426Y1404938D01*
X1307160Y1406204D01*
X1305506Y1406889D01*
D02*
G37*
G36*
X1290895Y1394000D02*
X1289105D01*
X1287451Y1393315D01*
X1286185Y1392049D01*
X1285500Y1390395D01*
Y1388605D01*
X1286185Y1386951D01*
X1287451Y1385685D01*
X1289105Y1385000D01*
X1290895D01*
X1292549Y1385685D01*
X1293815Y1386951D01*
X1294500Y1388605D01*
Y1390395D01*
X1293815Y1392049D01*
X1292549Y1393315D01*
X1290895Y1394000D01*
D02*
G37*
G36*
X665895Y1389500D02*
X664105D01*
X662451Y1388815D01*
X661185Y1387549D01*
X660500Y1385895D01*
Y1384105D01*
X661185Y1382451D01*
X662451Y1381185D01*
X664105Y1380500D01*
X665895D01*
X667549Y1381185D01*
X668815Y1382451D01*
X669500Y1384105D01*
Y1385895D01*
X668815Y1387549D01*
X667549Y1388815D01*
X665895Y1389500D01*
D02*
G37*
G36*
X250895Y1384500D02*
X249105D01*
X247451Y1383815D01*
X246185Y1382549D01*
X245500Y1380895D01*
Y1379105D01*
X246185Y1377451D01*
X247451Y1376185D01*
X249105Y1375500D01*
X250895D01*
X252549Y1376185D01*
X253815Y1377451D01*
X254500Y1379105D01*
Y1380895D01*
X253815Y1382549D01*
X252549Y1383815D01*
X250895Y1384500D01*
D02*
G37*
G36*
X132751Y1385300D02*
X130249D01*
X127833Y1384653D01*
X125667Y1383402D01*
X123898Y1381633D01*
X122647Y1379467D01*
X122000Y1377051D01*
Y1374549D01*
X122647Y1372133D01*
X123898Y1369967D01*
X125667Y1368198D01*
X127833Y1366948D01*
X130249Y1366300D01*
X132751D01*
X135167Y1366948D01*
X137333Y1368198D01*
X139102Y1369967D01*
X140352Y1372133D01*
X141000Y1374549D01*
Y1377051D01*
X140352Y1379467D01*
X139102Y1381633D01*
X137333Y1383402D01*
X135167Y1384653D01*
X132751Y1385300D01*
D02*
G37*
G36*
X107351D02*
X104849D01*
X102433Y1384653D01*
X100267Y1383402D01*
X98498Y1381633D01*
X97247Y1379467D01*
X96600Y1377051D01*
Y1374549D01*
X97247Y1372133D01*
X98498Y1369967D01*
X100267Y1368198D01*
X102433Y1366948D01*
X104849Y1366300D01*
X107351D01*
X109767Y1366948D01*
X111933Y1368198D01*
X113702Y1369967D01*
X114952Y1372133D01*
X115600Y1374549D01*
Y1377051D01*
X114952Y1379467D01*
X113702Y1381633D01*
X111933Y1383402D01*
X109767Y1384653D01*
X107351Y1385300D01*
D02*
G37*
G36*
X250895Y1369500D02*
X249105D01*
X247451Y1368815D01*
X246185Y1367549D01*
X245500Y1365895D01*
Y1364105D01*
X246185Y1362451D01*
X247451Y1361185D01*
X249105Y1360500D01*
X250895D01*
X252549Y1361185D01*
X253815Y1362451D01*
X254500Y1364105D01*
Y1365895D01*
X253815Y1367549D01*
X252549Y1368815D01*
X250895Y1369500D01*
D02*
G37*
G36*
X340895Y1359500D02*
X339105D01*
X337451Y1358815D01*
X336185Y1357549D01*
X335500Y1355895D01*
Y1354105D01*
X336185Y1352451D01*
X337451Y1351185D01*
X339105Y1350500D01*
X340895D01*
X342549Y1351185D01*
X343815Y1352451D01*
X344500Y1354105D01*
Y1355895D01*
X343815Y1357549D01*
X342549Y1358815D01*
X340895Y1359500D01*
D02*
G37*
G36*
X132751Y1359900D02*
X130249D01*
X127833Y1359253D01*
X125667Y1358002D01*
X123898Y1356233D01*
X122647Y1354067D01*
X122000Y1351651D01*
Y1349149D01*
X122647Y1346733D01*
X123898Y1344567D01*
X125667Y1342798D01*
X127833Y1341548D01*
X130249Y1340900D01*
X132751D01*
X135167Y1341548D01*
X137333Y1342798D01*
X139102Y1344567D01*
X140352Y1346733D01*
X141000Y1349149D01*
Y1351651D01*
X140352Y1354067D01*
X139102Y1356233D01*
X137333Y1358002D01*
X135167Y1359253D01*
X132751Y1359900D01*
D02*
G37*
G36*
X107351D02*
X104849D01*
X102433Y1359253D01*
X100267Y1358002D01*
X98498Y1356233D01*
X97247Y1354067D01*
X96600Y1351651D01*
Y1349149D01*
X97247Y1346733D01*
X98498Y1344567D01*
X100267Y1342798D01*
X102433Y1341548D01*
X104849Y1340900D01*
X107351D01*
X109767Y1341548D01*
X111933Y1342798D01*
X113702Y1344567D01*
X114952Y1346733D01*
X115600Y1349149D01*
Y1351651D01*
X114952Y1354067D01*
X113702Y1356233D01*
X111933Y1358002D01*
X109767Y1359253D01*
X107351Y1359900D01*
D02*
G37*
G36*
X235895Y1349500D02*
X234105D01*
X232451Y1348815D01*
X231185Y1347549D01*
X230500Y1345895D01*
Y1344105D01*
X231185Y1342451D01*
X232451Y1341185D01*
X233686Y1340673D01*
Y1339327D01*
X232451Y1338815D01*
X231185Y1337549D01*
X230500Y1335895D01*
Y1334105D01*
X231185Y1332451D01*
X232451Y1331185D01*
X234105Y1330500D01*
X235895D01*
X237549Y1331185D01*
X238815Y1332451D01*
X239500Y1334105D01*
Y1335895D01*
X238815Y1337549D01*
X237549Y1338815D01*
X236313Y1339327D01*
Y1340673D01*
X237549Y1341185D01*
X238815Y1342451D01*
X239500Y1344105D01*
Y1345895D01*
X238815Y1347549D01*
X237549Y1348815D01*
X235895Y1349500D01*
D02*
G37*
G36*
X132751Y1334500D02*
X130249D01*
X127833Y1333853D01*
X125667Y1332602D01*
X123898Y1330833D01*
X122647Y1328667D01*
X122000Y1326251D01*
Y1323749D01*
X122647Y1321333D01*
X123898Y1319167D01*
X125667Y1317398D01*
X127833Y1316148D01*
X130249Y1315500D01*
X132751D01*
X135167Y1316148D01*
X137333Y1317398D01*
X139102Y1319167D01*
X140352Y1321333D01*
X141000Y1323749D01*
Y1326251D01*
X140352Y1328667D01*
X139102Y1330833D01*
X137333Y1332602D01*
X135167Y1333853D01*
X132751Y1334500D01*
D02*
G37*
G36*
X107351D02*
X104849D01*
X102433Y1333853D01*
X100267Y1332602D01*
X98498Y1330833D01*
X97247Y1328667D01*
X96600Y1326251D01*
Y1323749D01*
X97247Y1321333D01*
X98498Y1319167D01*
X100267Y1317398D01*
X102433Y1316148D01*
X104849Y1315500D01*
X107351D01*
X109767Y1316148D01*
X111933Y1317398D01*
X113702Y1319167D01*
X114952Y1321333D01*
X115600Y1323749D01*
Y1326251D01*
X114952Y1328667D01*
X113702Y1330833D01*
X111933Y1332602D01*
X109767Y1333853D01*
X107351Y1334500D01*
D02*
G37*
G36*
X132751Y1309100D02*
X130249D01*
X127833Y1308453D01*
X125667Y1307202D01*
X123898Y1305433D01*
X122647Y1303267D01*
X122000Y1300851D01*
Y1298349D01*
X122647Y1295933D01*
X123898Y1293767D01*
X125667Y1291998D01*
X127833Y1290748D01*
X130249Y1290100D01*
X132751D01*
X135167Y1290748D01*
X137333Y1291998D01*
X139102Y1293767D01*
X140352Y1295933D01*
X141000Y1298349D01*
Y1300851D01*
X140352Y1303267D01*
X139102Y1305433D01*
X137333Y1307202D01*
X135167Y1308453D01*
X132751Y1309100D01*
D02*
G37*
G36*
X107351D02*
X104849D01*
X102433Y1308453D01*
X100267Y1307202D01*
X98498Y1305433D01*
X97247Y1303267D01*
X96600Y1300851D01*
Y1298349D01*
X97247Y1295933D01*
X98498Y1293767D01*
X100267Y1291998D01*
X102433Y1290748D01*
X104849Y1290100D01*
X107351D01*
X109767Y1290748D01*
X111933Y1291998D01*
X113702Y1293767D01*
X114952Y1295933D01*
X115600Y1298349D01*
Y1300851D01*
X114952Y1303267D01*
X113702Y1305433D01*
X111933Y1307202D01*
X109767Y1308453D01*
X107351Y1309100D01*
D02*
G37*
G36*
X132751Y1283700D02*
X130249D01*
X127833Y1283053D01*
X125667Y1281802D01*
X123898Y1280033D01*
X122647Y1277867D01*
X122000Y1275451D01*
Y1272949D01*
X122647Y1270533D01*
X123898Y1268367D01*
X125667Y1266598D01*
X127833Y1265348D01*
X130249Y1264700D01*
X132751D01*
X135167Y1265348D01*
X137333Y1266598D01*
X139102Y1268367D01*
X140352Y1270533D01*
X141000Y1272949D01*
Y1275451D01*
X140352Y1277867D01*
X139102Y1280033D01*
X137333Y1281802D01*
X135167Y1283053D01*
X132751Y1283700D01*
D02*
G37*
G36*
X107351D02*
X104849D01*
X102433Y1283053D01*
X100267Y1281802D01*
X98498Y1280033D01*
X97247Y1277867D01*
X96600Y1275451D01*
Y1272949D01*
X97247Y1270533D01*
X98498Y1268367D01*
X100267Y1266598D01*
X102433Y1265348D01*
X104849Y1264700D01*
X107351D01*
X109767Y1265348D01*
X111933Y1266598D01*
X113702Y1268367D01*
X114952Y1270533D01*
X115600Y1272949D01*
Y1275451D01*
X114952Y1277867D01*
X113702Y1280033D01*
X111933Y1281802D01*
X109767Y1283053D01*
X107351Y1283700D01*
D02*
G37*
G36*
X1515895Y1254500D02*
X1514105D01*
X1512451Y1253815D01*
X1511185Y1252549D01*
X1510500Y1250895D01*
Y1249105D01*
X1511185Y1247451D01*
X1512451Y1246185D01*
X1514105Y1245500D01*
X1515895D01*
X1517549Y1246185D01*
X1518815Y1247451D01*
X1519500Y1249105D01*
Y1250895D01*
X1518815Y1252549D01*
X1517549Y1253815D01*
X1515895Y1254500D01*
D02*
G37*
G36*
X310895D02*
X309105D01*
X307451Y1253815D01*
X306185Y1252549D01*
X305500Y1250895D01*
Y1249105D01*
X306185Y1247451D01*
X307451Y1246185D01*
X309105Y1245500D01*
X310895D01*
X312549Y1246185D01*
X313815Y1247451D01*
X314500Y1249105D01*
Y1250895D01*
X313815Y1252549D01*
X312549Y1253815D01*
X310895Y1254500D01*
D02*
G37*
G36*
X132751Y1258300D02*
X130249D01*
X127833Y1257653D01*
X125667Y1256402D01*
X123898Y1254633D01*
X122647Y1252467D01*
X122000Y1250051D01*
Y1247549D01*
X122647Y1245133D01*
X123898Y1242967D01*
X125667Y1241198D01*
X127833Y1239948D01*
X130249Y1239300D01*
X132751D01*
X135167Y1239948D01*
X137333Y1241198D01*
X139102Y1242967D01*
X140352Y1245133D01*
X141000Y1247549D01*
Y1250051D01*
X140352Y1252467D01*
X139102Y1254633D01*
X137333Y1256402D01*
X135167Y1257653D01*
X132751Y1258300D01*
D02*
G37*
G36*
X107351D02*
X104849D01*
X102433Y1257653D01*
X100267Y1256402D01*
X98498Y1254633D01*
X97247Y1252467D01*
X96600Y1250051D01*
Y1247549D01*
X97247Y1245133D01*
X98498Y1242967D01*
X100267Y1241198D01*
X102433Y1239948D01*
X104849Y1239300D01*
X107351D01*
X109767Y1239948D01*
X111933Y1241198D01*
X113702Y1242967D01*
X114952Y1245133D01*
X115600Y1247549D01*
Y1250051D01*
X114952Y1252467D01*
X113702Y1254633D01*
X111933Y1256402D01*
X109767Y1257653D01*
X107351Y1258300D01*
D02*
G37*
G36*
X132751Y1232900D02*
X130249D01*
X127833Y1232253D01*
X125667Y1231002D01*
X123898Y1229233D01*
X122647Y1227067D01*
X122000Y1224651D01*
Y1222149D01*
X122647Y1219733D01*
X123898Y1217567D01*
X125667Y1215798D01*
X127833Y1214548D01*
X130249Y1213900D01*
X132751D01*
X135167Y1214548D01*
X137333Y1215798D01*
X139102Y1217567D01*
X140352Y1219733D01*
X141000Y1222149D01*
Y1224651D01*
X140352Y1227067D01*
X139102Y1229233D01*
X137333Y1231002D01*
X135167Y1232253D01*
X132751Y1232900D01*
D02*
G37*
G36*
X107351D02*
X104849D01*
X102433Y1232253D01*
X100267Y1231002D01*
X98498Y1229233D01*
X97247Y1227067D01*
X96600Y1224651D01*
Y1222149D01*
X97247Y1219733D01*
X98498Y1217567D01*
X100267Y1215798D01*
X102433Y1214548D01*
X104849Y1213900D01*
X107351D01*
X109767Y1214548D01*
X111933Y1215798D01*
X113702Y1217567D01*
X114952Y1219733D01*
X115600Y1222149D01*
Y1224651D01*
X114952Y1227067D01*
X113702Y1229233D01*
X111933Y1231002D01*
X109767Y1232253D01*
X107351Y1232900D01*
D02*
G37*
G36*
X1891773Y1248000D02*
X1888227D01*
X1884749Y1247308D01*
X1881474Y1245952D01*
X1878526Y1243982D01*
X1876018Y1241474D01*
X1874048Y1238526D01*
X1872691Y1235250D01*
X1872000Y1231773D01*
Y1228227D01*
X1872691Y1224750D01*
X1874048Y1221474D01*
X1876018Y1218526D01*
X1878526Y1216019D01*
X1881474Y1214049D01*
X1884749Y1212692D01*
X1888227Y1212000D01*
X1891773D01*
X1895250Y1212692D01*
X1898526Y1214049D01*
X1901474Y1216019D01*
X1903981Y1218526D01*
X1905951Y1221474D01*
X1907308Y1224750D01*
X1908000Y1228227D01*
Y1231773D01*
X1907308Y1235250D01*
X1905951Y1238526D01*
X1903981Y1241474D01*
X1901474Y1243982D01*
X1898526Y1245952D01*
X1895250Y1247308D01*
X1891773Y1248000D01*
D02*
G37*
G36*
X1271773D02*
X1268227D01*
X1264750Y1247308D01*
X1261474Y1245952D01*
X1258526Y1243982D01*
X1256019Y1241474D01*
X1254049Y1238526D01*
X1252692Y1235250D01*
X1252000Y1231773D01*
Y1228227D01*
X1252692Y1224750D01*
X1254049Y1221474D01*
X1256019Y1218526D01*
X1258526Y1216019D01*
X1261474Y1214049D01*
X1264750Y1212692D01*
X1268227Y1212000D01*
X1271773D01*
X1275250Y1212692D01*
X1278526Y1214049D01*
X1281474Y1216019D01*
X1283981Y1218526D01*
X1285951Y1221474D01*
X1287308Y1224750D01*
X1288000Y1228227D01*
Y1231773D01*
X1287308Y1235250D01*
X1285951Y1238526D01*
X1283981Y1241474D01*
X1281474Y1243982D01*
X1278526Y1245952D01*
X1275250Y1247308D01*
X1271773Y1248000D01*
D02*
G37*
G36*
X646773D02*
X643227D01*
X639750Y1247308D01*
X636474Y1245952D01*
X633526Y1243982D01*
X631018Y1241474D01*
X629049Y1238526D01*
X627692Y1235250D01*
X627000Y1231773D01*
Y1228227D01*
X627692Y1224750D01*
X629049Y1221474D01*
X631018Y1218526D01*
X633526Y1216019D01*
X636474Y1214049D01*
X639750Y1212692D01*
X643227Y1212000D01*
X646773D01*
X650250Y1212692D01*
X653526Y1214049D01*
X656474Y1216019D01*
X658981Y1218526D01*
X660951Y1221474D01*
X662308Y1224750D01*
X663000Y1228227D01*
Y1231773D01*
X662308Y1235250D01*
X660951Y1238526D01*
X658981Y1241474D01*
X656474Y1243982D01*
X653526Y1245952D01*
X650250Y1247308D01*
X646773Y1248000D01*
D02*
G37*
G36*
X1930895Y1204500D02*
X1929105D01*
X1927451Y1203815D01*
X1926185Y1202549D01*
X1925500Y1200895D01*
Y1199105D01*
X1926185Y1197451D01*
X1927451Y1196185D01*
X1929105Y1195500D01*
X1930895D01*
X1932549Y1196185D01*
X1933815Y1197451D01*
X1934500Y1199105D01*
Y1200895D01*
X1933815Y1202549D01*
X1932549Y1203815D01*
X1930895Y1204500D01*
D02*
G37*
G36*
X1310895D02*
X1309105D01*
X1307451Y1203815D01*
X1306185Y1202549D01*
X1305500Y1200895D01*
Y1199105D01*
X1306185Y1197451D01*
X1307451Y1196185D01*
X1309105Y1195500D01*
X1310895D01*
X1312549Y1196185D01*
X1313815Y1197451D01*
X1314500Y1199105D01*
Y1200895D01*
X1313815Y1202549D01*
X1312549Y1203815D01*
X1310895Y1204500D01*
D02*
G37*
G36*
X690895D02*
X689105D01*
X687451Y1203815D01*
X686185Y1202549D01*
X685500Y1200895D01*
Y1199105D01*
X686185Y1197451D01*
X687451Y1196185D01*
X689105Y1195500D01*
X690895D01*
X692549Y1196185D01*
X693815Y1197451D01*
X694500Y1199105D01*
Y1200895D01*
X693815Y1202549D01*
X692549Y1203815D01*
X690895Y1204500D01*
D02*
G37*
G36*
X132751Y1207500D02*
X130249D01*
X127833Y1206853D01*
X125667Y1205602D01*
X123898Y1203833D01*
X122647Y1201667D01*
X122000Y1199251D01*
Y1196749D01*
X122647Y1194333D01*
X123898Y1192167D01*
X125667Y1190398D01*
X127833Y1189148D01*
X130249Y1188500D01*
X132751D01*
X135167Y1189148D01*
X137333Y1190398D01*
X139102Y1192167D01*
X140352Y1194333D01*
X141000Y1196749D01*
Y1199251D01*
X140352Y1201667D01*
X139102Y1203833D01*
X137333Y1205602D01*
X135167Y1206853D01*
X132751Y1207500D01*
D02*
G37*
G36*
X107351D02*
X104849D01*
X102433Y1206853D01*
X100267Y1205602D01*
X98498Y1203833D01*
X97247Y1201667D01*
X96600Y1199251D01*
Y1196749D01*
X97247Y1194333D01*
X98498Y1192167D01*
X100267Y1190398D01*
X102433Y1189148D01*
X104849Y1188500D01*
X107351D01*
X109767Y1189148D01*
X111933Y1190398D01*
X113702Y1192167D01*
X114952Y1194333D01*
X115600Y1196749D01*
Y1199251D01*
X114952Y1201667D01*
X113702Y1203833D01*
X111933Y1205602D01*
X109767Y1206853D01*
X107351Y1207500D01*
D02*
G37*
G36*
X132822Y1182640D02*
X132770D01*
Y1173870D01*
X141540D01*
Y1173922D01*
X140856Y1176475D01*
X139534Y1178765D01*
X137665Y1180634D01*
X135375Y1181956D01*
X132822Y1182640D01*
D02*
G37*
G36*
X109850Y1182763D02*
X107370D01*
Y1173870D01*
X116263D01*
Y1176350D01*
X115775Y1178804D01*
X114385Y1180885D01*
X112304Y1182275D01*
X109850Y1182763D01*
D02*
G37*
G36*
X130230Y1182640D02*
X130178D01*
X127625Y1181956D01*
X125335Y1180634D01*
X123466Y1178765D01*
X122144Y1176475D01*
X121460Y1173922D01*
Y1173870D01*
X130230D01*
Y1182640D01*
D02*
G37*
G36*
X104830Y1182763D02*
X102350D01*
X99896Y1182275D01*
X97815Y1180885D01*
X96425Y1178804D01*
X95937Y1176350D01*
Y1173870D01*
X104830D01*
Y1182763D01*
D02*
G37*
G36*
X141540Y1171330D02*
X132770D01*
Y1162560D01*
X132822D01*
X135375Y1163244D01*
X137665Y1164566D01*
X139534Y1166435D01*
X140856Y1168725D01*
X141540Y1171278D01*
Y1171330D01*
D02*
G37*
G36*
X130230D02*
X121460D01*
Y1171278D01*
X122144Y1168725D01*
X123466Y1166435D01*
X125335Y1164566D01*
X127625Y1163244D01*
X130178Y1162560D01*
X130230D01*
Y1171330D01*
D02*
G37*
G36*
X116263D02*
X107370D01*
Y1162437D01*
X109850D01*
X112304Y1162925D01*
X114385Y1164315D01*
X115775Y1166396D01*
X116263Y1168850D01*
Y1171330D01*
D02*
G37*
G36*
X104830D02*
X95937D01*
Y1168850D01*
X96425Y1166396D01*
X97815Y1164315D01*
X99896Y1162925D01*
X102350Y1162437D01*
X104830D01*
Y1171330D01*
D02*
G37*
G36*
X1902000Y1167143D02*
X1892000D01*
X1889781Y1166851D01*
X1887713Y1165995D01*
X1885938Y1164632D01*
X1884575Y1162857D01*
X1883719Y1160789D01*
X1883427Y1158570D01*
X1883719Y1156351D01*
X1884575Y1154284D01*
X1885938Y1152508D01*
X1887713Y1151145D01*
X1889781Y1150289D01*
X1892000Y1149997D01*
X1902000D01*
X1904219Y1150289D01*
X1906287Y1151145D01*
X1908062Y1152508D01*
X1909425Y1154284D01*
X1910281Y1156351D01*
X1910573Y1158570D01*
X1910281Y1160789D01*
X1909425Y1162857D01*
X1908062Y1164632D01*
X1906287Y1165995D01*
X1904219Y1166851D01*
X1902000Y1167143D01*
D02*
G37*
G36*
X1282000D02*
X1272000D01*
X1269781Y1166851D01*
X1267713Y1165995D01*
X1265938Y1164632D01*
X1264576Y1162857D01*
X1263719Y1160789D01*
X1263427Y1158570D01*
X1263719Y1156351D01*
X1264576Y1154284D01*
X1265938Y1152508D01*
X1267713Y1151145D01*
X1269781Y1150289D01*
X1272000Y1149997D01*
X1282000D01*
X1284219Y1150289D01*
X1286287Y1151145D01*
X1288062Y1152508D01*
X1289425Y1154284D01*
X1290282Y1156351D01*
X1290574Y1158570D01*
X1290282Y1160789D01*
X1289425Y1162857D01*
X1288062Y1164632D01*
X1286287Y1165995D01*
X1284219Y1166851D01*
X1282000Y1167143D01*
D02*
G37*
G36*
X657000D02*
X647000D01*
X644781Y1166851D01*
X642713Y1165995D01*
X640938Y1164632D01*
X639576Y1162857D01*
X638719Y1160789D01*
X638427Y1158570D01*
X638719Y1156351D01*
X639576Y1154284D01*
X640938Y1152508D01*
X642713Y1151145D01*
X644781Y1150289D01*
X647000Y1149997D01*
X657000D01*
X659219Y1150289D01*
X661287Y1151145D01*
X663063Y1152508D01*
X664425Y1154284D01*
X665281Y1156351D01*
X665574Y1158570D01*
X665281Y1160789D01*
X664425Y1162857D01*
X663063Y1164632D01*
X661287Y1165995D01*
X659219Y1166851D01*
X657000Y1167143D01*
D02*
G37*
G36*
X159395Y1158000D02*
X157605D01*
X155951Y1157315D01*
X154685Y1156049D01*
X154000Y1154395D01*
Y1152605D01*
X154685Y1150951D01*
X155951Y1149685D01*
X157605Y1149000D01*
X159395D01*
X161049Y1149685D01*
X162315Y1150951D01*
X163000Y1152605D01*
Y1154395D01*
X162315Y1156049D01*
X161049Y1157315D01*
X159395Y1158000D01*
D02*
G37*
G36*
X1902000Y1148093D02*
X1892000D01*
X1889781Y1147801D01*
X1887713Y1146945D01*
X1885938Y1145583D01*
X1884575Y1143807D01*
X1883719Y1141739D01*
X1883427Y1139520D01*
X1883719Y1137301D01*
X1884575Y1135234D01*
X1885938Y1133458D01*
X1887713Y1132095D01*
X1889781Y1131239D01*
X1892000Y1130947D01*
X1902000D01*
X1904219Y1131239D01*
X1906287Y1132095D01*
X1908062Y1133458D01*
X1909425Y1135234D01*
X1910281Y1137301D01*
X1910573Y1139520D01*
X1910281Y1141739D01*
X1909425Y1143807D01*
X1908062Y1145583D01*
X1906287Y1146945D01*
X1904219Y1147801D01*
X1902000Y1148093D01*
D02*
G37*
G36*
X1282000D02*
X1272000D01*
X1269781Y1147801D01*
X1267713Y1146945D01*
X1265938Y1145583D01*
X1264576Y1143807D01*
X1263719Y1141739D01*
X1263427Y1139520D01*
X1263719Y1137301D01*
X1264576Y1135234D01*
X1265938Y1133458D01*
X1267713Y1132095D01*
X1269781Y1131239D01*
X1272000Y1130947D01*
X1282000D01*
X1284219Y1131239D01*
X1286287Y1132095D01*
X1288062Y1133458D01*
X1289425Y1135234D01*
X1290282Y1137301D01*
X1290574Y1139520D01*
X1290282Y1141739D01*
X1289425Y1143807D01*
X1288062Y1145583D01*
X1286287Y1146945D01*
X1284219Y1147801D01*
X1282000Y1148093D01*
D02*
G37*
G36*
X657000D02*
X647000D01*
X644781Y1147801D01*
X642713Y1146945D01*
X640938Y1145583D01*
X639576Y1143807D01*
X638719Y1141739D01*
X638427Y1139520D01*
X638719Y1137301D01*
X639576Y1135234D01*
X640938Y1133458D01*
X642713Y1132095D01*
X644781Y1131239D01*
X647000Y1130947D01*
X657000D01*
X659219Y1131239D01*
X661287Y1132095D01*
X663063Y1133458D01*
X664425Y1135234D01*
X665281Y1137301D01*
X665574Y1139520D01*
X665281Y1141739D01*
X664425Y1143807D01*
X663063Y1145583D01*
X661287Y1146945D01*
X659219Y1147801D01*
X657000Y1148093D01*
D02*
G37*
G36*
X1902000Y1129593D02*
X1892000D01*
X1889640Y1129282D01*
X1887441Y1128371D01*
X1885553Y1126922D01*
X1884104Y1125034D01*
X1883193Y1122835D01*
X1882882Y1120475D01*
X1883193Y1118115D01*
X1884104Y1115916D01*
X1885553Y1114027D01*
X1887441Y1112578D01*
X1889640Y1111667D01*
X1892000Y1111357D01*
X1902000D01*
X1904360Y1111667D01*
X1906559Y1112578D01*
X1908447Y1114027D01*
X1909896Y1115916D01*
X1910807Y1118115D01*
X1911118Y1120475D01*
X1910807Y1122835D01*
X1909896Y1125034D01*
X1908447Y1126922D01*
X1906559Y1128371D01*
X1904360Y1129282D01*
X1902000Y1129593D01*
D02*
G37*
G36*
X1282000D02*
X1272000D01*
X1269640Y1129282D01*
X1267441Y1128371D01*
X1265553Y1126922D01*
X1264104Y1125034D01*
X1263193Y1122835D01*
X1262882Y1120475D01*
X1263193Y1118115D01*
X1264104Y1115916D01*
X1265553Y1114027D01*
X1267441Y1112578D01*
X1269640Y1111667D01*
X1272000Y1111357D01*
X1282000D01*
X1284360Y1111667D01*
X1286559Y1112578D01*
X1288448Y1114027D01*
X1289897Y1115916D01*
X1290808Y1118115D01*
X1291118Y1120475D01*
X1290808Y1122835D01*
X1289897Y1125034D01*
X1288448Y1126922D01*
X1286559Y1128371D01*
X1284360Y1129282D01*
X1282000Y1129593D01*
D02*
G37*
G36*
X657000D02*
X647000D01*
X644640Y1129282D01*
X642441Y1128371D01*
X640553Y1126922D01*
X639104Y1125034D01*
X638193Y1122835D01*
X637882Y1120475D01*
X638193Y1118115D01*
X639104Y1115916D01*
X640553Y1114027D01*
X642441Y1112578D01*
X644640Y1111667D01*
X647000Y1111357D01*
X657000D01*
X659360Y1111667D01*
X661559Y1112578D01*
X663448Y1114027D01*
X664897Y1115916D01*
X665807Y1118115D01*
X666118Y1120475D01*
X665807Y1122835D01*
X664897Y1125034D01*
X663448Y1126922D01*
X661559Y1128371D01*
X659360Y1129282D01*
X657000Y1129593D01*
D02*
G37*
G36*
X1941270Y1116012D02*
Y1111270D01*
X1946012D01*
X1945121Y1113421D01*
X1943421Y1115120D01*
X1941270Y1116012D01*
D02*
G37*
G36*
X1938730D02*
X1936579Y1115120D01*
X1934880Y1113421D01*
X1933988Y1111270D01*
X1938730D01*
Y1116012D01*
D02*
G37*
G36*
X1321270D02*
Y1111270D01*
X1326011D01*
X1325120Y1113421D01*
X1323421Y1115120D01*
X1321270Y1116012D01*
D02*
G37*
G36*
X1318730D02*
X1316578Y1115120D01*
X1314879Y1113421D01*
X1313988Y1111270D01*
X1318730D01*
Y1116012D01*
D02*
G37*
G36*
X701270D02*
Y1111270D01*
X706012D01*
X705120Y1113421D01*
X703421Y1115120D01*
X701270Y1116012D01*
D02*
G37*
G36*
X698730D02*
X696579Y1115120D01*
X694880Y1113421D01*
X693988Y1111270D01*
X698730D01*
Y1116012D01*
D02*
G37*
G36*
X1946012Y1108730D02*
X1941270D01*
Y1103988D01*
X1943421Y1104880D01*
X1945121Y1106579D01*
X1946012Y1108730D01*
D02*
G37*
G36*
X1938730D02*
X1933988D01*
X1934880Y1106579D01*
X1936579Y1104880D01*
X1938730Y1103988D01*
Y1108730D01*
D02*
G37*
G36*
X1326011D02*
X1321270D01*
Y1103988D01*
X1323421Y1104880D01*
X1325120Y1106579D01*
X1326011Y1108730D01*
D02*
G37*
G36*
X1318730D02*
X1313988D01*
X1314879Y1106579D01*
X1316578Y1104880D01*
X1318730Y1103988D01*
Y1108730D01*
D02*
G37*
G36*
X706012D02*
X701270D01*
Y1103988D01*
X703421Y1104880D01*
X705120Y1106579D01*
X706012Y1108730D01*
D02*
G37*
G36*
X698730D02*
X693988D01*
X694880Y1106579D01*
X696579Y1104880D01*
X698730Y1103988D01*
Y1108730D01*
D02*
G37*
G36*
X1902000Y1110003D02*
X1892000D01*
X1889781Y1109711D01*
X1887713Y1108855D01*
X1885938Y1107492D01*
X1884575Y1105716D01*
X1883719Y1103649D01*
X1883427Y1101430D01*
X1883719Y1099211D01*
X1884575Y1097143D01*
X1885938Y1095368D01*
X1887713Y1094005D01*
X1889781Y1093149D01*
X1892000Y1092857D01*
X1902000D01*
X1904219Y1093149D01*
X1906287Y1094005D01*
X1908062Y1095368D01*
X1909425Y1097143D01*
X1910281Y1099211D01*
X1910573Y1101430D01*
X1910281Y1103649D01*
X1909425Y1105716D01*
X1908062Y1107492D01*
X1906287Y1108855D01*
X1904219Y1109711D01*
X1902000Y1110003D01*
D02*
G37*
G36*
X1282000D02*
X1272000D01*
X1269781Y1109711D01*
X1267713Y1108855D01*
X1265938Y1107492D01*
X1264576Y1105716D01*
X1263719Y1103649D01*
X1263427Y1101430D01*
X1263719Y1099211D01*
X1264576Y1097143D01*
X1265938Y1095368D01*
X1267713Y1094005D01*
X1269781Y1093149D01*
X1272000Y1092857D01*
X1282000D01*
X1284219Y1093149D01*
X1286287Y1094005D01*
X1288062Y1095368D01*
X1289425Y1097143D01*
X1290282Y1099211D01*
X1290574Y1101430D01*
X1290282Y1103649D01*
X1289425Y1105716D01*
X1288062Y1107492D01*
X1286287Y1108855D01*
X1284219Y1109711D01*
X1282000Y1110003D01*
D02*
G37*
G36*
X657000D02*
X647000D01*
X644781Y1109711D01*
X642713Y1108855D01*
X640938Y1107492D01*
X639576Y1105716D01*
X638719Y1103649D01*
X638427Y1101430D01*
X638719Y1099211D01*
X639576Y1097143D01*
X640938Y1095368D01*
X642713Y1094005D01*
X644781Y1093149D01*
X647000Y1092857D01*
X657000D01*
X659219Y1093149D01*
X661287Y1094005D01*
X663063Y1095368D01*
X664425Y1097143D01*
X665281Y1099211D01*
X665574Y1101430D01*
X665281Y1103649D01*
X664425Y1105716D01*
X663063Y1107492D01*
X661287Y1108855D01*
X659219Y1109711D01*
X657000Y1110003D01*
D02*
G37*
G36*
X1930895Y1084500D02*
X1929105D01*
X1927451Y1083815D01*
X1926185Y1082549D01*
X1925500Y1080895D01*
Y1079105D01*
X1926185Y1077451D01*
X1927451Y1076185D01*
X1929105Y1075500D01*
X1930895D01*
X1932549Y1076185D01*
X1933815Y1077451D01*
X1934500Y1079105D01*
Y1080895D01*
X1933815Y1082549D01*
X1932549Y1083815D01*
X1930895Y1084500D01*
D02*
G37*
G36*
X1310895D02*
X1309105D01*
X1307451Y1083815D01*
X1306185Y1082549D01*
X1305500Y1080895D01*
Y1079105D01*
X1306185Y1077451D01*
X1307451Y1076185D01*
X1309105Y1075500D01*
X1310895D01*
X1312549Y1076185D01*
X1313815Y1077451D01*
X1314500Y1079105D01*
Y1080895D01*
X1313815Y1082549D01*
X1312549Y1083815D01*
X1310895Y1084500D01*
D02*
G37*
G36*
X690895D02*
X689105D01*
X687451Y1083815D01*
X686185Y1082549D01*
X685500Y1080895D01*
Y1079105D01*
X686185Y1077451D01*
X687451Y1076185D01*
X689105Y1075500D01*
X690895D01*
X692549Y1076185D01*
X693815Y1077451D01*
X694500Y1079105D01*
Y1080895D01*
X693815Y1082549D01*
X692549Y1083815D01*
X690895Y1084500D01*
D02*
G37*
G36*
X1891773Y1048000D02*
X1888227D01*
X1884749Y1047308D01*
X1881474Y1045951D01*
X1878526Y1043981D01*
X1876018Y1041474D01*
X1874048Y1038526D01*
X1872691Y1035250D01*
X1872000Y1031773D01*
Y1028227D01*
X1872691Y1024750D01*
X1874048Y1021474D01*
X1876018Y1018526D01*
X1878526Y1016019D01*
X1881474Y1014049D01*
X1884749Y1012692D01*
X1888227Y1012000D01*
X1891773D01*
X1895250Y1012692D01*
X1898526Y1014049D01*
X1901474Y1016019D01*
X1903981Y1018526D01*
X1905951Y1021474D01*
X1907308Y1024750D01*
X1908000Y1028227D01*
Y1031773D01*
X1907308Y1035250D01*
X1905951Y1038526D01*
X1903981Y1041474D01*
X1901474Y1043981D01*
X1898526Y1045951D01*
X1895250Y1047308D01*
X1891773Y1048000D01*
D02*
G37*
G36*
X1271773D02*
X1268227D01*
X1264750Y1047308D01*
X1261474Y1045951D01*
X1258526Y1043981D01*
X1256019Y1041474D01*
X1254049Y1038526D01*
X1252692Y1035250D01*
X1252000Y1031773D01*
Y1028227D01*
X1252692Y1024750D01*
X1254049Y1021474D01*
X1256019Y1018526D01*
X1258526Y1016019D01*
X1261474Y1014049D01*
X1264750Y1012692D01*
X1268227Y1012000D01*
X1271773D01*
X1275250Y1012692D01*
X1278526Y1014049D01*
X1281474Y1016019D01*
X1283981Y1018526D01*
X1285951Y1021474D01*
X1287308Y1024750D01*
X1288000Y1028227D01*
Y1031773D01*
X1287308Y1035250D01*
X1285951Y1038526D01*
X1283981Y1041474D01*
X1281474Y1043981D01*
X1278526Y1045951D01*
X1275250Y1047308D01*
X1271773Y1048000D01*
D02*
G37*
G36*
X646773D02*
X643227D01*
X639750Y1047308D01*
X636474Y1045951D01*
X633526Y1043981D01*
X631018Y1041474D01*
X629049Y1038526D01*
X627692Y1035250D01*
X627000Y1031773D01*
Y1028227D01*
X627692Y1024750D01*
X629049Y1021474D01*
X631018Y1018526D01*
X633526Y1016019D01*
X636474Y1014049D01*
X639750Y1012692D01*
X643227Y1012000D01*
X646773D01*
X650250Y1012692D01*
X653526Y1014049D01*
X656474Y1016019D01*
X658981Y1018526D01*
X660951Y1021474D01*
X662308Y1024750D01*
X663000Y1028227D01*
Y1031773D01*
X662308Y1035250D01*
X660951Y1038526D01*
X658981Y1041474D01*
X656474Y1043981D01*
X653526Y1045951D01*
X650250Y1047308D01*
X646773Y1048000D01*
D02*
G37*
G36*
X140895Y1009500D02*
X139105D01*
X137451Y1008815D01*
X136185Y1007549D01*
X135500Y1005895D01*
Y1004105D01*
X136185Y1002451D01*
X137451Y1001185D01*
X139105Y1000500D01*
X140895D01*
X142549Y1001185D01*
X143815Y1002451D01*
X144500Y1004105D01*
Y1005895D01*
X143815Y1007549D01*
X142549Y1008815D01*
X140895Y1009500D01*
D02*
G37*
G36*
X85895Y984500D02*
X84105D01*
X82451Y983815D01*
X81185Y982549D01*
X80500Y980895D01*
Y979105D01*
X81185Y977451D01*
X82451Y976185D01*
X84105Y975500D01*
X85895D01*
X87549Y976185D01*
X88815Y977451D01*
X89500Y979105D01*
Y980895D01*
X88815Y982549D01*
X87549Y983815D01*
X85895Y984500D01*
D02*
G37*
G36*
X725895Y954500D02*
X724105D01*
X722451Y953815D01*
X721185Y952549D01*
X720500Y950895D01*
Y949105D01*
X721185Y947451D01*
X722451Y946185D01*
X724105Y945500D01*
X725895D01*
X727549Y946185D01*
X728815Y947451D01*
X729500Y949105D01*
Y950895D01*
X728815Y952549D01*
X727549Y953815D01*
X725895Y954500D01*
D02*
G37*
G36*
X1911270Y846012D02*
Y841270D01*
X1916012D01*
X1915121Y843421D01*
X1913422Y845120D01*
X1911270Y846012D01*
D02*
G37*
G36*
X1908730D02*
X1906579Y845120D01*
X1904880Y843421D01*
X1903989Y841270D01*
X1908730D01*
Y846012D01*
D02*
G37*
G36*
X1291270D02*
Y841270D01*
X1296012D01*
X1295121Y843421D01*
X1293421Y845120D01*
X1291270Y846012D01*
D02*
G37*
G36*
X1288730D02*
X1286579Y845120D01*
X1284879Y843421D01*
X1283988Y841270D01*
X1288730D01*
Y846012D01*
D02*
G37*
G36*
X671270D02*
Y841270D01*
X676012D01*
X675121Y843421D01*
X673422Y845120D01*
X671270Y846012D01*
D02*
G37*
G36*
X668730D02*
X666579Y845120D01*
X664880Y843421D01*
X663989Y841270D01*
X668730D01*
Y846012D01*
D02*
G37*
G36*
X1930895Y844500D02*
X1929105D01*
X1927451Y843815D01*
X1926185Y842549D01*
X1925500Y840895D01*
Y839105D01*
X1926185Y837451D01*
X1927451Y836185D01*
X1929105Y835500D01*
X1930895D01*
X1932549Y836185D01*
X1933815Y837451D01*
X1934500Y839105D01*
Y840895D01*
X1933815Y842549D01*
X1932549Y843815D01*
X1930895Y844500D01*
D02*
G37*
G36*
X1310895D02*
X1309105D01*
X1307451Y843815D01*
X1306185Y842549D01*
X1305500Y840895D01*
Y839105D01*
X1306185Y837451D01*
X1307451Y836185D01*
X1309105Y835500D01*
X1310895D01*
X1312549Y836185D01*
X1313815Y837451D01*
X1314500Y839105D01*
Y840895D01*
X1313815Y842549D01*
X1312549Y843815D01*
X1310895Y844500D01*
D02*
G37*
G36*
X690895D02*
X689105D01*
X687451Y843815D01*
X686185Y842549D01*
X685500Y840895D01*
Y839105D01*
X686185Y837451D01*
X687451Y836185D01*
X689105Y835500D01*
X690895D01*
X692549Y836185D01*
X693815Y837451D01*
X694500Y839105D01*
Y840895D01*
X693815Y842549D01*
X692549Y843815D01*
X690895Y844500D01*
D02*
G37*
G36*
X1916012Y838730D02*
X1911270D01*
Y833988D01*
X1913422Y834880D01*
X1915121Y836579D01*
X1916012Y838730D01*
D02*
G37*
G36*
X1908730D02*
X1903989D01*
X1904880Y836579D01*
X1906579Y834880D01*
X1908730Y833988D01*
Y838730D01*
D02*
G37*
G36*
X1296012D02*
X1291270D01*
Y833988D01*
X1293421Y834880D01*
X1295121Y836579D01*
X1296012Y838730D01*
D02*
G37*
G36*
X1288730D02*
X1283988D01*
X1284879Y836579D01*
X1286579Y834880D01*
X1288730Y833988D01*
Y838730D01*
D02*
G37*
G36*
X676012D02*
X671270D01*
Y833988D01*
X673422Y834880D01*
X675121Y836579D01*
X676012Y838730D01*
D02*
G37*
G36*
X668730D02*
X663989D01*
X664880Y836579D01*
X666579Y834880D01*
X668730Y833988D01*
Y838730D01*
D02*
G37*
G36*
X1935000Y812095D02*
X1932128Y811717D01*
X1929453Y810608D01*
X1927155Y808845D01*
X1925392Y806547D01*
X1924283Y803872D01*
X1923905Y801000D01*
Y799000D01*
X1924283Y796128D01*
X1925392Y793453D01*
X1927155Y791155D01*
X1929453Y789391D01*
X1932128Y788283D01*
X1935000Y787905D01*
X1937872Y788283D01*
X1940547Y789391D01*
X1942845Y791155D01*
X1944608Y793453D01*
X1945717Y796128D01*
X1946095Y799000D01*
Y801000D01*
X1945717Y803872D01*
X1944608Y806547D01*
X1942845Y808845D01*
X1940547Y810608D01*
X1937872Y811717D01*
X1935000Y812095D01*
D02*
G37*
G36*
X1315400D02*
X1312528Y811717D01*
X1309852Y810608D01*
X1307555Y808845D01*
X1305791Y806547D01*
X1304683Y803872D01*
X1304305Y801000D01*
Y799000D01*
X1304683Y796128D01*
X1305791Y793453D01*
X1307555Y791155D01*
X1309852Y789391D01*
X1312528Y788283D01*
X1315400Y787905D01*
X1318271Y788283D01*
X1320947Y789391D01*
X1323245Y791155D01*
X1325008Y793453D01*
X1326117Y796128D01*
X1326495Y799000D01*
Y801000D01*
X1326117Y803872D01*
X1325008Y806547D01*
X1323245Y808845D01*
X1320947Y810608D01*
X1318271Y811717D01*
X1315400Y812095D01*
D02*
G37*
G36*
X692000D02*
X689129Y811717D01*
X686453Y810608D01*
X684155Y808845D01*
X682392Y806547D01*
X681283Y803872D01*
X680905Y801000D01*
Y799000D01*
X681283Y796128D01*
X682392Y793453D01*
X684155Y791155D01*
X686453Y789391D01*
X689129Y788283D01*
X692000Y787905D01*
X694872Y788283D01*
X697548Y789391D01*
X699845Y791155D01*
X701609Y793453D01*
X702717Y796128D01*
X703095Y799000D01*
Y801000D01*
X702717Y803872D01*
X701609Y806547D01*
X699845Y808845D01*
X697548Y810608D01*
X694872Y811717D01*
X692000Y812095D01*
D02*
G37*
G36*
X1909600Y812639D02*
X1906587Y812243D01*
X1903780Y811080D01*
X1901369Y809230D01*
X1899520Y806820D01*
X1898357Y804013D01*
X1897960Y801000D01*
Y799000D01*
X1898357Y795987D01*
X1899520Y793180D01*
X1901369Y790770D01*
X1903780Y788920D01*
X1906587Y787757D01*
X1909600Y787360D01*
X1912612Y787757D01*
X1915420Y788920D01*
X1917830Y790770D01*
X1919680Y793180D01*
X1920843Y795987D01*
X1921239Y799000D01*
Y801000D01*
X1920843Y804013D01*
X1919680Y806820D01*
X1917830Y809230D01*
X1915420Y811080D01*
X1912612Y812243D01*
X1909600Y812639D01*
D02*
G37*
G36*
X1290000D02*
X1286987Y812243D01*
X1284180Y811080D01*
X1281770Y809230D01*
X1279920Y806820D01*
X1278757Y804013D01*
X1278360Y801000D01*
Y799000D01*
X1278757Y795987D01*
X1279920Y793180D01*
X1281770Y790770D01*
X1284180Y788920D01*
X1286987Y787757D01*
X1290000Y787360D01*
X1293013Y787757D01*
X1295820Y788920D01*
X1298230Y790770D01*
X1300080Y793180D01*
X1301243Y795987D01*
X1301640Y799000D01*
Y801000D01*
X1301243Y804013D01*
X1300080Y806820D01*
X1298230Y809230D01*
X1295820Y811080D01*
X1293013Y812243D01*
X1290000Y812639D01*
D02*
G37*
G36*
X666600D02*
X663588Y812243D01*
X660780Y811080D01*
X658370Y809230D01*
X656520Y806820D01*
X655357Y804013D01*
X654961Y801000D01*
Y799000D01*
X655357Y795987D01*
X656520Y793180D01*
X658370Y790770D01*
X660780Y788920D01*
X663588Y787757D01*
X666600Y787360D01*
X669613Y787757D01*
X672420Y788920D01*
X674831Y790770D01*
X676680Y793180D01*
X677843Y795987D01*
X678240Y799000D01*
Y801000D01*
X677843Y804013D01*
X676680Y806820D01*
X674831Y809230D01*
X672420Y811080D01*
X669613Y812243D01*
X666600Y812639D01*
D02*
G37*
G36*
X96270Y759929D02*
Y756270D01*
X99929D01*
X99273Y757855D01*
X97855Y759273D01*
X96270Y759929D01*
D02*
G37*
G36*
X93730D02*
X92145Y759273D01*
X90727Y757855D01*
X90071Y756270D01*
X93730D01*
Y759929D01*
D02*
G37*
G36*
X99929Y753730D02*
X96270D01*
Y750071D01*
X97855Y750727D01*
X99273Y752145D01*
X99929Y753730D01*
D02*
G37*
G36*
X93730D02*
X90071D01*
X90727Y752145D01*
X92145Y750727D01*
X93730Y750071D01*
Y753730D01*
D02*
G37*
G36*
X1336201Y761040D02*
X1333799D01*
X1331579Y760120D01*
X1329880Y758421D01*
X1328960Y756201D01*
Y753798D01*
X1329880Y751578D01*
X1331579Y749879D01*
X1333799Y748960D01*
X1336201D01*
X1338421Y749879D01*
X1340121Y751578D01*
X1341040Y753798D01*
Y756201D01*
X1340121Y758421D01*
X1338421Y760120D01*
X1336201Y761040D01*
D02*
G37*
G36*
X1871436Y746250D02*
X1869646D01*
X1867992Y745565D01*
X1866726Y744299D01*
X1866041Y742645D01*
Y740855D01*
X1866726Y739201D01*
X1867992Y737935D01*
X1869646Y737250D01*
X1871436D01*
X1873090Y737935D01*
X1874356Y739201D01*
X1875041Y740855D01*
Y742645D01*
X1874356Y744299D01*
X1873090Y745565D01*
X1871436Y746250D01*
D02*
G37*
G36*
X631436D02*
X629646D01*
X627992Y745565D01*
X626726Y744299D01*
X626041Y742645D01*
Y740855D01*
X626726Y739201D01*
X627992Y737935D01*
X629646Y737250D01*
X631436D01*
X633090Y737935D01*
X634356Y739201D01*
X635041Y740855D01*
Y742645D01*
X634356Y744299D01*
X633090Y745565D01*
X631436Y746250D01*
D02*
G37*
G36*
X76270Y739069D02*
Y735409D01*
X79929D01*
X79273Y736994D01*
X77855Y738412D01*
X76270Y739069D01*
D02*
G37*
G36*
X73730D02*
X72145Y738412D01*
X70728Y736994D01*
X70071Y735409D01*
X73730D01*
Y739069D01*
D02*
G37*
G36*
X715754Y746503D02*
X713964D01*
X712310Y745818D01*
X711044Y744552D01*
X710359Y742898D01*
Y741108D01*
X711044Y739454D01*
X712230Y738268D01*
X710823Y736861D01*
X710167Y735277D01*
X720025D01*
X719369Y736861D01*
X717951Y738279D01*
X717876Y738656D01*
X718674Y739454D01*
X719359Y741108D01*
Y742898D01*
X718674Y744552D01*
X717408Y745818D01*
X715754Y746503D01*
D02*
G37*
G36*
X665895Y739500D02*
X664105D01*
X662451Y738815D01*
X661185Y737549D01*
X660500Y735895D01*
Y734105D01*
X661185Y732451D01*
X662451Y731185D01*
X664105Y730500D01*
X665895D01*
X667549Y731185D01*
X668815Y732451D01*
X669500Y734105D01*
Y735895D01*
X668815Y737549D01*
X667549Y738815D01*
X665895Y739500D01*
D02*
G37*
G36*
X691003Y740040D02*
X688997D01*
X687145Y739273D01*
X685727Y737855D01*
X684960Y736003D01*
Y733997D01*
X685727Y732145D01*
X687145Y730727D01*
X688997Y729960D01*
X691003D01*
X692855Y730727D01*
X694273Y732145D01*
X695040Y733997D01*
Y736003D01*
X694273Y737855D01*
X692855Y739273D01*
X691003Y740040D01*
D02*
G37*
G36*
X79929Y732869D02*
X76270D01*
Y729210D01*
X77855Y729867D01*
X79273Y731284D01*
X79929Y732869D01*
D02*
G37*
G36*
X73730D02*
X70071D01*
X70728Y731284D01*
X72145Y729867D01*
X73730Y729210D01*
Y732869D01*
D02*
G37*
G36*
X720025Y732737D02*
X716366D01*
Y729077D01*
X717951Y729734D01*
X719369Y731152D01*
X720025Y732737D01*
D02*
G37*
G36*
X713826D02*
X710167D01*
X710823Y731152D01*
X712241Y729734D01*
X713826Y729077D01*
Y732737D01*
D02*
G37*
G36*
X1335052Y746097D02*
X1333262D01*
X1331608Y745412D01*
X1330342Y744146D01*
X1329657Y742492D01*
Y740702D01*
X1330342Y739048D01*
X1331608Y737782D01*
X1333146Y737144D01*
X1333268Y736744D01*
X1333284Y735827D01*
X1331579Y735120D01*
X1329880Y733421D01*
X1328960Y731201D01*
Y728799D01*
X1329880Y726579D01*
X1331579Y724880D01*
X1333799Y723960D01*
X1336201D01*
X1338421Y724880D01*
X1340121Y726579D01*
X1341040Y728799D01*
Y731201D01*
X1340121Y733421D01*
X1338421Y735120D01*
X1336201Y736040D01*
X1335820D01*
X1335567Y737310D01*
X1336706Y737782D01*
X1337972Y739048D01*
X1338657Y740702D01*
Y742492D01*
X1337972Y744146D01*
X1336706Y745412D01*
X1335052Y746097D01*
D02*
G37*
G36*
X1905895Y734500D02*
X1904105D01*
X1902451Y733815D01*
X1901185Y732549D01*
X1900500Y730895D01*
Y729105D01*
X1901185Y727451D01*
X1902136Y726500D01*
X1901185Y725549D01*
X1900500Y723895D01*
Y722105D01*
X1901185Y720451D01*
X1902451Y719185D01*
X1904105Y718500D01*
X1905895D01*
X1907549Y719185D01*
X1908815Y720451D01*
X1909500Y722105D01*
Y723895D01*
X1908815Y725549D01*
X1907864Y726500D01*
X1908815Y727451D01*
X1909500Y729105D01*
Y730895D01*
X1908815Y732549D01*
X1907549Y733815D01*
X1905895Y734500D01*
D02*
G37*
G36*
X1280636Y726981D02*
X1278846D01*
X1277192Y726296D01*
X1275926Y725030D01*
X1275241Y723376D01*
Y721586D01*
X1275926Y719932D01*
X1277192Y718666D01*
X1278846Y717981D01*
X1280636D01*
X1282290Y718666D01*
X1283556Y719932D01*
X1284241Y721586D01*
Y723376D01*
X1283556Y725030D01*
X1282290Y726296D01*
X1280636Y726981D01*
D02*
G37*
G36*
X1290895Y724500D02*
X1289105D01*
X1287451Y723815D01*
X1286185Y722549D01*
X1285500Y720895D01*
Y719105D01*
X1286185Y717451D01*
X1287451Y716185D01*
X1289105Y715500D01*
X1290895D01*
X1292549Y716185D01*
X1293815Y717451D01*
X1294500Y719105D01*
Y720895D01*
X1293815Y722549D01*
X1292549Y723815D01*
X1290895Y724500D01*
D02*
G37*
G36*
X663668Y723949D02*
X661878D01*
X660224Y723264D01*
X658958Y721998D01*
X658273Y720344D01*
Y718554D01*
X658958Y716900D01*
X660224Y715634D01*
X661878Y714949D01*
X663668D01*
X665322Y715634D01*
X666588Y716900D01*
X667273Y718554D01*
Y720344D01*
X666588Y721998D01*
X665322Y723264D01*
X663668Y723949D01*
D02*
G37*
G36*
X687877Y715000D02*
X686087D01*
X684433Y714315D01*
X683167Y713049D01*
X682814Y712979D01*
X682049Y713744D01*
X680395Y714429D01*
X678605D01*
X676951Y713744D01*
X675685Y712478D01*
X675000Y710824D01*
Y709034D01*
X675685Y707380D01*
X676951Y706114D01*
X678605Y705429D01*
X680395D01*
X682049Y706114D01*
X683315Y707380D01*
X683668Y707450D01*
X684433Y706685D01*
X686087Y706000D01*
X687877D01*
X689531Y706685D01*
X690797Y707951D01*
X691482Y709605D01*
Y711395D01*
X690797Y713049D01*
X689531Y714315D01*
X687877Y715000D01*
D02*
G37*
G36*
X1305895Y724500D02*
X1304105D01*
X1302451Y723815D01*
X1301185Y722549D01*
X1300500Y720895D01*
Y719744D01*
X1300141Y718944D01*
X1299341Y718585D01*
X1298190D01*
X1296536Y717900D01*
X1295270Y716634D01*
X1294585Y714980D01*
Y713190D01*
X1295270Y711536D01*
X1296536Y710270D01*
X1298190Y709585D01*
X1299980D01*
X1301634Y710270D01*
X1302900Y711536D01*
X1303585Y713190D01*
Y714341D01*
X1303944Y715141D01*
X1304744Y715500D01*
X1305895D01*
X1307549Y716185D01*
X1308815Y717451D01*
X1309500Y719105D01*
Y720895D01*
X1308815Y722549D01*
X1307549Y723815D01*
X1305895Y724500D01*
D02*
G37*
G36*
X670895Y709500D02*
X669105D01*
X667451Y708815D01*
X666185Y707549D01*
X665673Y706313D01*
X664327D01*
X663815Y707549D01*
X662549Y708815D01*
X660895Y709500D01*
X659105D01*
X657451Y708815D01*
X656185Y707549D01*
X655500Y705895D01*
Y704105D01*
X656185Y702451D01*
X657451Y701185D01*
X659105Y700500D01*
X660895D01*
X662549Y701185D01*
X663815Y702451D01*
X664327Y703687D01*
X665673D01*
X666185Y702451D01*
X667451Y701185D01*
X669105Y700500D01*
X670895D01*
X672549Y701185D01*
X673815Y702451D01*
X674500Y704105D01*
Y705895D01*
X673815Y707549D01*
X672549Y708815D01*
X670895Y709500D01*
D02*
G37*
G36*
X67878Y715000D02*
X66087D01*
X64433Y714315D01*
X63168Y713049D01*
X62483Y711395D01*
Y709605D01*
X63168Y707951D01*
X64433Y706685D01*
X66087Y706000D01*
X67878D01*
X69531Y706685D01*
X70797Y707951D01*
X71483Y709605D01*
Y711395D01*
X70797Y713049D01*
X69531Y714315D01*
X67878Y715000D01*
D02*
G37*
G36*
X1901391Y714913D02*
X1899600D01*
X1897946Y714228D01*
X1896680Y712962D01*
X1895995Y711308D01*
Y709518D01*
X1896680Y707864D01*
X1897946Y706598D01*
X1899007Y706159D01*
X1898338Y704545D01*
Y702755D01*
X1899023Y701101D01*
X1900289Y699835D01*
X1901943Y699150D01*
X1903733D01*
X1905387Y699835D01*
X1906653Y701101D01*
X1907338Y702755D01*
Y704545D01*
X1906653Y706199D01*
X1905387Y707465D01*
X1904327Y707904D01*
X1904995Y709518D01*
Y711308D01*
X1904310Y712962D01*
X1903044Y714228D01*
X1901391Y714913D01*
D02*
G37*
G36*
X1301270Y699929D02*
Y696270D01*
X1304929D01*
X1304273Y697855D01*
X1302855Y699273D01*
X1301270Y699929D01*
D02*
G37*
G36*
X1298730D02*
X1297145Y699273D01*
X1295727Y697855D01*
X1295071Y696270D01*
X1298730D01*
Y699929D01*
D02*
G37*
G36*
X707895Y704500D02*
X706105D01*
X704451Y703815D01*
X703185Y702549D01*
X702500Y700895D01*
Y699105D01*
X703185Y697451D01*
X704451Y696185D01*
X706105Y695500D01*
X707895D01*
X709549Y696185D01*
X710815Y697451D01*
X711500Y699105D01*
Y700895D01*
X710815Y702549D01*
X709549Y703815D01*
X707895Y704500D01*
D02*
G37*
G36*
X60895D02*
X59105D01*
X57451Y703815D01*
X56185Y702549D01*
X55500Y700895D01*
Y699105D01*
X56185Y697451D01*
X57451Y696185D01*
X59105Y695500D01*
X60895D01*
X62549Y696185D01*
X63815Y697451D01*
X64500Y699105D01*
Y700895D01*
X63815Y702549D01*
X62549Y703815D01*
X60895Y704500D01*
D02*
G37*
G36*
X1906270Y694929D02*
Y691270D01*
X1909929D01*
X1909273Y692855D01*
X1907855Y694273D01*
X1906270Y694929D01*
D02*
G37*
G36*
X1903730D02*
X1902145Y694273D01*
X1900727Y692855D01*
X1900071Y691270D01*
X1903730D01*
Y694929D01*
D02*
G37*
G36*
X1304929Y693730D02*
X1301270D01*
Y690071D01*
X1302855Y690727D01*
X1304273Y692145D01*
X1304929Y693730D01*
D02*
G37*
G36*
X1298730D02*
X1295071D01*
X1295727Y692145D01*
X1297145Y690727D01*
X1298730Y690071D01*
Y693730D01*
D02*
G37*
G36*
X1285895Y709500D02*
X1284105D01*
X1282451Y708815D01*
X1281185Y707549D01*
X1280500Y705895D01*
Y704105D01*
X1281185Y702451D01*
X1282451Y701185D01*
X1283687Y700673D01*
Y699327D01*
X1282451Y698815D01*
X1281185Y697549D01*
X1280500Y695895D01*
Y694105D01*
X1281185Y692451D01*
X1282451Y691185D01*
X1282947Y690980D01*
Y689605D01*
X1282145Y689273D01*
X1280727Y687855D01*
X1280071Y686270D01*
X1289929D01*
X1289273Y687855D01*
X1287855Y689273D01*
X1287053Y689605D01*
Y690980D01*
X1287549Y691185D01*
X1288815Y692451D01*
X1289500Y694105D01*
Y695895D01*
X1288815Y697549D01*
X1287549Y698815D01*
X1286313Y699327D01*
Y700673D01*
X1287549Y701185D01*
X1288815Y702451D01*
X1289500Y704105D01*
Y705895D01*
X1288815Y707549D01*
X1287549Y708815D01*
X1285895Y709500D01*
D02*
G37*
G36*
X666270Y689929D02*
Y686270D01*
X669929D01*
X669273Y687855D01*
X667855Y689273D01*
X666270Y689929D01*
D02*
G37*
G36*
X663730D02*
X662145Y689273D01*
X660727Y687855D01*
X660071Y686270D01*
X663730D01*
Y689929D01*
D02*
G37*
G36*
X1909929Y688730D02*
X1906270D01*
Y685071D01*
X1907855Y685727D01*
X1909273Y687145D01*
X1909929Y688730D01*
D02*
G37*
G36*
X1903730D02*
X1900071D01*
X1900727Y687145D01*
X1902145Y685727D01*
X1903730Y685071D01*
Y688730D01*
D02*
G37*
G36*
X1289929Y683730D02*
X1286270D01*
Y680071D01*
X1287855Y680727D01*
X1289273Y682145D01*
X1289929Y683730D01*
D02*
G37*
G36*
X1283730D02*
X1280071D01*
X1280727Y682145D01*
X1282145Y680727D01*
X1283730Y680071D01*
Y683730D01*
D02*
G37*
G36*
X669929D02*
X666270D01*
Y680071D01*
X667855Y680727D01*
X669273Y682145D01*
X669929Y683730D01*
D02*
G37*
G36*
X663730D02*
X660071D01*
X660727Y682145D01*
X662145Y680727D01*
X663730Y680071D01*
Y683730D01*
D02*
G37*
G36*
X1300895Y684500D02*
X1299105D01*
X1297451Y683815D01*
X1296185Y682549D01*
X1295500Y680895D01*
Y679105D01*
X1296185Y677451D01*
X1297451Y676185D01*
X1299105Y675500D01*
X1300895D01*
X1302549Y676185D01*
X1303815Y677451D01*
X1304500Y679105D01*
Y680895D01*
X1303815Y682549D01*
X1302549Y683815D01*
X1300895Y684500D01*
D02*
G37*
G36*
X715895Y684500D02*
X714105D01*
X712451Y683815D01*
X711185Y682549D01*
X710500Y680895D01*
Y679105D01*
X711185Y677451D01*
X712451Y676185D01*
X714105Y675500D01*
X715895D01*
X717549Y676185D01*
X718815Y677451D01*
X719500Y679105D01*
Y680895D01*
X718815Y682549D01*
X717549Y683815D01*
X715895Y684500D01*
D02*
G37*
G36*
X94917Y681661D02*
X93127D01*
X91473Y680976D01*
X90207Y679710D01*
X89522Y678056D01*
Y676266D01*
X90207Y674612D01*
X91473Y673346D01*
X93127Y672661D01*
X94917D01*
X96571Y673346D01*
X97837Y674612D01*
X98522Y676266D01*
Y678056D01*
X97837Y679710D01*
X96571Y680976D01*
X94917Y681661D01*
D02*
G37*
G36*
X1870993Y670590D02*
X1868988D01*
X1867135Y669823D01*
X1865718Y668405D01*
X1864950Y666553D01*
Y664548D01*
X1865718Y662695D01*
X1867135Y661277D01*
X1868988Y660510D01*
X1870993D01*
X1872845Y661277D01*
X1874263Y662695D01*
X1875030Y664548D01*
Y666553D01*
X1874263Y668405D01*
X1872845Y669823D01*
X1870993Y670590D01*
D02*
G37*
G36*
X60895Y669500D02*
X59105D01*
X57451Y668815D01*
X56185Y667549D01*
X55500Y665895D01*
Y664105D01*
X56185Y662451D01*
X57451Y661185D01*
X59105Y660500D01*
X60895D01*
X62549Y661185D01*
X63815Y662451D01*
X64500Y664105D01*
Y665895D01*
X63815Y667549D01*
X62549Y668815D01*
X60895Y669500D01*
D02*
G37*
G36*
X631163Y670201D02*
X629158D01*
X627306Y669433D01*
X625888Y668016D01*
X625121Y666163D01*
Y664158D01*
X625888Y662306D01*
X627306Y660888D01*
X629158Y660121D01*
X631163D01*
X633016Y660888D01*
X634434Y662306D01*
X635201Y664158D01*
Y666163D01*
X634434Y668016D01*
X633016Y669433D01*
X631163Y670201D01*
D02*
G37*
G36*
X1251201Y671040D02*
X1248799D01*
X1246579Y670120D01*
X1244880Y668421D01*
X1243960Y666201D01*
Y663799D01*
X1244880Y661579D01*
X1246579Y659880D01*
X1248799Y658960D01*
X1251201D01*
X1253421Y659880D01*
X1255120Y661579D01*
X1256040Y663799D01*
Y666201D01*
X1255120Y668421D01*
X1253421Y670120D01*
X1251201Y671040D01*
D02*
G37*
G36*
X1270000Y632095D02*
X1267128Y631717D01*
X1264453Y630608D01*
X1262155Y628845D01*
X1260391Y626547D01*
X1259283Y623871D01*
X1258905Y621000D01*
Y619000D01*
X1259283Y616128D01*
X1260391Y613452D01*
X1262155Y611155D01*
X1264453Y609391D01*
X1267128Y608283D01*
X1270000Y607905D01*
X1272872Y608283D01*
X1275547Y609391D01*
X1277845Y611155D01*
X1279609Y613452D01*
X1280717Y616128D01*
X1281095Y619000D01*
Y621000D01*
X1280717Y623871D01*
X1279609Y626547D01*
X1277845Y628845D01*
X1275547Y630608D01*
X1272872Y631717D01*
X1270000Y632095D01*
D02*
G37*
G36*
X650000D02*
X647129Y631717D01*
X644453Y630608D01*
X642155Y628845D01*
X640392Y626547D01*
X639283Y623871D01*
X638905Y621000D01*
Y619000D01*
X639283Y616128D01*
X640392Y613452D01*
X642155Y611155D01*
X644453Y609391D01*
X647129Y608283D01*
X650000Y607905D01*
X652872Y608283D01*
X655548Y609391D01*
X657846Y611155D01*
X659609Y613452D01*
X660717Y616128D01*
X661095Y619000D01*
Y621000D01*
X660717Y623871D01*
X659609Y626547D01*
X657846Y628845D01*
X655548Y630608D01*
X652872Y631717D01*
X650000Y632095D01*
D02*
G37*
G36*
X32000D02*
X29129Y631717D01*
X26453Y630608D01*
X24155Y628845D01*
X22392Y626547D01*
X21284Y623871D01*
X20905Y621000D01*
Y619000D01*
X21284Y616128D01*
X22392Y613452D01*
X24155Y611155D01*
X26453Y609391D01*
X29129Y608283D01*
X32000Y607905D01*
X34872Y608283D01*
X37548Y609391D01*
X39846Y611155D01*
X41609Y613452D01*
X42717Y616128D01*
X43095Y619000D01*
Y621000D01*
X42717Y623871D01*
X41609Y626547D01*
X39846Y628845D01*
X37548Y630608D01*
X34872Y631717D01*
X32000Y632095D01*
D02*
G37*
G36*
X1295400Y632639D02*
X1292388Y632243D01*
X1289580Y631080D01*
X1287170Y629230D01*
X1285320Y626820D01*
X1284157Y624012D01*
X1283761Y621000D01*
Y619000D01*
X1284157Y615987D01*
X1285320Y613180D01*
X1287170Y610769D01*
X1289580Y608920D01*
X1292388Y607757D01*
X1295400Y607360D01*
X1298412Y607757D01*
X1301220Y608920D01*
X1303630Y610769D01*
X1305480Y613180D01*
X1306643Y615987D01*
X1307040Y619000D01*
Y621000D01*
X1306643Y624012D01*
X1305480Y626820D01*
X1303630Y629230D01*
X1301220Y631080D01*
X1298412Y632243D01*
X1295400Y632639D01*
D02*
G37*
G36*
X675400D02*
X672388Y632243D01*
X669580Y631080D01*
X667170Y629230D01*
X665320Y626820D01*
X664157Y624012D01*
X663761Y621000D01*
Y619000D01*
X664157Y615987D01*
X665320Y613180D01*
X667170Y610769D01*
X669580Y608920D01*
X672388Y607757D01*
X675400Y607360D01*
X678413Y607757D01*
X681220Y608920D01*
X683631Y610769D01*
X685480Y613180D01*
X686643Y615987D01*
X687040Y619000D01*
Y621000D01*
X686643Y624012D01*
X685480Y626820D01*
X683631Y629230D01*
X681220Y631080D01*
X678413Y632243D01*
X675400Y632639D01*
D02*
G37*
G36*
X57400D02*
X54388Y632243D01*
X51581Y631080D01*
X49170Y629230D01*
X47320Y626820D01*
X46157Y624012D01*
X45761Y621000D01*
Y619000D01*
X46157Y615987D01*
X47320Y613180D01*
X49170Y610769D01*
X51581Y608920D01*
X54388Y607757D01*
X57400Y607360D01*
X60413Y607757D01*
X63220Y608920D01*
X65631Y610769D01*
X67481Y613180D01*
X68643Y615987D01*
X69040Y619000D01*
Y621000D01*
X68643Y624012D01*
X67481Y626820D01*
X65631Y629230D01*
X63220Y631080D01*
X60413Y632243D01*
X57400Y632639D01*
D02*
G37*
G36*
X1296270Y585429D02*
Y581770D01*
X1299929D01*
X1299273Y583355D01*
X1297855Y584773D01*
X1296270Y585429D01*
D02*
G37*
G36*
X1293730D02*
X1292145Y584773D01*
X1290728Y583355D01*
X1290071Y581770D01*
X1293730D01*
Y585429D01*
D02*
G37*
G36*
X676270Y584929D02*
Y581270D01*
X679929D01*
X679273Y582855D01*
X677855Y584273D01*
X676270Y584929D01*
D02*
G37*
G36*
X673730D02*
X672145Y584273D01*
X670727Y582855D01*
X670071Y581270D01*
X673730D01*
Y584929D01*
D02*
G37*
G36*
X56270Y586012D02*
Y581270D01*
X61012D01*
X60121Y583421D01*
X58421Y585121D01*
X56270Y586012D01*
D02*
G37*
G36*
X53730D02*
X51579Y585121D01*
X49879Y583421D01*
X48988Y581270D01*
X53730D01*
Y586012D01*
D02*
G37*
G36*
X1275895Y585000D02*
X1274105D01*
X1272451Y584315D01*
X1271185Y583049D01*
X1270500Y581395D01*
Y579605D01*
X1271185Y577951D01*
X1272451Y576685D01*
X1274105Y576000D01*
X1275895D01*
X1277549Y576685D01*
X1278815Y577951D01*
X1279500Y579605D01*
Y581395D01*
X1278815Y583049D01*
X1277549Y584315D01*
X1275895Y585000D01*
D02*
G37*
G36*
X1299929Y579230D02*
X1296270D01*
Y575571D01*
X1297855Y576227D01*
X1299273Y577645D01*
X1299929Y579230D01*
D02*
G37*
G36*
X1293730D02*
X1290071D01*
X1290728Y577645D01*
X1292145Y576227D01*
X1293730Y575571D01*
Y579230D01*
D02*
G37*
G36*
X655895Y584500D02*
X654105D01*
X652451Y583815D01*
X651185Y582549D01*
X650500Y580895D01*
Y579105D01*
X651185Y577451D01*
X652451Y576185D01*
X654105Y575500D01*
X655895D01*
X657549Y576185D01*
X658815Y577451D01*
X659500Y579105D01*
Y580895D01*
X658815Y582549D01*
X657549Y583815D01*
X655895Y584500D01*
D02*
G37*
G36*
X35895D02*
X34105D01*
X32451Y583815D01*
X31185Y582549D01*
X30500Y580895D01*
Y579105D01*
X31185Y577451D01*
X32451Y576185D01*
X34105Y575500D01*
X35895D01*
X37549Y576185D01*
X38815Y577451D01*
X39500Y579105D01*
Y580895D01*
X38815Y582549D01*
X37549Y583815D01*
X35895Y584500D01*
D02*
G37*
G36*
X679929Y578730D02*
X676270D01*
Y575071D01*
X677855Y575727D01*
X679273Y577145D01*
X679929Y578730D01*
D02*
G37*
G36*
X673730D02*
X670071D01*
X670727Y577145D01*
X672145Y575727D01*
X673730Y575071D01*
Y578730D01*
D02*
G37*
G36*
X61012D02*
X56270D01*
Y573988D01*
X58421Y574879D01*
X60121Y576579D01*
X61012Y578730D01*
D02*
G37*
G36*
X53730D02*
X48988D01*
X49879Y576579D01*
X51579Y574879D01*
X53730Y573988D01*
Y578730D01*
D02*
G37*
G36*
X31653Y195629D02*
Y190887D01*
X36394D01*
X35503Y193039D01*
X33804Y194738D01*
X31653Y195629D01*
D02*
G37*
G36*
X29113D02*
X26961Y194738D01*
X25262Y193039D01*
X24371Y190887D01*
X29113D01*
Y195629D01*
D02*
G37*
G36*
X36394Y188347D02*
X31653D01*
Y183605D01*
X33804Y184497D01*
X35503Y186196D01*
X36394Y188347D01*
D02*
G37*
G36*
X29113D02*
X24371D01*
X25262Y186196D01*
X26961Y184497D01*
X29113Y183605D01*
Y188347D01*
D02*
G37*
G36*
X20395Y179500D02*
X18605D01*
X16951Y178815D01*
X15685Y177549D01*
X15000Y175895D01*
Y174105D01*
X15685Y172451D01*
X16951Y171185D01*
X18605Y170500D01*
X20395D01*
X22049Y171185D01*
X23315Y172451D01*
X24000Y174105D01*
Y175895D01*
X23315Y177549D01*
X22049Y178815D01*
X20395Y179500D01*
D02*
G37*
G36*
X25895Y169500D02*
X24105D01*
X22451Y168815D01*
X21185Y167549D01*
X20500Y165895D01*
Y164105D01*
X21185Y162451D01*
X22451Y161185D01*
X24105Y160500D01*
X25895D01*
X27549Y161185D01*
X28815Y162451D01*
X29500Y164105D01*
Y165895D01*
X28815Y167549D01*
X27549Y168815D01*
X25895Y169500D01*
D02*
G37*
G36*
X30895Y154500D02*
X29105D01*
X27451Y153815D01*
X26185Y152549D01*
X25500Y150895D01*
Y149105D01*
X26185Y147451D01*
X27451Y146185D01*
X29105Y145500D01*
X30895D01*
X32549Y146185D01*
X33815Y147451D01*
X34500Y149105D01*
Y150895D01*
X33815Y152549D01*
X32549Y153815D01*
X30895Y154500D01*
D02*
G37*
G36*
X43750Y109612D02*
X36250D01*
X34006Y109166D01*
X32104Y107895D01*
X30834Y105993D01*
X30387Y103750D01*
Y96250D01*
X30834Y94006D01*
X32104Y92104D01*
X34006Y90833D01*
X36250Y90387D01*
X43750D01*
X45993Y90833D01*
X47895Y92104D01*
X49166Y94006D01*
X49612Y96250D01*
Y103750D01*
X49166Y105993D01*
X47895Y107895D01*
X45993Y109166D01*
X43750Y109612D01*
D02*
G37*
G36*
X66722Y110040D02*
X64078D01*
X61525Y109356D01*
X59235Y108034D01*
X57366Y106165D01*
X56044Y103875D01*
X55360Y101322D01*
Y98678D01*
X56044Y96124D01*
X57366Y93835D01*
X59235Y91966D01*
X61525Y90644D01*
X64078Y89960D01*
X66722D01*
X69275Y90644D01*
X71565Y91966D01*
X73434Y93835D01*
X74756Y96124D01*
X75440Y98678D01*
Y101322D01*
X74756Y103875D01*
X73434Y106165D01*
X71565Y108034D01*
X69275Y109356D01*
X66722Y110040D01*
D02*
G37*
%LPD*%
D11*
X1712560Y762439D02*
G03*
X1730521Y755000I17960J17960D01*
G01*
X1712560Y762439D02*
G03*
X1730521Y755000I17960J17960D01*
G01*
X1712560Y762439D02*
G03*
X1730521Y755000I17960J17960D01*
G01*
X1712560Y762439D02*
G03*
X1730521Y755000I17960J17960D01*
G01*
X1712560Y762439D02*
G03*
X1730521Y755000I17960J17960D01*
G01*
X1712560Y762439D02*
G03*
X1730521Y755000I17960J17960D01*
G01*
X1712560Y762439D02*
G03*
X1730521Y755000I17960J17960D01*
G01*
X1712560Y762439D02*
G03*
X1730521Y755000I17960J17960D01*
G01*
X1712560Y762439D02*
G03*
X1730521Y755000I17960J17960D01*
G01*
X1712560Y762439D02*
G03*
X1730521Y755000I17960J17960D01*
G01*
X1712560Y762439D02*
G03*
X1730521Y755000I17960J17960D01*
G01*
X1712560Y762439D02*
G03*
X1730521Y755000I17960J17960D01*
G01*
X1712560Y762439D02*
G03*
X1730521Y755000I17960J17960D01*
G01*
X1712560Y762439D02*
G03*
X1730521Y755000I17960J17960D01*
G01*
X1712560Y762439D02*
G03*
X1730521Y755000I17960J17960D01*
G01*
X1712560Y762439D02*
G03*
X1730521Y755000I17960J17960D01*
G01*
X1092561Y762439D02*
G03*
X1110521Y755000I17960J17960D01*
G01*
X1092561Y762439D02*
G03*
X1110521Y755000I17960J17960D01*
G01*
X1092561Y762439D02*
G03*
X1110521Y755000I17960J17960D01*
G01*
X1092561Y762439D02*
G03*
X1110521Y755000I17960J17960D01*
G01*
X1092561Y762439D02*
G03*
X1110521Y755000I17960J17960D01*
G01*
X1092561Y762439D02*
G03*
X1110521Y755000I17960J17960D01*
G01*
X1092561Y762439D02*
G03*
X1110521Y755000I17960J17960D01*
G01*
X1092561Y762439D02*
G03*
X1110521Y755000I17960J17960D01*
G01*
X1092561Y762439D02*
G03*
X1110521Y755000I17960J17960D01*
G01*
X1092561Y762439D02*
G03*
X1110521Y755000I17960J17960D01*
G01*
X1092561Y762439D02*
G03*
X1110521Y755000I17960J17960D01*
G01*
X1092561Y762439D02*
G03*
X1110521Y755000I17960J17960D01*
G01*
X1092561Y762439D02*
G03*
X1110521Y755000I17960J17960D01*
G01*
X1092561Y762439D02*
G03*
X1110521Y755000I17960J17960D01*
G01*
X1092561Y762439D02*
G03*
X1110521Y755000I17960J17960D01*
G01*
X1092561Y762439D02*
G03*
X1110521Y755000I17960J17960D01*
G01*
X472561Y762439D02*
G03*
X490521Y755000I17960J17960D01*
G01*
X472561Y762439D02*
G03*
X490521Y755000I17960J17960D01*
G01*
X472561Y762439D02*
G03*
X490521Y755000I17960J17960D01*
G01*
X472561Y762439D02*
G03*
X490521Y755000I17960J17960D01*
G01*
X472561Y762439D02*
G03*
X490521Y755000I17960J17960D01*
G01*
X472561Y762439D02*
G03*
X490521Y755000I17960J17960D01*
G01*
X472561Y762439D02*
G03*
X490521Y755000I17960J17960D01*
G01*
X472561Y762439D02*
G03*
X490521Y755000I17960J17960D01*
G01*
X472561Y762439D02*
G03*
X490521Y755000I17960J17960D01*
G01*
X472561Y762439D02*
G03*
X490521Y755000I17960J17960D01*
G01*
X472561Y762439D02*
G03*
X490521Y755000I17960J17960D01*
G01*
X472561Y762439D02*
G03*
X490521Y755000I17960J17960D01*
G01*
X472561Y762439D02*
G03*
X490521Y755000I17960J17960D01*
G01*
X472561Y762439D02*
G03*
X490521Y755000I17960J17960D01*
G01*
X472561Y762439D02*
G03*
X490521Y755000I17960J17960D01*
G01*
X472561Y762439D02*
G03*
X490521Y755000I17960J17960D01*
G01*
X472561Y762439D02*
G03*
X490521Y755000I17960J17960D01*
G01*
X472561Y762439D02*
G03*
X490521Y755000I17960J17960D01*
G01*
X472561Y762439D02*
G03*
X490521Y755000I17960J17960D01*
G01*
X472561Y762439D02*
G03*
X490521Y755000I17960J17960D01*
G01*
X472561Y762439D02*
G03*
X490521Y755000I17960J17960D01*
G01*
X472561Y762439D02*
G03*
X490521Y755000I17960J17960D01*
G01*
X472561Y762439D02*
G03*
X490521Y755000I17960J17960D01*
G01*
X472561Y762439D02*
G03*
X490521Y755000I17960J17960D01*
G01*
X472561Y762439D02*
G03*
X490521Y755000I17960J17960D01*
G01*
X472561Y762439D02*
G03*
X490521Y755000I17960J17960D01*
G01*
X472561Y762439D02*
G03*
X490521Y755000I17960J17960D01*
G01*
X472561Y762439D02*
G03*
X490521Y755000I17960J17960D01*
G01*
X472561Y762439D02*
G03*
X490521Y755000I17960J17960D01*
G01*
X472561Y762439D02*
G03*
X490521Y755000I17960J17960D01*
G01*
X472561Y762439D02*
G03*
X490521Y755000I17960J17960D01*
G01*
X472561Y762439D02*
G03*
X490521Y755000I17960J17960D01*
G01*
X1092561Y762439D02*
G03*
X1110521Y755000I17960J17960D01*
G01*
X1092561Y762439D02*
G03*
X1110521Y755000I17960J17960D01*
G01*
X1092561Y762439D02*
G03*
X1110521Y755000I17960J17960D01*
G01*
X1092561Y762439D02*
G03*
X1110521Y755000I17960J17960D01*
G01*
X1092561Y762439D02*
G03*
X1110521Y755000I17960J17960D01*
G01*
X1092561Y762439D02*
G03*
X1110521Y755000I17960J17960D01*
G01*
X1092561Y762439D02*
G03*
X1110521Y755000I17960J17960D01*
G01*
X1092561Y762439D02*
G03*
X1110521Y755000I17960J17960D01*
G01*
X1092561Y762439D02*
G03*
X1110521Y755000I17960J17960D01*
G01*
X1092561Y762439D02*
G03*
X1110521Y755000I17960J17960D01*
G01*
X1092561Y762439D02*
G03*
X1110521Y755000I17960J17960D01*
G01*
X1092561Y762439D02*
G03*
X1110521Y755000I17960J17960D01*
G01*
X1092561Y762439D02*
G03*
X1110521Y755000I17960J17960D01*
G01*
X1092561Y762439D02*
G03*
X1110521Y755000I17960J17960D01*
G01*
X1092561Y762439D02*
G03*
X1110521Y755000I17960J17960D01*
G01*
X1092561Y762439D02*
G03*
X1110521Y755000I17960J17960D01*
G01*
X1712560Y762439D02*
G03*
X1730521Y755000I17960J17960D01*
G01*
X1712560Y762439D02*
G03*
X1730521Y755000I17960J17960D01*
G01*
X1712560Y762439D02*
G03*
X1730521Y755000I17960J17960D01*
G01*
X1712560Y762439D02*
G03*
X1730521Y755000I17960J17960D01*
G01*
X1712560Y762439D02*
G03*
X1730521Y755000I17960J17960D01*
G01*
X1712560Y762439D02*
G03*
X1730521Y755000I17960J17960D01*
G01*
X1712560Y762439D02*
G03*
X1730521Y755000I17960J17960D01*
G01*
X1712560Y762439D02*
G03*
X1730521Y755000I17960J17960D01*
G01*
X1712560Y762439D02*
G03*
X1730521Y755000I17960J17960D01*
G01*
X1712560Y762439D02*
G03*
X1730521Y755000I17960J17960D01*
G01*
X1712560Y762439D02*
G03*
X1730521Y755000I17960J17960D01*
G01*
X1712560Y762439D02*
G03*
X1730521Y755000I17960J17960D01*
G01*
X1712560Y762439D02*
G03*
X1730521Y755000I17960J17960D01*
G01*
X1712560Y762439D02*
G03*
X1730521Y755000I17960J17960D01*
G01*
X1712560Y762439D02*
G03*
X1730521Y755000I17960J17960D01*
G01*
X1712560Y762439D02*
G03*
X1730521Y755000I17960J17960D01*
G01*
X1610000Y865000D02*
X1712560Y762439D01*
X1730521Y755000D02*
X1805000D01*
X1110521D02*
X1185000D01*
X370000Y865000D02*
X472560Y762439D01*
X490521Y755000D02*
X565000D01*
X990000Y865000D02*
X1092561Y762439D01*
D82*
X1478577Y719576D02*
X1484577D01*
X1477000Y718000D02*
X1478577Y719576D01*
X1484577D02*
X1525000Y760000D01*
X858576Y719576D02*
X864576D01*
X857000Y718000D02*
X858576Y719576D01*
X864576D02*
X905000Y760000D01*
X244577Y719576D02*
X285000Y760000D01*
X237000Y718000D02*
X238577Y719576D01*
X244577D01*
D83*
X55000Y580000D02*
D03*
X1910000Y840000D02*
D03*
X670000D02*
D03*
X700000Y1110000D02*
D03*
X574500Y665000D02*
D03*
X560000Y860000D02*
D03*
X150500Y754450D02*
D03*
X165000Y655000D02*
D03*
X285000Y760000D02*
D03*
X475000Y750000D02*
D03*
X540000Y850000D02*
D03*
X370000Y865000D02*
D03*
X565000Y755000D02*
D03*
X540000Y900000D02*
D03*
X565000D02*
D03*
X1185000D02*
D03*
X1160000D02*
D03*
X1185000Y755000D02*
D03*
X990000Y865000D02*
D03*
X1160000Y850000D02*
D03*
X1095000Y750000D02*
D03*
X905000Y760000D02*
D03*
X785000Y655000D02*
D03*
X770500Y754450D02*
D03*
X1180000Y860000D02*
D03*
X1194500Y665000D02*
D03*
X1805000Y900000D02*
D03*
X1780000D02*
D03*
X1805000Y755000D02*
D03*
X1610000Y865000D02*
D03*
X1780000Y850000D02*
D03*
X1715000Y750000D02*
D03*
X1525000Y760000D02*
D03*
X1405000Y655000D02*
D03*
X1390500Y754450D02*
D03*
X1800000Y860000D02*
D03*
X1814500Y665000D02*
D03*
X1335000Y730000D02*
D03*
X1250000Y665000D02*
D03*
X1335000Y755000D02*
D03*
X30382Y189617D02*
D03*
X1940000Y1110000D02*
D03*
X1320000D02*
D03*
X1290000Y840000D02*
D03*
D85*
X149039Y174039D02*
G03*
X141600Y156079I17960J-17960D01*
G01*
X149039Y174039D02*
G03*
X141600Y156079I17960J-17960D01*
G01*
X149039Y174039D02*
G03*
X141600Y156079I17960J-17960D01*
G01*
X149039Y174039D02*
G03*
X141600Y156079I17960J-17960D01*
G01*
X149039Y174039D02*
G03*
X141600Y156079I17960J-17960D01*
G01*
X149039Y174039D02*
G03*
X141600Y156079I17960J-17960D01*
G01*
X149039Y174039D02*
G03*
X141600Y156079I17960J-17960D01*
G01*
X149039Y174039D02*
G03*
X141600Y156079I17960J-17960D01*
G01*
X149039Y174039D02*
G03*
X141600Y156079I17960J-17960D01*
G01*
X149039Y174039D02*
G03*
X141600Y156079I17960J-17960D01*
G01*
X149039Y174039D02*
G03*
X141600Y156079I17960J-17960D01*
G01*
X149039Y174039D02*
G03*
X141600Y156079I17960J-17960D01*
G01*
X149039Y174039D02*
G03*
X141600Y156079I17960J-17960D01*
G01*
X149039Y174039D02*
G03*
X141600Y156079I17960J-17960D01*
G01*
X149039Y174039D02*
G03*
X141600Y156079I17960J-17960D01*
G01*
X149039Y174039D02*
G03*
X141600Y156079I17960J-17960D01*
G01*
X149039Y174039D02*
G03*
X141600Y156079I17960J-17960D01*
G01*
X149039Y174039D02*
G03*
X141600Y156079I17960J-17960D01*
G01*
X149039Y174039D02*
G03*
X141600Y156079I17960J-17960D01*
G01*
X149039Y174039D02*
G03*
X141600Y156079I17960J-17960D01*
G01*
X149039Y174039D02*
G03*
X141600Y156079I17960J-17960D01*
G01*
X149039Y174039D02*
G03*
X141600Y156079I17960J-17960D01*
G01*
X149039Y174039D02*
G03*
X141600Y156079I17960J-17960D01*
G01*
X149039Y174039D02*
G03*
X141600Y156079I17960J-17960D01*
G01*
X149039Y174039D02*
G03*
X141600Y156079I17960J-17960D01*
G01*
X149039Y174039D02*
G03*
X141600Y156079I17960J-17960D01*
G01*
X149039Y174039D02*
G03*
X141600Y156079I17960J-17960D01*
G01*
X149039Y174040D02*
G03*
X141600Y156079I17960J-17960D01*
G01*
X149039Y174039D02*
G03*
X141600Y156079I17960J-17960D01*
G01*
X149039Y174039D02*
G03*
X141600Y156079I17960J-17960D01*
G01*
X149039Y174039D02*
G03*
X141600Y156079I17960J-17960D01*
G01*
X149039Y174039D02*
G03*
X141600Y156079I17960J-17960D01*
G01*
X149040Y174040D02*
X325000Y350000D01*
X141600Y100000D02*
Y156079D01*
D86*
X965000Y350000D02*
D03*
Y50000D02*
D03*
X805000Y350000D02*
D03*
Y50000D02*
D03*
X1765000D02*
D03*
Y350000D02*
D03*
X1605000Y50000D02*
D03*
Y350000D02*
D03*
X1445000Y50000D02*
D03*
Y350000D02*
D03*
X1285000Y50000D02*
D03*
Y350000D02*
D03*
X1125000Y50000D02*
D03*
Y350000D02*
D03*
X645000Y50000D02*
D03*
Y350000D02*
D03*
X485000Y50000D02*
D03*
Y350000D02*
D03*
X325000Y50000D02*
D03*
Y350000D02*
D03*
D87*
X525000Y1193500D02*
D03*
Y1066500D02*
D03*
X550400D02*
D03*
Y1193500D02*
D03*
X474200D02*
D03*
Y1066500D02*
D03*
X499600D02*
D03*
Y1193500D02*
D03*
X1770000D02*
D03*
Y1066500D02*
D03*
X1795400D02*
D03*
Y1193500D02*
D03*
X1719200D02*
D03*
Y1066500D02*
D03*
X1744600D02*
D03*
Y1193500D02*
D03*
X1150000D02*
D03*
Y1066500D02*
D03*
X1175400D02*
D03*
Y1193500D02*
D03*
X1099200D02*
D03*
Y1066500D02*
D03*
X1124600D02*
D03*
Y1193500D02*
D03*
D88*
X652000Y1101430D02*
D03*
Y1120475D02*
D03*
Y1158570D02*
D03*
Y1139520D02*
D03*
X1897000Y1101430D02*
D03*
Y1120475D02*
D03*
Y1158570D02*
D03*
Y1139520D02*
D03*
X1277000Y1101430D02*
D03*
Y1120475D02*
D03*
Y1158570D02*
D03*
Y1139520D02*
D03*
D89*
X692000Y800000D02*
D03*
X666600D02*
D03*
X590400D02*
D03*
X565000D02*
D03*
X539600D02*
D03*
X1782600D02*
D03*
X1808000D02*
D03*
X1833400D02*
D03*
X1909600D02*
D03*
X1935000D02*
D03*
X1315400D02*
D03*
X1290000D02*
D03*
X1213800D02*
D03*
X1188400D02*
D03*
X1163000D02*
D03*
X184400Y620000D02*
D03*
X159000D02*
D03*
X133600D02*
D03*
X57400D02*
D03*
X32000D02*
D03*
X1270000D02*
D03*
X1295400D02*
D03*
X1371600D02*
D03*
X1397000D02*
D03*
X1422400D02*
D03*
X802400D02*
D03*
X777000D02*
D03*
X751600D02*
D03*
X675400D02*
D03*
X650000D02*
D03*
D90*
X131500Y1426600D02*
D03*
X106100D02*
D03*
X131500Y1375800D02*
D03*
Y1350400D02*
D03*
X106100Y1375800D02*
D03*
Y1350400D02*
D03*
X131500Y1325000D02*
D03*
X106100D02*
D03*
X131500Y1299600D02*
D03*
X106100D02*
D03*
X131500Y1248800D02*
D03*
X106100D02*
D03*
X131500Y1223400D02*
D03*
X106100D02*
D03*
X131500Y1172600D02*
D03*
X106100Y1198000D02*
D03*
X131500D02*
D03*
X106100Y1274200D02*
D03*
X131500D02*
D03*
X106100Y1401200D02*
D03*
X131500D02*
D03*
X106100Y1452000D02*
D03*
Y1477400D02*
D03*
X131500Y1452000D02*
D03*
Y1477400D02*
D03*
X192400Y100000D02*
D03*
X141600D02*
D03*
X65400D02*
D03*
X1605000Y782000D02*
D03*
Y718000D02*
D03*
Y686000D02*
D03*
Y654000D02*
D03*
Y750000D02*
D03*
X1573000Y718000D02*
D03*
X985000Y782000D02*
D03*
Y718000D02*
D03*
Y686000D02*
D03*
Y654000D02*
D03*
Y750000D02*
D03*
X953000Y718000D02*
D03*
X365000Y782000D02*
D03*
Y718000D02*
D03*
Y686000D02*
D03*
Y654000D02*
D03*
Y750000D02*
D03*
X333000Y718000D02*
D03*
D91*
X106100Y1172600D02*
D03*
D92*
X1891900Y118100D02*
D03*
X1968100D02*
D03*
X1942700Y41900D02*
D03*
X1917300D02*
D03*
X1891900D02*
D03*
X1968100D02*
D03*
X1917300Y118100D02*
D03*
X1942700D02*
D03*
X1891900Y358100D02*
D03*
X1968100D02*
D03*
X1942700Y281900D02*
D03*
X1917300D02*
D03*
X1891900D02*
D03*
X1968100D02*
D03*
X1917300Y358100D02*
D03*
X1942700D02*
D03*
X507300Y1333100D02*
D03*
X532700D02*
D03*
X481900Y1256900D02*
D03*
X558100D02*
D03*
X532700D02*
D03*
X507300D02*
D03*
X481900Y1333100D02*
D03*
X558100D02*
D03*
X1798100D02*
D03*
X1721900D02*
D03*
X1747300Y1256900D02*
D03*
X1772700D02*
D03*
X1798100D02*
D03*
X1721900D02*
D03*
X1772700Y1333100D02*
D03*
X1747300D02*
D03*
X1178100D02*
D03*
X1101900D02*
D03*
X1127300Y1256900D02*
D03*
X1152700D02*
D03*
X1178100D02*
D03*
X1101900D02*
D03*
X1152700Y1333100D02*
D03*
X1127300D02*
D03*
D93*
X40000Y100000D02*
D03*
D94*
X1637000Y910000D02*
D03*
X1605000D02*
D03*
X1477000Y846000D02*
D03*
Y718000D02*
D03*
X1541000Y590000D02*
D03*
X1701000Y846000D02*
D03*
Y590000D02*
D03*
Y718000D02*
D03*
X1509000D02*
D03*
X1541000Y846000D02*
D03*
X1509000D02*
D03*
X1477000Y590000D02*
D03*
X1509000D02*
D03*
X1733000Y718000D02*
D03*
Y590000D02*
D03*
Y622000D02*
D03*
Y814000D02*
D03*
Y846000D02*
D03*
X1017000Y910000D02*
D03*
X985000D02*
D03*
X857000Y846000D02*
D03*
Y718000D02*
D03*
X921000Y590000D02*
D03*
X1081000Y846000D02*
D03*
Y590000D02*
D03*
Y718000D02*
D03*
X889000D02*
D03*
X921000Y846000D02*
D03*
X889000D02*
D03*
X857000Y590000D02*
D03*
X889000D02*
D03*
X1113000Y718000D02*
D03*
Y590000D02*
D03*
Y622000D02*
D03*
Y814000D02*
D03*
Y846000D02*
D03*
X397000Y910000D02*
D03*
X365000D02*
D03*
X237000Y846000D02*
D03*
Y718000D02*
D03*
X301000Y590000D02*
D03*
X461000Y846000D02*
D03*
Y590000D02*
D03*
Y718000D02*
D03*
X269000D02*
D03*
X301000Y846000D02*
D03*
X269000D02*
D03*
X237000Y590000D02*
D03*
X269000D02*
D03*
X493000Y718000D02*
D03*
Y590000D02*
D03*
Y622000D02*
D03*
Y814000D02*
D03*
Y846000D02*
D03*
D95*
X1979999Y1485000D02*
D03*
Y1470000D02*
D03*
Y1455000D02*
D03*
Y1440000D02*
D03*
Y1425000D02*
D03*
Y1395000D02*
D03*
Y1380000D02*
D03*
Y1365000D02*
D03*
Y1350000D02*
D03*
Y1335000D02*
D03*
Y1320000D02*
D03*
Y1305000D02*
D03*
Y1290000D02*
D03*
Y1275000D02*
D03*
Y1260000D02*
D03*
Y1245000D02*
D03*
Y1230000D02*
D03*
Y1215000D02*
D03*
Y1200000D02*
D03*
Y1185000D02*
D03*
Y1170000D02*
D03*
Y1155000D02*
D03*
Y1140000D02*
D03*
Y1125000D02*
D03*
Y1110000D02*
D03*
Y1095000D02*
D03*
Y1080000D02*
D03*
Y1065000D02*
D03*
Y1050000D02*
D03*
Y1035000D02*
D03*
Y1020000D02*
D03*
Y1005000D02*
D03*
Y990000D02*
D03*
Y975000D02*
D03*
Y960000D02*
D03*
Y945000D02*
D03*
Y930000D02*
D03*
Y915000D02*
D03*
Y900000D02*
D03*
Y885000D02*
D03*
Y870000D02*
D03*
Y855000D02*
D03*
Y840000D02*
D03*
Y825000D02*
D03*
Y810000D02*
D03*
Y795000D02*
D03*
Y780000D02*
D03*
Y765000D02*
D03*
Y750000D02*
D03*
Y735000D02*
D03*
Y720000D02*
D03*
Y705000D02*
D03*
Y690000D02*
D03*
Y675000D02*
D03*
Y660000D02*
D03*
Y645000D02*
D03*
Y630000D02*
D03*
Y615000D02*
D03*
Y600000D02*
D03*
Y585000D02*
D03*
Y570000D02*
D03*
Y555000D02*
D03*
X1964999Y1485000D02*
D03*
Y1470000D02*
D03*
Y1455000D02*
D03*
Y1440000D02*
D03*
Y1425000D02*
D03*
Y1410000D02*
D03*
Y1380000D02*
D03*
Y1365000D02*
D03*
Y1350000D02*
D03*
Y1335000D02*
D03*
Y1320000D02*
D03*
Y1305000D02*
D03*
Y1290000D02*
D03*
Y1275000D02*
D03*
Y1260000D02*
D03*
Y1245000D02*
D03*
Y1230000D02*
D03*
Y1215000D02*
D03*
Y1200000D02*
D03*
Y1185000D02*
D03*
Y1170000D02*
D03*
Y1155000D02*
D03*
Y1140000D02*
D03*
Y1125000D02*
D03*
Y1095000D02*
D03*
Y1080000D02*
D03*
Y1065000D02*
D03*
Y1050000D02*
D03*
Y1035000D02*
D03*
Y1020000D02*
D03*
Y1005000D02*
D03*
Y990000D02*
D03*
Y975000D02*
D03*
Y960000D02*
D03*
Y945000D02*
D03*
Y930000D02*
D03*
Y915000D02*
D03*
Y900000D02*
D03*
Y885000D02*
D03*
Y870000D02*
D03*
Y855000D02*
D03*
Y840000D02*
D03*
Y825000D02*
D03*
Y810000D02*
D03*
Y795000D02*
D03*
Y780000D02*
D03*
Y765000D02*
D03*
Y750000D02*
D03*
Y735000D02*
D03*
Y720000D02*
D03*
Y705000D02*
D03*
Y690000D02*
D03*
Y675000D02*
D03*
Y660000D02*
D03*
Y645000D02*
D03*
Y630000D02*
D03*
Y615000D02*
D03*
Y600000D02*
D03*
Y585000D02*
D03*
Y570000D02*
D03*
Y555000D02*
D03*
X1949999Y1485000D02*
D03*
Y1470000D02*
D03*
Y1455000D02*
D03*
Y1440000D02*
D03*
Y1425000D02*
D03*
Y1410000D02*
D03*
Y1395000D02*
D03*
Y1365000D02*
D03*
Y1350000D02*
D03*
Y1335000D02*
D03*
Y1320000D02*
D03*
Y1305000D02*
D03*
Y1290000D02*
D03*
Y1275000D02*
D03*
Y1260000D02*
D03*
Y1245000D02*
D03*
Y1230000D02*
D03*
Y675000D02*
D03*
Y660000D02*
D03*
Y645000D02*
D03*
Y630000D02*
D03*
Y615000D02*
D03*
Y600000D02*
D03*
Y555000D02*
D03*
X1934999Y1485000D02*
D03*
Y1470000D02*
D03*
Y1455000D02*
D03*
Y1440000D02*
D03*
Y1425000D02*
D03*
Y1410000D02*
D03*
Y1395000D02*
D03*
Y1380000D02*
D03*
Y1350000D02*
D03*
Y1335000D02*
D03*
Y1320000D02*
D03*
Y1305000D02*
D03*
Y1290000D02*
D03*
Y1275000D02*
D03*
Y1260000D02*
D03*
Y1245000D02*
D03*
Y1215000D02*
D03*
Y1065000D02*
D03*
Y1050000D02*
D03*
Y1035000D02*
D03*
Y1020000D02*
D03*
Y1005000D02*
D03*
Y990000D02*
D03*
Y975000D02*
D03*
Y960000D02*
D03*
Y945000D02*
D03*
Y930000D02*
D03*
Y915000D02*
D03*
Y900000D02*
D03*
Y885000D02*
D03*
Y870000D02*
D03*
Y855000D02*
D03*
Y780000D02*
D03*
Y765000D02*
D03*
Y750000D02*
D03*
Y735000D02*
D03*
Y720000D02*
D03*
Y705000D02*
D03*
Y690000D02*
D03*
Y660000D02*
D03*
Y645000D02*
D03*
Y630000D02*
D03*
Y615000D02*
D03*
X1919999Y1485000D02*
D03*
Y1470000D02*
D03*
Y1455000D02*
D03*
Y1440000D02*
D03*
Y1425000D02*
D03*
Y1410000D02*
D03*
Y1395000D02*
D03*
Y1380000D02*
D03*
Y765000D02*
D03*
Y750000D02*
D03*
Y735000D02*
D03*
Y720000D02*
D03*
Y645000D02*
D03*
Y630000D02*
D03*
Y615000D02*
D03*
X1904999Y1485000D02*
D03*
Y1470000D02*
D03*
Y1455000D02*
D03*
Y1440000D02*
D03*
Y1425000D02*
D03*
Y1410000D02*
D03*
Y1395000D02*
D03*
Y1365000D02*
D03*
Y1320000D02*
D03*
Y1305000D02*
D03*
Y1290000D02*
D03*
Y1275000D02*
D03*
Y1185000D02*
D03*
Y1170000D02*
D03*
Y1080000D02*
D03*
Y1065000D02*
D03*
Y1050000D02*
D03*
Y1005000D02*
D03*
Y990000D02*
D03*
Y975000D02*
D03*
Y960000D02*
D03*
Y945000D02*
D03*
Y870000D02*
D03*
Y765000D02*
D03*
Y750000D02*
D03*
Y630000D02*
D03*
Y615000D02*
D03*
Y600000D02*
D03*
Y555000D02*
D03*
X1889999Y1485000D02*
D03*
Y1470000D02*
D03*
Y1455000D02*
D03*
Y1440000D02*
D03*
Y1425000D02*
D03*
Y1410000D02*
D03*
Y1380000D02*
D03*
Y1365000D02*
D03*
Y1350000D02*
D03*
Y1335000D02*
D03*
Y1320000D02*
D03*
Y1305000D02*
D03*
Y1290000D02*
D03*
Y1170000D02*
D03*
Y1080000D02*
D03*
Y1065000D02*
D03*
Y1005000D02*
D03*
Y990000D02*
D03*
Y630000D02*
D03*
Y615000D02*
D03*
Y600000D02*
D03*
Y585000D02*
D03*
Y570000D02*
D03*
Y555000D02*
D03*
X1874999Y1485000D02*
D03*
Y1470000D02*
D03*
Y1455000D02*
D03*
Y1440000D02*
D03*
Y1425000D02*
D03*
Y1260000D02*
D03*
Y1245000D02*
D03*
Y1215000D02*
D03*
Y1200000D02*
D03*
Y1095000D02*
D03*
Y1080000D02*
D03*
Y1065000D02*
D03*
Y1050000D02*
D03*
Y1005000D02*
D03*
Y975000D02*
D03*
Y960000D02*
D03*
Y630000D02*
D03*
Y615000D02*
D03*
Y600000D02*
D03*
Y585000D02*
D03*
Y570000D02*
D03*
Y555000D02*
D03*
X1859999Y1485000D02*
D03*
Y1470000D02*
D03*
Y1455000D02*
D03*
Y1440000D02*
D03*
X1844999Y1485000D02*
D03*
Y1470000D02*
D03*
Y1455000D02*
D03*
X1829999Y1485000D02*
D03*
Y1470000D02*
D03*
Y1425000D02*
D03*
X1814999Y1485000D02*
D03*
Y1425000D02*
D03*
X1799999Y1485000D02*
D03*
Y1425000D02*
D03*
X1785000Y1485000D02*
D03*
Y1425000D02*
D03*
X1770000Y1485000D02*
D03*
Y1425000D02*
D03*
X1755000Y1485000D02*
D03*
Y1425000D02*
D03*
X1740000Y1485000D02*
D03*
Y1425000D02*
D03*
X1725000Y1485000D02*
D03*
Y1425000D02*
D03*
X1710000Y1485000D02*
D03*
Y1425000D02*
D03*
X1695000Y1485000D02*
D03*
Y1425000D02*
D03*
X1680000Y1485000D02*
D03*
Y1425000D02*
D03*
X1665000Y1485000D02*
D03*
Y1425000D02*
D03*
X1650000Y1485000D02*
D03*
Y1425000D02*
D03*
Y1410000D02*
D03*
Y1395000D02*
D03*
Y1380000D02*
D03*
Y1365000D02*
D03*
Y1350000D02*
D03*
Y1335000D02*
D03*
Y1320000D02*
D03*
Y1305000D02*
D03*
Y1290000D02*
D03*
Y1275000D02*
D03*
Y1260000D02*
D03*
X1635000Y1485000D02*
D03*
Y1425000D02*
D03*
Y1410000D02*
D03*
Y1395000D02*
D03*
Y1380000D02*
D03*
Y1365000D02*
D03*
Y1350000D02*
D03*
Y1335000D02*
D03*
Y1320000D02*
D03*
Y1305000D02*
D03*
Y1290000D02*
D03*
Y1275000D02*
D03*
Y1260000D02*
D03*
Y1245000D02*
D03*
X1620000Y1485000D02*
D03*
Y1425000D02*
D03*
Y1410000D02*
D03*
Y1395000D02*
D03*
Y1380000D02*
D03*
Y1365000D02*
D03*
Y1350000D02*
D03*
Y1335000D02*
D03*
Y1320000D02*
D03*
Y1305000D02*
D03*
Y1290000D02*
D03*
Y1275000D02*
D03*
Y1260000D02*
D03*
Y1245000D02*
D03*
Y1230000D02*
D03*
X1605000Y1485000D02*
D03*
Y1425000D02*
D03*
Y1410000D02*
D03*
Y1395000D02*
D03*
Y1380000D02*
D03*
Y1365000D02*
D03*
Y1350000D02*
D03*
Y1335000D02*
D03*
Y1320000D02*
D03*
Y1305000D02*
D03*
Y1290000D02*
D03*
Y1275000D02*
D03*
Y1260000D02*
D03*
Y1245000D02*
D03*
Y1230000D02*
D03*
Y1215000D02*
D03*
X1590000Y1485000D02*
D03*
Y1425000D02*
D03*
Y1410000D02*
D03*
Y1395000D02*
D03*
Y1380000D02*
D03*
Y1365000D02*
D03*
Y1350000D02*
D03*
Y1335000D02*
D03*
Y1320000D02*
D03*
Y1305000D02*
D03*
Y1290000D02*
D03*
Y1275000D02*
D03*
Y1260000D02*
D03*
Y1245000D02*
D03*
Y1230000D02*
D03*
Y1215000D02*
D03*
Y1200000D02*
D03*
X1575000Y1485000D02*
D03*
Y1425000D02*
D03*
Y1410000D02*
D03*
Y1395000D02*
D03*
Y1380000D02*
D03*
Y1365000D02*
D03*
Y1350000D02*
D03*
Y1335000D02*
D03*
Y1320000D02*
D03*
Y1305000D02*
D03*
Y1290000D02*
D03*
Y1275000D02*
D03*
Y1260000D02*
D03*
Y1245000D02*
D03*
Y1230000D02*
D03*
Y1215000D02*
D03*
Y1200000D02*
D03*
Y1185000D02*
D03*
X1560000Y1485000D02*
D03*
Y1425000D02*
D03*
Y1410000D02*
D03*
Y1395000D02*
D03*
Y1380000D02*
D03*
Y1365000D02*
D03*
Y1350000D02*
D03*
Y1335000D02*
D03*
Y1320000D02*
D03*
Y1305000D02*
D03*
Y1290000D02*
D03*
Y1275000D02*
D03*
Y1260000D02*
D03*
Y1245000D02*
D03*
Y1230000D02*
D03*
Y1215000D02*
D03*
Y1200000D02*
D03*
Y1185000D02*
D03*
Y1170000D02*
D03*
X1545000Y1485000D02*
D03*
Y1425000D02*
D03*
Y1410000D02*
D03*
Y1395000D02*
D03*
Y1380000D02*
D03*
Y1365000D02*
D03*
Y1350000D02*
D03*
Y1335000D02*
D03*
Y1320000D02*
D03*
Y1305000D02*
D03*
Y1290000D02*
D03*
Y1275000D02*
D03*
Y1260000D02*
D03*
Y1245000D02*
D03*
Y1230000D02*
D03*
Y1215000D02*
D03*
Y1200000D02*
D03*
Y1185000D02*
D03*
Y1170000D02*
D03*
Y1155000D02*
D03*
X1530000Y1485000D02*
D03*
Y1425000D02*
D03*
Y1410000D02*
D03*
Y1395000D02*
D03*
Y1380000D02*
D03*
Y1365000D02*
D03*
Y1350000D02*
D03*
Y1335000D02*
D03*
Y1320000D02*
D03*
Y1305000D02*
D03*
Y1290000D02*
D03*
Y1275000D02*
D03*
Y1260000D02*
D03*
Y1245000D02*
D03*
Y1230000D02*
D03*
Y1215000D02*
D03*
Y1200000D02*
D03*
Y1185000D02*
D03*
Y1170000D02*
D03*
Y1155000D02*
D03*
Y1140000D02*
D03*
X1515000Y1485000D02*
D03*
Y1425000D02*
D03*
Y1410000D02*
D03*
Y1395000D02*
D03*
Y1380000D02*
D03*
Y1365000D02*
D03*
Y1350000D02*
D03*
Y1335000D02*
D03*
Y1320000D02*
D03*
Y1305000D02*
D03*
Y1290000D02*
D03*
Y1275000D02*
D03*
Y1260000D02*
D03*
Y1230000D02*
D03*
Y1215000D02*
D03*
Y1200000D02*
D03*
Y1185000D02*
D03*
Y1170000D02*
D03*
Y1155000D02*
D03*
Y1140000D02*
D03*
Y1125000D02*
D03*
X1500000Y1485000D02*
D03*
Y1425000D02*
D03*
Y1410000D02*
D03*
Y1395000D02*
D03*
Y1380000D02*
D03*
Y1365000D02*
D03*
Y1350000D02*
D03*
Y1335000D02*
D03*
Y1320000D02*
D03*
Y1305000D02*
D03*
Y1290000D02*
D03*
Y1275000D02*
D03*
Y1260000D02*
D03*
Y1245000D02*
D03*
Y1230000D02*
D03*
Y1215000D02*
D03*
Y1200000D02*
D03*
Y1185000D02*
D03*
Y1170000D02*
D03*
Y1155000D02*
D03*
Y1140000D02*
D03*
Y1125000D02*
D03*
Y1110000D02*
D03*
X1485000Y1485000D02*
D03*
Y1425000D02*
D03*
Y1410000D02*
D03*
Y1395000D02*
D03*
Y1380000D02*
D03*
Y1365000D02*
D03*
Y1350000D02*
D03*
Y1335000D02*
D03*
Y1320000D02*
D03*
Y1305000D02*
D03*
Y1290000D02*
D03*
Y1275000D02*
D03*
Y1260000D02*
D03*
Y1245000D02*
D03*
Y1230000D02*
D03*
Y1215000D02*
D03*
Y1200000D02*
D03*
Y1185000D02*
D03*
Y1170000D02*
D03*
Y1155000D02*
D03*
Y1140000D02*
D03*
Y1125000D02*
D03*
Y1110000D02*
D03*
Y1095000D02*
D03*
X1470000Y1485000D02*
D03*
Y1425000D02*
D03*
Y1410000D02*
D03*
Y1395000D02*
D03*
Y1380000D02*
D03*
Y1365000D02*
D03*
Y1350000D02*
D03*
Y1335000D02*
D03*
Y1320000D02*
D03*
Y1305000D02*
D03*
Y1290000D02*
D03*
Y1275000D02*
D03*
Y1260000D02*
D03*
Y1245000D02*
D03*
Y1230000D02*
D03*
Y1215000D02*
D03*
Y1200000D02*
D03*
Y1185000D02*
D03*
Y1170000D02*
D03*
Y1155000D02*
D03*
Y1140000D02*
D03*
Y1125000D02*
D03*
Y1110000D02*
D03*
Y1095000D02*
D03*
Y1080000D02*
D03*
X1455000Y1485000D02*
D03*
Y1425000D02*
D03*
Y1410000D02*
D03*
Y1395000D02*
D03*
Y1380000D02*
D03*
Y1365000D02*
D03*
Y1350000D02*
D03*
Y1335000D02*
D03*
Y1320000D02*
D03*
Y1305000D02*
D03*
Y1290000D02*
D03*
Y1275000D02*
D03*
Y1260000D02*
D03*
Y1245000D02*
D03*
Y1230000D02*
D03*
Y1215000D02*
D03*
Y1200000D02*
D03*
Y1185000D02*
D03*
Y1170000D02*
D03*
Y1155000D02*
D03*
Y1140000D02*
D03*
Y1125000D02*
D03*
Y1110000D02*
D03*
Y1095000D02*
D03*
Y1080000D02*
D03*
Y1065000D02*
D03*
X1440000Y1485000D02*
D03*
Y1425000D02*
D03*
Y1410000D02*
D03*
Y1395000D02*
D03*
Y1380000D02*
D03*
Y1365000D02*
D03*
Y1350000D02*
D03*
Y1335000D02*
D03*
Y1320000D02*
D03*
Y1305000D02*
D03*
Y1290000D02*
D03*
Y1275000D02*
D03*
Y1260000D02*
D03*
Y1245000D02*
D03*
Y1230000D02*
D03*
Y1215000D02*
D03*
Y1200000D02*
D03*
Y1185000D02*
D03*
Y1170000D02*
D03*
Y1155000D02*
D03*
Y1140000D02*
D03*
Y1125000D02*
D03*
Y1110000D02*
D03*
Y1095000D02*
D03*
Y1080000D02*
D03*
Y1065000D02*
D03*
Y1050000D02*
D03*
X1425000Y1485000D02*
D03*
Y1425000D02*
D03*
Y1410000D02*
D03*
Y1395000D02*
D03*
Y1380000D02*
D03*
Y1365000D02*
D03*
Y1350000D02*
D03*
Y1335000D02*
D03*
Y1320000D02*
D03*
Y1305000D02*
D03*
Y1290000D02*
D03*
Y1275000D02*
D03*
Y1260000D02*
D03*
Y1245000D02*
D03*
Y1230000D02*
D03*
Y1215000D02*
D03*
Y1200000D02*
D03*
Y1185000D02*
D03*
Y1170000D02*
D03*
Y1155000D02*
D03*
Y1140000D02*
D03*
Y1125000D02*
D03*
Y1110000D02*
D03*
Y1095000D02*
D03*
Y1080000D02*
D03*
Y1065000D02*
D03*
Y1050000D02*
D03*
Y1035000D02*
D03*
X1410000Y1485000D02*
D03*
Y1425000D02*
D03*
Y1410000D02*
D03*
Y1395000D02*
D03*
Y1380000D02*
D03*
Y1365000D02*
D03*
Y1350000D02*
D03*
Y1335000D02*
D03*
Y1320000D02*
D03*
Y1305000D02*
D03*
Y1290000D02*
D03*
Y1275000D02*
D03*
Y1260000D02*
D03*
Y1245000D02*
D03*
Y1230000D02*
D03*
Y1215000D02*
D03*
Y1200000D02*
D03*
Y1185000D02*
D03*
Y1170000D02*
D03*
Y1155000D02*
D03*
Y1140000D02*
D03*
Y1125000D02*
D03*
Y1110000D02*
D03*
Y1095000D02*
D03*
Y1080000D02*
D03*
Y1065000D02*
D03*
Y1050000D02*
D03*
Y1035000D02*
D03*
Y1020000D02*
D03*
X1395000Y1485000D02*
D03*
Y1425000D02*
D03*
Y1410000D02*
D03*
Y1395000D02*
D03*
Y1380000D02*
D03*
Y1365000D02*
D03*
Y1350000D02*
D03*
Y1335000D02*
D03*
Y1320000D02*
D03*
Y1305000D02*
D03*
Y1290000D02*
D03*
Y1275000D02*
D03*
Y1260000D02*
D03*
Y1245000D02*
D03*
Y1230000D02*
D03*
Y1215000D02*
D03*
Y1200000D02*
D03*
Y1185000D02*
D03*
Y1170000D02*
D03*
Y1155000D02*
D03*
Y1140000D02*
D03*
Y1125000D02*
D03*
Y1110000D02*
D03*
Y1095000D02*
D03*
Y1080000D02*
D03*
Y1065000D02*
D03*
Y1050000D02*
D03*
Y1035000D02*
D03*
Y1020000D02*
D03*
Y1005000D02*
D03*
X1380000Y1485000D02*
D03*
Y1425000D02*
D03*
Y1410000D02*
D03*
Y1395000D02*
D03*
Y1380000D02*
D03*
Y1365000D02*
D03*
Y1350000D02*
D03*
Y1335000D02*
D03*
Y1320000D02*
D03*
Y1305000D02*
D03*
Y1290000D02*
D03*
Y1275000D02*
D03*
Y1260000D02*
D03*
Y1245000D02*
D03*
Y1230000D02*
D03*
Y1215000D02*
D03*
Y1200000D02*
D03*
Y1185000D02*
D03*
Y1170000D02*
D03*
Y1155000D02*
D03*
Y1140000D02*
D03*
Y1125000D02*
D03*
Y1110000D02*
D03*
Y1095000D02*
D03*
Y1080000D02*
D03*
Y1065000D02*
D03*
Y1050000D02*
D03*
Y1035000D02*
D03*
Y1020000D02*
D03*
Y1005000D02*
D03*
Y990000D02*
D03*
X1365000Y1485000D02*
D03*
Y1425000D02*
D03*
Y1410000D02*
D03*
Y1395000D02*
D03*
Y1380000D02*
D03*
Y1365000D02*
D03*
Y1350000D02*
D03*
Y1335000D02*
D03*
Y1320000D02*
D03*
Y1305000D02*
D03*
Y1290000D02*
D03*
Y1275000D02*
D03*
Y1260000D02*
D03*
Y1245000D02*
D03*
Y1230000D02*
D03*
Y1215000D02*
D03*
Y1200000D02*
D03*
Y1185000D02*
D03*
Y1170000D02*
D03*
Y1155000D02*
D03*
Y1140000D02*
D03*
Y1125000D02*
D03*
Y1110000D02*
D03*
Y1095000D02*
D03*
Y1080000D02*
D03*
Y1065000D02*
D03*
Y1050000D02*
D03*
Y1035000D02*
D03*
Y1020000D02*
D03*
Y1005000D02*
D03*
Y990000D02*
D03*
Y975000D02*
D03*
X1350000Y1485000D02*
D03*
Y1425000D02*
D03*
Y1410000D02*
D03*
Y1395000D02*
D03*
Y1380000D02*
D03*
Y1365000D02*
D03*
Y1350000D02*
D03*
Y1335000D02*
D03*
X1335000Y1485000D02*
D03*
Y1410000D02*
D03*
Y1395000D02*
D03*
Y1380000D02*
D03*
Y1365000D02*
D03*
Y1350000D02*
D03*
Y1305000D02*
D03*
Y1290000D02*
D03*
Y1275000D02*
D03*
Y1260000D02*
D03*
Y1245000D02*
D03*
Y1230000D02*
D03*
Y1215000D02*
D03*
Y1200000D02*
D03*
Y1185000D02*
D03*
Y1170000D02*
D03*
Y1155000D02*
D03*
Y1080000D02*
D03*
Y1065000D02*
D03*
Y1050000D02*
D03*
Y1035000D02*
D03*
Y1020000D02*
D03*
Y1005000D02*
D03*
Y990000D02*
D03*
Y975000D02*
D03*
Y960000D02*
D03*
Y945000D02*
D03*
Y930000D02*
D03*
Y915000D02*
D03*
Y900000D02*
D03*
Y885000D02*
D03*
Y870000D02*
D03*
Y855000D02*
D03*
Y840000D02*
D03*
Y825000D02*
D03*
Y810000D02*
D03*
Y795000D02*
D03*
X1320000Y1485000D02*
D03*
Y1395000D02*
D03*
Y1380000D02*
D03*
Y1365000D02*
D03*
Y1320000D02*
D03*
Y1305000D02*
D03*
Y1290000D02*
D03*
Y1275000D02*
D03*
Y1260000D02*
D03*
Y1245000D02*
D03*
Y1230000D02*
D03*
Y1215000D02*
D03*
Y1200000D02*
D03*
Y1080000D02*
D03*
Y1065000D02*
D03*
Y1050000D02*
D03*
Y1035000D02*
D03*
Y1020000D02*
D03*
Y1005000D02*
D03*
Y990000D02*
D03*
Y975000D02*
D03*
Y960000D02*
D03*
Y945000D02*
D03*
Y930000D02*
D03*
Y915000D02*
D03*
Y900000D02*
D03*
Y885000D02*
D03*
Y870000D02*
D03*
Y855000D02*
D03*
Y840000D02*
D03*
Y825000D02*
D03*
X1305000Y1485000D02*
D03*
Y1380000D02*
D03*
Y1065000D02*
D03*
Y1050000D02*
D03*
Y1035000D02*
D03*
Y1020000D02*
D03*
Y1005000D02*
D03*
Y990000D02*
D03*
Y975000D02*
D03*
Y960000D02*
D03*
Y945000D02*
D03*
Y930000D02*
D03*
Y915000D02*
D03*
Y900000D02*
D03*
Y885000D02*
D03*
Y870000D02*
D03*
Y660000D02*
D03*
Y555000D02*
D03*
X1290000Y1485000D02*
D03*
Y765000D02*
D03*
Y555000D02*
D03*
X1275000Y1485000D02*
D03*
Y1365000D02*
D03*
Y1350000D02*
D03*
Y1335000D02*
D03*
Y1320000D02*
D03*
Y1305000D02*
D03*
Y1290000D02*
D03*
Y1275000D02*
D03*
Y1260000D02*
D03*
Y1200000D02*
D03*
Y1170000D02*
D03*
Y1080000D02*
D03*
Y1065000D02*
D03*
Y1050000D02*
D03*
Y1005000D02*
D03*
Y990000D02*
D03*
Y975000D02*
D03*
Y960000D02*
D03*
Y945000D02*
D03*
Y555000D02*
D03*
X1260000Y1485000D02*
D03*
Y1365000D02*
D03*
Y1350000D02*
D03*
Y1335000D02*
D03*
Y1320000D02*
D03*
Y1305000D02*
D03*
Y1290000D02*
D03*
Y1275000D02*
D03*
Y1260000D02*
D03*
Y1200000D02*
D03*
Y1185000D02*
D03*
Y1080000D02*
D03*
Y1065000D02*
D03*
Y1050000D02*
D03*
Y1005000D02*
D03*
Y990000D02*
D03*
Y975000D02*
D03*
Y960000D02*
D03*
Y600000D02*
D03*
Y585000D02*
D03*
Y570000D02*
D03*
Y555000D02*
D03*
X1245000Y1485000D02*
D03*
Y750000D02*
D03*
Y630000D02*
D03*
Y615000D02*
D03*
Y600000D02*
D03*
Y585000D02*
D03*
Y570000D02*
D03*
Y555000D02*
D03*
X1230000Y1485000D02*
D03*
X1215000D02*
D03*
Y1425000D02*
D03*
X1200000Y1485000D02*
D03*
Y1425000D02*
D03*
X1185000Y1485000D02*
D03*
Y1425000D02*
D03*
X1170000Y1485000D02*
D03*
Y1425000D02*
D03*
X1155000Y1485000D02*
D03*
Y1425000D02*
D03*
X1140000Y1485000D02*
D03*
Y1425000D02*
D03*
X1125000Y1485000D02*
D03*
Y1425000D02*
D03*
X1110000Y1485000D02*
D03*
Y1425000D02*
D03*
X1095000Y1485000D02*
D03*
Y1425000D02*
D03*
X1080000Y1485000D02*
D03*
Y1425000D02*
D03*
X1065000Y1485000D02*
D03*
Y1425000D02*
D03*
X1050000Y1485000D02*
D03*
Y1425000D02*
D03*
X1035000Y1485000D02*
D03*
Y1425000D02*
D03*
Y1410000D02*
D03*
X1020000Y1485000D02*
D03*
Y1425000D02*
D03*
Y1410000D02*
D03*
Y1395000D02*
D03*
Y1380000D02*
D03*
Y1365000D02*
D03*
Y1350000D02*
D03*
Y1335000D02*
D03*
Y1320000D02*
D03*
Y1305000D02*
D03*
Y1290000D02*
D03*
Y1275000D02*
D03*
Y1260000D02*
D03*
Y1245000D02*
D03*
X1005000Y1485000D02*
D03*
Y1425000D02*
D03*
Y1410000D02*
D03*
Y1395000D02*
D03*
Y1380000D02*
D03*
Y1365000D02*
D03*
Y1350000D02*
D03*
Y1335000D02*
D03*
Y1320000D02*
D03*
Y1305000D02*
D03*
Y1290000D02*
D03*
Y1275000D02*
D03*
Y1260000D02*
D03*
Y1245000D02*
D03*
Y1230000D02*
D03*
X990000Y1485000D02*
D03*
Y1425000D02*
D03*
Y1410000D02*
D03*
Y1395000D02*
D03*
Y1380000D02*
D03*
Y1365000D02*
D03*
Y1350000D02*
D03*
Y1335000D02*
D03*
Y1320000D02*
D03*
Y1305000D02*
D03*
Y1290000D02*
D03*
Y1275000D02*
D03*
Y1260000D02*
D03*
Y1245000D02*
D03*
Y1230000D02*
D03*
Y1215000D02*
D03*
X975000Y1485000D02*
D03*
Y1425000D02*
D03*
Y1410000D02*
D03*
Y1395000D02*
D03*
Y1380000D02*
D03*
Y1365000D02*
D03*
Y1350000D02*
D03*
Y1335000D02*
D03*
Y1320000D02*
D03*
Y1305000D02*
D03*
Y1290000D02*
D03*
Y1275000D02*
D03*
Y1260000D02*
D03*
Y1245000D02*
D03*
Y1230000D02*
D03*
Y1215000D02*
D03*
Y1200000D02*
D03*
X960000Y1485000D02*
D03*
Y1425000D02*
D03*
Y1410000D02*
D03*
Y1395000D02*
D03*
Y1380000D02*
D03*
Y1365000D02*
D03*
Y1350000D02*
D03*
Y1335000D02*
D03*
Y1320000D02*
D03*
Y1305000D02*
D03*
Y1290000D02*
D03*
Y1275000D02*
D03*
Y1260000D02*
D03*
Y1245000D02*
D03*
Y1230000D02*
D03*
Y1215000D02*
D03*
Y1200000D02*
D03*
Y1185000D02*
D03*
X945000Y1485000D02*
D03*
Y1425000D02*
D03*
Y1410000D02*
D03*
Y1395000D02*
D03*
Y1380000D02*
D03*
Y1365000D02*
D03*
Y1350000D02*
D03*
Y1335000D02*
D03*
Y1320000D02*
D03*
Y1305000D02*
D03*
Y1290000D02*
D03*
Y1275000D02*
D03*
Y1260000D02*
D03*
Y1245000D02*
D03*
Y1230000D02*
D03*
Y1215000D02*
D03*
Y1200000D02*
D03*
Y1185000D02*
D03*
Y1170000D02*
D03*
X930000Y1485000D02*
D03*
Y1425000D02*
D03*
Y1410000D02*
D03*
Y1395000D02*
D03*
Y1380000D02*
D03*
Y1365000D02*
D03*
Y1350000D02*
D03*
Y1335000D02*
D03*
Y1320000D02*
D03*
Y1305000D02*
D03*
Y1290000D02*
D03*
Y1275000D02*
D03*
Y1260000D02*
D03*
Y1245000D02*
D03*
Y1230000D02*
D03*
Y1215000D02*
D03*
Y1200000D02*
D03*
Y1185000D02*
D03*
Y1170000D02*
D03*
Y1155000D02*
D03*
X915000Y1485000D02*
D03*
Y1425000D02*
D03*
Y1410000D02*
D03*
Y1395000D02*
D03*
Y1380000D02*
D03*
Y1365000D02*
D03*
Y1350000D02*
D03*
Y1335000D02*
D03*
Y1320000D02*
D03*
Y1305000D02*
D03*
Y1290000D02*
D03*
Y1275000D02*
D03*
Y1260000D02*
D03*
Y1245000D02*
D03*
Y1230000D02*
D03*
Y1215000D02*
D03*
Y1200000D02*
D03*
Y1185000D02*
D03*
Y1170000D02*
D03*
Y1155000D02*
D03*
Y1140000D02*
D03*
X900000Y1485000D02*
D03*
Y1425000D02*
D03*
Y1410000D02*
D03*
Y1395000D02*
D03*
Y1380000D02*
D03*
Y1365000D02*
D03*
Y1350000D02*
D03*
Y1335000D02*
D03*
Y1320000D02*
D03*
Y1305000D02*
D03*
Y1290000D02*
D03*
Y1275000D02*
D03*
Y1215000D02*
D03*
Y1200000D02*
D03*
Y1185000D02*
D03*
Y1170000D02*
D03*
Y1155000D02*
D03*
Y1140000D02*
D03*
Y1125000D02*
D03*
X885000Y1485000D02*
D03*
Y1425000D02*
D03*
Y1410000D02*
D03*
Y1395000D02*
D03*
Y1380000D02*
D03*
Y1365000D02*
D03*
Y1350000D02*
D03*
Y1335000D02*
D03*
Y1320000D02*
D03*
Y1305000D02*
D03*
Y1290000D02*
D03*
Y1215000D02*
D03*
Y1200000D02*
D03*
Y1185000D02*
D03*
Y1170000D02*
D03*
Y1155000D02*
D03*
Y1140000D02*
D03*
Y1125000D02*
D03*
Y1110000D02*
D03*
X870000Y1485000D02*
D03*
Y1425000D02*
D03*
Y1410000D02*
D03*
Y1395000D02*
D03*
Y1380000D02*
D03*
Y1365000D02*
D03*
Y1350000D02*
D03*
Y1335000D02*
D03*
Y1320000D02*
D03*
Y1305000D02*
D03*
Y1290000D02*
D03*
Y1275000D02*
D03*
Y1215000D02*
D03*
Y1200000D02*
D03*
Y1185000D02*
D03*
Y1170000D02*
D03*
Y1155000D02*
D03*
Y1140000D02*
D03*
Y1125000D02*
D03*
Y1110000D02*
D03*
Y1095000D02*
D03*
X855000Y1485000D02*
D03*
Y1425000D02*
D03*
Y1410000D02*
D03*
Y1395000D02*
D03*
Y1380000D02*
D03*
Y1365000D02*
D03*
Y1350000D02*
D03*
Y1335000D02*
D03*
Y1320000D02*
D03*
Y1305000D02*
D03*
Y1290000D02*
D03*
Y1275000D02*
D03*
Y1260000D02*
D03*
Y1245000D02*
D03*
Y1230000D02*
D03*
Y1215000D02*
D03*
Y1200000D02*
D03*
Y1185000D02*
D03*
Y1170000D02*
D03*
Y1155000D02*
D03*
Y1140000D02*
D03*
Y1125000D02*
D03*
Y1110000D02*
D03*
Y1095000D02*
D03*
Y1080000D02*
D03*
X840000Y1485000D02*
D03*
Y1425000D02*
D03*
Y1410000D02*
D03*
Y1395000D02*
D03*
Y1380000D02*
D03*
Y1365000D02*
D03*
Y1350000D02*
D03*
Y1335000D02*
D03*
Y1320000D02*
D03*
Y1305000D02*
D03*
Y1290000D02*
D03*
Y1275000D02*
D03*
Y1260000D02*
D03*
Y1245000D02*
D03*
Y1230000D02*
D03*
Y1215000D02*
D03*
Y1200000D02*
D03*
Y1185000D02*
D03*
Y1170000D02*
D03*
Y1155000D02*
D03*
Y1140000D02*
D03*
Y1125000D02*
D03*
Y1110000D02*
D03*
Y1095000D02*
D03*
Y1080000D02*
D03*
Y1065000D02*
D03*
X825000Y1485000D02*
D03*
Y1425000D02*
D03*
Y1410000D02*
D03*
Y1395000D02*
D03*
Y1380000D02*
D03*
Y1365000D02*
D03*
Y1350000D02*
D03*
Y1335000D02*
D03*
Y1320000D02*
D03*
Y1305000D02*
D03*
Y1290000D02*
D03*
Y1275000D02*
D03*
Y1260000D02*
D03*
Y1245000D02*
D03*
Y1230000D02*
D03*
Y1215000D02*
D03*
Y1200000D02*
D03*
Y1185000D02*
D03*
Y1170000D02*
D03*
Y1155000D02*
D03*
Y1140000D02*
D03*
Y1125000D02*
D03*
Y1110000D02*
D03*
Y1095000D02*
D03*
Y1080000D02*
D03*
Y1065000D02*
D03*
Y1050000D02*
D03*
X810000Y1485000D02*
D03*
Y1425000D02*
D03*
Y1410000D02*
D03*
Y1395000D02*
D03*
Y1380000D02*
D03*
Y1365000D02*
D03*
Y1350000D02*
D03*
Y1335000D02*
D03*
Y1320000D02*
D03*
Y1305000D02*
D03*
Y1290000D02*
D03*
Y1275000D02*
D03*
Y1260000D02*
D03*
Y1245000D02*
D03*
Y1230000D02*
D03*
Y1215000D02*
D03*
Y1200000D02*
D03*
Y1185000D02*
D03*
Y1170000D02*
D03*
Y1155000D02*
D03*
Y1140000D02*
D03*
Y1125000D02*
D03*
Y1110000D02*
D03*
Y1095000D02*
D03*
Y1080000D02*
D03*
Y1065000D02*
D03*
Y1050000D02*
D03*
Y1035000D02*
D03*
X795000Y1485000D02*
D03*
Y1425000D02*
D03*
Y1410000D02*
D03*
Y1395000D02*
D03*
Y1380000D02*
D03*
Y1365000D02*
D03*
Y1350000D02*
D03*
Y1335000D02*
D03*
Y1320000D02*
D03*
Y1305000D02*
D03*
Y1290000D02*
D03*
Y1275000D02*
D03*
Y1260000D02*
D03*
Y1245000D02*
D03*
Y1230000D02*
D03*
Y1215000D02*
D03*
Y1200000D02*
D03*
Y1185000D02*
D03*
Y1170000D02*
D03*
Y1155000D02*
D03*
Y1140000D02*
D03*
Y1125000D02*
D03*
Y1110000D02*
D03*
Y1095000D02*
D03*
Y1080000D02*
D03*
Y1065000D02*
D03*
Y1050000D02*
D03*
Y1035000D02*
D03*
Y1020000D02*
D03*
X780000Y1485000D02*
D03*
Y1425000D02*
D03*
Y1410000D02*
D03*
Y1395000D02*
D03*
Y1380000D02*
D03*
Y1365000D02*
D03*
Y1350000D02*
D03*
Y1335000D02*
D03*
Y1320000D02*
D03*
Y1305000D02*
D03*
Y1290000D02*
D03*
Y1275000D02*
D03*
Y1260000D02*
D03*
Y1245000D02*
D03*
Y1230000D02*
D03*
Y1215000D02*
D03*
Y1200000D02*
D03*
Y1185000D02*
D03*
Y1170000D02*
D03*
Y1155000D02*
D03*
Y1140000D02*
D03*
Y1125000D02*
D03*
Y1110000D02*
D03*
Y1095000D02*
D03*
Y1080000D02*
D03*
Y1065000D02*
D03*
Y1050000D02*
D03*
Y1035000D02*
D03*
Y1020000D02*
D03*
Y1005000D02*
D03*
X765000Y1485000D02*
D03*
Y1425000D02*
D03*
Y1410000D02*
D03*
Y1395000D02*
D03*
Y1380000D02*
D03*
Y1365000D02*
D03*
Y1350000D02*
D03*
Y1335000D02*
D03*
Y1320000D02*
D03*
Y1305000D02*
D03*
Y1290000D02*
D03*
Y1275000D02*
D03*
Y1260000D02*
D03*
Y1245000D02*
D03*
Y1230000D02*
D03*
Y1215000D02*
D03*
Y1200000D02*
D03*
Y1185000D02*
D03*
Y1170000D02*
D03*
Y1155000D02*
D03*
Y1140000D02*
D03*
Y1125000D02*
D03*
Y1110000D02*
D03*
Y1095000D02*
D03*
Y1080000D02*
D03*
Y1065000D02*
D03*
Y1050000D02*
D03*
Y1035000D02*
D03*
Y1020000D02*
D03*
Y1005000D02*
D03*
Y990000D02*
D03*
X750000Y1485000D02*
D03*
Y1425000D02*
D03*
Y1410000D02*
D03*
Y1395000D02*
D03*
Y1380000D02*
D03*
Y1365000D02*
D03*
Y1350000D02*
D03*
Y1335000D02*
D03*
Y1320000D02*
D03*
Y1305000D02*
D03*
Y1290000D02*
D03*
Y1275000D02*
D03*
Y1260000D02*
D03*
Y1245000D02*
D03*
Y1230000D02*
D03*
Y1215000D02*
D03*
Y1200000D02*
D03*
Y1185000D02*
D03*
Y1170000D02*
D03*
Y1155000D02*
D03*
Y1140000D02*
D03*
Y1125000D02*
D03*
Y1110000D02*
D03*
Y1095000D02*
D03*
Y1080000D02*
D03*
Y1065000D02*
D03*
Y1050000D02*
D03*
Y1035000D02*
D03*
Y1020000D02*
D03*
Y1005000D02*
D03*
Y990000D02*
D03*
Y975000D02*
D03*
X735000Y1485000D02*
D03*
Y1425000D02*
D03*
Y1410000D02*
D03*
Y1395000D02*
D03*
Y1380000D02*
D03*
Y1365000D02*
D03*
Y1350000D02*
D03*
Y1335000D02*
D03*
Y1320000D02*
D03*
Y1305000D02*
D03*
Y1290000D02*
D03*
Y1275000D02*
D03*
Y1260000D02*
D03*
Y1245000D02*
D03*
Y1230000D02*
D03*
Y1215000D02*
D03*
Y1200000D02*
D03*
Y1185000D02*
D03*
Y1170000D02*
D03*
Y1155000D02*
D03*
Y1140000D02*
D03*
Y1125000D02*
D03*
Y1110000D02*
D03*
Y1095000D02*
D03*
Y1080000D02*
D03*
Y1065000D02*
D03*
Y1050000D02*
D03*
Y1035000D02*
D03*
Y1020000D02*
D03*
Y1005000D02*
D03*
Y990000D02*
D03*
Y975000D02*
D03*
Y960000D02*
D03*
X720000Y1485000D02*
D03*
Y1425000D02*
D03*
Y1410000D02*
D03*
Y1395000D02*
D03*
Y1380000D02*
D03*
Y1365000D02*
D03*
Y1350000D02*
D03*
Y1335000D02*
D03*
X705000Y1485000D02*
D03*
Y1410000D02*
D03*
Y1395000D02*
D03*
Y1380000D02*
D03*
Y1365000D02*
D03*
Y1350000D02*
D03*
Y1320000D02*
D03*
Y1305000D02*
D03*
Y1290000D02*
D03*
Y1275000D02*
D03*
Y1260000D02*
D03*
Y1245000D02*
D03*
Y1230000D02*
D03*
Y1215000D02*
D03*
Y1200000D02*
D03*
Y1185000D02*
D03*
Y1170000D02*
D03*
Y1080000D02*
D03*
Y1065000D02*
D03*
Y1050000D02*
D03*
Y1035000D02*
D03*
Y1020000D02*
D03*
Y1005000D02*
D03*
Y990000D02*
D03*
Y975000D02*
D03*
Y960000D02*
D03*
Y945000D02*
D03*
Y930000D02*
D03*
Y915000D02*
D03*
Y900000D02*
D03*
Y885000D02*
D03*
Y870000D02*
D03*
Y855000D02*
D03*
Y840000D02*
D03*
Y825000D02*
D03*
Y810000D02*
D03*
Y795000D02*
D03*
X690000Y1485000D02*
D03*
Y1395000D02*
D03*
Y1380000D02*
D03*
Y1365000D02*
D03*
Y1335000D02*
D03*
Y1320000D02*
D03*
Y1305000D02*
D03*
Y1290000D02*
D03*
Y1275000D02*
D03*
Y1260000D02*
D03*
Y1245000D02*
D03*
Y1230000D02*
D03*
Y1215000D02*
D03*
Y1065000D02*
D03*
Y1050000D02*
D03*
Y1035000D02*
D03*
Y1020000D02*
D03*
Y1005000D02*
D03*
Y990000D02*
D03*
Y975000D02*
D03*
Y960000D02*
D03*
Y945000D02*
D03*
Y930000D02*
D03*
Y915000D02*
D03*
Y900000D02*
D03*
Y885000D02*
D03*
Y870000D02*
D03*
Y555000D02*
D03*
X675000Y1485000D02*
D03*
Y1425000D02*
D03*
Y555000D02*
D03*
X660000Y1485000D02*
D03*
Y1185000D02*
D03*
Y1170000D02*
D03*
Y1080000D02*
D03*
Y1065000D02*
D03*
Y1050000D02*
D03*
Y1005000D02*
D03*
Y990000D02*
D03*
Y975000D02*
D03*
Y960000D02*
D03*
Y945000D02*
D03*
Y870000D02*
D03*
Y765000D02*
D03*
Y555000D02*
D03*
X645000Y1485000D02*
D03*
Y1410000D02*
D03*
Y1365000D02*
D03*
Y1350000D02*
D03*
Y1335000D02*
D03*
Y1320000D02*
D03*
Y1305000D02*
D03*
Y1290000D02*
D03*
Y1275000D02*
D03*
Y1260000D02*
D03*
Y1200000D02*
D03*
Y1170000D02*
D03*
Y1080000D02*
D03*
Y1065000D02*
D03*
Y1005000D02*
D03*
Y990000D02*
D03*
Y975000D02*
D03*
Y960000D02*
D03*
Y600000D02*
D03*
Y585000D02*
D03*
Y570000D02*
D03*
Y555000D02*
D03*
X630000Y1485000D02*
D03*
Y1425000D02*
D03*
Y1380000D02*
D03*
Y1365000D02*
D03*
Y1350000D02*
D03*
Y1335000D02*
D03*
Y1320000D02*
D03*
Y1305000D02*
D03*
Y1290000D02*
D03*
Y1275000D02*
D03*
Y1260000D02*
D03*
Y1245000D02*
D03*
Y630000D02*
D03*
Y615000D02*
D03*
Y600000D02*
D03*
Y585000D02*
D03*
Y570000D02*
D03*
Y555000D02*
D03*
X615000Y1485000D02*
D03*
X600000D02*
D03*
X585000D02*
D03*
X570000D02*
D03*
X555000D02*
D03*
X540000D02*
D03*
X525000D02*
D03*
X510000D02*
D03*
X495000D02*
D03*
X480000D02*
D03*
X465000D02*
D03*
X450000D02*
D03*
X435000D02*
D03*
X420000D02*
D03*
X405000D02*
D03*
Y1395000D02*
D03*
Y1380000D02*
D03*
Y1365000D02*
D03*
Y1350000D02*
D03*
Y1335000D02*
D03*
Y1320000D02*
D03*
Y1305000D02*
D03*
Y1290000D02*
D03*
Y1275000D02*
D03*
Y1260000D02*
D03*
Y1245000D02*
D03*
X390000Y1485000D02*
D03*
Y1395000D02*
D03*
Y1380000D02*
D03*
Y1365000D02*
D03*
Y1350000D02*
D03*
Y1335000D02*
D03*
Y1320000D02*
D03*
Y1305000D02*
D03*
Y1290000D02*
D03*
Y1275000D02*
D03*
Y1260000D02*
D03*
Y1245000D02*
D03*
Y1230000D02*
D03*
X375000Y1485000D02*
D03*
Y1380000D02*
D03*
Y1365000D02*
D03*
Y1350000D02*
D03*
Y1335000D02*
D03*
Y1320000D02*
D03*
Y1305000D02*
D03*
Y1290000D02*
D03*
Y1275000D02*
D03*
Y1260000D02*
D03*
Y1245000D02*
D03*
Y1230000D02*
D03*
Y1215000D02*
D03*
X360000Y1485000D02*
D03*
Y1365000D02*
D03*
Y1350000D02*
D03*
Y1335000D02*
D03*
Y1320000D02*
D03*
Y1305000D02*
D03*
Y1290000D02*
D03*
Y1275000D02*
D03*
Y1260000D02*
D03*
Y1245000D02*
D03*
Y1230000D02*
D03*
Y1215000D02*
D03*
Y1200000D02*
D03*
X345000Y1485000D02*
D03*
Y1395000D02*
D03*
Y1350000D02*
D03*
Y1335000D02*
D03*
Y1320000D02*
D03*
Y1305000D02*
D03*
Y1290000D02*
D03*
Y1275000D02*
D03*
Y1260000D02*
D03*
Y1245000D02*
D03*
Y1230000D02*
D03*
Y1215000D02*
D03*
Y1200000D02*
D03*
Y1185000D02*
D03*
X330000Y1485000D02*
D03*
Y1470000D02*
D03*
Y1380000D02*
D03*
Y1185000D02*
D03*
Y1170000D02*
D03*
X315000Y1485000D02*
D03*
Y1470000D02*
D03*
Y1455000D02*
D03*
Y1365000D02*
D03*
Y1335000D02*
D03*
Y1320000D02*
D03*
Y1305000D02*
D03*
Y1290000D02*
D03*
Y1275000D02*
D03*
Y1260000D02*
D03*
Y1230000D02*
D03*
Y1215000D02*
D03*
Y1170000D02*
D03*
Y1155000D02*
D03*
X300000Y1485000D02*
D03*
Y1470000D02*
D03*
Y1455000D02*
D03*
Y1440000D02*
D03*
Y1335000D02*
D03*
Y1320000D02*
D03*
Y1305000D02*
D03*
Y1290000D02*
D03*
Y1275000D02*
D03*
Y1215000D02*
D03*
Y1200000D02*
D03*
Y1155000D02*
D03*
Y1140000D02*
D03*
X285000Y1485000D02*
D03*
Y1470000D02*
D03*
Y1455000D02*
D03*
Y1440000D02*
D03*
Y1425000D02*
D03*
Y1320000D02*
D03*
Y1305000D02*
D03*
Y1290000D02*
D03*
Y1215000D02*
D03*
Y1200000D02*
D03*
Y1185000D02*
D03*
Y1140000D02*
D03*
Y1125000D02*
D03*
X270000Y1485000D02*
D03*
Y1470000D02*
D03*
Y1455000D02*
D03*
Y1440000D02*
D03*
Y1425000D02*
D03*
Y1410000D02*
D03*
Y1305000D02*
D03*
Y1290000D02*
D03*
Y1275000D02*
D03*
Y1215000D02*
D03*
Y1200000D02*
D03*
Y1185000D02*
D03*
Y1170000D02*
D03*
Y1125000D02*
D03*
Y1110000D02*
D03*
X255000Y1485000D02*
D03*
Y1470000D02*
D03*
Y1455000D02*
D03*
Y1440000D02*
D03*
Y1425000D02*
D03*
Y1410000D02*
D03*
Y1395000D02*
D03*
Y1290000D02*
D03*
Y1275000D02*
D03*
Y1260000D02*
D03*
Y1245000D02*
D03*
Y1230000D02*
D03*
Y1215000D02*
D03*
Y1200000D02*
D03*
Y1185000D02*
D03*
Y1170000D02*
D03*
Y1155000D02*
D03*
Y1110000D02*
D03*
Y1095000D02*
D03*
X240000Y1455000D02*
D03*
Y1440000D02*
D03*
Y1425000D02*
D03*
Y1410000D02*
D03*
Y1395000D02*
D03*
Y1275000D02*
D03*
Y1260000D02*
D03*
Y1245000D02*
D03*
Y1230000D02*
D03*
Y1215000D02*
D03*
Y1200000D02*
D03*
Y1185000D02*
D03*
Y1170000D02*
D03*
Y1155000D02*
D03*
Y1140000D02*
D03*
Y1095000D02*
D03*
Y1080000D02*
D03*
X225000Y1455000D02*
D03*
Y1440000D02*
D03*
Y1425000D02*
D03*
Y1410000D02*
D03*
Y1395000D02*
D03*
Y1365000D02*
D03*
Y1305000D02*
D03*
X210000Y1455000D02*
D03*
Y1440000D02*
D03*
Y1425000D02*
D03*
Y1410000D02*
D03*
Y1395000D02*
D03*
Y1365000D02*
D03*
Y1290000D02*
D03*
Y1260000D02*
D03*
Y1245000D02*
D03*
Y1230000D02*
D03*
Y1215000D02*
D03*
Y1200000D02*
D03*
Y1185000D02*
D03*
Y1170000D02*
D03*
Y1155000D02*
D03*
Y1140000D02*
D03*
Y1125000D02*
D03*
Y1110000D02*
D03*
Y1065000D02*
D03*
X195000Y1455000D02*
D03*
Y1440000D02*
D03*
Y1425000D02*
D03*
Y1410000D02*
D03*
Y1395000D02*
D03*
Y1380000D02*
D03*
Y1245000D02*
D03*
Y1230000D02*
D03*
Y1215000D02*
D03*
Y1200000D02*
D03*
Y1185000D02*
D03*
Y1170000D02*
D03*
Y1155000D02*
D03*
Y1140000D02*
D03*
Y1125000D02*
D03*
Y1110000D02*
D03*
Y1095000D02*
D03*
Y1050000D02*
D03*
X180000Y1470000D02*
D03*
Y1455000D02*
D03*
Y1440000D02*
D03*
Y1425000D02*
D03*
Y1410000D02*
D03*
Y1395000D02*
D03*
Y1380000D02*
D03*
Y1305000D02*
D03*
Y1230000D02*
D03*
Y1215000D02*
D03*
Y1200000D02*
D03*
Y1185000D02*
D03*
Y1170000D02*
D03*
Y1155000D02*
D03*
Y1140000D02*
D03*
Y1125000D02*
D03*
Y1110000D02*
D03*
Y1095000D02*
D03*
Y1080000D02*
D03*
X165000Y1470000D02*
D03*
Y1455000D02*
D03*
Y1440000D02*
D03*
Y1425000D02*
D03*
Y1410000D02*
D03*
Y1395000D02*
D03*
Y1380000D02*
D03*
Y1305000D02*
D03*
Y1245000D02*
D03*
Y1215000D02*
D03*
Y1200000D02*
D03*
Y1185000D02*
D03*
Y1170000D02*
D03*
Y1020000D02*
D03*
X150000Y1440000D02*
D03*
Y1425000D02*
D03*
Y1410000D02*
D03*
Y1305000D02*
D03*
Y1200000D02*
D03*
Y1110000D02*
D03*
Y1065000D02*
D03*
Y1005000D02*
D03*
X135000Y1440000D02*
D03*
Y1065000D02*
D03*
Y990000D02*
D03*
X120000Y1440000D02*
D03*
Y1380000D02*
D03*
Y1320000D02*
D03*
Y990000D02*
D03*
Y975000D02*
D03*
X105000Y1440000D02*
D03*
Y975000D02*
D03*
Y960000D02*
D03*
X90000Y1440000D02*
D03*
Y1425000D02*
D03*
Y1365000D02*
D03*
Y1350000D02*
D03*
Y1335000D02*
D03*
Y1320000D02*
D03*
Y1305000D02*
D03*
Y1290000D02*
D03*
Y1230000D02*
D03*
Y1215000D02*
D03*
Y990000D02*
D03*
Y960000D02*
D03*
Y945000D02*
D03*
Y930000D02*
D03*
Y915000D02*
D03*
Y900000D02*
D03*
Y885000D02*
D03*
Y870000D02*
D03*
Y855000D02*
D03*
Y840000D02*
D03*
Y825000D02*
D03*
Y810000D02*
D03*
Y795000D02*
D03*
X75000Y1485000D02*
D03*
Y1470000D02*
D03*
Y1455000D02*
D03*
Y1440000D02*
D03*
Y1425000D02*
D03*
Y1410000D02*
D03*
Y1350000D02*
D03*
Y1335000D02*
D03*
Y1320000D02*
D03*
Y1305000D02*
D03*
Y1290000D02*
D03*
Y1275000D02*
D03*
Y1170000D02*
D03*
Y1155000D02*
D03*
Y1140000D02*
D03*
Y1125000D02*
D03*
Y1110000D02*
D03*
Y1095000D02*
D03*
Y1080000D02*
D03*
Y1065000D02*
D03*
Y1050000D02*
D03*
Y1035000D02*
D03*
Y1020000D02*
D03*
Y1005000D02*
D03*
Y990000D02*
D03*
Y945000D02*
D03*
Y930000D02*
D03*
Y915000D02*
D03*
Y900000D02*
D03*
Y885000D02*
D03*
Y870000D02*
D03*
Y855000D02*
D03*
Y840000D02*
D03*
Y825000D02*
D03*
Y810000D02*
D03*
Y405000D02*
D03*
Y315000D02*
D03*
Y210000D02*
D03*
Y150000D02*
D03*
Y60000D02*
D03*
Y45000D02*
D03*
Y30000D02*
D03*
X60000Y1485000D02*
D03*
Y1470000D02*
D03*
Y1455000D02*
D03*
Y1440000D02*
D03*
Y1425000D02*
D03*
Y1410000D02*
D03*
Y1395000D02*
D03*
Y690000D02*
D03*
Y675000D02*
D03*
Y315000D02*
D03*
Y60000D02*
D03*
Y45000D02*
D03*
Y30000D02*
D03*
X45000Y1485000D02*
D03*
Y1470000D02*
D03*
Y1455000D02*
D03*
Y1440000D02*
D03*
Y1425000D02*
D03*
Y1410000D02*
D03*
Y1395000D02*
D03*
Y1380000D02*
D03*
Y555000D02*
D03*
Y435000D02*
D03*
Y420000D02*
D03*
Y405000D02*
D03*
Y390000D02*
D03*
Y315000D02*
D03*
Y75000D02*
D03*
Y60000D02*
D03*
Y45000D02*
D03*
Y30000D02*
D03*
X30000Y1485000D02*
D03*
Y1470000D02*
D03*
Y1455000D02*
D03*
Y1440000D02*
D03*
Y1425000D02*
D03*
Y1410000D02*
D03*
Y1395000D02*
D03*
Y1380000D02*
D03*
Y1365000D02*
D03*
Y1335000D02*
D03*
Y1305000D02*
D03*
Y1290000D02*
D03*
Y1275000D02*
D03*
Y1260000D02*
D03*
Y1245000D02*
D03*
Y1230000D02*
D03*
Y1215000D02*
D03*
Y1200000D02*
D03*
Y1185000D02*
D03*
Y1170000D02*
D03*
Y1155000D02*
D03*
Y1140000D02*
D03*
Y1125000D02*
D03*
Y1110000D02*
D03*
Y1095000D02*
D03*
Y1080000D02*
D03*
Y1065000D02*
D03*
Y1050000D02*
D03*
Y1035000D02*
D03*
Y1020000D02*
D03*
Y1005000D02*
D03*
Y990000D02*
D03*
Y975000D02*
D03*
Y960000D02*
D03*
Y945000D02*
D03*
Y930000D02*
D03*
Y915000D02*
D03*
Y900000D02*
D03*
Y885000D02*
D03*
Y870000D02*
D03*
Y855000D02*
D03*
Y840000D02*
D03*
Y825000D02*
D03*
Y810000D02*
D03*
Y795000D02*
D03*
Y780000D02*
D03*
Y765000D02*
D03*
Y750000D02*
D03*
Y735000D02*
D03*
Y720000D02*
D03*
Y705000D02*
D03*
Y690000D02*
D03*
Y675000D02*
D03*
Y660000D02*
D03*
Y645000D02*
D03*
Y570000D02*
D03*
Y555000D02*
D03*
Y435000D02*
D03*
Y420000D02*
D03*
Y405000D02*
D03*
Y390000D02*
D03*
Y315000D02*
D03*
Y300000D02*
D03*
Y285000D02*
D03*
Y135000D02*
D03*
Y90000D02*
D03*
Y75000D02*
D03*
Y60000D02*
D03*
Y45000D02*
D03*
Y30000D02*
D03*
X15000Y1485000D02*
D03*
Y1470000D02*
D03*
Y1455000D02*
D03*
Y1440000D02*
D03*
Y1425000D02*
D03*
Y1410000D02*
D03*
Y1395000D02*
D03*
Y1380000D02*
D03*
Y1365000D02*
D03*
Y1350000D02*
D03*
Y150000D02*
D03*
Y135000D02*
D03*
Y120000D02*
D03*
Y105000D02*
D03*
Y90000D02*
D03*
Y75000D02*
D03*
Y60000D02*
D03*
Y45000D02*
D03*
Y30000D02*
D03*
X66982Y710500D02*
D03*
X679500Y709929D02*
D03*
X662773Y719449D02*
D03*
X1285000Y705000D02*
D03*
Y685000D02*
D03*
Y695000D02*
D03*
X1300000D02*
D03*
X1869990Y665550D02*
D03*
X1905000Y690000D02*
D03*
X1900495Y710413D02*
D03*
X1905000Y723000D02*
D03*
Y730000D02*
D03*
X1902838Y703650D02*
D03*
X1870541Y741750D02*
D03*
X660000Y705000D02*
D03*
X670000D02*
D03*
X630541Y741750D02*
D03*
X630161Y665161D02*
D03*
X665000Y685000D02*
D03*
X158500Y1153500D02*
D03*
X95000Y755000D02*
D03*
X85000Y980000D02*
D03*
X94022Y677161D02*
D03*
X690000Y735000D02*
D03*
X714859Y742003D02*
D03*
X715096Y734007D02*
D03*
X686982Y710500D02*
D03*
X690000Y1200000D02*
D03*
X1310000D02*
D03*
X1930000Y840000D02*
D03*
X310000Y1250000D02*
D03*
X1930000Y1080000D02*
D03*
Y1200000D02*
D03*
X690000Y840000D02*
D03*
X35000Y580000D02*
D03*
X30000Y150000D02*
D03*
X1245500Y740000D02*
D03*
X1300000Y680000D02*
D03*
X1310000Y840000D02*
D03*
X1310000Y1080000D02*
D03*
X1515000Y1250000D02*
D03*
X690000Y1080000D02*
D03*
X19500Y175000D02*
D03*
X75000Y734139D02*
D03*
X1275000Y580500D02*
D03*
X1295000D02*
D03*
X675000Y580000D02*
D03*
X655000D02*
D03*
X715000Y680000D02*
D03*
X707000Y700000D02*
D03*
X1290000Y1389500D02*
D03*
X1305000Y1395000D02*
D03*
X1299085Y714085D02*
D03*
X1305000Y720000D02*
D03*
X695000Y1415000D02*
D03*
X1279741Y722481D02*
D03*
X665000Y1385000D02*
D03*
X25000Y165000D02*
D03*
X1349469Y950531D02*
D03*
X1334157Y741597D02*
D03*
X250000Y1380000D02*
D03*
X235000Y1335000D02*
D03*
Y1345000D02*
D03*
X250000Y1365000D02*
D03*
X725000Y950000D02*
D03*
X1280000Y1400000D02*
D03*
X60000Y665000D02*
D03*
Y700000D02*
D03*
X1290000Y720000D02*
D03*
X140000Y1005000D02*
D03*
X1304611Y1402389D02*
D03*
X690000Y1420000D02*
D03*
X665000Y735000D02*
D03*
X670500Y1400500D02*
D03*
X340000Y1355000D02*
D03*
D96*
X45000Y500000D02*
D03*
D97*
X365000Y485000D02*
D03*
Y1015000D02*
D03*
X985000Y485000D02*
D03*
Y1015000D02*
D03*
X1605000Y485000D02*
D03*
Y1015000D02*
D03*
D98*
X224500Y537500D02*
D03*
Y962500D02*
D03*
X505500Y537500D02*
D03*
Y962500D02*
D03*
X844500Y537500D02*
D03*
Y962500D02*
D03*
X1125500Y537500D02*
D03*
Y962500D02*
D03*
X1464500Y537500D02*
D03*
Y962500D02*
D03*
X1745500Y537500D02*
D03*
Y962500D02*
D03*
M02*
