G04*
G04 #@! TF.GenerationSoftware,Altium Limited,Altium Designer,24.2.2 (26)*
G04*
G04 Layer_Color=128*
%FSLAX44Y44*%
%MOMM*%
G71*
G04*
G04 #@! TF.SameCoordinates,29065ECF-91ED-40A2-A03B-0633D3A06584*
G04*
G04*
G04 #@! TF.FilePolarity,Positive*
G04*
G01*
G75*
%ADD17C,1.0000*%
%ADD19R,1.1500X1.3500*%
%ADD21R,1.3500X1.1500*%
G04:AMPARAMS|DCode=35|XSize=0.65mm|YSize=1.25mm|CornerRadius=0.1625mm|HoleSize=0mm|Usage=FLASHONLY|Rotation=0.000|XOffset=0mm|YOffset=0mm|HoleType=Round|Shape=RoundedRectangle|*
%AMROUNDEDRECTD35*
21,1,0.6500,0.9250,0,0,0.0*
21,1,0.3250,1.2500,0,0,0.0*
1,1,0.3250,0.1625,-0.4625*
1,1,0.3250,-0.1625,-0.4625*
1,1,0.3250,-0.1625,0.4625*
1,1,0.3250,0.1625,0.4625*
%
%ADD35ROUNDEDRECTD35*%
%ADD41R,0.9000X1.3000*%
%ADD42R,1.3000X0.9000*%
G04:AMPARAMS|DCode=98|XSize=3.3mm|YSize=2.1mm|CornerRadius=0.525mm|HoleSize=0mm|Usage=FLASHONLY|Rotation=180.000|XOffset=0mm|YOffset=0mm|HoleType=Round|Shape=RoundedRectangle|*
%AMROUNDEDRECTD98*
21,1,3.3000,1.0500,0,0,180.0*
21,1,2.2500,2.1000,0,0,180.0*
1,1,1.0500,-1.1250,0.5250*
1,1,1.0500,1.1250,0.5250*
1,1,1.0500,1.1250,-0.5250*
1,1,1.0500,-1.1250,-0.5250*
%
%ADD98ROUNDEDRECTD98*%
G04:AMPARAMS|DCode=99|XSize=1mm|YSize=2.1mm|CornerRadius=0.25mm|HoleSize=0mm|Usage=FLASHONLY|Rotation=180.000|XOffset=0mm|YOffset=0mm|HoleType=Round|Shape=RoundedRectangle|*
%AMROUNDEDRECTD99*
21,1,1.0000,1.6000,0,0,180.0*
21,1,0.5000,2.1000,0,0,180.0*
1,1,0.5000,-0.2500,0.8000*
1,1,0.5000,0.2500,0.8000*
1,1,0.5000,0.2500,-0.8000*
1,1,0.5000,-0.2500,-0.8000*
%
%ADD99ROUNDEDRECTD99*%
%ADD101R,2.0000X1.8500*%
%ADD102R,1.3000X2.2000*%
G04:AMPARAMS|DCode=103|XSize=1.2mm|YSize=1.1mm|CornerRadius=0.275mm|HoleSize=0mm|Usage=FLASHONLY|Rotation=90.000|XOffset=0mm|YOffset=0mm|HoleType=Round|Shape=RoundedRectangle|*
%AMROUNDEDRECTD103*
21,1,1.2000,0.5500,0,0,90.0*
21,1,0.6500,1.1000,0,0,90.0*
1,1,0.5500,0.2750,0.3250*
1,1,0.5500,0.2750,-0.3250*
1,1,0.5500,-0.2750,-0.3250*
1,1,0.5500,-0.2750,0.3250*
%
%ADD103ROUNDEDRECTD103*%
G04:AMPARAMS|DCode=104|XSize=1.3mm|YSize=1.1mm|CornerRadius=0.275mm|HoleSize=0mm|Usage=FLASHONLY|Rotation=270.000|XOffset=0mm|YOffset=0mm|HoleType=Round|Shape=RoundedRectangle|*
%AMROUNDEDRECTD104*
21,1,1.3000,0.5500,0,0,270.0*
21,1,0.7500,1.1000,0,0,270.0*
1,1,0.5500,-0.2750,-0.3750*
1,1,0.5500,-0.2750,0.3750*
1,1,0.5500,0.2750,0.3750*
1,1,0.5500,0.2750,-0.3750*
%
%ADD104ROUNDEDRECTD104*%
G36*
X533538Y135000D02*
X520000D01*
Y130000D01*
X480000D01*
Y135000D01*
X466460D01*
X466459Y135000D01*
X466716Y135864D01*
X467320Y137563D01*
X468010Y139228D01*
X468784Y140855D01*
X469213Y141648D01*
X469213D01*
X469210Y141650D01*
X530788D01*
Y141645D01*
X531216Y140853D01*
X531990Y139226D01*
X532678Y137561D01*
X533281Y135863D01*
X533538Y135000D01*
D01*
D02*
G37*
G36*
X466462Y115000D02*
X480000D01*
Y120000D01*
X520000D01*
Y115000D01*
X533540D01*
X533541Y115000D01*
X533283Y114136D01*
X532680Y112437D01*
X531990Y110772D01*
X531216Y109144D01*
X530787Y108352D01*
Y108352D01*
X530790Y108350D01*
X469212D01*
X469212Y108354D01*
X468783Y109147D01*
X468010Y110774D01*
X467321Y112439D01*
X466719Y114137D01*
X466462Y115000D01*
X466462Y115000D01*
D02*
G37*
G36*
X1033538Y485000D02*
X1020000D01*
Y480000D01*
X980000D01*
Y485000D01*
X966460D01*
X966459Y485000D01*
X966717Y485864D01*
X967320Y487563D01*
X968010Y489228D01*
X968784Y490855D01*
X969213Y491648D01*
X969213D01*
X969210Y491650D01*
X1030788D01*
Y491646D01*
X1031216Y490853D01*
X1031990Y489226D01*
X1032679Y487561D01*
X1033281Y485863D01*
X1033538Y485000D01*
D01*
D02*
G37*
G36*
X966462Y465000D02*
X980000D01*
Y470000D01*
X1020000D01*
Y465000D01*
X1033540D01*
X1033541Y465000D01*
X1033283Y464136D01*
X1032680Y462437D01*
X1031990Y460772D01*
X1031216Y459145D01*
X1030787Y458352D01*
Y458352D01*
X1030790Y458350D01*
X969212D01*
X969212Y458354D01*
X968783Y459147D01*
X968010Y460774D01*
X967321Y462439D01*
X966719Y464137D01*
X966462Y465000D01*
X966462Y465000D01*
D02*
G37*
D17*
X270000Y395000D02*
D03*
X230000D02*
D03*
X641250Y475000D02*
D03*
X585000Y415000D02*
D03*
X689236Y419581D02*
D03*
X830000Y370000D02*
D03*
D19*
X995750Y115000D02*
D03*
X1014250D02*
D03*
X415750Y225000D02*
D03*
X434250D02*
D03*
X1419250Y395000D02*
D03*
X1400750D02*
D03*
X80750Y185000D02*
D03*
X99250D02*
D03*
X1464250Y415000D02*
D03*
X1445750D02*
D03*
X35750Y185000D02*
D03*
X54250D02*
D03*
X1360750Y350004D02*
D03*
X1379250D02*
D03*
X139250Y250000D02*
D03*
X120750D02*
D03*
X1360750Y330000D02*
D03*
X1379250D02*
D03*
X139250Y275000D02*
D03*
X120750D02*
D03*
X1379250Y370000D02*
D03*
X1360750D02*
D03*
X120750Y230000D02*
D03*
X139250D02*
D03*
X1360750Y310005D02*
D03*
X1379250D02*
D03*
X139250Y295000D02*
D03*
X120750D02*
D03*
X1129500Y407709D02*
D03*
X1148000D02*
D03*
X1129500Y427709D02*
D03*
X1148000D02*
D03*
X1094500Y407709D02*
D03*
X1113000D02*
D03*
X1078000Y477709D02*
D03*
X1059500D02*
D03*
X1078000Y457709D02*
D03*
X1059500D02*
D03*
X1112250Y477709D02*
D03*
X1093750D02*
D03*
D21*
X647935Y422065D02*
D03*
Y440565D02*
D03*
X667935Y422065D02*
D03*
Y440565D02*
D03*
X395000Y204250D02*
D03*
Y185750D02*
D03*
X405000Y135750D02*
D03*
Y154250D02*
D03*
X425003Y135751D02*
D03*
Y154250D02*
D03*
X445000Y135750D02*
D03*
Y154250D02*
D03*
X1400000Y435750D02*
D03*
Y454250D02*
D03*
X100000Y164250D02*
D03*
Y145750D02*
D03*
X1465000Y454250D02*
D03*
Y435750D02*
D03*
X35000Y145750D02*
D03*
Y164250D02*
D03*
X1420000Y454250D02*
D03*
Y435750D02*
D03*
X80000Y145750D02*
D03*
Y164250D02*
D03*
X1445000Y454250D02*
D03*
Y435750D02*
D03*
X55000Y145750D02*
D03*
Y164250D02*
D03*
D35*
X425000Y175750D02*
D03*
X434500Y204250D02*
D03*
X415500D02*
D03*
X1138750Y448459D02*
D03*
X1148250Y476959D02*
D03*
X1129250D02*
D03*
X1068750Y436959D02*
D03*
X1059250Y408459D02*
D03*
X1078250D02*
D03*
X630000Y130750D02*
D03*
X639500Y159250D02*
D03*
X620500D02*
D03*
D41*
X995500Y135000D02*
D03*
X1014500D02*
D03*
X1400500Y415000D02*
D03*
X1419500D02*
D03*
X99500Y205000D02*
D03*
X80500D02*
D03*
X701500Y315000D02*
D03*
X678500D02*
D03*
X728500Y330000D02*
D03*
X751500D02*
D03*
X749501Y349983D02*
D03*
X730501D02*
D03*
X749500Y370000D02*
D03*
X730500D02*
D03*
X666500Y195000D02*
D03*
X643500D02*
D03*
X678500Y195000D02*
D03*
X701500D02*
D03*
X578500Y435000D02*
D03*
X601500D02*
D03*
X580500Y455000D02*
D03*
X599500D02*
D03*
D42*
X1400000Y369000D02*
D03*
Y350000D02*
D03*
X100000Y230500D02*
D03*
Y249500D02*
D03*
X725000Y208500D02*
D03*
Y231500D02*
D03*
X764996Y175499D02*
D03*
Y194499D02*
D03*
X745000Y175500D02*
D03*
Y194500D02*
D03*
X720000Y278500D02*
D03*
Y301500D02*
D03*
X700000Y299500D02*
D03*
Y280500D02*
D03*
X680000Y299500D02*
D03*
Y280500D02*
D03*
X780000Y351500D02*
D03*
Y328500D02*
D03*
X800000Y330500D02*
D03*
Y349500D02*
D03*
X820000Y330500D02*
D03*
Y349500D02*
D03*
X750000Y409500D02*
D03*
Y390500D02*
D03*
X730000Y409500D02*
D03*
Y390500D02*
D03*
X780000Y301500D02*
D03*
Y278500D02*
D03*
X819983Y280500D02*
D03*
Y299500D02*
D03*
X800000Y280500D02*
D03*
Y299500D02*
D03*
X570000Y373500D02*
D03*
Y396500D02*
D03*
X475000Y374500D02*
D03*
Y355500D02*
D03*
X590000Y394500D02*
D03*
Y375500D02*
D03*
X695000Y229500D02*
D03*
Y210500D02*
D03*
X670000Y229500D02*
D03*
Y210500D02*
D03*
X475000Y458500D02*
D03*
Y481500D02*
D03*
D98*
X525000Y333500D02*
D03*
D99*
X548000Y396500D02*
D03*
X525000D02*
D03*
X502000D02*
D03*
D101*
X845000Y325750D02*
D03*
Y354250D02*
D03*
D102*
X656683Y173933D02*
D03*
X713250Y121000D02*
D03*
X501683Y476433D02*
D03*
X558250Y423500D02*
D03*
D103*
X1093250Y425959D02*
D03*
X1114250D02*
D03*
X1114250Y459459D02*
D03*
X1093250D02*
D03*
D104*
X617500Y475000D02*
D03*
X582500D02*
D03*
M02*
