G04*
G04 #@! TF.GenerationSoftware,Altium Limited,Altium Designer,24.2.2 (26)*
G04*
G04 Layer_Physical_Order=2*
G04 Layer_Color=36540*
%FSLAX44Y44*%
%MOMM*%
G71*
G04*
G04 #@! TF.SameCoordinates,29065ECF-91ED-40A2-A03B-0633D3A06584*
G04*
G04*
G04 #@! TF.FilePolarity,Positive*
G04*
G01*
G75*
%ADD17C,1.0000*%
%ADD85C,1.6500*%
G04:AMPARAMS|DCode=86|XSize=1.65mm|YSize=1.65mm|CornerRadius=0.4125mm|HoleSize=0mm|Usage=FLASHONLY|Rotation=180.000|XOffset=0mm|YOffset=0mm|HoleType=Round|Shape=RoundedRectangle|*
%AMROUNDEDRECTD86*
21,1,1.6500,0.8250,0,0,180.0*
21,1,0.8250,1.6500,0,0,180.0*
1,1,0.8250,-0.4125,0.4125*
1,1,0.8250,0.4125,0.4125*
1,1,0.8250,0.4125,-0.4125*
1,1,0.8250,-0.4125,-0.4125*
%
%ADD86ROUNDEDRECTD86*%
%ADD87C,0.7000*%
%ADD88C,1.6000*%
G04:AMPARAMS|DCode=89|XSize=1.6mm|YSize=1.6mm|CornerRadius=0.4mm|HoleSize=0mm|Usage=FLASHONLY|Rotation=0.000|XOffset=0mm|YOffset=0mm|HoleType=Round|Shape=RoundedRectangle|*
%AMROUNDEDRECTD89*
21,1,1.6000,0.8000,0,0,0.0*
21,1,0.8000,1.6000,0,0,0.0*
1,1,0.8000,0.4000,-0.4000*
1,1,0.8000,-0.4000,-0.4000*
1,1,0.8000,-0.4000,0.4000*
1,1,0.8000,0.4000,0.4000*
%
%ADD89ROUNDEDRECTD89*%
%ADD90O,1.5000X1.2500*%
%ADD91C,2.0000*%
G04:AMPARAMS|DCode=92|XSize=2mm|YSize=2mm|CornerRadius=0.5mm|HoleSize=0mm|Usage=FLASHONLY|Rotation=90.000|XOffset=0mm|YOffset=0mm|HoleType=Round|Shape=RoundedRectangle|*
%AMROUNDEDRECTD92*
21,1,2.0000,1.0000,0,0,90.0*
21,1,1.0000,2.0000,0,0,90.0*
1,1,1.0000,0.5000,0.5000*
1,1,1.0000,0.5000,-0.5000*
1,1,1.0000,-0.5000,-0.5000*
1,1,1.0000,-0.5000,0.5000*
%
%ADD92ROUNDEDRECTD92*%
%ADD93C,1.8750*%
%ADD94C,0.6750*%
%ADD95C,1.3000*%
%ADD96C,0.5000*%
G36*
X1500000Y100000D02*
X0D01*
Y500000D01*
X1500000D01*
Y100000D01*
D02*
G37*
%LPC*%
G36*
X328820Y495990D02*
X328670D01*
Y486470D01*
X338190D01*
Y486620D01*
X337455Y489365D01*
X336034Y491825D01*
X334025Y493834D01*
X331565Y495255D01*
X328820Y495990D01*
D02*
G37*
G36*
X24021D02*
X23870D01*
Y486470D01*
X33390D01*
Y486620D01*
X32655Y489365D01*
X31234Y491825D01*
X29225Y493834D01*
X26765Y495255D01*
X24021Y495990D01*
D02*
G37*
G36*
X21330D02*
X21179D01*
X18435Y495255D01*
X15975Y493834D01*
X13966Y491825D01*
X12545Y489365D01*
X11810Y486620D01*
Y486470D01*
X21330D01*
Y495990D01*
D02*
G37*
G36*
X326130D02*
X325979D01*
X323235Y495255D01*
X320775Y493834D01*
X318766Y491825D01*
X317345Y489365D01*
X316610Y486620D01*
Y486470D01*
X326130D01*
Y495990D01*
D02*
G37*
G36*
X751018Y492685D02*
X748912D01*
X746877Y492140D01*
X745053Y491087D01*
X743563Y489597D01*
X742510Y487773D01*
X741965Y485738D01*
Y483632D01*
X742189Y482797D01*
X741152Y481760D01*
X739080Y482315D01*
X735920D01*
X732868Y481497D01*
X730132Y479917D01*
X727898Y477683D01*
X726318Y474947D01*
X725657Y472482D01*
X724343D01*
X723682Y474947D01*
X722102Y477683D01*
X719868Y479917D01*
X717132Y481497D01*
X714080Y482315D01*
X710920D01*
X707868Y481497D01*
X705132Y479917D01*
X702898Y477683D01*
X701318Y474947D01*
X700500Y471895D01*
Y468735D01*
X701318Y465683D01*
X702898Y462947D01*
X705132Y460713D01*
X707868Y459133D01*
X710333Y458472D01*
Y457158D01*
X707868Y456497D01*
X705132Y454917D01*
X702898Y452683D01*
X701318Y449947D01*
X700500Y446895D01*
Y443735D01*
X701318Y440683D01*
X702898Y437947D01*
X705132Y435713D01*
X707868Y434133D01*
X710920Y433315D01*
X714080D01*
X717132Y434133D01*
X719868Y435713D01*
X722102Y437947D01*
X723682Y440683D01*
X724343Y443148D01*
X725657D01*
X726318Y440683D01*
X727898Y437947D01*
X730132Y435713D01*
X732868Y434133D01*
X735920Y433315D01*
X739080D01*
X742132Y434133D01*
X744868Y435713D01*
X747102Y437947D01*
X748682Y440683D01*
X749063Y442104D01*
X750378D01*
X750815Y440475D01*
X752466Y437615D01*
X754800Y435280D01*
X757660Y433630D01*
X760849Y432775D01*
X761230D01*
Y445315D01*
X763770D01*
Y432775D01*
X764151D01*
X767340Y433630D01*
X770200Y435280D01*
X772534Y437615D01*
X774185Y440475D01*
X774622Y442104D01*
X775937D01*
X776318Y440683D01*
X777898Y437947D01*
X780132Y435713D01*
X782868Y434133D01*
X785920Y433315D01*
X789080D01*
X792132Y434133D01*
X794868Y435713D01*
X797102Y437947D01*
X798682Y440683D01*
X799500Y443735D01*
Y446895D01*
X798682Y449947D01*
X797102Y452683D01*
X794868Y454917D01*
X792132Y456497D01*
X790313Y456985D01*
X790480Y458255D01*
X792500D01*
X794327Y458495D01*
X796030Y459201D01*
X797493Y460322D01*
X798615Y461785D01*
X799320Y463488D01*
X799560Y465315D01*
Y475315D01*
X799320Y477142D01*
X798615Y478845D01*
X797493Y480308D01*
X796030Y481429D01*
X794327Y482135D01*
X792500Y482375D01*
X782500D01*
X780673Y482135D01*
X778970Y481429D01*
X777507Y480308D01*
X776385Y478845D01*
X775680Y477142D01*
X775440Y475315D01*
Y473295D01*
X774170Y473128D01*
X773682Y474947D01*
X772102Y477683D01*
X769868Y479917D01*
X767132Y481497D01*
X764080Y482315D01*
X760920D01*
X758773Y481740D01*
X757736Y482777D01*
X757965Y483632D01*
Y485738D01*
X757420Y487773D01*
X756367Y489597D01*
X754877Y491087D01*
X753053Y492140D01*
X751018Y492685D01*
D02*
G37*
G36*
X1028970Y483863D02*
Y476270D01*
X1037649D01*
X1037514Y477295D01*
X1036628Y479433D01*
X1035219Y481269D01*
X1033383Y482678D01*
X1031245Y483564D01*
X1028970Y483863D01*
D02*
G37*
G36*
X1026430D02*
X1024155Y483564D01*
X1022017Y482678D01*
X1020181Y481269D01*
X1018772Y479433D01*
X1017886Y477295D01*
X1017751Y476270D01*
X1026430D01*
Y483863D01*
D02*
G37*
G36*
X973570D02*
Y476270D01*
X982249D01*
X982114Y477295D01*
X981228Y479433D01*
X979819Y481269D01*
X977983Y482678D01*
X975845Y483564D01*
X973570Y483863D01*
D02*
G37*
G36*
X971030D02*
X968755Y483564D01*
X966617Y482678D01*
X964781Y481269D01*
X963372Y479433D01*
X962486Y477295D01*
X962351Y476270D01*
X971030D01*
Y483863D01*
D02*
G37*
G36*
X1330895Y484501D02*
X1329105D01*
X1327451Y483815D01*
X1326185Y482550D01*
X1325500Y480896D01*
Y479105D01*
X1326185Y477452D01*
X1327451Y476186D01*
X1329105Y475501D01*
X1330895D01*
X1332549Y476186D01*
X1333815Y477452D01*
X1334500Y479105D01*
Y480896D01*
X1333815Y482550D01*
X1332549Y483815D01*
X1330895Y484501D01*
D02*
G37*
G36*
X1100895Y484500D02*
X1099105D01*
X1097451Y483815D01*
X1096185Y482549D01*
X1095500Y480895D01*
Y479105D01*
X1096185Y477451D01*
X1097451Y476185D01*
X1099105Y475500D01*
X1100895D01*
X1102549Y476185D01*
X1103815Y477451D01*
X1104500Y479105D01*
Y480895D01*
X1103815Y482549D01*
X1102549Y483815D01*
X1100895Y484500D01*
D02*
G37*
G36*
X303349Y495450D02*
X300651D01*
X298044Y494752D01*
X295706Y493402D01*
X293798Y491494D01*
X292449Y489156D01*
X291750Y486549D01*
Y483851D01*
X292449Y481244D01*
X293798Y478906D01*
X295706Y476998D01*
X298044Y475648D01*
X300651Y474950D01*
X303349D01*
X305956Y475648D01*
X308294Y476998D01*
X310202Y478906D01*
X311551Y481244D01*
X312250Y483851D01*
Y486549D01*
X311551Y489156D01*
X310202Y491494D01*
X308294Y493402D01*
X305956Y494752D01*
X303349Y495450D01*
D02*
G37*
G36*
X277949D02*
X275251D01*
X272644Y494752D01*
X270306Y493402D01*
X268398Y491494D01*
X267048Y489156D01*
X266350Y486549D01*
Y483851D01*
X267048Y481244D01*
X268398Y478906D01*
X270306Y476998D01*
X272644Y475648D01*
X275251Y474950D01*
X277949D01*
X280556Y475648D01*
X282894Y476998D01*
X284802Y478906D01*
X286152Y481244D01*
X286850Y483851D01*
Y486549D01*
X286152Y489156D01*
X284802Y491494D01*
X282894Y493402D01*
X280556Y494752D01*
X277949Y495450D01*
D02*
G37*
G36*
X252549D02*
X249851D01*
X247244Y494752D01*
X244906Y493402D01*
X242998Y491494D01*
X241649Y489156D01*
X240950Y486549D01*
Y483851D01*
X241649Y481244D01*
X242998Y478906D01*
X244906Y476998D01*
X247244Y475648D01*
X249851Y474950D01*
X252549D01*
X255156Y475648D01*
X257494Y476998D01*
X259402Y478906D01*
X260751Y481244D01*
X261450Y483851D01*
Y486549D01*
X260751Y489156D01*
X259402Y491494D01*
X257494Y493402D01*
X255156Y494752D01*
X252549Y495450D01*
D02*
G37*
G36*
X227149D02*
X224451D01*
X221844Y494752D01*
X219506Y493402D01*
X217598Y491494D01*
X216248Y489156D01*
X215550Y486549D01*
Y483851D01*
X216248Y481244D01*
X217598Y478906D01*
X219506Y476998D01*
X221844Y475648D01*
X224451Y474950D01*
X227149D01*
X229756Y475648D01*
X232094Y476998D01*
X234002Y478906D01*
X235352Y481244D01*
X236050Y483851D01*
Y486549D01*
X235352Y489156D01*
X234002Y491494D01*
X232094Y493402D01*
X229756Y494752D01*
X227149Y495450D01*
D02*
G37*
G36*
X201749D02*
X199051D01*
X196444Y494752D01*
X194106Y493402D01*
X192198Y491494D01*
X190849Y489156D01*
X190150Y486549D01*
Y483851D01*
X190849Y481244D01*
X192198Y478906D01*
X194106Y476998D01*
X196444Y475648D01*
X199051Y474950D01*
X201749D01*
X204356Y475648D01*
X206694Y476998D01*
X208602Y478906D01*
X209951Y481244D01*
X210650Y483851D01*
Y486549D01*
X209951Y489156D01*
X208602Y491494D01*
X206694Y493402D01*
X204356Y494752D01*
X201749Y495450D01*
D02*
G37*
G36*
X176349D02*
X173651D01*
X171044Y494752D01*
X168706Y493402D01*
X166798Y491494D01*
X165448Y489156D01*
X164750Y486549D01*
Y483851D01*
X165448Y481244D01*
X166798Y478906D01*
X168706Y476998D01*
X171044Y475648D01*
X173651Y474950D01*
X176349D01*
X178956Y475648D01*
X181294Y476998D01*
X183202Y478906D01*
X184552Y481244D01*
X185250Y483851D01*
Y486549D01*
X184552Y489156D01*
X183202Y491494D01*
X181294Y493402D01*
X178956Y494752D01*
X176349Y495450D01*
D02*
G37*
G36*
X150949D02*
X148251D01*
X145644Y494752D01*
X143306Y493402D01*
X141398Y491494D01*
X140049Y489156D01*
X139350Y486549D01*
Y483851D01*
X140049Y481244D01*
X141398Y478906D01*
X143306Y476998D01*
X145644Y475648D01*
X148251Y474950D01*
X150949D01*
X153556Y475648D01*
X155894Y476998D01*
X157802Y478906D01*
X159151Y481244D01*
X159850Y483851D01*
Y486549D01*
X159151Y489156D01*
X157802Y491494D01*
X155894Y493402D01*
X153556Y494752D01*
X150949Y495450D01*
D02*
G37*
G36*
X125549D02*
X122851D01*
X120244Y494752D01*
X117906Y493402D01*
X115998Y491494D01*
X114649Y489156D01*
X113950Y486549D01*
Y483851D01*
X114649Y481244D01*
X115998Y478906D01*
X117906Y476998D01*
X120244Y475648D01*
X122851Y474950D01*
X125549D01*
X128156Y475648D01*
X130494Y476998D01*
X132402Y478906D01*
X133751Y481244D01*
X134450Y483851D01*
Y486549D01*
X133751Y489156D01*
X132402Y491494D01*
X130494Y493402D01*
X128156Y494752D01*
X125549Y495450D01*
D02*
G37*
G36*
X100149D02*
X97451D01*
X94844Y494752D01*
X92506Y493402D01*
X90598Y491494D01*
X89249Y489156D01*
X88550Y486549D01*
Y483851D01*
X89249Y481244D01*
X90598Y478906D01*
X92506Y476998D01*
X94844Y475648D01*
X97451Y474950D01*
X100149D01*
X102756Y475648D01*
X105094Y476998D01*
X107002Y478906D01*
X108351Y481244D01*
X109050Y483851D01*
Y486549D01*
X108351Y489156D01*
X107002Y491494D01*
X105094Y493402D01*
X102756Y494752D01*
X100149Y495450D01*
D02*
G37*
G36*
X74749D02*
X72051D01*
X69444Y494752D01*
X67106Y493402D01*
X65198Y491494D01*
X63849Y489156D01*
X63150Y486549D01*
Y483851D01*
X63849Y481244D01*
X65198Y478906D01*
X67106Y476998D01*
X69444Y475648D01*
X72051Y474950D01*
X74749D01*
X77356Y475648D01*
X79694Y476998D01*
X81602Y478906D01*
X82951Y481244D01*
X83650Y483851D01*
Y486549D01*
X82951Y489156D01*
X81602Y491494D01*
X79694Y493402D01*
X77356Y494752D01*
X74749Y495450D01*
D02*
G37*
G36*
X49349D02*
X46651D01*
X44044Y494752D01*
X41706Y493402D01*
X39798Y491494D01*
X38449Y489156D01*
X37750Y486549D01*
Y483851D01*
X38449Y481244D01*
X39798Y478906D01*
X41706Y476998D01*
X44044Y475648D01*
X46651Y474950D01*
X49349D01*
X51956Y475648D01*
X54294Y476998D01*
X56202Y478906D01*
X57551Y481244D01*
X58250Y483851D01*
Y486549D01*
X57551Y489156D01*
X56202Y491494D01*
X54294Y493402D01*
X51956Y494752D01*
X49349Y495450D01*
D02*
G37*
G36*
X338190Y483930D02*
X328670D01*
Y474410D01*
X328820D01*
X331565Y475145D01*
X334025Y476566D01*
X336034Y478575D01*
X337455Y481035D01*
X338190Y483779D01*
Y483930D01*
D02*
G37*
G36*
X326130D02*
X316610D01*
Y483779D01*
X317345Y481035D01*
X318766Y478575D01*
X320775Y476566D01*
X323235Y475145D01*
X325979Y474410D01*
X326130D01*
Y483930D01*
D02*
G37*
G36*
X33390D02*
X23870D01*
Y474410D01*
X24021D01*
X26765Y475145D01*
X29225Y476566D01*
X31234Y478575D01*
X32655Y481035D01*
X33390Y483779D01*
Y483930D01*
D02*
G37*
G36*
X21330D02*
X11810D01*
Y483779D01*
X12545Y481035D01*
X13966Y478575D01*
X15975Y476566D01*
X18435Y475145D01*
X21179Y474410D01*
X21330D01*
Y483930D01*
D02*
G37*
G36*
X670922Y487000D02*
X669079D01*
X667298Y486523D01*
X665702Y485601D01*
X664399Y484298D01*
X663477Y482702D01*
X663000Y480922D01*
Y479078D01*
X663477Y477298D01*
X664399Y475702D01*
X665702Y474399D01*
X667298Y473477D01*
X669079Y473000D01*
X670922D01*
X672702Y473477D01*
X674298Y474399D01*
X675602Y475702D01*
X676523Y477298D01*
X677000Y479078D01*
Y480922D01*
X676523Y482702D01*
X675602Y484298D01*
X674298Y485601D01*
X672702Y486523D01*
X670922Y487000D01*
D02*
G37*
G36*
X460922D02*
X459078D01*
X457298Y486523D01*
X455702Y485601D01*
X454399Y484298D01*
X453477Y482702D01*
X453000Y480922D01*
Y479078D01*
X453477Y477298D01*
X454399Y475702D01*
X455702Y474399D01*
X457298Y473477D01*
X459078Y473000D01*
X460922D01*
X462702Y473477D01*
X464298Y474399D01*
X465602Y475702D01*
X466523Y477298D01*
X467000Y479078D01*
Y480922D01*
X466523Y482702D01*
X465602Y484298D01*
X464298Y485601D01*
X462702Y486523D01*
X460922Y487000D01*
D02*
G37*
G36*
X1221270Y474929D02*
Y471270D01*
X1224929D01*
X1224273Y472855D01*
X1222855Y474273D01*
X1221270Y474929D01*
D02*
G37*
G36*
X1218730D02*
X1217145Y474273D01*
X1215727Y472855D01*
X1215071Y471270D01*
X1218730D01*
Y474929D01*
D02*
G37*
G36*
X1037649Y473730D02*
X1028970D01*
Y466137D01*
X1031245Y466436D01*
X1033383Y467322D01*
X1035219Y468731D01*
X1036628Y470567D01*
X1037514Y472705D01*
X1037649Y473730D01*
D02*
G37*
G36*
X1026430D02*
X1017751D01*
X1017886Y472705D01*
X1018772Y470567D01*
X1020181Y468731D01*
X1022017Y467322D01*
X1024155Y466436D01*
X1026430Y466137D01*
Y473730D01*
D02*
G37*
G36*
X982249D02*
X973570D01*
Y466137D01*
X975845Y466436D01*
X977983Y467322D01*
X979819Y468731D01*
X981228Y470567D01*
X982114Y472705D01*
X982249Y473730D01*
D02*
G37*
G36*
X971030D02*
X962351D01*
X962486Y472705D01*
X963372Y470567D01*
X964781Y468731D01*
X966617Y467322D01*
X968755Y466436D01*
X971030Y466137D01*
Y473730D01*
D02*
G37*
G36*
X1224929Y468730D02*
X1221270D01*
Y465071D01*
X1222855Y465727D01*
X1224273Y467145D01*
X1224929Y468730D01*
D02*
G37*
G36*
X1218730D02*
X1215071D01*
X1215727Y467145D01*
X1217145Y465727D01*
X1218730Y465071D01*
Y468730D01*
D02*
G37*
G36*
X331525Y470648D02*
X328670D01*
Y461070D01*
X338247D01*
Y463925D01*
X338018Y465665D01*
X337347Y467286D01*
X336278Y468679D01*
X334886Y469747D01*
X333265Y470418D01*
X331525Y470648D01*
D02*
G37*
G36*
X24021Y470590D02*
X23870D01*
Y461070D01*
X33390D01*
Y461221D01*
X32655Y463965D01*
X31234Y466425D01*
X29225Y468434D01*
X26765Y469855D01*
X24021Y470590D01*
D02*
G37*
G36*
X21330D02*
X21179D01*
X18435Y469855D01*
X15975Y468434D01*
X13966Y466425D01*
X12545Y463965D01*
X11810Y461221D01*
Y461070D01*
X21330D01*
Y470590D01*
D02*
G37*
G36*
X326130Y470648D02*
X323275D01*
X321535Y470418D01*
X319914Y469747D01*
X318521Y468679D01*
X317453Y467286D01*
X316782Y465665D01*
X316553Y463925D01*
Y461070D01*
X326130D01*
Y470648D01*
D02*
G37*
G36*
X931270Y459930D02*
Y456270D01*
X934929D01*
X934272Y457855D01*
X932855Y459273D01*
X931270Y459930D01*
D02*
G37*
G36*
X928730D02*
X927145Y459273D01*
X925727Y457855D01*
X925070Y456270D01*
X928730D01*
Y459930D01*
D02*
G37*
G36*
X856270Y459929D02*
Y456270D01*
X859929D01*
X859273Y457855D01*
X857855Y459273D01*
X856270Y459929D01*
D02*
G37*
G36*
X853730D02*
X852145Y459273D01*
X850727Y457855D01*
X850071Y456270D01*
X853730D01*
Y459929D01*
D02*
G37*
G36*
X656270Y454929D02*
Y451270D01*
X659929D01*
X659273Y452855D01*
X657855Y454273D01*
X656270Y454929D01*
D02*
G37*
G36*
X653730D02*
X652145Y454273D01*
X650727Y452855D01*
X650071Y451270D01*
X653730D01*
Y454929D01*
D02*
G37*
G36*
X934929Y453730D02*
X931270D01*
Y450071D01*
X932855Y450728D01*
X934272Y452145D01*
X934929Y453730D01*
D02*
G37*
G36*
X928730D02*
X925070D01*
X925727Y452145D01*
X927145Y450728D01*
X928730Y450071D01*
Y453730D01*
D02*
G37*
G36*
X859929Y453730D02*
X856270D01*
Y450071D01*
X857855Y450727D01*
X859273Y452145D01*
X859929Y453730D01*
D02*
G37*
G36*
X853730D02*
X850071D01*
X850727Y452145D01*
X852145Y450727D01*
X853730Y450071D01*
Y453730D01*
D02*
G37*
G36*
X1465895Y458750D02*
X1464105D01*
X1462451Y458065D01*
X1461185Y456799D01*
X1460500Y455145D01*
Y453355D01*
X1461185Y451701D01*
X1462451Y450435D01*
X1464105Y449750D01*
X1465895D01*
X1467549Y450435D01*
X1468815Y451701D01*
X1469500Y453355D01*
Y455145D01*
X1468815Y456799D01*
X1467549Y458065D01*
X1465895Y458750D01*
D02*
G37*
G36*
X1420895Y458750D02*
X1419105D01*
X1417451Y458064D01*
X1416185Y456799D01*
X1415500Y455145D01*
Y453354D01*
X1416185Y451701D01*
X1417451Y450435D01*
X1419105Y449749D01*
X1420895D01*
X1422549Y450435D01*
X1423815Y451701D01*
X1424500Y453354D01*
Y455145D01*
X1423815Y456799D01*
X1422549Y458064D01*
X1420895Y458750D01*
D02*
G37*
G36*
X303349Y470050D02*
X300651D01*
X298044Y469352D01*
X295706Y468002D01*
X293798Y466094D01*
X292449Y463756D01*
X291750Y461149D01*
Y458451D01*
X292449Y455844D01*
X293798Y453506D01*
X295706Y451598D01*
X298044Y450248D01*
X300651Y449550D01*
X303349D01*
X305956Y450248D01*
X308294Y451598D01*
X310202Y453506D01*
X311551Y455844D01*
X312250Y458451D01*
Y461149D01*
X311551Y463756D01*
X310202Y466094D01*
X308294Y468002D01*
X305956Y469352D01*
X303349Y470050D01*
D02*
G37*
G36*
X277949D02*
X275251D01*
X272644Y469352D01*
X270306Y468002D01*
X268398Y466094D01*
X267048Y463756D01*
X266350Y461149D01*
Y458451D01*
X267048Y455844D01*
X268398Y453506D01*
X270306Y451598D01*
X272644Y450248D01*
X275251Y449550D01*
X277949D01*
X280556Y450248D01*
X282894Y451598D01*
X284802Y453506D01*
X286152Y455844D01*
X286850Y458451D01*
Y461149D01*
X286152Y463756D01*
X284802Y466094D01*
X282894Y468002D01*
X280556Y469352D01*
X277949Y470050D01*
D02*
G37*
G36*
X252549D02*
X249851D01*
X247244Y469352D01*
X244906Y468002D01*
X242998Y466094D01*
X241649Y463756D01*
X240950Y461149D01*
Y458451D01*
X241649Y455844D01*
X242998Y453506D01*
X244906Y451598D01*
X247244Y450248D01*
X249851Y449550D01*
X252549D01*
X255156Y450248D01*
X257494Y451598D01*
X259402Y453506D01*
X260751Y455844D01*
X261450Y458451D01*
Y461149D01*
X260751Y463756D01*
X259402Y466094D01*
X257494Y468002D01*
X255156Y469352D01*
X252549Y470050D01*
D02*
G37*
G36*
X227149D02*
X224451D01*
X221844Y469352D01*
X219506Y468002D01*
X217598Y466094D01*
X216248Y463756D01*
X215550Y461149D01*
Y458451D01*
X216248Y455844D01*
X217598Y453506D01*
X219506Y451598D01*
X221844Y450248D01*
X224451Y449550D01*
X227149D01*
X229756Y450248D01*
X232094Y451598D01*
X234002Y453506D01*
X235352Y455844D01*
X236050Y458451D01*
Y461149D01*
X235352Y463756D01*
X234002Y466094D01*
X232094Y468002D01*
X229756Y469352D01*
X227149Y470050D01*
D02*
G37*
G36*
X201749D02*
X199051D01*
X196444Y469352D01*
X194106Y468002D01*
X192198Y466094D01*
X190849Y463756D01*
X190150Y461149D01*
Y458451D01*
X190849Y455844D01*
X192198Y453506D01*
X194106Y451598D01*
X196444Y450248D01*
X199051Y449550D01*
X201749D01*
X204356Y450248D01*
X206694Y451598D01*
X208602Y453506D01*
X209951Y455844D01*
X210650Y458451D01*
Y461149D01*
X209951Y463756D01*
X208602Y466094D01*
X206694Y468002D01*
X204356Y469352D01*
X201749Y470050D01*
D02*
G37*
G36*
X176349D02*
X173651D01*
X171044Y469352D01*
X168706Y468002D01*
X166798Y466094D01*
X165448Y463756D01*
X164750Y461149D01*
Y458451D01*
X165448Y455844D01*
X166798Y453506D01*
X168706Y451598D01*
X171044Y450248D01*
X173651Y449550D01*
X176349D01*
X178956Y450248D01*
X181294Y451598D01*
X183202Y453506D01*
X184552Y455844D01*
X185250Y458451D01*
Y461149D01*
X184552Y463756D01*
X183202Y466094D01*
X181294Y468002D01*
X178956Y469352D01*
X176349Y470050D01*
D02*
G37*
G36*
X150949D02*
X148251D01*
X145644Y469352D01*
X143306Y468002D01*
X141398Y466094D01*
X140049Y463756D01*
X139350Y461149D01*
Y458451D01*
X140049Y455844D01*
X141398Y453506D01*
X143306Y451598D01*
X145644Y450248D01*
X148251Y449550D01*
X150949D01*
X153556Y450248D01*
X155894Y451598D01*
X157802Y453506D01*
X159151Y455844D01*
X159850Y458451D01*
Y461149D01*
X159151Y463756D01*
X157802Y466094D01*
X155894Y468002D01*
X153556Y469352D01*
X150949Y470050D01*
D02*
G37*
G36*
X125549D02*
X122851D01*
X120244Y469352D01*
X117906Y468002D01*
X115998Y466094D01*
X114649Y463756D01*
X113950Y461149D01*
Y458451D01*
X114649Y455844D01*
X115998Y453506D01*
X117906Y451598D01*
X120244Y450248D01*
X122851Y449550D01*
X125549D01*
X128156Y450248D01*
X130494Y451598D01*
X132402Y453506D01*
X133751Y455844D01*
X134450Y458451D01*
Y461149D01*
X133751Y463756D01*
X132402Y466094D01*
X130494Y468002D01*
X128156Y469352D01*
X125549Y470050D01*
D02*
G37*
G36*
X100149D02*
X97451D01*
X94844Y469352D01*
X92506Y468002D01*
X90598Y466094D01*
X89249Y463756D01*
X88550Y461149D01*
Y458451D01*
X89249Y455844D01*
X90598Y453506D01*
X92506Y451598D01*
X94844Y450248D01*
X97451Y449550D01*
X100149D01*
X102756Y450248D01*
X105094Y451598D01*
X107002Y453506D01*
X108351Y455844D01*
X109050Y458451D01*
Y461149D01*
X108351Y463756D01*
X107002Y466094D01*
X105094Y468002D01*
X102756Y469352D01*
X100149Y470050D01*
D02*
G37*
G36*
X74749D02*
X72051D01*
X69444Y469352D01*
X67106Y468002D01*
X65198Y466094D01*
X63849Y463756D01*
X63150Y461149D01*
Y458451D01*
X63849Y455844D01*
X65198Y453506D01*
X67106Y451598D01*
X69444Y450248D01*
X72051Y449550D01*
X74749D01*
X77356Y450248D01*
X79694Y451598D01*
X81602Y453506D01*
X82951Y455844D01*
X83650Y458451D01*
Y461149D01*
X82951Y463756D01*
X81602Y466094D01*
X79694Y468002D01*
X77356Y469352D01*
X74749Y470050D01*
D02*
G37*
G36*
X49349D02*
X46651D01*
X44044Y469352D01*
X41706Y468002D01*
X39798Y466094D01*
X38449Y463756D01*
X37750Y461149D01*
Y458451D01*
X38449Y455844D01*
X39798Y453506D01*
X41706Y451598D01*
X44044Y450248D01*
X46651Y449550D01*
X49349D01*
X51956Y450248D01*
X54294Y451598D01*
X56202Y453506D01*
X57551Y455844D01*
X58250Y458451D01*
Y461149D01*
X57551Y463756D01*
X56202Y466094D01*
X54294Y468002D01*
X51956Y469352D01*
X49349Y470050D01*
D02*
G37*
G36*
X33390Y458530D02*
X23870D01*
Y449010D01*
X24021D01*
X26765Y449745D01*
X29225Y451166D01*
X31234Y453175D01*
X32655Y455635D01*
X33390Y458380D01*
Y458530D01*
D02*
G37*
G36*
X21330D02*
X11810D01*
Y458380D01*
X12545Y455635D01*
X13966Y453175D01*
X15975Y451166D01*
X18435Y449745D01*
X21179Y449010D01*
X21330D01*
Y458530D01*
D02*
G37*
G36*
X338247D02*
X328670D01*
Y448952D01*
X331525D01*
X333265Y449182D01*
X334886Y449853D01*
X336278Y450922D01*
X337347Y452314D01*
X338018Y453935D01*
X338247Y455675D01*
Y458530D01*
D02*
G37*
G36*
X326130D02*
X316553D01*
Y455675D01*
X316782Y453935D01*
X317453Y452314D01*
X318521Y450922D01*
X319914Y449853D01*
X321535Y449182D01*
X323275Y448952D01*
X326130D01*
Y458530D01*
D02*
G37*
G36*
X686270Y452466D02*
Y446270D01*
X692466D01*
X692026Y447910D01*
X691033Y449630D01*
X689630Y451034D01*
X687910Y452026D01*
X686270Y452466D01*
D02*
G37*
G36*
X683730D02*
X682090Y452026D01*
X680370Y451034D01*
X678967Y449630D01*
X677974Y447910D01*
X677534Y446270D01*
X683730D01*
Y452466D01*
D02*
G37*
G36*
X1220645Y454500D02*
X1218855D01*
X1217201Y453815D01*
X1215935Y452549D01*
X1215250Y450895D01*
Y449105D01*
X1215935Y447451D01*
X1217201Y446185D01*
X1218855Y445500D01*
X1220645D01*
X1222299Y446185D01*
X1223565Y447451D01*
X1224250Y449105D01*
Y450895D01*
X1223565Y452549D01*
X1222299Y453815D01*
X1220645Y454500D01*
D02*
G37*
G36*
X659929Y448730D02*
X656270D01*
Y445071D01*
X657855Y445727D01*
X659273Y447145D01*
X659929Y448730D01*
D02*
G37*
G36*
X653730D02*
X650071D01*
X650727Y447145D01*
X652145Y445727D01*
X653730Y445071D01*
Y448730D01*
D02*
G37*
G36*
X692466Y443730D02*
X686270D01*
Y437534D01*
X687910Y437974D01*
X689630Y438966D01*
X691033Y440370D01*
X692026Y442090D01*
X692466Y443730D01*
D02*
G37*
G36*
X683730D02*
X677534D01*
X677974Y442090D01*
X678967Y440370D01*
X680370Y438966D01*
X682090Y437974D01*
X683730Y437534D01*
Y443730D01*
D02*
G37*
G36*
X1310895Y444500D02*
X1309105D01*
X1307451Y443815D01*
X1306185Y442549D01*
X1305500Y440895D01*
Y439105D01*
X1306185Y437451D01*
X1307451Y436185D01*
X1309105Y435500D01*
X1310895D01*
X1312549Y436185D01*
X1313815Y437451D01*
X1314500Y439105D01*
Y440895D01*
X1313815Y442549D01*
X1312549Y443815D01*
X1310895Y444500D01*
D02*
G37*
G36*
X1420895Y440250D02*
X1419105D01*
X1417451Y439565D01*
X1416185Y438299D01*
X1415500Y436645D01*
Y434855D01*
X1416185Y433201D01*
X1417451Y431935D01*
X1419105Y431250D01*
X1420895D01*
X1422549Y431935D01*
X1423815Y433201D01*
X1424500Y434855D01*
Y436645D01*
X1423815Y438299D01*
X1422549Y439565D01*
X1420895Y440250D01*
D02*
G37*
G36*
X1446270Y439875D02*
X1444480D01*
X1442826Y439190D01*
X1441560Y437924D01*
X1440875Y436270D01*
Y434480D01*
X1441560Y432826D01*
X1442826Y431560D01*
X1444480Y430875D01*
X1446270D01*
X1447924Y431560D01*
X1449190Y432826D01*
X1449875Y434480D01*
Y436270D01*
X1449190Y437924D01*
X1447924Y439190D01*
X1446270Y439875D01*
D02*
G37*
G36*
X806270Y429929D02*
Y426270D01*
X809929D01*
X809273Y427855D01*
X807855Y429273D01*
X806270Y429929D01*
D02*
G37*
G36*
X803730D02*
X802145Y429273D01*
X800727Y427855D01*
X800071Y426270D01*
X803730D01*
Y429929D01*
D02*
G37*
G36*
X636270D02*
Y426270D01*
X639929D01*
X639273Y427855D01*
X637855Y429273D01*
X636270Y429929D01*
D02*
G37*
G36*
X633730D02*
X632145Y429273D01*
X630727Y427855D01*
X630071Y426270D01*
X633730D01*
Y429929D01*
D02*
G37*
G36*
X731270Y424929D02*
Y421270D01*
X734929D01*
X734273Y422855D01*
X732855Y424273D01*
X731270Y424929D01*
D02*
G37*
G36*
X728730D02*
X727145Y424273D01*
X725727Y422855D01*
X725071Y421270D01*
X728730D01*
Y424929D01*
D02*
G37*
G36*
X809929Y423730D02*
X806270D01*
Y420071D01*
X807855Y420727D01*
X809273Y422145D01*
X809929Y423730D01*
D02*
G37*
G36*
X803730D02*
X800071D01*
X800727Y422145D01*
X802145Y420727D01*
X803730Y420071D01*
Y423730D01*
D02*
G37*
G36*
X639929D02*
X636270D01*
Y420071D01*
X637855Y420727D01*
X639273Y422145D01*
X639929Y423730D01*
D02*
G37*
G36*
X633730D02*
X630071D01*
X630727Y422145D01*
X632145Y420727D01*
X633730Y420071D01*
Y423730D01*
D02*
G37*
G36*
X785895Y419500D02*
X784105D01*
X782451Y418815D01*
X781500Y417864D01*
X780549Y418815D01*
X778895Y419500D01*
X777105D01*
X775451Y418815D01*
X774470Y417834D01*
X773549Y418755D01*
X771895Y419440D01*
X770105D01*
X768451Y418755D01*
X767530Y417834D01*
X766549Y418815D01*
X764895Y419500D01*
X763105D01*
X761451Y418815D01*
X760185Y417549D01*
X759500Y415895D01*
Y414105D01*
X760185Y412451D01*
X761451Y411185D01*
X763105Y410500D01*
X764895D01*
X766549Y411185D01*
X767470Y412106D01*
X768451Y411125D01*
X770105Y410440D01*
X771895D01*
X773549Y411125D01*
X774530Y412106D01*
X775451Y411185D01*
X777105Y410500D01*
X778895D01*
X780549Y411185D01*
X781500Y412136D01*
X782451Y411185D01*
X784105Y410500D01*
X785895D01*
X787549Y411185D01*
X788815Y412451D01*
X789500Y414105D01*
Y415895D01*
X788815Y417549D01*
X787549Y418815D01*
X785895Y419500D01*
D02*
G37*
G36*
X77245Y425850D02*
X75455D01*
X73801Y425165D01*
X72535Y423899D01*
X71850Y422245D01*
Y420455D01*
X72535Y418801D01*
X73801Y417535D01*
X75455Y416850D01*
X77245D01*
X78899Y417535D01*
X80165Y418801D01*
X80850Y420455D01*
Y422245D01*
X80165Y423899D01*
X78899Y425165D01*
X77245Y425850D01*
D02*
G37*
G36*
X734929Y418730D02*
X731270D01*
Y415071D01*
X732855Y415727D01*
X734273Y417145D01*
X734929Y418730D01*
D02*
G37*
G36*
X728730D02*
X725071D01*
X725727Y417145D01*
X727145Y415727D01*
X728730Y415071D01*
Y418730D01*
D02*
G37*
G36*
X705895Y419000D02*
X704105D01*
X702451Y418315D01*
X701185Y417049D01*
X700500Y415395D01*
Y413605D01*
X701185Y411951D01*
X702451Y410685D01*
X704105Y410000D01*
X705895D01*
X707549Y410685D01*
X708815Y411951D01*
X709500Y413605D01*
Y415395D01*
X708815Y417049D01*
X707549Y418315D01*
X705895Y419000D01*
D02*
G37*
G36*
X110321Y413926D02*
X108531D01*
X106877Y413241D01*
X105611Y411975D01*
X104926Y410321D01*
Y408531D01*
X105611Y406877D01*
X106877Y405611D01*
X108531Y404926D01*
X110321D01*
X111975Y405611D01*
X113241Y406877D01*
X113926Y408531D01*
Y410321D01*
X113241Y411975D01*
X111975Y413241D01*
X110321Y413926D01*
D02*
G37*
G36*
X705895Y408000D02*
X704105D01*
X702451Y407315D01*
X701185Y406049D01*
X700500Y404395D01*
Y404037D01*
X699230Y403784D01*
X698812Y404793D01*
X697546Y406059D01*
X695892Y406744D01*
X694102D01*
X692448Y406059D01*
X691182Y404793D01*
X690497Y403139D01*
Y401349D01*
X691182Y399695D01*
X692173Y398704D01*
X691262Y397793D01*
X690577Y396139D01*
Y394349D01*
X691262Y392695D01*
X692297Y391660D01*
X691185Y390549D01*
X690500Y388895D01*
Y387105D01*
X691185Y385451D01*
X692136Y384500D01*
X691185Y383549D01*
X690500Y381895D01*
Y380105D01*
X691185Y378451D01*
X692451Y377185D01*
X694105Y376500D01*
X695895D01*
X697549Y377185D01*
X698815Y378451D01*
X699500Y380105D01*
Y381895D01*
X698815Y383549D01*
X697864Y384500D01*
X698815Y385451D01*
X699500Y387105D01*
Y388895D01*
X698815Y390549D01*
X697780Y391584D01*
X698892Y392695D01*
X699577Y394349D01*
Y396139D01*
X698892Y397793D01*
X697901Y398784D01*
X698812Y399695D01*
X699497Y401349D01*
Y401707D01*
X700767Y401960D01*
X701185Y400951D01*
X702451Y399685D01*
X704105Y399000D01*
X705895D01*
X707549Y399685D01*
X708815Y400951D01*
X709500Y402605D01*
Y404395D01*
X708815Y406049D01*
X707549Y407315D01*
X705895Y408000D01*
D02*
G37*
G36*
X1181770Y404429D02*
Y400770D01*
X1185429D01*
X1184773Y402355D01*
X1183355Y403773D01*
X1181770Y404429D01*
D02*
G37*
G36*
X1179230D02*
X1177645Y403773D01*
X1176227Y402355D01*
X1175571Y400770D01*
X1179230D01*
Y404429D01*
D02*
G37*
G36*
X1105895Y409500D02*
X1104105D01*
X1102451Y408815D01*
X1101185Y407549D01*
X1100500Y405895D01*
Y404105D01*
X1101185Y402451D01*
X1102451Y401185D01*
X1104105Y400500D01*
X1105895D01*
X1107549Y401185D01*
X1108815Y402451D01*
X1109500Y404105D01*
Y405895D01*
X1108815Y407549D01*
X1107549Y408815D01*
X1105895Y409500D01*
D02*
G37*
G36*
X661270Y399929D02*
Y396270D01*
X664929D01*
X664273Y397855D01*
X662855Y399273D01*
X661270Y399929D01*
D02*
G37*
G36*
X658730D02*
X657145Y399273D01*
X655727Y397855D01*
X655071Y396270D01*
X658730D01*
Y399929D01*
D02*
G37*
G36*
X56270D02*
Y396270D01*
X59929D01*
X59273Y397855D01*
X57855Y399273D01*
X56270Y399929D01*
D02*
G37*
G36*
X53730D02*
X52145Y399273D01*
X50727Y397855D01*
X50071Y396270D01*
X53730D01*
Y399929D01*
D02*
G37*
G36*
X1464084Y404500D02*
X1462294D01*
X1460640Y403815D01*
X1459374Y402549D01*
X1458689Y400895D01*
Y399105D01*
X1459374Y397451D01*
X1460640Y396185D01*
X1462294Y395500D01*
X1464084D01*
X1465738Y396185D01*
X1467004Y397451D01*
X1467689Y399105D01*
Y400895D01*
X1467004Y402549D01*
X1465738Y403815D01*
X1464084Y404500D01*
D02*
G37*
G36*
X1185429Y398230D02*
X1181770D01*
Y394571D01*
X1183355Y395227D01*
X1184773Y396645D01*
X1185429Y398230D01*
D02*
G37*
G36*
X1179230D02*
X1175571D01*
X1176227Y396645D01*
X1177645Y395227D01*
X1179230Y394571D01*
Y398230D01*
D02*
G37*
G36*
X59929Y393730D02*
X56270D01*
Y390071D01*
X57855Y390727D01*
X59273Y392145D01*
X59929Y393730D01*
D02*
G37*
G36*
X53730D02*
X50071D01*
X50727Y392145D01*
X52145Y390727D01*
X53730Y390071D01*
Y393730D01*
D02*
G37*
G36*
X664929D02*
X661270D01*
Y390071D01*
X662855Y390727D01*
X664273Y392145D01*
X664929Y393730D01*
D02*
G37*
G36*
X658730D02*
X655071D01*
X655727Y392145D01*
X657145Y390727D01*
X658730Y390071D01*
Y393730D01*
D02*
G37*
G36*
X619421Y403500D02*
X617578D01*
X615798Y403023D01*
X614202Y402102D01*
X612898Y400798D01*
X611977Y399202D01*
X611500Y397422D01*
Y395578D01*
X611977Y393798D01*
X612898Y392202D01*
X614202Y390899D01*
X615798Y389977D01*
X617578Y389500D01*
X619421D01*
X621202Y389977D01*
X622798Y390899D01*
X624101Y392202D01*
X625023Y393798D01*
X625500Y395578D01*
Y397422D01*
X625023Y399202D01*
X624101Y400798D01*
X622798Y402102D01*
X621202Y403023D01*
X619421Y403500D01*
D02*
G37*
G36*
X800895Y389500D02*
X799105D01*
X797451Y388815D01*
X796373Y387737D01*
X794961Y387660D01*
X794764Y387857D01*
X793179Y388514D01*
Y383585D01*
Y378655D01*
X794764Y379312D01*
X796182Y380730D01*
X796273Y380951D01*
X797451Y381185D01*
X799105Y380500D01*
X800895D01*
X802549Y381185D01*
X803815Y382451D01*
X804500Y384105D01*
Y385895D01*
X803815Y387549D01*
X802549Y388815D01*
X800895Y389500D01*
D02*
G37*
G36*
X1340895Y404500D02*
X1339105D01*
X1337451Y403815D01*
X1336185Y402549D01*
X1335500Y400895D01*
Y399105D01*
X1336185Y397451D01*
X1337451Y396185D01*
X1338686Y395673D01*
Y394326D01*
X1337451Y393815D01*
X1336185Y392549D01*
X1335500Y390895D01*
Y389105D01*
X1336185Y387451D01*
X1337451Y386185D01*
X1339105Y385500D01*
X1340895D01*
X1342549Y386185D01*
X1343815Y387451D01*
X1344500Y389105D01*
Y390895D01*
X1343815Y392549D01*
X1342549Y393815D01*
X1341313Y394326D01*
Y395673D01*
X1342549Y396185D01*
X1343815Y397451D01*
X1344500Y399105D01*
Y400895D01*
X1343815Y402549D01*
X1342549Y403815D01*
X1340895Y404500D01*
D02*
G37*
G36*
X790639Y388514D02*
X789054Y387857D01*
X787636Y386440D01*
X786980Y384855D01*
X790639D01*
Y388514D01*
D02*
G37*
G36*
X291270Y384929D02*
Y381270D01*
X294930D01*
X294273Y382855D01*
X292855Y384273D01*
X291270Y384929D01*
D02*
G37*
G36*
X288730D02*
X287145Y384273D01*
X285728Y382855D01*
X285071Y381270D01*
X288730D01*
Y384929D01*
D02*
G37*
G36*
X251270D02*
Y381270D01*
X254929D01*
X254273Y382855D01*
X252855Y384273D01*
X251270Y384929D01*
D02*
G37*
G36*
X248730D02*
X247145Y384273D01*
X245727Y382855D01*
X245071Y381270D01*
X248730D01*
Y384929D01*
D02*
G37*
G36*
X208730D02*
X207145Y384273D01*
X205727Y382855D01*
X205071Y381270D01*
X208730D01*
Y384929D01*
D02*
G37*
G36*
X706532Y389744D02*
X704742D01*
X703088Y389058D01*
X701822Y387793D01*
X701137Y386139D01*
Y384348D01*
X701822Y382695D01*
X703088Y381429D01*
X704742Y380744D01*
X706532D01*
X708186Y381429D01*
X709452Y382695D01*
X710137Y384348D01*
Y386139D01*
X709452Y387793D01*
X708186Y389058D01*
X706532Y389744D01*
D02*
G37*
G36*
X640895Y389500D02*
X639105D01*
X637451Y388815D01*
X636185Y387549D01*
X635500Y385895D01*
Y384105D01*
X636185Y382451D01*
X637451Y381185D01*
X639105Y380500D01*
X640895D01*
X642549Y381185D01*
X643815Y382451D01*
X644500Y384105D01*
Y385895D01*
X643815Y387549D01*
X642549Y388815D01*
X640895Y389500D01*
D02*
G37*
G36*
X425895D02*
X424105D01*
X422451Y388815D01*
X421185Y387549D01*
X420500Y385895D01*
Y384105D01*
X421185Y382451D01*
X422451Y381185D01*
X424105Y380500D01*
X425895D01*
X427549Y381185D01*
X428815Y382451D01*
X429500Y384105D01*
Y385895D01*
X428815Y387549D01*
X427549Y388815D01*
X425895Y389500D01*
D02*
G37*
G36*
X790639Y382315D02*
X786980D01*
X787636Y380730D01*
X789054Y379312D01*
X790639Y378655D01*
Y382315D01*
D02*
G37*
G36*
X1181395Y385000D02*
X1179605D01*
X1177951Y384314D01*
X1176685Y383049D01*
X1176000Y381395D01*
Y379604D01*
X1176685Y377951D01*
X1177951Y376685D01*
X1179605Y376000D01*
X1181395D01*
X1183049Y376685D01*
X1184315Y377951D01*
X1185000Y379604D01*
Y381395D01*
X1184315Y383049D01*
X1183049Y384314D01*
X1181395Y385000D01*
D02*
G37*
G36*
X310895Y384500D02*
X309105D01*
X307451Y383815D01*
X306185Y382549D01*
X305500Y380895D01*
Y379105D01*
X306185Y377451D01*
X307451Y376185D01*
X309105Y375500D01*
X310895D01*
X312549Y376185D01*
X313815Y377451D01*
X314500Y379105D01*
Y380895D01*
X313815Y382549D01*
X312549Y383815D01*
X310895Y384500D01*
D02*
G37*
G36*
X270895D02*
X269105D01*
X267451Y383815D01*
X266185Y382549D01*
X265500Y380895D01*
Y379105D01*
X266185Y377451D01*
X267451Y376185D01*
X269105Y375500D01*
X270895D01*
X272549Y376185D01*
X273815Y377451D01*
X274500Y379105D01*
Y380895D01*
X273815Y382549D01*
X272549Y383815D01*
X270895Y384500D01*
D02*
G37*
G36*
X230895D02*
X229105D01*
X227451Y383815D01*
X226185Y382549D01*
X225500Y380895D01*
Y379105D01*
X226185Y377451D01*
X227451Y376185D01*
X229105Y375500D01*
X230895D01*
X232549Y376185D01*
X233815Y377451D01*
X234500Y379105D01*
Y380895D01*
X233815Y382549D01*
X232549Y383815D01*
X230895Y384500D01*
D02*
G37*
G36*
X294930Y378730D02*
X291270D01*
Y375071D01*
X292855Y375727D01*
X294273Y377145D01*
X294930Y378730D01*
D02*
G37*
G36*
X288730D02*
X285071D01*
X285728Y377145D01*
X287145Y375727D01*
X288730Y375071D01*
Y378730D01*
D02*
G37*
G36*
X254929D02*
X251270D01*
Y375071D01*
X252855Y375727D01*
X254273Y377145D01*
X254929Y378730D01*
D02*
G37*
G36*
X248730D02*
X245071D01*
X245727Y377145D01*
X247145Y375727D01*
X248730Y375071D01*
Y378730D01*
D02*
G37*
G36*
X741142Y387392D02*
X739351D01*
X737697Y386707D01*
X736432Y385441D01*
X735746Y383787D01*
Y381997D01*
X736432Y380343D01*
X737697Y379077D01*
X739351Y378392D01*
X741142D01*
X742795Y379077D01*
X743690Y379972D01*
X744960Y379446D01*
Y378998D01*
X745727Y377145D01*
X747145Y375728D01*
X748997Y374960D01*
X751003D01*
X752855Y375728D01*
X754273Y377145D01*
X755040Y378998D01*
Y381003D01*
X754273Y382855D01*
X752855Y384273D01*
X751003Y385040D01*
X748997D01*
X747145Y384273D01*
X746016Y383144D01*
X744746Y383553D01*
Y383787D01*
X744061Y385441D01*
X742795Y386707D01*
X741142Y387392D01*
D02*
G37*
G36*
X806395Y379500D02*
X804605D01*
X802951Y378815D01*
X801685Y377549D01*
X801000Y375895D01*
Y374105D01*
X801685Y372451D01*
X802951Y371185D01*
X804605Y370500D01*
X806395D01*
X808049Y371185D01*
X809315Y372451D01*
X810000Y374105D01*
Y375895D01*
X809315Y377549D01*
X808049Y378815D01*
X806395Y379500D01*
D02*
G37*
G36*
X211270Y384929D02*
Y380000D01*
X210000D01*
Y378730D01*
X205071D01*
X205727Y377145D01*
X207145Y375727D01*
X208997Y374960D01*
X210500D01*
Y374105D01*
X211185Y372451D01*
X212451Y371185D01*
X214105Y370500D01*
X215895D01*
X217549Y371185D01*
X218815Y372451D01*
X219500Y374105D01*
Y375895D01*
X218815Y377549D01*
X217549Y378815D01*
X215895Y379500D01*
X215040D01*
Y381003D01*
X214273Y382855D01*
X212855Y384273D01*
X211270Y384929D01*
D02*
G37*
G36*
X49069Y374415D02*
X48770D01*
Y363770D01*
X59415D01*
Y364069D01*
X58603Y367099D01*
X57034Y369816D01*
X54816Y372034D01*
X52099Y373603D01*
X49069Y374415D01*
D02*
G37*
G36*
X46230D02*
X45931D01*
X42901Y373603D01*
X40184Y372034D01*
X37966Y369816D01*
X36397Y367099D01*
X35585Y364069D01*
Y363770D01*
X46230D01*
Y374415D01*
D02*
G37*
G36*
X765895Y379500D02*
X764105D01*
X762451Y378815D01*
X761185Y377549D01*
X760500Y375895D01*
Y374105D01*
X761185Y372451D01*
X762451Y371185D01*
X762865Y371014D01*
X762957Y370549D01*
X762272Y368895D01*
Y367105D01*
X762957Y365451D01*
X764223Y364185D01*
X765877Y363500D01*
X767667D01*
X769321Y364185D01*
X770587Y365451D01*
X771272Y367105D01*
Y368895D01*
X770587Y370549D01*
X769321Y371815D01*
X768908Y371987D01*
X768815Y372451D01*
X769500Y374105D01*
Y375895D01*
X768815Y377549D01*
X767549Y378815D01*
X765895Y379500D01*
D02*
G37*
G36*
X136770Y365679D02*
Y362020D01*
X140429D01*
X139773Y363605D01*
X138355Y365023D01*
X136770Y365679D01*
D02*
G37*
G36*
X134230D02*
X132645Y365023D01*
X131228Y363605D01*
X130571Y362020D01*
X134230D01*
Y365679D01*
D02*
G37*
G36*
X140429Y359480D02*
X136770D01*
Y355821D01*
X138355Y356477D01*
X139773Y357895D01*
X140429Y359480D01*
D02*
G37*
G36*
X134230D02*
X130571D01*
X131228Y357895D01*
X132645Y356477D01*
X134230Y355821D01*
Y359480D01*
D02*
G37*
G36*
X1030895Y354000D02*
X1029105D01*
X1027451Y353315D01*
X1026500Y352364D01*
X1025549Y353315D01*
X1023895Y354000D01*
X1022105D01*
X1020451Y353315D01*
X1019185Y352049D01*
X1018500Y350395D01*
Y348605D01*
X1019185Y346951D01*
X1020451Y345685D01*
X1022105Y345000D01*
X1023895D01*
X1025549Y345685D01*
X1026500Y346636D01*
X1027451Y345685D01*
X1029105Y345000D01*
X1030895D01*
X1032549Y345685D01*
X1033815Y346951D01*
X1034500Y348605D01*
Y350395D01*
X1033815Y352049D01*
X1032549Y353315D01*
X1030895Y354000D01*
D02*
G37*
G36*
X871270Y354929D02*
Y351270D01*
X874929D01*
X874273Y352855D01*
X872855Y354273D01*
X871270Y354929D01*
D02*
G37*
G36*
X868730D02*
X867145Y354273D01*
X865727Y352855D01*
X865071Y351270D01*
X868730D01*
Y354929D01*
D02*
G37*
G36*
X1453997Y373875D02*
X1451002D01*
X1448109Y373100D01*
X1445516Y371602D01*
X1443398Y369484D01*
X1441900Y366891D01*
X1441125Y363998D01*
Y361003D01*
X1441900Y358110D01*
X1443398Y355516D01*
X1445516Y353398D01*
X1448109Y351900D01*
X1451002Y351125D01*
X1453997D01*
X1456891Y351900D01*
X1459484Y353398D01*
X1461602Y355516D01*
X1463100Y358110D01*
X1463875Y361003D01*
Y363998D01*
X1463100Y366891D01*
X1461602Y369484D01*
X1459484Y371602D01*
X1456891Y373100D01*
X1453997Y373875D01*
D02*
G37*
G36*
X1428997D02*
X1426002D01*
X1423109Y373100D01*
X1420516Y371602D01*
X1418398Y369484D01*
X1416900Y366891D01*
X1416125Y363998D01*
Y361003D01*
X1416900Y358110D01*
X1418398Y355516D01*
X1420516Y353398D01*
X1423109Y351900D01*
X1426002Y351125D01*
X1428997D01*
X1431891Y351900D01*
X1434484Y353398D01*
X1436602Y355516D01*
X1438100Y358110D01*
X1438875Y361003D01*
Y363998D01*
X1438100Y366891D01*
X1436602Y369484D01*
X1434484Y371602D01*
X1431891Y373100D01*
X1428997Y373875D01*
D02*
G37*
G36*
X73998Y373875D02*
X71002D01*
X68109Y373100D01*
X65516Y371602D01*
X63398Y369484D01*
X61900Y366891D01*
X61125Y363997D01*
Y361003D01*
X61900Y358109D01*
X63398Y355516D01*
X65516Y353398D01*
X68109Y351900D01*
X71002Y351125D01*
X73998D01*
X76891Y351900D01*
X79484Y353398D01*
X81602Y355516D01*
X83100Y358109D01*
X83875Y361003D01*
Y363997D01*
X83100Y366891D01*
X81602Y369484D01*
X79484Y371602D01*
X76891Y373100D01*
X73998Y373875D01*
D02*
G37*
G36*
X59415Y361230D02*
X48770D01*
Y350585D01*
X49069D01*
X52099Y351397D01*
X54816Y352966D01*
X57034Y355184D01*
X58603Y357901D01*
X59415Y360931D01*
Y361230D01*
D02*
G37*
G36*
X46230D02*
X35585D01*
Y360931D01*
X36397Y357901D01*
X37966Y355184D01*
X40184Y352966D01*
X42901Y351397D01*
X45931Y350585D01*
X46230D01*
Y361230D01*
D02*
G37*
G36*
X820895Y359500D02*
X819105D01*
X817451Y358815D01*
X816185Y357549D01*
X815500Y355895D01*
Y354105D01*
X816185Y352451D01*
X817451Y351185D01*
X819105Y350500D01*
X820895D01*
X822549Y351185D01*
X823815Y352451D01*
X824500Y354105D01*
Y355895D01*
X823815Y357549D01*
X822549Y358815D01*
X820895Y359500D01*
D02*
G37*
G36*
X1140895Y359500D02*
X1139105D01*
X1137451Y358815D01*
X1136185Y357549D01*
X1135500Y355895D01*
Y354105D01*
X1136185Y352451D01*
X1137451Y351185D01*
X1139105Y350500D01*
X1140895D01*
X1142549Y351185D01*
X1143815Y352451D01*
X1144500Y354105D01*
Y355895D01*
X1143815Y357549D01*
X1142549Y358815D01*
X1140895Y359500D01*
D02*
G37*
G36*
X775895Y365000D02*
X774105D01*
X772451Y364315D01*
X771185Y363049D01*
X770500Y361395D01*
Y360624D01*
X769924Y359553D01*
X769327Y359500D01*
X768105D01*
X766451Y358815D01*
X765185Y357549D01*
X764500Y355895D01*
Y354105D01*
X765185Y352451D01*
X766451Y351185D01*
X768105Y350500D01*
X769895D01*
X771549Y351185D01*
X772815Y352451D01*
X773500Y354105D01*
Y354876D01*
X774076Y355947D01*
X774673Y356000D01*
X775895D01*
X777549Y356685D01*
X778815Y357951D01*
X779500Y359605D01*
Y361395D01*
X778815Y363049D01*
X777549Y364315D01*
X775895Y365000D01*
D02*
G37*
G36*
X105895Y354750D02*
X104105D01*
X102451Y354065D01*
X101185Y352799D01*
X100500Y351145D01*
Y349355D01*
X101185Y347701D01*
X102451Y346435D01*
X104105Y345750D01*
X105895D01*
X107549Y346435D01*
X108815Y347701D01*
X109500Y349355D01*
Y351145D01*
X108815Y352799D01*
X107549Y354065D01*
X105895Y354750D01*
D02*
G37*
G36*
X1380145Y354504D02*
X1378355D01*
X1376701Y353819D01*
X1375435Y352553D01*
X1374750Y350900D01*
Y349109D01*
X1375435Y347455D01*
X1376701Y346189D01*
X1378355Y345504D01*
X1380145D01*
X1381799Y346189D01*
X1383065Y347455D01*
X1383750Y349109D01*
Y350900D01*
X1383065Y352553D01*
X1381799Y353819D01*
X1380145Y354504D01*
D02*
G37*
G36*
X874929Y348730D02*
X871270D01*
Y345071D01*
X872855Y345727D01*
X874273Y347145D01*
X874929Y348730D01*
D02*
G37*
G36*
X868730D02*
X865071D01*
X865727Y347145D01*
X867145Y345727D01*
X868730Y345071D01*
Y348730D01*
D02*
G37*
G36*
X780895Y350000D02*
X779105D01*
X777451Y349315D01*
X776185Y348049D01*
X775500Y346395D01*
Y344605D01*
X776185Y342951D01*
X777451Y341685D01*
X779105Y341000D01*
X780895D01*
X782549Y341685D01*
X783815Y342951D01*
X784500Y344605D01*
Y346395D01*
X783815Y348049D01*
X782549Y349315D01*
X780895Y350000D01*
D02*
G37*
G36*
X1290645Y349501D02*
X1288854D01*
X1287200Y348815D01*
X1285935Y347550D01*
X1285249Y345896D01*
Y344105D01*
X1285935Y342452D01*
X1287200Y341186D01*
X1288854Y340501D01*
X1290645D01*
X1292299Y341186D01*
X1293564Y342452D01*
X1294250Y344105D01*
Y345896D01*
X1293564Y347550D01*
X1292299Y348815D01*
X1290645Y349501D01*
D02*
G37*
G36*
X1330896Y349500D02*
X1329105D01*
X1327451Y348815D01*
X1326185Y347549D01*
X1325500Y345895D01*
Y344105D01*
X1326185Y342451D01*
X1327451Y341185D01*
X1329105Y340500D01*
X1330896D01*
X1332549Y341185D01*
X1333815Y342451D01*
X1334500Y344105D01*
Y345895D01*
X1333815Y347549D01*
X1332549Y348815D01*
X1330896Y349500D01*
D02*
G37*
G36*
X535895Y339500D02*
X534105D01*
X532451Y338815D01*
X531185Y337549D01*
X530673Y336314D01*
X529327D01*
X528815Y337549D01*
X527549Y338815D01*
X525895Y339500D01*
X524105D01*
X522451Y338815D01*
X521185Y337549D01*
X520673Y336314D01*
X519327D01*
X518815Y337549D01*
X517549Y338815D01*
X515895Y339500D01*
X514105D01*
X512451Y338815D01*
X511185Y337549D01*
X510500Y335895D01*
Y334105D01*
X511185Y332451D01*
X512451Y331185D01*
X514105Y330500D01*
X515500D01*
Y329105D01*
X516185Y327451D01*
X517451Y326185D01*
X519105Y325500D01*
X520895D01*
X522549Y326185D01*
X523815Y327451D01*
X524327Y328686D01*
X525673D01*
X526185Y327451D01*
X527451Y326185D01*
X529105Y325500D01*
X530895D01*
X532549Y326185D01*
X533815Y327451D01*
X534500Y329105D01*
Y330500D01*
X535895D01*
X537549Y331185D01*
X538815Y332451D01*
X539500Y334105D01*
Y335895D01*
X538815Y337549D01*
X537549Y338815D01*
X535895Y339500D01*
D02*
G37*
G36*
X781270Y339429D02*
Y335770D01*
X784929D01*
X784273Y337355D01*
X782855Y338773D01*
X781270Y339429D01*
D02*
G37*
G36*
X778730D02*
X777145Y338773D01*
X775727Y337355D01*
X775071Y335770D01*
X778730D01*
Y339429D01*
D02*
G37*
G36*
X743730Y334929D02*
X742145Y334273D01*
X740727Y332855D01*
X740395Y332053D01*
X739020D01*
X738815Y332549D01*
X737549Y333815D01*
X735895Y334500D01*
X734105D01*
X732451Y333815D01*
X731185Y332549D01*
X730500Y330895D01*
Y329105D01*
X731185Y327451D01*
X732451Y326185D01*
X734105Y325500D01*
X735895D01*
X737549Y326185D01*
X738815Y327451D01*
X739020Y327947D01*
X740395D01*
X740727Y327145D01*
X742145Y325727D01*
X743730Y325071D01*
Y330000D01*
Y334929D01*
D02*
G37*
G36*
X746270D02*
Y331270D01*
X749929D01*
X749273Y332855D01*
X747855Y334273D01*
X746270Y334929D01*
D02*
G37*
G36*
X1260646Y339500D02*
X1258855D01*
X1257201Y338815D01*
X1255936Y337549D01*
X1255250Y335895D01*
Y334105D01*
X1255936Y332451D01*
X1257201Y331185D01*
X1258855Y330500D01*
X1260646D01*
X1262299Y331185D01*
X1263565Y332451D01*
X1264250Y334105D01*
Y335895D01*
X1263565Y337549D01*
X1262299Y338815D01*
X1260646Y339500D01*
D02*
G37*
G36*
X1220645D02*
X1218855D01*
X1217201Y338815D01*
X1215935Y337549D01*
X1215250Y335895D01*
Y334105D01*
X1215935Y332451D01*
X1217201Y331185D01*
X1218855Y330500D01*
X1220645D01*
X1222299Y331185D01*
X1223565Y332451D01*
X1224250Y334105D01*
Y335895D01*
X1223565Y337549D01*
X1222299Y338815D01*
X1220645Y339500D01*
D02*
G37*
G36*
X900895Y339500D02*
X899105D01*
X897451Y338815D01*
X896185Y337549D01*
X895500Y335895D01*
Y334105D01*
X896185Y332451D01*
X897451Y331185D01*
X899105Y330500D01*
X900895D01*
X902549Y331185D01*
X903815Y332451D01*
X904500Y334105D01*
Y335895D01*
X903815Y337549D01*
X902549Y338815D01*
X900895Y339500D01*
D02*
G37*
G36*
X710895D02*
X709105D01*
X707451Y338815D01*
X706185Y337549D01*
X705500Y335895D01*
Y334105D01*
X706185Y332451D01*
X707451Y331185D01*
X709105Y330500D01*
X710895D01*
X712549Y331185D01*
X713815Y332451D01*
X714500Y334105D01*
Y335895D01*
X713815Y337549D01*
X712549Y338815D01*
X710895Y339500D01*
D02*
G37*
G36*
X784929Y333230D02*
X781270D01*
Y329571D01*
X782855Y330227D01*
X784273Y331645D01*
X784929Y333230D01*
D02*
G37*
G36*
X778730D02*
X775071D01*
X775727Y331645D01*
X777145Y330227D01*
X778730Y329571D01*
Y333230D01*
D02*
G37*
G36*
X1453997Y348875D02*
X1451002D01*
X1448109Y348100D01*
X1445516Y346602D01*
X1443398Y344484D01*
X1441900Y341891D01*
X1441125Y338998D01*
Y336003D01*
X1441900Y333110D01*
X1443398Y330516D01*
X1445516Y328398D01*
X1448109Y326900D01*
X1451002Y326125D01*
X1453997D01*
X1456891Y326900D01*
X1459484Y328398D01*
X1461602Y330516D01*
X1463100Y333110D01*
X1463875Y336003D01*
Y338998D01*
X1463100Y341891D01*
X1461602Y344484D01*
X1459484Y346602D01*
X1456891Y348100D01*
X1453997Y348875D01*
D02*
G37*
G36*
X1428997D02*
X1426002D01*
X1423109Y348100D01*
X1420516Y346602D01*
X1418398Y344484D01*
X1416900Y341891D01*
X1416125Y338998D01*
Y336003D01*
X1416900Y333110D01*
X1418398Y330516D01*
X1420516Y328398D01*
X1423109Y326900D01*
X1426002Y326125D01*
X1428997D01*
X1431891Y326900D01*
X1434484Y328398D01*
X1436602Y330516D01*
X1438100Y333110D01*
X1438875Y336003D01*
Y338998D01*
X1438100Y341891D01*
X1436602Y344484D01*
X1434484Y346602D01*
X1431891Y348100D01*
X1428997Y348875D01*
D02*
G37*
G36*
X73998Y348875D02*
X71002D01*
X68109Y348100D01*
X65516Y346602D01*
X63398Y344484D01*
X61900Y341891D01*
X61125Y338997D01*
Y336003D01*
X61900Y333109D01*
X63398Y330516D01*
X65516Y328398D01*
X68109Y326900D01*
X71002Y326125D01*
X73998D01*
X76891Y326900D01*
X79484Y328398D01*
X81602Y330516D01*
X83100Y333109D01*
X83875Y336003D01*
Y338997D01*
X83100Y341891D01*
X81602Y344484D01*
X79484Y346602D01*
X76891Y348100D01*
X73998Y348875D01*
D02*
G37*
G36*
X48998D02*
X46002D01*
X43109Y348100D01*
X40516Y346602D01*
X38398Y344484D01*
X36900Y341891D01*
X36125Y338997D01*
Y336003D01*
X36900Y333109D01*
X38398Y330516D01*
X40516Y328398D01*
X43109Y326900D01*
X46002Y326125D01*
X48998D01*
X51891Y326900D01*
X54484Y328398D01*
X56602Y330516D01*
X58100Y333109D01*
X58875Y336003D01*
Y338997D01*
X58100Y341891D01*
X56602Y344484D01*
X54484Y346602D01*
X51891Y348100D01*
X48998Y348875D01*
D02*
G37*
G36*
X590895Y334500D02*
X589105D01*
X587451Y333815D01*
X586185Y332549D01*
X585500Y330895D01*
Y329105D01*
X586185Y327451D01*
X587451Y326185D01*
X589105Y325500D01*
X590895D01*
X592549Y326185D01*
X593815Y327451D01*
X594500Y329105D01*
Y330895D01*
X593815Y332549D01*
X592549Y333815D01*
X590895Y334500D01*
D02*
G37*
G36*
X749929Y328730D02*
X746270D01*
Y325071D01*
X747855Y325727D01*
X749273Y327145D01*
X749929Y328730D01*
D02*
G37*
G36*
X855895Y329500D02*
X854105D01*
X852451Y328815D01*
X851185Y327549D01*
X850500Y325895D01*
Y324105D01*
X851185Y322451D01*
X852451Y321185D01*
X854105Y320500D01*
X855895D01*
X857549Y321185D01*
X858815Y322451D01*
X859500Y324105D01*
Y325895D01*
X858815Y327549D01*
X857549Y328815D01*
X855895Y329500D01*
D02*
G37*
G36*
X816003Y330040D02*
X813998D01*
X812145Y329273D01*
X810727Y327855D01*
X809960Y326003D01*
Y323998D01*
X810727Y322145D01*
X812145Y320727D01*
X813998Y319960D01*
X816003D01*
X817855Y320727D01*
X819273Y322145D01*
X820040Y323998D01*
Y326003D01*
X819273Y327855D01*
X817855Y329273D01*
X816003Y330040D01*
D02*
G37*
G36*
X1261270Y319929D02*
Y316270D01*
X1264930D01*
X1264273Y317855D01*
X1262855Y319273D01*
X1261270Y319929D01*
D02*
G37*
G36*
X1258730D02*
X1257145Y319273D01*
X1255728Y317855D01*
X1255071Y316270D01*
X1258730D01*
Y319929D01*
D02*
G37*
G36*
X1221270D02*
Y316270D01*
X1224929D01*
X1224273Y317855D01*
X1222855Y319273D01*
X1221270Y319929D01*
D02*
G37*
G36*
X1218730D02*
X1217145Y319273D01*
X1215727Y317855D01*
X1215071Y316270D01*
X1218730D01*
Y319929D01*
D02*
G37*
G36*
X765895Y324500D02*
X764105D01*
X762451Y323815D01*
X761185Y322549D01*
X760500Y320895D01*
Y319105D01*
X761185Y317451D01*
X762451Y316185D01*
X764105Y315500D01*
X765895D01*
X767549Y316185D01*
X768815Y317451D01*
X769500Y319105D01*
Y320895D01*
X768815Y322549D01*
X767549Y323815D01*
X765895Y324500D01*
D02*
G37*
G36*
X645895D02*
X644105D01*
X642451Y323815D01*
X641185Y322549D01*
X640500Y320895D01*
Y319105D01*
X641185Y317451D01*
X642451Y316185D01*
X644105Y315500D01*
X645895D01*
X647549Y316185D01*
X648815Y317451D01*
X649500Y319105D01*
Y320895D01*
X648815Y322549D01*
X647549Y323815D01*
X645895Y324500D01*
D02*
G37*
G36*
X870895Y319500D02*
X869105D01*
X867451Y318815D01*
X866185Y317549D01*
X865500Y315895D01*
Y314105D01*
X866185Y312451D01*
X867451Y311185D01*
X869105Y310500D01*
X870895D01*
X872549Y311185D01*
X873815Y312451D01*
X874500Y314105D01*
Y315895D01*
X873815Y317549D01*
X872549Y318815D01*
X870895Y319500D01*
D02*
G37*
G36*
X1264930Y313730D02*
X1261270D01*
Y310071D01*
X1262855Y310727D01*
X1264273Y312145D01*
X1264930Y313730D01*
D02*
G37*
G36*
X1258730D02*
X1255071D01*
X1255728Y312145D01*
X1257145Y310727D01*
X1258730Y310071D01*
Y313730D01*
D02*
G37*
G36*
X1224929D02*
X1221270D01*
Y310071D01*
X1222855Y310727D01*
X1224273Y312145D01*
X1224929Y313730D01*
D02*
G37*
G36*
X1218730D02*
X1215071D01*
X1215727Y312145D01*
X1217145Y310727D01*
X1218730Y310071D01*
Y313730D01*
D02*
G37*
G36*
X48998Y323875D02*
X46002D01*
X43109Y323100D01*
X40516Y321602D01*
X38398Y319484D01*
X36900Y316891D01*
X36125Y313997D01*
Y311003D01*
X36687Y308904D01*
X35650Y307867D01*
X35153Y308000D01*
X33047D01*
X31012Y307455D01*
X29188Y306402D01*
X27698Y304912D01*
X26645Y303088D01*
X26100Y301053D01*
Y298947D01*
X26645Y296912D01*
X27698Y295088D01*
X29188Y293598D01*
X31012Y292545D01*
X33047Y292000D01*
X35153D01*
X35650Y292133D01*
X36687Y291096D01*
X36125Y288997D01*
Y286003D01*
X36900Y283109D01*
X38398Y280516D01*
X40516Y278398D01*
X43109Y276900D01*
X46002Y276125D01*
X48998D01*
X51891Y276900D01*
X54484Y278398D01*
X56602Y280516D01*
X58100Y283109D01*
X58875Y286003D01*
Y288997D01*
X58100Y291891D01*
X56602Y294484D01*
X54484Y296602D01*
X51891Y298100D01*
X48998Y298875D01*
X46002D01*
X43194Y298122D01*
X42592Y298462D01*
X42076Y298858D01*
X42100Y298947D01*
Y301053D01*
X42076Y301142D01*
X42592Y301538D01*
X43194Y301878D01*
X46002Y301125D01*
X48998D01*
X51891Y301900D01*
X54484Y303398D01*
X56602Y305516D01*
X58100Y308109D01*
X58875Y311003D01*
Y313997D01*
X58100Y316891D01*
X56602Y319484D01*
X54484Y321602D01*
X51891Y323100D01*
X48998Y323875D01*
D02*
G37*
G36*
X1380145Y314505D02*
X1378355D01*
X1376701Y313820D01*
X1375435Y312554D01*
X1374750Y310900D01*
Y309110D01*
X1375435Y307456D01*
X1376701Y306190D01*
X1378355Y305505D01*
X1380145D01*
X1381799Y306190D01*
X1383065Y307456D01*
X1383750Y309110D01*
Y310900D01*
X1383065Y312554D01*
X1381799Y313820D01*
X1380145Y314505D01*
D02*
G37*
G36*
X1350895Y314500D02*
X1349105D01*
X1347451Y313815D01*
X1346185Y312549D01*
X1345500Y310895D01*
Y309105D01*
X1346185Y307451D01*
X1347451Y306185D01*
X1349105Y305500D01*
X1350895D01*
X1352549Y306185D01*
X1353815Y307451D01*
X1354500Y309105D01*
Y310895D01*
X1353815Y312549D01*
X1352549Y313815D01*
X1350895Y314500D01*
D02*
G37*
G36*
X1428997Y323875D02*
X1426002D01*
X1423109Y323100D01*
X1420516Y321602D01*
X1418398Y319484D01*
X1416900Y316891D01*
X1416125Y313998D01*
Y311003D01*
X1416900Y308109D01*
X1418398Y305516D01*
X1420516Y303398D01*
X1423109Y301900D01*
X1426002Y301125D01*
X1428997D01*
X1431891Y301900D01*
X1434484Y303398D01*
X1436602Y305516D01*
X1438100Y308109D01*
X1438875Y311003D01*
Y313998D01*
X1438100Y316891D01*
X1436602Y319484D01*
X1434484Y321602D01*
X1431891Y323100D01*
X1428997Y323875D01*
D02*
G37*
G36*
X73998Y323875D02*
X71002D01*
X68109Y323100D01*
X65516Y321602D01*
X63398Y319484D01*
X61900Y316891D01*
X61125Y313997D01*
Y311003D01*
X61900Y308109D01*
X63398Y305516D01*
X65516Y303398D01*
X68109Y301900D01*
X71002Y301125D01*
X73998D01*
X76891Y301900D01*
X79484Y303398D01*
X81602Y305516D01*
X83100Y308109D01*
X83875Y311003D01*
Y313997D01*
X83100Y316891D01*
X81602Y319484D01*
X79484Y321602D01*
X76891Y323100D01*
X73998Y323875D01*
D02*
G37*
G36*
X1270645Y309500D02*
X1268855D01*
X1267200Y308815D01*
X1265935Y307549D01*
X1265250Y305895D01*
Y304105D01*
X1265935Y302451D01*
X1267200Y301185D01*
X1268855Y300500D01*
X1270645D01*
X1272299Y301185D01*
X1273565Y302451D01*
X1274249Y304105D01*
Y305895D01*
X1273565Y307549D01*
X1272299Y308815D01*
X1270645Y309500D01*
D02*
G37*
G36*
X1310896Y309500D02*
X1309105D01*
X1307451Y308815D01*
X1306185Y307549D01*
X1305500Y305895D01*
Y304104D01*
X1306185Y302451D01*
X1307451Y301185D01*
X1309105Y300500D01*
X1310896D01*
X1312549Y301185D01*
X1313815Y302451D01*
X1314500Y304104D01*
Y305895D01*
X1313815Y307549D01*
X1312549Y308815D01*
X1310896Y309500D01*
D02*
G37*
G36*
X675895Y314500D02*
X674105D01*
X672451Y313815D01*
X671185Y312549D01*
X670500Y310895D01*
Y309105D01*
X671185Y307451D01*
X672451Y306185D01*
X673837Y305611D01*
X674960Y305003D01*
Y302998D01*
X675727Y301145D01*
X677145Y299727D01*
X678998Y298960D01*
X681003D01*
X682855Y299727D01*
X684273Y301145D01*
X685040Y302998D01*
Y305003D01*
X684273Y306855D01*
X682855Y308273D01*
X681003Y309040D01*
X679543D01*
X679500Y309105D01*
Y310895D01*
X678815Y312549D01*
X677549Y313815D01*
X675895Y314500D01*
D02*
G37*
G36*
X1453997Y323875D02*
X1451002D01*
X1448109Y323100D01*
X1445516Y321602D01*
X1443398Y319484D01*
X1441900Y316891D01*
X1441125Y313998D01*
Y311003D01*
X1441900Y308109D01*
X1443398Y305516D01*
X1445516Y303398D01*
X1448109Y301900D01*
X1451002Y301125D01*
X1453997D01*
X1456806Y301878D01*
X1457408Y301538D01*
X1457924Y301142D01*
X1457900Y301053D01*
Y298947D01*
X1457924Y298858D01*
X1457408Y298462D01*
X1456806Y298123D01*
X1453997Y298875D01*
X1451002D01*
X1448109Y298100D01*
X1445516Y296602D01*
X1443398Y294484D01*
X1441900Y291891D01*
X1441125Y288998D01*
Y286003D01*
X1441900Y283109D01*
X1443398Y280516D01*
X1445516Y278398D01*
X1448109Y276900D01*
X1451002Y276125D01*
X1453997D01*
X1456891Y276900D01*
X1459484Y278398D01*
X1461602Y280516D01*
X1463100Y283109D01*
X1463875Y286003D01*
Y288998D01*
X1463313Y291096D01*
X1464350Y292133D01*
X1464847Y292000D01*
X1466953D01*
X1468988Y292545D01*
X1470812Y293598D01*
X1472302Y295088D01*
X1473355Y296912D01*
X1473900Y298947D01*
Y301053D01*
X1473355Y303088D01*
X1472302Y304912D01*
X1470812Y306402D01*
X1468988Y307455D01*
X1466953Y308000D01*
X1464847D01*
X1464350Y307867D01*
X1463313Y308904D01*
X1463875Y311003D01*
Y313998D01*
X1463100Y316891D01*
X1461602Y319484D01*
X1459484Y321602D01*
X1456891Y323100D01*
X1453997Y323875D01*
D02*
G37*
G36*
X991139Y296298D02*
Y292639D01*
X994798D01*
X994141Y294224D01*
X992724Y295641D01*
X991139Y296298D01*
D02*
G37*
G36*
X988599D02*
X987014Y295641D01*
X985596Y294224D01*
X984939Y292639D01*
X988599D01*
Y296298D01*
D02*
G37*
G36*
X746270Y294929D02*
Y291270D01*
X749929D01*
X749273Y292855D01*
X747855Y294273D01*
X746270Y294929D01*
D02*
G37*
G36*
X743730D02*
X742145Y294273D01*
X740727Y292855D01*
X740071Y291270D01*
X743730D01*
Y294929D01*
D02*
G37*
G36*
X231146Y299500D02*
X229355D01*
X227701Y298815D01*
X226436Y297549D01*
X225751Y295895D01*
Y294105D01*
X226436Y292451D01*
X227701Y291185D01*
X229355Y290500D01*
X231146D01*
X232799Y291185D01*
X234065Y292451D01*
X234750Y294105D01*
Y295895D01*
X234065Y297549D01*
X232799Y298815D01*
X231146Y299500D01*
D02*
G37*
G36*
X191146D02*
X189356D01*
X187701Y298815D01*
X186436Y297549D01*
X185751Y295895D01*
Y294105D01*
X186436Y292451D01*
X187701Y291185D01*
X189356Y290500D01*
X191146D01*
X192800Y291185D01*
X194065Y292451D01*
X194751Y294105D01*
Y295895D01*
X194065Y297549D01*
X192800Y298815D01*
X191146Y299500D01*
D02*
G37*
G36*
X870895Y298014D02*
X869105D01*
X867451Y297329D01*
X866185Y296063D01*
X865500Y294409D01*
Y292619D01*
X866185Y290965D01*
X867451Y289699D01*
X869105Y289014D01*
X870895D01*
X872549Y289699D01*
X873815Y290965D01*
X874500Y292619D01*
Y294409D01*
X873815Y296063D01*
X872549Y297329D01*
X870895Y298014D01*
D02*
G37*
G36*
X843648D02*
X841858D01*
X840204Y297329D01*
X838938Y296063D01*
X838253Y294409D01*
Y292619D01*
X838938Y290965D01*
X840204Y289699D01*
X841858Y289014D01*
X843648D01*
X845302Y289699D01*
X846568Y290965D01*
X847253Y292619D01*
Y294409D01*
X846568Y296063D01*
X845302Y297329D01*
X843648Y298014D01*
D02*
G37*
G36*
X994798Y290099D02*
X991139D01*
Y286439D01*
X992724Y287096D01*
X994141Y288514D01*
X994798Y290099D01*
D02*
G37*
G36*
X988599D02*
X984939D01*
X985596Y288514D01*
X987014Y287096D01*
X988599Y286439D01*
Y290099D01*
D02*
G37*
G36*
X780895Y298014D02*
X779105D01*
X777451Y297329D01*
X776185Y296063D01*
X775500Y294409D01*
Y292619D01*
X776185Y290965D01*
X776691Y290459D01*
X777126Y289323D01*
X776682Y288809D01*
X775727Y287855D01*
X775071Y286270D01*
X784929D01*
X784273Y287855D01*
X783319Y288809D01*
X782874Y289323D01*
X783309Y290459D01*
X783815Y290965D01*
X784500Y292619D01*
Y294409D01*
X783815Y296063D01*
X782549Y297329D01*
X780895Y298014D01*
D02*
G37*
G36*
X281270Y289929D02*
Y286270D01*
X284929D01*
X284273Y287855D01*
X282855Y289272D01*
X281270Y289929D01*
D02*
G37*
G36*
X278730D02*
X277145Y289272D01*
X275727Y287855D01*
X275071Y286270D01*
X278730D01*
Y289929D01*
D02*
G37*
G36*
X241270D02*
Y286270D01*
X244929D01*
X244272Y287855D01*
X242855Y289272D01*
X241270Y289929D01*
D02*
G37*
G36*
X238730D02*
X237145Y289272D01*
X235727Y287855D01*
X235070Y286270D01*
X238730D01*
Y289929D01*
D02*
G37*
G36*
X150000Y295000D02*
X148210D01*
X146556Y294315D01*
X145290Y293049D01*
X144605Y291395D01*
Y289605D01*
X145290Y287951D01*
X146556Y286685D01*
X148210Y286000D01*
X150000D01*
X151654Y286685D01*
X152920Y287951D01*
X153605Y289605D01*
Y291395D01*
X152920Y293049D01*
X151654Y294315D01*
X150000Y295000D01*
D02*
G37*
G36*
X749929Y288730D02*
X746270D01*
Y285071D01*
X747855Y285727D01*
X749273Y287145D01*
X749929Y288730D01*
D02*
G37*
G36*
X743730D02*
X740071D01*
X740727Y287145D01*
X742145Y285727D01*
X743730Y285071D01*
Y288730D01*
D02*
G37*
G36*
X1015895Y289500D02*
X1014105D01*
X1012451Y288815D01*
X1011185Y287549D01*
X1010500Y285895D01*
Y284105D01*
X1011185Y282451D01*
X1012451Y281185D01*
X1014105Y280500D01*
X1015895D01*
X1017549Y281185D01*
X1018815Y282451D01*
X1019500Y284105D01*
Y285895D01*
X1018815Y287549D01*
X1017549Y288815D01*
X1015895Y289500D01*
D02*
G37*
G36*
X755895D02*
X754105D01*
X752451Y288815D01*
X751185Y287549D01*
X750500Y285895D01*
Y284105D01*
X751185Y282451D01*
X752451Y281185D01*
X754105Y280500D01*
X755895D01*
X757549Y281185D01*
X758815Y282451D01*
X759500Y284105D01*
Y285895D01*
X758815Y287549D01*
X757549Y288815D01*
X755895Y289500D01*
D02*
G37*
G36*
X570895D02*
X569105D01*
X567451Y288815D01*
X566185Y287549D01*
X565500Y285895D01*
Y284105D01*
X566185Y282451D01*
X567451Y281185D01*
X569105Y280500D01*
X570895D01*
X572549Y281185D01*
X573815Y282451D01*
X574500Y284105D01*
Y285895D01*
X573815Y287549D01*
X572549Y288815D01*
X570895Y289500D01*
D02*
G37*
G36*
X720895Y289500D02*
X719105D01*
X717451Y288815D01*
X716185Y287549D01*
X715500Y285895D01*
Y284105D01*
X716185Y282451D01*
X717451Y281185D01*
X719105Y280500D01*
X720895D01*
X722549Y281185D01*
X723815Y282451D01*
X724500Y284105D01*
Y285895D01*
X723815Y287549D01*
X722549Y288815D01*
X720895Y289500D01*
D02*
G37*
G36*
X784929Y283730D02*
X781270D01*
Y280071D01*
X782855Y280727D01*
X784273Y282145D01*
X784929Y283730D01*
D02*
G37*
G36*
X778730D02*
X775071D01*
X775727Y282145D01*
X777145Y280727D01*
X778730Y280071D01*
Y283730D01*
D02*
G37*
G36*
X284929Y283730D02*
X281270D01*
Y280071D01*
X282855Y280727D01*
X284273Y282145D01*
X284929Y283730D01*
D02*
G37*
G36*
X278730D02*
X275071D01*
X275727Y282145D01*
X277145Y280727D01*
X278730Y280071D01*
Y283730D01*
D02*
G37*
G36*
X244929D02*
X241270D01*
Y280071D01*
X242855Y280727D01*
X244272Y282145D01*
X244929Y283730D01*
D02*
G37*
G36*
X238730D02*
X235070D01*
X235727Y282145D01*
X237145Y280727D01*
X238730Y280071D01*
Y283730D01*
D02*
G37*
G36*
X1428997Y298875D02*
X1426002D01*
X1423109Y298100D01*
X1420516Y296602D01*
X1418398Y294484D01*
X1416900Y291891D01*
X1416125Y288998D01*
Y286003D01*
X1416900Y283109D01*
X1418398Y280516D01*
X1420516Y278398D01*
X1423109Y276900D01*
X1426002Y276125D01*
X1428997D01*
X1431891Y276900D01*
X1434484Y278398D01*
X1436602Y280516D01*
X1438100Y283109D01*
X1438875Y286003D01*
Y288998D01*
X1438100Y291891D01*
X1436602Y294484D01*
X1434484Y296602D01*
X1431891Y298100D01*
X1428997Y298875D01*
D02*
G37*
G36*
X73998Y298875D02*
X71002D01*
X68109Y298100D01*
X65516Y296602D01*
X63398Y294484D01*
X61900Y291891D01*
X61125Y288997D01*
Y286003D01*
X61900Y283109D01*
X63398Y280516D01*
X65516Y278398D01*
X68109Y276900D01*
X71002Y276125D01*
X73998D01*
X76891Y276900D01*
X79484Y278398D01*
X81602Y280516D01*
X83100Y283109D01*
X83875Y286003D01*
Y288997D01*
X83100Y291891D01*
X81602Y294484D01*
X79484Y296602D01*
X76891Y298100D01*
X73998Y298875D01*
D02*
G37*
G36*
X940895Y290067D02*
X939105D01*
X937451Y289382D01*
X936185Y288116D01*
X935500Y286462D01*
Y284672D01*
X936185Y283018D01*
X937451Y281752D01*
X939105Y281067D01*
X940466D01*
X940703Y280712D01*
Y278922D01*
X941388Y277268D01*
X942654Y276002D01*
X944308Y275317D01*
X946098D01*
X947752Y276002D01*
X949018Y277268D01*
X949703Y278922D01*
Y280712D01*
X949018Y282366D01*
X947752Y283632D01*
X946098Y284317D01*
X944737D01*
X944500Y284672D01*
Y286462D01*
X943815Y288116D01*
X942549Y289382D01*
X940895Y290067D01*
D02*
G37*
G36*
X851824Y282000D02*
X849819D01*
X847967Y281233D01*
X846549Y279815D01*
X845782Y277963D01*
Y275958D01*
X846549Y274105D01*
X847967Y272687D01*
X849819Y271920D01*
X851824D01*
X853677Y272687D01*
X855095Y274105D01*
X855862Y275958D01*
Y277963D01*
X855095Y279815D01*
X853677Y281233D01*
X851824Y282000D01*
D02*
G37*
G36*
X121645Y279500D02*
X119855D01*
X118201Y278815D01*
X116935Y277549D01*
X116250Y275895D01*
Y274105D01*
X116935Y272451D01*
X118201Y271185D01*
X119855Y270500D01*
X121645D01*
X123299Y271185D01*
X124565Y272451D01*
X125250Y274105D01*
Y275895D01*
X124565Y277549D01*
X123299Y278815D01*
X121645Y279500D01*
D02*
G37*
G36*
X650895Y274500D02*
X649105D01*
X647451Y273815D01*
X646185Y272549D01*
X645500Y270895D01*
Y269105D01*
X646185Y267451D01*
X647451Y266185D01*
X649105Y265500D01*
X650895D01*
X652549Y266185D01*
X653815Y267451D01*
X654500Y269105D01*
Y270895D01*
X653815Y272549D01*
X652549Y273815D01*
X650895Y274500D01*
D02*
G37*
G36*
X281145Y269500D02*
X279355D01*
X277701Y268815D01*
X276435Y267549D01*
X275750Y265895D01*
Y264105D01*
X276435Y262451D01*
X277701Y261185D01*
X279355Y260500D01*
X281145D01*
X282799Y261185D01*
X284065Y262451D01*
X284750Y264105D01*
Y265895D01*
X284065Y267549D01*
X282799Y268815D01*
X281145Y269500D01*
D02*
G37*
G36*
X241145D02*
X239354D01*
X237701Y268815D01*
X236435Y267549D01*
X235750Y265895D01*
Y264105D01*
X236435Y262451D01*
X237701Y261185D01*
X239354Y260500D01*
X241145D01*
X242799Y261185D01*
X244065Y262451D01*
X244750Y264105D01*
Y265895D01*
X244065Y267549D01*
X242799Y268815D01*
X241145Y269500D01*
D02*
G37*
G36*
X735895Y266000D02*
X734105D01*
X732451Y265315D01*
X731185Y264049D01*
X730500Y262395D01*
Y260605D01*
X731185Y258951D01*
X732451Y257685D01*
X734105Y257000D01*
X735895D01*
X737549Y257685D01*
X738815Y258951D01*
X739500Y260605D01*
Y262395D01*
X738815Y264049D01*
X737549Y265315D01*
X735895Y266000D01*
D02*
G37*
G36*
X365895Y264500D02*
X364105D01*
X362451Y263815D01*
X361185Y262549D01*
X360500Y260895D01*
Y259105D01*
X361185Y257451D01*
X362451Y256185D01*
X364105Y255500D01*
X365895D01*
X367549Y256185D01*
X368815Y257451D01*
X369500Y259105D01*
Y260895D01*
X368815Y262549D01*
X367549Y263815D01*
X365895Y264500D01*
D02*
G37*
G36*
X350895D02*
X349105D01*
X347451Y263815D01*
X346185Y262549D01*
X345500Y260895D01*
Y259105D01*
X346185Y257451D01*
X347451Y256185D01*
X349105Y255500D01*
X350895D01*
X352549Y256185D01*
X353815Y257451D01*
X354500Y259105D01*
Y260895D01*
X353815Y262549D01*
X352549Y263815D01*
X350895Y264500D01*
D02*
G37*
G36*
X1453997Y273875D02*
X1451002D01*
X1448109Y273100D01*
X1445516Y271602D01*
X1443398Y269484D01*
X1441900Y266891D01*
X1441125Y263998D01*
Y261003D01*
X1441900Y258109D01*
X1443398Y255516D01*
X1445516Y253398D01*
X1448109Y251900D01*
X1451002Y251125D01*
X1453997D01*
X1456891Y251900D01*
X1459484Y253398D01*
X1461602Y255516D01*
X1463100Y258109D01*
X1463875Y261003D01*
Y263998D01*
X1463100Y266891D01*
X1461602Y269484D01*
X1459484Y271602D01*
X1456891Y273100D01*
X1453997Y273875D01*
D02*
G37*
G36*
X1428997D02*
X1426002D01*
X1423109Y273100D01*
X1420516Y271602D01*
X1418398Y269484D01*
X1416900Y266891D01*
X1416125Y263998D01*
Y261003D01*
X1416900Y258109D01*
X1418398Y255516D01*
X1420516Y253398D01*
X1423109Y251900D01*
X1426002Y251125D01*
X1428997D01*
X1431891Y251900D01*
X1434484Y253398D01*
X1436602Y255516D01*
X1438100Y258109D01*
X1438875Y261003D01*
Y263998D01*
X1438100Y266891D01*
X1436602Y269484D01*
X1434484Y271602D01*
X1431891Y273100D01*
X1428997Y273875D01*
D02*
G37*
G36*
X73998Y273875D02*
X71002D01*
X68109Y273100D01*
X65516Y271602D01*
X63398Y269484D01*
X61900Y266891D01*
X61125Y263997D01*
Y261002D01*
X61900Y258109D01*
X63398Y255516D01*
X65516Y253398D01*
X68109Y251900D01*
X71002Y251125D01*
X73998D01*
X76891Y251900D01*
X79484Y253398D01*
X81602Y255516D01*
X83100Y258109D01*
X83875Y261002D01*
Y263997D01*
X83100Y266891D01*
X81602Y269484D01*
X79484Y271602D01*
X76891Y273100D01*
X73998Y273875D01*
D02*
G37*
G36*
X48998D02*
X46002D01*
X43109Y273100D01*
X40516Y271602D01*
X38398Y269484D01*
X36900Y266891D01*
X36125Y263997D01*
Y261002D01*
X36900Y258109D01*
X38398Y255516D01*
X40516Y253398D01*
X43109Y251900D01*
X46002Y251125D01*
X48998D01*
X51891Y251900D01*
X54484Y253398D01*
X56602Y255516D01*
X58100Y258109D01*
X58875Y261002D01*
Y263997D01*
X58100Y266891D01*
X56602Y269484D01*
X54484Y271602D01*
X51891Y273100D01*
X48998Y273875D01*
D02*
G37*
G36*
X625895Y260000D02*
X624105D01*
X622451Y259315D01*
X621185Y258049D01*
X620500Y256395D01*
Y254605D01*
X621185Y252951D01*
X622451Y251685D01*
X624105Y251000D01*
X625895D01*
X627549Y251685D01*
X628815Y252951D01*
X629500Y254605D01*
Y256395D01*
X628815Y258049D01*
X627549Y259315D01*
X625895Y260000D01*
D02*
G37*
G36*
X955895Y279500D02*
X954105D01*
X952451Y278815D01*
X951185Y277549D01*
X950500Y275895D01*
Y274105D01*
X951185Y272451D01*
X952451Y271185D01*
X953686Y270674D01*
Y269327D01*
X952451Y268815D01*
X951185Y267549D01*
X950500Y265895D01*
Y264105D01*
X951185Y262451D01*
X952451Y261185D01*
X953686Y260674D01*
Y259327D01*
X952451Y258815D01*
X951185Y257549D01*
X950500Y255895D01*
Y254105D01*
X951185Y252451D01*
X952451Y251185D01*
X954105Y250500D01*
X955895D01*
X957549Y251185D01*
X958815Y252451D01*
X959500Y254105D01*
Y255895D01*
X958815Y257549D01*
X957549Y258815D01*
X956313Y259327D01*
Y260674D01*
X957549Y261185D01*
X958815Y262451D01*
X959500Y264105D01*
Y265895D01*
X958815Y267549D01*
X957549Y268815D01*
X956313Y269327D01*
Y270674D01*
X957549Y271185D01*
X958815Y272451D01*
X959500Y274105D01*
Y275895D01*
X958815Y277549D01*
X957549Y278815D01*
X955895Y279500D01*
D02*
G37*
G36*
X745895Y259500D02*
X744105D01*
X742451Y258815D01*
X741185Y257549D01*
X740500Y255895D01*
Y254105D01*
X741185Y252451D01*
X742451Y251185D01*
X744105Y250500D01*
X745895D01*
X747549Y251185D01*
X748815Y252451D01*
X749500Y254105D01*
Y255895D01*
X748815Y257549D01*
X747549Y258815D01*
X745895Y259500D01*
D02*
G37*
G36*
X705895D02*
X704105D01*
X702451Y258815D01*
X701185Y257549D01*
X700500Y255895D01*
Y254105D01*
X701185Y252451D01*
X702451Y251185D01*
X704105Y250500D01*
X705895D01*
X707549Y251185D01*
X708815Y252451D01*
X709500Y254105D01*
Y255895D01*
X708815Y257549D01*
X707549Y258815D01*
X705895Y259500D01*
D02*
G37*
G36*
X335895D02*
X334105D01*
X332451Y258815D01*
X331185Y257549D01*
X330500Y255895D01*
Y254105D01*
X331185Y252451D01*
X332451Y251185D01*
X334105Y250500D01*
X335895D01*
X337549Y251185D01*
X338815Y252451D01*
X339500Y254105D01*
Y255895D01*
X338815Y257549D01*
X337549Y258815D01*
X335895Y259500D01*
D02*
G37*
G36*
X211146Y259500D02*
X209355D01*
X207701Y258815D01*
X206436Y257549D01*
X205751Y255895D01*
Y254105D01*
X206436Y252451D01*
X207701Y251185D01*
X209355Y250500D01*
X211146D01*
X212800Y251185D01*
X214065Y252451D01*
X214750Y254105D01*
Y255895D01*
X214065Y257549D01*
X212800Y258815D01*
X211146Y259500D01*
D02*
G37*
G36*
X171146D02*
X169356D01*
X167702Y258815D01*
X166436Y257549D01*
X165751Y255895D01*
Y254105D01*
X166436Y252451D01*
X167702Y251185D01*
X169356Y250500D01*
X171146D01*
X172800Y251185D01*
X174065Y252451D01*
X174751Y254105D01*
Y255895D01*
X174065Y257549D01*
X172800Y258815D01*
X171146Y259500D01*
D02*
G37*
G36*
X121645Y254495D02*
X119855D01*
X118201Y253810D01*
X116935Y252544D01*
X116250Y250891D01*
Y249100D01*
X116935Y247446D01*
X118201Y246180D01*
X119855Y245495D01*
X121645D01*
X123299Y246180D01*
X124565Y247446D01*
X125250Y249100D01*
Y250891D01*
X124565Y252544D01*
X123299Y253810D01*
X121645Y254495D01*
D02*
G37*
G36*
X1395895Y254250D02*
X1394105D01*
X1392451Y253565D01*
X1391185Y252299D01*
X1390500Y250645D01*
Y248855D01*
X1391185Y247201D01*
X1392451Y245935D01*
X1394105Y245250D01*
X1395895D01*
X1397549Y245935D01*
X1398815Y247201D01*
X1399500Y248855D01*
Y250645D01*
X1398815Y252299D01*
X1397549Y253565D01*
X1395895Y254250D01*
D02*
G37*
G36*
X1365770Y244179D02*
Y240520D01*
X1369429D01*
X1368772Y242105D01*
X1367355Y243522D01*
X1365770Y244179D01*
D02*
G37*
G36*
X1363230D02*
X1361645Y243522D01*
X1360227Y242105D01*
X1359571Y240520D01*
X1363230D01*
Y244179D01*
D02*
G37*
G36*
X725895Y249500D02*
X724105D01*
X722451Y248815D01*
X721185Y247549D01*
X720500Y245895D01*
Y244105D01*
X721185Y242451D01*
X722370Y241266D01*
X722093Y240989D01*
X721436Y239404D01*
X731295D01*
X730638Y240989D01*
X729221Y242407D01*
X728859Y242557D01*
X729500Y244105D01*
Y245895D01*
X728815Y247549D01*
X727549Y248815D01*
X725895Y249500D01*
D02*
G37*
G36*
X1454069Y249415D02*
X1453770D01*
Y238770D01*
X1464415D01*
Y239069D01*
X1463603Y242099D01*
X1462034Y244816D01*
X1459816Y247034D01*
X1457099Y248603D01*
X1454069Y249415D01*
D02*
G37*
G36*
X1451230D02*
X1450931D01*
X1447901Y248603D01*
X1445184Y247034D01*
X1442966Y244816D01*
X1441397Y242099D01*
X1440585Y239069D01*
Y238770D01*
X1451230D01*
Y249415D01*
D02*
G37*
G36*
X940895Y244500D02*
X939105D01*
X937451Y243815D01*
X936185Y242549D01*
X935500Y240895D01*
Y239105D01*
X936185Y237451D01*
X937451Y236185D01*
X939105Y235500D01*
X940895D01*
X942549Y236185D01*
X943815Y237451D01*
X944500Y239105D01*
Y240895D01*
X943815Y242549D01*
X942549Y243815D01*
X940895Y244500D01*
D02*
G37*
G36*
X1369429Y237980D02*
X1365770D01*
Y234321D01*
X1367355Y234977D01*
X1368772Y236395D01*
X1369429Y237980D01*
D02*
G37*
G36*
X1363230D02*
X1359571D01*
X1360227Y236395D01*
X1361645Y234977D01*
X1363230Y234321D01*
Y237980D01*
D02*
G37*
G36*
X731295Y236864D02*
X727636D01*
Y233205D01*
X729221Y233862D01*
X730638Y235279D01*
X731295Y236864D01*
D02*
G37*
G36*
X725096D02*
X721436D01*
X722093Y235279D01*
X723511Y233862D01*
X725096Y233205D01*
Y236864D01*
D02*
G37*
G36*
X876270Y234929D02*
Y231270D01*
X879929D01*
X879273Y232855D01*
X877855Y234273D01*
X876270Y234929D01*
D02*
G37*
G36*
X873730D02*
X872145Y234273D01*
X870727Y232855D01*
X870071Y231270D01*
X873730D01*
Y234929D01*
D02*
G37*
G36*
X1251270Y229929D02*
Y226270D01*
X1254929D01*
X1254273Y227855D01*
X1252855Y229273D01*
X1251270Y229929D01*
D02*
G37*
G36*
X1248730D02*
X1247145Y229273D01*
X1245727Y227855D01*
X1245071Y226270D01*
X1248730D01*
Y229929D01*
D02*
G37*
G36*
X1211270D02*
Y226270D01*
X1214929D01*
X1214273Y227855D01*
X1212855Y229273D01*
X1211270Y229929D01*
D02*
G37*
G36*
X1208730D02*
X1207145Y229273D01*
X1205727Y227855D01*
X1205071Y226270D01*
X1208730D01*
Y229929D01*
D02*
G37*
G36*
X1428997Y248875D02*
X1426002D01*
X1423109Y248100D01*
X1420516Y246602D01*
X1418398Y244484D01*
X1416900Y241891D01*
X1416125Y238998D01*
Y236003D01*
X1416900Y233109D01*
X1418398Y230516D01*
X1420516Y228398D01*
X1423109Y226900D01*
X1426002Y226125D01*
X1428997D01*
X1431891Y226900D01*
X1434484Y228398D01*
X1436602Y230516D01*
X1438100Y233109D01*
X1438875Y236003D01*
Y238998D01*
X1438100Y241891D01*
X1436602Y244484D01*
X1434484Y246602D01*
X1431891Y248100D01*
X1428997Y248875D01*
D02*
G37*
G36*
X73998Y248875D02*
X71002D01*
X68109Y248100D01*
X65516Y246602D01*
X63398Y244484D01*
X61900Y241891D01*
X61125Y238997D01*
Y236002D01*
X61900Y233109D01*
X63398Y230516D01*
X65516Y228398D01*
X68109Y226900D01*
X71002Y226125D01*
X73998D01*
X76891Y226900D01*
X79484Y228398D01*
X81602Y230516D01*
X83100Y233109D01*
X83875Y236002D01*
Y238997D01*
X83100Y241891D01*
X81602Y244484D01*
X79484Y246602D01*
X76891Y248100D01*
X73998Y248875D01*
D02*
G37*
G36*
X48998D02*
X46002D01*
X43109Y248100D01*
X40516Y246602D01*
X38398Y244484D01*
X36900Y241891D01*
X36125Y238997D01*
Y236002D01*
X36900Y233109D01*
X38398Y230516D01*
X40516Y228398D01*
X43109Y226900D01*
X46002Y226125D01*
X48998D01*
X51891Y226900D01*
X54484Y228398D01*
X56602Y230516D01*
X58100Y233109D01*
X58875Y236002D01*
Y238997D01*
X58100Y241891D01*
X56602Y244484D01*
X54484Y246602D01*
X51891Y248100D01*
X48998Y248875D01*
D02*
G37*
G36*
X1464415Y236230D02*
X1453770D01*
Y225585D01*
X1454069D01*
X1457099Y226397D01*
X1459816Y227966D01*
X1462034Y230184D01*
X1463603Y232901D01*
X1464415Y235931D01*
Y236230D01*
D02*
G37*
G36*
X1451230D02*
X1440585D01*
Y235931D01*
X1441397Y232901D01*
X1442966Y230184D01*
X1445184Y227966D01*
X1447901Y226397D01*
X1450931Y225585D01*
X1451230D01*
Y236230D01*
D02*
G37*
G36*
X485895Y234500D02*
X484105D01*
X482451Y233815D01*
X481185Y232549D01*
X480500Y230895D01*
Y229105D01*
X481185Y227451D01*
X482451Y226185D01*
X484105Y225500D01*
X485895D01*
X487549Y226185D01*
X488815Y227451D01*
X489500Y229105D01*
Y230895D01*
X488815Y232549D01*
X487549Y233815D01*
X485895Y234500D01*
D02*
G37*
G36*
X879929Y228730D02*
X876270D01*
Y225071D01*
X877855Y225727D01*
X879273Y227145D01*
X879929Y228730D01*
D02*
G37*
G36*
X873730D02*
X870071D01*
X870727Y227145D01*
X872145Y225727D01*
X873730Y225071D01*
Y228730D01*
D02*
G37*
G36*
X1291270Y224930D02*
Y221270D01*
X1294929D01*
X1294273Y222855D01*
X1292855Y224273D01*
X1291270Y224930D01*
D02*
G37*
G36*
X1288730D02*
X1287145Y224273D01*
X1285727Y222855D01*
X1285071Y221270D01*
X1288730D01*
Y224930D01*
D02*
G37*
G36*
X395895Y229500D02*
X394105D01*
X392451Y228815D01*
X391185Y227549D01*
X390500Y225895D01*
Y224105D01*
X391185Y222451D01*
X392451Y221185D01*
X394105Y220500D01*
X395895D01*
X397549Y221185D01*
X398815Y222451D01*
X399500Y224105D01*
Y225895D01*
X398815Y227549D01*
X397549Y228815D01*
X395895Y229500D01*
D02*
G37*
G36*
X1254929Y223730D02*
X1251270D01*
Y220071D01*
X1252855Y220727D01*
X1254273Y222145D01*
X1254929Y223730D01*
D02*
G37*
G36*
X1248730D02*
X1245071D01*
X1245727Y222145D01*
X1247145Y220727D01*
X1248730Y220071D01*
Y223730D01*
D02*
G37*
G36*
X1214929D02*
X1211270D01*
Y220071D01*
X1212855Y220727D01*
X1214273Y222145D01*
X1214929Y223730D01*
D02*
G37*
G36*
X1208730D02*
X1205071D01*
X1205727Y222145D01*
X1207145Y220727D01*
X1208730Y220071D01*
Y223730D01*
D02*
G37*
G36*
X1190895Y225000D02*
X1189105D01*
X1187451Y224315D01*
X1186185Y223049D01*
X1185500Y221395D01*
Y219605D01*
X1186185Y217951D01*
X1187451Y216685D01*
X1189105Y216000D01*
X1190895D01*
X1192549Y216685D01*
X1193815Y217951D01*
X1194500Y219605D01*
Y221395D01*
X1193815Y223049D01*
X1192549Y224315D01*
X1190895Y225000D01*
D02*
G37*
G36*
X1270895Y224500D02*
X1269105D01*
X1267451Y223815D01*
X1266185Y222549D01*
X1265500Y220895D01*
Y219105D01*
X1266185Y217451D01*
X1267451Y216185D01*
X1269105Y215500D01*
X1270895D01*
X1272549Y216185D01*
X1273815Y217451D01*
X1274500Y219105D01*
Y220895D01*
X1273815Y222549D01*
X1272549Y223815D01*
X1270895Y224500D01*
D02*
G37*
G36*
X1230895D02*
X1229105D01*
X1227451Y223815D01*
X1226185Y222549D01*
X1225500Y220895D01*
Y219105D01*
X1226185Y217451D01*
X1227451Y216185D01*
X1229105Y215500D01*
X1230895D01*
X1232549Y216185D01*
X1233815Y217451D01*
X1234500Y219105D01*
Y220895D01*
X1233815Y222549D01*
X1232549Y223815D01*
X1230895Y224500D01*
D02*
G37*
G36*
X744127D02*
X742337D01*
X740683Y223815D01*
X739417Y222549D01*
X738732Y220895D01*
Y219105D01*
X739417Y217451D01*
X740683Y216185D01*
X742337Y215500D01*
X744127D01*
X745781Y216185D01*
X747047Y217451D01*
X747732Y219105D01*
Y220895D01*
X747047Y222549D01*
X745781Y223815D01*
X744127Y224500D01*
D02*
G37*
G36*
X970895Y224500D02*
X969105D01*
X967451Y223815D01*
X966185Y222549D01*
X965500Y220895D01*
Y219105D01*
X966185Y217451D01*
X967451Y216185D01*
X969105Y215500D01*
X970895D01*
X972549Y216185D01*
X973815Y217451D01*
X974500Y219105D01*
Y220895D01*
X973815Y222549D01*
X972549Y223815D01*
X970895Y224500D01*
D02*
G37*
G36*
X885895D02*
X884105D01*
X882451Y223815D01*
X881185Y222549D01*
X880500Y220895D01*
Y219105D01*
X881185Y217451D01*
X882451Y216185D01*
X884105Y215500D01*
X885895D01*
X887549Y216185D01*
X888815Y217451D01*
X889500Y219105D01*
Y220895D01*
X888815Y222549D01*
X887549Y223815D01*
X885895Y224500D01*
D02*
G37*
G36*
X325895D02*
X324105D01*
X322451Y223815D01*
X321185Y222549D01*
X320500Y220895D01*
Y219105D01*
X321185Y217451D01*
X322451Y216185D01*
X324105Y215500D01*
X325895D01*
X327549Y216185D01*
X328815Y217451D01*
X329500Y219105D01*
Y220895D01*
X328815Y222549D01*
X327549Y223815D01*
X325895Y224500D01*
D02*
G37*
G36*
X1294929Y218730D02*
X1291270D01*
Y215071D01*
X1292855Y215728D01*
X1294273Y217145D01*
X1294929Y218730D01*
D02*
G37*
G36*
X1288730D02*
X1285071D01*
X1285727Y217145D01*
X1287145Y215728D01*
X1288730Y215071D01*
Y218730D01*
D02*
G37*
G36*
X625895Y219500D02*
X624105D01*
X622451Y218815D01*
X621185Y217549D01*
X620500Y215895D01*
Y214105D01*
X621185Y212451D01*
X622451Y211185D01*
X624105Y210500D01*
X625895D01*
X627549Y211185D01*
X628815Y212451D01*
X629500Y214105D01*
Y215895D01*
X628815Y217549D01*
X627549Y218815D01*
X625895Y219500D01*
D02*
G37*
G36*
X490895D02*
X489105D01*
X487451Y218815D01*
X486185Y217549D01*
X485500Y215895D01*
Y214105D01*
X486185Y212451D01*
X487451Y211185D01*
X489105Y210500D01*
X490895D01*
X492549Y211185D01*
X493815Y212451D01*
X494500Y214105D01*
Y215895D01*
X493815Y217549D01*
X492549Y218815D01*
X490895Y219500D01*
D02*
G37*
G36*
X1447836Y208363D02*
Y204704D01*
X1451495D01*
X1450838Y206289D01*
X1449421Y207707D01*
X1447836Y208363D01*
D02*
G37*
G36*
X1445296D02*
X1443711Y207707D01*
X1442293Y206289D01*
X1441637Y204704D01*
X1445296D01*
Y208363D01*
D02*
G37*
G36*
X326270Y204929D02*
Y201270D01*
X329929D01*
X329273Y202855D01*
X327855Y204273D01*
X326270Y204929D01*
D02*
G37*
G36*
X323730D02*
X322145Y204273D01*
X320727Y202855D01*
X320071Y201270D01*
X323730D01*
Y204929D01*
D02*
G37*
G36*
X845895Y209500D02*
X844105D01*
X842451Y208815D01*
X841185Y207549D01*
X840500Y205895D01*
Y204105D01*
X841185Y202451D01*
X842451Y201185D01*
X844105Y200500D01*
X845895D01*
X847549Y201185D01*
X848815Y202451D01*
X849500Y204105D01*
Y205895D01*
X848815Y207549D01*
X847549Y208815D01*
X845895Y209500D01*
D02*
G37*
G36*
X1451495Y202164D02*
X1447836D01*
Y198505D01*
X1449421Y199161D01*
X1450838Y200579D01*
X1451495Y202164D01*
D02*
G37*
G36*
X1445296D02*
X1441637D01*
X1442293Y200579D01*
X1443711Y199161D01*
X1445296Y198505D01*
Y202164D01*
D02*
G37*
G36*
X820895Y205000D02*
X819105D01*
X817451Y204315D01*
X816185Y203049D01*
X815500Y201395D01*
Y199605D01*
X816185Y197951D01*
X817451Y196685D01*
X819105Y196000D01*
X820895D01*
X822549Y196685D01*
X823815Y197951D01*
X824500Y199605D01*
Y201395D01*
X823815Y203049D01*
X822549Y204315D01*
X820895Y205000D01*
D02*
G37*
G36*
X160895Y214500D02*
X159105D01*
X157451Y213815D01*
X156185Y212549D01*
X155500Y210895D01*
Y209105D01*
X156185Y207451D01*
X157451Y206185D01*
X158687Y205673D01*
Y204327D01*
X157451Y203815D01*
X156185Y202549D01*
X155500Y200895D01*
Y199105D01*
X156185Y197451D01*
X157451Y196185D01*
X159105Y195500D01*
X160895D01*
X162549Y196185D01*
X163815Y197451D01*
X164500Y199105D01*
Y200895D01*
X163815Y202549D01*
X162549Y203815D01*
X161314Y204327D01*
Y205673D01*
X162549Y206185D01*
X163815Y207451D01*
X164500Y209105D01*
Y210895D01*
X163815Y212549D01*
X162549Y213815D01*
X160895Y214500D01*
D02*
G37*
G36*
X805895Y224500D02*
X804105D01*
X802451Y223815D01*
X801185Y222549D01*
X800500Y220895D01*
Y219105D01*
X801185Y217451D01*
X802451Y216185D01*
X803686Y215673D01*
Y214327D01*
X802451Y213815D01*
X801185Y212549D01*
X800500Y210895D01*
Y209105D01*
X801185Y207451D01*
X802451Y206185D01*
X803687Y205673D01*
Y204327D01*
X802451Y203815D01*
X801185Y202549D01*
X800500Y200895D01*
Y199105D01*
X801185Y197451D01*
X802451Y196185D01*
X804105Y195500D01*
X805895D01*
X807549Y196185D01*
X808815Y197451D01*
X809500Y199105D01*
Y200895D01*
X808815Y202549D01*
X807549Y203815D01*
X806313Y204327D01*
Y205673D01*
X807549Y206185D01*
X808815Y207451D01*
X809500Y209105D01*
Y210895D01*
X808815Y212549D01*
X807549Y213815D01*
X806314Y214327D01*
Y215673D01*
X807549Y216185D01*
X808815Y217451D01*
X809500Y219105D01*
Y220895D01*
X808815Y222549D01*
X807549Y223815D01*
X805895Y224500D01*
D02*
G37*
G36*
X740895Y204500D02*
X739105D01*
X737451Y203815D01*
X736185Y202549D01*
X735500Y200895D01*
Y199105D01*
X736185Y197451D01*
X737451Y196185D01*
X739105Y195500D01*
X740895D01*
X742549Y196185D01*
X743815Y197451D01*
X744500Y199105D01*
Y200895D01*
X743815Y202549D01*
X742549Y203815D01*
X740895Y204500D01*
D02*
G37*
G36*
X35895D02*
X34105D01*
X32451Y203815D01*
X31185Y202549D01*
X30500Y200895D01*
Y199105D01*
X31185Y197451D01*
X32451Y196185D01*
X34105Y195500D01*
X35895D01*
X37549Y196185D01*
X38815Y197451D01*
X39500Y199105D01*
Y200895D01*
X38815Y202549D01*
X37549Y203815D01*
X35895Y204500D01*
D02*
G37*
G36*
X329929Y198730D02*
X326270D01*
Y195071D01*
X327855Y195727D01*
X329273Y197145D01*
X329929Y198730D01*
D02*
G37*
G36*
X323730D02*
X320071D01*
X320727Y197145D01*
X322145Y195727D01*
X323730Y195071D01*
Y198730D01*
D02*
G37*
G36*
X1390895Y199500D02*
X1389105D01*
X1387451Y198815D01*
X1386185Y197549D01*
X1385500Y195895D01*
Y194105D01*
X1386185Y192451D01*
X1387451Y191185D01*
X1389105Y190500D01*
X1390895D01*
X1392549Y191185D01*
X1393815Y192451D01*
X1394500Y194105D01*
Y195895D01*
X1393815Y197549D01*
X1392549Y198815D01*
X1390895Y199500D01*
D02*
G37*
G36*
X945895D02*
X944105D01*
X942451Y198815D01*
X941185Y197549D01*
X940500Y195895D01*
Y194105D01*
X941185Y192451D01*
X942451Y191185D01*
X944105Y190500D01*
X945895D01*
X947549Y191185D01*
X948815Y192451D01*
X949500Y194105D01*
Y195895D01*
X948815Y197549D01*
X947549Y198815D01*
X945895Y199500D01*
D02*
G37*
G36*
X723972Y207190D02*
X722182D01*
X720528Y206505D01*
X719262Y205239D01*
X718577Y203585D01*
Y201795D01*
X719262Y200141D01*
X720528Y198876D01*
X722182Y198190D01*
X723972D01*
X724475Y198399D01*
X725194Y197322D01*
X725115Y197242D01*
X724347Y195390D01*
Y193385D01*
X725115Y191532D01*
X726532Y190114D01*
X728385Y189347D01*
X730390D01*
X732242Y190114D01*
X733660Y191532D01*
X734427Y193385D01*
Y195390D01*
X733660Y197242D01*
X732242Y198660D01*
X730390Y199427D01*
X728385D01*
X727684Y199137D01*
X727002Y200002D01*
X726913Y200192D01*
X727577Y201795D01*
Y203585D01*
X726892Y205239D01*
X725626Y206505D01*
X723972Y207190D01*
D02*
G37*
G36*
X810144Y195000D02*
X808353D01*
X806699Y194315D01*
X805434Y193049D01*
X804749Y191395D01*
Y189605D01*
X805434Y187951D01*
X806699Y186685D01*
X808353Y186000D01*
X810144D01*
X811797Y186685D01*
X813063Y187951D01*
X813748Y189605D01*
Y191395D01*
X813063Y193049D01*
X811797Y194315D01*
X810144Y195000D01*
D02*
G37*
G36*
X830895Y189500D02*
X829105D01*
X827451Y188815D01*
X826185Y187549D01*
X825500Y185895D01*
Y184105D01*
X826185Y182451D01*
X827451Y181185D01*
X829105Y180500D01*
X830895D01*
X832549Y181185D01*
X833815Y182451D01*
X834500Y184105D01*
Y185895D01*
X833815Y187549D01*
X832549Y188815D01*
X830895Y189500D01*
D02*
G37*
G36*
X766645D02*
X764855D01*
X763201Y188815D01*
X761935Y187549D01*
X761250Y185895D01*
Y184105D01*
X761935Y182451D01*
X763201Y181185D01*
X764855Y180500D01*
X766645D01*
X768299Y181185D01*
X769565Y182451D01*
X770250Y184105D01*
Y185895D01*
X769565Y187549D01*
X768299Y188815D01*
X766645Y189500D01*
D02*
G37*
G36*
X1170895Y189500D02*
X1169105D01*
X1167451Y188815D01*
X1166185Y187549D01*
X1165500Y185895D01*
Y184105D01*
X1166185Y182451D01*
X1167451Y181185D01*
X1169105Y180500D01*
X1170895D01*
X1172549Y181185D01*
X1173815Y182451D01*
X1174500Y184105D01*
Y185895D01*
X1173815Y187549D01*
X1172549Y188815D01*
X1170895Y189500D01*
D02*
G37*
G36*
X845895Y188000D02*
X844105D01*
X842451Y187315D01*
X841185Y186049D01*
X840500Y184395D01*
Y182605D01*
X841185Y180951D01*
X842451Y179685D01*
X844105Y179000D01*
X845895D01*
X847549Y179685D01*
X848815Y180951D01*
X849500Y182605D01*
Y184395D01*
X848815Y186049D01*
X847549Y187315D01*
X845895Y188000D01*
D02*
G37*
G36*
X818269Y186874D02*
X816479D01*
X814825Y186189D01*
X813559Y184923D01*
X812874Y183269D01*
Y181479D01*
X813559Y179825D01*
X814825Y178559D01*
X816479Y177874D01*
X818269D01*
X819923Y178559D01*
X821189Y179825D01*
X821874Y181479D01*
Y183269D01*
X821189Y184923D01*
X819923Y186189D01*
X818269Y186874D01*
D02*
G37*
G36*
X776270Y179929D02*
Y176270D01*
X779929D01*
X779273Y177855D01*
X777855Y179273D01*
X776270Y179929D01*
D02*
G37*
G36*
X773730D02*
X772145Y179273D01*
X770727Y177855D01*
X770071Y176270D01*
X773730D01*
Y179929D01*
D02*
G37*
G36*
X1070895Y184500D02*
X1069105D01*
X1067451Y183815D01*
X1066185Y182549D01*
X1065500Y180895D01*
Y179105D01*
X1066185Y177451D01*
X1067451Y176185D01*
X1069105Y175500D01*
X1070895D01*
X1072549Y176185D01*
X1073815Y177451D01*
X1074500Y179105D01*
Y180895D01*
X1073815Y182549D01*
X1072549Y183815D01*
X1070895Y184500D01*
D02*
G37*
G36*
X995895Y184500D02*
X994105D01*
X992451Y183815D01*
X991185Y182549D01*
X990500Y180895D01*
Y179105D01*
X991185Y177451D01*
X992451Y176185D01*
X994105Y175500D01*
X995895D01*
X997549Y176185D01*
X998815Y177451D01*
X999500Y179105D01*
Y180895D01*
X998815Y182549D01*
X997549Y183815D01*
X995895Y184500D01*
D02*
G37*
G36*
X945895Y184000D02*
X944105D01*
X942451Y183315D01*
X941185Y182049D01*
X940500Y180395D01*
Y178605D01*
X941185Y176951D01*
X942451Y175685D01*
X944105Y175000D01*
X945895D01*
X947549Y175685D01*
X948815Y176951D01*
X949500Y178605D01*
Y180395D01*
X948815Y182049D01*
X947549Y183315D01*
X945895Y184000D01*
D02*
G37*
G36*
X865895Y184500D02*
X864105D01*
X862451Y183815D01*
X861185Y182549D01*
X860500Y180895D01*
Y179105D01*
X861185Y177451D01*
X862451Y176185D01*
X864105Y175500D01*
X865895D01*
X867549Y176185D01*
X868815Y177451D01*
X869261Y178529D01*
X869862Y178566D01*
X870584Y178403D01*
X871185Y176951D01*
X872451Y175685D01*
X874105Y175000D01*
X875895D01*
X877549Y175685D01*
X878815Y176951D01*
X879500Y178605D01*
Y180395D01*
X878815Y182049D01*
X877549Y183315D01*
X875895Y184000D01*
X874105D01*
X872451Y183315D01*
X871185Y182049D01*
X870739Y180971D01*
X870138Y180934D01*
X869416Y181097D01*
X868815Y182549D01*
X867549Y183815D01*
X865895Y184500D01*
D02*
G37*
G36*
X1424545Y183150D02*
X1422755D01*
X1421101Y182465D01*
X1419835Y181199D01*
X1419150Y179545D01*
Y177755D01*
X1419835Y176101D01*
X1421101Y174835D01*
X1422755Y174150D01*
X1424545D01*
X1426199Y174835D01*
X1427465Y176101D01*
X1428150Y177755D01*
Y179545D01*
X1427465Y181199D01*
X1426199Y182465D01*
X1424545Y183150D01*
D02*
G37*
G36*
X779929Y173730D02*
X776270D01*
Y170071D01*
X777855Y170727D01*
X779273Y172145D01*
X779929Y173730D01*
D02*
G37*
G36*
X773730D02*
X770071D01*
X770727Y172145D01*
X772145Y170727D01*
X773730Y170071D01*
Y173730D01*
D02*
G37*
G36*
X576270Y169929D02*
Y166270D01*
X579929D01*
X579273Y167855D01*
X577855Y169273D01*
X576270Y169929D01*
D02*
G37*
G36*
X573730D02*
X572145Y169273D01*
X570727Y167855D01*
X570071Y166270D01*
X573730D01*
Y169929D01*
D02*
G37*
G36*
X310895Y174500D02*
X309105D01*
X307451Y173815D01*
X306185Y172549D01*
X305500Y170895D01*
Y169105D01*
X306185Y167451D01*
X307451Y166185D01*
X309105Y165500D01*
X310895D01*
X312549Y166185D01*
X313815Y167451D01*
X314500Y169105D01*
Y170895D01*
X313815Y172549D01*
X312549Y173815D01*
X310895Y174500D01*
D02*
G37*
G36*
X504615Y171772D02*
X502825D01*
X501171Y171087D01*
X499905Y169821D01*
X499220Y168167D01*
Y166377D01*
X499905Y164723D01*
X501171Y163457D01*
X502825Y162772D01*
X504615D01*
X506269Y163457D01*
X507535Y164723D01*
X508220Y166377D01*
Y168167D01*
X507535Y169821D01*
X506269Y171087D01*
X504615Y171772D01*
D02*
G37*
G36*
X425895Y169500D02*
X424105D01*
X422451Y168815D01*
X421185Y167549D01*
X420500Y165895D01*
Y164105D01*
X421185Y162451D01*
X422451Y161185D01*
X424105Y160500D01*
X425895D01*
X427549Y161185D01*
X428815Y162451D01*
X429500Y164105D01*
Y165895D01*
X428815Y167549D01*
X427549Y168815D01*
X425895Y169500D01*
D02*
G37*
G36*
X595895Y169500D02*
X594105D01*
X592451Y168815D01*
X591185Y167549D01*
X590500Y165895D01*
Y164105D01*
X591185Y162451D01*
X592451Y161185D01*
X594105Y160500D01*
X595895D01*
X597549Y161185D01*
X598815Y162451D01*
X599500Y164105D01*
Y165895D01*
X598815Y167549D01*
X597549Y168815D01*
X595895Y169500D01*
D02*
G37*
G36*
X260895D02*
X259105D01*
X257451Y168815D01*
X256185Y167549D01*
X255500Y165895D01*
Y164105D01*
X256185Y162451D01*
X257451Y161185D01*
X259105Y160500D01*
X260895D01*
X262549Y161185D01*
X263815Y162451D01*
X264500Y164105D01*
Y165895D01*
X263815Y167549D01*
X262549Y168815D01*
X260895Y169500D01*
D02*
G37*
G36*
X1350895Y169500D02*
X1349105D01*
X1347451Y168815D01*
X1346185Y167549D01*
X1345500Y165895D01*
Y164105D01*
X1346185Y162451D01*
X1347451Y161185D01*
X1349105Y160500D01*
X1350895D01*
X1352549Y161185D01*
X1353815Y162451D01*
X1354500Y164105D01*
Y165895D01*
X1353815Y167549D01*
X1352549Y168815D01*
X1350895Y169500D01*
D02*
G37*
G36*
X579929Y163730D02*
X576270D01*
Y160071D01*
X577855Y160727D01*
X579273Y162145D01*
X579929Y163730D01*
D02*
G37*
G36*
X573730D02*
X570071D01*
X570727Y162145D01*
X572145Y160727D01*
X573730Y160071D01*
Y163730D01*
D02*
G37*
G36*
X390895Y166500D02*
X389105D01*
X387451Y165815D01*
X386185Y164549D01*
X385500Y162895D01*
Y161105D01*
X386185Y159451D01*
X387451Y158185D01*
X389105Y157500D01*
X390895D01*
X392549Y158185D01*
X393815Y159451D01*
X394500Y161105D01*
Y162895D01*
X393815Y164549D01*
X392549Y165815D01*
X390895Y166500D01*
D02*
G37*
G36*
X676270Y159929D02*
Y156270D01*
X679929D01*
X679273Y157855D01*
X677855Y159273D01*
X676270Y159929D01*
D02*
G37*
G36*
X673730D02*
X672145Y159273D01*
X670727Y157855D01*
X670071Y156270D01*
X673730D01*
Y159929D01*
D02*
G37*
G36*
X732920Y159806D02*
Y156147D01*
X736579D01*
X735922Y157732D01*
X734504Y159150D01*
X732920Y159806D01*
D02*
G37*
G36*
X190895Y164500D02*
X189105D01*
X187451Y163815D01*
X186185Y162549D01*
X185500Y160895D01*
Y159105D01*
X186185Y157451D01*
X187451Y156185D01*
X189105Y155500D01*
X190895D01*
X192549Y156185D01*
X193815Y157451D01*
X194500Y159105D01*
Y160895D01*
X193815Y162549D01*
X192549Y163815D01*
X190895Y164500D01*
D02*
G37*
G36*
X756270Y154429D02*
Y150770D01*
X759929D01*
X759273Y152355D01*
X757855Y153773D01*
X756270Y154429D01*
D02*
G37*
G36*
X753730D02*
X752145Y153773D01*
X750727Y152355D01*
X750071Y150770D01*
X753730D01*
Y154429D01*
D02*
G37*
G36*
X280895Y159500D02*
X279105D01*
X277451Y158815D01*
X276185Y157549D01*
X275500Y155895D01*
Y154105D01*
X276185Y152451D01*
X277451Y151185D01*
X279105Y150500D01*
X280895D01*
X282549Y151185D01*
X283815Y152451D01*
X284500Y154105D01*
Y155895D01*
X283815Y157549D01*
X282549Y158815D01*
X280895Y159500D01*
D02*
G37*
G36*
X679929Y153730D02*
X676270D01*
Y150071D01*
X677855Y150727D01*
X679273Y152145D01*
X679929Y153730D01*
D02*
G37*
G36*
X673730D02*
X670071D01*
X670727Y152145D01*
X672145Y150727D01*
X673730Y150071D01*
Y153730D01*
D02*
G37*
G36*
X730380Y159806D02*
X728795Y159150D01*
X727377Y157732D01*
X726610Y155880D01*
Y154427D01*
X725805D01*
X724151Y153742D01*
X722885Y152477D01*
X722200Y150822D01*
Y149032D01*
X722885Y147378D01*
X724151Y146112D01*
X725805Y145427D01*
X727595D01*
X729249Y146112D01*
X730515Y147378D01*
X731200Y149032D01*
Y149837D01*
X732652D01*
X734504Y150604D01*
X735922Y152022D01*
X736579Y153607D01*
X731650D01*
Y154877D01*
X730380D01*
Y159806D01*
D02*
G37*
G36*
X1015895Y154000D02*
X1014105D01*
X1012451Y153315D01*
X1011185Y152049D01*
X1010500Y150395D01*
Y148605D01*
X1011185Y146951D01*
X1012451Y145685D01*
X1014105Y145000D01*
X1015895D01*
X1017549Y145685D01*
X1018815Y146951D01*
X1019500Y148605D01*
Y150395D01*
X1018815Y152049D01*
X1017549Y153315D01*
X1015895Y154000D01*
D02*
G37*
G36*
X1100895Y154000D02*
X1099105D01*
X1097451Y153315D01*
X1096185Y152049D01*
X1095500Y150395D01*
Y148605D01*
X1096185Y146951D01*
X1097451Y145685D01*
X1099105Y145000D01*
X1100895D01*
X1102549Y145685D01*
X1103815Y146951D01*
X1104500Y148605D01*
Y150395D01*
X1103815Y152049D01*
X1102549Y153315D01*
X1100895Y154000D01*
D02*
G37*
G36*
X753730Y148230D02*
X750071D01*
X750727Y146645D01*
X752145Y145227D01*
X753730Y144571D01*
Y148230D01*
D02*
G37*
G36*
X1478820Y150990D02*
X1478670D01*
Y141470D01*
X1488190D01*
Y141621D01*
X1487455Y144365D01*
X1486034Y146825D01*
X1484025Y148834D01*
X1481565Y150255D01*
X1478820Y150990D01*
D02*
G37*
G36*
X1476130D02*
X1475979D01*
X1473235Y150255D01*
X1470775Y148834D01*
X1468766Y146825D01*
X1467345Y144365D01*
X1466610Y141621D01*
Y141470D01*
X1476130D01*
Y150990D01*
D02*
G37*
G36*
X1176725Y151047D02*
X1173870D01*
Y141470D01*
X1183447D01*
Y144325D01*
X1183218Y146065D01*
X1182547Y147686D01*
X1181479Y149079D01*
X1180086Y150147D01*
X1178465Y150818D01*
X1176725Y151047D01*
D02*
G37*
G36*
X1171330D02*
X1168475D01*
X1166735Y150818D01*
X1165114Y150147D01*
X1163721Y149079D01*
X1162653Y147686D01*
X1161982Y146065D01*
X1161752Y144325D01*
Y141470D01*
X1171330D01*
Y151047D01*
D02*
G37*
G36*
X795895Y149500D02*
X794105D01*
X792451Y148815D01*
X791185Y147549D01*
X790500Y145895D01*
Y144105D01*
X791185Y142451D01*
X792451Y141185D01*
X794105Y140500D01*
X795895D01*
X797549Y141185D01*
X798815Y142451D01*
X799500Y144105D01*
Y145895D01*
X798815Y147549D01*
X797549Y148815D01*
X795895Y149500D01*
D02*
G37*
G36*
X695895Y149500D02*
X694105D01*
X692451Y148815D01*
X691185Y147549D01*
X690500Y145895D01*
Y144105D01*
X691185Y142451D01*
X692451Y141185D01*
X694105Y140500D01*
X695895D01*
X697549Y141185D01*
X698815Y142451D01*
X699500Y144105D01*
Y145895D01*
X698815Y147549D01*
X697549Y148815D01*
X695895Y149500D01*
D02*
G37*
G36*
X425900Y148500D02*
X424109D01*
X422455Y147815D01*
X421190Y146550D01*
X420504Y144896D01*
Y143105D01*
X421190Y141451D01*
X422455Y140186D01*
X424109Y139501D01*
X425900D01*
X427553Y140186D01*
X428819Y141451D01*
X429505Y143105D01*
Y144896D01*
X428819Y146550D01*
X427553Y147815D01*
X425900Y148500D01*
D02*
G37*
G36*
X445895Y148500D02*
X444105D01*
X442451Y147815D01*
X441185Y146549D01*
X440500Y144895D01*
Y143105D01*
X441185Y141451D01*
X442451Y140185D01*
X444105Y139500D01*
X445895D01*
X447549Y140185D01*
X448815Y141451D01*
X449500Y143105D01*
Y144895D01*
X448815Y146549D01*
X447549Y147815D01*
X445895Y148500D01*
D02*
G37*
G36*
X405895D02*
X404105D01*
X402451Y147815D01*
X401185Y146549D01*
X400500Y144895D01*
Y143105D01*
X401185Y141451D01*
X402451Y140185D01*
X404105Y139500D01*
X405895D01*
X407549Y140185D01*
X408815Y141451D01*
X409500Y143105D01*
Y144895D01*
X408815Y146549D01*
X407549Y147815D01*
X405895Y148500D01*
D02*
G37*
G36*
X759929Y148230D02*
X756270D01*
Y144494D01*
X756949Y143477D01*
X756087Y142615D01*
X755250Y140594D01*
Y138406D01*
X756087Y136384D01*
X757635Y134837D01*
X759656Y134000D01*
X761844D01*
X763866Y134837D01*
X765413Y136384D01*
X766250Y138406D01*
Y140594D01*
X765413Y142615D01*
X763866Y144163D01*
X761844Y145000D01*
X759656D01*
X759259Y144836D01*
X758540Y145912D01*
X759273Y146645D01*
X759929Y148230D01*
D02*
G37*
G36*
X720344Y145000D02*
X718156D01*
X716134Y144163D01*
X714587Y142615D01*
X713750Y140594D01*
Y138406D01*
X714587Y136384D01*
X716134Y134837D01*
X718156Y134000D01*
X720344D01*
X722365Y134837D01*
X723913Y136384D01*
X724750Y138406D01*
Y140594D01*
X723913Y142615D01*
X722365Y144163D01*
X720344Y145000D01*
D02*
G37*
G36*
X281270Y134929D02*
Y131270D01*
X284929D01*
X284273Y132855D01*
X282855Y134272D01*
X281270Y134929D01*
D02*
G37*
G36*
X278730D02*
X277145Y134272D01*
X275727Y132855D01*
X275071Y131270D01*
X278730D01*
Y134929D01*
D02*
G37*
G36*
X1453349Y150450D02*
X1450651D01*
X1448044Y149752D01*
X1445706Y148402D01*
X1443798Y146494D01*
X1442448Y144156D01*
X1441750Y141549D01*
Y138851D01*
X1442448Y136244D01*
X1443798Y133906D01*
X1445706Y131998D01*
X1448044Y130648D01*
X1450651Y129950D01*
X1453349D01*
X1455956Y130648D01*
X1458294Y131998D01*
X1460202Y133906D01*
X1461552Y136244D01*
X1462250Y138851D01*
Y141549D01*
X1461552Y144156D01*
X1460202Y146494D01*
X1458294Y148402D01*
X1455956Y149752D01*
X1453349Y150450D01*
D02*
G37*
G36*
X1427949D02*
X1425251D01*
X1422644Y149752D01*
X1420306Y148402D01*
X1418398Y146494D01*
X1417048Y144156D01*
X1416350Y141549D01*
Y138851D01*
X1417048Y136244D01*
X1418398Y133906D01*
X1420306Y131998D01*
X1422644Y130648D01*
X1425251Y129950D01*
X1427949D01*
X1430556Y130648D01*
X1432894Y131998D01*
X1434802Y133906D01*
X1436151Y136244D01*
X1436850Y138851D01*
Y141549D01*
X1436151Y144156D01*
X1434802Y146494D01*
X1432894Y148402D01*
X1430556Y149752D01*
X1427949Y150450D01*
D02*
G37*
G36*
X1402549D02*
X1399851D01*
X1397244Y149752D01*
X1394906Y148402D01*
X1392998Y146494D01*
X1391649Y144156D01*
X1390950Y141549D01*
Y138851D01*
X1391649Y136244D01*
X1392998Y133906D01*
X1394906Y131998D01*
X1397244Y130648D01*
X1399851Y129950D01*
X1402549D01*
X1405156Y130648D01*
X1407494Y131998D01*
X1409402Y133906D01*
X1410751Y136244D01*
X1411450Y138851D01*
Y141549D01*
X1410751Y144156D01*
X1409402Y146494D01*
X1407494Y148402D01*
X1405156Y149752D01*
X1402549Y150450D01*
D02*
G37*
G36*
X1377149D02*
X1374451D01*
X1371844Y149752D01*
X1369506Y148402D01*
X1367598Y146494D01*
X1366248Y144156D01*
X1365550Y141549D01*
Y138851D01*
X1366248Y136244D01*
X1367598Y133906D01*
X1369506Y131998D01*
X1371844Y130648D01*
X1374451Y129950D01*
X1377149D01*
X1379756Y130648D01*
X1382094Y131998D01*
X1384002Y133906D01*
X1385352Y136244D01*
X1386050Y138851D01*
Y141549D01*
X1385352Y144156D01*
X1384002Y146494D01*
X1382094Y148402D01*
X1379756Y149752D01*
X1377149Y150450D01*
D02*
G37*
G36*
X1351749D02*
X1349051D01*
X1346444Y149752D01*
X1344106Y148402D01*
X1342198Y146494D01*
X1340849Y144156D01*
X1340150Y141549D01*
Y138851D01*
X1340849Y136244D01*
X1342198Y133906D01*
X1344106Y131998D01*
X1346444Y130648D01*
X1349051Y129950D01*
X1351749D01*
X1354356Y130648D01*
X1356694Y131998D01*
X1358602Y133906D01*
X1359951Y136244D01*
X1360650Y138851D01*
Y141549D01*
X1359951Y144156D01*
X1358602Y146494D01*
X1356694Y148402D01*
X1354356Y149752D01*
X1351749Y150450D01*
D02*
G37*
G36*
X1326349D02*
X1323651D01*
X1321044Y149752D01*
X1318706Y148402D01*
X1316798Y146494D01*
X1315448Y144156D01*
X1314750Y141549D01*
Y138851D01*
X1315448Y136244D01*
X1316798Y133906D01*
X1318706Y131998D01*
X1321044Y130648D01*
X1323651Y129950D01*
X1326349D01*
X1328956Y130648D01*
X1331294Y131998D01*
X1333202Y133906D01*
X1334552Y136244D01*
X1335250Y138851D01*
Y141549D01*
X1334552Y144156D01*
X1333202Y146494D01*
X1331294Y148402D01*
X1328956Y149752D01*
X1326349Y150450D01*
D02*
G37*
G36*
X1300949D02*
X1298251D01*
X1295644Y149752D01*
X1293306Y148402D01*
X1291398Y146494D01*
X1290049Y144156D01*
X1289350Y141549D01*
Y138851D01*
X1290049Y136244D01*
X1291398Y133906D01*
X1293306Y131998D01*
X1295644Y130648D01*
X1298251Y129950D01*
X1300949D01*
X1303556Y130648D01*
X1305894Y131998D01*
X1307802Y133906D01*
X1309151Y136244D01*
X1309850Y138851D01*
Y141549D01*
X1309151Y144156D01*
X1307802Y146494D01*
X1305894Y148402D01*
X1303556Y149752D01*
X1300949Y150450D01*
D02*
G37*
G36*
X1275549D02*
X1272851D01*
X1270244Y149752D01*
X1267906Y148402D01*
X1265998Y146494D01*
X1264649Y144156D01*
X1263950Y141549D01*
Y138851D01*
X1264649Y136244D01*
X1265998Y133906D01*
X1267906Y131998D01*
X1270244Y130648D01*
X1272851Y129950D01*
X1275549D01*
X1278156Y130648D01*
X1280494Y131998D01*
X1282402Y133906D01*
X1283752Y136244D01*
X1284450Y138851D01*
Y141549D01*
X1283752Y144156D01*
X1282402Y146494D01*
X1280494Y148402D01*
X1278156Y149752D01*
X1275549Y150450D01*
D02*
G37*
G36*
X1250149D02*
X1247451D01*
X1244844Y149752D01*
X1242506Y148402D01*
X1240598Y146494D01*
X1239249Y144156D01*
X1238550Y141549D01*
Y138851D01*
X1239249Y136244D01*
X1240598Y133906D01*
X1242506Y131998D01*
X1244844Y130648D01*
X1247451Y129950D01*
X1250149D01*
X1252756Y130648D01*
X1255094Y131998D01*
X1257002Y133906D01*
X1258352Y136244D01*
X1259050Y138851D01*
Y141549D01*
X1258352Y144156D01*
X1257002Y146494D01*
X1255094Y148402D01*
X1252756Y149752D01*
X1250149Y150450D01*
D02*
G37*
G36*
X1224749D02*
X1222051D01*
X1219444Y149752D01*
X1217106Y148402D01*
X1215198Y146494D01*
X1213848Y144156D01*
X1213150Y141549D01*
Y138851D01*
X1213848Y136244D01*
X1215198Y133906D01*
X1217106Y131998D01*
X1219444Y130648D01*
X1222051Y129950D01*
X1224749D01*
X1227356Y130648D01*
X1229694Y131998D01*
X1231602Y133906D01*
X1232952Y136244D01*
X1233650Y138851D01*
Y141549D01*
X1232952Y144156D01*
X1231602Y146494D01*
X1229694Y148402D01*
X1227356Y149752D01*
X1224749Y150450D01*
D02*
G37*
G36*
X1199349D02*
X1196651D01*
X1194044Y149752D01*
X1191706Y148402D01*
X1189798Y146494D01*
X1188448Y144156D01*
X1187750Y141549D01*
Y138851D01*
X1188448Y136244D01*
X1189798Y133906D01*
X1191706Y131998D01*
X1194044Y130648D01*
X1196651Y129950D01*
X1199349D01*
X1201956Y130648D01*
X1204294Y131998D01*
X1206202Y133906D01*
X1207551Y136244D01*
X1208250Y138851D01*
Y141549D01*
X1207551Y144156D01*
X1206202Y146494D01*
X1204294Y148402D01*
X1201956Y149752D01*
X1199349Y150450D01*
D02*
G37*
G36*
X1488190Y138930D02*
X1478670D01*
Y129410D01*
X1478820D01*
X1481565Y130145D01*
X1484025Y131566D01*
X1486034Y133575D01*
X1487455Y136035D01*
X1488190Y138779D01*
Y138930D01*
D02*
G37*
G36*
X1476130D02*
X1466610D01*
Y138779D01*
X1467345Y136035D01*
X1468766Y133575D01*
X1470775Y131566D01*
X1473235Y130145D01*
X1475979Y129410D01*
X1476130D01*
Y138930D01*
D02*
G37*
G36*
X1183447D02*
X1173870D01*
Y129353D01*
X1176725D01*
X1178465Y129582D01*
X1180086Y130253D01*
X1181479Y131321D01*
X1182547Y132714D01*
X1183218Y134335D01*
X1183447Y136075D01*
Y138930D01*
D02*
G37*
G36*
X1171330D02*
X1161752D01*
Y136075D01*
X1161982Y134335D01*
X1162653Y132714D01*
X1163721Y131321D01*
X1165114Y130253D01*
X1166735Y129582D01*
X1168475Y129353D01*
X1171330D01*
Y138930D01*
D02*
G37*
G36*
X888688Y135540D02*
X888570D01*
Y126270D01*
X897840D01*
Y126388D01*
X897122Y129068D01*
X895734Y131472D01*
X893772Y133434D01*
X891368Y134822D01*
X888688Y135540D01*
D02*
G37*
G36*
X886030D02*
X885912D01*
X883232Y134822D01*
X880828Y133434D01*
X878866Y131472D01*
X877478Y129068D01*
X876760Y126388D01*
Y126270D01*
X886030D01*
Y135540D01*
D02*
G37*
G36*
X528970Y133863D02*
Y126270D01*
X537649D01*
X537514Y127295D01*
X536628Y129433D01*
X535219Y131269D01*
X533383Y132678D01*
X531245Y133564D01*
X528970Y133863D01*
D02*
G37*
G36*
X473570D02*
Y126270D01*
X482249D01*
X482114Y127295D01*
X481228Y129433D01*
X479819Y131269D01*
X477983Y132678D01*
X475845Y133564D01*
X473570Y133863D01*
D02*
G37*
G36*
X526430D02*
X524155Y133564D01*
X522017Y132678D01*
X520181Y131269D01*
X518772Y129433D01*
X517886Y127295D01*
X517751Y126270D01*
X526430D01*
Y133863D01*
D02*
G37*
G36*
X471030D02*
X468755Y133564D01*
X466617Y132678D01*
X464781Y131269D01*
X463372Y129433D01*
X462486Y127295D01*
X462351Y126270D01*
X471030D01*
Y133863D01*
D02*
G37*
G36*
X645895Y135000D02*
X644105D01*
X642451Y134315D01*
X641185Y133049D01*
X640500Y131395D01*
Y129605D01*
X641185Y127951D01*
X642451Y126685D01*
X644105Y126000D01*
X645895D01*
X647549Y126685D01*
X648815Y127951D01*
X649500Y129605D01*
Y131395D01*
X648815Y133049D01*
X647549Y134315D01*
X645895Y135000D01*
D02*
G37*
G36*
X590895Y134500D02*
X589105D01*
X587451Y133815D01*
X586185Y132549D01*
X585500Y130895D01*
Y129105D01*
X586185Y127451D01*
X587451Y126185D01*
X589105Y125500D01*
X590895D01*
X592549Y126185D01*
X593815Y127451D01*
X594500Y129105D01*
Y130895D01*
X593815Y132549D01*
X592549Y133815D01*
X590895Y134500D01*
D02*
G37*
G36*
X284929Y128730D02*
X281270D01*
Y125071D01*
X282855Y125727D01*
X284273Y127145D01*
X284929Y128730D01*
D02*
G37*
G36*
X278730D02*
X275071D01*
X275727Y127145D01*
X277145Y125727D01*
X278730Y125071D01*
Y128730D01*
D02*
G37*
G36*
X665895Y134000D02*
X664105D01*
X662451Y133315D01*
X661185Y132049D01*
X660500Y130395D01*
Y128605D01*
X661185Y126951D01*
X662451Y125685D01*
X664105Y125000D01*
X665895D01*
X667549Y125685D01*
X668815Y126951D01*
X669500Y128605D01*
Y130395D01*
X668815Y132049D01*
X667549Y133315D01*
X665895Y134000D01*
D02*
G37*
G36*
X537649Y123730D02*
X528970D01*
Y116137D01*
X531245Y116436D01*
X533383Y117322D01*
X535219Y118731D01*
X536628Y120567D01*
X537514Y122705D01*
X537649Y123730D01*
D02*
G37*
G36*
X482249D02*
X473570D01*
Y116137D01*
X475845Y116436D01*
X477983Y117322D01*
X479819Y118731D01*
X481228Y120567D01*
X482114Y122705D01*
X482249Y123730D01*
D02*
G37*
G36*
X526430D02*
X517751D01*
X517886Y122705D01*
X518772Y120567D01*
X520181Y118731D01*
X522017Y117322D01*
X524155Y116436D01*
X526430Y116137D01*
Y123730D01*
D02*
G37*
G36*
X471030D02*
X462351D01*
X462486Y122705D01*
X463372Y120567D01*
X464781Y118731D01*
X466617Y117322D01*
X468755Y116436D01*
X471030Y116137D01*
Y123730D01*
D02*
G37*
G36*
X1478820Y125590D02*
X1478670D01*
Y116070D01*
X1488190D01*
Y116221D01*
X1487455Y118965D01*
X1486034Y121425D01*
X1484025Y123434D01*
X1481565Y124855D01*
X1478820Y125590D01*
D02*
G37*
G36*
X1476130D02*
X1475979D01*
X1473235Y124855D01*
X1470775Y123434D01*
X1468766Y121425D01*
X1467345Y118965D01*
X1466610Y116221D01*
Y116070D01*
X1476130D01*
Y125590D01*
D02*
G37*
G36*
X1174020D02*
X1173870D01*
Y116070D01*
X1183390D01*
Y116221D01*
X1182655Y118965D01*
X1181234Y121425D01*
X1179225Y123434D01*
X1176765Y124855D01*
X1174020Y125590D01*
D02*
G37*
G36*
X1171330D02*
X1171180D01*
X1168435Y124855D01*
X1165975Y123434D01*
X1163966Y121425D01*
X1162545Y118965D01*
X1161810Y116221D01*
Y116070D01*
X1171330D01*
Y125590D01*
D02*
G37*
G36*
X170895Y124500D02*
X169105D01*
X167451Y123815D01*
X166185Y122549D01*
X165500Y120895D01*
Y119105D01*
X166185Y117451D01*
X167451Y116185D01*
X169105Y115500D01*
X170895D01*
X172549Y116185D01*
X173815Y117451D01*
X174500Y119105D01*
Y120895D01*
X173815Y122549D01*
X172549Y123815D01*
X170895Y124500D01*
D02*
G37*
G36*
X964817Y135000D02*
X962184D01*
X959640Y134319D01*
X957360Y133002D01*
X955498Y131140D01*
X954182Y128860D01*
X953500Y126316D01*
Y123684D01*
X954182Y121140D01*
X955498Y118860D01*
X957360Y116998D01*
X959640Y115681D01*
X962184Y115000D01*
X964817D01*
X967360Y115681D01*
X969640Y116998D01*
X971502Y118860D01*
X972819Y121140D01*
X973500Y123684D01*
Y126316D01*
X972819Y128860D01*
X971502Y131140D01*
X969640Y133002D01*
X967360Y134319D01*
X964817Y135000D01*
D02*
G37*
G36*
X939417D02*
X936784D01*
X934240Y134319D01*
X931960Y133002D01*
X930098Y131140D01*
X928782Y128860D01*
X928100Y126316D01*
Y123684D01*
X928782Y121140D01*
X930098Y118860D01*
X931960Y116998D01*
X934240Y115681D01*
X936784Y115000D01*
X939417D01*
X941960Y115681D01*
X944240Y116998D01*
X946102Y118860D01*
X947419Y121140D01*
X948100Y123684D01*
Y126316D01*
X947419Y128860D01*
X946102Y131140D01*
X944240Y133002D01*
X941960Y134319D01*
X939417Y135000D01*
D02*
G37*
G36*
X914016D02*
X911384D01*
X908840Y134319D01*
X906560Y133002D01*
X904698Y131140D01*
X903382Y128860D01*
X902700Y126316D01*
Y123684D01*
X903382Y121140D01*
X904698Y118860D01*
X906560Y116998D01*
X908840Y115681D01*
X911384Y115000D01*
X914016D01*
X916560Y115681D01*
X918840Y116998D01*
X920702Y118860D01*
X922019Y121140D01*
X922700Y123684D01*
Y126316D01*
X922019Y128860D01*
X920702Y131140D01*
X918840Y133002D01*
X916560Y134319D01*
X914016Y135000D01*
D02*
G37*
G36*
X863216D02*
X860583D01*
X858040Y134319D01*
X855760Y133002D01*
X853898Y131140D01*
X852581Y128860D01*
X851900Y126316D01*
Y123684D01*
X852581Y121140D01*
X853898Y118860D01*
X855760Y116998D01*
X858040Y115681D01*
X860583Y115000D01*
X863216D01*
X865760Y115681D01*
X868040Y116998D01*
X869902Y118860D01*
X871218Y121140D01*
X871900Y123684D01*
Y126316D01*
X871218Y128860D01*
X869902Y131140D01*
X868040Y133002D01*
X865760Y134319D01*
X863216Y135000D01*
D02*
G37*
G36*
X840500Y135118D02*
X832500D01*
X830159Y134652D01*
X828174Y133326D01*
X826848Y131341D01*
X826383Y129000D01*
Y121000D01*
X826848Y118659D01*
X828174Y116674D01*
X830159Y115348D01*
X832500Y114882D01*
X840500D01*
X842841Y115348D01*
X844826Y116674D01*
X846152Y118659D01*
X846618Y121000D01*
Y129000D01*
X846152Y131341D01*
X844826Y133326D01*
X842841Y134652D01*
X840500Y135118D01*
D02*
G37*
G36*
X897840Y123730D02*
X888570D01*
Y114460D01*
X888688D01*
X891368Y115178D01*
X893772Y116566D01*
X895734Y118528D01*
X897122Y120932D01*
X897840Y123612D01*
Y123730D01*
D02*
G37*
G36*
X886030D02*
X876760D01*
Y123612D01*
X877478Y120932D01*
X878866Y118528D01*
X880828Y116566D01*
X883232Y115178D01*
X885912Y114460D01*
X886030D01*
Y123730D01*
D02*
G37*
G36*
X1453349Y125050D02*
X1450651D01*
X1448044Y124352D01*
X1445706Y123002D01*
X1443798Y121094D01*
X1442448Y118756D01*
X1441750Y116149D01*
Y113451D01*
X1442448Y110844D01*
X1443798Y108506D01*
X1445706Y106598D01*
X1448044Y105248D01*
X1450651Y104550D01*
X1453349D01*
X1455956Y105248D01*
X1458294Y106598D01*
X1460202Y108506D01*
X1461552Y110844D01*
X1462250Y113451D01*
Y116149D01*
X1461552Y118756D01*
X1460202Y121094D01*
X1458294Y123002D01*
X1455956Y124352D01*
X1453349Y125050D01*
D02*
G37*
G36*
X1427949D02*
X1425251D01*
X1422644Y124352D01*
X1420306Y123002D01*
X1418398Y121094D01*
X1417048Y118756D01*
X1416350Y116149D01*
Y113451D01*
X1417048Y110844D01*
X1418398Y108506D01*
X1420306Y106598D01*
X1422644Y105248D01*
X1425251Y104550D01*
X1427949D01*
X1430556Y105248D01*
X1432894Y106598D01*
X1434802Y108506D01*
X1436151Y110844D01*
X1436850Y113451D01*
Y116149D01*
X1436151Y118756D01*
X1434802Y121094D01*
X1432894Y123002D01*
X1430556Y124352D01*
X1427949Y125050D01*
D02*
G37*
G36*
X1402549D02*
X1399851D01*
X1397244Y124352D01*
X1394906Y123002D01*
X1392998Y121094D01*
X1391649Y118756D01*
X1390950Y116149D01*
Y113451D01*
X1391649Y110844D01*
X1392998Y108506D01*
X1394906Y106598D01*
X1397244Y105248D01*
X1399851Y104550D01*
X1402549D01*
X1405156Y105248D01*
X1407494Y106598D01*
X1409402Y108506D01*
X1410751Y110844D01*
X1411450Y113451D01*
Y116149D01*
X1410751Y118756D01*
X1409402Y121094D01*
X1407494Y123002D01*
X1405156Y124352D01*
X1402549Y125050D01*
D02*
G37*
G36*
X1377149D02*
X1374451D01*
X1371844Y124352D01*
X1369506Y123002D01*
X1367598Y121094D01*
X1366248Y118756D01*
X1365550Y116149D01*
Y113451D01*
X1366248Y110844D01*
X1367598Y108506D01*
X1369506Y106598D01*
X1371844Y105248D01*
X1374451Y104550D01*
X1377149D01*
X1379756Y105248D01*
X1382094Y106598D01*
X1384002Y108506D01*
X1385352Y110844D01*
X1386050Y113451D01*
Y116149D01*
X1385352Y118756D01*
X1384002Y121094D01*
X1382094Y123002D01*
X1379756Y124352D01*
X1377149Y125050D01*
D02*
G37*
G36*
X1351749D02*
X1349051D01*
X1346444Y124352D01*
X1344106Y123002D01*
X1342198Y121094D01*
X1340849Y118756D01*
X1340150Y116149D01*
Y113451D01*
X1340849Y110844D01*
X1342198Y108506D01*
X1344106Y106598D01*
X1346444Y105248D01*
X1349051Y104550D01*
X1351749D01*
X1354356Y105248D01*
X1356694Y106598D01*
X1358602Y108506D01*
X1359951Y110844D01*
X1360650Y113451D01*
Y116149D01*
X1359951Y118756D01*
X1358602Y121094D01*
X1356694Y123002D01*
X1354356Y124352D01*
X1351749Y125050D01*
D02*
G37*
G36*
X1326349D02*
X1323651D01*
X1321044Y124352D01*
X1318706Y123002D01*
X1316798Y121094D01*
X1315448Y118756D01*
X1314750Y116149D01*
Y113451D01*
X1315448Y110844D01*
X1316798Y108506D01*
X1318706Y106598D01*
X1321044Y105248D01*
X1323651Y104550D01*
X1326349D01*
X1328956Y105248D01*
X1331294Y106598D01*
X1333202Y108506D01*
X1334552Y110844D01*
X1335250Y113451D01*
Y116149D01*
X1334552Y118756D01*
X1333202Y121094D01*
X1331294Y123002D01*
X1328956Y124352D01*
X1326349Y125050D01*
D02*
G37*
G36*
X1300949D02*
X1298251D01*
X1295644Y124352D01*
X1293306Y123002D01*
X1291398Y121094D01*
X1290049Y118756D01*
X1289350Y116149D01*
Y113451D01*
X1290049Y110844D01*
X1291398Y108506D01*
X1293306Y106598D01*
X1295644Y105248D01*
X1298251Y104550D01*
X1300949D01*
X1303556Y105248D01*
X1305894Y106598D01*
X1307802Y108506D01*
X1309151Y110844D01*
X1309850Y113451D01*
Y116149D01*
X1309151Y118756D01*
X1307802Y121094D01*
X1305894Y123002D01*
X1303556Y124352D01*
X1300949Y125050D01*
D02*
G37*
G36*
X1275549D02*
X1272851D01*
X1270244Y124352D01*
X1267906Y123002D01*
X1265998Y121094D01*
X1264649Y118756D01*
X1263950Y116149D01*
Y113451D01*
X1264649Y110844D01*
X1265998Y108506D01*
X1267906Y106598D01*
X1270244Y105248D01*
X1272851Y104550D01*
X1275549D01*
X1278156Y105248D01*
X1280494Y106598D01*
X1282402Y108506D01*
X1283752Y110844D01*
X1284450Y113451D01*
Y116149D01*
X1283752Y118756D01*
X1282402Y121094D01*
X1280494Y123002D01*
X1278156Y124352D01*
X1275549Y125050D01*
D02*
G37*
G36*
X1250149D02*
X1247451D01*
X1244844Y124352D01*
X1242506Y123002D01*
X1240598Y121094D01*
X1239249Y118756D01*
X1238550Y116149D01*
Y113451D01*
X1239249Y110844D01*
X1240598Y108506D01*
X1242506Y106598D01*
X1244844Y105248D01*
X1247451Y104550D01*
X1250149D01*
X1252756Y105248D01*
X1255094Y106598D01*
X1257002Y108506D01*
X1258352Y110844D01*
X1259050Y113451D01*
Y116149D01*
X1258352Y118756D01*
X1257002Y121094D01*
X1255094Y123002D01*
X1252756Y124352D01*
X1250149Y125050D01*
D02*
G37*
G36*
X1224749D02*
X1222051D01*
X1219444Y124352D01*
X1217106Y123002D01*
X1215198Y121094D01*
X1213848Y118756D01*
X1213150Y116149D01*
Y113451D01*
X1213848Y110844D01*
X1215198Y108506D01*
X1217106Y106598D01*
X1219444Y105248D01*
X1222051Y104550D01*
X1224749D01*
X1227356Y105248D01*
X1229694Y106598D01*
X1231602Y108506D01*
X1232952Y110844D01*
X1233650Y113451D01*
Y116149D01*
X1232952Y118756D01*
X1231602Y121094D01*
X1229694Y123002D01*
X1227356Y124352D01*
X1224749Y125050D01*
D02*
G37*
G36*
X1199349D02*
X1196651D01*
X1194044Y124352D01*
X1191706Y123002D01*
X1189798Y121094D01*
X1188448Y118756D01*
X1187750Y116149D01*
Y113451D01*
X1188448Y110844D01*
X1189798Y108506D01*
X1191706Y106598D01*
X1194044Y105248D01*
X1196651Y104550D01*
X1199349D01*
X1201956Y105248D01*
X1204294Y106598D01*
X1206202Y108506D01*
X1207551Y110844D01*
X1208250Y113451D01*
Y116149D01*
X1207551Y118756D01*
X1206202Y121094D01*
X1204294Y123002D01*
X1201956Y124352D01*
X1199349Y125050D01*
D02*
G37*
G36*
X1488190Y113530D02*
X1478670D01*
Y104010D01*
X1478820D01*
X1481565Y104745D01*
X1484025Y106166D01*
X1486034Y108175D01*
X1487455Y110635D01*
X1488190Y113379D01*
Y113530D01*
D02*
G37*
G36*
X1476130D02*
X1466610D01*
Y113379D01*
X1467345Y110635D01*
X1468766Y108175D01*
X1470775Y106166D01*
X1473235Y104745D01*
X1475979Y104010D01*
X1476130D01*
Y113530D01*
D02*
G37*
G36*
X1183390D02*
X1173870D01*
Y104010D01*
X1174020D01*
X1176765Y104745D01*
X1179225Y106166D01*
X1181234Y108175D01*
X1182655Y110635D01*
X1183390Y113379D01*
Y113530D01*
D02*
G37*
G36*
X1171330D02*
X1161810D01*
Y113379D01*
X1162545Y110635D01*
X1163966Y108175D01*
X1165975Y106166D01*
X1168435Y104745D01*
X1171180Y104010D01*
X1171330D01*
Y113530D01*
D02*
G37*
G36*
X637369Y118500D02*
X635131D01*
X632969Y117921D01*
X631031Y116802D01*
X629448Y115219D01*
X628329Y113281D01*
X627750Y111119D01*
Y108881D01*
X628329Y106719D01*
X629448Y104781D01*
X631031Y103198D01*
X632969Y102079D01*
X635131Y101500D01*
X637369D01*
X639531Y102079D01*
X641469Y103198D01*
X643052Y104781D01*
X644171Y106719D01*
X644750Y108881D01*
Y111119D01*
X644171Y113281D01*
X643052Y115219D01*
X641469Y116802D01*
X639531Y117921D01*
X637369Y118500D01*
D02*
G37*
G36*
X574869D02*
X572631D01*
X570469Y117921D01*
X568531Y116802D01*
X566948Y115219D01*
X565829Y113281D01*
X565250Y111119D01*
Y108881D01*
X565829Y106719D01*
X566948Y104781D01*
X568531Y103198D01*
X570469Y102079D01*
X572631Y101500D01*
X574869D01*
X577031Y102079D01*
X578969Y103198D01*
X580552Y104781D01*
X581671Y106719D01*
X582250Y108881D01*
Y111119D01*
X581671Y113281D01*
X580552Y115219D01*
X578969Y116802D01*
X577031Y117921D01*
X574869Y118500D01*
D02*
G37*
%LPD*%
D17*
X749965Y484685D02*
D03*
X618500Y396500D02*
D03*
X670000Y480000D02*
D03*
X685000Y445000D02*
D03*
X460000Y480000D02*
D03*
D85*
X22600Y485200D02*
D03*
X48000D02*
D03*
X22600Y459800D02*
D03*
X48000D02*
D03*
X73400Y485200D02*
D03*
Y459800D02*
D03*
X124200Y485200D02*
D03*
Y459800D02*
D03*
X175000Y485200D02*
D03*
Y459800D02*
D03*
X251200Y485200D02*
D03*
Y459800D02*
D03*
X276600Y485200D02*
D03*
Y459800D02*
D03*
X327400Y485200D02*
D03*
X302000Y459800D02*
D03*
Y485200D02*
D03*
X225800Y459800D02*
D03*
Y485200D02*
D03*
X200400Y459800D02*
D03*
Y485200D02*
D03*
X149600Y459800D02*
D03*
Y485200D02*
D03*
X98800Y459800D02*
D03*
Y485200D02*
D03*
X1401200Y114800D02*
D03*
Y140200D02*
D03*
X1350400Y114800D02*
D03*
Y140200D02*
D03*
X1299600Y114800D02*
D03*
Y140200D02*
D03*
X1274200Y114800D02*
D03*
Y140200D02*
D03*
X1198000Y114800D02*
D03*
Y140200D02*
D03*
X1172600Y114800D02*
D03*
X1223400Y140200D02*
D03*
Y114800D02*
D03*
X1248800Y140200D02*
D03*
Y114800D02*
D03*
X1325000Y140200D02*
D03*
Y114800D02*
D03*
X1375800Y140200D02*
D03*
Y114800D02*
D03*
X1426600Y140200D02*
D03*
Y114800D02*
D03*
X1452000Y140200D02*
D03*
X1477400D02*
D03*
X1452000Y114800D02*
D03*
X1477400D02*
D03*
D86*
X327400Y459800D02*
D03*
X1172600Y140200D02*
D03*
D87*
X760750Y139500D02*
D03*
X719250D02*
D03*
D88*
X963500Y125000D02*
D03*
X938100D02*
D03*
X887300D02*
D03*
X861900D02*
D03*
X912700D02*
D03*
D89*
X836500D02*
D03*
D90*
X1027700Y475000D02*
D03*
X972300D02*
D03*
X472300Y125000D02*
D03*
X527700D02*
D03*
D91*
X762500Y445315D02*
D03*
X737500D02*
D03*
X762500Y470315D02*
D03*
X737500D02*
D03*
X712500D02*
D03*
X787500Y445315D02*
D03*
X712500D02*
D03*
D92*
X787500Y470315D02*
D03*
D93*
X1452500Y237500D02*
D03*
Y262500D02*
D03*
Y287500D02*
D03*
Y312500D02*
D03*
Y337500D02*
D03*
Y362500D02*
D03*
X1427500Y237500D02*
D03*
Y262500D02*
D03*
Y287500D02*
D03*
Y312500D02*
D03*
Y337500D02*
D03*
Y362500D02*
D03*
X47500Y362500D02*
D03*
Y337500D02*
D03*
Y312500D02*
D03*
Y287500D02*
D03*
Y262500D02*
D03*
Y237500D02*
D03*
X72500Y362500D02*
D03*
Y337500D02*
D03*
Y312500D02*
D03*
Y287500D02*
D03*
Y262500D02*
D03*
Y237500D02*
D03*
D94*
X1465900Y300000D02*
D03*
X34100Y300000D02*
D03*
D95*
X573750Y110000D02*
D03*
X636250D02*
D03*
D96*
X1420000Y435750D02*
D03*
Y454249D02*
D03*
X1465000Y454250D02*
D03*
X1445375Y435375D02*
D03*
X1379250Y350004D02*
D03*
X1379250Y310005D02*
D03*
X120750Y249995D02*
D03*
X120750Y275000D02*
D03*
X570000Y285000D02*
D03*
X695077Y395244D02*
D03*
X694997Y402244D02*
D03*
X695000Y388000D02*
D03*
X695000Y381000D02*
D03*
X645000Y320000D02*
D03*
X635000Y425000D02*
D03*
X705637Y385244D02*
D03*
X705000Y403500D02*
D03*
Y414500D02*
D03*
X655000Y450000D02*
D03*
X995000Y180000D02*
D03*
X1015000Y149500D02*
D03*
X945000Y179500D02*
D03*
X970000Y220000D02*
D03*
X945000Y195000D02*
D03*
X280000Y155000D02*
D03*
X515000Y335000D02*
D03*
X535000D02*
D03*
X215000Y375000D02*
D03*
X425000Y385000D02*
D03*
X660000Y395000D02*
D03*
X1210000Y225000D02*
D03*
X1250000D02*
D03*
X955000Y275000D02*
D03*
X989869Y291369D02*
D03*
X726366Y238134D02*
D03*
X725000Y245000D02*
D03*
X743232Y220000D02*
D03*
X765750Y185000D02*
D03*
X740000Y200000D02*
D03*
X778000Y415000D02*
D03*
X785000D02*
D03*
X1330000Y480001D02*
D03*
X1100000Y149500D02*
D03*
X590000Y330000D02*
D03*
X390000Y162000D02*
D03*
X503720Y167272D02*
D03*
X490000Y215000D02*
D03*
X485000Y230000D02*
D03*
X149105Y290500D02*
D03*
X1380000Y180000D02*
D03*
Y165000D02*
D03*
X1365000Y465000D02*
D03*
Y180000D02*
D03*
X1335000Y285000D02*
D03*
Y240000D02*
D03*
Y225000D02*
D03*
X1320000Y240000D02*
D03*
Y225000D02*
D03*
X1305000Y255000D02*
D03*
X1290000Y270000D02*
D03*
Y255000D02*
D03*
X1275000Y465000D02*
D03*
Y450000D02*
D03*
Y285000D02*
D03*
Y270000D02*
D03*
Y255000D02*
D03*
X1260000Y465000D02*
D03*
Y450000D02*
D03*
Y285000D02*
D03*
Y270000D02*
D03*
Y255000D02*
D03*
X1245000Y285000D02*
D03*
Y270000D02*
D03*
Y255000D02*
D03*
X1230000Y285000D02*
D03*
Y270000D02*
D03*
Y255000D02*
D03*
X1215000Y270000D02*
D03*
Y255000D02*
D03*
X1200000Y270000D02*
D03*
Y255000D02*
D03*
X1185000Y270000D02*
D03*
Y255000D02*
D03*
X1170000Y285000D02*
D03*
Y270000D02*
D03*
Y255000D02*
D03*
X1155000Y285000D02*
D03*
Y270000D02*
D03*
Y255000D02*
D03*
X1140000Y375000D02*
D03*
Y300000D02*
D03*
Y285000D02*
D03*
Y270000D02*
D03*
Y255000D02*
D03*
X1125000Y375000D02*
D03*
Y315000D02*
D03*
Y300000D02*
D03*
Y285000D02*
D03*
Y270000D02*
D03*
Y255000D02*
D03*
X1110000Y375000D02*
D03*
Y300000D02*
D03*
Y285000D02*
D03*
Y270000D02*
D03*
Y255000D02*
D03*
X1095000Y375000D02*
D03*
Y285000D02*
D03*
Y270000D02*
D03*
Y255000D02*
D03*
Y120000D02*
D03*
X1080000Y270000D02*
D03*
Y255000D02*
D03*
Y120000D02*
D03*
X1065000Y330000D02*
D03*
Y255000D02*
D03*
Y120000D02*
D03*
X1050000Y330000D02*
D03*
Y315000D02*
D03*
Y120000D02*
D03*
X1035000Y315000D02*
D03*
Y300000D02*
D03*
Y120000D02*
D03*
X810000Y135000D02*
D03*
X450000Y405000D02*
D03*
Y300000D02*
D03*
X435000Y465000D02*
D03*
Y315000D02*
D03*
Y300000D02*
D03*
X420000D02*
D03*
X390000Y405000D02*
D03*
X375000D02*
D03*
Y315000D02*
D03*
Y225000D02*
D03*
Y120000D02*
D03*
X360000Y405000D02*
D03*
Y315000D02*
D03*
Y300000D02*
D03*
Y120000D02*
D03*
X345000Y405000D02*
D03*
Y315000D02*
D03*
Y300000D02*
D03*
Y135000D02*
D03*
Y120000D02*
D03*
X330000Y405000D02*
D03*
Y315000D02*
D03*
Y300000D02*
D03*
Y135000D02*
D03*
Y120000D02*
D03*
X315000Y315000D02*
D03*
X300000D02*
D03*
X285000D02*
D03*
X270000D02*
D03*
X255000D02*
D03*
Y135000D02*
D03*
Y120000D02*
D03*
X240000Y315000D02*
D03*
Y150000D02*
D03*
Y135000D02*
D03*
Y120000D02*
D03*
X225000Y315000D02*
D03*
Y150000D02*
D03*
Y135000D02*
D03*
Y120000D02*
D03*
X210000D02*
D03*
X165000Y315000D02*
D03*
X150000Y120000D02*
D03*
X135000Y135000D02*
D03*
Y120000D02*
D03*
X120000D02*
D03*
X105000D02*
D03*
X75000D02*
D03*
X60000D02*
D03*
X45000D02*
D03*
X30000D02*
D03*
X15000Y375000D02*
D03*
Y270000D02*
D03*
Y255000D02*
D03*
Y240000D02*
D03*
Y225000D02*
D03*
Y210000D02*
D03*
Y195000D02*
D03*
Y180000D02*
D03*
Y120000D02*
D03*
X745000Y290000D02*
D03*
X780000Y293514D02*
D03*
X870000Y293514D02*
D03*
X842753D02*
D03*
X780000Y285000D02*
D03*
X590000Y130000D02*
D03*
X525000Y335000D02*
D03*
X520000Y330000D02*
D03*
X530000D02*
D03*
X726700Y149927D02*
D03*
X731650Y154877D02*
D03*
X875000Y230000D02*
D03*
X885000Y220000D02*
D03*
X870000Y350000D02*
D03*
X805000Y425000D02*
D03*
X1463189Y400000D02*
D03*
X1310000Y305000D02*
D03*
X1289749Y345001D02*
D03*
X1219750Y335000D02*
D03*
X1259751D02*
D03*
X1350000Y310000D02*
D03*
X1105000Y405000D02*
D03*
X1100000Y480000D02*
D03*
X1015000Y285000D02*
D03*
X855000Y325000D02*
D03*
X769000Y355000D02*
D03*
X766772Y368000D02*
D03*
X775000Y360500D02*
D03*
X791909Y383585D02*
D03*
X771000Y414940D02*
D03*
X190251Y295000D02*
D03*
X230250D02*
D03*
X240000Y285000D02*
D03*
X35000Y200000D02*
D03*
X575000Y165000D02*
D03*
X350000Y260000D02*
D03*
X280000Y285000D02*
D03*
X640000Y385000D02*
D03*
X675000Y155000D02*
D03*
X755000Y149500D02*
D03*
X595000Y165000D02*
D03*
X775000Y175000D02*
D03*
X730000Y420000D02*
D03*
X755000Y285000D02*
D03*
X780000Y345500D02*
D03*
X780000Y334500D02*
D03*
X675000Y310000D02*
D03*
X720000Y285000D02*
D03*
X735000Y330000D02*
D03*
X745000D02*
D03*
X1446566Y203434D02*
D03*
X1423650Y178650D02*
D03*
X55000Y395000D02*
D03*
X76350Y421350D02*
D03*
X855000Y455000D02*
D03*
X930000Y455000D02*
D03*
X1364500Y239250D02*
D03*
X1395000Y249750D02*
D03*
X1290000Y220000D02*
D03*
X290000Y380000D02*
D03*
X250000D02*
D03*
X210000D02*
D03*
X105000Y350250D02*
D03*
X135500Y360750D02*
D03*
X310000Y170000D02*
D03*
X280000Y130000D02*
D03*
X280250Y265000D02*
D03*
X240250D02*
D03*
X1219750Y450000D02*
D03*
X1260000Y315000D02*
D03*
X1220000D02*
D03*
Y470000D02*
D03*
X1180500Y380500D02*
D03*
Y399500D02*
D03*
X1140000Y355000D02*
D03*
X325000Y200000D02*
D03*
Y220000D02*
D03*
X723077Y202690D02*
D03*
X729387Y194387D02*
D03*
X900000Y335000D02*
D03*
X870000Y315000D02*
D03*
X795000Y145000D02*
D03*
X817374Y182374D02*
D03*
X845000Y205000D02*
D03*
X830000Y185000D02*
D03*
X845000Y183500D02*
D03*
X645000Y130500D02*
D03*
X665000Y129500D02*
D03*
X865000Y180000D02*
D03*
X875000Y179500D02*
D03*
X820000Y200500D02*
D03*
X809248Y190500D02*
D03*
X805000Y210000D02*
D03*
X955000Y265000D02*
D03*
Y255000D02*
D03*
X945203Y279817D02*
D03*
X805000Y200000D02*
D03*
Y220000D02*
D03*
X395000Y225000D02*
D03*
X365000Y260000D02*
D03*
X625000Y215000D02*
D03*
Y255500D02*
D03*
X735000Y261500D02*
D03*
X680000Y304000D02*
D03*
X745000Y255000D02*
D03*
X765000Y320000D02*
D03*
X260000Y165000D02*
D03*
X335000Y255000D02*
D03*
X1023000Y349500D02*
D03*
X1030000D02*
D03*
X710000Y335000D02*
D03*
X805500Y375000D02*
D03*
X765000D02*
D03*
X820000Y355000D02*
D03*
X425000Y165000D02*
D03*
X445000Y144000D02*
D03*
X425005Y144001D02*
D03*
X405000Y144000D02*
D03*
X230000Y380000D02*
D03*
X1070000Y180000D02*
D03*
X1170000Y185000D02*
D03*
X705000Y255000D02*
D03*
X850822Y276960D02*
D03*
X815000Y325000D02*
D03*
X740246Y382892D02*
D03*
X750000Y380000D02*
D03*
X940000Y285567D02*
D03*
X695000Y145000D02*
D03*
X800000Y385000D02*
D03*
X1340000Y390000D02*
D03*
Y400000D02*
D03*
X160000Y200000D02*
D03*
Y210000D02*
D03*
X1269750Y305000D02*
D03*
X1330000Y345000D02*
D03*
X1310000Y440000D02*
D03*
X210250Y255000D02*
D03*
X170251D02*
D03*
X170000Y120000D02*
D03*
X190000Y160000D02*
D03*
X940000Y240000D02*
D03*
X109426Y409426D02*
D03*
X1350000Y165000D02*
D03*
X650000Y270000D02*
D03*
X1390000Y195000D02*
D03*
X1190000Y220500D02*
D03*
X764000Y415000D02*
D03*
X1270000Y220000D02*
D03*
X1230000D02*
D03*
X270000Y380000D02*
D03*
X310000D02*
D03*
M02*
