M48
;Layer_Color=9474304
;FILE_FORMAT=4:4
METRIC,LZ
;TYPE=PLATED
T01F00S00C0.2000
T02F00S00C0.2500
T03F00S00C0.5000
T04F00S00C0.8000
T05F00S00C0.9700
T06F00S00C1.1000
T07F00S00C1.2000
T08F00S00C1.2500
;TYPE=NON_PLATED
T09F00S00C0.7000
T10F00S00C1.2000
%
T01
X00035Y002
X0016Y002
Y0021
X00170251Y00255
X0021025
X0024025Y00265
X0024Y00285
X0023025Y00295
X00190251
X00149105Y002905
X0012075Y00275
X0012075Y00249995
X00105Y0035025
X001355Y0036075
X00215Y00375
X0021Y0038
X0023Y0038
X0025Y0038
X0027Y0038
X0029Y0038
X0031Y0038
X0028Y00285
X0028025Y00265
X00335Y00255
X0035Y0026
X00365
X00395Y00225
X0039Y00162
X0031Y0017
X0028Y00155
X0028Y0013
X0026Y00165
X0019Y0016
X0017Y0012
X00325Y002
Y0022
X00055Y00395
X00425Y00385
X00515Y00335
X00525
X0052Y0033
X0053
X00535Y00335
X0059Y0033
X0057Y00285
X00625Y002555
X0065Y0027
X00645Y0032
X00675Y0031
X0068Y00304
X0072Y00285
X00745Y0029
X00755Y00285
X0078Y00285
X0078Y00293514
X0078Y003345
X0078Y003455
X00775Y003605
X00769Y00355
X00766772Y00368
X00765Y00375
X0075Y0038
X00740246Y00382892
X00705637Y00385244
X00695Y00388
X00695Y00381
X00695077Y00395244
X0066Y00395
X0064Y00385
X0071Y00335
X00735Y0033
X00745
X00765Y0032
X00745Y00255
X00735Y002615
X00725Y00245
X00726366Y00238134
X00743232Y0022
X0074Y002
X00729387Y00194387
X00723077Y0020269
X007267Y00149927
X0073165Y00154877
X00755Y001495
X00775Y00175
X0076575Y00185
X00695Y00145
X00675Y00155
X00665Y001295
X00645Y001305
X0059Y0013
X00595Y00165
X00575
X0050372Y00167272
X0049Y00215
X00485Y0023
X00425Y00165
X00425005Y00144001
X00445Y00144
X00405
X00625Y00215
X00705Y00255
X00791909Y00383585
X008Y00385
X008055Y00375
X0082Y00355
X00815Y00325
X00855Y00325
X0087Y00315
X0087Y00293514
X00842753
X00850822Y0027696
X00875Y0023
X00885Y0022
X00875Y001795
X00865Y0018
X00845Y001835
X0083Y00185
X00817374Y00182374
X00809248Y001905
X00805Y002
Y0021
Y0022
X0082Y002005
X00845Y00205
X00945Y00195
X00945Y001795
X00995Y0018
X01015Y001495
X011Y001495
X0107Y0018
X0117Y00185
X0119Y002205
X011805Y003805
X0114Y00355
X0103Y003495
X01023
X01015Y00285
X00989869Y00291369
X00955Y00275
Y00265
Y00255
X0094Y0024
X00945203Y00279817
X0094Y00285567
X009Y00335
X0087Y0035
X0097Y0022
X00795Y00145
X0121Y00225
X0123Y0022
X0125Y00225
X0127Y0022
X0129Y0022
X013645Y0023925
X01395Y0024975
X0139Y00195
X0142365Y0017865
X01446566Y00203434
X0135Y00165
X0135Y0031
X0137925Y00310005
X0137925Y00350004
X0133Y00345
X01289749Y00345001
X01259751Y00335
X0126Y00315
X0126975Y00305
X0131Y00305
X0122Y00315
X0121975Y00335
X0134Y0039
Y004
X0131Y0044
X0133Y00480001
X0142Y00454249
Y0043575
X01445375Y00435375
X01465Y0045425
X01463189Y004
X0121975Y0045
X0122Y0047
X011805Y003995
X01105Y00405
X011Y0048
X0093Y00455
X00855Y00455
X00805Y00425
X00785Y00415
X00778
X00771Y0041494
X00764Y00415
X0073Y0042
X00705Y004145
Y004035
X00694997Y00402244
X00635Y00425
X00655Y0045
X00109426Y00409426
X0007635Y0042135
T02
X00015Y0012
X0003
X00045
X0006
X00075
X00105
X0012
X00135
X0015
X00135Y00135
X00225
X0024
X00255
Y0012
X0024
X00225
X0021
X00225Y0015
X0024
X0033Y00135
X00345
Y0012
X0036
X00375
X0033
X00375Y00225
Y00315
X0036
Y003
X00345
Y00315
X0033
Y003
X00315Y00315
X003
X00285
X0027
X00255
X0024
X00225
X00165
X00015Y0027
Y00255
Y0024
Y00225
Y0021
Y00195
Y0018
Y00375
X00435Y00315
Y003
X0045
X0042
X0081Y00135
X01035Y0012
X0105
X01065
X0108
X01095
Y00255
X0111
X01125
X0114
X01155
X0117
X01185
Y0027
X0117
Y00285
X01155
Y0027
X0114
Y00285
Y003
X01125
Y00315
Y00285
Y0027
X0111
Y00285
Y003
X01095Y00285
Y0027
X0108
Y00255
X01065
Y0033
X0105
Y00315
X01035
Y003
X01095Y00375
X0111
X01125
X0114
X012Y0027
X01215
X0123
X01245
X0126
X01275
X0129
Y00255
X01305
X0132Y0024
X01335
Y00225
X0132
X01335Y00285
X01275
X0126
X01245
X0123
Y00255
X01245
X0126
X01275
X01215
X012
X01365Y0018
X0138
Y00165
X01365Y00465
X01275
Y0045
X0126
Y00465
X00435
X0045Y00405
X0039
X00375
X0036
X00345
X0033
T03
X006185Y003965
X00685Y00445
X0067Y0048
X0046
T04
X0057375Y0011
X0063625
T05
X004723Y00125
X005277
X009723Y00475
X010277
T06
X008365Y00125
X008619
X008873
X009127
X009381
X009635
X011726Y001148
Y001402
X01198
Y001148
X012234
Y001402
X012488
X012742
X012996
Y001148
X012742
X012488
X01325
X013504
Y001402
X01325
X013758
X014012
Y001148
X013758
X014266
Y001402
X01452
X014774
Y001148
X01452
X003274Y004598
Y004852
X00302
X002766
X002512
Y004598
X002766
X00302
X002258
Y004852
X002004
X00175
Y004598
X002004
X001496
X001242
Y004852
X001496
X000988
X000734
X00048
X000226
Y004598
X00048
X000734
X000988
T07
X007125Y00445315
X007375
X007625
Y00470315
X007875
Y00445315
X007375Y00470315
X007125
X00749965Y00484685
T08
X000475Y002375
Y002625
Y002875
Y003125
Y003375
Y003625
X000725
Y003375
Y003125
Y002875
Y002625
Y002375
X014275Y002375
X014525
Y002625
Y002875
Y003125
Y003375
Y003625
X014275
Y003375
Y003125
Y002875
Y002625
T09
X0071925Y001395
X0076075
T10
X000341Y003
X014659Y003
M30
