G04*
G04 #@! TF.GenerationSoftware,Altium Limited,Altium Designer,24.1.2 (44)*
G04*
G04 Layer_Color=16711935*
%FSLAX44Y44*%
%MOMM*%
G71*
G04*
G04 #@! TF.SameCoordinates,5A197B9A-B426-4778-83F4-D698A50C6921*
G04*
G04*
G04 #@! TF.FilePolarity,Negative*
G04*
G01*
G75*
%ADD45C,1.2032*%
%ADD46R,1.1032X1.5032*%
G04:AMPARAMS|DCode=50|XSize=2.1532mm|YSize=1.6032mm|CornerRadius=0.4516mm|HoleSize=0mm|Usage=FLASHONLY|Rotation=0.000|XOffset=0mm|YOffset=0mm|HoleType=Round|Shape=RoundedRectangle|*
%AMROUNDEDRECTD50*
21,1,2.1532,0.7000,0,0,0.0*
21,1,1.2500,1.6032,0,0,0.0*
1,1,0.9032,0.6250,-0.3500*
1,1,0.9032,-0.6250,-0.3500*
1,1,0.9032,-0.6250,0.3500*
1,1,0.9032,0.6250,0.3500*
%
%ADD50ROUNDEDRECTD50*%
G04:AMPARAMS|DCode=54|XSize=2.1532mm|YSize=1.6032mm|CornerRadius=0.4516mm|HoleSize=0mm|Usage=FLASHONLY|Rotation=90.000|XOffset=0mm|YOffset=0mm|HoleType=Round|Shape=RoundedRectangle|*
%AMROUNDEDRECTD54*
21,1,2.1532,0.7000,0,0,90.0*
21,1,1.2500,1.6032,0,0,90.0*
1,1,0.9032,0.3500,0.6250*
1,1,0.9032,0.3500,-0.6250*
1,1,0.9032,-0.3500,-0.6250*
1,1,0.9032,-0.3500,0.6250*
%
%ADD54ROUNDEDRECTD54*%
G04:AMPARAMS|DCode=55|XSize=1.1032mm|YSize=1.5032mm|CornerRadius=0.3266mm|HoleSize=0mm|Usage=FLASHONLY|Rotation=180.000|XOffset=0mm|YOffset=0mm|HoleType=Round|Shape=RoundedRectangle|*
%AMROUNDEDRECTD55*
21,1,1.1032,0.8500,0,0,180.0*
21,1,0.4500,1.5032,0,0,180.0*
1,1,0.6532,-0.2250,0.4250*
1,1,0.6532,0.2250,0.4250*
1,1,0.6532,0.2250,-0.4250*
1,1,0.6532,-0.2250,-0.4250*
%
%ADD55ROUNDEDRECTD55*%
G04:AMPARAMS|DCode=56|XSize=1.1032mm|YSize=1.5032mm|CornerRadius=0.3266mm|HoleSize=0mm|Usage=FLASHONLY|Rotation=270.000|XOffset=0mm|YOffset=0mm|HoleType=Round|Shape=RoundedRectangle|*
%AMROUNDEDRECTD56*
21,1,1.1032,0.8500,0,0,270.0*
21,1,0.4500,1.5032,0,0,270.0*
1,1,0.6532,-0.4250,-0.2250*
1,1,0.6532,-0.4250,0.2250*
1,1,0.6532,0.4250,0.2250*
1,1,0.6532,0.4250,-0.2250*
%
%ADD56ROUNDEDRECTD56*%
%ADD59R,1.5032X1.1032*%
%ADD69C,8.2032*%
%ADD70C,1.7272*%
%ADD71C,0.2032*%
%ADD72O,2.5032X1.5032*%
%ADD73O,2.2032X2.7032*%
%ADD74C,2.7032*%
%ADD75O,2.0032X2.2032*%
%ADD76C,1.7032*%
G04:AMPARAMS|DCode=77|XSize=1.7032mm|YSize=1.7032mm|CornerRadius=0.4766mm|HoleSize=0mm|Usage=FLASHONLY|Rotation=90.000|XOffset=0mm|YOffset=0mm|HoleType=Round|Shape=RoundedRectangle|*
%AMROUNDEDRECTD77*
21,1,1.7032,0.7500,0,0,90.0*
21,1,0.7500,1.7032,0,0,90.0*
1,1,0.9532,0.3750,0.3750*
1,1,0.9532,0.3750,-0.3750*
1,1,0.9532,-0.3750,-0.3750*
1,1,0.9532,-0.3750,0.3750*
%
%ADD77ROUNDEDRECTD77*%
%ADD78C,2.0032*%
G04:AMPARAMS|DCode=79|XSize=1.7032mm|YSize=1.7032mm|CornerRadius=0.4766mm|HoleSize=0mm|Usage=FLASHONLY|Rotation=0.000|XOffset=0mm|YOffset=0mm|HoleType=Round|Shape=RoundedRectangle|*
%AMROUNDEDRECTD79*
21,1,1.7032,0.7500,0,0,0.0*
21,1,0.7500,1.7032,0,0,0.0*
1,1,0.9532,0.3750,-0.3750*
1,1,0.9532,-0.3750,-0.3750*
1,1,0.9532,-0.3750,0.3750*
1,1,0.9532,0.3750,0.3750*
%
%ADD79ROUNDEDRECTD79*%
%ADD80C,0.9032*%
G04:AMPARAMS|DCode=97|XSize=0.7516mm|YSize=1.2016mm|CornerRadius=0.2133mm|HoleSize=0mm|Usage=FLASHONLY|Rotation=0.000|XOffset=0mm|YOffset=0mm|HoleType=Round|Shape=RoundedRectangle|*
%AMROUNDEDRECTD97*
21,1,0.7516,0.7750,0,0,0.0*
21,1,0.3250,1.2016,0,0,0.0*
1,1,0.4266,0.1625,-0.3875*
1,1,0.4266,-0.1625,-0.3875*
1,1,0.4266,-0.1625,0.3875*
1,1,0.4266,0.1625,0.3875*
%
%ADD97ROUNDEDRECTD97*%
D45*
X595000Y850000D02*
D03*
X193758Y599309D02*
D03*
X760000Y525000D02*
D03*
X812801Y602253D02*
D03*
X1385000Y640000D02*
D03*
X145000Y525000D02*
D03*
Y640000D02*
D03*
X1432901Y605678D02*
D03*
X1380000Y525000D02*
D03*
X765000Y640000D02*
D03*
X150000Y495000D02*
D03*
X1215000Y850000D02*
D03*
X1835000D02*
D03*
X1385000Y500000D02*
D03*
X765000D02*
D03*
X1810000Y930000D02*
D03*
X1190000D02*
D03*
X565000Y935000D02*
D03*
X1160000Y930000D02*
D03*
X540000Y935000D02*
D03*
X1785000Y930000D02*
D03*
D46*
X61500Y120000D02*
D03*
X38500D02*
D03*
D50*
X170000Y574000D02*
D03*
Y546000D02*
D03*
X790000Y574000D02*
D03*
Y546000D02*
D03*
X1410000Y574000D02*
D03*
Y546000D02*
D03*
X1810000Y886000D02*
D03*
Y914000D02*
D03*
X1785000D02*
D03*
Y886000D02*
D03*
X565000Y914000D02*
D03*
Y886000D02*
D03*
X1190000Y914000D02*
D03*
Y886000D02*
D03*
X1165000D02*
D03*
Y914000D02*
D03*
X540000Y886000D02*
D03*
Y914000D02*
D03*
D54*
X189000Y525000D02*
D03*
X161000D02*
D03*
X1429000D02*
D03*
X1401000D02*
D03*
X809000D02*
D03*
X781000D02*
D03*
D55*
X689500Y825000D02*
D03*
X670500D02*
D03*
X674500Y595000D02*
D03*
X655500D02*
D03*
X1929500Y825000D02*
D03*
X1910500D02*
D03*
X1294500Y595000D02*
D03*
X1275500D02*
D03*
X771500D02*
D03*
X748500D02*
D03*
X1391500D02*
D03*
X1368500D02*
D03*
X1309500Y825000D02*
D03*
X1290500D02*
D03*
X778500Y595000D02*
D03*
X801500D02*
D03*
X158500D02*
D03*
X181500D02*
D03*
X55000D02*
D03*
X36000D02*
D03*
X1193500Y825000D02*
D03*
X1216500D02*
D03*
X596500D02*
D03*
X573500D02*
D03*
X561500D02*
D03*
X538500D02*
D03*
X1181500D02*
D03*
X1158500D02*
D03*
X1801500D02*
D03*
X1778500D02*
D03*
X1836500D02*
D03*
X1813500D02*
D03*
X1398500Y595000D02*
D03*
X1421500D02*
D03*
X128500D02*
D03*
X151500D02*
D03*
D56*
X1870000Y709500D02*
D03*
Y690500D02*
D03*
X650000Y714500D02*
D03*
Y695500D02*
D03*
X715000Y710500D02*
D03*
Y729500D02*
D03*
X695000Y710500D02*
D03*
Y729500D02*
D03*
X1335000Y680500D02*
D03*
Y699500D02*
D03*
X1315000Y680500D02*
D03*
Y699500D02*
D03*
X630000Y715000D02*
D03*
Y696000D02*
D03*
X1270000Y709500D02*
D03*
Y690500D02*
D03*
X1250000Y709500D02*
D03*
Y690500D02*
D03*
X1890000Y709000D02*
D03*
Y690000D02*
D03*
X1780000Y866500D02*
D03*
Y843500D02*
D03*
X1160000Y866500D02*
D03*
Y843500D02*
D03*
X540000Y866500D02*
D03*
Y843500D02*
D03*
X1430000Y553500D02*
D03*
Y576500D02*
D03*
X810000Y553500D02*
D03*
Y576500D02*
D03*
X190000Y553500D02*
D03*
Y576500D02*
D03*
X95000Y711000D02*
D03*
Y730000D02*
D03*
X75000Y710500D02*
D03*
Y729500D02*
D03*
D59*
X60000Y160500D02*
D03*
Y179500D02*
D03*
X40000Y161000D02*
D03*
Y180000D02*
D03*
D69*
X1530000Y1350000D02*
D03*
X880000D02*
D03*
D70*
X1637000Y910000D02*
D03*
X1605000D02*
D03*
X1477000Y846000D02*
D03*
Y718000D02*
D03*
X1541000Y590000D02*
D03*
X1605000Y782000D02*
D03*
Y718000D02*
D03*
Y686000D02*
D03*
Y654000D02*
D03*
Y750000D02*
D03*
X1573000Y718000D02*
D03*
X1701000Y846000D02*
D03*
Y590000D02*
D03*
Y718000D02*
D03*
X1509000D02*
D03*
X1541000Y846000D02*
D03*
X1509000D02*
D03*
X1477000Y590000D02*
D03*
X1509000D02*
D03*
X1733000Y718000D02*
D03*
Y590000D02*
D03*
Y622000D02*
D03*
Y814000D02*
D03*
Y846000D02*
D03*
X1017000Y910000D02*
D03*
X985000D02*
D03*
X857000Y846000D02*
D03*
Y718000D02*
D03*
X921000Y590000D02*
D03*
X985000Y782000D02*
D03*
Y718000D02*
D03*
Y686000D02*
D03*
Y654000D02*
D03*
Y750000D02*
D03*
X953000Y718000D02*
D03*
X1081000Y846000D02*
D03*
Y590000D02*
D03*
Y718000D02*
D03*
X889000D02*
D03*
X921000Y846000D02*
D03*
X889000D02*
D03*
X857000Y590000D02*
D03*
X889000D02*
D03*
X1113000Y718000D02*
D03*
Y590000D02*
D03*
Y622000D02*
D03*
Y814000D02*
D03*
Y846000D02*
D03*
X397000Y910000D02*
D03*
X365000D02*
D03*
X237000Y846000D02*
D03*
Y718000D02*
D03*
X301000Y590000D02*
D03*
X365000Y782000D02*
D03*
Y718000D02*
D03*
Y686000D02*
D03*
Y654000D02*
D03*
Y750000D02*
D03*
X333000Y718000D02*
D03*
X461000Y846000D02*
D03*
Y590000D02*
D03*
Y718000D02*
D03*
X269000D02*
D03*
X301000Y846000D02*
D03*
X269000D02*
D03*
X237000Y590000D02*
D03*
X269000D02*
D03*
X493000Y718000D02*
D03*
Y590000D02*
D03*
Y622000D02*
D03*
Y814000D02*
D03*
Y846000D02*
D03*
D71*
X1605000Y1015000D02*
D03*
Y485000D02*
D03*
X1745500Y537500D02*
D03*
X1464500D02*
D03*
X1745500Y962500D02*
D03*
X1464500D02*
D03*
X985000Y1015000D02*
D03*
Y485000D02*
D03*
X1125500Y537500D02*
D03*
X844500D02*
D03*
X1125500Y962500D02*
D03*
X844500D02*
D03*
X365000Y1015000D02*
D03*
Y485000D02*
D03*
X505500Y537500D02*
D03*
X224500D02*
D03*
X505500Y962500D02*
D03*
X224500D02*
D03*
X1830000Y490000D02*
D03*
X1185000Y485000D02*
D03*
X565000Y485000D02*
D03*
X645000Y1230000D02*
D03*
Y1030000D02*
D03*
X1890000D02*
D03*
Y1230000D02*
D03*
X1270000Y1030000D02*
D03*
Y1230000D02*
D03*
D72*
X652000Y1158570D02*
D03*
Y1139520D02*
D03*
Y1120475D02*
D03*
Y1101430D02*
D03*
X1897000D02*
D03*
Y1120475D02*
D03*
Y1158570D02*
D03*
Y1139520D02*
D03*
X1277000Y1101430D02*
D03*
Y1120475D02*
D03*
Y1158570D02*
D03*
Y1139520D02*
D03*
D73*
X550400Y1193500D02*
D03*
Y1066500D02*
D03*
X525000Y1193500D02*
D03*
X499600D02*
D03*
X474200D02*
D03*
X499600Y1066500D02*
D03*
X525000D02*
D03*
X474200D02*
D03*
X1770000Y1193500D02*
D03*
Y1066500D02*
D03*
X1795400D02*
D03*
Y1193500D02*
D03*
X1719200D02*
D03*
Y1066500D02*
D03*
X1744600D02*
D03*
Y1193500D02*
D03*
X1150000D02*
D03*
Y1066500D02*
D03*
X1175400D02*
D03*
Y1193500D02*
D03*
X1099200D02*
D03*
Y1066500D02*
D03*
X1124600D02*
D03*
Y1193500D02*
D03*
D74*
X965000Y350000D02*
D03*
Y50000D02*
D03*
X805000Y350000D02*
D03*
Y50000D02*
D03*
X1765000D02*
D03*
Y350000D02*
D03*
X1605000Y50000D02*
D03*
Y350000D02*
D03*
X1445000Y50000D02*
D03*
Y350000D02*
D03*
X1285000Y50000D02*
D03*
Y350000D02*
D03*
X1125000Y50000D02*
D03*
Y350000D02*
D03*
X645000Y50000D02*
D03*
Y350000D02*
D03*
X485000Y50000D02*
D03*
Y350000D02*
D03*
X325000Y50000D02*
D03*
Y350000D02*
D03*
D75*
X692000Y800000D02*
D03*
X666600D02*
D03*
X590400D02*
D03*
X565000D02*
D03*
X539600D02*
D03*
X1782600D02*
D03*
X1808000D02*
D03*
X1833400D02*
D03*
X1909600D02*
D03*
X1935000D02*
D03*
X1315400D02*
D03*
X1290000D02*
D03*
X1213800D02*
D03*
X1188400D02*
D03*
X1163000D02*
D03*
X184400Y620000D02*
D03*
X159000D02*
D03*
X133600D02*
D03*
X57400D02*
D03*
X32000D02*
D03*
X1270000D02*
D03*
X1295400D02*
D03*
X1371600D02*
D03*
X1397000D02*
D03*
X1422400D02*
D03*
X802400D02*
D03*
X777000D02*
D03*
X751600D02*
D03*
X675400D02*
D03*
X650000D02*
D03*
D76*
X131500Y1426600D02*
D03*
X106100D02*
D03*
X131500Y1375800D02*
D03*
Y1350400D02*
D03*
X106100Y1375800D02*
D03*
Y1350400D02*
D03*
X131500Y1325000D02*
D03*
X106100D02*
D03*
X131500Y1299600D02*
D03*
X106100D02*
D03*
X131500Y1248800D02*
D03*
X106100D02*
D03*
X131500Y1223400D02*
D03*
X106100D02*
D03*
X131500Y1172600D02*
D03*
X106100Y1198000D02*
D03*
X131500D02*
D03*
X106100Y1274200D02*
D03*
X131500D02*
D03*
X106100Y1401200D02*
D03*
X131500D02*
D03*
X106100Y1452000D02*
D03*
Y1477400D02*
D03*
X131500Y1452000D02*
D03*
Y1477400D02*
D03*
X192400Y100000D02*
D03*
X141600D02*
D03*
X65400D02*
D03*
D77*
X106100Y1172600D02*
D03*
D78*
X1891900Y118100D02*
D03*
X1968100D02*
D03*
X1942700Y41900D02*
D03*
X1917300D02*
D03*
X1891900D02*
D03*
X1968100D02*
D03*
X1917300Y118100D02*
D03*
X1942700D02*
D03*
X1891900Y358100D02*
D03*
X1968100D02*
D03*
X1942700Y281900D02*
D03*
X1917300D02*
D03*
X1891900D02*
D03*
X1968100D02*
D03*
X1917300Y358100D02*
D03*
X1942700D02*
D03*
X507300Y1333100D02*
D03*
X532700D02*
D03*
X481900Y1256900D02*
D03*
X558100D02*
D03*
X532700D02*
D03*
X507300D02*
D03*
X481900Y1333100D02*
D03*
X558100D02*
D03*
X1798100D02*
D03*
X1721900D02*
D03*
X1747300Y1256900D02*
D03*
X1772700D02*
D03*
X1798100D02*
D03*
X1721900D02*
D03*
X1772700Y1333100D02*
D03*
X1747300D02*
D03*
X1178100D02*
D03*
X1101900D02*
D03*
X1127300Y1256900D02*
D03*
X1152700D02*
D03*
X1178100D02*
D03*
X1101900D02*
D03*
X1152700Y1333100D02*
D03*
X1127300D02*
D03*
D79*
X40000Y100000D02*
D03*
D80*
X1530000Y1377500D02*
D03*
X1550000Y1370000D02*
D03*
X1557500Y1350000D02*
D03*
X1550000Y1330000D02*
D03*
X1530000Y1322500D02*
D03*
X1510000Y1330000D02*
D03*
X1502500Y1350000D02*
D03*
X1510000Y1370000D02*
D03*
X880000Y1377500D02*
D03*
X900000Y1370000D02*
D03*
X907500Y1350000D02*
D03*
X900000Y1330000D02*
D03*
X880000Y1322500D02*
D03*
X860000Y1330000D02*
D03*
X852500Y1350000D02*
D03*
X860000Y1370000D02*
D03*
D97*
X1819500Y867000D02*
D03*
X1800500D02*
D03*
Y843000D02*
D03*
X1810000D02*
D03*
X1819500D02*
D03*
X1199500Y867000D02*
D03*
X1180500D02*
D03*
Y843000D02*
D03*
X1190000D02*
D03*
X1199500D02*
D03*
X579500Y867000D02*
D03*
X560500D02*
D03*
Y843000D02*
D03*
X570000D02*
D03*
X579500D02*
D03*
X1370500Y553000D02*
D03*
X1389500D02*
D03*
Y577000D02*
D03*
X1380000D02*
D03*
X1370500D02*
D03*
X750500Y553000D02*
D03*
X769500D02*
D03*
Y577000D02*
D03*
X760000D02*
D03*
X750500D02*
D03*
X130500Y553000D02*
D03*
X149500D02*
D03*
Y577000D02*
D03*
X140000D02*
D03*
X130500D02*
D03*
M02*
