G04*
G04 #@! TF.GenerationSoftware,Altium Limited,Altium Designer,24.2.2 (26)*
G04*
G04 Layer_Color=128*
%FSLAX44Y44*%
%MOMM*%
G71*
G04*
G04 #@! TF.SameCoordinates,68460E57-C620-4981-AE60-E51F35B7F001*
G04*
G04*
G04 #@! TF.FilePolarity,Positive*
G04*
G01*
G75*
%ADD18C,1.0000*%
G04:AMPARAMS|DCode=20|XSize=0.9mm|YSize=1.3mm|CornerRadius=0.225mm|HoleSize=0mm|Usage=FLASHONLY|Rotation=270.000|XOffset=0mm|YOffset=0mm|HoleType=Round|Shape=RoundedRectangle|*
%AMROUNDEDRECTD20*
21,1,0.9000,0.8500,0,0,270.0*
21,1,0.4500,1.3000,0,0,270.0*
1,1,0.4500,-0.4250,-0.2250*
1,1,0.4500,-0.4250,0.2250*
1,1,0.4500,0.4250,0.2250*
1,1,0.4500,0.4250,-0.2250*
%
%ADD20ROUNDEDRECTD20*%
G04:AMPARAMS|DCode=21|XSize=0.9mm|YSize=1.3mm|CornerRadius=0.225mm|HoleSize=0mm|Usage=FLASHONLY|Rotation=0.000|XOffset=0mm|YOffset=0mm|HoleType=Round|Shape=RoundedRectangle|*
%AMROUNDEDRECTD21*
21,1,0.9000,0.8500,0,0,0.0*
21,1,0.4500,1.3000,0,0,0.0*
1,1,0.4500,0.2250,-0.4250*
1,1,0.4500,-0.2250,-0.4250*
1,1,0.4500,-0.2250,0.4250*
1,1,0.4500,0.2250,0.4250*
%
%ADD21ROUNDEDRECTD21*%
%ADD28R,0.9000X1.3000*%
%ADD45R,1.3000X0.9000*%
G04:AMPARAMS|DCode=109|XSize=1.8mm|YSize=1.05mm|CornerRadius=0.2625mm|HoleSize=0mm|Usage=FLASHONLY|Rotation=270.000|XOffset=0mm|YOffset=0mm|HoleType=Round|Shape=RoundedRectangle|*
%AMROUNDEDRECTD109*
21,1,1.8000,0.5250,0,0,270.0*
21,1,1.2750,1.0500,0,0,270.0*
1,1,0.5250,-0.2625,-0.6375*
1,1,0.5250,-0.2625,0.6375*
1,1,0.5250,0.2625,0.6375*
1,1,0.5250,0.2625,-0.6375*
%
%ADD109ROUNDEDRECTD109*%
G04:AMPARAMS|DCode=113|XSize=0.4468mm|YSize=0.8968mm|CornerRadius=0.0609mm|HoleSize=0mm|Usage=FLASHONLY|Rotation=180.000|XOffset=0mm|YOffset=0mm|HoleType=Round|Shape=RoundedRectangle|*
%AMROUNDEDRECTD113*
21,1,0.4468,0.7750,0,0,180.0*
21,1,0.3250,0.8968,0,0,180.0*
1,1,0.1218,-0.1625,0.3875*
1,1,0.1218,0.1625,0.3875*
1,1,0.1218,0.1625,-0.3875*
1,1,0.1218,-0.1625,-0.3875*
%
%ADD113ROUNDEDRECTD113*%
D18*
X1190400Y930000D02*
D03*
X570000Y930000D02*
D03*
X755000Y485000D02*
D03*
X135000D02*
D03*
X1375000Y485000D02*
D03*
X1810000Y930001D02*
D03*
D20*
X1870000Y709500D02*
D03*
Y690500D02*
D03*
X650000Y714500D02*
D03*
Y695500D02*
D03*
X715000Y710500D02*
D03*
Y729500D02*
D03*
X695000Y710500D02*
D03*
Y729500D02*
D03*
X1335000Y680500D02*
D03*
Y699500D02*
D03*
X1315000Y680500D02*
D03*
Y699500D02*
D03*
X630000Y715000D02*
D03*
Y696000D02*
D03*
X1270000Y709500D02*
D03*
Y690500D02*
D03*
X1250000Y709500D02*
D03*
Y690500D02*
D03*
X1890000Y709000D02*
D03*
Y690000D02*
D03*
X1780000Y866500D02*
D03*
Y843500D02*
D03*
X1160000Y866500D02*
D03*
Y843500D02*
D03*
X540000Y866500D02*
D03*
Y843500D02*
D03*
X1420000Y553500D02*
D03*
Y576500D02*
D03*
X800000Y553500D02*
D03*
Y576500D02*
D03*
X180000Y553500D02*
D03*
Y576500D02*
D03*
X95000Y711000D02*
D03*
Y730000D02*
D03*
X75000Y710500D02*
D03*
Y729500D02*
D03*
D21*
X1431500Y595000D02*
D03*
X1408500D02*
D03*
X1368500D02*
D03*
X1391500D02*
D03*
X811500D02*
D03*
X788500D02*
D03*
X689500Y825000D02*
D03*
X670500D02*
D03*
X674500Y595000D02*
D03*
X655500D02*
D03*
X1929500Y825000D02*
D03*
X1910500D02*
D03*
X1294500Y595000D02*
D03*
X1275500D02*
D03*
X771500D02*
D03*
X748500D02*
D03*
X1309500Y825000D02*
D03*
X1290500D02*
D03*
X168500Y595000D02*
D03*
X191500D02*
D03*
X55000D02*
D03*
X36000D02*
D03*
X1193500Y825000D02*
D03*
X1216500D02*
D03*
X596500D02*
D03*
X573500D02*
D03*
X561500D02*
D03*
X538500D02*
D03*
X1181500D02*
D03*
X1158500D02*
D03*
X1801500D02*
D03*
X1778500D02*
D03*
X1836500D02*
D03*
X1813500D02*
D03*
X128500Y595000D02*
D03*
X151500D02*
D03*
D28*
X61500Y120000D02*
D03*
X38500D02*
D03*
D45*
X60000Y160500D02*
D03*
Y179500D02*
D03*
X40000Y161000D02*
D03*
Y180000D02*
D03*
D109*
X1402750Y535000D02*
D03*
X1377250D02*
D03*
X567750Y910000D02*
D03*
X542250D02*
D03*
X1377250Y510000D02*
D03*
X1402750D02*
D03*
X1187750Y884995D02*
D03*
X1162250D02*
D03*
X757250Y510000D02*
D03*
X782750D02*
D03*
X757250Y535000D02*
D03*
X782750D02*
D03*
X137250Y535006D02*
D03*
X162750D02*
D03*
X567750Y885000D02*
D03*
X542250D02*
D03*
X137250Y510000D02*
D03*
X162750D02*
D03*
X1187750Y910000D02*
D03*
X1162250D02*
D03*
X1807750Y885000D02*
D03*
X1782250D02*
D03*
X1807750Y910000D02*
D03*
X1782250D02*
D03*
D113*
X760500Y577000D02*
D03*
X770000D02*
D03*
X779500D02*
D03*
Y553000D02*
D03*
X760500D02*
D03*
X1819500Y867000D02*
D03*
X1800500D02*
D03*
Y843000D02*
D03*
X1810000D02*
D03*
X1819500D02*
D03*
X1199900Y867000D02*
D03*
X1180900D02*
D03*
Y843000D02*
D03*
X1190400D02*
D03*
X1199900D02*
D03*
X579500Y867000D02*
D03*
X560500D02*
D03*
Y843000D02*
D03*
X570000D02*
D03*
X579500D02*
D03*
X1380500Y553000D02*
D03*
X1399500D02*
D03*
Y577000D02*
D03*
X1390000D02*
D03*
X1380500D02*
D03*
X140500Y553000D02*
D03*
X159500D02*
D03*
Y577000D02*
D03*
X150000D02*
D03*
X140500D02*
D03*
M02*
