M48
;Layer_Color=9474304
;FILE_FORMAT=4:4
METRIC,LZ
;TYPE=PLATED
T01F00S00C0.2000
T02F00S00C0.2500
T03F00S00C0.3000
T04F00S00C0.5000
T05F00S00C0.8000
T06F00S00C1.0000
T07F00S00C1.0300
T08F00S00C1.1000
T09F00S00C1.2000
T10F00S00C1.3000
T11F00S00C1.4500
T12F00S00C2.7000
T13F00S00C3.2000
T14F00S00C4.0000
T15F00S00C4.2000
T16F00S00C8.5000
%
T01
X0003Y0015
X00025Y00165
X000195Y00175
X0186999Y0066555
X01905Y0069
X01902838Y0070365
X01900495Y00710413
X01905Y00723
Y0073
X01870541Y0074175
X01334157Y00741597
X01305Y0072
X01299085Y00714085
X0129Y0072
X01279741Y00722481
X01285Y00705
Y00695
Y00685
X013Y0068
X013Y00695
X012455Y0074
X01275Y005805
X01295
X00675Y0058
X00655
X00630161Y00665161
X00665Y00685
X0066Y00705
X0067
X006795Y00709929
X00686982Y007105
X0069Y00735
X00665
X00662773Y00719449
X00630541Y0074175
X00714859Y00742003
X00715096Y00734007
X00707Y007
X00715Y0068
X00094022Y00677161
X0006Y00665
Y007
X00066982Y007105
X00075Y00734139
X00095Y00755
X00035Y0058
X00085Y0098
X0014Y01005
X001585Y011535
X0069Y0108
X00725Y0095
X0069Y0084
X0131
X01349469Y00950531
X0131Y0108
X0193
X0193Y0084
X0193Y012
X01515Y0125
X0131Y012
X01305Y01395
X01304611Y01402389
X0128Y014
X0129Y013895
X00695Y01415
X0069Y0142
X006705Y014005
X00665Y01385
X0069Y012
X0031Y0125
X0034Y01355
X0025Y01365
Y0138
X00235Y01345
Y01335
T02
X00015Y00015
X0003
X00045
X0006
Y0003
Y00045
Y0006
X00045
Y00075
X0003
Y0006
Y00045
X00045
Y0003
X0003
X00015
Y00045
Y0006
Y00075
Y0009
Y00105
Y0012
Y00135
X01874999Y0057
X01889999
Y00585
Y006
X01904999
Y00615
X01919999
X01934999
X01949999
X01964999
X01979999
Y0063
Y00645
Y0066
Y00675
Y0069
Y00705
Y0072
Y00735
Y0075
Y00765
Y0078
X01919999Y00765
Y0075
Y00645
X01934999
X01949999
X01964999
Y0066
Y00675
X01949999Y0066
Y0063
X01964999
Y006
X01979999
Y00585
Y0057
X01964999
Y00585
X01949999Y006
X01934999Y0063
X01919999
X01904999
X01889999
Y00615
X01874999
Y0063
Y006
Y00585
X0126Y0057
X0006Y0054
X00045Y00555
Y00405
X0018Y01095
Y0111
X00195
Y01125
Y0114
Y01155
Y0117
Y01185
X0018
Y0117
Y01155
Y0114
Y01125
X00165Y0117
Y01185
X0024
X00255
X0027
X00255Y0117
X0024
Y01155
X00645Y0108
X0066
Y01065
X00645
Y0099
X0066
Y00975
Y0096
Y00945
X00645Y00975
X0075Y0099
Y01005
X00765
Y0102
X0078
Y01035
Y0105
Y01065
Y0108
Y01095
Y0111
Y01125
Y0114
Y01155
Y0117
Y01185
X00765
Y0117
Y01155
Y0114
Y01125
Y0111
Y01095
Y0108
Y01065
Y0105
Y01035
X0075
Y0105
Y01065
Y0108
Y01095
Y0111
Y01125
Y0114
Y01155
Y0117
Y01185
Y0102
X00795Y01035
Y0105
X0081
Y01065
X00825
Y0108
X0084
Y01095
X00855
Y0111
X0087
Y01125
X00885
Y0114
X009
Y01155
X00915
Y0117
X0093
Y01185
X00945
X00915
X009
Y0117
X00885
Y01185
X0087
Y0117
Y01155
X00885
X0087Y0114
X00855
Y01155
Y0117
Y01185
X0084
Y0117
Y01155
Y0114
Y01125
X00855
X0084Y0111
X00825
Y01125
Y0114
Y01155
Y0117
Y01185
X0081
Y0117
Y01155
Y0114
Y01125
Y0111
Y01095
X00825
X0081Y0108
X00795
Y01095
Y0111
Y01125
Y0114
Y01155
Y0117
Y01185
Y01065
X01275
Y0108
X0132Y01065
Y0105
Y01035
Y0102
Y01005
Y0099
Y00975
Y0096
Y00945
Y0093
Y00915
Y009
Y00885
Y0087
Y00855
X01275Y0096
Y00975
Y0099
X01365
Y01005
X0138
Y0102
X01395
Y01035
X0141
Y0105
X01425
Y01065
X0144
Y0108
X01455
Y01095
X0147
Y0111
X01485
Y01125
X015
Y0114
X01515
Y01155
X0153
Y0117
X01545
Y01185
X0156
X0153
X01515
Y0117
X015
Y01185
X01485
Y0117
Y01155
X015
X01485Y0114
X0147
Y01155
Y0117
Y01185
X01455
Y0117
Y01155
Y0114
Y01125
X0147
X01455Y0111
X0144
Y01125
Y0114
Y01155
Y0117
Y01185
X01425
Y0117
Y01155
Y0114
Y01125
Y0111
Y01095
X0144
X01425Y0108
X0141
Y01095
Y0111
Y01125
Y0114
Y01155
Y0117
Y01185
X01395
Y0117
Y01155
Y0114
Y01125
Y0111
Y01095
Y0108
Y01065
X0141
X01395Y0105
X0138
Y01065
Y0108
Y01095
Y0111
Y01125
Y0114
Y01155
Y0117
Y01185
X01365
Y0117
Y01155
Y0114
Y01125
Y0111
Y01095
Y0108
Y01065
Y0105
Y01035
X0138
X01365Y0102
X01889999Y0099
X01904999
Y00975
Y0096
Y00945
X01979999
Y0096
Y00975
Y0099
Y01005
Y0102
Y01035
Y0105
Y01065
Y0108
Y01095
Y0111
Y01125
Y0114
Y01155
Y0117
Y01185
X01904999Y0108
Y01065
X01889999
Y0108
X01979999Y0093
Y00915
Y009
Y00885
Y0087
Y00855
Y0084
Y00825
Y0081
Y00795
Y012
Y01215
Y0123
Y01245
Y0126
Y01275
Y0129
Y01305
Y0132
Y01335
Y0135
Y01365
Y0138
X01964999Y01365
Y0135
Y01335
Y0132
Y01305
Y0129
Y01275
Y0126
Y01245
Y0123
Y01215
X01949999Y01245
Y0126
Y01275
Y0129
Y01305
Y0132
Y01335
Y0135
Y0141
Y01425
X01964999
X01979999
Y0144
Y01455
Y0147
Y01485
X01964999
Y0147
Y01455
Y0144
X01949999
Y01455
Y0147
Y01485
X01934999
Y0147
Y01455
Y0144
Y01425
Y0141
Y01395
X01919999
Y0141
Y01425
Y0144
Y01455
Y0147
Y01485
X01904999
Y0147
Y01455
Y0144
Y01425
Y0141
X01889999Y01425
Y0144
Y01455
Y0147
Y01485
X01874999
Y0147
Y01455
Y0144
X01859999Y01455
Y0147
Y01485
X01844999
Y0147
X01829999Y01485
X01814999
X01799999
X01785
X0177
X01755
X0174
X01725
X0171
X01695
X0168
X01665
X0165
X01635
X0162
X01605
X0159
Y0141
X01605
X0162
X01635
Y01395
Y0138
Y01365
Y0135
Y01335
Y0132
Y01305
Y0129
Y01275
Y0126
X0162
Y01275
Y0129
Y01305
Y0132
Y01335
Y0135
Y01365
Y0138
Y01395
X01605
Y0138
Y01365
Y0135
Y01335
Y0132
Y01305
Y0129
Y01275
Y0126
Y01245
X0162
X01605Y0123
X0159
Y01245
Y0126
Y01275
Y0129
Y01305
Y0132
Y0138
Y01395
Y01215
X01575
Y0123
Y01245
Y0126
Y01275
Y0129
Y01305
X0156Y0129
Y01275
Y0126
Y01245
Y0123
Y01215
Y012
X01575
X01545
Y01215
Y0123
Y01245
Y0126
Y01275
X0153
X01515
X015
Y0129
X01485
Y01305
X0147
Y0132
X01455
Y01335
Y0135
Y01365
Y0138
X0147
Y01395
X01485
Y0141
X015
X0147
X01455
Y01395
X0144
Y0141
X01425
Y01395
Y0138
X0144
Y01365
Y0135
Y01335
Y0132
Y01305
X01455
Y0129
X0147
Y01275
X01485
Y0126
Y01245
Y0123
X015
X01515
X0153
Y01215
Y012
X01515
Y01215
X015
Y012
X01485
Y01215
X0147
Y0123
Y01245
Y0126
X01455
Y01275
X0144
Y0129
X01425
Y01305
Y0132
Y01335
Y0135
Y01365
X0141
Y0138
Y01395
Y0141
X01395
Y01395
Y0138
Y01365
Y0135
X0141
Y01335
Y0132
Y01305
Y0129
Y01275
X01425
Y0126
X0144
Y01245
X01455
Y0123
Y01215
Y012
X0147
X0144
Y01215
Y0123
X01425
Y01245
X0141
Y0126
X01395
Y01275
Y0129
Y01305
Y0132
Y01335
X0138
Y0135
Y01365
Y0138
Y01395
Y0141
X01365
Y01395
Y0138
Y01365
Y0135
Y01335
Y0132
X0138
Y01305
Y0129
Y01275
Y0126
Y01245
X01395
Y0123
X0141
Y01215
X01425
Y012
X0141
X01395
Y01215
X0138
Y0123
X01365
Y01245
Y0126
Y01275
Y0129
Y01305
X0135Y0135
Y01365
Y0138
Y01395
Y0141
X01335Y01395
Y0138
Y01365
X0132Y0138
X01305Y01425
X0129
Y01485
X01305
X0132
X01335
X0135
X01365
X0138
X01395
X0141
X01425
X0144
X01455
X0147
X01485
X015
X01515
X0153
X01545
X0156
X01575
Y0141
Y01395
X0156Y0141
X01275Y0135
Y01335
Y0132
Y01305
Y0129
Y01275
X01365Y01215
Y012
X0138
X01275Y01485
X0126
X01245
X0123
X01215
X012
X01185
X0117
X01155
X0114
X01125
X0111
X01095
X0108
X01065
X0105
X01035
X0102
X01005
X0099
X00975
X0096
X00945
X0093
X00915
X009
X00885
X0087
X00855
X0084
X00825
X0081
X00795
Y0141
X0081
X00825
X0084
X00855
X009
X00915
X0093
X00945
X0096
X00975
X0099
X01005
X0102
Y01395
Y0138
Y01365
Y0135
Y01335
Y0132
Y01305
Y0129
Y01275
Y0126
X01005
Y01275
Y0129
Y01305
Y0132
Y01335
Y0135
Y01365
Y0138
Y01395
X0099
Y0138
Y01365
Y0135
Y01335
Y0132
Y01305
Y0129
Y01275
Y0126
Y01245
X01005
X0099Y0123
X00975
Y01245
Y0126
Y01275
Y0129
Y01305
Y0132
Y01335
Y0135
Y01365
Y0138
Y01395
X0096
Y0138
Y01365
Y0135
Y01335
Y0132
Y01305
Y0129
Y01275
Y0126
Y01245
Y0123
Y01215
X00975
X0096Y012
X00945
Y01215
Y0123
Y01245
Y0126
Y01275
Y0129
Y01305
Y0132
Y01335
Y0135
Y01365
Y0138
Y01395
X0093
Y01305
Y0129
Y01275
Y0126
Y01245
Y0123
Y01215
Y012
X00915
Y01215
Y0123
Y01245
Y0126
Y01275
Y0129
X009
Y01275
X0087
X00855
Y0129
X0084
Y01275
Y0126
X00855
Y01245
Y0123
Y01215
X0087
X00885
X009
Y012
X00885
X0087
X00855
X0084
Y01215
Y0123
Y01245
X00825
Y0126
Y01275
Y0129
Y01305
Y0132
X0081
Y01335
Y0135
Y01365
Y0138
X00825
Y01395
X0081
X00795
Y0138
Y01365
Y0135
Y01335
Y0132
Y01305
X0081
Y0129
Y01275
Y0126
Y01245
Y0123
X00825
Y01215
Y012
X0081
Y01215
X00795
Y0123
Y01245
Y0126
Y01275
Y0129
Y012
X0078
Y01215
Y0123
Y01245
Y0126
Y01275
Y0129
Y01305
Y0132
Y01335
Y0135
Y01365
Y0138
Y01395
Y0141
X00765
Y01395
Y0138
Y01365
Y0135
Y01335
Y0132
Y01305
Y0129
Y01275
Y0126
Y01245
Y0123
Y01215
Y012
X0075
Y01215
Y0123
Y01245
Y0126
Y01275
Y0129
Y01305
Y0132
Y01335
Y0135
Y01365
Y0138
Y01395
Y0141
X00735
Y01395
Y0138
Y01365
Y0135
Y01335
X0072Y0135
Y01365
Y0138
Y01395
Y0141
X00705Y01395
Y0138
Y01365
X00645Y0135
Y01335
Y0132
Y01305
Y0129
Y01275
Y01485
X0066
X00675
X0069
X00705
X0072
X00735
X0075
X00765
X0078
X0063
X00615
X006
X00585
X0057
X00555
X0054
X00525
X0051
X00495
X0048
X00465
X0045
X00435
X0042
X00405
X0039
X00375
X0036
X00345
X0033
X00315
Y0147
X003
Y01485
X00285
Y0147
Y01455
X003
X00285Y0144
X0027
Y01455
Y0147
Y01485
X00255
Y0147
Y01455
Y0144
Y01425
X0027
X00255Y0141
X0024
Y01425
Y0144
Y01455
X00225
Y0144
Y01425
Y0141
X0021
Y01425
Y0144
Y01455
X00195
Y0144
Y01425
Y0141
Y01395
X0018
Y0141
Y01425
Y0144
Y01455
X00165
Y0144
Y01425
X00075
Y0144
Y01455
Y0147
Y01485
X0006
Y0147
Y01455
Y0144
Y01425
Y0141
X00045
Y01425
Y0144
Y01455
Y0147
Y01485
X0003
Y0147
Y01455
Y0144
Y01425
Y0141
Y01395
X00045
X0003Y0138
X00015
Y01395
Y0141
Y01425
Y0144
Y01455
Y0147
Y01485
Y01365
X00075Y01335
Y0132
Y01305
Y0129
X00165Y01305
X00195Y0123
Y01215
Y012
X0018
Y01215
X00165Y012
X0024
X00255
X0027
X00285
Y01215
X003
X0027
X00255
Y0123
Y01245
Y0126
Y01275
X0027
Y0129
X00285
X003
Y01305
Y0132
X00285Y01305
X003Y01275
X0036
X00375
X0039
Y0129
Y01305
Y0132
Y01335
Y0135
Y01365
Y0138
X00375Y01365
Y0135
Y01335
Y0132
Y01305
Y0129
X0036
Y01305
Y0132
Y01335
Y0135
Y0126
X00375
X0039
Y01245
X00375
Y0123
X0036
Y01245
Y01215
X0024
Y0123
Y01245
Y0126
T03
X00030382Y00189617
X01715Y0075
X01805Y00755
X018145Y00665
X01525Y0076
X013905Y0075445
X01335Y00755
Y0073
X01405Y00655
X0125Y00665
X011945
X01185Y00755
X01095Y0075
X00905Y0076
X007705Y0075445
X00785Y00655
X005745Y00665
X00565Y00755
X00475Y0075
X00285Y0076
X001505Y0075445
X00165Y00655
X00055Y0058
X0037Y00865
X0054Y0085
X0056Y0086
X00565Y009
X0054
X0067Y0084
X007Y0111
X0099Y00865
X0116Y0085
X0118Y0086
X01185Y009
X0116
X0129Y0084
X0132Y0111
X0161Y00865
X0178Y0085
X018Y0086
X01805Y009
X0178
X0191Y0084
X0194Y0111
T04
X0151Y0133
X0153Y013225
X0155Y0133
X015575Y0135
X0155Y0137
X0153Y013775
X0151Y0137
X015025Y0135
X009075
X009Y0137
X0088Y013775
X0086Y0137
X008525Y0135
X0086Y0133
X0088Y013225
X009Y0133
T05
X00652Y0110143
Y01120475
Y0113952
Y0115857
X01277
Y0113952
Y01120475
Y0110143
X01897
Y01120475
Y0113952
Y0115857
T06
X0004Y001
X000654
X001416
X001924
T07
X001061Y011726
X001315
Y01198
Y012234
Y012488
X001061
Y012234
Y01198
Y012742
Y012996
Y01325
Y013504
X001315
Y013758
X001061
Y014012
Y014266
X001315
Y014012
Y01452
X001061
Y014774
X001315
Y01325
Y012996
Y012742
T08
X01605Y00654
Y00686
Y00718
Y0075
Y00782
X01701Y00718
X01733
Y00622
Y0059
X01701
X01541
X01509
X01477
X014224Y0062
X01397
X013716
X012954
X0127
X01477Y00718
X01509
X01573
X01113
X01081
X00985
Y00686
Y00654
Y0075
Y00782
X00953Y00718
X00889
X00857
Y0059
X00889
X00921
X008024Y0062
X01081Y0059
X01113
Y00622
X00777Y0062
X007516
X006754
X0065
X00493Y00622
Y0059
X00461
Y00718
X00493
X00365
Y00686
Y00654
Y0075
Y00782
X00333Y00718
X00269
X00237
Y0059
X00269
X00301
X001844Y0062
X00159
X001336
X000574
X00032
X00237Y00846
X00269
X00301
X00365Y0091
X00397
X00461Y00846
X00493
Y00814
X005396Y008
X00565
X005904
X006666
X00692
X00857Y00846
X00889
X00921
X00985Y0091
X01017
X01081Y00846
X01113
Y00814
X01163Y008
X011884
X012138
X0129
X013154
X01477Y00846
X01509
X01541
X01605Y0091
X01637
X01701Y00846
X01733
Y00814
X017826Y008
X01808
X018334
X019096
X01935
T09
X00325Y0005
Y0035
X00485
X00645
Y0005
X00485
X00805
X00965
X01125
Y0035
X00965
X00805
X01285
X01445
Y0005
X01285
X01605
X01765
Y0035
X01605
T10
X004742Y010665
X004996
X00525
X005504
X010992
X011246
X0115
X011754
X017192
X017446
X0177
X017954
Y011935
X0177
X017446
X017192
X011754
X0115
X011246
X010992
X005504
X00525
X004996
X004742
T11
X018919Y000419
X019173
X019427
X019681
Y001181
X019427
X019173
X018919
X018919Y002819
X019173
X019427
X019681
Y003581
X019427
X019173
X018919
X017981Y012569
X017727
X017473
X017219
Y013331
X017473
X017727
X017981
X011781
X011527
X011273
X011019
Y012569
X011273
X011527
X011781
X005581
X005327
X005073
X004819
Y013331
X005073
X005327
X005581
T12
X017455Y005375
X014645
X011255
X008445
X005055
X002245
Y009625
X005055
X008445
X011255
X014645
X017455
T13
X00645Y0103
X0127
X0189
Y0123
X0127
X00645
T14
X0153Y0135
X0088
T15
X0183Y0049
X01185Y00485
X00565Y00485
T16
X01605Y00485
X00985
X00365
Y01015
X00985
X01605
M30
