<svg xmlns="http://www.w3.org/2000/svg" xmlns:xlink="http://www.w3.org/1999/xlink" viewBox="0 0 16 16"><defs><style>.cls-1{fill:gray;opacity:0;}.cls-2{fill:url(#linear-gradient);}.cls-3{fill:url(#linear-gradient-2);}.cls-4{fill:url(#linear-gradient-3);}.cls-5{fill:url(#linear-gradient-4);}</style><linearGradient id="linear-gradient" x1="3.72" x2="3.72" y2="16" gradientUnits="userSpaceOnUse"><stop offset="0.07" stop-color="#464646"/><stop offset="0.96" stop-color="#242424"/></linearGradient><linearGradient id="linear-gradient-2" x1="1621.5" y1="660" x2="1621.5" y2="652" gradientTransform="translate(1633 667) rotate(180)" gradientUnits="userSpaceOnUse"><stop offset="0.07" stop-color="#476f92"/><stop offset="0.42" stop-color="#0b3f6f"/><stop offset="0.93" stop-color="#051b30"/></linearGradient><linearGradient id="linear-gradient-3" x1="11.5" y1="4" x2="11.5" y2="5" gradientTransform="matrix(1, 0, 0, 1, 0, 0)" xlink:href="#linear-gradient-2"/><linearGradient id="linear-gradient-4" x1="11.5" y1="1" x2="11.5" y2="2" gradientTransform="matrix(1, 0, 0, 1, 0, 0)" xlink:href="#linear-gradient-2"/></defs><title>alphabetic-view_16</title><g id="Layer_2" data-name="Layer 2"><g id="Content"><rect id="Area" class="cls-1" width="16" height="16"/><path class="cls-2" d="M4.35,2.41a.53.53,0,0,0,.45-.28.86.86,0,0,0,.06-.37A.79.79,0,0,0,4.51,1a1.87,1.87,0,0,0-1-.22,1.27,1.27,0,0,0-1.07.41,1.35,1.35,0,0,0-.23.67H1.3A1.67,1.67,0,0,1,2,.42,2.82,2.82,0,0,1,3.53,0,3.12,3.12,0,0,1,5.17.39a1.31,1.31,0,0,1,.63,1.2V4.9a.43.43,0,0,0,.06.24.3.3,0,0,0,.26.09h.14l.17,0v.71L6.1,6,5.77,6A.79.79,0,0,1,5,5.66a1.35,1.35,0,0,1-.17-.53A2.47,2.47,0,0,1,4,5.8a2.62,2.62,0,0,1-1.22.28A1.82,1.82,0,0,1,1.51,5.6,1.61,1.61,0,0,1,1,4.39a1.57,1.57,0,0,1,.5-1.24A2.38,2.38,0,0,1,2.81,2.6ZM2.32,5A1.14,1.14,0,0,0,3,5.26,2.21,2.21,0,0,0,4,5c.54-.26,1-.54,1-1.14L4.84,3c-.12.08-1.59.37-1.59.37a2.26,2.26,0,0,0-.79.22.85.85,0,0,0-.45.8A.8.8,0,0,0,2.32,5ZM1,15.24l3.42-4.12H1.25v-.86H5.72V11l-3.39,4.1h3.5V16H1Z"/><polygon class="cls-3" points="9 12 11.5 15 14 12 12 12 12 7 11 7 11 12 9 12"/><rect class="cls-4" x="11" y="4" width="1" height="1"/><rect class="cls-5" x="11" y="1" width="1" height="1"/></g></g></svg>