<svg data-name="Layer 1" xmlns="http://www.w3.org/2000/svg" xmlns:xlink="http://www.w3.org/1999/xlink" viewBox="0 0 24 24"><defs><style>.cls-1{fill:none;}.cls-2{fill:#666;opacity:0.9;isolation:isolate;}.cls-3{fill:#da6027;}.cls-4{fill:#fafafa;}.cls-5{fill:#f9d12d;}.cls-6{fill:#ffc43b;}.cls-7{fill:#e8b84e;}.cls-8{fill:#b7bc64;}.cls-9{fill:#7dbe7c;}.cls-10{fill:#14b7b1;}.cls-11{fill:#04aabc;}.cls-12{fill:#307fbf;}.cls-13{fill:#343084;}.cls-14{fill:#3ab59a;}.cls-15{clip-path:url(#clip-path-code);}.cls-16{fill:#adbc68;}.cls-17{fill:#f2ea0f;}.cls-18{fill:#3f56a4;}.cls-19{clip-path:url(#clip-path-code-2);}.cls-20{fill:#787878;}</style><clipPath id="clip-path-code"><rect class="cls-1" x="14" y="7" width="6" height="5"/></clipPath><clipPath id="clip-path-code-2"><rect class="cls-1" x="14" y="15" width="6" height="5"/></clipPath></defs><path class="cls-2" d="M1,0V24H23V0ZM22,23H2V1H22Z"/><rect class="cls-3" x="3" y="3" width="9" height="1"/><rect class="cls-4" x="2" y="1" width="20" height="22"/><rect class="cls-5" x="14" y="7" width="0.45" height="0.63"/><rect class="cls-5" x="14.45" y="7" width="0.45" height="0.63"/><rect class="cls-6" x="15.64" y="7" width="0.55" height="0.63"/><rect class="cls-7" x="16.18" y="7" width="0.55" height="0.63"/><rect class="cls-8" x="17.82" y="7" width="0.55" height="0.63"/><rect class="cls-9" x="18.36" y="7" width="0.55" height="0.63"/><rect class="cls-10" x="19.45" y="7" width="0.55" height="0.63"/><rect class="cls-5" x="14" y="7.63" width="0.45" height="0.63"/><rect class="cls-6" x="14.45" y="7.63" width="0.45" height="0.63"/><rect class="cls-7" x="15.64" y="7.63" width="0.55" height="0.63"/><rect class="cls-8" x="16.18" y="7.63" width="0.55" height="0.63"/><rect class="cls-9" x="17.82" y="7.63" width="0.55" height="0.63"/><rect class="cls-10" x="18.36" y="7.63" width="0.55" height="0.63"/><rect class="cls-11" x="19.45" y="7.63" width="0.55" height="0.63"/><rect class="cls-6" x="14" y="9.5" width="0.45" height="0.63"/><rect class="cls-7" x="14.45" y="9.5" width="0.45" height="0.63"/><rect class="cls-8" x="15.64" y="9.5" width="0.55" height="0.63"/><rect class="cls-9" x="16.18" y="9.5" width="0.55" height="0.63"/><rect class="cls-10" x="17.82" y="9.5" width="0.55" height="0.63"/><rect class="cls-11" x="18.36" y="9.5" width="0.55" height="0.63"/><rect class="cls-12" x="19.45" y="9.5" width="0.55" height="0.63"/><rect class="cls-7" x="14" y="10.13" width="0.45" height="0.63"/><rect class="cls-8" x="14.45" y="10.13" width="0.45" height="0.63"/><rect class="cls-9" x="15.64" y="10.13" width="0.55" height="0.63"/><rect class="cls-10" x="16.18" y="10.13" width="0.55" height="0.63"/><rect class="cls-11" x="17.82" y="10.13" width="0.55" height="0.63"/><rect class="cls-12" x="18.36" y="10.13" width="0.55" height="0.63"/><rect class="cls-13" x="19.45" y="10.13" width="0.55" height="0.63"/><rect class="cls-8" x="14" y="10.75" width="0.45" height="0.63"/><rect class="cls-9" x="14.45" y="10.75" width="0.45" height="0.63"/><rect class="cls-10" x="15.64" y="10.75" width="0.55" height="0.63"/><rect class="cls-11" x="16.18" y="10.75" width="0.55" height="0.63"/><rect class="cls-12" x="17.82" y="10.75" width="0.55" height="0.63"/><rect class="cls-13" x="18.36" y="10.75" width="0.55" height="0.63"/><rect class="cls-13" x="19.45" y="10.75" width="0.55" height="0.63"/><rect class="cls-14" x="14" y="7" width="6" height="5"/><g class="cls-15"><ellipse class="cls-9" cx="15.87" cy="10.75" rx="2.34" ry="2.88" transform="translate(-2.44 5.07) rotate(-16.87)"/><ellipse class="cls-16" cx="15.86" cy="10.75" rx="1.77" ry="2.23" transform="translate(-2.76 6.25) rotate(-20.54)"/><ellipse class="cls-6" cx="15.87" cy="10.75" rx="1.19" ry="1.57" transform="translate(-3.09 7.94) rotate(-25.68)"/><ellipse class="cls-17" cx="15.87" cy="10.75" rx="0.6" ry="0.93" transform="translate(-3.29 10.26) rotate(-32.66)"/><ellipse class="cls-11" cx="18.09" cy="7.4" rx="1.65" ry="2.08" transform="translate(-1.45 6.86) rotate(-20.67)"/><ellipse class="cls-12" cx="18.09" cy="7.4" rx="1.11" ry="1.48" transform="translate(-1.42 8.59) rotate(-25.74)"/><ellipse class="cls-18" cx="18.09" cy="7.4" rx="0.56" ry="0.87" transform="translate(-1.13 10.95) rotate(-32.72)"/></g><rect class="cls-5" x="14" y="15" width="0.45" height="0.63"/><rect class="cls-5" x="14.45" y="15" width="0.45" height="0.63"/><rect class="cls-6" x="15.64" y="15" width="0.55" height="0.63"/><rect class="cls-7" x="16.18" y="15" width="0.55" height="0.63"/><rect class="cls-8" x="17.82" y="15" width="0.55" height="0.63"/><rect class="cls-9" x="18.36" y="15" width="0.55" height="0.63"/><rect class="cls-10" x="19.45" y="15" width="0.55" height="0.63"/><rect class="cls-5" x="14" y="15.63" width="0.45" height="0.63"/><rect class="cls-6" x="14.45" y="15.63" width="0.45" height="0.63"/><rect class="cls-7" x="15.64" y="15.63" width="0.55" height="0.63"/><rect class="cls-8" x="16.18" y="15.63" width="0.55" height="0.63"/><rect class="cls-9" x="17.82" y="15.63" width="0.55" height="0.63"/><rect class="cls-10" x="18.36" y="15.63" width="0.55" height="0.63"/><rect class="cls-11" x="19.45" y="15.63" width="0.55" height="0.63"/><rect class="cls-6" x="14" y="17.5" width="0.45" height="0.63"/><rect class="cls-7" x="14.45" y="17.5" width="0.45" height="0.63"/><rect class="cls-8" x="15.64" y="17.5" width="0.55" height="0.63"/><rect class="cls-9" x="16.18" y="17.5" width="0.55" height="0.63"/><rect class="cls-10" x="17.82" y="17.5" width="0.55" height="0.63"/><rect class="cls-11" x="18.36" y="17.5" width="0.55" height="0.63"/><rect class="cls-12" x="19.45" y="17.5" width="0.55" height="0.63"/><rect class="cls-7" x="14" y="18.13" width="0.45" height="0.63"/><rect class="cls-8" x="14.45" y="18.13" width="0.45" height="0.63"/><rect class="cls-9" x="15.64" y="18.13" width="0.55" height="0.63"/><rect class="cls-10" x="16.18" y="18.13" width="0.55" height="0.63"/><rect class="cls-11" x="17.82" y="18.13" width="0.55" height="0.63"/><rect class="cls-12" x="18.36" y="18.13" width="0.55" height="0.63"/><rect class="cls-13" x="19.45" y="18.13" width="0.55" height="0.63"/><rect class="cls-8" x="14" y="18.75" width="0.45" height="0.63"/><rect class="cls-9" x="14.45" y="18.75" width="0.45" height="0.63"/><rect class="cls-10" x="15.64" y="18.75" width="0.55" height="0.63"/><rect class="cls-11" x="16.18" y="18.75" width="0.55" height="0.63"/><rect class="cls-12" x="17.82" y="18.75" width="0.55" height="0.63"/><rect class="cls-13" x="18.36" y="18.75" width="0.55" height="0.63"/><rect class="cls-13" x="19.45" y="18.75" width="0.55" height="0.63"/><rect class="cls-14" x="14" y="15" width="6" height="5"/><g class="cls-19"><ellipse class="cls-9" cx="15.87" cy="18.75" rx="2.34" ry="2.88" transform="translate(-4.76 5.41) rotate(-16.87)"/><ellipse class="cls-16" cx="15.86" cy="18.75" rx="1.77" ry="2.23" transform="translate(-5.57 6.76) rotate(-20.54)"/><ellipse class="cls-6" cx="15.87" cy="18.75" rx="1.19" ry="1.57" transform="translate(-6.56 8.73) rotate(-25.68)"/><ellipse class="cls-17" cx="15.87" cy="18.75" rx="0.6" ry="0.93" transform="translate(-7.61 11.53) rotate(-32.66)"/><ellipse class="cls-11" cx="18.09" cy="15.4" rx="1.65" ry="2.08" transform="translate(-4.27 7.38) rotate(-20.67)"/><ellipse class="cls-12" cx="18.09" cy="15.4" rx="1.11" ry="1.48" transform="translate(-4.89 9.38) rotate(-25.74)"/><ellipse class="cls-18" cx="18.09" cy="15.4" rx="0.56" ry="0.87" transform="translate(-5.45 12.22) rotate(-32.72)"/></g><rect class="cls-3" x="4" y="4" width="8" height="1"/><rect class="cls-20" x="4" y="7" width="7" height="1"/><rect class="cls-20" x="4" y="13" width="7" height="1"/><rect class="cls-20" x="4" y="19" width="7" height="1"/><rect class="cls-20" x="5" y="9" width="6" height="1"/><rect class="cls-20" x="6" y="11" width="6" height="1"/><rect class="cls-20" x="5" y="15" width="6" height="1"/><rect class="cls-20" x="6" y="17" width="6" height="1"/></svg>