<svg data-name="Layer 1" xmlns="http://www.w3.org/2000/svg" xmlns:xlink="http://www.w3.org/1999/xlink" viewBox="0 0 16 16"><defs><style>.cls-1{fill:none;}.cls-2{fill:#666;opacity:0.9;isolation:isolate;}.cls-3{fill:#fafafa;}.cls-4{fill:#f9d12d;}.cls-5{fill:#ffc43b;}.cls-6{fill:#e8b84e;}.cls-7{fill:#b7bc64;}.cls-8{fill:#7dbe7c;}.cls-9{fill:#14b7b1;}.cls-10{fill:#04aabc;}.cls-11{fill:#307fbf;}.cls-12{fill:#343084;}.cls-13{fill:#3ab59a;}.cls-14{clip-path:url(#clip-path-code-16);}.cls-15{fill:#adbc68;}.cls-16{fill:#f2ea0f;}.cls-17{fill:#3f56a4;}.cls-18{clip-path:url(#clip-path-code-16-2);}.cls-19{fill:#da6027;}.cls-20{fill:#787878;}</style><clipPath id="clip-path-code-16"><rect class="cls-1" x="9" y="6" width="4" height="3"/></clipPath><clipPath id="clip-path-code-16-2"><rect class="cls-1" x="9" y="10" width="4" height="3"/></clipPath></defs><path class="cls-2" d="M0,0V16H15V0ZM14,15H1V1H14Z"/><rect class="cls-3" x="1" y="1" width="13" height="14"/><rect class="cls-4" x="9" y="6" width="0.36" height="0.38"/><rect class="cls-4" x="9.36" y="6" width="0.36" height="0.38"/><rect class="cls-5" x="10.09" y="6" width="0.36" height="0.38"/><rect class="cls-6" x="10.45" y="6" width="0.36" height="0.38"/><rect class="cls-7" x="11.55" y="6" width="0.36" height="0.38"/><rect class="cls-8" x="11.91" y="6" width="0.36" height="0.38"/><rect class="cls-9" x="12.64" y="6" width="0.36" height="0.38"/><rect class="cls-4" x="9" y="6.38" width="0.36" height="0.38"/><rect class="cls-5" x="9.36" y="6.38" width="0.36" height="0.38"/><rect class="cls-6" x="10.09" y="6.38" width="0.36" height="0.38"/><rect class="cls-7" x="10.45" y="6.38" width="0.36" height="0.38"/><rect class="cls-8" x="11.55" y="6.38" width="0.36" height="0.38"/><rect class="cls-9" x="11.91" y="6.38" width="0.36" height="0.38"/><rect class="cls-10" x="12.64" y="6.38" width="0.36" height="0.38"/><rect class="cls-5" x="9" y="7.5" width="0.36" height="0.38"/><rect class="cls-6" x="9.36" y="7.5" width="0.36" height="0.38"/><rect class="cls-7" x="10.09" y="7.5" width="0.36" height="0.38"/><rect class="cls-8" x="10.45" y="7.5" width="0.36" height="0.38"/><rect class="cls-9" x="11.55" y="7.5" width="0.36" height="0.38"/><rect class="cls-10" x="11.91" y="7.5" width="0.36" height="0.38"/><rect class="cls-11" x="12.64" y="7.5" width="0.36" height="0.38"/><rect class="cls-6" x="9" y="7.88" width="0.36" height="0.38"/><rect class="cls-7" x="9.36" y="7.88" width="0.36" height="0.38"/><rect class="cls-8" x="10.09" y="7.88" width="0.36" height="0.38"/><rect class="cls-9" x="10.45" y="7.88" width="0.36" height="0.38"/><rect class="cls-10" x="11.55" y="7.88" width="0.36" height="0.38"/><rect class="cls-11" x="11.91" y="7.88" width="0.36" height="0.38"/><rect class="cls-12" x="12.64" y="7.88" width="0.36" height="0.38"/><rect class="cls-7" x="9" y="8.25" width="0.36" height="0.38"/><rect class="cls-8" x="9.36" y="8.25" width="0.36" height="0.38"/><rect class="cls-9" x="10.09" y="8.25" width="0.36" height="0.38"/><rect class="cls-10" x="10.45" y="8.25" width="0.36" height="0.38"/><rect class="cls-11" x="11.55" y="8.25" width="0.36" height="0.38"/><rect class="cls-12" x="11.91" y="8.25" width="0.36" height="0.38"/><rect class="cls-12" x="12.64" y="8.25" width="0.36" height="0.38"/><rect class="cls-13" x="9" y="6" width="4" height="3"/><g class="cls-14"><ellipse class="cls-8" cx="10.24" cy="8.25" rx="1.53" ry="1.76" transform="translate(-2.74 6.17) rotate(-29.74)"/><ellipse class="cls-15" cx="10.24" cy="8.25" rx="1.15" ry="1.37" transform="translate(-2.84 6.87) rotate(-32.84)"/><ellipse class="cls-5" cx="10.24" cy="8.25" rx="0.77" ry="0.97" transform="translate(-2.9 7.66) rotate(-36.26)"/><ellipse class="cls-16" cx="10.25" cy="8.25" rx="0.39" ry="0.58" transform="translate(-2.91 8.49) rotate(-39.88)"/><ellipse class="cls-10" cx="11.73" cy="6.24" rx="1.08" ry="1.28" transform="translate(-1.51 7.37) rotate(-32.9)"/><ellipse class="cls-11" cx="11.73" cy="6.24" rx="0.72" ry="0.91" transform="translate(-1.42 8.15) rotate(-36.28)"/><ellipse class="cls-17" cx="11.73" cy="6.24" rx="0.36" ry="0.54" transform="translate(-1.27 8.98) rotate(-39.9)"/></g><rect class="cls-4" x="9" y="10" width="0.36" height="0.38"/><rect class="cls-4" x="9.36" y="10" width="0.36" height="0.38"/><rect class="cls-5" x="10.09" y="10" width="0.36" height="0.38"/><rect class="cls-6" x="10.45" y="10" width="0.36" height="0.38"/><rect class="cls-7" x="11.55" y="10" width="0.36" height="0.38"/><rect class="cls-8" x="11.91" y="10" width="0.36" height="0.38"/><rect class="cls-9" x="12.64" y="10" width="0.36" height="0.38"/><rect class="cls-4" x="9" y="10.38" width="0.36" height="0.38"/><rect class="cls-5" x="9.36" y="10.38" width="0.36" height="0.38"/><rect class="cls-6" x="10.09" y="10.38" width="0.36" height="0.38"/><rect class="cls-7" x="10.45" y="10.38" width="0.36" height="0.38"/><rect class="cls-8" x="11.55" y="10.38" width="0.36" height="0.38"/><rect class="cls-9" x="11.91" y="10.38" width="0.36" height="0.38"/><rect class="cls-10" x="12.64" y="10.38" width="0.36" height="0.38"/><rect class="cls-5" x="9" y="11.5" width="0.36" height="0.38"/><rect class="cls-6" x="9.36" y="11.5" width="0.36" height="0.38"/><rect class="cls-7" x="10.09" y="11.5" width="0.36" height="0.38"/><rect class="cls-8" x="10.45" y="11.5" width="0.36" height="0.38"/><rect class="cls-9" x="11.55" y="11.5" width="0.36" height="0.38"/><rect class="cls-10" x="11.91" y="11.5" width="0.36" height="0.38"/><rect class="cls-11" x="12.64" y="11.5" width="0.36" height="0.38"/><rect class="cls-6" x="9" y="11.88" width="0.36" height="0.38"/><rect class="cls-7" x="9.36" y="11.88" width="0.36" height="0.38"/><rect class="cls-8" x="10.09" y="11.88" width="0.36" height="0.38"/><rect class="cls-9" x="10.45" y="11.88" width="0.36" height="0.38"/><rect class="cls-10" x="11.55" y="11.88" width="0.36" height="0.38"/><rect class="cls-11" x="11.91" y="11.88" width="0.36" height="0.38"/><rect class="cls-12" x="12.64" y="11.88" width="0.36" height="0.38"/><rect class="cls-7" x="9" y="12.25" width="0.36" height="0.38"/><rect class="cls-8" x="9.36" y="12.25" width="0.36" height="0.38"/><rect class="cls-9" x="10.09" y="12.25" width="0.36" height="0.38"/><rect class="cls-10" x="10.45" y="12.25" width="0.36" height="0.38"/><rect class="cls-11" x="11.55" y="12.25" width="0.36" height="0.38"/><rect class="cls-12" x="11.91" y="12.25" width="0.36" height="0.38"/><rect class="cls-12" x="12.64" y="12.25" width="0.36" height="0.38"/><rect class="cls-13" x="9" y="10" width="4" height="3"/><g class="cls-18"><ellipse class="cls-8" cx="10.24" cy="12.25" rx="1.53" ry="1.76" transform="translate(-4.73 6.7) rotate(-29.74)"/><ellipse class="cls-15" cx="10.24" cy="12.25" rx="1.15" ry="1.37" transform="translate(-5.01 7.51) rotate(-32.84)"/><ellipse class="cls-5" cx="10.24" cy="12.25" rx="0.77" ry="0.97" transform="translate(-5.26 8.43) rotate(-36.26)"/><ellipse class="cls-16" cx="10.25" cy="12.25" rx="0.39" ry="0.58" transform="translate(-5.47 9.42) rotate(-39.88)"/><ellipse class="cls-10" cx="11.73" cy="10.24" rx="1.08" ry="1.28" transform="translate(-3.68 8.01) rotate(-32.9)"/><ellipse class="cls-11" cx="11.73" cy="10.24" rx="0.72" ry="0.91" transform="translate(-3.79 8.93) rotate(-36.28)"/><ellipse class="cls-17" cx="11.73" cy="10.24" rx="0.36" ry="0.54" transform="translate(-3.84 9.91) rotate(-39.9)"/></g><rect class="cls-19" x="2" y="3" width="6" height="1"/><rect class="cls-20" x="2" y="6" width="5" height="1"/><rect class="cls-20" x="2" y="12" width="5" height="1"/><rect class="cls-20" x="3" y="8" width="4" height="1"/><rect class="cls-20" x="5" y="10" width="3" height="1"/></svg>