<svg data-name="Layer 1" xmlns="http://www.w3.org/2000/svg" xmlns:xlink="http://www.w3.org/1999/xlink" viewBox="0 0 16 16"><defs><style>.cls-1{fill:none;}.cls-2{fill:#666;opacity:0.9;isolation:isolate;}.cls-3{fill:#fafafa;}.cls-4{fill:#f9d12d;}.cls-5{fill:#ffc43b;}.cls-6{fill:#e8b84e;}.cls-7{fill:#b7bc64;}.cls-8{fill:#7dbe7c;}.cls-9{fill:#14b7b1;}.cls-10{fill:#04aabc;}.cls-11{fill:#307fbf;}.cls-12{fill:#343084;}.cls-13{fill:#3ab59a;}.cls-14{clip-path:url(#clip-path-document);}.cls-15{fill:#adbc68;}.cls-16{fill:#f2ea0f;}.cls-17{fill:#3f56a4;}.cls-18{fill:#da6027;}.cls-19{fill:#787878;}</style><clipPath id="clip-path-document"><rect class="cls-1" x="4" y="9" width="7" height="4"/></clipPath></defs><path class="cls-2" d="M0,0V16H15V0ZM14,15H1V1H14Z"/><rect class="cls-3" x="1" y="1" width="13" height="14"/><rect class="cls-4" x="4" y="9" width="0.64" height="0.5"/><rect class="cls-4" x="4.64" y="9" width="0.64" height="0.5"/><rect class="cls-5" x="5.91" y="9" width="0.64" height="0.5"/><rect class="cls-6" x="6.55" y="9" width="0.64" height="0.5"/><rect class="cls-7" x="8.45" y="9" width="0.64" height="0.5"/><rect class="cls-8" x="9.09" y="9" width="0.64" height="0.5"/><rect class="cls-9" x="10.36" y="9" width="0.64" height="0.5"/><rect class="cls-4" x="4" y="9.5" width="0.64" height="0.5"/><rect class="cls-5" x="4.64" y="9.5" width="0.64" height="0.5"/><rect class="cls-6" x="5.91" y="9.5" width="0.64" height="0.5"/><rect class="cls-7" x="6.55" y="9.5" width="0.64" height="0.5"/><rect class="cls-8" x="8.45" y="9.5" width="0.64" height="0.5"/><rect class="cls-9" x="9.09" y="9.5" width="0.64" height="0.5"/><rect class="cls-10" x="10.36" y="9.5" width="0.64" height="0.5"/><rect class="cls-5" x="4" y="11" width="0.64" height="0.5"/><rect class="cls-6" x="4.64" y="11" width="0.64" height="0.5"/><rect class="cls-7" x="5.91" y="11" width="0.64" height="0.5"/><rect class="cls-8" x="6.55" y="11" width="0.64" height="0.5"/><rect class="cls-9" x="8.45" y="11" width="0.64" height="0.5"/><rect class="cls-10" x="9.09" y="11" width="0.64" height="0.5"/><rect class="cls-11" x="10.36" y="11" width="0.64" height="0.5"/><rect class="cls-6" x="4" y="11.5" width="0.64" height="0.5"/><rect class="cls-7" x="4.64" y="11.5" width="0.64" height="0.5"/><rect class="cls-8" x="5.91" y="11.5" width="0.64" height="0.5"/><rect class="cls-9" x="6.55" y="11.5" width="0.64" height="0.5"/><rect class="cls-10" x="8.45" y="11.5" width="0.64" height="0.5"/><rect class="cls-11" x="9.09" y="11.5" width="0.64" height="0.5"/><rect class="cls-12" x="10.36" y="11.5" width="0.64" height="0.5"/><rect class="cls-7" x="4" y="12" width="0.64" height="0.5"/><rect class="cls-8" x="4.64" y="12" width="0.64" height="0.5"/><rect class="cls-9" x="5.91" y="12" width="0.64" height="0.5"/><rect class="cls-10" x="6.55" y="12" width="0.64" height="0.5"/><rect class="cls-11" x="8.45" y="12" width="0.64" height="0.5"/><rect class="cls-12" x="9.09" y="12" width="0.64" height="0.5"/><rect class="cls-12" x="10.36" y="12" width="0.64" height="0.5"/><rect class="cls-13" x="4" y="9" width="7" height="4"/><g class="cls-14"><ellipse class="cls-8" cx="6.18" cy="12" rx="2.23" ry="2.82" transform="matrix(0.26, -0.97, 0.97, 0.26, -7.01, 14.88)"/><ellipse class="cls-15" cx="6.18" cy="12" rx="1.69" ry="2.18" transform="translate(-7.16 14.08) rotate(-71.61)"/><ellipse class="cls-5" cx="6.18" cy="12" rx="1.13" ry="1.54" transform="translate(-7.29 12.88) rotate(-66.51)"/><ellipse class="cls-16" cx="6.18" cy="12" rx="0.58" ry="0.91" transform="translate(-7.29 11.15) rotate(-59.15)"/><ellipse class="cls-10" cx="8.78" cy="9.32" rx="1.58" ry="2.04" transform="translate(-2.85 14.67) rotate(-71.43)"/><ellipse class="cls-11" cx="8.78" cy="9.32" rx="1.06" ry="1.44" transform="translate(-3.28 13.64) rotate(-66.42)"/><ellipse class="cls-17" cx="8.77" cy="9.32" rx="0.54" ry="0.85" transform="translate(-3.73 12.05) rotate(-59.05)"/></g><rect class="cls-18" x="3" y="3" width="6" height="1"/><rect class="cls-19" x="3" y="5" width="8" height="1"/><rect class="cls-19" x="5" y="7" width="7" height="1"/></svg>