<svg xmlns="http://www.w3.org/2000/svg" xmlns:xlink="http://www.w3.org/1999/xlink" viewBox="0 0 16 16"><defs><style>.cls-1{fill:#fff;}.cls-2{fill:#dbdadb;}.cls-3{fill:url(#linear-gradient);}.cls-4{fill:#8e8d8e;}.cls-5{fill:#eea9c0;}.cls-6{fill:#f9cf8c;}.cls-7{fill:#c0b398;}.cls-8{fill:none;}.cls-9{fill:url(#linear-gradient-2);}.cls-10{fill:url(#linear-gradient-3);}.cls-11{fill:url(#linear-gradient-4);}</style><linearGradient id="linear-gradient" x1="7.5" y1="15" x2="7.5" gradientUnits="userSpaceOnUse"><stop offset="0.09" stop-color="#3b3c3b"/><stop offset="0.14" stop-color="#444546"/><stop offset="1" stop-color="#676767"/></linearGradient><linearGradient id="linear-gradient-2" x1="-315.21" y1="49.34" x2="-315.21" y2="52.74" gradientTransform="translate(200.79 -250.97) rotate(-45)" gradientUnits="userSpaceOnUse"><stop offset="0.04" stop-color="#e2678f"/><stop offset="0.06" stop-color="#db628a"/><stop offset="0.18" stop-color="#ba4971"/><stop offset="0.3" stop-color="#9e345d"/><stop offset="0.43" stop-color="#88234d"/><stop offset="0.58" stop-color="#791842"/><stop offset="0.75" stop-color="#70113b"/><stop offset="0.99" stop-color="#6d0f39"/></linearGradient><linearGradient id="linear-gradient-3" x1="-325.48" y1="50.01" x2="-325.48" y2="51.99" gradientTransform="translate(200.79 -250.97) rotate(-45)" gradientUnits="userSpaceOnUse"><stop offset="0.06" stop-color="#5a595c"/><stop offset="0.98"/></linearGradient><linearGradient id="linear-gradient-4" x1="-320.16" y1="49.34" x2="-320.16" y2="52.74" gradientTransform="translate(200.79 -250.97) rotate(-45)" gradientUnits="userSpaceOnUse"><stop offset="0.27" stop-color="#bd8447"/><stop offset="0.69" stop-color="#4b3216"/></linearGradient></defs><g id="Layer_2" data-name="Layer 2"><g id="editData"><g id="editData_16"><rect class="cls-1" x="1" y="1" width="13" height="13"/><rect class="cls-2" x="1" y="1" width="13" height="1"/><rect class="cls-2" x="1" y="3" width="4" height="11"/><path class="cls-3" d="M0,0V15H15V0ZM14,14H1V1H14Z"/><path class="cls-4" d="M14,3V2H1V3H4V6H1V7H4v3H1v1H4v3H5V11H9v3h1V11h4V10H10V7h4V6H10V3ZM9,10H5V7H9ZM9,6H5V3H9Z"/><rect class="cls-5" x="12.77" y="7.14" width="1.9" height="2.42" transform="translate(-1.89 12.14) rotate(-45)"/><rect class="cls-6" x="6.78" y="10.47" width="7.21" height="2.42" transform="translate(-5.22 10.76) rotate(-45)"/><polygon class="cls-7" points="9 15.4 6 16 6.6 13 9 15.4"/><rect class="cls-8" x="13.08" y="7.65" width="0.85" height="1.7" transform="translate(-2.06 12.03) rotate(-44.98)"/><polygon class="cls-9" points="13.6 6 12 7.6 12.43 8.03 13.57 6.89 15.17 8.49 14.03 9.63 14.4 10 16 8.4 13.6 6"/><rect class="cls-8" x="6.81" y="10.95" width="6.79" height="1.7" transform="translate(-5.36 10.68) rotate(-45.02)"/><polygon class="cls-10" points="7 15 7 14.06 6.42 13.89 6 16 8.09 15.58 7.91 15 7 15"/><polygon class="cls-11" points="6.6 13 7.03 13.43 11.99 8.48 13.54 10.03 8.59 14.99 9 15.4 14.4 10 12 7.6 6.6 13"/><rect class="cls-2" x="1" y="1" width="13" height="1"/></g></g></g></svg>