<svg id="Layer_1" data-name="Layer 1" xmlns="http://www.w3.org/2000/svg" xmlns:xlink="http://www.w3.org/1999/xlink" viewBox="0 0 16 16.16"><defs><style>.cls-1{fill:#e6e6e6;}.cls-2{fill:#fff;}.cls-3{fill:none;stroke:#32a1da;stroke-miterlimit:10;}.cls-4{fill:url(#linear-gradient);}.cls-5{fill:#77ac30;}.cls-6{fill:#7e2f8e;}.cls-7{fill:#666;}</style><linearGradient id="linear-gradient" x1="8" y1="0.08" x2="8" y2="16.08" gradientUnits="userSpaceOnUse"><stop offset="0.28" stop-color="#999"/><stop offset="0.85" stop-color="#4d4d4d"/></linearGradient></defs><rect class="cls-1" x="0.74" y="7.8" width="14.52" height="7.44"/><rect class="cls-2" x="0.74" y="0.91" width="14.52" height="7.17"/><path class="cls-3" d="M.84,5.33S1.92,2.24,4.56,2s3.63,4.23,6.27,4a7,7,0,0,0,4.43-2.6"/><path class="cls-4" d="M14,.08H2a2,2,0,0,0-2,2v12a2,2,0,0,0,2,2H14a2,2,0,0,0,2-2v-12A2,2,0,0,0,14,.08Zm1,14a1,1,0,0,1-1,1H2a1,1,0,0,1-1-1v-6H15Zm0-7H1v-5a1,1,0,0,1,1-1H14a1,1,0,0,1,1,1Z"/><rect class="cls-5" x="2" y="9.08" width="4" height="1"/><rect class="cls-6" x="2" y="11.08" width="11" height="1"/><rect class="cls-7" x="2" y="13.08" width="7" height="1"/><circle class="cls-5" cx="13" cy="9.58" r="1"/></svg>