<svg data-name="Layer 1" xmlns="http://www.w3.org/2000/svg" xmlns:xlink="http://www.w3.org/1999/xlink" viewBox="0 0 16 16"><defs><style>.cls-1{fill:#ef937d;}.cls-2{fill:#305189;}.cls-3{clip-path:url(#clip-path-error);}.cls-4{fill:#c11f1f;}.cls-5{fill:#fff;}</style><clipPath id="clip-path-error"><path class="cls-1" d="M7.52,14.37A6.87,6.87,0,1,1,14.38,7.5h0A6.87,6.87,0,0,1,7.52,14.37Z"/></clipPath></defs><path class="cls-2" d="M8.52,1A7.5,7.5,0,1,0,16,8.52v0A7.5,7.5,0,0,0,8.52,1Z"/><path class="cls-1" d="M7.52,14.37A6.87,6.87,0,1,1,14.38,7.5h0A6.87,6.87,0,0,1,7.52,14.37Z"/><g class="cls-3"><rect class="cls-1" x="0.65" y="0.63" width="13.73" height="1.79"/><rect class="cls-1" x="0.65" y="2.42" width="13.73" height="0.1"/><rect class="cls-1" x="0.65" y="2.52" width="13.73" height="0.1"/><rect class="cls-1" x="0.65" y="2.61" width="13.73" height="0.1"/><rect class="cls-1" x="0.65" y="2.71" width="13.73" height="0.1"/><rect class="cls-1" x="0.65" y="2.81" width="13.73" height="0.1"/><rect class="cls-1" x="0.65" y="2.9" width="13.73" height="0.1"/><rect class="cls-1" x="0.65" y="3" width="13.73" height="0.1"/><rect class="cls-1" x="0.65" y="3.1" width="13.73" height="0.1"/><rect class="cls-1" x="0.65" y="3.19" width="13.73" height="0.1"/><rect class="cls-1" x="0.65" y="3.29" width="13.73" height="0.1"/><rect class="cls-1" x="0.65" y="3.39" width="13.73" height="0.1"/><rect class="cls-1" x="0.65" y="3.48" width="13.73" height="0.1"/><rect class="cls-1" x="0.65" y="3.58" width="13.73" height="0.1"/><rect class="cls-1" x="0.65" y="3.67" width="13.73" height="0.1"/><rect class="cls-1" x="0.65" y="3.77" width="13.73" height="0.1"/><rect class="cls-1" x="0.65" y="3.87" width="13.73" height="0.1"/><rect class="cls-1" x="0.65" y="3.96" width="13.73" height="0.1"/><rect class="cls-1" x="0.65" y="4.06" width="13.73" height="0.1"/><rect class="cls-1" x="0.65" y="4.16" width="13.73" height="0.1"/><rect class="cls-1" x="0.65" y="4.25" width="13.73" height="0.1"/><rect class="cls-1" x="0.65" y="4.35" width="13.73" height="0.1"/><rect class="cls-1" x="0.65" y="4.45" width="13.73" height="0.1"/><rect class="cls-1" x="0.65" y="4.54" width="13.73" height="0.1"/><rect class="cls-1" x="0.65" y="4.64" width="13.73" height="0.1"/><rect class="cls-1" x="0.65" y="4.74" width="13.73" height="0.1"/><rect class="cls-1" x="0.65" y="4.83" width="13.73" height="0.1"/><rect class="cls-1" x="0.65" y="4.93" width="13.73" height="0.1"/><rect class="cls-1" x="0.65" y="5.03" width="13.73" height="0.1"/><rect class="cls-1" x="0.65" y="5.12" width="13.73" height="0.1"/><rect class="cls-1" x="0.65" y="5.22" width="13.73" height="0.1"/><rect class="cls-1" x="0.65" y="5.32" width="13.73" height="0.1"/><rect class="cls-1" x="0.65" y="5.41" width="13.73" height="0.1"/><rect class="cls-1" x="0.65" y="5.51" width="13.73" height="0.1"/><rect class="cls-1" x="0.65" y="5.6" width="13.73" height="0.1"/><rect class="cls-1" x="0.65" y="5.7" width="13.73" height="0.1"/><rect class="cls-1" x="0.65" y="5.8" width="13.73" height="0.1"/><rect class="cls-1" x="0.65" y="5.89" width="13.73" height="0.1"/><rect class="cls-1" x="0.65" y="5.99" width="13.73" height="0.1"/><rect class="cls-1" x="0.65" y="6.09" width="13.73" height="0.1"/><rect class="cls-1" x="0.65" y="6.18" width="13.73" height="0.1"/><rect class="cls-1" x="0.65" y="6.28" width="13.73" height="0.1"/><rect class="cls-1" x="0.65" y="6.38" width="13.73" height="0.1"/><rect class="cls-1" x="0.65" y="6.47" width="13.73" height="0.1"/><rect class="cls-1" x="0.65" y="6.57" width="13.73" height="0.1"/><rect class="cls-1" x="0.65" y="6.67" width="13.73" height="0.1"/><rect class="cls-1" x="0.65" y="6.76" width="13.73" height="0.1"/><rect class="cls-1" x="0.65" y="6.86" width="13.73" height="0.1"/><rect class="cls-1" x="0.65" y="6.96" width="13.73" height="0.1"/><rect class="cls-1" x="0.65" y="7.05" width="13.73" height="0.1"/><rect class="cls-1" x="0.65" y="7.15" width="13.73" height="0.1"/><rect class="cls-1" x="0.65" y="7.24" width="13.73" height="0.1"/><rect class="cls-1" x="0.65" y="7.34" width="13.73" height="0.1"/><rect class="cls-1" x="0.65" y="7.44" width="13.73" height="0.1"/><rect class="cls-1" x="0.65" y="7.53" width="13.73" height="0.1"/><rect class="cls-1" x="0.65" y="7.63" width="13.73" height="0.1"/><rect class="cls-1" x="0.65" y="7.73" width="13.73" height="0.1"/><rect class="cls-1" x="0.65" y="7.82" width="13.73" height="0.1"/><rect class="cls-1" x="0.65" y="7.92" width="13.73" height="0.1"/><rect class="cls-1" x="0.65" y="8.02" width="13.73" height="0.1"/><rect class="cls-1" x="0.65" y="8.11" width="13.73" height="0.1"/><rect class="cls-1" x="0.65" y="8.21" width="13.73" height="0.1"/><rect class="cls-1" x="0.65" y="8.31" width="13.73" height="0.1"/><rect class="cls-1" x="0.65" y="8.4" width="13.73" height="0.1"/><rect class="cls-1" x="0.65" y="8.5" width="13.73" height="0.1"/><rect class="cls-1" x="0.65" y="8.6" width="13.73" height="0.1"/><rect class="cls-1" x="0.65" y="8.69" width="13.73" height="0.1"/><rect class="cls-1" x="0.65" y="8.79" width="13.73" height="0.1"/><rect class="cls-1" x="0.65" y="8.88" width="13.73" height="0.1"/><rect class="cls-1" x="0.65" y="8.98" width="13.73" height="0.1"/><rect class="cls-1" x="0.65" y="9.08" width="13.73" height="0.1"/><rect class="cls-1" x="0.65" y="9.17" width="13.73" height="0.1"/><rect class="cls-1" x="0.65" y="9.27" width="13.73" height="0.1"/><rect class="cls-1" x="0.65" y="9.37" width="13.73" height="0.1"/><rect class="cls-1" x="0.65" y="9.46" width="13.73" height="0.1"/><rect class="cls-1" x="0.65" y="9.56" width="13.73" height="0.1"/><rect class="cls-1" x="0.65" y="9.66" width="13.73" height="0.1"/><rect class="cls-1" x="0.65" y="9.75" width="13.73" height="0.1"/><rect class="cls-1" x="0.65" y="9.85" width="13.73" height="0.1"/><rect class="cls-1" x="0.65" y="9.95" width="13.73" height="0.1"/><rect class="cls-1" x="0.65" y="10.04" width="13.73" height="0.1"/><rect class="cls-1" x="0.65" y="10.14" width="13.73" height="0.1"/><rect class="cls-1" x="0.65" y="10.24" width="13.73" height="0.1"/><rect class="cls-1" x="0.65" y="10.33" width="13.73" height="0.1"/><rect class="cls-1" x="0.65" y="10.43" width="13.73" height="0.1"/><rect class="cls-1" x="0.65" y="10.52" width="13.73" height="0.1"/><rect class="cls-1" x="0.65" y="10.62" width="13.73" height="0.1"/><rect class="cls-1" x="0.65" y="10.72" width="13.73" height="0.1"/><rect class="cls-1" x="0.65" y="10.81" width="13.73" height="0.1"/><rect class="cls-1" x="0.65" y="10.91" width="13.73" height="0.1"/><rect class="cls-1" x="0.65" y="11.01" width="13.73" height="0.1"/><rect class="cls-1" x="0.65" y="11.1" width="13.73" height="0.1"/><rect class="cls-1" x="0.65" y="11.2" width="13.73" height="0.1"/><rect class="cls-1" x="0.65" y="11.3" width="13.73" height="0.1"/><rect class="cls-1" x="0.65" y="11.39" width="13.73" height="0.1"/><rect class="cls-1" x="0.65" y="11.49" width="13.73" height="0.1"/><rect class="cls-1" x="0.65" y="11.59" width="13.73" height="0.1"/><rect class="cls-1" x="0.65" y="11.68" width="13.73" height="0.1"/><rect class="cls-1" x="0.65" y="11.78" width="13.73" height="0.1"/><rect class="cls-1" x="0.65" y="11.88" width="13.73" height="0.1"/><rect class="cls-1" x="0.65" y="11.97" width="13.73" height="0.1"/><rect class="cls-1" x="0.65" y="12.07" width="13.73" height="0.1"/><rect class="cls-1" x="0.65" y="12.16" width="13.73" height="0.1"/><rect class="cls-1" x="0.65" y="12.26" width="13.73" height="0.1"/><rect class="cls-1" x="0.65" y="12.36" width="13.73" height="0.1"/><rect class="cls-1" x="0.65" y="12.45" width="13.73" height="0.1"/><rect class="cls-1" x="0.65" y="12.55" width="13.73" height="0.1"/><rect class="cls-1" x="0.65" y="12.65" width="13.73" height="0.1"/><rect class="cls-1" x="0.65" y="12.74" width="13.73" height="0.1"/><rect class="cls-1" x="0.65" y="12.84" width="13.73" height="0.1"/><rect class="cls-1" x="0.65" y="12.94" width="13.73" height="0.1"/><rect class="cls-1" x="0.65" y="13.03" width="13.73" height="0.1"/><rect class="cls-1" x="0.65" y="13.13" width="13.73" height="0.1"/><rect class="cls-1" x="0.65" y="13.23" width="13.73" height="0.1"/><rect class="cls-1" x="0.65" y="13.32" width="13.73" height="0.1"/><rect class="cls-1" x="0.65" y="13.42" width="13.73" height="0.1"/><rect class="cls-1" x="0.65" y="13.52" width="13.73" height="0.1"/><rect class="cls-1" x="0.65" y="13.61" width="13.73" height="0.1"/><rect class="cls-1" x="0.65" y="13.71" width="13.73" height="0.1"/><rect class="cls-1" x="0.65" y="13.8" width="13.73" height="0.1"/><rect class="cls-1" x="0.65" y="13.9" width="13.73" height="0.1"/><rect class="cls-1" x="0.65" y="14" width="13.73" height="0.1"/><rect class="cls-1" x="0.65" y="14.09" width="13.73" height="0.1"/><rect class="cls-1" x="0.65" y="14.19" width="13.73" height="0.1"/><rect class="cls-1" x="0.65" y="14.29" width="13.73" height="0.08"/></g><path class="cls-4" d="M7.52,1.25A6.25,6.25,0,1,1,1.27,7.5,6.25,6.25,0,0,1,7.52,1.25M7.52,0A7.5,7.5,0,1,0,15,7.52v0A7.5,7.5,0,0,0,7.52,0Z"/><polygon class="cls-5" points="7.5 8.5 4.8 11.2 3.77 10.15 6.46 7.45 3.77 4.75 4.82 3.7 7.52 6.4 10.2 3.7 11.25 4.75 8.55 7.45 11.25 10.15 10.2 11.2 7.5 8.5"/></svg>