<?xml version="1.0" encoding="utf-8"?>
<!-- Generator: Adobe Illustrator 21.1.0, SVG Export Plug-In . SVG Version: 6.00 Build 0)  -->
<svg version="1.1" id="Layer_1" xmlns="http://www.w3.org/2000/svg" xmlns:xlink="http://www.w3.org/1999/xlink" x="0px" y="0px"
	 viewBox="0 0 16 16" style="enable-background:new 0 0 16 16;" xml:space="preserve">
<style type="text/css">
	.st0{fill:#FFFFFF;}
	.st1{fill:#808080;}
	.st2{fill:#404040;}
	.st3{fill:#666666;}
	.st4{fill:none;stroke:#808080;stroke-miterlimit:10;}
	.st5{fill:none;stroke:#404040;stroke-miterlimit:10;}
</style>
<g>
	<rect class="st0" width="15" height="15"/>
	<path class="st1" d="M14.1,0.9v13.1H0.9V0.9H14.1 M15,0H0v15h15V0L15,0z"/>
</g>
<polygon class="st1" points="6,3 3,3 2,3 2,4 2,6 3,6 3,4 6,4 "/>
<polygon class="st1" points="2,9 2,11 2,12 3,12 6,12 6,11 3,11 3,9 "/>
<polygon class="st1" points="9,12 12,12 13,12 13,11 13,9 12,9 12,11 9,11 "/>
<polygon class="st1" points="13,6 13,4 13,3 12,3 9,3 9,4 12,4 12,6 "/>
<polyline class="st4" points="4,10 5.5,6.5 8.5,9.5 11,5 "/>
</svg>
