<svg xmlns="http://www.w3.org/2000/svg" viewBox="0 0 16 16"><defs><style>.cls-1,.cls-3{fill:gray;}.cls-1{opacity:0;}.cls-2{fill:#4d4d4d;}.cls-3{opacity:0.6;}</style></defs><title>grouped-view_16</title><g id="Layer_2" data-name="Layer 2"><g id="Content"><rect id="Area" class="cls-1" width="16" height="16"/><rect class="cls-2" x="6" y="2" width="8" height="1"/><rect class="cls-3" x="6" y="4" width="4" height="1"/><rect class="cls-3" x="6" y="6" width="4" height="1"/><rect class="cls-3" x="6" y="8" width="4" height="1"/><rect class="cls-2" x="6" y="10" width="8" height="1"/><rect class="cls-3" x="6" y="12" width="4" height="1"/><rect class="cls-3" x="6" y="14" width="4" height="1"/><rect class="cls-3" x="11" y="4" width="3" height="1"/><rect class="cls-3" x="11" y="6" width="3" height="1"/><rect class="cls-3" x="11" y="8" width="3" height="1"/><rect class="cls-3" x="11" y="12" width="3" height="1"/><rect class="cls-3" x="11" y="14" width="3" height="1"/><rect class="cls-2" x="1" y="2" width="3" height="1"/><rect class="cls-2" x="2" y="1" width="1" height="3"/><rect class="cls-2" x="1" y="10" width="3" height="1"/><rect class="cls-2" x="2" y="9" width="1" height="3"/></g></g></svg>