<svg id="Layer_1" data-name="Layer 1" xmlns="http://www.w3.org/2000/svg" viewBox="0 0 16 16"><defs><style>.cls-1{fill:#666;}.cls-2{fill:#fff;}</style></defs><path class="cls-1" d="M8,15a7,7,0,1,1,7-7,7,7,0,0,1-7,7Z"/><rect class="cls-2" x="7" y="11" width="2" height="2"/><path class="cls-2" d="M10.28,8A3.25,3.25,0,0,1,9,8.54V10H7V7.56c1.19,0,1.65-.16,2.07-.56A1.45,1.45,0,0,0,9.5,6,1.34,1.34,0,0,0,8.15,4.55C7.35,4.55,6.91,5,6.74,6H5a3.44,3.44,0,0,1,.34-1.34,2.9,2.9,0,0,1,2.8-1.61,2.85,2.85,0,0,1,3.15,2.78A2.62,2.62,0,0,1,10.28,8Z"/></svg>