<svg xmlns="http://www.w3.org/2000/svg" viewBox="0 0 14 14"><defs><style>.cls-1{fill:#414141;}</style></defs><title>Help</title><g id="Layer_2" data-name="Layer 2"><g id="JavaScriptIcons"><g id="default"><g id="help"><path class="cls-1" d="M7,1A6,6,0,1,1,1,7,6,6,0,0,1,7,1M7,0a7,7,0,1,0,7,7A7,7,0,0,0,7,0Z"/><path class="cls-1" d="M5.14,3.65A3.1,3.1,0,0,1,6.8,3.11,3.62,3.62,0,0,1,9,3.66a2,2,0,0,1,.86,1.77,2,2,0,0,1-.37,1.22,4.25,4.25,0,0,1-.83.77l-.41.31a1.24,1.24,0,0,0-.44.6A5.75,5.75,0,0,0,7.69,9H6.13a2.8,2.8,0,0,1,.18-1.33,2.34,2.34,0,0,1,.77-.84l.42-.32a1.45,1.45,0,0,0,.33-.33,1.12,1.12,0,0,0,.23-.68,1.3,1.3,0,0,0-.25-.78,1.08,1.08,0,0,0-.93-.35,1.21,1.21,0,0,0-1,.61c-.18.29-.25,0-.25,1H4C4,4,4.43,4.09,5.14,3.65Z"/><rect class="cls-1" x="6.09" y="10" width="1.71" height="1"/></g></g></g></g></svg>