<svg xmlns="http://www.w3.org/2000/svg" width="20" height="20" viewBox="0 0 20 20">
  <g id="matlab-online-20" transform="translate(-2785 2088)">
    <g id="Layer_2_1_" transform="translate(2785 -2090.3)">
      <g id="Layer_1-2" transform="translate(0 5.3)">
        <path id="Exclusion_1" data-name="Exclusion 1" d="M19.185,13.354H.815a.815.815,0,0,1,0-1.63H3.323a1.591,1.591,0,0,1-1.144-.494,1.709,1.709,0,0,1-.486-1.2V1.693a1.709,1.709,0,0,1,.486-1.2A1.59,1.59,0,0,1,3.323,0H16.74a1.686,1.686,0,0,1,1.693,1.693v8.338a1.686,1.686,0,0,1-1.693,1.693h2.445a.815.815,0,1,1,0,1.63ZM4.075,1.191A1.255,1.255,0,0,0,2.821,2.445v6.9A1.255,1.255,0,0,0,4.075,10.6H15.987a1.255,1.255,0,0,0,1.254-1.254v-6.9a1.255,1.255,0,0,0-1.254-1.254Z" transform="translate(0 0)" fill="#fff"/>
        <path id="Path_519" data-name="Path 519" d="M12.094,15.779,10.3,14.523c.807-.359,1.615-.628,2.422-.9l.987.807a12.811,12.811,0,0,1-1.615,1.345m6.637-2.6c-.179-.538-.359-.987-.538-1.525a7.759,7.759,0,0,0-.628-1.525c-.09-.179-.359-.628-.628-.628-.09,0-.179,0-.179.09a2.159,2.159,0,0,0-.538.718,7.482,7.482,0,0,1-.718,1.076l-.269.269a1.876,1.876,0,0,1-.538.359l-.179.09a1.2,1.2,0,0,0-.448.269,3.9,3.9,0,0,0-.538.628l-.179.179.9.718a8.676,8.676,0,0,0,2.063-3.229,7.525,7.525,0,0,1-1.7,3.5,16.937,16.937,0,0,1-1.794,1.794h.448c.448.179.718.9.9,1.345a5.487,5.487,0,0,1,.448,1.076,1.664,1.664,0,0,0,1.076-.628,8.932,8.932,0,0,0,.9-.987c.538-.628,1.256-1.525,2.063-1.166a1.238,1.238,0,0,1,.359.269l.448.448c.179.179.448.359.628.538-.448-1.166-.9-2.422-1.345-3.678" transform="translate(-5.286 -7.852)" fill="#fff"/>
      </g>
    </g>
    <rect id="Rectangle_531" data-name="Rectangle 531" width="20" height="20" transform="translate(2785 -2088)" fill="none"/>
  </g>
</svg>
