<svg xmlns="http://www.w3.org/2000/svg" xmlns:xlink="http://www.w3.org/1999/xlink" viewBox="0 0 16 16"><defs><style>.cls-1{isolation:isolate;}.cls-2{fill:red;opacity:0;}.cls-3{fill:#5f7ec2;}.cls-4,.cls-5{mix-blend-mode:overlay;}.cls-4{fill:url(#linear-gradient);}.cls-5{opacity:0.5;}.cls-6{fill:url(#linear-gradient-2);}.cls-7{opacity:0.15;mix-blend-mode:multiply;}.cls-8{fill:#fff;}</style><linearGradient id="linear-gradient" y1="8" x2="15" y2="8" gradientUnits="userSpaceOnUse"><stop offset="0" stop-color="#999"/><stop offset="0.89" stop-color="#5c5c5c"/></linearGradient><linearGradient id="linear-gradient-2" x1="7.5" y1="2" x2="7.5" y2="14" gradientUnits="userSpaceOnUse"><stop offset="0" stop-color="#515151"/><stop offset="0.61" stop-color="#020202"/></linearGradient></defs><title>keyword_16</title><g class="cls-1"><g id="Layer_2" data-name="Layer 2"><g id="ICONS"><g id="keyword"><rect class="cls-2" width="16" height="16"/><rect class="cls-3" y="2" width="15" height="12" rx="5" ry="5"/><rect class="cls-4" y="2" width="15" height="12" rx="5" ry="5"/><g class="cls-5"><path class="cls-6" d="M10,3a4,4,0,0,1,4,4V9a4,4,0,0,1-4,4H5A4,4,0,0,1,1,9V7A4,4,0,0,1,5,3h5m0-1H5A5,5,0,0,0,0,7V9a5,5,0,0,0,5,5h5a5,5,0,0,0,5-5V7a5,5,0,0,0-5-5Z"/></g><g class="cls-7"><rect x="6" y="5" width="1" height="6"/><rect x="7" y="7" width="1" height="1"/><rect x="8" y="6" width="1" height="1"/><rect x="9" y="5" width="1" height="1"/><rect x="8" y="8" width="1" height="1"/><rect x="9" y="9" width="1" height="1"/><rect x="10" y="10" width="1" height="1"/></g><rect class="cls-8" x="5" y="5" width="1" height="6"/><rect class="cls-8" x="6" y="7" width="1" height="1"/><rect class="cls-8" x="7" y="6" width="1" height="1"/><rect class="cls-8" x="8" y="5" width="1" height="1"/><rect class="cls-8" x="7" y="8" width="1" height="1"/><rect class="cls-8" x="8" y="9" width="1" height="1"/><rect class="cls-8" x="9" y="10" width="1" height="1"/></g></g></g></g></svg>