<svg id="Layer_1" data-name="Layer 1" xmlns="http://www.w3.org/2000/svg" viewBox="0 0 16 16"><rect x="-3" y="-3" width="22" height="22" rx="5" style="fill:none"/><path d="M1.88,11.59,4.63,4.44h1l2.93,7.15H7.5L6.66,9.43h-3l-.79,2.16ZM3.94,8.65H6.37l-.75-2c-.23-.6-.39-1.09-.51-1.48a10,10,0,0,1-.38,1.37Z" style="fill:#333"/><path d="M12.6,11a3.05,3.05,0,0,1-.93.59,2.87,2.87,0,0,1-1,.17,1.9,1.9,0,0,1-1.32-.42A1.45,1.45,0,0,1,9.1,9.53,1.28,1.28,0,0,1,9.55,9a2,2,0,0,1,.63-.29A5.64,5.64,0,0,1,11,8.61a8.06,8.06,0,0,0,1.57-.31c0-.12,0-.19,0-.23a1,1,0,0,0-.25-.75,1.48,1.48,0,0,0-1-.3,1.52,1.52,0,0,0-.92.22A1.32,1.32,0,0,0,9.93,8l-.86-.12A2.09,2.09,0,0,1,9.46,7a1.74,1.74,0,0,1,.78-.53,3.51,3.51,0,0,1,1.17-.18,2.93,2.93,0,0,1,1.08.16,1.34,1.34,0,0,1,.61.39,1.52,1.52,0,0,1,.28.6,5,5,0,0,1,0,.81V9.42A11.54,11.54,0,0,0,13.48,11a1.7,1.7,0,0,0,.22.62h-.92A1.93,1.93,0,0,1,12.6,11Zm-.07-2a6.48,6.48,0,0,1-1.43.33,3.36,3.36,0,0,0-.77.18.72.72,0,0,0-.35.29.73.73,0,0,0-.12.41.75.75,0,0,0,.27.59,1.15,1.15,0,0,0,.78.23,1.82,1.82,0,0,0,.9-.22,1.37,1.37,0,0,0,.58-.61,2.2,2.2,0,0,0,.14-.88Z" style="fill:#333"/></svg>