<svg xmlns="http://www.w3.org/2000/svg" xmlns:xlink="http://www.w3.org/1999/xlink" viewBox="0 0 24 24"><defs><style>.cls-1{isolation:isolate;}.cls-2{opacity:0.12;mix-blend-mode:multiply;}.cls-3,.cls-5{opacity:0.8;}.cls-4{fill:url(#radial-gradient);}.cls-5{fill:url(#linear-gradient);}.cls-6{fill:#fff;}.cls-7{fill:url(#linear-gradient-2);}.cls-8{mix-blend-mode:darken;}.cls-9{fill:none;}.cls-10{fill:url(#radial-gradient-2);}.cls-11{fill:url(#radial-gradient-3);}.cls-12{fill:#f5ae81;}.cls-13{fill:url(#linear-gradient-3);}.cls-14{fill:url(#linear-gradient-4);}</style><radialGradient id="radial-gradient" cx="-1052.28" cy="-407.53" r="80.28" gradientTransform="translate(492.49 191.59) scale(0.47)" gradientUnits="userSpaceOnUse"><stop offset="0.28" stop-color="#fff"/><stop offset="0.38" stop-color="#f9fbfc"/><stop offset="0.51" stop-color="#e8eef2"/><stop offset="0.66" stop-color="#ccd9e2"/><stop offset="0.82" stop-color="#a5bccc"/><stop offset="0.95" stop-color="#82a2b8"/></radialGradient><linearGradient id="linear-gradient" x1="12.5" y1="23" x2="12.5" gradientUnits="userSpaceOnUse"><stop offset="0" stop-color="#666"/><stop offset="0.89" stop-color="#b3b3b3"/></linearGradient><linearGradient id="linear-gradient-2" x1="6.5" y1="7.18" x2="18.23" y2="19.53" gradientUnits="userSpaceOnUse"><stop offset="0" stop-color="#ffffe6"/><stop offset="0.14" stop-color="#fefcdb"/><stop offset="0.4" stop-color="#f9f5be"/><stop offset="0.73" stop-color="#f3e98e"/><stop offset="1" stop-color="#edde62"/></linearGradient><radialGradient id="radial-gradient-2" cx="6.73" cy="6.96" r="17.51" gradientUnits="userSpaceOnUse"><stop offset="0.19" stop-color="#9ac2e8"/><stop offset="0.55" stop-color="#7595b3"/><stop offset="0.94" stop-color="#51687e"/></radialGradient><radialGradient id="radial-gradient-3" cx="-84.91" cy="67.79" r="22.56" gradientTransform="matrix(0.46, 0.27, -0.37, 0.57, 64.97, -11.16)" gradientUnits="userSpaceOnUse"><stop offset="0.33" stop-color="#73c8ec"/><stop offset="0.45" stop-color="#128dbb"/><stop offset="0.48" stop-color="#d16432"/><stop offset="0.6" stop-color="#d15f2c"/><stop offset="0.76" stop-color="#d0511a"/><stop offset="0.93" stop-color="#cf3d00"/></radialGradient><linearGradient id="linear-gradient-3" x1="7.14" y1="3.21" x2="7.14" y2="13" gradientUnits="userSpaceOnUse"><stop offset="0" stop-color="#a32e17"/><stop offset="0.23" stop-color="#972d13"/><stop offset="0.64" stop-color="#78290a"/><stop offset="1" stop-color="#582500"/></linearGradient><linearGradient id="linear-gradient-4" x1="4.71" y1="3" x2="4.71" y2="10.07" gradientUnits="userSpaceOnUse"><stop offset="0" stop-color="#3088cd"/><stop offset="0.55" stop-color="#185991"/><stop offset="0.9" stop-color="#0b3f6f"/></linearGradient></defs><g class="cls-1"><g id="Base"><g class="cls-2"><polygon points="5 23 5 2 18 2 18 6.01 22 6.01 22 23 5 23"/><path class="cls-3" d="M23,5,19,1H4V24H23ZM22,5,19,5V2ZM5,23V2H18V6h4V23Z"/><polygon points="21.98 4.99 19 2 19 5 21.98 4.99"/></g><polygon class="cls-4" points="4 22 4 1 17 1 17 5.01 21 5.01 21 22 4 22"/><path class="cls-5" d="M22,4,18,0H3V23H22ZM21,4,18,4V1ZM4,22V1H17V5h4V22Z"/><polygon class="cls-6" points="20.98 3.99 18 1 18 4 20.98 3.99"/></g><g id="Content"><path class="cls-7" d="M18,13H13V8h5Zm0,1H13v5h5Zm-6,0H7v5h5Zm0-6H7v5h5Z"/><g class="cls-8"><rect class="cls-9" x="7" y="14" width="5" height="5"/><rect class="cls-9" x="13" y="7.99" width="5" height="5.01"/><rect class="cls-9" x="7" y="7.99" width="5" height="5.01"/><rect class="cls-9" x="13" y="14" width="5" height="5"/><path class="cls-10" d="M6,7V20H19V7ZM18,8v5H13V8ZM7,8h5v5H7ZM7,19V14h5v5Zm11,0H13V14h5Z"/></g><path class="cls-11" d="M10.75,9.87C10.43,9,10.22,8.06,9.87,7L9.32,5.38a9.22,9.22,0,0,0-.79-1.57c-.11-.21-.38-.68-.67-.68a.33.33,0,0,0-.21.08c-.19.13-2,2.64-2.16,2.72A1.41,1.41,0,0,1,5.27,6a1.36,1.36,0,0,0-.4.25,5.27,5.27,0,0,0-.58.66l-.44.62L1.23,8.64s3.12,1.89,3.33,2.41c.14.37.86,1.41,1,1.78.47-.11.77-.59,1.08-.87a9.46,9.46,0,0,0,.92-1.06c.55-.69.77-1.14,1.69-1.25a1.6,1.6,0,0,1,.82.2c.17.15.39.24.55.38S10.86,10.19,10.75,9.87Z"/><path class="cls-12" d="M8.63,6c.1,1,0,1.74-.32,1.76S7.7,7,7.6,6s0-1.74.31-1.75S8.52,5,8.63,6Z"/><path class="cls-9" d="M6.87,4.69A5.88,5.88,0,0,1,5.4,6.32a1.77,1.77,0,0,0-.84.82,2.2,2.2,0,0,1-.21.32A7.53,7.53,0,0,1,1.93,8.68l1.6,1.05.12.07.07-.05-.07.05a5,5,0,0,1,2.1,2.67A9.47,9.47,0,0,0,7,11.14c.77-.93,1.44-1.74,2.15-1.76l.25,0a1.84,1.84,0,0,1,1,.34c-.22-.62-.48-1.41-.77-2.36,0,0-1.22-3.71-1.7-3.9H7.84l-.09,0,.09,0C7.58,3.5,7.14,4.31,6.87,4.69Z"/><path class="cls-13" d="M11,10.06c-.21-.69-1.82-6.15-2.68-6.85l-.53.11,0,.13a.1.1,0,0,1,.09,0c.48.19,1.7,3.9,1.7,3.9.29.95.55,1.74.77,2.36a1.93,1.93,0,0,0-1-.34c-1.14,0-1.63.85-2.4,1.78a9.47,9.47,0,0,1-1.24,1.33A5,5,0,0,0,3.65,9.8l-.38.27h0A4.67,4.67,0,0,1,5.46,13h0c1,0,2.68-3.42,3.9-3.23a2.58,2.58,0,0,1,1.18.61C10.77,10.54,11.1,10.48,11,10.06Z"/><path class="cls-14" d="M8,3H7.91C7,3,6,5.52,5.18,6A2.73,2.73,0,0,0,4,7.23,15.37,15.37,0,0,1,1,8.57l2.27,1.5.33-.23a7.21,7.21,0,0,0,2-2,16.65,16.65,0,0,0,1.91-4l.09-.22a.41.41,0,0,1,.21-.2,1.29,1.29,0,0,1,.57-.1A1,1,0,0,0,8,3ZM3.26,9.55,1.93,8.68a15.4,15.4,0,0,0,1.93-.85l.77.58A6.6,6.6,0,0,1,3.26,9.55Zm2-1.91C5.15,7.8,5,8,4.91,8.1l-.67-.51a.58.58,0,0,0,.11-.13,2.2,2.2,0,0,0,.21-.32,1.77,1.77,0,0,1,.84-.82A4.91,4.91,0,0,0,6.66,5,13.5,13.5,0,0,1,5.26,7.64Z"/></g></g></svg>