<svg xmlns="http://www.w3.org/2000/svg" xmlns:xlink="http://www.w3.org/1999/xlink" viewBox="0 0 24 24"><defs><style>.cls-1{isolation:isolate;}.cls-2{opacity:0.12;mix-blend-mode:multiply;}.cls-3,.cls-5{opacity:0.8;}.cls-4{fill:url(#radial-gradient);}.cls-5{fill:url(#linear-gradient);}.cls-6{fill:#fff;}.cls-7{fill:none;stroke:#666;}.cls-8{fill:url(#radial-gradient-2);}.cls-9{fill:url(#linear-gradient-2);}.cls-10{fill:url(#radial-gradient-3);}.cls-11{fill:url(#linear-gradient-3);}</style><radialGradient id="radial-gradient" cx="-1052.28" cy="-407.53" r="80.28" gradientTransform="translate(492.49 191.59) scale(0.47)" gradientUnits="userSpaceOnUse"><stop offset="0.28" stop-color="#fff"/><stop offset="0.38" stop-color="#f9fbfc"/><stop offset="0.51" stop-color="#e8eef2"/><stop offset="0.66" stop-color="#ccd9e2"/><stop offset="0.82" stop-color="#a5bccc"/><stop offset="0.95" stop-color="#82a2b8"/></radialGradient><linearGradient id="linear-gradient" x1="12.5" y1="23" x2="12.5" gradientUnits="userSpaceOnUse"><stop offset="0" stop-color="#666"/><stop offset="0.89" stop-color="#b3b3b3"/></linearGradient><radialGradient id="radial-gradient-2" cx="7.44" cy="6.52" r="7.58" gradientUnits="userSpaceOnUse"><stop offset="0.29" stop-color="#73c8ec"/><stop offset="0.68" stop-color="#128dbb"/></radialGradient><linearGradient id="linear-gradient-2" x1="10.75" y1="5.09" x2="10.75" y2="13.83" gradientUnits="userSpaceOnUse"><stop offset="0" stop-color="#3088cd"/><stop offset="0.55" stop-color="#185991"/><stop offset="0.9" stop-color="#0b3f6f"/></linearGradient><radialGradient id="radial-gradient-3" cx="14.22" cy="13.85" r="6.7" gradientUnits="userSpaceOnUse"><stop offset="0.07" stop-color="#e4a588"/><stop offset="0.39" stop-color="#e16a32"/><stop offset="0.61" stop-color="#d54c11"/><stop offset="0.71" stop-color="#cf3d00"/></radialGradient><linearGradient id="linear-gradient-3" x1="16" y1="13" x2="16" y2="19" gradientUnits="userSpaceOnUse"><stop offset="0" stop-color="#a32e17"/><stop offset="0.23" stop-color="#972d13"/><stop offset="0.64" stop-color="#78290a"/><stop offset="1" stop-color="#582500"/></linearGradient></defs><g class="cls-1"><g id="Base"><g class="cls-2"><polygon points="5 23 5 2 18 2 18 6.01 22 6.01 22 23 5 23"/><path class="cls-3" d="M23,5,19,1H4V24H23ZM22,5,19,5V2ZM5,23V2H18V6h4V23Z"/><polygon points="21.98 4.99 19 2 19 5 21.98 4.99"/></g><polygon class="cls-4" points="4 22 4 1 17 1 17 5.01 21 5.01 21 22 4 22"/><path class="cls-5" d="M22,4,18,0H3V23H22ZM21,4,18,4V1ZM4,22V1H17V5h4V22Z"/><polygon class="cls-6" points="20.98 3.99 18 1 18 4 20.98 3.99"/></g><g id="Content"><polyline class="cls-7" points="15.5 13.96 15.5 9.46 5 9.46"/><polygon class="cls-8" points="7.5 5.96 13.5 9.46 7.5 12.96 7.5 5.96"/><path class="cls-9" d="M8,6.83l4.51,2.63L8,12.09V6.83M7,5.09v8.74L8.5,13,13,10.32l1.48-.86L13,8.6,8.5,6,7,5.09Z"/><rect class="cls-10" x="13.5" y="13.5" width="5" height="5"/><path class="cls-11" d="M18,14v4H14V14h4m1-1H13v6h6V13Z"/></g></g></svg>