<svg xmlns="http://www.w3.org/2000/svg" xmlns:xlink="http://www.w3.org/1999/xlink" viewBox="0 0 24 24"><defs><style>.cls-1{fill:none;}.cls-2{isolation:isolate;}.cls-3{opacity:0.9;fill:url(#New_Gradient_Swatch_1);}.cls-4{fill:#fff;}.cls-5{fill:url(#radial-gradient);}.cls-6{opacity:0.2;mix-blend-mode:multiply;fill:url(#linear-gradient);}.cls-7{fill:#37b89d;}.cls-8{clip-path:url(#clip-path);}.cls-9{fill:#7cbf7b;}.cls-10{fill:#aebd67;}.cls-11{fill:#fec337;}.cls-12{fill:#f4eb18;}.cls-13{fill:#09abbd;}.cls-14{fill:#1380d5;}.cls-15{fill:#2b4ac6;}.cls-16{fill:#787878;}.cls-17{fill:url(#radial-gradient-2);}.cls-18{fill:#f5ae81;}.cls-19{fill:url(#linear-gradient-2);}.cls-20{fill:url(#linear-gradient-3);}</style><linearGradient id="New_Gradient_Swatch_1" x1="12.5" y1="24" x2="12.5" gradientUnits="userSpaceOnUse"><stop offset="0" stop-color="#6a6a6a"/><stop offset="0.29" stop-color="#7f7f7f"/><stop offset="0.88" stop-color="#a6a6a6"/></linearGradient><radialGradient id="radial-gradient" cx="-1037.59" cy="-398.45" fy="-420.0657751382447" r="75.54" gradientTransform="translate(492.49 191.59) scale(0.47)" gradientUnits="userSpaceOnUse"><stop offset="0.38" stop-color="#fff"/><stop offset="0.48" stop-color="#f9fafc"/><stop offset="0.62" stop-color="#e8eef2"/><stop offset="0.77" stop-color="#ccd9e2"/><stop offset="0.95" stop-color="#a5bccc"/><stop offset="0.95" stop-color="#a4bbcb"/></radialGradient><linearGradient id="linear-gradient" x1="19" y1="8" x2="19" y2="6" gradientUnits="userSpaceOnUse"><stop offset="0" stop-color="#e6e6e6"/><stop offset="1" stop-color="#4d4d4d"/></linearGradient><clipPath id="clip-path"><rect class="cls-1" x="8" y="12" width="9" height="8"/></clipPath><radialGradient id="radial-gradient-2" cx="-84.9" cy="66.41" r="24.82" gradientTransform="matrix(0.46, 0.27, -0.37, 0.57, 64.47, -11.09)" gradientUnits="userSpaceOnUse"><stop offset="0.33" stop-color="#73c8ec"/><stop offset="0.45" stop-color="#128dbb"/><stop offset="0.48" stop-color="#d16432"/><stop offset="0.6" stop-color="#d15f2c"/><stop offset="0.76" stop-color="#d0511a"/><stop offset="0.93" stop-color="#cf3d00"/></radialGradient><linearGradient id="linear-gradient-2" x1="7.75" y1="2.4" x2="7.75" y2="13.17" gradientUnits="userSpaceOnUse"><stop offset="0" stop-color="#a32e17"/><stop offset="0.23" stop-color="#972d13"/><stop offset="0.64" stop-color="#78290a"/><stop offset="1" stop-color="#582500"/></linearGradient><linearGradient id="linear-gradient-3" x1="5.08" y1="2.17" x2="5.08" y2="9.94" gradientUnits="userSpaceOnUse"><stop offset="0" stop-color="#3088cd"/><stop offset="0.55" stop-color="#185991"/><stop offset="0.9" stop-color="#0b3f6f"/></linearGradient></defs><g class="cls-2"><g id="Layer_2" data-name="Layer 2"><g id="Content"><g id="mlfFile_24"><path class="cls-3" d="M22,5,17,0H3V24H22Z"/><polygon class="cls-4" points="20.98 4.99 17 1 17 5 20.98 4.99"/><polygon class="cls-5" points="4 23 4 1 16 1 16 6 21 6 21 23 4 23"/><polygon class="cls-6" points="21 6.67 21 6 17 6 17 8 21 6.67"/><rect class="cls-7" x="8" y="12" width="9" height="8"/><g class="cls-8"><ellipse class="cls-9" cx="11.41" cy="18.21" rx="3.11" ry="3.64" transform="translate(-6.42 6.22) rotate(-24)"/><ellipse class="cls-10" cx="11.41" cy="18.21" rx="2.34" ry="2.82" transform="translate(-7.15 7.39) rotate(-27.69)"/><ellipse class="cls-11" cx="11.41" cy="18.21" rx="1.57" ry="2.01" transform="matrix(0.85, -0.53, 0.53, 0.85, -7.94, 8.87)"/><ellipse class="cls-12" cx="11.41" cy="18.21" rx="0.79" ry="1.2" transform="translate(-8.7 10.65) rotate(-37.33)"/><ellipse class="cls-13" cx="14.4" cy="14.01" rx="2.19" ry="2.64" transform="translate(-4.86 8.3) rotate(-27.69)"/><ellipse class="cls-14" cx="14.4" cy="14.01" rx="1.47" ry="1.88" transform="translate(-5.25 9.81) rotate(-32.16)"/><ellipse class="cls-15" cx="14.4" cy="14.01" rx="0.74" ry="1.12" transform="translate(-5.55 11.6) rotate(-37.33)"/></g><rect class="cls-16" x="8" y="5" width="7" height="1"/><rect class="cls-16" x="8" y="8" width="9" height="1"/><path class="cls-17" d="M11.73,9.73c-.35-1-.59-2-1-3.13l-.59-1.81a10,10,0,0,0-.88-1.73c-.12-.23-.42-.75-.74-.75a.37.37,0,0,0-.22.09c-.21.14-2.16,2.9-2.38,3l-.24.07a1.3,1.3,0,0,0-.44.27,5.58,5.58,0,0,0-.64.73l-.48.68L1.26,8.37S4.69,10.45,4.92,11c.15.41.94,1.55,1.1,2,.51-.12.84-.65,1.18-1a10.21,10.21,0,0,0,1-1.17c.61-.77.85-1.26,1.86-1.38a1.72,1.72,0,0,1,.91.23c.19.15.43.25.61.41S11.85,10.07,11.73,9.73Z"/><path class="cls-18" d="M9.39,5.46c.12,1.06,0,1.91-.35,1.93s-.67-.83-.78-1.88,0-1.91.35-1.93S9.27,4.41,9.39,5.46Z"/><path class="cls-1" d="M7.45,4A6.17,6.17,0,0,1,5.84,5.82a2,2,0,0,0-.93.9,1.93,1.93,0,0,1-.22.36A8.28,8.28,0,0,1,2,8.41L3.78,9.57l.14.07L4,9.59l-.07.05a5.63,5.63,0,0,1,2.3,2.94,9.71,9.71,0,0,0,1.37-1.46c.84-1,1.58-1.91,2.37-1.94l.26,0a2.05,2.05,0,0,1,1.09.38c-.25-.69-.53-1.55-.85-2.6,0,0-1.34-4.09-1.87-4.29H8.52l-.1.05.1-.05C8.24,2.72,7.76,3.61,7.45,4Z"/><path class="cls-19" d="M12,9.93c-.23-.76-2-6.77-3-7.53l-.57.11.05.15a.12.12,0,0,1,.1,0c.53.2,1.87,4.29,1.87,4.29.32,1,.6,1.91.85,2.6a2.14,2.14,0,0,0-1.09-.38c-1.25,0-1.79.93-2.63,2a9.71,9.71,0,0,1-1.37,1.46,5.63,5.63,0,0,0-2.3-2.94l-.42.3h0a5.11,5.11,0,0,1,2.4,3.22h0c1.14,0,3-3.77,4.28-3.56a3,3,0,0,1,1.31.67C11.75,10.46,12.11,10.4,12,9.93Z"/><path class="cls-20" d="M8.67,2.18H8.61c-1,0-2.1,2.77-3,3.25s-1,1-1.3,1.4A16.65,16.65,0,0,1,1,8.3L3.5,9.94l.36-.25A8.17,8.17,0,0,0,6.09,7.52,19.09,19.09,0,0,0,8.2,3.11l.09-.24a.45.45,0,0,1,.23-.22,1.46,1.46,0,0,1,.63-.11A1.05,1.05,0,0,0,8.67,2.18ZM3.48,9.37,2,8.41a16.74,16.74,0,0,0,2.13-.93L5,8.12A7.36,7.36,0,0,1,3.48,9.37Zm2.21-2.1a4.78,4.78,0,0,1-.39.5l-.74-.56a.53.53,0,0,0,.13-.13,1.93,1.93,0,0,0,.22-.36,2,2,0,0,1,.93-.9A5.15,5.15,0,0,0,7.23,4.34,15.69,15.69,0,0,1,5.69,7.27Z"/><rect class="cls-1" width="24" height="24"/></g></g></g></g></svg>