<svg xmlns="http://www.w3.org/2000/svg" xmlns:xlink="http://www.w3.org/1999/xlink" viewBox="0 0 24 24"><defs><style>.cls-1{fill:url(#radial-gradient);}.cls-2{fill:url(#linear-gradient);}.cls-3{fill:#0655a3;}.cls-4{fill:url(#linear-gradient-2);}.cls-5{fill:url(#Dark_Gradient);}.cls-6{fill:url(#linear-gradient-3);}</style><radialGradient id="radial-gradient" cx="1.64" cy="1" r="28.07" gradientUnits="userSpaceOnUse"><stop offset="0.56" stop-color="#fff"/><stop offset="0.97" stop-color="#cccbc9"/></radialGradient><linearGradient id="linear-gradient" x1="11" y1="22" x2="11" gradientUnits="userSpaceOnUse"><stop offset="0.02" stop-color="#292929"/><stop offset="0.14" stop-color="#444546"/><stop offset="1" stop-color="gray"/></linearGradient><linearGradient id="linear-gradient-2" x1="12.4" y1="12.4" x2="22.78" y2="22.78" gradientUnits="userSpaceOnUse"><stop offset="0.2" stop-color="#f2f2f2"/><stop offset="0.67" stop-color="#a7a7a7"/><stop offset="0.77" stop-color="#979797"/></linearGradient><linearGradient id="Dark_Gradient" x1="17" y1="24" x2="17" y2="10" gradientUnits="userSpaceOnUse"><stop offset="0" stop-color="#1a1a1a"/><stop offset="0.96" stop-color="#676767"/></linearGradient><linearGradient id="linear-gradient-3" x1="17" y1="13.6" x2="17" y2="20.4" gradientUnits="userSpaceOnUse"><stop offset="0.47" stop-color="#1a1a1a"/><stop offset="0.96" stop-color="#676767"/></linearGradient></defs><g id="Layer_2" data-name="Layer 2"><g id="Icons"><g id="plotOptions_24"><rect class="cls-1" x="1" y="1" width="20" height="20"/><path class="cls-2" d="M0,0V22H22V0ZM21,21H1V1H21Z"/><rect class="cls-3" x="3" y="10" width="4" height="11"/><rect class="cls-3" x="9" y="4" width="4" height="17"/><rect class="cls-3" x="15" y="8" width="4" height="4"/><path class="cls-4" d="M15.72,23.5l-.1-1.1a5.55,5.55,0,0,1-1.47-.6l-.84.7L11.5,20.69l.71-.84a5.26,5.26,0,0,1-.61-1.47l-1.1-.1V15.72l1.1-.1a5.55,5.55,0,0,1,.6-1.47l-.7-.84,1.81-1.81.84.71a5.26,5.26,0,0,1,1.47-.61l.1-1.1h2.56l.1,1.1a5.26,5.26,0,0,1,1.47.61l.84-.71,1.81,1.81-.7.84a5.55,5.55,0,0,1,.6,1.47l1.1.1v2.56l-1.1.1a5.26,5.26,0,0,1-.61,1.47l.71.84L20.69,22.5l-.84-.7a5.55,5.55,0,0,1-1.47.6l-.1,1.1ZM17,13.94A3.06,3.06,0,1,0,20.06,17,3.06,3.06,0,0,0,17,13.94Z"/><path class="cls-5" d="M17.82,11l.09,1a5,5,0,0,1,2,.82l.77-.65,1.17,1.16-.65.77a5.16,5.16,0,0,1,.81,2l1,.09v1.65l-1,.08a5,5,0,0,1-.81,2l.64.77-1.16,1.17-.77-.65a5.16,5.16,0,0,1-2,.81l-.09,1H16.17l-.08-1a5.09,5.09,0,0,1-2-.81l-.77.65-1.17-1.17.65-.77a5,5,0,0,1-.81-2l-1-.08V16.18l1-.09a5.16,5.16,0,0,1,.81-2l-.65-.77,1.17-1.17.77.65a5.16,5.16,0,0,1,2-.81l.09-1h1.64M17,20.33A3.33,3.33,0,1,0,13.67,17,3.33,3.33,0,0,0,17,20.33M18.74,10H15.26l-.11,1.21a5.48,5.48,0,0,0-.94.39l-.93-.78-2.46,2.46.78.93a5.48,5.48,0,0,0-.39.94L10,15.26v3.48l1.21.11a5.48,5.48,0,0,0,.39.94l-.78.93,2.46,2.46.93-.78a5.48,5.48,0,0,0,.94.39L15.26,24h3.48l.11-1.21a5.84,5.84,0,0,0,.94-.39l.93.78,2.46-2.46-.78-.93a5.48,5.48,0,0,0,.39-.94L24,18.74V15.26l-1.21-.11a5.84,5.84,0,0,0-.39-.94l.78-.93-2.46-2.46-.93.78a6.42,6.42,0,0,0-.94-.39L18.74,10ZM17,19.4A2.4,2.4,0,1,1,19.4,17,2.41,2.41,0,0,1,17,19.4Z"/><path class="cls-6" d="M17,14.6A2.4,2.4,0,1,1,14.6,17,2.41,2.41,0,0,1,17,14.6m0-1A3.4,3.4,0,1,0,20.4,17,3.41,3.41,0,0,0,17,13.6Z"/></g></g></g></svg>