<svg width="500" height="380" viewBox="0 0 500 380" fill="none" xmlns="http://www.w3.org/2000/svg">
<g clip-path="url(#clip0_214_6427)">
<rect width="500" height="380" fill="white"/>
<rect width="1280" height="685" fill="white"/>
<rect width="1280" height="28" fill="#004073"/>
<rect width="100" height="28" fill="#004073"/>
<path d="M3 5C3 3.89543 3.89543 3 5 3H95C96.1046 3 97 3.89543 97 5V28H3V5Z" fill="#212121"/>
<rect width="100" height="28" transform="translate(100)" fill="#1171BE"/>
<rect width="100" height="28" transform="translate(200)" fill="#08609D"/>
<rect width="100" height="28" transform="translate(300)" fill="#004073"/>
<rect width="100" height="28" transform="translate(400)" fill="#004073"/>
<rect width="1280" height="91.0001" transform="translate(0 28)" fill="#212121"/>
<rect y="28" width="192" height="91" fill="#212121"/>
<rect x="192" y="28" width="192" height="91" fill="#212121"/>
<rect x="384" y="28" width="192" height="91" fill="#212121"/>
<path d="M0 119H1280" stroke="#BFBFBF"/>
<rect width="226" height="20" transform="translate(0.5 119.5)" fill="#212121"/>
<path d="M13.5 132.5L8.5 126.5H18.5L13.5 132.5Z" fill="#F5F5F5"/>
<path d="M214.5 124.5C213.511 124.5 212.544 124.793 211.722 125.343C210.9 125.892 210.259 126.673 209.881 127.587C209.502 128.5 209.403 129.506 209.596 130.475C209.789 131.445 210.265 132.336 210.964 133.036C211.664 133.735 212.555 134.211 213.525 134.404C214.494 134.597 215.5 134.498 216.413 134.119C217.327 133.741 218.108 133.1 218.657 132.278C219.207 131.456 219.5 130.489 219.5 129.5C219.5 128.843 219.371 128.193 219.119 127.587C218.868 126.98 218.5 126.429 218.036 125.964C217.571 125.5 217.02 125.132 216.413 124.881C215.807 124.629 215.157 124.5 214.5 124.5ZM214.4 132.68L211.31 127.5H217.5L214.4 132.68Z" fill="#616161"/>
<rect x="0.5" y="139.5" width="226" height="1" fill="white"/>
<rect x="0.5" y="140.5" width="226" height="521" fill="#212121"/>
<path d="M0 119V118.5H-0.5V119H0ZM227 119H227.5V118.5H227V119ZM227 662V662.5H227.5V662H227ZM0 662H-0.5V662.5H0V662ZM0 119.5H227V118.5H0V119.5ZM226.5 119V662H227.5V119H226.5ZM227 661.5H0V662.5H227V661.5ZM0.5 662V119H-0.5V662H0.5Z" fill="#BFBFBF"/>
<rect x="164" y="119" width="662" height="419" fill="#121212"/>
<rect width="661" height="22" transform="translate(164.5 119.5)" fill="#121212"/>
<rect width="10" height="21" transform="translate(164.5 119.5)" fill="#121212"/>
<path d="M171.5 124.5H167.5V125.5H171.5V124.5Z" fill="#BFBFBF"/>
<path d="M171.5 127.5H167.5V128.5H171.5V127.5Z" fill="#BFBFBF"/>
<path d="M171.5 130.5H167.5V131.5H171.5V130.5Z" fill="#BFBFBF"/>
<path d="M171.5 133.5H167.5V134.5H171.5V133.5Z" fill="#BFBFBF"/>
<path d="M171.5 136.5H167.5V137.5H171.5V136.5Z" fill="#BFBFBF"/>
<path d="M164.5 119.5V118.5H163.5V119.5H164.5ZM174.5 119.5H175.5V118.5H174.5V119.5ZM174.5 141.5V142.5H175.5V141.5H174.5ZM164.5 141.5H163.5V142.5H164.5V141.5ZM164.5 120.5H174.5V118.5H164.5V120.5ZM173.5 119.5V141.5H175.5V119.5H173.5ZM174.5 140.5H164.5V142.5H174.5V140.5ZM165.5 141.5V119.5H163.5V141.5H165.5Z" fill="#7D7D7D"/>
<rect x="175.5" y="119.5" width="65" height="3" fill="#268CDD"/>
<rect width="65" height="18" transform="translate(175.5 122.5)" fill="#212121"/>
<path d="M184.414 136V127.41H185.58L190.092 134.154V127.41H191.182V136H190.016L185.504 129.25V136H184.414ZM192.57 132.889C192.57 131.736 192.891 130.883 193.531 130.328C194.066 129.867 194.719 129.637 195.488 129.637C196.344 129.637 197.043 129.918 197.586 130.48C198.129 131.039 198.4 131.812 198.4 132.801C198.4 133.602 198.279 134.232 198.037 134.693C197.799 135.15 197.449 135.506 196.988 135.76C196.531 136.014 196.031 136.141 195.488 136.141C194.617 136.141 193.912 135.861 193.373 135.303C192.838 134.744 192.57 133.939 192.57 132.889ZM193.654 132.889C193.654 133.686 193.828 134.283 194.176 134.682C194.523 135.076 194.961 135.273 195.488 135.273C196.012 135.273 196.447 135.074 196.795 134.676C197.143 134.277 197.316 133.67 197.316 132.854C197.316 132.084 197.141 131.502 196.789 131.107C196.441 130.709 196.008 130.51 195.488 130.51C194.961 130.51 194.523 130.707 194.176 131.102C193.828 131.496 193.654 132.092 193.654 132.889ZM199.631 136V129.777H200.58V130.721C200.822 130.279 201.045 129.988 201.248 129.848C201.455 129.707 201.682 129.637 201.928 129.637C202.283 129.637 202.645 129.75 203.012 129.977L202.648 130.955C202.391 130.803 202.133 130.727 201.875 130.727C201.645 130.727 201.438 130.797 201.254 130.938C201.07 131.074 200.939 131.266 200.861 131.512C200.744 131.887 200.686 132.297 200.686 132.742V136H199.631ZM203.639 136V129.777H204.582V130.65C204.777 130.346 205.037 130.102 205.361 129.918C205.686 129.73 206.055 129.637 206.469 129.637C206.93 129.637 207.307 129.732 207.6 129.924C207.896 130.115 208.105 130.383 208.227 130.727C208.719 130 209.359 129.637 210.148 129.637C210.766 129.637 211.24 129.809 211.572 130.152C211.904 130.492 212.07 131.018 212.07 131.729V136H211.021V132.08C211.021 131.658 210.986 131.355 210.916 131.172C210.85 130.984 210.727 130.834 210.547 130.721C210.367 130.607 210.156 130.551 209.914 130.551C209.477 130.551 209.113 130.697 208.824 130.99C208.535 131.279 208.391 131.744 208.391 132.385V136H207.336V131.957C207.336 131.488 207.25 131.137 207.078 130.902C206.906 130.668 206.625 130.551 206.234 130.551C205.938 130.551 205.662 130.629 205.408 130.785C205.158 130.941 204.977 131.17 204.863 131.471C204.75 131.771 204.693 132.205 204.693 132.771V136H203.639ZM217.695 135.232C217.305 135.564 216.928 135.799 216.564 135.936C216.205 136.072 215.818 136.141 215.404 136.141C214.721 136.141 214.195 135.975 213.828 135.643C213.461 135.307 213.277 134.879 213.277 134.359C213.277 134.055 213.346 133.777 213.482 133.527C213.623 133.273 213.805 133.07 214.027 132.918C214.254 132.766 214.508 132.65 214.789 132.572C214.996 132.518 215.309 132.465 215.727 132.414C216.578 132.312 217.205 132.191 217.607 132.051C217.611 131.906 217.613 131.814 217.613 131.775C217.613 131.346 217.514 131.043 217.314 130.867C217.045 130.629 216.645 130.51 216.113 130.51C215.617 130.51 215.25 130.598 215.012 130.773C214.777 130.945 214.604 131.252 214.49 131.693L213.459 131.553C213.553 131.111 213.707 130.756 213.922 130.486C214.137 130.213 214.447 130.004 214.854 129.859C215.26 129.711 215.73 129.637 216.266 129.637C216.797 129.637 217.229 129.699 217.561 129.824C217.893 129.949 218.137 130.107 218.293 130.299C218.449 130.486 218.559 130.725 218.621 131.014C218.656 131.193 218.674 131.518 218.674 131.986V133.393C218.674 134.373 218.695 134.994 218.738 135.256C218.785 135.514 218.875 135.762 219.008 136H217.906C217.797 135.781 217.727 135.525 217.695 135.232ZM217.607 132.877C217.225 133.033 216.65 133.166 215.885 133.275C215.451 133.338 215.145 133.408 214.965 133.486C214.785 133.564 214.646 133.68 214.549 133.832C214.451 133.98 214.402 134.146 214.402 134.33C214.402 134.611 214.508 134.846 214.719 135.033C214.934 135.221 215.246 135.314 215.656 135.314C216.062 135.314 216.424 135.227 216.74 135.051C217.057 134.871 217.289 134.627 217.438 134.318C217.551 134.08 217.607 133.729 217.607 133.264V132.877ZM220.291 136V127.41H221.346V136H220.291Z" fill="#212121"/>
<path d="M232.51 132.94L234.87 135.3L235.81 134.36L233.45 132L235.81 129.64L234.87 128.7L232.51 131.06L230.15 128.7L229.21 129.64L231.57 132L229.21 134.36L230.15 135.3L232.51 132.94Z" fill="#212121"/>
<rect x="175" y="120" width="66" height="21" stroke="#7D7D7D"/>
<rect x="241.5" y="140.5" width="5" height="1" fill="#7D7D7D"/>
<rect x="247.5" y="119.5" width="73" height="3" fill="#1656A7"/>
<rect width="73" height="19" transform="translate(247.5 122.5)" fill="#121212"/>
<path d="M256.039 133.24L257.111 133.146C257.162 133.576 257.279 133.93 257.463 134.207C257.65 134.48 257.939 134.703 258.33 134.875C258.721 135.043 259.16 135.127 259.648 135.127C260.082 135.127 260.465 135.062 260.797 134.934C261.129 134.805 261.375 134.629 261.535 134.406C261.699 134.18 261.781 133.934 261.781 133.668C261.781 133.398 261.703 133.164 261.547 132.965C261.391 132.762 261.133 132.592 260.773 132.455C260.543 132.365 260.033 132.227 259.244 132.039C258.455 131.848 257.902 131.668 257.586 131.5C257.176 131.285 256.869 131.02 256.666 130.703C256.467 130.383 256.367 130.025 256.367 129.631C256.367 129.197 256.49 128.793 256.736 128.418C256.982 128.039 257.342 127.752 257.814 127.557C258.287 127.361 258.812 127.264 259.391 127.264C260.027 127.264 260.588 127.367 261.072 127.574C261.561 127.777 261.936 128.078 262.197 128.477C262.459 128.875 262.6 129.326 262.619 129.83L261.529 129.912C261.471 129.369 261.271 128.959 260.932 128.682C260.596 128.404 260.098 128.266 259.438 128.266C258.75 128.266 258.248 128.393 257.932 128.646C257.619 128.896 257.463 129.199 257.463 129.555C257.463 129.863 257.574 130.117 257.797 130.316C258.016 130.516 258.586 130.721 259.508 130.932C260.434 131.139 261.068 131.32 261.412 131.477C261.912 131.707 262.281 132 262.52 132.355C262.758 132.707 262.877 133.113 262.877 133.574C262.877 134.031 262.746 134.463 262.484 134.869C262.223 135.271 261.846 135.586 261.354 135.812C260.865 136.035 260.314 136.146 259.701 136.146C258.924 136.146 258.271 136.033 257.744 135.807C257.221 135.58 256.809 135.24 256.508 134.787C256.211 134.33 256.055 133.814 256.039 133.24ZM264.295 136V127.41H265.35V130.492C265.842 129.922 266.463 129.637 267.213 129.637C267.674 129.637 268.074 129.729 268.414 129.912C268.754 130.092 268.996 130.342 269.141 130.662C269.289 130.982 269.363 131.447 269.363 132.057V136H268.309V132.057C268.309 131.529 268.193 131.146 267.963 130.908C267.736 130.666 267.414 130.545 266.996 130.545C266.684 130.545 266.389 130.627 266.111 130.791C265.838 130.951 265.643 131.17 265.525 131.447C265.408 131.725 265.35 132.107 265.35 132.596V136H264.295ZM270.582 132.889C270.582 131.736 270.902 130.883 271.543 130.328C272.078 129.867 272.73 129.637 273.5 129.637C274.355 129.637 275.055 129.918 275.598 130.48C276.141 131.039 276.412 131.812 276.412 132.801C276.412 133.602 276.291 134.232 276.049 134.693C275.811 135.15 275.461 135.506 275 135.76C274.543 136.014 274.043 136.141 273.5 136.141C272.629 136.141 271.924 135.861 271.385 135.303C270.85 134.744 270.582 133.939 270.582 132.889ZM271.666 132.889C271.666 133.686 271.84 134.283 272.188 134.682C272.535 135.076 272.973 135.273 273.5 135.273C274.023 135.273 274.459 135.074 274.807 134.676C275.154 134.277 275.328 133.67 275.328 132.854C275.328 132.084 275.152 131.502 274.801 131.107C274.453 130.709 274.02 130.51 273.5 130.51C272.973 130.51 272.535 130.707 272.188 131.102C271.84 131.496 271.666 132.092 271.666 132.889ZM278.803 136L276.898 129.777H277.988L278.979 133.369L279.348 134.705C279.363 134.639 279.471 134.211 279.67 133.422L280.66 129.777H281.744L282.676 133.387L282.986 134.576L283.344 133.375L284.41 129.777H285.436L283.49 136H282.395L281.404 132.273L281.164 131.213L279.904 136H278.803ZM286.332 128.623V127.41H287.387V128.623H286.332ZM286.332 136V129.777H287.387V136H286.332ZM288.998 136V129.777H289.947V130.662C290.404 129.979 291.064 129.637 291.928 129.637C292.303 129.637 292.646 129.705 292.959 129.842C293.275 129.975 293.512 130.15 293.668 130.369C293.824 130.588 293.934 130.848 293.996 131.148C294.035 131.344 294.055 131.686 294.055 132.174V136H293V132.215C293 131.785 292.959 131.465 292.877 131.254C292.795 131.039 292.648 130.869 292.438 130.744C292.23 130.615 291.986 130.551 291.705 130.551C291.256 130.551 290.867 130.693 290.539 130.979C290.215 131.264 290.053 131.805 290.053 132.602V136H288.998ZM295.484 136.516L296.51 136.668C296.553 136.984 296.672 137.215 296.867 137.359C297.129 137.555 297.486 137.652 297.939 137.652C298.428 137.652 298.805 137.555 299.07 137.359C299.336 137.164 299.516 136.891 299.609 136.539C299.664 136.324 299.689 135.873 299.686 135.186C299.225 135.729 298.65 136 297.963 136C297.107 136 296.445 135.691 295.977 135.074C295.508 134.457 295.273 133.717 295.273 132.854C295.273 132.26 295.381 131.713 295.596 131.213C295.811 130.709 296.121 130.32 296.527 130.047C296.938 129.773 297.418 129.637 297.969 129.637C298.703 129.637 299.309 129.934 299.785 130.527V129.777H300.758V135.156C300.758 136.125 300.658 136.811 300.459 137.213C300.264 137.619 299.951 137.939 299.521 138.174C299.096 138.408 298.57 138.525 297.945 138.525C297.203 138.525 296.604 138.357 296.146 138.021C295.689 137.689 295.469 137.188 295.484 136.516ZM296.357 132.777C296.357 133.594 296.52 134.189 296.844 134.564C297.168 134.939 297.574 135.127 298.062 135.127C298.547 135.127 298.953 134.941 299.281 134.57C299.609 134.195 299.773 133.609 299.773 132.812C299.773 132.051 299.604 131.477 299.264 131.09C298.928 130.703 298.521 130.51 298.045 130.51C297.576 130.51 297.178 130.701 296.85 131.084C296.521 131.463 296.357 132.027 296.357 132.777Z" fill="#121212"/>
<path d="M312.51 132.94L314.87 135.3L315.81 134.36L313.45 132L315.81 129.64L314.87 128.7L312.51 131.06L310.15 128.7L309.21 129.64L311.57 132L309.21 134.36L310.15 135.3L312.51 132.94Z" fill="#616161"/>
<rect x="247" y="120" width="74" height="21" stroke="#1656A7"/>
<rect x="321.5" y="140.5" width="5" height="1" fill="#1656A7"/>
<rect width="18" height="21" transform="translate(326.5 119.5)" fill="#121212"/>
<path d="M340.5 129.5H336.5V125.5H334.5V129.5H330.5V131.5H334.5V135.5H336.5V131.5H340.5V129.5Z" fill="#616161"/>
<path d="M326.5 119.5V118.5H325.5V119.5H326.5ZM344.5 119.5H345.5V118.5H344.5V119.5ZM344.5 141.5V142.5H345.5V141.5H344.5ZM326.5 141.5H325.5V142.5H326.5V141.5ZM326.5 120.5H344.5V118.5H326.5V120.5ZM343.5 119.5V141.5H345.5V119.5H343.5ZM344.5 140.5H326.5V142.5H344.5V140.5ZM327.5 141.5V119.5H325.5V141.5H327.5Z" fill="#7D7D7D"/>
<rect width="481" height="21" transform="translate(344.5 119.5)" fill="#121212"/>
<path d="M344.5 119.5V118.5H343.5V119.5H344.5ZM825.5 119.5H826.5V118.5H825.5V119.5ZM825.5 141.5V142.5H826.5V141.5H825.5ZM344.5 141.5H343.5V142.5H344.5V141.5ZM344.5 120.5H825.5V118.5H344.5V120.5ZM824.5 119.5V141.5H826.5V119.5H824.5ZM825.5 140.5H344.5V142.5H825.5V140.5ZM345.5 141.5V119.5H343.5V141.5H345.5Z" fill="#7D7D7D"/>
<rect x="164" y="119" width="662" height="419" stroke="#7D7D7D"/>
<rect x="26" y="60" width="24" height="24" fill="#616161"/>
<rect x="70" y="60" width="24" height="24" fill="#616161"/>
<rect x="114" y="60" width="24" height="24" fill="#616161"/>
<rect x="158" y="60" width="24" height="24" fill="#616161"/>
<rect x="202" y="60" width="24" height="24" fill="#616161"/>
<rect x="246" y="60" width="24" height="24" fill="#616161"/>
<rect x="177" y="154" width="229" height="5" rx="2" fill="#616161"/>
<rect x="177" y="172" width="315" height="5" rx="2" fill="#616161"/>
<rect x="177" y="190" width="301" height="5" rx="2" fill="#616161"/>
<rect x="177" y="208" width="278" height="5" rx="2" fill="#616161"/>
<rect x="177" y="226" width="310" height="5" rx="2" fill="#616161"/>
<rect x="177" y="244" width="315" height="5" rx="2" fill="#616161"/>
<rect x="177" y="262" width="306" height="5" rx="2" fill="#616161"/>
<rect x="177" y="280" width="292" height="5" rx="2" fill="#616161"/>
<rect x="13" y="154" width="114" height="5" rx="2" fill="#616161"/>
<rect x="13" y="172" width="99.854" height="5" rx="2" fill="#616161"/>
<rect x="13" y="190" width="91.5328" height="5" rx="2" fill="#616161"/>
<rect x="13" y="208" width="99.854" height="5" rx="2" fill="#616161"/>
<rect x="13" y="226" width="91.5328" height="5" rx="2" fill="#616161"/>
<rect x="13" y="244" width="114" height="5" rx="2" fill="#616161"/>
<rect x="13" y="262" width="99.854" height="5" rx="2" fill="#616161"/>
</g>
<defs>
<clipPath id="clip0_214_6427">
<rect width="500" height="380" fill="white"/>
</clipPath>
</defs>
</svg>
