<svg id="Layer_1" data-name="Layer 1" xmlns="http://www.w3.org/2000/svg" viewBox="0 0 16 16"><path d="M2.8,11.58v-1h1v1Z" style="fill:#333"/><path d="M5,5.74,5.21,5a6.56,6.56,0,0,1,1.12.48c-.06-.59-.09-1-.09-1.22H7a11.11,11.11,0,0,1-.12,1.21A9.3,9.3,0,0,1,8,5l.22.7A6.86,6.86,0,0,1,7,6a7.83,7.83,0,0,1,.84.92l-.58.42c-.19-.26-.41-.61-.67-1a6.91,6.91,0,0,1-.64,1l-.57-.42A11.94,11.94,0,0,1,6.18,6Q5.55,5.89,5,5.74Z" style="fill:#333"/><path d="M10.87,9.82c0-.12,0-.21,0-.27A2.4,2.4,0,0,1,11,8.66a2.15,2.15,0,0,1,.34-.57A5.7,5.7,0,0,1,12,7.48a3.05,3.05,0,0,0,.59-.65,1,1,0,0,0,.14-.52,1.25,1.25,0,0,0-.4-.9,1.37,1.37,0,0,0-1-.39,1.33,1.33,0,0,0-.93.35,1.89,1.89,0,0,0-.5,1.1L9,6.37a2.32,2.32,0,0,1,.73-1.54,2.33,2.33,0,0,1,1.59-.53A2.41,2.41,0,0,1,13,4.87a1.82,1.82,0,0,1,.62,1.38,1.73,1.73,0,0,1-.22.87,4.22,4.22,0,0,1-.86,1,4,4,0,0,0-.56.56,1.36,1.36,0,0,0-.2.42,3.89,3.89,0,0,0-.07.76Zm-.06,1.76v-1h1v1Z" style="fill:#333"/><rect x="-3.25" y="-3" width="22" height="22" rx="5" style="fill:none"/><rect x="-3" y="-3" width="22" height="22" rx="5" style="fill:none"/></svg>