<svg data-name="Layer 1" xmlns="http://www.w3.org/2000/svg" xmlns:xlink="http://www.w3.org/1999/xlink" viewBox="0 0 16 16"><defs><style>.cls-1{fill:none;}.cls-2{fill:#666;opacity:0.9;isolation:isolate;}.cls-3{fill:#fafafa;}.cls-4{fill:#da6027;}.cls-5{fill:#787878;}.cls-6{fill:#f9d12d;}.cls-7{fill:#ffc43b;}.cls-8{fill:#e8b84e;}.cls-9{fill:#b7bc64;}.cls-10{fill:#7dbe7c;}.cls-11{fill:#14b7b1;}.cls-12{fill:#04aabc;}.cls-13{fill:#307fbf;}.cls-14{fill:#343084;}.cls-15{fill:#3ab59a;}.cls-16{clip-path:url(#clip-path-slide);}.cls-17{fill:#adbc68;}.cls-18{fill:#f2ea0f;}.cls-19{fill:#3f56a4;}</style><clipPath id="clip-path-slide"><rect class="cls-1" x="10" y="7" width="4" height="4"/></clipPath></defs><rect class="cls-2" y="2" width="16" height="12"/><rect class="cls-3" x="1" y="3" width="14" height="10"/><rect class="cls-4" x="3" y="5" width="5" height="1"/><rect class="cls-5" x="3" y="7" width="5" height="1"/><rect class="cls-5" x="3" y="11" width="5" height="1"/><rect class="cls-5" x="5" y="9" width="4" height="1"/><rect class="cls-6" x="10" y="7" width="0.33" height="0.5"/><rect class="cls-6" x="10.33" y="7" width="0.33" height="0.5"/><rect class="cls-7" x="11" y="7" width="0.33" height="0.5"/><rect class="cls-8" x="11.33" y="7" width="0.33" height="0.5"/><rect class="cls-9" x="12.67" y="7" width="0.33" height="0.5"/><rect class="cls-10" x="13" y="7" width="0.33" height="0.5"/><rect class="cls-11" x="13.67" y="7" width="0.33" height="0.5"/><rect class="cls-6" x="10" y="7.5" width="0.33" height="0.5"/><rect class="cls-7" x="10.33" y="7.5" width="0.33" height="0.5"/><rect class="cls-8" x="11" y="7.5" width="0.33" height="0.5"/><rect class="cls-9" x="11.33" y="7.5" width="0.33" height="0.5"/><rect class="cls-10" x="12.67" y="7.5" width="0.33" height="0.5"/><rect class="cls-11" x="13" y="7.5" width="0.33" height="0.5"/><rect class="cls-12" x="13.67" y="7.5" width="0.33" height="0.5"/><rect class="cls-7" x="10" y="9" width="0.33" height="0.5"/><rect class="cls-8" x="10.33" y="9" width="0.33" height="0.5"/><rect class="cls-9" x="11" y="9" width="0.33" height="0.5"/><rect class="cls-10" x="11.33" y="9" width="0.33" height="0.5"/><rect class="cls-11" x="12.67" y="9" width="0.33" height="0.5"/><rect class="cls-12" x="13" y="9" width="0.33" height="0.5"/><rect class="cls-13" x="13.67" y="9" width="0.33" height="0.5"/><rect class="cls-8" x="10" y="9.5" width="0.33" height="0.5"/><rect class="cls-9" x="10.33" y="9.5" width="0.33" height="0.5"/><rect class="cls-10" x="11" y="9.5" width="0.33" height="0.5"/><rect class="cls-11" x="11.33" y="9.5" width="0.33" height="0.5"/><rect class="cls-12" x="12.67" y="9.5" width="0.33" height="0.5"/><rect class="cls-13" x="13" y="9.5" width="0.33" height="0.5"/><rect class="cls-14" x="13.67" y="9.5" width="0.33" height="0.5"/><rect class="cls-9" x="10" y="10" width="0.33" height="0.5"/><rect class="cls-10" x="10.33" y="10" width="0.33" height="0.5"/><rect class="cls-11" x="11" y="10" width="0.33" height="0.5"/><rect class="cls-12" x="11.33" y="10" width="0.33" height="0.5"/><rect class="cls-13" x="12.67" y="10" width="0.33" height="0.5"/><rect class="cls-14" x="13" y="10" width="0.33" height="0.5"/><rect class="cls-14" x="13.67" y="10" width="0.33" height="0.5"/><rect class="cls-15" x="10" y="7" width="4" height="4"/><g class="cls-16"><ellipse class="cls-10" cx="11.27" cy="10.09" rx="1.57" ry="2.29" transform="translate(-1.43 1.87) rotate(-8.91)"/><ellipse class="cls-17" cx="11.27" cy="10.1" rx="1.19" ry="1.76" transform="translate(-1.77 2.42) rotate(-11.38)"/><ellipse class="cls-7" cx="11.27" cy="10.1" rx="0.81" ry="1.23" transform="translate(-2.29 3.38) rotate(-15.52)"/><ellipse class="cls-18" cx="11.27" cy="10.1" rx="0.42" ry="0.72" transform="translate(-3.06 5.24) rotate(-23.13)"/><ellipse class="cls-12" cx="12.76" cy="7.42" rx="1.11" ry="1.65" transform="translate(-1.22 2.69) rotate(-11.48)"/><ellipse class="cls-13" cx="12.75" cy="7.42" rx="0.76" ry="1.16" transform="translate(-1.52 3.7) rotate(-15.57)"/><ellipse class="cls-19" cx="12.75" cy="7.42" rx="0.39" ry="0.67" transform="translate(-1.89 5.63) rotate(-23.22)"/></g></svg>