<svg xmlns="http://www.w3.org/2000/svg" xmlns:xlink="http://www.w3.org/1999/xlink" viewBox="0 0 16 16"><defs><style>.cls-1{fill:#ed1c24;opacity:0;}.cls-2{stroke-miterlimit:10;stroke-width:2px;fill:url(#linear-gradient);stroke:url(#linear-gradient-2);}.cls-3{fill:url(#radial-gradient);}.cls-4{fill:url(#linear-gradient-3);}</style><linearGradient id="linear-gradient" x1="-27" y1="-69" x2="-27" y2="-68" gradientTransform="translate(38 69)" gradientUnits="userSpaceOnUse"><stop offset="0" stop-color="#1a5f16"/><stop offset="0.98" stop-color="#004700"/></linearGradient><linearGradient id="linear-gradient-2" x1="-32" y1="-68.5" x2="-22" y2="-68.5" gradientTransform="translate(38 69)" gradientUnits="userSpaceOnUse"><stop offset="0" stop-color="#4f9044"/><stop offset="0.98" stop-color="#004700"/></linearGradient><radialGradient id="radial-gradient" cx="-23" cy="-76.5" fy="-85.01919908038622" r="13.34" gradientTransform="translate(-16 -67.53) rotate(180) scale(1 0.99)" gradientUnits="userSpaceOnUse"><stop offset="0.01" stop-color="#fff"/><stop offset="0.11" stop-color="#e9f6cf"/><stop offset="0.23" stop-color="#d4eca0"/><stop offset="0.34" stop-color="#c4e67d"/><stop offset="0.43" stop-color="#bae268"/><stop offset="0.48" stop-color="#b7e060"/><stop offset="1" stop-color="#4ea43f"/></radialGradient><linearGradient id="linear-gradient-3" x1="12.75" y1="8.88" x2="0.75" y2="8.88" gradientTransform="matrix(1, 0, 0, 1, 0, 0)" xlink:href="#linear-gradient-2"/></defs><title>step_out_16</title><g id="Layer_2" data-name="Layer 2"><g id="Icons"><rect class="cls-1" width="16" height="16"/><rect class="cls-2" x="7" width="8" height="1" transform="translate(22 1) rotate(180)"/><path class="cls-3" d="M2,11l4,3V12H8a4,4,0,0,0,4-4V3H10V8a2,2,0,0,1-2,2H6V8Z"/><path class="cls-4" d="M12,3V8a4,4,0,0,1-4,4H6v2L2,11,6,8v2H8a2,2,0,0,0,2-2V3h2m.75-.75H9.25V8A1.25,1.25,0,0,1,8,9.25H6.75V6.5l-1.2.9-4,3-.8.6.8.6,4,3,1.2.9V12.75H8A4.75,4.75,0,0,0,12.75,8V2.25Z"/></g></g></svg>