<svg data-name="Layer 1" xmlns="http://www.w3.org/2000/svg" viewBox="0 0 16 16"><defs><style>.cls-1{fill:#fcf5b6;}.cls-2{fill:none;}.cls-3{fill:#5b708b;}.cls-4{fill:#fff;}</style></defs><path class="cls-1" d="M14,1H1V14H14Z"/><rect class="cls-2" x="1" y="8" width="6" height="6"/><rect class="cls-2" x="1" y="1" width="6" height="6"/><rect class="cls-2" x="8" y="8" width="6" height="6"/><path class="cls-3" d="M0,0V15H15V0ZM14,7v7H1V1H14Z"/><rect class="cls-4" x="1" y="1" width="13" height="1"/><path class="cls-3" d="M3,7.12a1.07,1.07,0,0,0,.62-.2.85.85,0,0,0,.32-.51A5.19,5.19,0,0,0,4,5.31c0-.52,0-.87,0-1a1.92,1.92,0,0,1,.16-.63,1.19,1.19,0,0,1,.3-.39A1.31,1.31,0,0,1,5,3.05a2.81,2.81,0,0,1,.61,0h.28v.74H5.69A1,1,0,0,0,5,3.91a1.25,1.25,0,0,0-.17.79,12.5,12.5,0,0,1,0,1.55A1.66,1.66,0,0,1,4.48,7a1.73,1.73,0,0,1-.67.48,1.45,1.45,0,0,1,.79.66,3.21,3.21,0,0,1,.24,1.45c0,.61,0,1,0,1.08a.7.7,0,0,0,.2.45,1.15,1.15,0,0,0,.63.12h.16V12H5.57a2.37,2.37,0,0,1-.7-.07,1.3,1.3,0,0,1-.53-.35A1.42,1.42,0,0,1,4.07,11,8.7,8.7,0,0,1,4,9.75a5.59,5.59,0,0,0-.09-1.16.85.85,0,0,0-.32-.51A1,1,0,0,0,3,7.88Z"/><path class="cls-3" d="M12,7.12v.76a1,1,0,0,0-.62.2.86.86,0,0,0-.32.5A5.56,5.56,0,0,0,11,9.69c0,.52,0,.86,0,1a1.91,1.91,0,0,1-.17.63,1.06,1.06,0,0,1-.3.38A1.18,1.18,0,0,1,10,12a2.92,2.92,0,0,1-.62.05H9.13v-.74h.16a1,1,0,0,0,.68-.17,1.25,1.25,0,0,0,.17-.79,14.77,14.77,0,0,1,0-1.48A1.89,1.89,0,0,1,10.5,8a1.63,1.63,0,0,1,.67-.48,1.66,1.66,0,0,1-.8-.68,3.26,3.26,0,0,1-.23-1.43,10.51,10.51,0,0,0,0-1.09.59.59,0,0,0-.19-.44,1.15,1.15,0,0,0-.63-.12H9.13V3h.28a2.37,2.37,0,0,1,.7.07,1.15,1.15,0,0,1,.53.35,1.22,1.22,0,0,1,.27.61A10.07,10.07,0,0,1,11,5.25a5.81,5.81,0,0,0,.08,1.16.88.88,0,0,0,.32.51A1.09,1.09,0,0,0,12,7.12Z"/></svg>