<svg data-name="Layer 1" xmlns="http://www.w3.org/2000/svg" viewBox="0 0 16 16"><defs><style>.cls-1{fill:#666;}.cls-1,.cls-4{opacity:0.9;isolation:isolate;}.cls-2{fill:#fafafa;}.cls-3{fill:#fff;}.cls-4{fill:#ccc;}.cls-5{fill:#cf5e30;}.cls-6{fill:#3fa6d0;}.cls-7{fill:#f3ac80;}.cls-8{fill:none;}.cls-9{fill:#952e1f;}.cls-10{fill:#225b90;}.cls-11{fill:#919191;}</style></defs><polygon class="cls-1" points="12 0 2 0 2 16 15 16 15 3 12 0"/><polygon class="cls-2" points="3 15 3 1 11 1 11 4 14 4 14 15 3 15"/><polygon class="cls-3" points="12 1 12 3 14 3 12 1"/><rect class="cls-4" x="11" y="4" width="3" height="1"/><path class="cls-5" d="M1.45,6.77a4.1,4.1,0,0,1,1.05.87c.09.25.6,1,.7,1.27.32-.08.53-.41.75-.64a5,5,0,0,0,.63-.74c.39-.48.54-.8,1.18-.88a1.14,1.14,0,0,1,.58.15c.12.1.28.16.39.27s.17,0,.09-.26c-.22-.64-.36-1.27-.63-2L5.81,3.67a5.35,5.35,0,0,0-.54-1.1C5.19,2.43,5,2.09,4.8,2.1a.24.24,0,0,0-.14,0,3.15,3.15,0,0,0-.3.37S3.84,5.57,1.45,6.77Z"/><path class="cls-6" d="M4.48,2.52c-.41.54-1.1,1.49-1.2,1.54l-.16,0a1,1,0,0,0-.28.17,3,3,0,0,0-.4.47l-.31.44L.3,6s.66.4,1.27.82C1.57,6.77,3.26,6,4.48,2.52Z"/><path class="cls-7" d="M5.33,4.09c.08.68,0,1.23-.22,1.23s-.43-.52-.5-1.19,0-1.22.22-1.23S5.25,3.43,5.33,4.09Z"/><path class="cls-8" d="M4.1,3.18a4.06,4.06,0,0,1-1,1.15,1.15,1.15,0,0,0-.58.57,1.07,1.07,0,0,1-.15.22A5.25,5.25,0,0,1,.64,6l1.13.74.08,0,.06,0,0,0A3.5,3.5,0,0,1,3.32,8.62a5.64,5.64,0,0,0,.87-.89c.53-.64,1-1.21,1.5-1.24h.17a1.4,1.4,0,0,1,.69.24c-.15-.43-.34-1-.54-1.64,0,0-.85-2.61-1.19-2.74h0l-.07,0,.07,0C4.6,2.35,4.29,2.92,4.1,3.18Z"/><path class="cls-9" d="M7,6.94c-.17-.49-1.27-4.3-1.91-4.79l-.36.07,0,.09a.06.06,0,0,1,.06,0C5.15,2.45,6,5.05,6,5.05c.21.63.39,1.21.54,1.65a1.31,1.31,0,0,0-.68-.25c-.8,0-1.14.6-1.67,1.28a6.39,6.39,0,0,1-.87.93A3.61,3.61,0,0,0,1.84,6.77L1.59,7h0A3.34,3.34,0,0,1,3.12,9h0C3.84,9,5,6.6,5.84,6.73a2,2,0,0,1,.83.44C6.83,7.28,7.06,7.24,7,6.94Z"/><path class="cls-10" d="M4.88,2h0C4.2,2,3.5,3.76,2.93,4.07A1.89,1.89,0,0,0,2.1,5,11,11,0,0,1,0,5.9L1.59,7l.23-.16A4.79,4.79,0,0,0,3.23,5.4,11.63,11.63,0,0,0,4.57,2.6a1.41,1.41,0,0,1,.07-.15.2.2,0,0,1,.14-.14.77.77,0,0,1,.4-.07A.7.7,0,0,0,4.88,2ZM1.58,6.58.64,6A13.45,13.45,0,0,0,2,5.39l.55.43a5.5,5.5,0,0,1-1,.77ZM3,5.25a3.92,3.92,0,0,1-.25.32l-.47-.36a.24.24,0,0,0,.08-.09,1.07,1.07,0,0,0,.15-.22,1.15,1.15,0,0,1,.58-.57,3.35,3.35,0,0,0,.89-1A10.09,10.09,0,0,1,3,5.25Z"/><rect class="cls-11" x="9" y="8" width="1" height="6"/><rect class="cls-11" x="10" y="8" width="2" height="1"/><rect class="cls-11" x="10" y="11" width="2" height="1"/><rect class="cls-11" x="12" y="9" width="1" height="2"/></svg>