<svg data-name="Layer 1" xmlns="http://www.w3.org/2000/svg" viewBox="0 0 16 16"><defs><style>.cls-1{fill:#666;}.cls-1,.cls-4{opacity:0.9;isolation:isolate;}.cls-2{fill:#fafafa;}.cls-3{fill:#fff;}.cls-4{fill:#ccc;}.cls-5{fill:#919191;}.cls-6{fill:#cf5e30;}.cls-7{fill:#952e1f;}.cls-8{fill:#3fa6d0;}.cls-9{fill:#225b90;}</style></defs><polygon class="cls-1" points="12 0 2 0 2 16 15 16 15 3 12 0"/><polygon class="cls-2" points="3 15 3 1 11 1 11 4 14 4 14 15 3 15"/><polygon class="cls-3" points="12 1 12 3 14 3 12 1"/><rect class="cls-4" x="11" y="4" width="3" height="1"/><rect class="cls-5" x="8" y="5" width="3" height="1"/><rect class="cls-5" x="10" y="6" width="1" height="4"/><rect class="cls-6" x="8.5" y="9.5" width="4" height="4"/><path class="cls-7" d="M12,10v3H9V10h3m1-1H8v5h5V9Z"/><polygon class="cls-8" points="4.5 3.02 8.13 5.52 4.5 8.1 4.5 3.02"/><path class="cls-9" d="M5,4,7.26,5.53,5,7.13V4M4,2.07v7L9,5.51,4,2.07Z"/></svg>