<svg data-name="Layer 1" xmlns="http://www.w3.org/2000/svg" xmlns:xlink="http://www.w3.org/1999/xlink" viewBox="0 0 16 16"><defs><style>.cls-1{fill:none;}.cls-2{fill:#666;}.cls-18,.cls-2{opacity:0.9;isolation:isolate;}.cls-3{fill:#fafafa;}.cls-4{fill:#ffc43b;}.cls-5{fill:#e8b84e;}.cls-6{fill:#b7bc64;}.cls-7{fill:#7dbe7c;}.cls-8{fill:#14b7b1;}.cls-9{fill:#04aabc;}.cls-10{fill:#307fbf;}.cls-11{fill:#343084;}.cls-12{fill:#3ab59a;}.cls-13{clip-path:url(#clip-path-mlx);}.cls-14{fill:#adbc68;}.cls-15{fill:#f2ea0f;}.cls-16{fill:#3f56a4;}.cls-17{fill:#fff;}.cls-18{fill:#ccc;}.cls-19{fill:#919191;}.cls-20{fill:#cf5e30;}.cls-21{fill:#3fa6d0;}.cls-22{fill:#f3ac80;}.cls-23{fill:#952e1f;}.cls-24{fill:#225b90;}</style><clipPath id="clip-path-mlx"><rect class="cls-1" x="6" y="8" width="7" height="5"/></clipPath></defs><polygon class="cls-2" points="13 0 3 0 3 16 16 16 16 3 13 0"/><polygon class="cls-3" points="4 15 4 1 12 1 12 4 15 4 15 15 4 15"/><rect class="cls-4" x="6.64" y="8.63" width="0.64" height="0.63"/><rect class="cls-5" x="7.91" y="8.63" width="0.64" height="0.63"/><rect class="cls-6" x="8.55" y="8.63" width="0.64" height="0.63"/><rect class="cls-7" x="10.45" y="8.63" width="0.64" height="0.63"/><rect class="cls-8" x="11.09" y="8.63" width="0.64" height="0.63"/><rect class="cls-9" x="12.36" y="8.63" width="0.64" height="0.63"/><rect class="cls-4" x="6" y="9.5" width="0.64" height="0.63"/><rect class="cls-5" x="6.64" y="10.5" width="0.64" height="0.63"/><rect class="cls-6" x="7.91" y="10.5" width="0.64" height="0.63"/><rect class="cls-7" x="8.55" y="10.5" width="0.64" height="0.63"/><rect class="cls-8" x="10.45" y="10.5" width="0.64" height="0.63"/><rect class="cls-9" x="11.09" y="10.5" width="0.64" height="0.63"/><rect class="cls-10" x="12.36" y="10.5" width="0.64" height="0.63"/><rect class="cls-5" x="6" y="10.13" width="0.64" height="0.63"/><rect class="cls-6" x="6.64" y="11.13" width="0.64" height="0.63"/><rect class="cls-7" x="7.91" y="11.13" width="0.64" height="0.63"/><rect class="cls-8" x="8.55" y="11.13" width="0.64" height="0.63"/><rect class="cls-9" x="10.45" y="11.13" width="0.64" height="0.63"/><rect class="cls-10" x="11.09" y="11.13" width="0.64" height="0.63"/><rect class="cls-11" x="12.36" y="11.13" width="0.64" height="0.63"/><rect class="cls-6" x="6" y="10.75" width="0.64" height="0.63"/><rect class="cls-7" x="6.64" y="11.75" width="0.64" height="0.63"/><rect class="cls-8" x="7.91" y="11.75" width="0.64" height="0.63"/><rect class="cls-9" x="8.55" y="11.75" width="0.64" height="0.63"/><rect class="cls-10" x="10.45" y="11.75" width="0.64" height="0.63"/><rect class="cls-11" x="11.09" y="11.75" width="0.64" height="0.63"/><rect class="cls-11" x="12.36" y="11.75" width="0.64" height="0.63"/><rect class="cls-12" x="6" y="8" width="7" height="5"/><g class="cls-13"><ellipse class="cls-7" cx="8.18" cy="11.75" rx="2.64" ry="2.98" transform="translate(-5.65 8.03) rotate(-40.12)"/><ellipse class="cls-14" cx="8.18" cy="11.75" rx="1.98" ry="2.32" transform="translate(-5.72 8.3) rotate(-41.24)"/><ellipse class="cls-4" cx="8.18" cy="11.75" rx="1.32" ry="1.65" transform="translate(-5.78 8.58) rotate(-42.37)"/><ellipse class="cls-15" cx="8.18" cy="11.75" rx="0.66" ry="0.99" transform="translate(-5.84 8.86) rotate(-43.51)"/><ellipse class="cls-9" cx="10.78" cy="8.4" rx="1.85" ry="2.17" transform="translate(-2.86 9.18) rotate(-41.2)"/><ellipse class="cls-10" cx="10.78" cy="8.4" rx="1.24" ry="1.55" transform="translate(-2.85 9.46) rotate(-42.36)"/><ellipse class="cls-16" cx="10.77" cy="8.4" rx="0.62" ry="0.93" transform="translate(-2.82 9.72) rotate(-43.5)"/></g><polygon class="cls-17" points="13 1 13 3 15 3 13 1"/><rect class="cls-18" x="12" y="4" width="3" height="1"/><rect class="cls-19" x="6" y="4" width="4" height="1"/><polygon class="cls-19" points="11 7 8 7 7 6 11 6 11 7"/><path class="cls-20" d="M2.45,6.77a4.1,4.1,0,0,1,1,.87c.09.25.6,1,.7,1.27.32-.08.53-.41.75-.64a5,5,0,0,0,.63-.74c.39-.48.54-.8,1.18-.88a1.14,1.14,0,0,1,.58.15c.12.1.28.16.39.27s.17,0,.09-.26c-.22-.64-.36-1.27-.63-2L6.81,3.67a5.35,5.35,0,0,0-.54-1.1C6.19,2.43,6,2.09,5.8,2.1a.24.24,0,0,0-.14,0,3.15,3.15,0,0,0-.3.37S4.84,5.57,2.45,6.77Z"/><path class="cls-21" d="M5.48,2.52c-.41.54-1.1,1.49-1.2,1.54l-.16,0a1,1,0,0,0-.28.17,3,3,0,0,0-.4.47l-.31.44L1.3,6s.66.4,1.27.82C2.57,6.77,4.26,6,5.48,2.52Z"/><path class="cls-22" d="M6.33,4.09c.08.68,0,1.23-.22,1.23s-.43-.52-.5-1.19,0-1.22.22-1.23S6.25,3.43,6.33,4.09Z"/><path class="cls-1" d="M5.1,3.18a4.06,4.06,0,0,1-1,1.15,1.15,1.15,0,0,0-.58.57,1.07,1.07,0,0,1-.15.22A5.25,5.25,0,0,1,1.64,6l1.13.74.08,0,.06,0-.05,0A3.5,3.5,0,0,1,4.32,8.62a5.64,5.64,0,0,0,.87-.89c.53-.64,1-1.21,1.5-1.24h.17a1.4,1.4,0,0,1,.69.24c-.15-.43-.34-1-.54-1.64,0,0-.85-2.61-1.19-2.74h0l-.07,0,.07,0C5.6,2.35,5.29,2.92,5.1,3.18Z"/><path class="cls-23" d="M8,6.94c-.17-.49-1.27-4.3-1.91-4.79l-.36.07,0,.09a.06.06,0,0,1,.06,0C6.15,2.45,7,5.05,7,5.05c.21.63.39,1.21.54,1.65a1.31,1.31,0,0,0-.68-.25c-.8,0-1.14.6-1.67,1.28a6.39,6.39,0,0,1-.87.93A3.61,3.61,0,0,0,2.84,6.77L2.59,7h0A3.34,3.34,0,0,1,4.12,9h0C4.84,9,6,6.6,6.84,6.73a2,2,0,0,1,.83.44C7.83,7.28,8.06,7.24,8,6.94Z"/><path class="cls-24" d="M5.88,2h0C5.2,2,4.5,3.76,3.93,4.07A1.89,1.89,0,0,0,3.1,5,11,11,0,0,1,1,5.9L2.59,7l.23-.16A4.79,4.79,0,0,0,4.23,5.4,11.63,11.63,0,0,0,5.57,2.6a1.41,1.41,0,0,1,.07-.15.2.2,0,0,1,.14-.14.77.77,0,0,1,.4-.07A.7.7,0,0,0,5.88,2ZM2.58,6.58,1.64,6A13.45,13.45,0,0,0,3,5.39l.55.43a5.5,5.5,0,0,1-1,.77ZM4,5.25a3.92,3.92,0,0,1-.25.32l-.47-.36a.24.24,0,0,0,.08-.09,1.07,1.07,0,0,0,.15-.22,1.15,1.15,0,0,1,.58-.57,3.35,3.35,0,0,0,.89-1A10.09,10.09,0,0,1,4,5.25Z"/></svg>