<svg data-name="Layer 1" xmlns="http://www.w3.org/2000/svg" viewBox="0 0 16 16"><defs><style>.cls-1{fill:#666;}.cls-1,.cls-4{opacity:0.9;isolation:isolate;}.cls-2{fill:#fafafa;}.cls-3{fill:#fff;}.cls-4{fill:#ccc;}.cls-5{fill:#cf5e30;}.cls-6{fill:#3fa6d0;}.cls-7{fill:#f3ac80;}.cls-8{fill:none;}.cls-9{fill:#952e1f;}.cls-10{fill:#225b90;}</style></defs><polygon class="cls-1" points="12 0 2 0 2 16 15 16 15 3 12 0"/><polygon class="cls-2" points="3 15 3 1 11 1 11 4 14 4 14 15 3 15"/><polygon class="cls-3" points="12 1 12 3 14 3 12 1"/><rect class="cls-4" x="11" y="4" width="3" height="1"/><path class="cls-5" d="M5.86,10.45a5.22,5.22,0,0,1,1.35,1c.13.29.77,1.12.9,1.46.42-.09.69-.47,1-.73a6.48,6.48,0,0,0,.81-.85c.5-.55.7-.92,1.52-1a1.54,1.54,0,0,1,.74.16c.16.12.36.19.5.31s.22,0,.12-.29C12.49,9.77,12.3,9,12,8.22l-.48-1.31a7.13,7.13,0,0,0-.71-1.26c-.09-.16-.34-.55-.6-.54a.28.28,0,0,0-.18.06,5.09,5.09,0,0,0-.39.42A7.17,7.17,0,0,1,5.86,10.45Z"/><path class="cls-6" d="M9.76,5.59c-.53.62-1.42,1.71-1.55,1.77L8,7.4a.94.94,0,0,0-.35.2,3.79,3.79,0,0,0-.53.53l-.39.51-2.35.87s.84.46,1.63.94C6,10.45,8.19,9.62,9.76,5.59Z"/><path class="cls-7" d="M10.85,7.39c.1.77,0,1.4-.28,1.41S10,8.2,9.93,7.44s0-1.4.28-1.41S10.75,6.63,10.85,7.39Z"/><path class="cls-8" d="M9.27,6.35A4.84,4.84,0,0,1,8,7.66a1.46,1.46,0,0,0-.75.65A1.15,1.15,0,0,1,7,8.57a7.34,7.34,0,0,1-2.19,1l1.45.84.11,0,.07,0-.06,0a4.13,4.13,0,0,1,1.88,2.13,7.19,7.19,0,0,0,1.11-1c.69-.73,1.29-1.39,1.94-1.42h.21a1.83,1.83,0,0,1,.89.28c-.2-.5-.43-1.13-.69-1.88,0,0-1.1-3-1.53-3.13h-.06l-.08,0,.08,0C9.91,5.4,9.52,6.05,9.27,6.35Z"/><path class="cls-9" d="M13,10.65c-.21-.56-1.63-4.92-2.45-5.48l-.46.08,0,.11a.11.11,0,0,1,.08,0c.43.15,1.53,3.12,1.53,3.12.26.73.5,1.39.69,1.89a1.9,1.9,0,0,0-.88-.28c-1,0-1.46.68-2.15,1.46a7.54,7.54,0,0,1-1.12,1.06,4.2,4.2,0,0,0-1.89-2.15l-.33.2H6A3.88,3.88,0,0,1,8,13H8c.93,0,2.45-2.74,3.5-2.59a2.51,2.51,0,0,1,1.07.5C12.78,11,13.07,11,13,10.65Z"/><path class="cls-10" d="M10.27,5h-.06C9.4,5,8.5,7,7.76,7.37a2.22,2.22,0,0,0-1.06,1A14.36,14.36,0,0,1,4,9.46l2,1.2.3-.18A6.48,6.48,0,0,0,8.16,8.89,13.63,13.63,0,0,0,9.88,5.68L10,5.51a.35.35,0,0,1,.18-.16,1.13,1.13,0,0,1,.52-.07A.79.79,0,0,0,10.27,5ZM6,10.24,4.82,9.55a18.43,18.43,0,0,0,1.74-.68l.71.49A6.05,6.05,0,0,1,6,10.24Zm1.8-1.53a3.68,3.68,0,0,1-.32.37l-.6-.41a.47.47,0,0,0,.1-.1,1.15,1.15,0,0,0,.19-.26A1.46,1.46,0,0,1,8,7.66,4.06,4.06,0,0,0,9.09,6.58,10.47,10.47,0,0,1,7.83,8.71Z"/></svg>