<svg xmlns="http://www.w3.org/2000/svg" viewBox="0 0 16 16"><defs><style>.cls-1,.cls-2,.cls-5{isolation:isolate;}.cls-2{fill:#666;}.cls-2,.cls-5{opacity:0.9;}.cls-3{fill:#fafafa;}.cls-4{fill:#fff;}.cls-5{fill:#ccc;}.cls-6{fill:#919191;}.cls-7{fill:#cf5e30;}.cls-8{fill:#952e1f;}.cls-9{fill:#3fa6d0;}.cls-10{fill:#225b90;}.cls-11{fill:#b3b3b3;}.cls-12{fill:#4d4d4d;}.cls-13{fill:none;stroke:#4d4d4d;stroke-miterlimit:10;}.cls-14{fill:#1a1a1a;mix-blend-mode:multiply;}</style></defs><g class="cls-1"><g data-name="Layer 1"><polygon class="cls-2" points="12 0 2 0 2 16 15 16 15 3 12 0"/><polygon class="cls-3" points="3 15 3 1 11 1 11 4 14 4 14 15 3 15"/><polygon class="cls-4" points="12 1 12 3 14 3 12 1"/><rect class="cls-5" x="11" y="4" width="3" height="1"/><rect class="cls-6" x="8" y="5" width="3" height="1"/><rect class="cls-6" x="10" y="6" width="1" height="4"/><rect class="cls-7" x="8.5" y="9.5" width="4" height="4"/><path class="cls-8" d="M12,10v3H9V10h3m1-1H8v5h5V9Z"/><polygon class="cls-9" points="6.5 3.02 10.13 5.52 6.5 8.1 6.5 3.02"/><path class="cls-10" d="M7,4,9.26,5.53,7,7.13V4M6,2.07v7l5-3.56L6,2.07Z"/><rect class="cls-11" x="0.5" y="4.5" width="7" height="5" rx="0.84"/><path class="cls-12" d="M6.66,5A.34.34,0,0,1,7,5.34V8.66A.34.34,0,0,1,6.66,9H1.34A.34.34,0,0,1,1,8.66V5.34A.34.34,0,0,1,1.34,5H6.66m0-1H1.34A1.34,1.34,0,0,0,0,5.34V8.66A1.34,1.34,0,0,0,1.34,10H6.66A1.34,1.34,0,0,0,8,8.66V5.34A1.34,1.34,0,0,0,6.66,4Z"/><path class="cls-13" d="M2.5,5V2.67a1.09,1.09,0,0,1,1-1.17h1a1.09,1.09,0,0,1,1,1.17V5"/><rect class="cls-4" x="1" y="5" width="6" height="1"/><rect class="cls-14" x="3.5" y="7" width="1" height="2"/><rect class="cls-14" x="3" y="6" width="2" height="2" rx="1"/></g></g></svg>