<svg data-name="Layer 1" xmlns="http://www.w3.org/2000/svg" viewBox="0 0 16 16"><defs><style>.cls-1{fill:#fcfac5;}.cls-2{fill:#f0c031;}.cls-3{fill:#f0df77;}.cls-4{fill:#b28a3f;}</style></defs><polygon class="cls-1" points="7.5 1.08 1.78 3.48 7.5 6.44 13.31 3.52 7.5 1.08"/><polygon class="cls-2" points="8 7.31 8 14.56 14 11.13 14 4.29 8 7.31"/><polygon class="cls-3" points="7 7.3 1 4.2 1 11.13 7 14.56 7 7.3"/><path class="cls-4" d="M7.5,0,0,3v9l7.5,4L15,12V3Zm0,6.44-5.72-3L7.5,1.08l5.81,2.44ZM1,4.2,7,7.3v7.26L1,11.13ZM8,14.56V7.31l6-3v6.84Z"/></svg>