<svg data-name="Layer 1" xmlns="http://www.w3.org/2000/svg" viewBox="0 0 16 16"><defs><style>.cls-1{fill:#666;opacity:0.9;isolation:isolate;}.cls-2{fill:#fafafa;}</style></defs><path class="cls-1" d="M0,0V15H15V0ZM14,14H1V1H14Z"/><rect class="cls-2" x="1" y="1" width="13" height="13"/><path d="M5.49,5.19a4.62,4.62,0,0,1,1-2.28A2.78,2.78,0,0,1,8.29,2c.43,0,.75.28.74.48A.73.73,0,0,1,8.72,3a.23.23,0,0,1-.31,0,1.09,1.09,0,0,0-.77-.39c-.45,0-.84.54-1.2,2.64H7.83l-.25.36-1.23.12C6.12,6.92,6,7.57,5.71,8.83c-.43,2-.88,2.81-1.56,3.45A2.12,2.12,0,0,1,2.77,13c-.35,0-.77-.24-.77-.49A.77.77,0,0,1,2.34,12a.17.17,0,0,1,.24,0,1.27,1.27,0,0,0,.77.29.74.74,0,0,0,.53-.23c.16-.17.44-.65.86-2.85.28-1.55.45-2.48.65-3.6h-1l0-.13.37-.32Z"/><path d="M7.92,6.18C8.45,5.47,9,5,9.39,5s.5.43.78,1.24l.23.63C11.43,5.47,12,5,12.48,5a.5.5,0,0,1,.52.48.59.59,0,0,1-.48.52.26.26,0,0,1-.18-.11.37.37,0,0,0-.27-.13q-.29,0-.75.57a10.75,10.75,0,0,0-.79.92l.39,1.14c.24.72.42,1,.62,1s.49-.22.88-.65l.21.22c-.56.81-1.13,1.23-1.56,1.23s-.58-.33-.81-1L9.88,8.07c-1.09,1.59-1.66,2.15-2.24,2.15a.53.53,0,0,1-.56-.55.57.57,0,0,1,.49-.53.22.22,0,0,1,.19.11.45.45,0,0,0,.29.12c.35,0,.93-.66,1.71-1.71L9.34,6.47c-.19-.54-.3-.71-.42-.71s-.34.14-.77.65Z"/></svg>