<svg xmlns="http://www.w3.org/2000/svg" xmlns:xlink="http://www.w3.org/1999/xlink" viewBox="0 0 24 24"><defs><style>.cls-1{isolation:isolate;}.cls-2{fill:url(#radial-gradient);}.cls-3{mix-blend-mode:darken;}.cls-4{fill:none;}.cls-5{fill:url(#linear-gradient);}.cls-6,.cls-7{fill:#fff;}.cls-6{opacity:0.9;}.cls-7{opacity:0.3;}.cls-8{fill:#efaac1;}.cls-9{fill:#fbcf8d;}.cls-10{fill:#c0b399;}.cls-11{fill:url(#linear-gradient-2);}.cls-12{fill:url(#linear-gradient-3);}.cls-13{fill:url(#linear-gradient-4);}</style><radialGradient id="radial-gradient" cx="2.25" cy="0.75" r="25.93" gradientUnits="userSpaceOnUse"><stop offset="0.15" stop-color="#fff"/><stop offset="0.83" stop-color="#faec8b"/><stop offset="1" stop-color="#e7cd84"/></radialGradient><linearGradient id="linear-gradient" x1="10.5" x2="10.5" y2="21" gradientUnits="userSpaceOnUse"><stop offset="0.19" stop-color="#749cc1"/><stop offset="0.33" stop-color="#6d92b4"/><stop offset="0.94" stop-color="#52697f"/></linearGradient><linearGradient id="linear-gradient-2" x1="-134.1" y1="-52.29" x2="-134.1" y2="-48.89" gradientTransform="translate(152.09 -48.55) rotate(-45)" gradientUnits="userSpaceOnUse"><stop offset="0.04" stop-color="#e36790"/><stop offset="0.99" stop-color="#6c0e39"/></linearGradient><linearGradient id="linear-gradient-3" x1="-149.54" y1="-51.69" x2="-151.66" y2="-49.57" gradientTransform="translate(152.09 -48.55) rotate(-45)" gradientUnits="userSpaceOnUse"><stop offset="0.06" stop-color="#59595c"/><stop offset="0.98"/></linearGradient><linearGradient id="linear-gradient-4" x1="-142.87" y1="-52.29" x2="-142.87" y2="-48.89" gradientTransform="translate(152.09 -48.55) rotate(-45)" gradientUnits="userSpaceOnUse"><stop offset="0.06" stop-color="#be8548"/><stop offset="0.91" stop-color="#4b3012"/></linearGradient></defs><g class="cls-1"><g id="Layer_2" data-name="Layer 2"><g id="Icons"><g id="variableEdit_24"><path class="cls-2" d="M20,10H11V1h9Zm0,1H11v9h9ZM10,11H1v9h9ZM10,1H1v9h9Z"/><g class="cls-3"><rect class="cls-4" x="1" y="11" width="9" height="9"/><rect class="cls-4" x="11" y="0.99" width="9" height="9.01"/><rect class="cls-4" x="1" y="0.99" width="9" height="9.01"/><rect class="cls-4" x="11" y="11" width="9" height="9"/><path class="cls-5" d="M0,0V21H21V0ZM20,1v9H11V1ZM1,1h9v9H1ZM1,20V11h9v9Zm19,0H11V11h9Z"/><rect class="cls-6" x="1" y="1" width="9" height="1"/><rect class="cls-6" x="11" y="1" width="9" height="1"/><rect class="cls-7" x="10" y="1" width="1" height="1"/></g><rect class="cls-8" x="19.84" y="10.32" width="1.38" height="2.42" transform="translate(-2.14 17.9) rotate(-45)"/><rect class="cls-9" x="8.46" y="15.67" width="13.43" height="2.42" transform="translate(-7.49 15.68) rotate(-45)"/><polygon class="cls-10" points="11.29 22.49 8.66 23.42 9.57 20.78 11.29 22.49"/><rect class="cls-4" x="20.08" y="10.65" width="0.85" height="1.7" transform="translate(-2.13 17.85) rotate(-44.98)"/><polygon class="cls-11" points="21.6 8 19 10.6 19.6 11.2 20.2 10.6 21.4 11.8 20.8 12.4 21.4 13 24 10.4 21.6 8"/><rect class="cls-4" x="8.5" y="16.15" width="13.01" height="1.7" transform="translate(-7.63 15.6) rotate(-45.02)"/><polygon class="cls-12" points="9.1 23.01 9.8 21 9.2 20.4 8 24 11.6 22.8 11 22.2 9.1 23.01"/><polygon class="cls-13" points="9.2 20.4 9.8 21 19 11.8 20.2 13 11 22.2 11.6 22.8 21.4 13 20.8 12.4 19.6 11.2 19 10.6 9.2 20.4"/><rect class="cls-4" width="24" height="24"/></g></g></g></g></svg>