<!-- Copyright 2017 The MathWorks, Inc. -->

<svg class="warningImg" viewBox="0 0 14 14.5" xmlns="http://www.w3.org/2000/svg" xmlns:svg="http://www.w3.org/2000/svg">
    <path id="warning_triangle" fill="rgb(255, 161, 0)" d="M 9.41,2.05 C 9.41,2.05 11.79,6.99 11.79,6.99 11.79,6.99 13.74,11.30 13.74,11.30 14.51,14.01 12.80,14.68 10.29,14.68 10.29,14.68 3.71,14.68 3.71,14.68 1.31,14.68 -0.40,14.17 0.21,11.51 0.40,10.67 1.18,9.06 1.60,8.22 1.60,8.22 3.86,3.49 3.86,3.49 4.50,2.20 4.95,1.06 6.18,0.21 7.88,-0.35 8.64,0.67 9.41,2.05 Z M -3.55,13.30M 18.47,12.60"/>
    <rect id="top_bang" fill="white" x="6" y="3" width="2" height="6"/>
    <rect id="bottom_bang" fill="white" x="6" y="11" width="2" height="2"/>
</svg>