<svg id="Layer_1" data-name="Layer 1" xmlns="http://www.w3.org/2000/svg" viewBox="0 0 16 16"><rect x="-3" y="-3" width="22" height="22" rx="5" style="fill:none"/><path d="M1.88,11.58,4.63,4.42h1l2.93,7.16H7.5L6.66,9.41h-3l-.79,2.17ZM3.94,8.64H6.37l-.75-2c-.22-.6-.39-1.1-.5-1.49a9.67,9.67,0,0,1-.39,1.37Z" style="fill:#333"/><path d="M10,11.58H9.22V4.42h.88V7a1.72,1.72,0,0,1,1.42-.7,2.11,2.11,0,0,1,.9.19,1.92,1.92,0,0,1,.71.54,3,3,0,0,1,.43.84,3.62,3.62,0,0,1,.15,1.06A3,3,0,0,1,13.05,11a2.06,2.06,0,0,1-1.58.73A1.66,1.66,0,0,1,10,10.93ZM10,9a2.7,2.7,0,0,0,.26,1.35,1.26,1.26,0,0,0,2.12.17A2.26,2.26,0,0,0,12.82,9a2.32,2.32,0,0,0-.41-1.5,1.23,1.23,0,0,0-1-.48,1.27,1.27,0,0,0-1,.5A2.2,2.2,0,0,0,10,9Z" style="fill:#333"/><polyline points="0.5 10 0.5 13.5 15.5 13.5 15.5 10" style="fill:none;stroke:#333;stroke-miterlimit:10"/></svg>