G04*
G04 #@! TF.GenerationSoftware,Altium Limited,Altium Designer,24.2.2 (26)*
G04*
G04 Layer_Color=128*
%FSLAX44Y44*%
%MOMM*%
G71*
G04*
G04 #@! TF.SameCoordinates,3371D80B-0F78-471C-A55E-DE17B926B390*
G04*
G04*
G04 #@! TF.FilePolarity,Positive*
G04*
G01*
G75*
%ADD17C,1.0000*%
%ADD18R,1.3500X1.1500*%
%ADD21R,1.1500X1.3500*%
G04:AMPARAMS|DCode=36|XSize=0.65mm|YSize=1.25mm|CornerRadius=0.1625mm|HoleSize=0mm|Usage=FLASHONLY|Rotation=0.000|XOffset=0mm|YOffset=0mm|HoleType=Round|Shape=RoundedRectangle|*
%AMROUNDEDRECTD36*
21,1,0.6500,0.9250,0,0,0.0*
21,1,0.3250,1.2500,0,0,0.0*
1,1,0.3250,0.1625,-0.4625*
1,1,0.3250,-0.1625,-0.4625*
1,1,0.3250,-0.1625,0.4625*
1,1,0.3250,0.1625,0.4625*
%
%ADD36ROUNDEDRECTD36*%
%ADD42R,0.9000X1.3000*%
%ADD43R,1.3000X0.9000*%
G04:AMPARAMS|DCode=99|XSize=3.3mm|YSize=2.1mm|CornerRadius=0.525mm|HoleSize=0mm|Usage=FLASHONLY|Rotation=180.000|XOffset=0mm|YOffset=0mm|HoleType=Round|Shape=RoundedRectangle|*
%AMROUNDEDRECTD99*
21,1,3.3000,1.0500,0,0,180.0*
21,1,2.2500,2.1000,0,0,180.0*
1,1,1.0500,-1.1250,0.5250*
1,1,1.0500,1.1250,0.5250*
1,1,1.0500,1.1250,-0.5250*
1,1,1.0500,-1.1250,-0.5250*
%
%ADD99ROUNDEDRECTD99*%
G04:AMPARAMS|DCode=100|XSize=1mm|YSize=2.1mm|CornerRadius=0.25mm|HoleSize=0mm|Usage=FLASHONLY|Rotation=180.000|XOffset=0mm|YOffset=0mm|HoleType=Round|Shape=RoundedRectangle|*
%AMROUNDEDRECTD100*
21,1,1.0000,1.6000,0,0,180.0*
21,1,0.5000,2.1000,0,0,180.0*
1,1,0.5000,-0.2500,0.8000*
1,1,0.5000,0.2500,0.8000*
1,1,0.5000,0.2500,-0.8000*
1,1,0.5000,-0.2500,-0.8000*
%
%ADD100ROUNDEDRECTD100*%
%ADD102R,2.0000X1.8500*%
%ADD103R,1.3000X2.2000*%
G04:AMPARAMS|DCode=104|XSize=1.2mm|YSize=1.1mm|CornerRadius=0.275mm|HoleSize=0mm|Usage=FLASHONLY|Rotation=90.000|XOffset=0mm|YOffset=0mm|HoleType=Round|Shape=RoundedRectangle|*
%AMROUNDEDRECTD104*
21,1,1.2000,0.5500,0,0,90.0*
21,1,0.6500,1.1000,0,0,90.0*
1,1,0.5500,0.2750,0.3250*
1,1,0.5500,0.2750,-0.3250*
1,1,0.5500,-0.2750,-0.3250*
1,1,0.5500,-0.2750,0.3250*
%
%ADD104ROUNDEDRECTD104*%
G04:AMPARAMS|DCode=105|XSize=1.3mm|YSize=1.1mm|CornerRadius=0.275mm|HoleSize=0mm|Usage=FLASHONLY|Rotation=270.000|XOffset=0mm|YOffset=0mm|HoleType=Round|Shape=RoundedRectangle|*
%AMROUNDEDRECTD105*
21,1,1.3000,0.5500,0,0,270.0*
21,1,0.7500,1.1000,0,0,270.0*
1,1,0.5500,-0.2750,-0.3750*
1,1,0.5500,-0.2750,0.3750*
1,1,0.5500,0.2750,0.3750*
1,1,0.5500,0.2750,-0.3750*
%
%ADD105ROUNDEDRECTD105*%
G36*
X1030788Y491646D02*
X1031216Y490853D01*
X1031990Y489226D01*
X1032679Y487561D01*
X1033281Y485863D01*
X1033538Y485000D01*
X1020000D01*
Y480000D01*
X980000D01*
Y485000D01*
X966460D01*
X966459Y485000D01*
X966717Y485864D01*
X967320Y487563D01*
X968010Y489228D01*
X968784Y490855D01*
X969213Y491648D01*
X969213D01*
X969210Y491650D01*
X1030788D01*
Y491646D01*
D02*
G37*
G36*
X1020000Y465000D02*
X1033540D01*
X1033541Y465000D01*
X1033283Y464136D01*
X1032680Y462437D01*
X1031990Y460772D01*
X1031216Y459145D01*
X1030787Y458352D01*
D01*
Y458352D01*
Y458352D01*
X1030790Y458350D01*
X969212D01*
X969212Y458354D01*
X968783Y459147D01*
X968010Y460774D01*
X967321Y462439D01*
X966719Y464137D01*
X966462Y465000D01*
X966462Y465000D01*
X980000D01*
Y470000D01*
X1020000D01*
Y465000D01*
D02*
G37*
G36*
X1157750Y321631D02*
X1158075D01*
Y321306D01*
X1157750D01*
Y320982D01*
X1157426D01*
Y320658D01*
X1157750D01*
Y320334D01*
X1156778D01*
Y320010D01*
X1157102D01*
Y319686D01*
X1156778D01*
Y319361D01*
X1156454D01*
Y319686D01*
X1156130D01*
Y319361D01*
X1156454D01*
Y319037D01*
X1156130D01*
Y318713D01*
X1155806D01*
Y319037D01*
X1155481D01*
Y318713D01*
X1155806D01*
Y318389D01*
X1155481D01*
Y318065D01*
X1155157D01*
Y317741D01*
X1154833D01*
Y317416D01*
X1154509D01*
Y317092D01*
X1154185D01*
Y316768D01*
X1153860D01*
Y316444D01*
X1153536D01*
Y316120D01*
X1153212D01*
Y315796D01*
X1152888D01*
Y315471D01*
X1152564D01*
Y315147D01*
X1152240D01*
Y314823D01*
X1152564D01*
Y314499D01*
X1151591D01*
Y314175D01*
X1151916D01*
Y313851D01*
X1151267D01*
Y313526D01*
Y313202D01*
X1150943D01*
Y312878D01*
X1150619D01*
Y312554D01*
X1150295D01*
Y312230D01*
X1149970D01*
Y311906D01*
X1149646D01*
Y311581D01*
X1149322D01*
Y311257D01*
X1148998D01*
Y310933D01*
X1149322D01*
Y310609D01*
X1148350D01*
Y310285D01*
X1148674D01*
Y309961D01*
X1148350D01*
Y309636D01*
X1148026D01*
Y309961D01*
X1147701D01*
Y309636D01*
X1148026D01*
Y309312D01*
X1147701D01*
Y308988D01*
X1147377D01*
Y309312D01*
X1147053D01*
Y308988D01*
X1147377D01*
Y308664D01*
X1147053D01*
Y308340D01*
X1146729D01*
Y308664D01*
X1146405D01*
Y308340D01*
X1146729D01*
Y308016D01*
X1146405D01*
Y307691D01*
X1146080D01*
Y307367D01*
X1145756D01*
Y307043D01*
X1145432D01*
Y306719D01*
X1145108D01*
Y306395D01*
X1144784D01*
Y306071D01*
X1144460D01*
Y305747D01*
X1144136D01*
Y305422D01*
X1143811D01*
Y305098D01*
X1143487D01*
Y304774D01*
X1143163D01*
Y304450D01*
X1143487D01*
Y304126D01*
X1143163D01*
Y303801D01*
X1142839D01*
Y303477D01*
X1142515D01*
Y303153D01*
X1142191D01*
Y302829D01*
X1141866D01*
Y302505D01*
X1141542D01*
Y302181D01*
X1141218D01*
Y301857D01*
X1140894D01*
Y301532D01*
X1140570D01*
Y301208D01*
X1140246D01*
Y300884D01*
X1139921D01*
Y300560D01*
X1140246D01*
Y300236D01*
X1139273D01*
Y299912D01*
X1139597D01*
Y299587D01*
X1138625D01*
Y299263D01*
X1138949D01*
Y298939D01*
X1138625D01*
Y298615D01*
X1138301D01*
Y298939D01*
X1137976D01*
Y298615D01*
X1138301D01*
Y298291D01*
X1137976D01*
Y297967D01*
X1137652D01*
Y298291D01*
X1137328D01*
Y297967D01*
X1137652D01*
Y297642D01*
X1137328D01*
Y297318D01*
X1137004D01*
Y296994D01*
X1136680D01*
Y296670D01*
X1136356D01*
Y296346D01*
X1136031D01*
Y296022D01*
X1135707D01*
Y295697D01*
X1135383D01*
Y295373D01*
X1135059D01*
Y295049D01*
X1134735D01*
Y294725D01*
X1134411D01*
Y294401D01*
X1134086D01*
Y294077D01*
X1134411D01*
Y293752D01*
X1133762D01*
Y293428D01*
Y293104D01*
X1133438D01*
Y292780D01*
X1133114D01*
Y292456D01*
X1132790D01*
Y292132D01*
X1132466D01*
Y291807D01*
X1132141D01*
Y291483D01*
X1131817D01*
Y291159D01*
X1131493D01*
Y290835D01*
X1131169D01*
Y290511D01*
X1130845D01*
Y290187D01*
X1131169D01*
Y289862D01*
X1130196D01*
Y289538D01*
X1130521D01*
Y289214D01*
X1129548D01*
Y288890D01*
X1129872D01*
Y288566D01*
X1129548D01*
Y288242D01*
X1129224D01*
Y288566D01*
X1128900D01*
Y288242D01*
X1129224D01*
Y287917D01*
X1128900D01*
Y287593D01*
X1128576D01*
Y287917D01*
X1128251D01*
Y287593D01*
X1128576D01*
Y287269D01*
X1128251D01*
Y286945D01*
X1127927D01*
Y286621D01*
X1127603D01*
Y286297D01*
X1127279D01*
Y285972D01*
X1126955D01*
Y285648D01*
X1126631D01*
Y285324D01*
X1126307D01*
Y285000D01*
X1125982D01*
Y284676D01*
X1125658D01*
Y284352D01*
X1125334D01*
Y284028D01*
X1125010D01*
Y283703D01*
X1125334D01*
Y283379D01*
X1125010D01*
Y283055D01*
X1124686D01*
Y282731D01*
X1124361D01*
Y282407D01*
X1124037D01*
Y282083D01*
X1123713D01*
Y281758D01*
X1123389D01*
Y281434D01*
X1123065D01*
Y281110D01*
X1123389D01*
Y280786D01*
X1122417D01*
Y280462D01*
X1122741D01*
Y280138D01*
X1121768D01*
Y279813D01*
X1122092D01*
Y279489D01*
X1121768D01*
Y279165D01*
X1121444D01*
Y279489D01*
X1121120D01*
Y279165D01*
X1121444D01*
Y278841D01*
X1121120D01*
Y278517D01*
X1120796D01*
Y278841D01*
X1120471D01*
Y278517D01*
X1120796D01*
Y278193D01*
X1120471D01*
Y277868D01*
X1120147D01*
Y278193D01*
X1119823D01*
Y277868D01*
X1120147D01*
Y277544D01*
X1119823D01*
Y277220D01*
X1119499D01*
Y277544D01*
X1119175D01*
Y277220D01*
X1119499D01*
Y276896D01*
X1119175D01*
Y276572D01*
X1118851D01*
Y276248D01*
X1118527D01*
Y275923D01*
X1118202D01*
Y275599D01*
X1117878D01*
Y275275D01*
X1117554D01*
Y274951D01*
X1117230D01*
Y274627D01*
X1117554D01*
Y274303D01*
X1117230D01*
Y273978D01*
X1116906D01*
Y273654D01*
X1116581D01*
Y273330D01*
X1116257D01*
Y273006D01*
X1115933D01*
Y272682D01*
X1115609D01*
Y273006D01*
X1115285D01*
Y273330D01*
X1114961D01*
Y273654D01*
X1114637D01*
Y273978D01*
X1114312D01*
Y274303D01*
X1113988D01*
Y274627D01*
X1114312D01*
Y274951D01*
X1113340D01*
Y275275D01*
X1113664D01*
Y275599D01*
X1113340D01*
Y275923D01*
X1113016D01*
Y276248D01*
X1112691D01*
Y276572D01*
X1112367D01*
Y276896D01*
X1112043D01*
Y277220D01*
X1112367D01*
Y277544D01*
X1112043D01*
Y277868D01*
X1111719D01*
Y278193D01*
X1111395D01*
Y278517D01*
X1111719D01*
Y278841D01*
X1110747D01*
Y279165D01*
X1111071D01*
Y279489D01*
X1110747D01*
Y279813D01*
X1110422D01*
Y280138D01*
X1110098D01*
Y280462D01*
X1109774D01*
Y280786D01*
X1109450D01*
Y281110D01*
X1109774D01*
Y281434D01*
X1109450D01*
Y281758D01*
X1109126D01*
Y282083D01*
X1108802D01*
Y282407D01*
X1109126D01*
Y282731D01*
X1108802D01*
Y283055D01*
X1108477D01*
Y283379D01*
X1108153D01*
Y283703D01*
X1108477D01*
Y284028D01*
X1108153D01*
Y284352D01*
X1108477D01*
Y284676D01*
X1108802D01*
Y285000D01*
X1109126D01*
Y285324D01*
X1108802D01*
Y285648D01*
X1109126D01*
Y285972D01*
X1109450D01*
Y286297D01*
X1109774D01*
Y286621D01*
X1109450D01*
Y286945D01*
X1109774D01*
Y286621D01*
X1110098D01*
Y286945D01*
X1109774D01*
Y287269D01*
X1110098D01*
Y287593D01*
X1110422D01*
Y287917D01*
X1110747D01*
Y288242D01*
X1111071D01*
Y288566D01*
X1110747D01*
Y288890D01*
X1111071D01*
Y289214D01*
X1111395D01*
Y289538D01*
X1111719D01*
Y289862D01*
X1111395D01*
Y290187D01*
X1111719D01*
Y290511D01*
X1112043D01*
Y290835D01*
X1112367D01*
Y291159D01*
Y291483D01*
X1113016D01*
Y291807D01*
X1112691D01*
Y292132D01*
X1113016D01*
Y292456D01*
X1113340D01*
Y292780D01*
X1113664D01*
Y293104D01*
X1113340D01*
Y293428D01*
X1113664D01*
Y293752D01*
X1113988D01*
Y294077D01*
X1114312D01*
Y294401D01*
X1113988D01*
Y294725D01*
X1114312D01*
Y295049D01*
X1114637D01*
Y295373D01*
X1114961D01*
Y295697D01*
X1114637D01*
Y296022D01*
X1114961D01*
Y295697D01*
X1115285D01*
Y296022D01*
X1114961D01*
Y296346D01*
X1115285D01*
Y296670D01*
X1115609D01*
Y296994D01*
X1115933D01*
Y297318D01*
X1116257D01*
Y297642D01*
X1115933D01*
Y297967D01*
X1116257D01*
Y298291D01*
X1116581D01*
Y297967D01*
X1116906D01*
Y298291D01*
X1116581D01*
Y298615D01*
X1116906D01*
Y298939D01*
X1116581D01*
Y299263D01*
X1116906D01*
Y299587D01*
X1117230D01*
Y299912D01*
X1117554D01*
Y300236D01*
X1117230D01*
Y300560D01*
X1118202D01*
Y300884D01*
X1117878D01*
Y301208D01*
X1118202D01*
Y301532D01*
X1118527D01*
Y301857D01*
X1118851D01*
Y302181D01*
X1118527D01*
Y302505D01*
X1118851D01*
Y302829D01*
X1119175D01*
Y303153D01*
X1119499D01*
Y303477D01*
X1119175D01*
Y303801D01*
X1119499D01*
Y304126D01*
X1119823D01*
Y304450D01*
X1120147D01*
Y304774D01*
X1119823D01*
Y305098D01*
X1120147D01*
Y305422D01*
X1120471D01*
Y305747D01*
X1120796D01*
Y306071D01*
Y306395D01*
X1121444D01*
Y306719D01*
X1121120D01*
Y307043D01*
X1121444D01*
Y307367D01*
X1121120D01*
Y307691D01*
X1121444D01*
Y307367D01*
X1121768D01*
Y307691D01*
X1121444D01*
Y308016D01*
X1121768D01*
Y307691D01*
X1122092D01*
Y308016D01*
X1121768D01*
Y308340D01*
X1122092D01*
Y308664D01*
X1122417D01*
Y308988D01*
X1122741D01*
Y309312D01*
X1122417D01*
Y309636D01*
X1122741D01*
Y309961D01*
X1123065D01*
Y309636D01*
X1123389D01*
Y309961D01*
X1123065D01*
Y310285D01*
X1123389D01*
Y310609D01*
X1123065D01*
Y310933D01*
X1123389D01*
Y311257D01*
X1123713D01*
Y311581D01*
X1124037D01*
Y311906D01*
X1123713D01*
Y312230D01*
X1124037D01*
Y312554D01*
X1124361D01*
Y312230D01*
X1124686D01*
Y312554D01*
X1124361D01*
Y312878D01*
X1124686D01*
Y313202D01*
X1124361D01*
Y313526D01*
X1124686D01*
Y313851D01*
X1125010D01*
Y314175D01*
X1125334D01*
Y314499D01*
Y314823D01*
X1125982D01*
Y315147D01*
X1125658D01*
Y315471D01*
X1125982D01*
Y315796D01*
X1126307D01*
Y316120D01*
X1126631D01*
Y316444D01*
X1126307D01*
Y316768D01*
X1126631D01*
Y317092D01*
X1126955D01*
Y317416D01*
X1127279D01*
Y317741D01*
X1126955D01*
Y318065D01*
X1127279D01*
Y318389D01*
X1127603D01*
Y318713D01*
X1127927D01*
Y319037D01*
X1127603D01*
Y319361D01*
X1127927D01*
Y319686D01*
X1128251D01*
Y320010D01*
X1128576D01*
Y320334D01*
X1128251D01*
Y320658D01*
X1128576D01*
Y320982D01*
X1128900D01*
Y321306D01*
X1129872D01*
Y321631D01*
X1130196D01*
Y321306D01*
X1130521D01*
Y321631D01*
X1130845D01*
Y321306D01*
X1131169D01*
Y321631D01*
X1131493D01*
Y321306D01*
X1131817D01*
Y321631D01*
X1132141D01*
Y321306D01*
X1132466D01*
Y321631D01*
X1132790D01*
Y321306D01*
X1133114D01*
Y321631D01*
X1133438D01*
Y321306D01*
X1133762D01*
Y321631D01*
X1134086D01*
Y321306D01*
X1134411D01*
Y321631D01*
X1134735D01*
Y321306D01*
X1135059D01*
Y321631D01*
X1135383D01*
Y321306D01*
X1135707D01*
Y321631D01*
X1136031D01*
Y321306D01*
X1136356D01*
Y321631D01*
X1136680D01*
Y321306D01*
X1137004D01*
Y321631D01*
X1137328D01*
Y321306D01*
X1137652D01*
Y321631D01*
X1137976D01*
Y321306D01*
X1138301D01*
Y321631D01*
X1137976D01*
Y321955D01*
X1138301D01*
Y321631D01*
X1138625D01*
Y321306D01*
X1138949D01*
Y321631D01*
X1139273D01*
Y321306D01*
X1139597D01*
Y321631D01*
X1139273D01*
Y321955D01*
X1139597D01*
Y321631D01*
X1139921D01*
Y321306D01*
X1140246D01*
Y321631D01*
X1139921D01*
Y321955D01*
X1140246D01*
Y321631D01*
X1140570D01*
Y321306D01*
X1140894D01*
Y321631D01*
X1140570D01*
Y321955D01*
X1140894D01*
Y321631D01*
X1141218D01*
Y321306D01*
X1141542D01*
Y321631D01*
X1141218D01*
Y321955D01*
X1141542D01*
Y321631D01*
X1141866D01*
Y321306D01*
X1142191D01*
Y321631D01*
X1141866D01*
Y321955D01*
X1142191D01*
Y321631D01*
X1142515D01*
Y321306D01*
X1142839D01*
Y321631D01*
X1142515D01*
Y321955D01*
X1142839D01*
Y321631D01*
X1143163D01*
Y321306D01*
X1143487D01*
Y321631D01*
X1143163D01*
Y321955D01*
X1143487D01*
Y321631D01*
X1143811D01*
Y321306D01*
X1144136D01*
Y321631D01*
X1143811D01*
Y321955D01*
X1144136D01*
Y321631D01*
X1144460D01*
Y321306D01*
X1144784D01*
Y321631D01*
X1144460D01*
Y321955D01*
X1144784D01*
Y321631D01*
X1145108D01*
Y321306D01*
X1145432D01*
Y321631D01*
X1145108D01*
Y321955D01*
X1145432D01*
Y321631D01*
X1145756D01*
Y321955D01*
X1146080D01*
Y321631D01*
X1146405D01*
Y321306D01*
X1146729D01*
Y321631D01*
X1146405D01*
Y321955D01*
X1146729D01*
Y321631D01*
X1147053D01*
Y321955D01*
X1147377D01*
Y321631D01*
X1147701D01*
Y321306D01*
X1148026D01*
Y321631D01*
X1147701D01*
Y321955D01*
X1148026D01*
Y321631D01*
X1148350D01*
Y321955D01*
X1148674D01*
Y321631D01*
X1148998D01*
Y321306D01*
X1149322D01*
Y321631D01*
X1148998D01*
Y321955D01*
X1149322D01*
Y321631D01*
X1149646D01*
Y321955D01*
X1149970D01*
Y321631D01*
X1150295D01*
Y321306D01*
X1150619D01*
Y321631D01*
X1150295D01*
Y321955D01*
X1150619D01*
Y321631D01*
X1150943D01*
Y321955D01*
X1151267D01*
Y321631D01*
X1151591D01*
Y321306D01*
X1151916D01*
Y321631D01*
X1151591D01*
Y321955D01*
X1151916D01*
Y321631D01*
X1152240D01*
Y321955D01*
X1152564D01*
Y321631D01*
X1152888D01*
Y321306D01*
X1153212D01*
Y321631D01*
X1152888D01*
Y321955D01*
X1153212D01*
Y321631D01*
X1153536D01*
Y321955D01*
X1153860D01*
Y321631D01*
X1154185D01*
Y321306D01*
X1154509D01*
Y321631D01*
X1154185D01*
Y321955D01*
X1155157D01*
Y321631D01*
X1155481D01*
Y321306D01*
X1155806D01*
Y321631D01*
X1155481D01*
Y321955D01*
X1156454D01*
Y321631D01*
X1156778D01*
Y321955D01*
X1157750D01*
Y321631D01*
D02*
G37*
G36*
X1108477Y282731D02*
X1108153D01*
Y283055D01*
X1108477D01*
Y282731D01*
D02*
G37*
G36*
X1113016Y275599D02*
X1112691D01*
Y275923D01*
X1113016D01*
Y275599D01*
D02*
G37*
G36*
X1100049Y269764D02*
X1100373D01*
Y269440D01*
X1100697D01*
Y269116D01*
X1101022D01*
Y268792D01*
X1101346D01*
Y268468D01*
X1101670D01*
Y268143D01*
X1101994D01*
Y267819D01*
X1102318D01*
Y267495D01*
X1102642D01*
Y267171D01*
X1102967D01*
Y266847D01*
X1103291D01*
Y266523D01*
X1103615D01*
Y266198D01*
X1103939D01*
Y265874D01*
X1104263D01*
Y265550D01*
X1104587D01*
Y265226D01*
X1104912D01*
Y264902D01*
X1105236D01*
Y264578D01*
X1105560D01*
Y264253D01*
X1105884D01*
Y263929D01*
X1106208D01*
Y263605D01*
X1106532D01*
Y263281D01*
X1106208D01*
Y262957D01*
X1106532D01*
Y262633D01*
X1106208D01*
Y262309D01*
X1105884D01*
Y261984D01*
X1105560D01*
Y261660D01*
X1105236D01*
Y261336D01*
X1104912D01*
Y261012D01*
X1104587D01*
Y260688D01*
X1104263D01*
Y260364D01*
X1103939D01*
Y260039D01*
X1103615D01*
Y259715D01*
X1103291D01*
Y259391D01*
X1102967D01*
Y259067D01*
X1102642D01*
Y258743D01*
X1102318D01*
Y258419D01*
X1101994D01*
Y258094D01*
X1101670D01*
Y257770D01*
X1101346D01*
Y257446D01*
X1101022D01*
Y257122D01*
X1100697D01*
Y256798D01*
X1100373D01*
Y256474D01*
X1100697D01*
Y256149D01*
X1099725D01*
Y255825D01*
X1100049D01*
Y255501D01*
X1099077D01*
Y255177D01*
X1099401D01*
Y254853D01*
X1098428D01*
Y254529D01*
X1098753D01*
Y254204D01*
X1097780D01*
Y253880D01*
X1098104D01*
Y253556D01*
X1097780D01*
Y253232D01*
X1097456D01*
Y252908D01*
X1096483D01*
Y252584D01*
X1096807D01*
Y252259D01*
X1096483D01*
Y251935D01*
X1096159D01*
Y251611D01*
X1095511D01*
Y251287D01*
Y250963D01*
X1095187D01*
Y250639D01*
X1094863D01*
Y250314D01*
X1094538D01*
Y249990D01*
X1094214D01*
Y249666D01*
X1093890D01*
Y249342D01*
X1093566D01*
Y249018D01*
X1093242D01*
Y248694D01*
X1092917D01*
Y248369D01*
X1092593D01*
Y248045D01*
X1092269D01*
Y247721D01*
X1091945D01*
Y247397D01*
X1091621D01*
Y247073D01*
X1091297D01*
Y246749D01*
X1090973D01*
Y246424D01*
X1090648D01*
Y246100D01*
X1090324D01*
Y245776D01*
X1090000D01*
Y245452D01*
X1089676D01*
Y245128D01*
X1089352D01*
Y244804D01*
X1089027D01*
Y244479D01*
X1088703D01*
Y244155D01*
X1088379D01*
Y243831D01*
X1088055D01*
Y243507D01*
X1087731D01*
Y243183D01*
X1087407D01*
Y242859D01*
X1087083D01*
Y242534D01*
X1086758D01*
Y242210D01*
X1086434D01*
Y241886D01*
X1086110D01*
Y241562D01*
X1085786D01*
Y241238D01*
X1084813D01*
Y240914D01*
X1085137D01*
Y240589D01*
X1084813D01*
Y240265D01*
X1084489D01*
Y239941D01*
X1083517D01*
Y239617D01*
X1083841D01*
Y239293D01*
X1082868D01*
Y238969D01*
X1082544D01*
Y238644D01*
X1082220D01*
Y238320D01*
X1081896D01*
Y237996D01*
X1081572D01*
Y237672D01*
X1081247D01*
Y237348D01*
X1080923D01*
Y237024D01*
X1080599D01*
Y236699D01*
X1080275D01*
Y236375D01*
X1079951D01*
Y236051D01*
X1079627D01*
Y235727D01*
X1079303D01*
Y235403D01*
X1078978D01*
Y235079D01*
X1078654D01*
Y234754D01*
X1078330D01*
Y234430D01*
X1078006D01*
Y234754D01*
X1077682D01*
Y234430D01*
X1078006D01*
Y234106D01*
X1077682D01*
Y233782D01*
X1077358D01*
Y234106D01*
X1077033D01*
Y233782D01*
X1077358D01*
Y233458D01*
X1076385D01*
Y233134D01*
X1076709D01*
Y232809D01*
X1075737D01*
Y232485D01*
X1075413D01*
Y232161D01*
X1075088D01*
Y232485D01*
X1074764D01*
Y232809D01*
X1074440D01*
Y233134D01*
X1074764D01*
Y233458D01*
X1074440D01*
Y233782D01*
X1074764D01*
Y233458D01*
X1075088D01*
Y233782D01*
X1074764D01*
Y234106D01*
X1075088D01*
Y234430D01*
X1075413D01*
Y234754D01*
X1075737D01*
Y235079D01*
X1076061D01*
Y235403D01*
X1075737D01*
Y235727D01*
X1076709D01*
Y236051D01*
X1076385D01*
Y236375D01*
X1076709D01*
Y236699D01*
X1077033D01*
Y236375D01*
X1077358D01*
Y236699D01*
X1077033D01*
Y237024D01*
X1077358D01*
Y237348D01*
X1077682D01*
Y237672D01*
X1078006D01*
Y237996D01*
X1077682D01*
Y238320D01*
X1078006D01*
Y238644D01*
X1078330D01*
Y238969D01*
X1078654D01*
Y239293D01*
X1078978D01*
Y239617D01*
X1079303D01*
Y239941D01*
Y240265D01*
X1079951D01*
Y240589D01*
X1079627D01*
Y240914D01*
X1079951D01*
Y241238D01*
X1080275D01*
Y240914D01*
X1080599D01*
Y241238D01*
X1080275D01*
Y241562D01*
X1080599D01*
Y241886D01*
X1080923D01*
Y242210D01*
X1081247D01*
Y242534D01*
X1080923D01*
Y242859D01*
X1081247D01*
Y242534D01*
X1081572D01*
Y242859D01*
X1081247D01*
Y243183D01*
X1081572D01*
Y243507D01*
X1081896D01*
Y243831D01*
X1082220D01*
Y244155D01*
X1082544D01*
Y244479D01*
X1082868D01*
Y244804D01*
X1083193D01*
Y245128D01*
X1082868D01*
Y245452D01*
X1083193D01*
Y245776D01*
X1083517D01*
Y245452D01*
X1083841D01*
Y245776D01*
X1083517D01*
Y246100D01*
X1083841D01*
Y246424D01*
X1084165D01*
Y246749D01*
X1084489D01*
Y247073D01*
X1084813D01*
Y247397D01*
X1085137D01*
Y247721D01*
X1084813D01*
Y248045D01*
X1085137D01*
Y248369D01*
X1085462D01*
Y248694D01*
X1085786D01*
Y249018D01*
X1086110D01*
Y249342D01*
X1086434D01*
Y249666D01*
X1086110D01*
Y249990D01*
X1087083D01*
Y250314D01*
X1086758D01*
Y250639D01*
X1087083D01*
Y250963D01*
X1087407D01*
Y251287D01*
X1087731D01*
Y251611D01*
X1088055D01*
Y251935D01*
Y252259D01*
Y252584D01*
X1088379D01*
Y252908D01*
X1088703D01*
Y253232D01*
X1089027D01*
Y253556D01*
Y253880D01*
X1089676D01*
Y254204D01*
X1089352D01*
Y254529D01*
X1089676D01*
Y254853D01*
X1090000D01*
Y254529D01*
X1090324D01*
Y254853D01*
X1090000D01*
Y255177D01*
X1090324D01*
Y255501D01*
X1090648D01*
Y255825D01*
X1090973D01*
Y256149D01*
X1090648D01*
Y256474D01*
X1090973D01*
Y256798D01*
X1091297D01*
Y257122D01*
X1091621D01*
Y257446D01*
X1091945D01*
Y257770D01*
X1092269D01*
Y258094D01*
X1091945D01*
Y258419D01*
X1092269D01*
Y258743D01*
X1092593D01*
Y259067D01*
X1092917D01*
Y259391D01*
X1093242D01*
Y259715D01*
X1093566D01*
Y260039D01*
X1093242D01*
Y260364D01*
X1093566D01*
Y260688D01*
X1093890D01*
Y261012D01*
X1094214D01*
Y261336D01*
X1094538D01*
Y261660D01*
X1094863D01*
Y261984D01*
X1094538D01*
Y262309D01*
X1094863D01*
Y262633D01*
X1095187D01*
Y262957D01*
X1095511D01*
Y263281D01*
X1095835D01*
Y263605D01*
X1096159D01*
Y263929D01*
X1095835D01*
Y264253D01*
X1096159D01*
Y264578D01*
X1096483D01*
Y264902D01*
X1096807D01*
Y265226D01*
Y265550D01*
X1097456D01*
Y265874D01*
X1097132D01*
Y266198D01*
X1097456D01*
Y266523D01*
X1097780D01*
Y266847D01*
X1098104D01*
Y267171D01*
X1097780D01*
Y267495D01*
X1098104D01*
Y267171D01*
X1098428D01*
Y267495D01*
X1098104D01*
Y267819D01*
X1098428D01*
Y268143D01*
X1098753D01*
Y268468D01*
X1099077D01*
Y268792D01*
X1099401D01*
Y269116D01*
X1099077D01*
Y269440D01*
X1099401D01*
Y269764D01*
X1099725D01*
Y269440D01*
X1100049D01*
Y269764D01*
X1099725D01*
Y270088D01*
X1100049D01*
Y269764D01*
D02*
G37*
G36*
X1101346Y269116D02*
X1101022D01*
Y269440D01*
X1101346D01*
Y269116D01*
D02*
G37*
G36*
X1102642Y267819D02*
X1102318D01*
Y268143D01*
X1102642D01*
Y267819D01*
D02*
G37*
G36*
X1103939Y266523D02*
X1103615D01*
Y266847D01*
X1103939D01*
Y266523D01*
D02*
G37*
G36*
X1074764Y232161D02*
X1074440D01*
Y232485D01*
X1074764D01*
Y232161D01*
D02*
G37*
G36*
X530788Y141645D02*
X531216Y140853D01*
X531990Y139226D01*
X532678Y137561D01*
X533281Y135863D01*
X533538Y135000D01*
X520000D01*
Y130000D01*
X480000D01*
Y135000D01*
X466460D01*
X466459Y135000D01*
X466716Y135864D01*
X467320Y137563D01*
X468010Y139228D01*
X468784Y140855D01*
X469213Y141648D01*
X469213D01*
X469210Y141650D01*
X530788D01*
Y141645D01*
D02*
G37*
G36*
X520000Y115000D02*
X533540D01*
X533541Y115000D01*
X533283Y114136D01*
X532680Y112437D01*
X531990Y110772D01*
X531216Y109144D01*
X530787Y108352D01*
D01*
Y108352D01*
Y108352D01*
X530790Y108350D01*
X469212D01*
X469212Y108354D01*
X468783Y109147D01*
X468010Y110774D01*
X467321Y112439D01*
X466719Y114137D01*
X466462Y115000D01*
X466462Y115000D01*
X480000D01*
Y120000D01*
X520000D01*
Y115000D01*
D02*
G37*
%LPC*%
G36*
X1105236Y264578D02*
X1104912D01*
Y264253D01*
X1105236D01*
Y264578D01*
D02*
G37*
%LPD*%
D17*
X270000Y395000D02*
D03*
X230000D02*
D03*
X641250Y475000D02*
D03*
X625000Y430000D02*
D03*
X689236Y419581D02*
D03*
X830000Y370000D02*
D03*
D18*
X647935Y422065D02*
D03*
Y440565D02*
D03*
X667935Y422065D02*
D03*
Y440565D02*
D03*
X395000Y204250D02*
D03*
Y185750D02*
D03*
X405000Y135750D02*
D03*
Y154250D02*
D03*
X425003Y135751D02*
D03*
Y154250D02*
D03*
X445000Y135750D02*
D03*
Y154250D02*
D03*
X1400000Y435750D02*
D03*
Y454250D02*
D03*
X100000Y164250D02*
D03*
Y145750D02*
D03*
X1465000Y454250D02*
D03*
Y435750D02*
D03*
X35000Y145750D02*
D03*
Y164250D02*
D03*
X1420000Y454250D02*
D03*
Y435750D02*
D03*
X80000Y145750D02*
D03*
Y164250D02*
D03*
X1445000Y454250D02*
D03*
Y435750D02*
D03*
X55000Y145750D02*
D03*
Y164250D02*
D03*
D21*
X814250Y229997D02*
D03*
X795750D02*
D03*
X814250Y250000D02*
D03*
X795750D02*
D03*
X995750Y115000D02*
D03*
X1014250D02*
D03*
X415750Y225000D02*
D03*
X434250D02*
D03*
X1419250Y395000D02*
D03*
X1400750D02*
D03*
X80750Y185000D02*
D03*
X99250D02*
D03*
X1464250Y415000D02*
D03*
X1445750D02*
D03*
X35750Y185000D02*
D03*
X54250D02*
D03*
X1360750Y350004D02*
D03*
X1379250D02*
D03*
X139250Y250000D02*
D03*
X120750D02*
D03*
X1360750Y330000D02*
D03*
X1379250D02*
D03*
X139250Y275000D02*
D03*
X120750D02*
D03*
X1379250Y370000D02*
D03*
X1360750D02*
D03*
X120750Y230000D02*
D03*
X139250D02*
D03*
X1360750Y310005D02*
D03*
X1379250D02*
D03*
X139250Y295000D02*
D03*
X120750D02*
D03*
X1129500Y407709D02*
D03*
X1148000D02*
D03*
X1129500Y427709D02*
D03*
X1148000D02*
D03*
X1094500Y407709D02*
D03*
X1113000D02*
D03*
X1078000Y477709D02*
D03*
X1059500D02*
D03*
X1078000Y457709D02*
D03*
X1059500D02*
D03*
X1112250Y477709D02*
D03*
X1093750D02*
D03*
D36*
X425000Y175750D02*
D03*
X434500Y204250D02*
D03*
X415500D02*
D03*
X1138750Y448459D02*
D03*
X1148250Y476959D02*
D03*
X1129250D02*
D03*
X1068750Y436959D02*
D03*
X1059250Y408459D02*
D03*
X1078250D02*
D03*
X630000Y130750D02*
D03*
X639500Y159250D02*
D03*
X620500D02*
D03*
D42*
X995500Y135000D02*
D03*
X1014500D02*
D03*
X1400500Y415000D02*
D03*
X1419500D02*
D03*
X99500Y205000D02*
D03*
X80500D02*
D03*
X701500Y315000D02*
D03*
X678500D02*
D03*
X728500Y330000D02*
D03*
X751500D02*
D03*
X749501Y349983D02*
D03*
X730501D02*
D03*
X749500Y370000D02*
D03*
X730500D02*
D03*
X666500Y195000D02*
D03*
X643500D02*
D03*
X678500Y195000D02*
D03*
X701500D02*
D03*
X578500Y435000D02*
D03*
X601500D02*
D03*
X580500Y455000D02*
D03*
X599500D02*
D03*
D43*
X1400000Y369000D02*
D03*
Y350000D02*
D03*
X100000Y230500D02*
D03*
Y249500D02*
D03*
X725000Y208500D02*
D03*
Y231500D02*
D03*
X764996Y175499D02*
D03*
Y194499D02*
D03*
X745000Y175500D02*
D03*
Y194500D02*
D03*
X720000Y278500D02*
D03*
Y301500D02*
D03*
X700000Y299500D02*
D03*
Y280500D02*
D03*
X680000Y299500D02*
D03*
Y280500D02*
D03*
X780000Y351500D02*
D03*
Y328500D02*
D03*
X800000Y330500D02*
D03*
Y349500D02*
D03*
X820000Y330500D02*
D03*
Y349500D02*
D03*
X750000Y409500D02*
D03*
Y390500D02*
D03*
X730000Y409500D02*
D03*
Y390500D02*
D03*
X780000Y301500D02*
D03*
Y278500D02*
D03*
X819983Y280500D02*
D03*
Y299500D02*
D03*
X800000Y280500D02*
D03*
Y299500D02*
D03*
X475000Y374500D02*
D03*
Y355500D02*
D03*
X590000Y394500D02*
D03*
Y375500D02*
D03*
X695000Y229500D02*
D03*
Y210500D02*
D03*
X670000Y229500D02*
D03*
Y210500D02*
D03*
X475000Y458500D02*
D03*
Y481500D02*
D03*
D99*
X525000Y333500D02*
D03*
D100*
X548000Y396500D02*
D03*
X525000D02*
D03*
X502000D02*
D03*
D102*
X845000Y325750D02*
D03*
Y354250D02*
D03*
D103*
X656683Y173933D02*
D03*
X713250Y121000D02*
D03*
X501683Y476433D02*
D03*
X558250Y423500D02*
D03*
D104*
X1093250Y425959D02*
D03*
X1114250D02*
D03*
X1114250Y459459D02*
D03*
X1093250D02*
D03*
D105*
X617500Y475000D02*
D03*
X582500D02*
D03*
M02*
