G04*
G04 #@! TF.GenerationSoftware,Altium Limited,Altium Designer,24.2.2 (26)*
G04*
G04 Layer_Physical_Order=3*
G04 Layer_Color=16440176*
%FSLAX44Y44*%
%MOMM*%
G71*
G04*
G04 #@! TF.SameCoordinates,A862A385-CF78-4CD3-9DD8-6C5939F40788*
G04*
G04*
G04 #@! TF.FilePolarity,Positive*
G04*
G01*
G75*
%ADD17C,0.5000*%
%ADD18C,1.0000*%
%ADD83C,0.5000*%
%ADD84C,2.0000*%
%ADD86C,1.6500*%
G04:AMPARAMS|DCode=87|XSize=1.65mm|YSize=1.65mm|CornerRadius=0.4125mm|HoleSize=0mm|Usage=FLASHONLY|Rotation=180.000|XOffset=0mm|YOffset=0mm|HoleType=Round|Shape=RoundedRectangle|*
%AMROUNDEDRECTD87*
21,1,1.6500,0.8250,0,0,180.0*
21,1,0.8250,1.6500,0,0,180.0*
1,1,0.8250,-0.4125,0.4125*
1,1,0.8250,0.4125,0.4125*
1,1,0.8250,0.4125,-0.4125*
1,1,0.8250,-0.4125,-0.4125*
%
%ADD87ROUNDEDRECTD87*%
%ADD88C,0.7000*%
%ADD89C,1.6000*%
G04:AMPARAMS|DCode=90|XSize=1.6mm|YSize=1.6mm|CornerRadius=0.4mm|HoleSize=0mm|Usage=FLASHONLY|Rotation=0.000|XOffset=0mm|YOffset=0mm|HoleType=Round|Shape=RoundedRectangle|*
%AMROUNDEDRECTD90*
21,1,1.6000,0.8000,0,0,0.0*
21,1,0.8000,1.6000,0,0,0.0*
1,1,0.8000,0.4000,-0.4000*
1,1,0.8000,-0.4000,-0.4000*
1,1,0.8000,-0.4000,0.4000*
1,1,0.8000,0.4000,0.4000*
%
%ADD90ROUNDEDRECTD90*%
%ADD91O,1.5000X1.2500*%
%ADD92C,2.0000*%
G04:AMPARAMS|DCode=93|XSize=2mm|YSize=2mm|CornerRadius=0.5mm|HoleSize=0mm|Usage=FLASHONLY|Rotation=90.000|XOffset=0mm|YOffset=0mm|HoleType=Round|Shape=RoundedRectangle|*
%AMROUNDEDRECTD93*
21,1,2.0000,1.0000,0,0,90.0*
21,1,1.0000,2.0000,0,0,90.0*
1,1,1.0000,0.5000,0.5000*
1,1,1.0000,0.5000,-0.5000*
1,1,1.0000,-0.5000,-0.5000*
1,1,1.0000,-0.5000,0.5000*
%
%ADD93ROUNDEDRECTD93*%
%ADD94C,1.8750*%
%ADD95C,0.6750*%
%ADD96C,1.3000*%
%ADD97C,1.0000*%
G36*
X1500000Y100000D02*
X0D01*
Y500000D01*
X1500000D01*
Y100000D01*
D02*
G37*
%LPC*%
G36*
X49420Y495990D02*
X49270D01*
Y486470D01*
X58790D01*
Y486620D01*
X58055Y489365D01*
X56634Y491825D01*
X54625Y493834D01*
X52165Y495255D01*
X49420Y495990D01*
D02*
G37*
G36*
X46730D02*
X46579D01*
X43835Y495255D01*
X41375Y493834D01*
X39366Y491825D01*
X37945Y489365D01*
X37210Y486620D01*
Y486470D01*
X46730D01*
Y495990D01*
D02*
G37*
G36*
X751018Y492685D02*
X748912D01*
X746877Y492140D01*
X745053Y491087D01*
X743563Y489597D01*
X742510Y487773D01*
X741965Y485738D01*
Y483632D01*
X742189Y482797D01*
X741152Y481760D01*
X739080Y482315D01*
X735920D01*
X732868Y481497D01*
X730132Y479917D01*
X727898Y477683D01*
X726318Y474947D01*
X725657Y472482D01*
X724343D01*
X723682Y474947D01*
X722102Y477683D01*
X719868Y479917D01*
X717132Y481497D01*
X714080Y482315D01*
X710920D01*
X707868Y481497D01*
X705132Y479917D01*
X702898Y477683D01*
X701318Y474947D01*
X700500Y471895D01*
Y468735D01*
X701318Y465683D01*
X702898Y462947D01*
X705132Y460713D01*
X707868Y459133D01*
X710333Y458472D01*
Y457158D01*
X707868Y456497D01*
X705132Y454917D01*
X702898Y452683D01*
X701318Y449947D01*
X700500Y446895D01*
Y443735D01*
X701318Y440683D01*
X702898Y437947D01*
X705132Y435713D01*
X707868Y434133D01*
X710920Y433315D01*
X714080D01*
X717132Y434133D01*
X719868Y435713D01*
X722102Y437947D01*
X723682Y440683D01*
X724343Y443148D01*
X725657D01*
X726318Y440683D01*
X727898Y437947D01*
X730132Y435713D01*
X732868Y434133D01*
X735920Y433315D01*
X739080D01*
X742132Y434133D01*
X744868Y435713D01*
X747102Y437947D01*
X748682Y440683D01*
X749343Y443148D01*
X750657D01*
X751318Y440683D01*
X752898Y437947D01*
X755132Y435713D01*
X757868Y434133D01*
X760920Y433315D01*
X764080D01*
X767132Y434133D01*
X769868Y435713D01*
X772102Y437947D01*
X773682Y440683D01*
X774343Y443148D01*
X775657D01*
X776318Y440683D01*
X777898Y437947D01*
X780132Y435713D01*
X782868Y434133D01*
X785920Y433315D01*
X789080D01*
X792132Y434133D01*
X794868Y435713D01*
X797102Y437947D01*
X798682Y440683D01*
X799500Y443735D01*
Y446895D01*
X798682Y449947D01*
X797102Y452683D01*
X794868Y454917D01*
X792132Y456497D01*
X790313Y456985D01*
X790480Y458255D01*
X792500D01*
X794327Y458495D01*
X796030Y459201D01*
X797493Y460322D01*
X798615Y461785D01*
X799320Y463488D01*
X799560Y465315D01*
Y475315D01*
X799320Y477142D01*
X798615Y478845D01*
X797493Y480308D01*
X796030Y481429D01*
X794327Y482135D01*
X792500Y482375D01*
X782500D01*
X780673Y482135D01*
X778970Y481429D01*
X777507Y480308D01*
X776385Y478845D01*
X775680Y477142D01*
X775440Y475315D01*
Y473295D01*
X774170Y473128D01*
X773682Y474947D01*
X772102Y477683D01*
X769868Y479917D01*
X767132Y481497D01*
X764080Y482315D01*
X760920D01*
X758773Y481740D01*
X757736Y482777D01*
X757965Y483632D01*
Y485738D01*
X757420Y487773D01*
X756367Y489597D01*
X754877Y491087D01*
X753053Y492140D01*
X751018Y492685D01*
D02*
G37*
G36*
X1101270Y484929D02*
Y481270D01*
X1104929D01*
X1104273Y482855D01*
X1102855Y484273D01*
X1101270Y484929D01*
D02*
G37*
G36*
X1098730D02*
X1097145Y484273D01*
X1095727Y482855D01*
X1095071Y481270D01*
X1098730D01*
Y484929D01*
D02*
G37*
G36*
X1330895Y484501D02*
X1329105D01*
X1327451Y483815D01*
X1326185Y482550D01*
X1325500Y480896D01*
Y479105D01*
X1326185Y477452D01*
X1327451Y476186D01*
X1329105Y475501D01*
X1330895D01*
X1332549Y476186D01*
X1333815Y477452D01*
X1334500Y479105D01*
Y480896D01*
X1333815Y482550D01*
X1332549Y483815D01*
X1330895Y484501D01*
D02*
G37*
G36*
X1104929Y478730D02*
X1101270D01*
Y475071D01*
X1102855Y475727D01*
X1104273Y477145D01*
X1104929Y478730D01*
D02*
G37*
G36*
X1098730D02*
X1095071D01*
X1095727Y477145D01*
X1097145Y475727D01*
X1098730Y475071D01*
Y478730D01*
D02*
G37*
G36*
X328749Y495450D02*
X326051D01*
X323444Y494752D01*
X321106Y493402D01*
X319198Y491494D01*
X317848Y489156D01*
X317150Y486549D01*
Y483851D01*
X317848Y481244D01*
X319198Y478906D01*
X321106Y476998D01*
X323444Y475648D01*
X326051Y474950D01*
X328749D01*
X331356Y475648D01*
X333694Y476998D01*
X335602Y478906D01*
X336951Y481244D01*
X337650Y483851D01*
Y486549D01*
X336951Y489156D01*
X335602Y491494D01*
X333694Y493402D01*
X331356Y494752D01*
X328749Y495450D01*
D02*
G37*
G36*
X303349D02*
X300651D01*
X298044Y494752D01*
X295706Y493402D01*
X293798Y491494D01*
X292449Y489156D01*
X291750Y486549D01*
Y483851D01*
X292449Y481244D01*
X293798Y478906D01*
X295706Y476998D01*
X298044Y475648D01*
X300651Y474950D01*
X303349D01*
X305956Y475648D01*
X308294Y476998D01*
X310202Y478906D01*
X311551Y481244D01*
X312250Y483851D01*
Y486549D01*
X311551Y489156D01*
X310202Y491494D01*
X308294Y493402D01*
X305956Y494752D01*
X303349Y495450D01*
D02*
G37*
G36*
X277949D02*
X275251D01*
X272644Y494752D01*
X270306Y493402D01*
X268398Y491494D01*
X267048Y489156D01*
X266350Y486549D01*
Y483851D01*
X267048Y481244D01*
X268398Y478906D01*
X270306Y476998D01*
X272644Y475648D01*
X275251Y474950D01*
X277949D01*
X280556Y475648D01*
X282894Y476998D01*
X284802Y478906D01*
X286152Y481244D01*
X286850Y483851D01*
Y486549D01*
X286152Y489156D01*
X284802Y491494D01*
X282894Y493402D01*
X280556Y494752D01*
X277949Y495450D01*
D02*
G37*
G36*
X252549D02*
X249851D01*
X247244Y494752D01*
X244906Y493402D01*
X242998Y491494D01*
X241649Y489156D01*
X240950Y486549D01*
Y483851D01*
X241649Y481244D01*
X242998Y478906D01*
X244906Y476998D01*
X247244Y475648D01*
X249851Y474950D01*
X252549D01*
X255156Y475648D01*
X257494Y476998D01*
X259402Y478906D01*
X260751Y481244D01*
X261450Y483851D01*
Y486549D01*
X260751Y489156D01*
X259402Y491494D01*
X257494Y493402D01*
X255156Y494752D01*
X252549Y495450D01*
D02*
G37*
G36*
X227149D02*
X224451D01*
X221844Y494752D01*
X219506Y493402D01*
X217598Y491494D01*
X216248Y489156D01*
X215550Y486549D01*
Y483851D01*
X216248Y481244D01*
X217598Y478906D01*
X219506Y476998D01*
X221844Y475648D01*
X224451Y474950D01*
X227149D01*
X229756Y475648D01*
X232094Y476998D01*
X234002Y478906D01*
X235352Y481244D01*
X236050Y483851D01*
Y486549D01*
X235352Y489156D01*
X234002Y491494D01*
X232094Y493402D01*
X229756Y494752D01*
X227149Y495450D01*
D02*
G37*
G36*
X201749D02*
X199051D01*
X196444Y494752D01*
X194106Y493402D01*
X192198Y491494D01*
X190849Y489156D01*
X190150Y486549D01*
Y483851D01*
X190849Y481244D01*
X192198Y478906D01*
X194106Y476998D01*
X196444Y475648D01*
X199051Y474950D01*
X201749D01*
X204356Y475648D01*
X206694Y476998D01*
X208602Y478906D01*
X209951Y481244D01*
X210650Y483851D01*
Y486549D01*
X209951Y489156D01*
X208602Y491494D01*
X206694Y493402D01*
X204356Y494752D01*
X201749Y495450D01*
D02*
G37*
G36*
X176349D02*
X173651D01*
X171044Y494752D01*
X168706Y493402D01*
X166798Y491494D01*
X165448Y489156D01*
X164750Y486549D01*
Y483851D01*
X165448Y481244D01*
X166798Y478906D01*
X168706Y476998D01*
X171044Y475648D01*
X173651Y474950D01*
X176349D01*
X178956Y475648D01*
X181294Y476998D01*
X183202Y478906D01*
X184552Y481244D01*
X185250Y483851D01*
Y486549D01*
X184552Y489156D01*
X183202Y491494D01*
X181294Y493402D01*
X178956Y494752D01*
X176349Y495450D01*
D02*
G37*
G36*
X150949D02*
X148251D01*
X145644Y494752D01*
X143306Y493402D01*
X141398Y491494D01*
X140049Y489156D01*
X139350Y486549D01*
Y483851D01*
X140049Y481244D01*
X141398Y478906D01*
X143306Y476998D01*
X145644Y475648D01*
X148251Y474950D01*
X150949D01*
X153556Y475648D01*
X155894Y476998D01*
X157802Y478906D01*
X159151Y481244D01*
X159850Y483851D01*
Y486549D01*
X159151Y489156D01*
X157802Y491494D01*
X155894Y493402D01*
X153556Y494752D01*
X150949Y495450D01*
D02*
G37*
G36*
X125549D02*
X122851D01*
X120244Y494752D01*
X117906Y493402D01*
X115998Y491494D01*
X114649Y489156D01*
X113950Y486549D01*
Y483851D01*
X114649Y481244D01*
X115998Y478906D01*
X117906Y476998D01*
X120244Y475648D01*
X122851Y474950D01*
X125549D01*
X128156Y475648D01*
X130494Y476998D01*
X132402Y478906D01*
X133751Y481244D01*
X134450Y483851D01*
Y486549D01*
X133751Y489156D01*
X132402Y491494D01*
X130494Y493402D01*
X128156Y494752D01*
X125549Y495450D01*
D02*
G37*
G36*
X100149D02*
X97451D01*
X94844Y494752D01*
X92506Y493402D01*
X90598Y491494D01*
X89249Y489156D01*
X88550Y486549D01*
Y483851D01*
X89249Y481244D01*
X90598Y478906D01*
X92506Y476998D01*
X94844Y475648D01*
X97451Y474950D01*
X100149D01*
X102756Y475648D01*
X105094Y476998D01*
X107002Y478906D01*
X108351Y481244D01*
X109050Y483851D01*
Y486549D01*
X108351Y489156D01*
X107002Y491494D01*
X105094Y493402D01*
X102756Y494752D01*
X100149Y495450D01*
D02*
G37*
G36*
X74749D02*
X72051D01*
X69444Y494752D01*
X67106Y493402D01*
X65198Y491494D01*
X63849Y489156D01*
X63150Y486549D01*
Y483851D01*
X63849Y481244D01*
X65198Y478906D01*
X67106Y476998D01*
X69444Y475648D01*
X72051Y474950D01*
X74749D01*
X77356Y475648D01*
X79694Y476998D01*
X81602Y478906D01*
X82951Y481244D01*
X83650Y483851D01*
Y486549D01*
X82951Y489156D01*
X81602Y491494D01*
X79694Y493402D01*
X77356Y494752D01*
X74749Y495450D01*
D02*
G37*
G36*
X23949D02*
X21251D01*
X18644Y494752D01*
X16306Y493402D01*
X14398Y491494D01*
X13048Y489156D01*
X12350Y486549D01*
Y483851D01*
X13048Y481244D01*
X14398Y478906D01*
X16306Y476998D01*
X18644Y475648D01*
X21251Y474950D01*
X23949D01*
X26556Y475648D01*
X28894Y476998D01*
X30802Y478906D01*
X32152Y481244D01*
X32850Y483851D01*
Y486549D01*
X32152Y489156D01*
X30802Y491494D01*
X28894Y493402D01*
X26556Y494752D01*
X23949Y495450D01*
D02*
G37*
G36*
X58790Y483930D02*
X49270D01*
Y474410D01*
X49420D01*
X52165Y475145D01*
X54625Y476566D01*
X56634Y478575D01*
X58055Y481035D01*
X58790Y483779D01*
Y483930D01*
D02*
G37*
G36*
X46730D02*
X37210D01*
Y483779D01*
X37945Y481035D01*
X39366Y478575D01*
X41375Y476566D01*
X43835Y475145D01*
X46579Y474410D01*
X46730D01*
Y483930D01*
D02*
G37*
G36*
X670922Y487000D02*
X669079D01*
X667298Y486523D01*
X665702Y485601D01*
X664399Y484298D01*
X663477Y482702D01*
X663000Y480922D01*
Y479078D01*
X663477Y477298D01*
X664399Y475702D01*
X665702Y474399D01*
X667298Y473477D01*
X669079Y473000D01*
X670922D01*
X672702Y473477D01*
X674298Y474399D01*
X675602Y475702D01*
X676523Y477298D01*
X677000Y479078D01*
Y480922D01*
X676523Y482702D01*
X675602Y484298D01*
X674298Y485601D01*
X672702Y486523D01*
X670922Y487000D01*
D02*
G37*
G36*
X460922D02*
X459078D01*
X457298Y486523D01*
X455702Y485601D01*
X454399Y484298D01*
X453477Y482702D01*
X453000Y480922D01*
Y479078D01*
X453477Y477298D01*
X454399Y475702D01*
X455702Y474399D01*
X457298Y473477D01*
X459078Y473000D01*
X460922D01*
X462702Y473477D01*
X464298Y474399D01*
X465602Y475702D01*
X466523Y477298D01*
X467000Y479078D01*
Y480922D01*
X466523Y482702D01*
X465602Y484298D01*
X464298Y485601D01*
X462702Y486523D01*
X460922Y487000D01*
D02*
G37*
G36*
X1028950Y483321D02*
X1026450D01*
X1024296Y483038D01*
X1022289Y482206D01*
X1020566Y480884D01*
X1019244Y479161D01*
X1018412Y477154D01*
X1018129Y475000D01*
X1018412Y472846D01*
X1019244Y470839D01*
X1020566Y469116D01*
X1022289Y467794D01*
X1024296Y466962D01*
X1026450Y466679D01*
X1028950D01*
X1031104Y466962D01*
X1033111Y467794D01*
X1034834Y469116D01*
X1036156Y470839D01*
X1036988Y472846D01*
X1037271Y475000D01*
X1036988Y477154D01*
X1036156Y479161D01*
X1034834Y480884D01*
X1033111Y482206D01*
X1031104Y483038D01*
X1028950Y483321D01*
D02*
G37*
G36*
X973550D02*
X971050D01*
X968896Y483038D01*
X966889Y482206D01*
X965166Y480884D01*
X963844Y479161D01*
X963012Y477154D01*
X962729Y475000D01*
X963012Y472846D01*
X963844Y470839D01*
X965166Y469116D01*
X966889Y467794D01*
X968896Y466962D01*
X971050Y466679D01*
X973550D01*
X975704Y466962D01*
X977710Y467794D01*
X979434Y469116D01*
X980756Y470839D01*
X981588Y472846D01*
X981871Y475000D01*
X981588Y477154D01*
X980756Y479161D01*
X979434Y480884D01*
X977710Y482206D01*
X975704Y483038D01*
X973550Y483321D01*
D02*
G37*
G36*
X1220895Y474500D02*
X1219105D01*
X1217451Y473815D01*
X1216185Y472549D01*
X1215500Y470895D01*
Y469105D01*
X1216185Y467451D01*
X1217451Y466185D01*
X1219105Y465500D01*
X1220895D01*
X1222549Y466185D01*
X1223815Y467451D01*
X1224500Y469105D01*
Y470895D01*
X1223815Y472549D01*
X1222549Y473815D01*
X1220895Y474500D01*
D02*
G37*
G36*
X49420Y470590D02*
X49270D01*
Y461070D01*
X58790D01*
Y461221D01*
X58055Y463965D01*
X56634Y466425D01*
X54625Y468434D01*
X52165Y469855D01*
X49420Y470590D01*
D02*
G37*
G36*
X46730D02*
X46579D01*
X43835Y469855D01*
X41375Y468434D01*
X39366Y466425D01*
X37945Y463965D01*
X37210Y461221D01*
Y461070D01*
X46730D01*
Y470590D01*
D02*
G37*
G36*
X1365895Y469500D02*
X1364104D01*
X1362451Y468815D01*
X1361185Y467549D01*
X1360500Y465895D01*
Y464105D01*
X1361185Y462451D01*
X1362451Y461185D01*
X1364104Y460500D01*
X1365895D01*
X1367549Y461185D01*
X1368815Y462451D01*
X1369500Y464105D01*
Y465895D01*
X1368815Y467549D01*
X1367549Y468815D01*
X1365895Y469500D01*
D02*
G37*
G36*
X1275895D02*
X1274105D01*
X1272451Y468815D01*
X1271185Y467549D01*
X1270500Y465895D01*
Y464105D01*
X1271185Y462451D01*
X1272451Y461185D01*
X1274105Y460500D01*
X1275895D01*
X1277549Y461185D01*
X1278814Y462451D01*
X1279500Y464105D01*
Y465895D01*
X1278814Y467549D01*
X1277549Y468815D01*
X1275895Y469500D01*
D02*
G37*
G36*
X1260895D02*
X1259105D01*
X1257451Y468815D01*
X1256185Y467549D01*
X1255500Y465895D01*
Y464105D01*
X1256185Y462451D01*
X1257451Y461185D01*
X1259105Y460500D01*
X1260895D01*
X1262549Y461185D01*
X1263814Y462451D01*
X1264500Y464105D01*
Y465895D01*
X1263814Y467549D01*
X1262549Y468815D01*
X1260895Y469500D01*
D02*
G37*
G36*
X435895D02*
X434105D01*
X432451Y468815D01*
X431185Y467549D01*
X430500Y465895D01*
Y464105D01*
X431185Y462451D01*
X432451Y461185D01*
X434105Y460500D01*
X435895D01*
X437549Y461185D01*
X438815Y462451D01*
X439500Y464105D01*
Y465895D01*
X438815Y467549D01*
X437549Y468815D01*
X435895Y469500D01*
D02*
G37*
G36*
X930895Y459500D02*
X929105D01*
X927451Y458815D01*
X926185Y457549D01*
X925500Y455896D01*
Y454105D01*
X926185Y452451D01*
X927451Y451185D01*
X929105Y450500D01*
X930895D01*
X932549Y451185D01*
X933815Y452451D01*
X934500Y454105D01*
Y455896D01*
X933815Y457549D01*
X932549Y458815D01*
X930895Y459500D01*
D02*
G37*
G36*
X855895Y459500D02*
X854105D01*
X852451Y458815D01*
X851185Y457549D01*
X850500Y455895D01*
Y454105D01*
X851185Y452451D01*
X852451Y451185D01*
X854105Y450500D01*
X855895D01*
X857549Y451185D01*
X858815Y452451D01*
X859500Y454105D01*
Y455895D01*
X858815Y457549D01*
X857549Y458815D01*
X855895Y459500D01*
D02*
G37*
G36*
X1465895Y458750D02*
X1464105D01*
X1462451Y458065D01*
X1461185Y456799D01*
X1460500Y455145D01*
Y453355D01*
X1461185Y451701D01*
X1462451Y450435D01*
X1464105Y449750D01*
X1465895D01*
X1467549Y450435D01*
X1468815Y451701D01*
X1469500Y453355D01*
Y455145D01*
X1468815Y456799D01*
X1467549Y458065D01*
X1465895Y458750D01*
D02*
G37*
G36*
X1420895Y458750D02*
X1419105D01*
X1417451Y458064D01*
X1416185Y456799D01*
X1415500Y455145D01*
Y453354D01*
X1416185Y451701D01*
X1417451Y450435D01*
X1419105Y449749D01*
X1420895D01*
X1422549Y450435D01*
X1423815Y451701D01*
X1424500Y453354D01*
Y455145D01*
X1423815Y456799D01*
X1422549Y458064D01*
X1420895Y458750D01*
D02*
G37*
G36*
X303349Y470050D02*
X300651D01*
X298044Y469352D01*
X295706Y468002D01*
X293798Y466094D01*
X292449Y463756D01*
X291750Y461149D01*
Y458451D01*
X292449Y455844D01*
X293798Y453506D01*
X295706Y451598D01*
X298044Y450248D01*
X300651Y449550D01*
X303349D01*
X305956Y450248D01*
X308294Y451598D01*
X310202Y453506D01*
X311551Y455844D01*
X312250Y458451D01*
Y461149D01*
X311551Y463756D01*
X310202Y466094D01*
X308294Y468002D01*
X305956Y469352D01*
X303349Y470050D01*
D02*
G37*
G36*
X277949D02*
X275251D01*
X272644Y469352D01*
X270306Y468002D01*
X268398Y466094D01*
X267048Y463756D01*
X266350Y461149D01*
Y458451D01*
X267048Y455844D01*
X268398Y453506D01*
X270306Y451598D01*
X272644Y450248D01*
X275251Y449550D01*
X277949D01*
X280556Y450248D01*
X282894Y451598D01*
X284802Y453506D01*
X286152Y455844D01*
X286850Y458451D01*
Y461149D01*
X286152Y463756D01*
X284802Y466094D01*
X282894Y468002D01*
X280556Y469352D01*
X277949Y470050D01*
D02*
G37*
G36*
X252549D02*
X249851D01*
X247244Y469352D01*
X244906Y468002D01*
X242998Y466094D01*
X241649Y463756D01*
X240950Y461149D01*
Y458451D01*
X241649Y455844D01*
X242998Y453506D01*
X244906Y451598D01*
X247244Y450248D01*
X249851Y449550D01*
X252549D01*
X255156Y450248D01*
X257494Y451598D01*
X259402Y453506D01*
X260751Y455844D01*
X261450Y458451D01*
Y461149D01*
X260751Y463756D01*
X259402Y466094D01*
X257494Y468002D01*
X255156Y469352D01*
X252549Y470050D01*
D02*
G37*
G36*
X227149D02*
X224451D01*
X221844Y469352D01*
X219506Y468002D01*
X217598Y466094D01*
X216248Y463756D01*
X215550Y461149D01*
Y458451D01*
X216248Y455844D01*
X217598Y453506D01*
X219506Y451598D01*
X221844Y450248D01*
X224451Y449550D01*
X227149D01*
X229756Y450248D01*
X232094Y451598D01*
X234002Y453506D01*
X235352Y455844D01*
X236050Y458451D01*
Y461149D01*
X235352Y463756D01*
X234002Y466094D01*
X232094Y468002D01*
X229756Y469352D01*
X227149Y470050D01*
D02*
G37*
G36*
X201749D02*
X199051D01*
X196444Y469352D01*
X194106Y468002D01*
X192198Y466094D01*
X190849Y463756D01*
X190150Y461149D01*
Y458451D01*
X190849Y455844D01*
X192198Y453506D01*
X194106Y451598D01*
X196444Y450248D01*
X199051Y449550D01*
X201749D01*
X204356Y450248D01*
X206694Y451598D01*
X208602Y453506D01*
X209951Y455844D01*
X210650Y458451D01*
Y461149D01*
X209951Y463756D01*
X208602Y466094D01*
X206694Y468002D01*
X204356Y469352D01*
X201749Y470050D01*
D02*
G37*
G36*
X176349D02*
X173651D01*
X171044Y469352D01*
X168706Y468002D01*
X166798Y466094D01*
X165448Y463756D01*
X164750Y461149D01*
Y458451D01*
X165448Y455844D01*
X166798Y453506D01*
X168706Y451598D01*
X171044Y450248D01*
X173651Y449550D01*
X176349D01*
X178956Y450248D01*
X181294Y451598D01*
X183202Y453506D01*
X184552Y455844D01*
X185250Y458451D01*
Y461149D01*
X184552Y463756D01*
X183202Y466094D01*
X181294Y468002D01*
X178956Y469352D01*
X176349Y470050D01*
D02*
G37*
G36*
X150949D02*
X148251D01*
X145644Y469352D01*
X143306Y468002D01*
X141398Y466094D01*
X140049Y463756D01*
X139350Y461149D01*
Y458451D01*
X140049Y455844D01*
X141398Y453506D01*
X143306Y451598D01*
X145644Y450248D01*
X148251Y449550D01*
X150949D01*
X153556Y450248D01*
X155894Y451598D01*
X157802Y453506D01*
X159151Y455844D01*
X159850Y458451D01*
Y461149D01*
X159151Y463756D01*
X157802Y466094D01*
X155894Y468002D01*
X153556Y469352D01*
X150949Y470050D01*
D02*
G37*
G36*
X125549D02*
X122851D01*
X120244Y469352D01*
X117906Y468002D01*
X115998Y466094D01*
X114649Y463756D01*
X113950Y461149D01*
Y458451D01*
X114649Y455844D01*
X115998Y453506D01*
X117906Y451598D01*
X120244Y450248D01*
X122851Y449550D01*
X125549D01*
X128156Y450248D01*
X130494Y451598D01*
X132402Y453506D01*
X133751Y455844D01*
X134450Y458451D01*
Y461149D01*
X133751Y463756D01*
X132402Y466094D01*
X130494Y468002D01*
X128156Y469352D01*
X125549Y470050D01*
D02*
G37*
G36*
X100149D02*
X97451D01*
X94844Y469352D01*
X92506Y468002D01*
X90598Y466094D01*
X89249Y463756D01*
X88550Y461149D01*
Y458451D01*
X89249Y455844D01*
X90598Y453506D01*
X92506Y451598D01*
X94844Y450248D01*
X97451Y449550D01*
X100149D01*
X102756Y450248D01*
X105094Y451598D01*
X107002Y453506D01*
X108351Y455844D01*
X109050Y458451D01*
Y461149D01*
X108351Y463756D01*
X107002Y466094D01*
X105094Y468002D01*
X102756Y469352D01*
X100149Y470050D01*
D02*
G37*
G36*
X74749D02*
X72051D01*
X69444Y469352D01*
X67106Y468002D01*
X65198Y466094D01*
X63849Y463756D01*
X63150Y461149D01*
Y458451D01*
X63849Y455844D01*
X65198Y453506D01*
X67106Y451598D01*
X69444Y450248D01*
X72051Y449550D01*
X74749D01*
X77356Y450248D01*
X79694Y451598D01*
X81602Y453506D01*
X82951Y455844D01*
X83650Y458451D01*
Y461149D01*
X82951Y463756D01*
X81602Y466094D01*
X79694Y468002D01*
X77356Y469352D01*
X74749Y470050D01*
D02*
G37*
G36*
X23949D02*
X21251D01*
X18644Y469352D01*
X16306Y468002D01*
X14398Y466094D01*
X13048Y463756D01*
X12350Y461149D01*
Y458451D01*
X13048Y455844D01*
X14398Y453506D01*
X16306Y451598D01*
X18644Y450248D01*
X21251Y449550D01*
X23949D01*
X26556Y450248D01*
X28894Y451598D01*
X30802Y453506D01*
X32152Y455844D01*
X32850Y458451D01*
Y461149D01*
X32152Y463756D01*
X30802Y466094D01*
X28894Y468002D01*
X26556Y469352D01*
X23949Y470050D01*
D02*
G37*
G36*
X331525Y470170D02*
X323275D01*
X320885Y469695D01*
X318859Y468341D01*
X317505Y466315D01*
X317030Y463925D01*
Y455675D01*
X317505Y453285D01*
X318859Y451259D01*
X320885Y449905D01*
X323275Y449430D01*
X331525D01*
X333915Y449905D01*
X335941Y451259D01*
X337295Y453285D01*
X337770Y455675D01*
Y463925D01*
X337295Y466315D01*
X335941Y468341D01*
X333915Y469695D01*
X331525Y470170D01*
D02*
G37*
G36*
X58790Y458530D02*
X49270D01*
Y449010D01*
X49420D01*
X52165Y449745D01*
X54625Y451166D01*
X56634Y453175D01*
X58055Y455635D01*
X58790Y458380D01*
Y458530D01*
D02*
G37*
G36*
X46730D02*
X37210D01*
Y458380D01*
X37945Y455635D01*
X39366Y453175D01*
X41375Y451166D01*
X43835Y449745D01*
X46579Y449010D01*
X46730D01*
Y458530D01*
D02*
G37*
G36*
X655895Y454500D02*
X654105D01*
X652451Y453815D01*
X651185Y452549D01*
X650500Y450895D01*
Y449105D01*
X651185Y447451D01*
X652451Y446185D01*
X654105Y445500D01*
X655895D01*
X657549Y446185D01*
X658815Y447451D01*
X659500Y449105D01*
Y450895D01*
X658815Y452549D01*
X657549Y453815D01*
X655895Y454500D01*
D02*
G37*
G36*
X1275895Y454500D02*
X1274105D01*
X1272451Y453815D01*
X1271185Y452549D01*
X1270500Y450895D01*
Y449105D01*
X1271185Y447451D01*
X1272451Y446185D01*
X1274105Y445500D01*
X1275895D01*
X1277549Y446185D01*
X1278814Y447451D01*
X1279500Y449105D01*
Y450895D01*
X1278814Y452549D01*
X1277549Y453815D01*
X1275895Y454500D01*
D02*
G37*
G36*
X1260895D02*
X1259105D01*
X1257451Y453815D01*
X1256185Y452549D01*
X1255500Y450895D01*
Y449105D01*
X1256185Y447451D01*
X1257451Y446185D01*
X1259105Y445500D01*
X1260895D01*
X1262549Y446185D01*
X1263814Y447451D01*
X1264500Y449105D01*
Y450895D01*
X1263814Y452549D01*
X1262549Y453815D01*
X1260895Y454500D01*
D02*
G37*
G36*
X685922Y452000D02*
X684078D01*
X682298Y451523D01*
X680702Y450601D01*
X679399Y449298D01*
X678477Y447702D01*
X678000Y445922D01*
Y444078D01*
X678477Y442298D01*
X679399Y440702D01*
X680702Y439399D01*
X682298Y438477D01*
X684078Y438000D01*
X685922D01*
X687702Y438477D01*
X689298Y439399D01*
X690601Y440702D01*
X691523Y442298D01*
X692000Y444078D01*
Y445922D01*
X691523Y447702D01*
X690601Y449298D01*
X689298Y450601D01*
X687702Y451523D01*
X685922Y452000D01*
D02*
G37*
G36*
X1310895Y444500D02*
X1309105D01*
X1307451Y443815D01*
X1306185Y442549D01*
X1305500Y440895D01*
Y439105D01*
X1306185Y437451D01*
X1307451Y436185D01*
X1309105Y435500D01*
X1310895D01*
X1312549Y436185D01*
X1313815Y437451D01*
X1314500Y439105D01*
Y440895D01*
X1313815Y442549D01*
X1312549Y443815D01*
X1310895Y444500D01*
D02*
G37*
G36*
X1420895Y440250D02*
X1419105D01*
X1417451Y439565D01*
X1416185Y438299D01*
X1415500Y436645D01*
Y434855D01*
X1416185Y433201D01*
X1417451Y431935D01*
X1419105Y431250D01*
X1420895D01*
X1422549Y431935D01*
X1423815Y433201D01*
X1424500Y434855D01*
Y436645D01*
X1423815Y438299D01*
X1422549Y439565D01*
X1420895Y440250D01*
D02*
G37*
G36*
X1446270Y439875D02*
X1444480D01*
X1442826Y439190D01*
X1441560Y437924D01*
X1440875Y436270D01*
Y434480D01*
X1441560Y432826D01*
X1442826Y431560D01*
X1444480Y430875D01*
X1446270D01*
X1447924Y431560D01*
X1449190Y432826D01*
X1449875Y434480D01*
Y436270D01*
X1449190Y437924D01*
X1447924Y439190D01*
X1446270Y439875D01*
D02*
G37*
G36*
X77620Y426279D02*
Y422620D01*
X81279D01*
X80623Y424205D01*
X79205Y425623D01*
X77620Y426279D01*
D02*
G37*
G36*
X75080D02*
X73495Y425623D01*
X72077Y424205D01*
X71421Y422620D01*
X75080D01*
Y426279D01*
D02*
G37*
G36*
X805895Y429500D02*
X804105D01*
X802451Y428815D01*
X801185Y427549D01*
X800500Y425895D01*
Y424105D01*
X801185Y422451D01*
X802451Y421185D01*
X804105Y420500D01*
X805895D01*
X807549Y421185D01*
X808815Y422451D01*
X809500Y424105D01*
Y425895D01*
X808815Y427549D01*
X807549Y428815D01*
X805895Y429500D01*
D02*
G37*
G36*
X635895D02*
X634105D01*
X632451Y428815D01*
X631185Y427549D01*
X630500Y425895D01*
Y424105D01*
X631185Y422451D01*
X632451Y421185D01*
X634105Y420500D01*
X635895D01*
X637549Y421185D01*
X638815Y422451D01*
X639500Y424105D01*
Y425895D01*
X638815Y427549D01*
X637549Y428815D01*
X635895Y429500D01*
D02*
G37*
G36*
X81279Y420080D02*
X77620D01*
Y416421D01*
X79205Y417077D01*
X80623Y418495D01*
X81279Y420080D01*
D02*
G37*
G36*
X75080D02*
X71421D01*
X72077Y418495D01*
X73495Y417077D01*
X75080Y416421D01*
Y420080D01*
D02*
G37*
G36*
X730895Y424500D02*
X729105D01*
X727451Y423815D01*
X726185Y422549D01*
X725500Y420895D01*
Y419105D01*
X726185Y417451D01*
X727451Y416185D01*
X729105Y415500D01*
X730895D01*
X732549Y416185D01*
X733815Y417451D01*
X734500Y419105D01*
Y420895D01*
X733815Y422549D01*
X732549Y423815D01*
X730895Y424500D01*
D02*
G37*
G36*
X1106270Y409929D02*
Y406270D01*
X1109929D01*
X1109273Y407855D01*
X1107855Y409273D01*
X1106270Y409929D01*
D02*
G37*
G36*
X1103730D02*
X1102145Y409273D01*
X1100727Y407855D01*
X1100071Y406270D01*
X1103730D01*
Y409929D01*
D02*
G37*
G36*
X110321Y413926D02*
X108531D01*
X106877Y413241D01*
X105611Y411975D01*
X104926Y410321D01*
Y408531D01*
X105611Y406877D01*
X106877Y405611D01*
X108531Y404926D01*
X110321D01*
X111975Y405611D01*
X113241Y406877D01*
X113926Y408531D01*
Y410321D01*
X113241Y411975D01*
X111975Y413241D01*
X110321Y413926D01*
D02*
G37*
G36*
X450895Y409500D02*
X449105D01*
X447451Y408815D01*
X446185Y407549D01*
X445500Y405895D01*
Y404105D01*
X446185Y402451D01*
X447451Y401185D01*
X449105Y400500D01*
X450895D01*
X452549Y401185D01*
X453815Y402451D01*
X454500Y404105D01*
Y405895D01*
X453815Y407549D01*
X452549Y408815D01*
X450895Y409500D01*
D02*
G37*
G36*
X390895D02*
X389105D01*
X387451Y408815D01*
X386185Y407549D01*
X385500Y405895D01*
Y404105D01*
X386185Y402451D01*
X387451Y401185D01*
X389105Y400500D01*
X390895D01*
X392549Y401185D01*
X393815Y402451D01*
X394500Y404105D01*
Y405895D01*
X393815Y407549D01*
X392549Y408815D01*
X390895Y409500D01*
D02*
G37*
G36*
X375895D02*
X374105D01*
X372451Y408815D01*
X371185Y407549D01*
X370500Y405895D01*
Y404105D01*
X371185Y402451D01*
X372451Y401185D01*
X374105Y400500D01*
X375895D01*
X377549Y401185D01*
X378815Y402451D01*
X379500Y404105D01*
Y405895D01*
X378815Y407549D01*
X377549Y408815D01*
X375895Y409500D01*
D02*
G37*
G36*
X360895D02*
X359105D01*
X357451Y408815D01*
X356185Y407549D01*
X355500Y405895D01*
Y404105D01*
X356185Y402451D01*
X357451Y401185D01*
X359105Y400500D01*
X360895D01*
X362549Y401185D01*
X363815Y402451D01*
X364500Y404105D01*
Y405895D01*
X363815Y407549D01*
X362549Y408815D01*
X360895Y409500D01*
D02*
G37*
G36*
X345895D02*
X344105D01*
X342451Y408815D01*
X341185Y407549D01*
X340500Y405895D01*
Y404105D01*
X341185Y402451D01*
X342451Y401185D01*
X344105Y400500D01*
X345895D01*
X347549Y401185D01*
X348815Y402451D01*
X349500Y404105D01*
Y405895D01*
X348815Y407549D01*
X347549Y408815D01*
X345895Y409500D01*
D02*
G37*
G36*
X330895D02*
X329105D01*
X327451Y408815D01*
X326185Y407549D01*
X325500Y405895D01*
Y404105D01*
X326185Y402451D01*
X327451Y401185D01*
X329105Y400500D01*
X330895D01*
X332549Y401185D01*
X333815Y402451D01*
X334500Y404105D01*
Y405895D01*
X333815Y407549D01*
X332549Y408815D01*
X330895Y409500D01*
D02*
G37*
G36*
X1109929Y403730D02*
X1106270D01*
Y400071D01*
X1107855Y400727D01*
X1109273Y402145D01*
X1109929Y403730D01*
D02*
G37*
G36*
X1103730D02*
X1100071D01*
X1100727Y402145D01*
X1102145Y400727D01*
X1103730Y400071D01*
Y403730D01*
D02*
G37*
G36*
X619770Y403966D02*
Y397770D01*
X625965D01*
X625526Y399410D01*
X624533Y401130D01*
X623129Y402534D01*
X621410Y403526D01*
X619770Y403966D01*
D02*
G37*
G36*
X617230D02*
X615589Y403526D01*
X613870Y402534D01*
X612466Y401130D01*
X611474Y399410D01*
X611034Y397770D01*
X617230D01*
Y403966D01*
D02*
G37*
G36*
X1181395Y404000D02*
X1179605D01*
X1177951Y403315D01*
X1176685Y402049D01*
X1176000Y400395D01*
Y398605D01*
X1176685Y396951D01*
X1177951Y395685D01*
X1179605Y395000D01*
X1181395D01*
X1183049Y395685D01*
X1184315Y396951D01*
X1185000Y398605D01*
Y400395D01*
X1184315Y402049D01*
X1183049Y403315D01*
X1181395Y404000D01*
D02*
G37*
G36*
X55895Y399500D02*
X54105D01*
X52451Y398815D01*
X51185Y397549D01*
X50500Y395895D01*
Y394105D01*
X51185Y392451D01*
X52451Y391185D01*
X54105Y390500D01*
X55895D01*
X57549Y391185D01*
X58815Y392451D01*
X59500Y394105D01*
Y395895D01*
X58815Y397549D01*
X57549Y398815D01*
X55895Y399500D01*
D02*
G37*
G36*
X625965Y395230D02*
X619770D01*
Y389034D01*
X621410Y389474D01*
X623129Y390467D01*
X624533Y391870D01*
X625526Y393590D01*
X625965Y395230D01*
D02*
G37*
G36*
X617230D02*
X611034D01*
X611474Y393590D01*
X612466Y391870D01*
X613870Y390467D01*
X615589Y389474D01*
X617230Y389034D01*
Y395230D01*
D02*
G37*
G36*
X1340895Y404500D02*
X1339105D01*
X1337451Y403815D01*
X1336185Y402549D01*
X1335500Y400895D01*
Y399105D01*
X1336185Y397451D01*
X1337451Y396185D01*
X1338686Y395673D01*
Y394326D01*
X1337451Y393815D01*
X1336185Y392549D01*
X1335500Y390895D01*
Y389105D01*
X1336185Y387451D01*
X1337451Y386185D01*
X1339105Y385500D01*
X1340895D01*
X1342549Y386185D01*
X1343815Y387451D01*
X1344500Y389105D01*
Y390895D01*
X1343815Y392549D01*
X1342549Y393815D01*
X1341313Y394326D01*
Y395673D01*
X1342549Y396185D01*
X1343815Y397451D01*
X1344500Y399105D01*
Y400895D01*
X1343815Y402549D01*
X1342549Y403815D01*
X1340895Y404500D01*
D02*
G37*
G36*
X1181770Y385429D02*
Y381770D01*
X1185429D01*
X1184773Y383355D01*
X1183355Y384772D01*
X1181770Y385429D01*
D02*
G37*
G36*
X1179230D02*
X1177645Y384772D01*
X1176227Y383355D01*
X1175571Y381770D01*
X1179230D01*
Y385429D01*
D02*
G37*
G36*
X425895Y389500D02*
X424105D01*
X422451Y388815D01*
X421185Y387549D01*
X420500Y385895D01*
Y384105D01*
X421185Y382451D01*
X422451Y381185D01*
X424105Y380500D01*
X425895D01*
X427549Y381185D01*
X428815Y382451D01*
X429500Y384105D01*
Y385895D01*
X428815Y387549D01*
X427549Y388815D01*
X425895Y389500D01*
D02*
G37*
G36*
X1185429Y379230D02*
X1181770D01*
Y375570D01*
X1183355Y376227D01*
X1184773Y377645D01*
X1185429Y379230D01*
D02*
G37*
G36*
X1179230D02*
X1175571D01*
X1176227Y377645D01*
X1177645Y376227D01*
X1179230Y375570D01*
Y379230D01*
D02*
G37*
G36*
X310895Y384500D02*
X309105D01*
X307451Y383815D01*
X306185Y382549D01*
X305500Y380895D01*
Y379105D01*
X306185Y377451D01*
X307451Y376185D01*
X309105Y375500D01*
X310895D01*
X312549Y376185D01*
X313815Y377451D01*
X314500Y379105D01*
Y380895D01*
X313815Y382549D01*
X312549Y383815D01*
X310895Y384500D01*
D02*
G37*
G36*
X270895D02*
X269105D01*
X267451Y383815D01*
X266185Y382549D01*
X265500Y380895D01*
Y379105D01*
X266185Y377451D01*
X267451Y376185D01*
X269105Y375500D01*
X270895D01*
X272549Y376185D01*
X273815Y377451D01*
X274500Y379105D01*
Y380895D01*
X273815Y382549D01*
X272549Y383815D01*
X270895Y384500D01*
D02*
G37*
G36*
X230895D02*
X229105D01*
X227451Y383815D01*
X226185Y382549D01*
X225500Y380895D01*
Y379105D01*
X226185Y377451D01*
X227451Y376185D01*
X229105Y375500D01*
X230895D01*
X232549Y376185D01*
X233815Y377451D01*
X234500Y379105D01*
Y380895D01*
X233815Y382549D01*
X232549Y383815D01*
X230895Y384500D01*
D02*
G37*
G36*
X290896Y384500D02*
X289105D01*
X287451Y383815D01*
X286185Y382549D01*
X285500Y380895D01*
Y379105D01*
X286185Y377451D01*
X287451Y376185D01*
X289105Y375500D01*
X290896D01*
X292549Y376185D01*
X293815Y377451D01*
X294500Y379105D01*
Y380895D01*
X293815Y382549D01*
X292549Y383815D01*
X290896Y384500D01*
D02*
G37*
G36*
X250895D02*
X249105D01*
X247451Y383815D01*
X246185Y382549D01*
X245500Y380895D01*
Y379105D01*
X246185Y377451D01*
X247451Y376185D01*
X249105Y375500D01*
X250895D01*
X252549Y376185D01*
X253815Y377451D01*
X254500Y379105D01*
Y380895D01*
X253815Y382549D01*
X252549Y383815D01*
X250895Y384500D01*
D02*
G37*
G36*
X210895D02*
X209105D01*
X207451Y383815D01*
X206185Y382549D01*
X205500Y380895D01*
Y379105D01*
X206185Y377451D01*
X207451Y376185D01*
X209105Y375500D01*
X210500D01*
Y374105D01*
X211185Y372451D01*
X212451Y371185D01*
X214105Y370500D01*
X215895D01*
X217549Y371185D01*
X218815Y372451D01*
X219500Y374105D01*
Y375895D01*
X218815Y377549D01*
X217549Y378815D01*
X215895Y379500D01*
X214500D01*
Y380895D01*
X213815Y382549D01*
X212549Y383815D01*
X210895Y384500D01*
D02*
G37*
G36*
X1140895Y379500D02*
X1139105D01*
X1137451Y378815D01*
X1136185Y377549D01*
X1135500Y375895D01*
Y374105D01*
X1136185Y372451D01*
X1137451Y371185D01*
X1139105Y370500D01*
X1140895D01*
X1142549Y371185D01*
X1143815Y372451D01*
X1144500Y374105D01*
Y375895D01*
X1143815Y377549D01*
X1142549Y378815D01*
X1140895Y379500D01*
D02*
G37*
G36*
X1125895D02*
X1124105D01*
X1122451Y378815D01*
X1121185Y377549D01*
X1120500Y375895D01*
Y374105D01*
X1121185Y372451D01*
X1122451Y371185D01*
X1124105Y370500D01*
X1125895D01*
X1127549Y371185D01*
X1128815Y372451D01*
X1129500Y374105D01*
Y375895D01*
X1128815Y377549D01*
X1127549Y378815D01*
X1125895Y379500D01*
D02*
G37*
G36*
X1110895D02*
X1109105D01*
X1107451Y378815D01*
X1106185Y377549D01*
X1105500Y375895D01*
Y374105D01*
X1106185Y372451D01*
X1107451Y371185D01*
X1109105Y370500D01*
X1110895D01*
X1112549Y371185D01*
X1113815Y372451D01*
X1114500Y374105D01*
Y375895D01*
X1113815Y377549D01*
X1112549Y378815D01*
X1110895Y379500D01*
D02*
G37*
G36*
X1095895D02*
X1094105D01*
X1092451Y378815D01*
X1091185Y377549D01*
X1090500Y375895D01*
Y374105D01*
X1091185Y372451D01*
X1092451Y371185D01*
X1094105Y370500D01*
X1095895D01*
X1097549Y371185D01*
X1098815Y372451D01*
X1099500Y374105D01*
Y375895D01*
X1098815Y377549D01*
X1097549Y378815D01*
X1095895Y379500D01*
D02*
G37*
G36*
X15895D02*
X14105D01*
X12451Y378815D01*
X11185Y377549D01*
X10500Y375895D01*
Y374105D01*
X11185Y372451D01*
X12451Y371185D01*
X14105Y370500D01*
X15895D01*
X17549Y371185D01*
X18815Y372451D01*
X19500Y374105D01*
Y375895D01*
X18815Y377549D01*
X17549Y378815D01*
X15895Y379500D01*
D02*
G37*
G36*
X74069Y374415D02*
X73770D01*
Y363770D01*
X84415D01*
Y364069D01*
X83603Y367099D01*
X82034Y369816D01*
X79816Y372034D01*
X77099Y373603D01*
X74069Y374415D01*
D02*
G37*
G36*
X71230D02*
X70931D01*
X67901Y373603D01*
X65184Y372034D01*
X62966Y369816D01*
X61397Y367099D01*
X60585Y364069D01*
Y363770D01*
X71230D01*
Y374415D01*
D02*
G37*
G36*
X136395Y365250D02*
X134605D01*
X132951Y364565D01*
X131685Y363299D01*
X131000Y361645D01*
Y359855D01*
X131685Y358201D01*
X132951Y356935D01*
X134605Y356250D01*
X136395D01*
X138049Y356935D01*
X139315Y358201D01*
X140000Y359855D01*
Y361645D01*
X139315Y363299D01*
X138049Y364565D01*
X136395Y365250D01*
D02*
G37*
G36*
X1030895Y354000D02*
X1029105D01*
X1027451Y353315D01*
X1026500Y352364D01*
X1025549Y353315D01*
X1023895Y354000D01*
X1022105D01*
X1020451Y353315D01*
X1019185Y352049D01*
X1018500Y350395D01*
Y348605D01*
X1019185Y346951D01*
X1020451Y345685D01*
X1022105Y345000D01*
X1023895D01*
X1025549Y345685D01*
X1026500Y346636D01*
X1027451Y345685D01*
X1029105Y345000D01*
X1030895D01*
X1032549Y345685D01*
X1033815Y346951D01*
X1034500Y348605D01*
Y350395D01*
X1033815Y352049D01*
X1032549Y353315D01*
X1030895Y354000D01*
D02*
G37*
G36*
X106270Y355179D02*
Y351520D01*
X109929D01*
X109273Y353105D01*
X107855Y354523D01*
X106270Y355179D01*
D02*
G37*
G36*
X103730D02*
X102145Y354523D01*
X100727Y353105D01*
X100071Y351520D01*
X103730D01*
Y355179D01*
D02*
G37*
G36*
X1453997Y373875D02*
X1451002D01*
X1448109Y373100D01*
X1445516Y371602D01*
X1443398Y369484D01*
X1441900Y366891D01*
X1441125Y363998D01*
Y361003D01*
X1441900Y358110D01*
X1443398Y355516D01*
X1445516Y353398D01*
X1448109Y351900D01*
X1451002Y351125D01*
X1453997D01*
X1456891Y351900D01*
X1459484Y353398D01*
X1461602Y355516D01*
X1463100Y358110D01*
X1463875Y361003D01*
Y363998D01*
X1463100Y366891D01*
X1461602Y369484D01*
X1459484Y371602D01*
X1456891Y373100D01*
X1453997Y373875D01*
D02*
G37*
G36*
X1428997D02*
X1426002D01*
X1423109Y373100D01*
X1420516Y371602D01*
X1418398Y369484D01*
X1416900Y366891D01*
X1416125Y363998D01*
Y361003D01*
X1416900Y358110D01*
X1418398Y355516D01*
X1420516Y353398D01*
X1423109Y351900D01*
X1426002Y351125D01*
X1428997D01*
X1431891Y351900D01*
X1434484Y353398D01*
X1436602Y355516D01*
X1438100Y358110D01*
X1438875Y361003D01*
Y363998D01*
X1438100Y366891D01*
X1436602Y369484D01*
X1434484Y371602D01*
X1431891Y373100D01*
X1428997Y373875D01*
D02*
G37*
G36*
X48998Y373875D02*
X46002D01*
X43109Y373100D01*
X40516Y371602D01*
X38398Y369484D01*
X36900Y366891D01*
X36125Y363997D01*
Y361003D01*
X36900Y358109D01*
X38398Y355516D01*
X40516Y353398D01*
X43109Y351900D01*
X46002Y351125D01*
X48998D01*
X51891Y351900D01*
X54484Y353398D01*
X56602Y355516D01*
X58100Y358109D01*
X58875Y361003D01*
Y363997D01*
X58100Y366891D01*
X56602Y369484D01*
X54484Y371602D01*
X51891Y373100D01*
X48998Y373875D01*
D02*
G37*
G36*
X84415Y361230D02*
X73770D01*
Y350585D01*
X74069D01*
X77099Y351397D01*
X79816Y352966D01*
X82034Y355184D01*
X83603Y357901D01*
X84415Y360931D01*
Y361230D01*
D02*
G37*
G36*
X71230D02*
X60585D01*
Y360931D01*
X61397Y357901D01*
X62966Y355184D01*
X65184Y352966D01*
X67901Y351397D01*
X70931Y350585D01*
X71230D01*
Y361230D01*
D02*
G37*
G36*
X1140895Y359500D02*
X1139105D01*
X1137451Y358815D01*
X1136185Y357549D01*
X1135500Y355895D01*
Y354105D01*
X1136185Y352451D01*
X1137451Y351185D01*
X1139105Y350500D01*
X1140895D01*
X1142549Y351185D01*
X1143815Y352451D01*
X1144500Y354105D01*
Y355895D01*
X1143815Y357549D01*
X1142549Y358815D01*
X1140895Y359500D01*
D02*
G37*
G36*
X1380145Y354504D02*
X1378355D01*
X1376701Y353819D01*
X1375435Y352553D01*
X1374750Y350900D01*
Y349109D01*
X1375435Y347455D01*
X1376701Y346189D01*
X1378355Y345504D01*
X1380145D01*
X1381799Y346189D01*
X1383065Y347455D01*
X1383750Y349109D01*
Y350900D01*
X1383065Y352553D01*
X1381799Y353819D01*
X1380145Y354504D01*
D02*
G37*
G36*
X109929Y348980D02*
X106270D01*
Y345321D01*
X107855Y345977D01*
X109273Y347395D01*
X109929Y348980D01*
D02*
G37*
G36*
X103730D02*
X100071D01*
X100727Y347395D01*
X102145Y345977D01*
X103730Y345321D01*
Y348980D01*
D02*
G37*
G36*
X1330896Y349500D02*
X1329105D01*
X1327451Y348815D01*
X1326185Y347549D01*
X1325500Y345895D01*
Y344105D01*
X1326185Y342451D01*
X1327451Y341185D01*
X1329105Y340500D01*
X1330896D01*
X1332549Y341185D01*
X1333815Y342451D01*
X1334500Y344105D01*
Y345895D01*
X1333815Y347549D01*
X1332549Y348815D01*
X1330896Y349500D01*
D02*
G37*
G36*
X1453997Y348875D02*
X1451002D01*
X1448109Y348100D01*
X1445516Y346602D01*
X1443398Y344484D01*
X1441900Y341891D01*
X1441125Y338998D01*
Y336003D01*
X1441900Y333110D01*
X1443398Y330516D01*
X1445516Y328398D01*
X1448109Y326900D01*
X1451002Y326125D01*
X1453997D01*
X1456891Y326900D01*
X1459484Y328398D01*
X1461602Y330516D01*
X1463100Y333110D01*
X1463875Y336003D01*
Y338998D01*
X1463100Y341891D01*
X1461602Y344484D01*
X1459484Y346602D01*
X1456891Y348100D01*
X1453997Y348875D01*
D02*
G37*
G36*
X1428997D02*
X1426002D01*
X1423109Y348100D01*
X1420516Y346602D01*
X1418398Y344484D01*
X1416900Y341891D01*
X1416125Y338998D01*
Y336003D01*
X1416900Y333110D01*
X1418398Y330516D01*
X1420516Y328398D01*
X1423109Y326900D01*
X1426002Y326125D01*
X1428997D01*
X1431891Y326900D01*
X1434484Y328398D01*
X1436602Y330516D01*
X1438100Y333110D01*
X1438875Y336003D01*
Y338998D01*
X1438100Y341891D01*
X1436602Y344484D01*
X1434484Y346602D01*
X1431891Y348100D01*
X1428997Y348875D01*
D02*
G37*
G36*
X73998Y348875D02*
X71002D01*
X68109Y348100D01*
X65516Y346602D01*
X63398Y344484D01*
X61900Y341891D01*
X61125Y338997D01*
Y336003D01*
X61900Y333109D01*
X63398Y330516D01*
X65516Y328398D01*
X68109Y326900D01*
X71002Y326125D01*
X73998D01*
X76891Y326900D01*
X79484Y328398D01*
X81602Y330516D01*
X83100Y333109D01*
X83875Y336003D01*
Y338997D01*
X83100Y341891D01*
X81602Y344484D01*
X79484Y346602D01*
X76891Y348100D01*
X73998Y348875D01*
D02*
G37*
G36*
X48998D02*
X46002D01*
X43109Y348100D01*
X40516Y346602D01*
X38398Y344484D01*
X36900Y341891D01*
X36125Y338997D01*
Y336003D01*
X36900Y333109D01*
X38398Y330516D01*
X40516Y328398D01*
X43109Y326900D01*
X46002Y326125D01*
X48998D01*
X51891Y326900D01*
X54484Y328398D01*
X56602Y330516D01*
X58100Y333109D01*
X58875Y336003D01*
Y338997D01*
X58100Y341891D01*
X56602Y344484D01*
X54484Y346602D01*
X51891Y348100D01*
X48998Y348875D01*
D02*
G37*
G36*
X1065895Y334500D02*
X1064105D01*
X1062451Y333815D01*
X1061185Y332549D01*
X1060500Y330895D01*
Y329105D01*
X1061185Y327451D01*
X1062451Y326185D01*
X1064105Y325500D01*
X1065895D01*
X1067549Y326185D01*
X1068815Y327451D01*
X1069500Y329105D01*
Y330895D01*
X1068815Y332549D01*
X1067549Y333815D01*
X1065895Y334500D01*
D02*
G37*
G36*
X1050895D02*
X1049105D01*
X1047451Y333815D01*
X1046185Y332549D01*
X1045500Y330895D01*
Y329105D01*
X1046185Y327451D01*
X1047451Y326185D01*
X1049105Y325500D01*
X1050895D01*
X1052549Y326185D01*
X1053815Y327451D01*
X1054500Y329105D01*
Y330895D01*
X1053815Y332549D01*
X1052549Y333815D01*
X1050895Y334500D01*
D02*
G37*
G36*
X1260895Y319500D02*
X1259105D01*
X1257451Y318815D01*
X1256186Y317549D01*
X1255500Y315895D01*
Y314105D01*
X1256186Y312451D01*
X1257451Y311185D01*
X1259105Y310500D01*
X1260895D01*
X1262550Y311185D01*
X1263815Y312451D01*
X1264500Y314105D01*
Y315895D01*
X1263815Y317549D01*
X1262550Y318815D01*
X1260895Y319500D01*
D02*
G37*
G36*
X1220895D02*
X1219105D01*
X1217451Y318815D01*
X1216185Y317549D01*
X1215500Y315895D01*
Y314105D01*
X1216185Y312451D01*
X1217451Y311185D01*
X1219105Y310500D01*
X1220895D01*
X1222549Y311185D01*
X1223815Y312451D01*
X1224500Y314105D01*
Y315895D01*
X1223815Y317549D01*
X1222549Y318815D01*
X1220895Y319500D01*
D02*
G37*
G36*
X1125895Y319500D02*
X1124105D01*
X1122451Y318815D01*
X1121185Y317549D01*
X1120500Y315895D01*
Y314105D01*
X1121185Y312451D01*
X1122451Y311185D01*
X1124105Y310500D01*
X1125895D01*
X1127549Y311185D01*
X1128815Y312451D01*
X1129500Y314105D01*
Y315895D01*
X1128815Y317549D01*
X1127549Y318815D01*
X1125895Y319500D01*
D02*
G37*
G36*
X1050895D02*
X1049105D01*
X1047451Y318815D01*
X1046185Y317549D01*
X1045500Y315895D01*
Y314105D01*
X1046185Y312451D01*
X1047451Y311185D01*
X1049105Y310500D01*
X1050895D01*
X1052549Y311185D01*
X1053815Y312451D01*
X1054500Y314105D01*
Y315895D01*
X1053815Y317549D01*
X1052549Y318815D01*
X1050895Y319500D01*
D02*
G37*
G36*
X1035895D02*
X1034105D01*
X1032451Y318815D01*
X1031185Y317549D01*
X1030500Y315895D01*
Y314105D01*
X1031185Y312451D01*
X1032451Y311185D01*
X1034105Y310500D01*
X1035895D01*
X1037549Y311185D01*
X1038815Y312451D01*
X1039500Y314105D01*
Y315895D01*
X1038815Y317549D01*
X1037549Y318815D01*
X1035895Y319500D01*
D02*
G37*
G36*
X435895D02*
X434105D01*
X432451Y318815D01*
X431185Y317549D01*
X430500Y315895D01*
Y314105D01*
X431185Y312451D01*
X432451Y311185D01*
X434105Y310500D01*
X435895D01*
X437549Y311185D01*
X438815Y312451D01*
X439500Y314105D01*
Y315895D01*
X438815Y317549D01*
X437549Y318815D01*
X435895Y319500D01*
D02*
G37*
G36*
X375895D02*
X374105D01*
X372451Y318815D01*
X371185Y317549D01*
X370500Y315895D01*
Y314105D01*
X371185Y312451D01*
X372451Y311185D01*
X374105Y310500D01*
X375895D01*
X377549Y311185D01*
X378815Y312451D01*
X379500Y314105D01*
Y315895D01*
X378815Y317549D01*
X377549Y318815D01*
X375895Y319500D01*
D02*
G37*
G36*
X360895D02*
X359105D01*
X357451Y318815D01*
X356185Y317549D01*
X355500Y315895D01*
Y314105D01*
X356185Y312451D01*
X357451Y311185D01*
X359105Y310500D01*
X360895D01*
X362549Y311185D01*
X363815Y312451D01*
X364500Y314105D01*
Y315895D01*
X363815Y317549D01*
X362549Y318815D01*
X360895Y319500D01*
D02*
G37*
G36*
X345895D02*
X344105D01*
X342451Y318815D01*
X341185Y317549D01*
X340500Y315895D01*
Y314105D01*
X341185Y312451D01*
X342451Y311185D01*
X344105Y310500D01*
X345895D01*
X347549Y311185D01*
X348815Y312451D01*
X349500Y314105D01*
Y315895D01*
X348815Y317549D01*
X347549Y318815D01*
X345895Y319500D01*
D02*
G37*
G36*
X330895D02*
X329105D01*
X327451Y318815D01*
X326185Y317549D01*
X325500Y315895D01*
Y314105D01*
X326185Y312451D01*
X327451Y311185D01*
X329105Y310500D01*
X330895D01*
X332549Y311185D01*
X333815Y312451D01*
X334500Y314105D01*
Y315895D01*
X333815Y317549D01*
X332549Y318815D01*
X330895Y319500D01*
D02*
G37*
G36*
X315895D02*
X314105D01*
X312451Y318815D01*
X311185Y317549D01*
X310500Y315895D01*
Y314105D01*
X311185Y312451D01*
X312451Y311185D01*
X314105Y310500D01*
X315895D01*
X317549Y311185D01*
X318815Y312451D01*
X319500Y314105D01*
Y315895D01*
X318815Y317549D01*
X317549Y318815D01*
X315895Y319500D01*
D02*
G37*
G36*
X300895D02*
X299105D01*
X297451Y318815D01*
X296185Y317549D01*
X295500Y315895D01*
Y314105D01*
X296185Y312451D01*
X297451Y311185D01*
X299105Y310500D01*
X300895D01*
X302549Y311185D01*
X303815Y312451D01*
X304500Y314105D01*
Y315895D01*
X303815Y317549D01*
X302549Y318815D01*
X300895Y319500D01*
D02*
G37*
G36*
X285895D02*
X284105D01*
X282451Y318815D01*
X281185Y317549D01*
X280500Y315895D01*
Y314105D01*
X281185Y312451D01*
X282451Y311185D01*
X284105Y310500D01*
X285895D01*
X287549Y311185D01*
X288815Y312451D01*
X289500Y314105D01*
Y315895D01*
X288815Y317549D01*
X287549Y318815D01*
X285895Y319500D01*
D02*
G37*
G36*
X270895D02*
X269105D01*
X267451Y318815D01*
X266185Y317549D01*
X265500Y315895D01*
Y314105D01*
X266185Y312451D01*
X267451Y311185D01*
X269105Y310500D01*
X270895D01*
X272549Y311185D01*
X273815Y312451D01*
X274500Y314105D01*
Y315895D01*
X273815Y317549D01*
X272549Y318815D01*
X270895Y319500D01*
D02*
G37*
G36*
X255895D02*
X254105D01*
X252451Y318815D01*
X251185Y317549D01*
X250500Y315895D01*
Y314105D01*
X251185Y312451D01*
X252451Y311185D01*
X254105Y310500D01*
X255895D01*
X257549Y311185D01*
X258815Y312451D01*
X259500Y314105D01*
Y315895D01*
X258815Y317549D01*
X257549Y318815D01*
X255895Y319500D01*
D02*
G37*
G36*
X240895D02*
X239105D01*
X237451Y318815D01*
X236185Y317549D01*
X235500Y315895D01*
Y314105D01*
X236185Y312451D01*
X237451Y311185D01*
X239105Y310500D01*
X240895D01*
X242549Y311185D01*
X243815Y312451D01*
X244500Y314105D01*
Y315895D01*
X243815Y317549D01*
X242549Y318815D01*
X240895Y319500D01*
D02*
G37*
G36*
X225895D02*
X224105D01*
X222451Y318815D01*
X221185Y317549D01*
X220500Y315895D01*
Y314105D01*
X221185Y312451D01*
X222451Y311185D01*
X224105Y310500D01*
X225895D01*
X227549Y311185D01*
X228815Y312451D01*
X229500Y314105D01*
Y315895D01*
X228815Y317549D01*
X227549Y318815D01*
X225895Y319500D01*
D02*
G37*
G36*
X165895D02*
X164105D01*
X162451Y318815D01*
X161185Y317549D01*
X160500Y315895D01*
Y314105D01*
X161185Y312451D01*
X162451Y311185D01*
X164105Y310500D01*
X165895D01*
X167549Y311185D01*
X168815Y312451D01*
X169500Y314105D01*
Y315895D01*
X168815Y317549D01*
X167549Y318815D01*
X165895Y319500D01*
D02*
G37*
G36*
X48998Y323875D02*
X46002D01*
X43109Y323100D01*
X40516Y321602D01*
X38398Y319484D01*
X36900Y316891D01*
X36125Y313997D01*
Y311003D01*
X36687Y308904D01*
X35650Y307867D01*
X35153Y308000D01*
X33047D01*
X31012Y307455D01*
X29188Y306402D01*
X27698Y304912D01*
X26645Y303088D01*
X26100Y301053D01*
Y298947D01*
X26645Y296912D01*
X27698Y295088D01*
X29188Y293598D01*
X31012Y292545D01*
X33047Y292000D01*
X35153D01*
X35650Y292133D01*
X36687Y291096D01*
X36125Y288997D01*
Y286003D01*
X36900Y283109D01*
X38398Y280516D01*
X40516Y278398D01*
X43109Y276900D01*
X46002Y276125D01*
X48998D01*
X51891Y276900D01*
X54484Y278398D01*
X56602Y280516D01*
X58100Y283109D01*
X58875Y286003D01*
Y288997D01*
X58100Y291891D01*
X56602Y294484D01*
X54484Y296602D01*
X51891Y298100D01*
X48998Y298875D01*
X46002D01*
X43194Y298122D01*
X42592Y298462D01*
X42076Y298858D01*
X42100Y298947D01*
Y301053D01*
X42076Y301142D01*
X42592Y301538D01*
X43194Y301878D01*
X46002Y301125D01*
X48998D01*
X51891Y301900D01*
X54484Y303398D01*
X56602Y305516D01*
X58100Y308109D01*
X58875Y311003D01*
Y313997D01*
X58100Y316891D01*
X56602Y319484D01*
X54484Y321602D01*
X51891Y323100D01*
X48998Y323875D01*
D02*
G37*
G36*
X1219750Y454588D02*
X985000D01*
X983244Y454239D01*
X981756Y453244D01*
X940551Y412039D01*
X790019D01*
X789171Y413309D01*
X789500Y414105D01*
Y415895D01*
X788815Y417549D01*
X787549Y418815D01*
X785895Y419500D01*
X784105D01*
X782451Y418815D01*
X781500Y417864D01*
X780549Y418815D01*
X778895Y419500D01*
X777105D01*
X775451Y418815D01*
X774470Y417834D01*
X773549Y418755D01*
X771895Y419440D01*
X770105D01*
X768451Y418755D01*
X767530Y417834D01*
X766549Y418815D01*
X764895Y419500D01*
X763105D01*
X761451Y418815D01*
X760185Y417549D01*
X759500Y415895D01*
Y414105D01*
X759830Y413309D01*
X758981Y412039D01*
X709994D01*
X709289Y413095D01*
X709500Y413605D01*
Y415395D01*
X708815Y417049D01*
X707549Y418315D01*
X705895Y419000D01*
X704105D01*
X702451Y418315D01*
X701185Y417049D01*
X700500Y415395D01*
Y413605D01*
X700711Y413095D01*
X700006Y412039D01*
X630603D01*
X629823Y411884D01*
X629161Y411442D01*
X628719Y410780D01*
X628564Y410000D01*
Y396634D01*
X628204Y393900D01*
X627200Y391477D01*
X625604Y389396D01*
X623523Y387799D01*
X621100Y386796D01*
X618500Y386453D01*
X615899Y386796D01*
X613476Y387799D01*
X611395Y389396D01*
X609799Y391477D01*
X608795Y393900D01*
X608435Y396634D01*
Y410000D01*
X608280Y410780D01*
X607838Y411442D01*
X607177Y411884D01*
X606396Y412039D01*
X460000D01*
X459220Y411884D01*
X458558Y411442D01*
X458116Y410780D01*
X457961Y410000D01*
Y159588D01*
X427012D01*
X426759Y160858D01*
X427549Y161185D01*
X428815Y162451D01*
X429500Y164105D01*
Y165895D01*
X428815Y167549D01*
X427549Y168815D01*
X425895Y169500D01*
X424105D01*
X422451Y168815D01*
X421185Y167549D01*
X420500Y165895D01*
Y164105D01*
X421185Y162451D01*
X422451Y161185D01*
X423241Y160858D01*
X422988Y159588D01*
X395599D01*
X394894Y160644D01*
X394929Y160730D01*
X385071D01*
X385106Y160644D01*
X384401Y159588D01*
X284838D01*
Y265000D01*
X284750Y265443D01*
Y265895D01*
X284577Y266312D01*
X284489Y266756D01*
X284238Y267131D01*
X284065Y267549D01*
X283745Y267868D01*
X283494Y268244D01*
X283118Y268495D01*
X282799Y268815D01*
X282382Y268988D01*
X282006Y269239D01*
X281563Y269327D01*
X281145Y269500D01*
X280693D01*
X280250Y269588D01*
X215001D01*
X215000Y269588D01*
X201901D01*
X177744Y293744D01*
X176256Y294739D01*
X174500Y295088D01*
X120500D01*
X118744Y294739D01*
X117256Y293744D01*
X101756Y278244D01*
X100761Y276756D01*
X100412Y275000D01*
Y216901D01*
X88099Y204588D01*
X35000D01*
X34557Y204500D01*
X34105D01*
X33687Y204327D01*
X33244Y204239D01*
X32868Y203988D01*
X32451Y203815D01*
X32132Y203495D01*
X31756Y203244D01*
X31505Y202869D01*
X31185Y202549D01*
X31012Y202132D01*
X30761Y201756D01*
X30673Y201313D01*
X30500Y200895D01*
Y200443D01*
X30412Y200000D01*
X30500Y199557D01*
Y199105D01*
X30673Y198687D01*
X30761Y198244D01*
X31012Y197868D01*
X31185Y197451D01*
X31505Y197132D01*
X31756Y196756D01*
X32132Y196505D01*
X32451Y196185D01*
X32868Y196012D01*
X33244Y195761D01*
X33687Y195673D01*
X34105Y195500D01*
X34557D01*
X35000Y195412D01*
X90000D01*
X91756Y195761D01*
X93244Y196756D01*
X108244Y211756D01*
X109239Y213244D01*
X109588Y215000D01*
Y273099D01*
X122401Y285912D01*
X172600D01*
X196756Y261756D01*
X198244Y260761D01*
X200000Y260412D01*
X208239D01*
X208491Y259142D01*
X207701Y258815D01*
X206436Y257549D01*
X205751Y255895D01*
Y254105D01*
X206436Y252451D01*
X207701Y251185D01*
X209355Y250500D01*
X211146D01*
X212800Y251185D01*
X214065Y252451D01*
X214750Y254105D01*
Y255895D01*
X214065Y257549D01*
X212800Y258815D01*
X212010Y259142D01*
X212262Y260412D01*
X214999D01*
X215000Y260412D01*
X275662D01*
Y156286D01*
X275500Y155895D01*
Y155443D01*
X275412Y155000D01*
X275500Y154557D01*
Y154105D01*
X275673Y153687D01*
X275761Y153244D01*
X276012Y152868D01*
X276185Y152451D01*
X276505Y152131D01*
X276756Y151756D01*
X277131Y151505D01*
X277451Y151185D01*
X277868Y151012D01*
X278244Y150761D01*
X278687Y150673D01*
X279105Y150500D01*
X279557D01*
X280000Y150412D01*
X457961D01*
Y140000D01*
X458116Y139220D01*
X458558Y138558D01*
X459220Y138116D01*
X460000Y137961D01*
X691993D01*
X692018Y137966D01*
X692042Y137961D01*
X692408Y138043D01*
X692774Y138116D01*
X692794Y138130D01*
X692819Y138135D01*
X693124Y138350D01*
X693435Y138558D01*
X693449Y138579D01*
X693469Y138593D01*
X693669Y138909D01*
X693877Y139220D01*
X693882Y139244D01*
X693895Y139265D01*
X694230Y140132D01*
X694278Y140407D01*
X694306Y140500D01*
X695694D01*
X695722Y140407D01*
X695770Y140132D01*
X696104Y139265D01*
X696118Y139244D01*
X696123Y139220D01*
X696330Y138909D01*
X696530Y138593D01*
X696551Y138579D01*
X696565Y138558D01*
X696875Y138350D01*
X697181Y138135D01*
X697206Y138130D01*
X697226Y138116D01*
X697592Y138043D01*
X697957Y137961D01*
X697982Y137966D01*
X698007Y137961D01*
X713750D01*
X713920Y137995D01*
X714587Y136384D01*
X716134Y134837D01*
X718156Y134000D01*
X720344D01*
X722365Y134837D01*
X723913Y136384D01*
X724580Y137995D01*
X724750Y137961D01*
X755250D01*
X755420Y137995D01*
X756087Y136384D01*
X757635Y134837D01*
X759656Y134000D01*
X761844D01*
X763866Y134837D01*
X765413Y136384D01*
X766080Y137995D01*
X766250Y137961D01*
X791993D01*
X792018Y137966D01*
X792043Y137961D01*
X792408Y138043D01*
X792774Y138116D01*
X792794Y138130D01*
X792819Y138135D01*
X793125Y138350D01*
X793435Y138558D01*
X793449Y138579D01*
X793470Y138593D01*
X793670Y138909D01*
X793877Y139220D01*
X793882Y139244D01*
X793896Y139265D01*
X794230Y140132D01*
X794278Y140407D01*
X794306Y140500D01*
X795694D01*
X795722Y140407D01*
X795770Y140132D01*
X796104Y139265D01*
X796118Y139244D01*
X796123Y139220D01*
X796330Y138909D01*
X796530Y138593D01*
X796551Y138579D01*
X796565Y138558D01*
X796875Y138351D01*
X797181Y138135D01*
X797206Y138130D01*
X797226Y138116D01*
X797592Y138043D01*
X797957Y137961D01*
X797982Y137966D01*
X798007Y137961D01*
X804981D01*
X805829Y136691D01*
X805500Y135895D01*
Y134105D01*
X806185Y132451D01*
X807451Y131185D01*
X809105Y130500D01*
X810895D01*
X812549Y131185D01*
X813815Y132451D01*
X814500Y134105D01*
Y135895D01*
X814170Y136691D01*
X815019Y137961D01*
X829440D01*
Y134171D01*
X828174Y133326D01*
X826848Y131341D01*
X826383Y129000D01*
Y121000D01*
X826848Y118659D01*
X828174Y116674D01*
X830159Y115348D01*
X832500Y114882D01*
X840500D01*
X842841Y115348D01*
X844826Y116674D01*
X846152Y118659D01*
X846618Y121000D01*
Y129000D01*
X846152Y131341D01*
X844826Y133326D01*
X843561Y134171D01*
Y137961D01*
X945000D01*
X945780Y138116D01*
X946442Y138558D01*
X946884Y139220D01*
X947039Y140000D01*
Y175000D01*
X946952Y175438D01*
X947549Y175685D01*
X948815Y176951D01*
X949500Y178605D01*
Y180395D01*
X948815Y182049D01*
X947549Y183315D01*
X946952Y183562D01*
X947039Y184000D01*
Y190500D01*
X946952Y190938D01*
X947549Y191185D01*
X948815Y192451D01*
X949500Y194105D01*
Y195895D01*
X948815Y197549D01*
X947549Y198815D01*
X946952Y199062D01*
X947039Y199500D01*
Y236993D01*
X947034Y237017D01*
X947039Y237042D01*
X946957Y237407D01*
X946884Y237773D01*
X946870Y237794D01*
X946865Y237818D01*
X946650Y238124D01*
X946442Y238435D01*
X946421Y238449D01*
X946407Y238469D01*
X946092Y238669D01*
X945780Y238877D01*
X945756Y238882D01*
X945735Y238895D01*
X944869Y239230D01*
X944594Y239278D01*
X944500Y239306D01*
Y240694D01*
X944594Y240722D01*
X944869Y240770D01*
X945735Y241105D01*
X945756Y241118D01*
X945780Y241123D01*
X946091Y241331D01*
X946407Y241531D01*
X946421Y241551D01*
X946442Y241565D01*
X946650Y241876D01*
X946865Y242182D01*
X946870Y242206D01*
X946884Y242227D01*
X946957Y242593D01*
X947039Y242958D01*
X947034Y242983D01*
X947039Y243007D01*
Y275317D01*
X946967Y275677D01*
X947752Y276002D01*
X949018Y277268D01*
X949703Y278922D01*
Y280712D01*
X949018Y282366D01*
X947752Y283632D01*
X946098Y284317D01*
X944737D01*
X944500Y284672D01*
Y286261D01*
X944594Y286290D01*
X944869Y286338D01*
X945735Y286672D01*
X945756Y286685D01*
X945780Y286690D01*
X946091Y286898D01*
X946407Y287098D01*
X946421Y287118D01*
X946442Y287132D01*
X946650Y287443D01*
X946865Y287749D01*
X946870Y287773D01*
X946884Y287794D01*
X946957Y288160D01*
X947039Y288525D01*
X947034Y288550D01*
X947039Y288574D01*
Y405550D01*
X986900Y445412D01*
X1215162D01*
Y335000D01*
X1215250Y334557D01*
Y334105D01*
X1215423Y333687D01*
X1215511Y333244D01*
X1215762Y332868D01*
X1215935Y332451D01*
X1216255Y332132D01*
X1216506Y331756D01*
X1216881Y331505D01*
X1217201Y331185D01*
X1217618Y331012D01*
X1217994Y330761D01*
X1218438Y330673D01*
X1218855Y330500D01*
X1219307D01*
X1219750Y330412D01*
X1220193Y330500D01*
X1220434D01*
X1220878Y330412D01*
X1286127D01*
X1286128Y330412D01*
X1299227D01*
X1322883Y306756D01*
X1324372Y305761D01*
X1326127Y305412D01*
X1365000D01*
X1366756Y305761D01*
X1368244Y306756D01*
X1374073Y312584D01*
X1375150Y311865D01*
X1374750Y310900D01*
Y309110D01*
X1375435Y307456D01*
X1376701Y306190D01*
X1378355Y305505D01*
X1380145D01*
X1381799Y306190D01*
X1383065Y307456D01*
X1383750Y309110D01*
Y310900D01*
X1383065Y312554D01*
X1381799Y313820D01*
X1380145Y314505D01*
X1378355D01*
X1377390Y314105D01*
X1376671Y315182D01*
X1393244Y331756D01*
X1394239Y333244D01*
X1394588Y335000D01*
Y376972D01*
X1413028Y395412D01*
X1463189D01*
X1463632Y395500D01*
X1464084D01*
X1464501Y395673D01*
X1464945Y395761D01*
X1465320Y396012D01*
X1465738Y396185D01*
X1466057Y396505D01*
X1466433Y396756D01*
X1466684Y397131D01*
X1467004Y397451D01*
X1467177Y397868D01*
X1467428Y398244D01*
X1467516Y398687D01*
X1467689Y399105D01*
Y399557D01*
X1467777Y400000D01*
X1467689Y400443D01*
Y400895D01*
X1467516Y401313D01*
X1467428Y401756D01*
X1467177Y402132D01*
X1467004Y402549D01*
X1466684Y402868D01*
X1466433Y403244D01*
X1466057Y403495D01*
X1465738Y403815D01*
X1465320Y403988D01*
X1464945Y404239D01*
X1464501Y404327D01*
X1464084Y404500D01*
X1463632D01*
X1463189Y404588D01*
X1411128D01*
X1409372Y404239D01*
X1407883Y403244D01*
X1386756Y382116D01*
X1385761Y380628D01*
X1385412Y378872D01*
Y336900D01*
X1363100Y314588D01*
X1328028D01*
X1304372Y338244D01*
X1302883Y339239D01*
X1301128Y339588D01*
X1291760D01*
X1291507Y340858D01*
X1292299Y341186D01*
X1293564Y342452D01*
X1294250Y344105D01*
Y345896D01*
X1293564Y347550D01*
X1292299Y348815D01*
X1290645Y349501D01*
X1288854D01*
X1287200Y348815D01*
X1285935Y347550D01*
X1285249Y345896D01*
Y344105D01*
X1285935Y342452D01*
X1287200Y341186D01*
X1287992Y340858D01*
X1287739Y339588D01*
X1286129D01*
X1286127Y339588D01*
X1259751D01*
X1259751Y339588D01*
X1259750Y339588D01*
X1224338D01*
Y450000D01*
X1224250Y450443D01*
Y450895D01*
X1224077Y451313D01*
X1223989Y451756D01*
X1223738Y452132D01*
X1223565Y452549D01*
X1223245Y452869D01*
X1222994Y453244D01*
X1222619Y453495D01*
X1222299Y453815D01*
X1221882Y453988D01*
X1221506Y454239D01*
X1221063Y454327D01*
X1220645Y454500D01*
X1220193D01*
X1219750Y454588D01*
D02*
G37*
G36*
X1428997Y323875D02*
X1426002D01*
X1423109Y323100D01*
X1420516Y321602D01*
X1418398Y319484D01*
X1416900Y316891D01*
X1416125Y313998D01*
Y311003D01*
X1416900Y308109D01*
X1418398Y305516D01*
X1420516Y303398D01*
X1423109Y301900D01*
X1426002Y301125D01*
X1428997D01*
X1431891Y301900D01*
X1434484Y303398D01*
X1436602Y305516D01*
X1438100Y308109D01*
X1438875Y311003D01*
Y313998D01*
X1438100Y316891D01*
X1436602Y319484D01*
X1434484Y321602D01*
X1431891Y323100D01*
X1428997Y323875D01*
D02*
G37*
G36*
X73998Y323875D02*
X71002D01*
X68109Y323100D01*
X65516Y321602D01*
X63398Y319484D01*
X61900Y316891D01*
X61125Y313997D01*
Y311003D01*
X61900Y308109D01*
X63398Y305516D01*
X65516Y303398D01*
X68109Y301900D01*
X71002Y301125D01*
X73998D01*
X76891Y301900D01*
X79484Y303398D01*
X81602Y305516D01*
X83100Y308109D01*
X83875Y311003D01*
Y313997D01*
X83100Y316891D01*
X81602Y319484D01*
X79484Y321602D01*
X76891Y323100D01*
X73998Y323875D01*
D02*
G37*
G36*
X1270645Y309500D02*
X1268855D01*
X1267200Y308815D01*
X1265935Y307549D01*
X1265250Y305895D01*
Y304105D01*
X1265935Y302451D01*
X1267200Y301185D01*
X1268855Y300500D01*
X1270645D01*
X1272299Y301185D01*
X1273565Y302451D01*
X1274249Y304105D01*
Y305895D01*
X1273565Y307549D01*
X1272299Y308815D01*
X1270645Y309500D01*
D02*
G37*
G36*
X1310896Y309500D02*
X1309105D01*
X1307451Y308815D01*
X1306185Y307549D01*
X1305500Y305895D01*
Y304104D01*
X1306185Y302451D01*
X1307451Y301185D01*
X1309105Y300500D01*
X1310896D01*
X1312549Y301185D01*
X1313815Y302451D01*
X1314500Y304104D01*
Y305895D01*
X1313815Y307549D01*
X1312549Y308815D01*
X1310896Y309500D01*
D02*
G37*
G36*
X1453997Y323875D02*
X1451002D01*
X1448109Y323100D01*
X1445516Y321602D01*
X1443398Y319484D01*
X1441900Y316891D01*
X1441125Y313998D01*
Y311003D01*
X1441900Y308109D01*
X1443398Y305516D01*
X1445516Y303398D01*
X1448109Y301900D01*
X1451002Y301125D01*
X1453997D01*
X1456806Y301878D01*
X1457408Y301538D01*
X1457924Y301142D01*
X1457900Y301053D01*
Y298947D01*
X1457924Y298858D01*
X1457408Y298462D01*
X1456806Y298123D01*
X1453997Y298875D01*
X1451002D01*
X1448109Y298100D01*
X1445516Y296602D01*
X1443398Y294484D01*
X1441900Y291891D01*
X1441125Y288998D01*
Y286003D01*
X1441900Y283109D01*
X1443398Y280516D01*
X1445516Y278398D01*
X1448109Y276900D01*
X1451002Y276125D01*
X1453997D01*
X1456891Y276900D01*
X1459484Y278398D01*
X1461602Y280516D01*
X1463100Y283109D01*
X1463875Y286003D01*
Y288998D01*
X1463313Y291096D01*
X1464350Y292133D01*
X1464847Y292000D01*
X1466953D01*
X1468988Y292545D01*
X1470812Y293598D01*
X1472302Y295088D01*
X1473355Y296912D01*
X1473900Y298947D01*
Y301053D01*
X1473355Y303088D01*
X1472302Y304912D01*
X1470812Y306402D01*
X1468988Y307455D01*
X1466953Y308000D01*
X1464847D01*
X1464350Y307867D01*
X1463313Y308904D01*
X1463875Y311003D01*
Y313998D01*
X1463100Y316891D01*
X1461602Y319484D01*
X1459484Y321602D01*
X1456891Y323100D01*
X1453997Y323875D01*
D02*
G37*
G36*
X1140895Y304500D02*
X1139105D01*
X1137451Y303815D01*
X1136185Y302549D01*
X1135500Y300895D01*
Y299105D01*
X1136185Y297451D01*
X1137451Y296185D01*
X1139105Y295500D01*
X1140895D01*
X1142549Y296185D01*
X1143815Y297451D01*
X1144500Y299105D01*
Y300895D01*
X1143815Y302549D01*
X1142549Y303815D01*
X1140895Y304500D01*
D02*
G37*
G36*
X1125895D02*
X1124105D01*
X1122451Y303815D01*
X1121185Y302549D01*
X1120500Y300895D01*
Y299105D01*
X1121185Y297451D01*
X1122451Y296185D01*
X1124105Y295500D01*
X1125895D01*
X1127549Y296185D01*
X1128815Y297451D01*
X1129500Y299105D01*
Y300895D01*
X1128815Y302549D01*
X1127549Y303815D01*
X1125895Y304500D01*
D02*
G37*
G36*
X1110895D02*
X1109105D01*
X1107451Y303815D01*
X1106185Y302549D01*
X1105500Y300895D01*
Y299105D01*
X1106185Y297451D01*
X1107451Y296185D01*
X1109105Y295500D01*
X1110895D01*
X1112549Y296185D01*
X1113815Y297451D01*
X1114500Y299105D01*
Y300895D01*
X1113815Y302549D01*
X1112549Y303815D01*
X1110895Y304500D01*
D02*
G37*
G36*
X1035895D02*
X1034105D01*
X1032451Y303815D01*
X1031185Y302549D01*
X1030500Y300895D01*
Y299105D01*
X1031185Y297451D01*
X1032451Y296185D01*
X1034105Y295500D01*
X1035895D01*
X1037549Y296185D01*
X1038815Y297451D01*
X1039500Y299105D01*
Y300895D01*
X1038815Y302549D01*
X1037549Y303815D01*
X1035895Y304500D01*
D02*
G37*
G36*
X450895D02*
X449105D01*
X447451Y303815D01*
X446185Y302549D01*
X445500Y300895D01*
Y299105D01*
X446185Y297451D01*
X447451Y296185D01*
X449105Y295500D01*
X450895D01*
X452549Y296185D01*
X453815Y297451D01*
X454500Y299105D01*
Y300895D01*
X453815Y302549D01*
X452549Y303815D01*
X450895Y304500D01*
D02*
G37*
G36*
X435895D02*
X434105D01*
X432451Y303815D01*
X431185Y302549D01*
X430500Y300895D01*
Y299105D01*
X431185Y297451D01*
X432451Y296185D01*
X434105Y295500D01*
X435895D01*
X437549Y296185D01*
X438815Y297451D01*
X439500Y299105D01*
Y300895D01*
X438815Y302549D01*
X437549Y303815D01*
X435895Y304500D01*
D02*
G37*
G36*
X420895D02*
X419105D01*
X417451Y303815D01*
X416185Y302549D01*
X415500Y300895D01*
Y299105D01*
X416185Y297451D01*
X417451Y296185D01*
X419105Y295500D01*
X420895D01*
X422549Y296185D01*
X423815Y297451D01*
X424500Y299105D01*
Y300895D01*
X423815Y302549D01*
X422549Y303815D01*
X420895Y304500D01*
D02*
G37*
G36*
X360895D02*
X359105D01*
X357451Y303815D01*
X356185Y302549D01*
X355500Y300895D01*
Y299105D01*
X356185Y297451D01*
X357451Y296185D01*
X359105Y295500D01*
X360895D01*
X362549Y296185D01*
X363815Y297451D01*
X364500Y299105D01*
Y300895D01*
X363815Y302549D01*
X362549Y303815D01*
X360895Y304500D01*
D02*
G37*
G36*
X345895D02*
X344105D01*
X342451Y303815D01*
X341185Y302549D01*
X340500Y300895D01*
Y299105D01*
X341185Y297451D01*
X342451Y296185D01*
X344105Y295500D01*
X345895D01*
X347549Y296185D01*
X348815Y297451D01*
X349500Y299105D01*
Y300895D01*
X348815Y302549D01*
X347549Y303815D01*
X345895Y304500D01*
D02*
G37*
G36*
X330895D02*
X329105D01*
X327451Y303815D01*
X326185Y302549D01*
X325500Y300895D01*
Y299105D01*
X326185Y297451D01*
X327451Y296185D01*
X329105Y295500D01*
X330895D01*
X332549Y296185D01*
X333815Y297451D01*
X334500Y299105D01*
Y300895D01*
X333815Y302549D01*
X332549Y303815D01*
X330895Y304500D01*
D02*
G37*
G36*
X231146Y299500D02*
X229355D01*
X227701Y298815D01*
X226436Y297549D01*
X225751Y295895D01*
Y294105D01*
X226436Y292451D01*
X227701Y291185D01*
X229355Y290500D01*
X231146D01*
X232799Y291185D01*
X234065Y292451D01*
X234750Y294105D01*
Y295895D01*
X234065Y297549D01*
X232799Y298815D01*
X231146Y299500D01*
D02*
G37*
G36*
X191146D02*
X189356D01*
X187701Y298815D01*
X186436Y297549D01*
X185751Y295895D01*
Y294105D01*
X186436Y292451D01*
X187701Y291185D01*
X189356Y290500D01*
X191146D01*
X192800Y291185D01*
X194065Y292451D01*
X194751Y294105D01*
Y295895D01*
X194065Y297549D01*
X192800Y298815D01*
X191146Y299500D01*
D02*
G37*
G36*
X990764Y295869D02*
X988974D01*
X987320Y295184D01*
X986054Y293918D01*
X985369Y292264D01*
Y290474D01*
X986054Y288820D01*
X987320Y287554D01*
X988974Y286869D01*
X990764D01*
X992418Y287554D01*
X993684Y288820D01*
X994369Y290474D01*
Y292264D01*
X993684Y293918D01*
X992418Y295184D01*
X990764Y295869D01*
D02*
G37*
G36*
X1016270Y289929D02*
Y286270D01*
X1019929D01*
X1019273Y287855D01*
X1017855Y289273D01*
X1016270Y289929D01*
D02*
G37*
G36*
X1013730D02*
X1012145Y289273D01*
X1010727Y287855D01*
X1010071Y286270D01*
X1013730D01*
Y289929D01*
D02*
G37*
G36*
X1335895Y289500D02*
X1334104D01*
X1332451Y288815D01*
X1331185Y287549D01*
X1330500Y285895D01*
Y284105D01*
X1331185Y282451D01*
X1332451Y281185D01*
X1334104Y280500D01*
X1335895D01*
X1337549Y281185D01*
X1338815Y282451D01*
X1339500Y284105D01*
Y285895D01*
X1338815Y287549D01*
X1337549Y288815D01*
X1335895Y289500D01*
D02*
G37*
G36*
X1275895D02*
X1274105D01*
X1272451Y288815D01*
X1271185Y287549D01*
X1270500Y285895D01*
Y284105D01*
X1271185Y282451D01*
X1272451Y281185D01*
X1274105Y280500D01*
X1275895D01*
X1277549Y281185D01*
X1278814Y282451D01*
X1279500Y284105D01*
Y285895D01*
X1278814Y287549D01*
X1277549Y288815D01*
X1275895Y289500D01*
D02*
G37*
G36*
X1260895D02*
X1259105D01*
X1257451Y288815D01*
X1256185Y287549D01*
X1255500Y285895D01*
Y284105D01*
X1256185Y282451D01*
X1257451Y281185D01*
X1259105Y280500D01*
X1260895D01*
X1262549Y281185D01*
X1263814Y282451D01*
X1264500Y284105D01*
Y285895D01*
X1263814Y287549D01*
X1262549Y288815D01*
X1260895Y289500D01*
D02*
G37*
G36*
X1245895D02*
X1244105D01*
X1242451Y288815D01*
X1241185Y287549D01*
X1240500Y285895D01*
Y284105D01*
X1241185Y282451D01*
X1242451Y281185D01*
X1244105Y280500D01*
X1245895D01*
X1247549Y281185D01*
X1248814Y282451D01*
X1249500Y284105D01*
Y285895D01*
X1248814Y287549D01*
X1247549Y288815D01*
X1245895Y289500D01*
D02*
G37*
G36*
X1230895D02*
X1229105D01*
X1227451Y288815D01*
X1226185Y287549D01*
X1225500Y285895D01*
Y284105D01*
X1226185Y282451D01*
X1227451Y281185D01*
X1229105Y280500D01*
X1230895D01*
X1232549Y281185D01*
X1233814Y282451D01*
X1234500Y284105D01*
Y285895D01*
X1233814Y287549D01*
X1232549Y288815D01*
X1230895Y289500D01*
D02*
G37*
G36*
X1170895D02*
X1169105D01*
X1167451Y288815D01*
X1166185Y287549D01*
X1165500Y285895D01*
Y284105D01*
X1166185Y282451D01*
X1167451Y281185D01*
X1169105Y280500D01*
X1170895D01*
X1172549Y281185D01*
X1173814Y282451D01*
X1174500Y284105D01*
Y285895D01*
X1173814Y287549D01*
X1172549Y288815D01*
X1170895Y289500D01*
D02*
G37*
G36*
X1155895D02*
X1154105D01*
X1152451Y288815D01*
X1151185Y287549D01*
X1150500Y285895D01*
Y284105D01*
X1151185Y282451D01*
X1152451Y281185D01*
X1154105Y280500D01*
X1155895D01*
X1157549Y281185D01*
X1158814Y282451D01*
X1159500Y284105D01*
Y285895D01*
X1158814Y287549D01*
X1157549Y288815D01*
X1155895Y289500D01*
D02*
G37*
G36*
X1140895D02*
X1139105D01*
X1137451Y288815D01*
X1136185Y287549D01*
X1135500Y285895D01*
Y284105D01*
X1136185Y282451D01*
X1137451Y281185D01*
X1139105Y280500D01*
X1140895D01*
X1142549Y281185D01*
X1143815Y282451D01*
X1144500Y284105D01*
Y285895D01*
X1143815Y287549D01*
X1142549Y288815D01*
X1140895Y289500D01*
D02*
G37*
G36*
X1125895D02*
X1124105D01*
X1122451Y288815D01*
X1121185Y287549D01*
X1120500Y285895D01*
Y284105D01*
X1121185Y282451D01*
X1122451Y281185D01*
X1124105Y280500D01*
X1125895D01*
X1127549Y281185D01*
X1128815Y282451D01*
X1129500Y284105D01*
Y285895D01*
X1128815Y287549D01*
X1127549Y288815D01*
X1125895Y289500D01*
D02*
G37*
G36*
X1110895D02*
X1109105D01*
X1107451Y288815D01*
X1106185Y287549D01*
X1105500Y285895D01*
Y284105D01*
X1106185Y282451D01*
X1107451Y281185D01*
X1109105Y280500D01*
X1110895D01*
X1112549Y281185D01*
X1113815Y282451D01*
X1114500Y284105D01*
Y285895D01*
X1113815Y287549D01*
X1112549Y288815D01*
X1110895Y289500D01*
D02*
G37*
G36*
X1095895D02*
X1094105D01*
X1092451Y288815D01*
X1091185Y287549D01*
X1090500Y285895D01*
Y284105D01*
X1091185Y282451D01*
X1092451Y281185D01*
X1094105Y280500D01*
X1095895D01*
X1097549Y281185D01*
X1098815Y282451D01*
X1099500Y284105D01*
Y285895D01*
X1098815Y287549D01*
X1097549Y288815D01*
X1095895Y289500D01*
D02*
G37*
G36*
X280895Y289500D02*
X279105D01*
X277451Y288815D01*
X276185Y287549D01*
X275500Y285895D01*
Y284105D01*
X276185Y282451D01*
X277451Y281185D01*
X279105Y280500D01*
X280895D01*
X282549Y281185D01*
X283815Y282451D01*
X284500Y284105D01*
Y285895D01*
X283815Y287549D01*
X282549Y288815D01*
X280895Y289500D01*
D02*
G37*
G36*
X240895D02*
X239104D01*
X237451Y288815D01*
X236185Y287549D01*
X235500Y285895D01*
Y284105D01*
X236185Y282451D01*
X237451Y281185D01*
X239104Y280500D01*
X240895D01*
X242549Y281185D01*
X243815Y282451D01*
X244500Y284105D01*
Y285895D01*
X243815Y287549D01*
X242549Y288815D01*
X240895Y289500D01*
D02*
G37*
G36*
X1019929Y283730D02*
X1016270D01*
Y280071D01*
X1017855Y280727D01*
X1019273Y282145D01*
X1019929Y283730D01*
D02*
G37*
G36*
X1013730D02*
X1010071D01*
X1010727Y282145D01*
X1012145Y280727D01*
X1013730Y280071D01*
Y283730D01*
D02*
G37*
G36*
X1428997Y298875D02*
X1426002D01*
X1423109Y298100D01*
X1420516Y296602D01*
X1418398Y294484D01*
X1416900Y291891D01*
X1416125Y288998D01*
Y286003D01*
X1416900Y283109D01*
X1418398Y280516D01*
X1420516Y278398D01*
X1423109Y276900D01*
X1426002Y276125D01*
X1428997D01*
X1431891Y276900D01*
X1434484Y278398D01*
X1436602Y280516D01*
X1438100Y283109D01*
X1438875Y286003D01*
Y288998D01*
X1438100Y291891D01*
X1436602Y294484D01*
X1434484Y296602D01*
X1431891Y298100D01*
X1428997Y298875D01*
D02*
G37*
G36*
X73998Y298875D02*
X71002D01*
X68109Y298100D01*
X65516Y296602D01*
X63398Y294484D01*
X61900Y291891D01*
X61125Y288997D01*
Y286003D01*
X61900Y283109D01*
X63398Y280516D01*
X65516Y278398D01*
X68109Y276900D01*
X71002Y276125D01*
X73998D01*
X76891Y276900D01*
X79484Y278398D01*
X81602Y280516D01*
X83100Y283109D01*
X83875Y286003D01*
Y288997D01*
X83100Y291891D01*
X81602Y294484D01*
X79484Y296602D01*
X76891Y298100D01*
X73998Y298875D01*
D02*
G37*
G36*
X121645Y279500D02*
X119855D01*
X118201Y278815D01*
X116935Y277549D01*
X116250Y275895D01*
Y274105D01*
X116935Y272451D01*
X118201Y271185D01*
X119855Y270500D01*
X121645D01*
X123299Y271185D01*
X124565Y272451D01*
X125250Y274105D01*
Y275895D01*
X124565Y277549D01*
X123299Y278815D01*
X121645Y279500D01*
D02*
G37*
G36*
X1290895Y274500D02*
X1289104D01*
X1287451Y273815D01*
X1286185Y272549D01*
X1285500Y270895D01*
Y269105D01*
X1286185Y267451D01*
X1287451Y266185D01*
X1289104Y265500D01*
X1290895D01*
X1292549Y266185D01*
X1293815Y267451D01*
X1294500Y269105D01*
Y270895D01*
X1293815Y272549D01*
X1292549Y273815D01*
X1290895Y274500D01*
D02*
G37*
G36*
X1275895D02*
X1274105D01*
X1272451Y273815D01*
X1271185Y272549D01*
X1270500Y270895D01*
Y269105D01*
X1271185Y267451D01*
X1272451Y266185D01*
X1274105Y265500D01*
X1275895D01*
X1277549Y266185D01*
X1278814Y267451D01*
X1279500Y269105D01*
Y270895D01*
X1278814Y272549D01*
X1277549Y273815D01*
X1275895Y274500D01*
D02*
G37*
G36*
X1260895D02*
X1259105D01*
X1257451Y273815D01*
X1256185Y272549D01*
X1255500Y270895D01*
Y269105D01*
X1256185Y267451D01*
X1257451Y266185D01*
X1259105Y265500D01*
X1260895D01*
X1262549Y266185D01*
X1263814Y267451D01*
X1264500Y269105D01*
Y270895D01*
X1263814Y272549D01*
X1262549Y273815D01*
X1260895Y274500D01*
D02*
G37*
G36*
X1245895D02*
X1244105D01*
X1242451Y273815D01*
X1241185Y272549D01*
X1240500Y270895D01*
Y269105D01*
X1241185Y267451D01*
X1242451Y266185D01*
X1244105Y265500D01*
X1245895D01*
X1247549Y266185D01*
X1248814Y267451D01*
X1249500Y269105D01*
Y270895D01*
X1248814Y272549D01*
X1247549Y273815D01*
X1245895Y274500D01*
D02*
G37*
G36*
X1230895D02*
X1229105D01*
X1227451Y273815D01*
X1226185Y272549D01*
X1225500Y270895D01*
Y269105D01*
X1226185Y267451D01*
X1227451Y266185D01*
X1229105Y265500D01*
X1230895D01*
X1232549Y266185D01*
X1233814Y267451D01*
X1234500Y269105D01*
Y270895D01*
X1233814Y272549D01*
X1232549Y273815D01*
X1230895Y274500D01*
D02*
G37*
G36*
X1215895D02*
X1214105D01*
X1212451Y273815D01*
X1211185Y272549D01*
X1210500Y270895D01*
Y269105D01*
X1211185Y267451D01*
X1212451Y266185D01*
X1214105Y265500D01*
X1215895D01*
X1217549Y266185D01*
X1218814Y267451D01*
X1219500Y269105D01*
Y270895D01*
X1218814Y272549D01*
X1217549Y273815D01*
X1215895Y274500D01*
D02*
G37*
G36*
X1200895D02*
X1199105D01*
X1197451Y273815D01*
X1196185Y272549D01*
X1195500Y270895D01*
Y269105D01*
X1196185Y267451D01*
X1197451Y266185D01*
X1199105Y265500D01*
X1200895D01*
X1202549Y266185D01*
X1203814Y267451D01*
X1204500Y269105D01*
Y270895D01*
X1203814Y272549D01*
X1202549Y273815D01*
X1200895Y274500D01*
D02*
G37*
G36*
X1185895D02*
X1184105D01*
X1182451Y273815D01*
X1181185Y272549D01*
X1180500Y270895D01*
Y269105D01*
X1181185Y267451D01*
X1182451Y266185D01*
X1184105Y265500D01*
X1185895D01*
X1187549Y266185D01*
X1188814Y267451D01*
X1189500Y269105D01*
Y270895D01*
X1188814Y272549D01*
X1187549Y273815D01*
X1185895Y274500D01*
D02*
G37*
G36*
X1170895D02*
X1169105D01*
X1167451Y273815D01*
X1166185Y272549D01*
X1165500Y270895D01*
Y269105D01*
X1166185Y267451D01*
X1167451Y266185D01*
X1169105Y265500D01*
X1170895D01*
X1172549Y266185D01*
X1173814Y267451D01*
X1174500Y269105D01*
Y270895D01*
X1173814Y272549D01*
X1172549Y273815D01*
X1170895Y274500D01*
D02*
G37*
G36*
X1155895D02*
X1154105D01*
X1152451Y273815D01*
X1151185Y272549D01*
X1150500Y270895D01*
Y269105D01*
X1151185Y267451D01*
X1152451Y266185D01*
X1154105Y265500D01*
X1155895D01*
X1157549Y266185D01*
X1158814Y267451D01*
X1159500Y269105D01*
Y270895D01*
X1158814Y272549D01*
X1157549Y273815D01*
X1155895Y274500D01*
D02*
G37*
G36*
X1140895D02*
X1139105D01*
X1137451Y273815D01*
X1136185Y272549D01*
X1135500Y270895D01*
Y269105D01*
X1136185Y267451D01*
X1137451Y266185D01*
X1139105Y265500D01*
X1140895D01*
X1142549Y266185D01*
X1143815Y267451D01*
X1144500Y269105D01*
Y270895D01*
X1143815Y272549D01*
X1142549Y273815D01*
X1140895Y274500D01*
D02*
G37*
G36*
X1125895D02*
X1124105D01*
X1122451Y273815D01*
X1121185Y272549D01*
X1120500Y270895D01*
Y269105D01*
X1121185Y267451D01*
X1122451Y266185D01*
X1124105Y265500D01*
X1125895D01*
X1127549Y266185D01*
X1128815Y267451D01*
X1129500Y269105D01*
Y270895D01*
X1128815Y272549D01*
X1127549Y273815D01*
X1125895Y274500D01*
D02*
G37*
G36*
X1110895D02*
X1109105D01*
X1107451Y273815D01*
X1106185Y272549D01*
X1105500Y270895D01*
Y269105D01*
X1106185Y267451D01*
X1107451Y266185D01*
X1109105Y265500D01*
X1110895D01*
X1112549Y266185D01*
X1113815Y267451D01*
X1114500Y269105D01*
Y270895D01*
X1113815Y272549D01*
X1112549Y273815D01*
X1110895Y274500D01*
D02*
G37*
G36*
X1095895D02*
X1094105D01*
X1092451Y273815D01*
X1091185Y272549D01*
X1090500Y270895D01*
Y269105D01*
X1091185Y267451D01*
X1092451Y266185D01*
X1094105Y265500D01*
X1095895D01*
X1097549Y266185D01*
X1098815Y267451D01*
X1099500Y269105D01*
Y270895D01*
X1098815Y272549D01*
X1097549Y273815D01*
X1095895Y274500D01*
D02*
G37*
G36*
X1080895D02*
X1079105D01*
X1077451Y273815D01*
X1076185Y272549D01*
X1075500Y270895D01*
Y269105D01*
X1076185Y267451D01*
X1077451Y266185D01*
X1079105Y265500D01*
X1080895D01*
X1082549Y266185D01*
X1083815Y267451D01*
X1084500Y269105D01*
Y270895D01*
X1083815Y272549D01*
X1082549Y273815D01*
X1080895Y274500D01*
D02*
G37*
G36*
X15895D02*
X14105D01*
X12451Y273815D01*
X11185Y272549D01*
X10500Y270895D01*
Y269105D01*
X11185Y267451D01*
X12451Y266185D01*
X14105Y265500D01*
X15895D01*
X17549Y266185D01*
X18815Y267451D01*
X19500Y269105D01*
Y270895D01*
X18815Y272549D01*
X17549Y273815D01*
X15895Y274500D01*
D02*
G37*
G36*
X365895Y264500D02*
X364105D01*
X362451Y263815D01*
X361185Y262549D01*
X360500Y260895D01*
Y259105D01*
X361185Y257451D01*
X362451Y256185D01*
X364105Y255500D01*
X365895D01*
X367549Y256185D01*
X368815Y257451D01*
X369500Y259105D01*
Y260895D01*
X368815Y262549D01*
X367549Y263815D01*
X365895Y264500D01*
D02*
G37*
G36*
X350895D02*
X349105D01*
X347451Y263815D01*
X346185Y262549D01*
X345500Y260895D01*
Y259105D01*
X346185Y257451D01*
X347451Y256185D01*
X349105Y255500D01*
X350895D01*
X352549Y256185D01*
X353815Y257451D01*
X354500Y259105D01*
Y260895D01*
X353815Y262549D01*
X352549Y263815D01*
X350895Y264500D01*
D02*
G37*
G36*
X1453997Y273875D02*
X1451002D01*
X1448109Y273100D01*
X1445516Y271602D01*
X1443398Y269484D01*
X1441900Y266891D01*
X1441125Y263998D01*
Y261003D01*
X1441900Y258109D01*
X1443398Y255516D01*
X1445516Y253398D01*
X1448109Y251900D01*
X1451002Y251125D01*
X1453997D01*
X1456891Y251900D01*
X1459484Y253398D01*
X1461602Y255516D01*
X1463100Y258109D01*
X1463875Y261003D01*
Y263998D01*
X1463100Y266891D01*
X1461602Y269484D01*
X1459484Y271602D01*
X1456891Y273100D01*
X1453997Y273875D01*
D02*
G37*
G36*
X1428997D02*
X1426002D01*
X1423109Y273100D01*
X1420516Y271602D01*
X1418398Y269484D01*
X1416900Y266891D01*
X1416125Y263998D01*
Y261003D01*
X1416900Y258109D01*
X1418398Y255516D01*
X1420516Y253398D01*
X1423109Y251900D01*
X1426002Y251125D01*
X1428997D01*
X1431891Y251900D01*
X1434484Y253398D01*
X1436602Y255516D01*
X1438100Y258109D01*
X1438875Y261003D01*
Y263998D01*
X1438100Y266891D01*
X1436602Y269484D01*
X1434484Y271602D01*
X1431891Y273100D01*
X1428997Y273875D01*
D02*
G37*
G36*
X73998Y273875D02*
X71002D01*
X68109Y273100D01*
X65516Y271602D01*
X63398Y269484D01*
X61900Y266891D01*
X61125Y263997D01*
Y261002D01*
X61900Y258109D01*
X63398Y255516D01*
X65516Y253398D01*
X68109Y251900D01*
X71002Y251125D01*
X73998D01*
X76891Y251900D01*
X79484Y253398D01*
X81602Y255516D01*
X83100Y258109D01*
X83875Y261002D01*
Y263997D01*
X83100Y266891D01*
X81602Y269484D01*
X79484Y271602D01*
X76891Y273100D01*
X73998Y273875D01*
D02*
G37*
G36*
X48998D02*
X46002D01*
X43109Y273100D01*
X40516Y271602D01*
X38398Y269484D01*
X36900Y266891D01*
X36125Y263997D01*
Y261002D01*
X36900Y258109D01*
X38398Y255516D01*
X40516Y253398D01*
X43109Y251900D01*
X46002Y251125D01*
X48998D01*
X51891Y251900D01*
X54484Y253398D01*
X56602Y255516D01*
X58100Y258109D01*
X58875Y261002D01*
Y263997D01*
X58100Y266891D01*
X56602Y269484D01*
X54484Y271602D01*
X51891Y273100D01*
X48998Y273875D01*
D02*
G37*
G36*
X1396270Y254679D02*
Y251020D01*
X1399929D01*
X1399273Y252605D01*
X1397855Y254023D01*
X1396270Y254679D01*
D02*
G37*
G36*
X1393730D02*
X1392145Y254023D01*
X1390727Y252605D01*
X1390071Y251020D01*
X1393730D01*
Y254679D01*
D02*
G37*
G36*
X955895Y279500D02*
X954105D01*
X952451Y278815D01*
X951185Y277549D01*
X950500Y275895D01*
Y274105D01*
X951185Y272451D01*
X952451Y271185D01*
X953686Y270674D01*
Y269327D01*
X952451Y268815D01*
X951185Y267549D01*
X950500Y265895D01*
Y264105D01*
X951185Y262451D01*
X952451Y261185D01*
X953686Y260674D01*
Y259327D01*
X952451Y258815D01*
X951185Y257549D01*
X950500Y255895D01*
Y254105D01*
X951185Y252451D01*
X952451Y251185D01*
X954105Y250500D01*
X955895D01*
X957549Y251185D01*
X958815Y252451D01*
X959500Y254105D01*
Y255895D01*
X958815Y257549D01*
X957549Y258815D01*
X956313Y259327D01*
Y260674D01*
X957549Y261185D01*
X958815Y262451D01*
X959500Y264105D01*
Y265895D01*
X958815Y267549D01*
X957549Y268815D01*
X956313Y269327D01*
Y270674D01*
X957549Y271185D01*
X958815Y272451D01*
X959500Y274105D01*
Y275895D01*
X958815Y277549D01*
X957549Y278815D01*
X955895Y279500D01*
D02*
G37*
G36*
X335895Y259500D02*
X334105D01*
X332451Y258815D01*
X331185Y257549D01*
X330500Y255895D01*
Y254105D01*
X331185Y252451D01*
X332451Y251185D01*
X334105Y250500D01*
X335895D01*
X337549Y251185D01*
X338815Y252451D01*
X339500Y254105D01*
Y255895D01*
X338815Y257549D01*
X337549Y258815D01*
X335895Y259500D01*
D02*
G37*
G36*
X1305895Y259500D02*
X1304104D01*
X1302451Y258815D01*
X1301185Y257549D01*
X1300500Y255895D01*
Y254105D01*
X1301185Y252451D01*
X1302451Y251185D01*
X1304104Y250500D01*
X1305895D01*
X1307549Y251185D01*
X1308815Y252451D01*
X1309500Y254105D01*
Y255895D01*
X1308815Y257549D01*
X1307549Y258815D01*
X1305895Y259500D01*
D02*
G37*
G36*
X1290895D02*
X1289104D01*
X1287451Y258815D01*
X1286185Y257549D01*
X1285500Y255895D01*
Y254105D01*
X1286185Y252451D01*
X1287451Y251185D01*
X1289104Y250500D01*
X1290895D01*
X1292549Y251185D01*
X1293815Y252451D01*
X1294500Y254105D01*
Y255895D01*
X1293815Y257549D01*
X1292549Y258815D01*
X1290895Y259500D01*
D02*
G37*
G36*
X1275895D02*
X1274105D01*
X1272451Y258815D01*
X1271185Y257549D01*
X1270500Y255895D01*
Y254105D01*
X1271185Y252451D01*
X1272451Y251185D01*
X1274105Y250500D01*
X1275895D01*
X1277549Y251185D01*
X1278814Y252451D01*
X1279500Y254105D01*
Y255895D01*
X1278814Y257549D01*
X1277549Y258815D01*
X1275895Y259500D01*
D02*
G37*
G36*
X1260895D02*
X1259105D01*
X1257451Y258815D01*
X1256185Y257549D01*
X1255500Y255895D01*
Y254105D01*
X1256185Y252451D01*
X1257451Y251185D01*
X1259105Y250500D01*
X1260895D01*
X1262549Y251185D01*
X1263814Y252451D01*
X1264500Y254105D01*
Y255895D01*
X1263814Y257549D01*
X1262549Y258815D01*
X1260895Y259500D01*
D02*
G37*
G36*
X1245895D02*
X1244105D01*
X1242451Y258815D01*
X1241185Y257549D01*
X1240500Y255895D01*
Y254105D01*
X1241185Y252451D01*
X1242451Y251185D01*
X1244105Y250500D01*
X1245895D01*
X1247549Y251185D01*
X1248814Y252451D01*
X1249500Y254105D01*
Y255895D01*
X1248814Y257549D01*
X1247549Y258815D01*
X1245895Y259500D01*
D02*
G37*
G36*
X1230895D02*
X1229105D01*
X1227451Y258815D01*
X1226185Y257549D01*
X1225500Y255895D01*
Y254105D01*
X1226185Y252451D01*
X1227451Y251185D01*
X1229105Y250500D01*
X1230895D01*
X1232549Y251185D01*
X1233814Y252451D01*
X1234500Y254105D01*
Y255895D01*
X1233814Y257549D01*
X1232549Y258815D01*
X1230895Y259500D01*
D02*
G37*
G36*
X1215895D02*
X1214105D01*
X1212451Y258815D01*
X1211185Y257549D01*
X1210500Y255895D01*
Y254105D01*
X1211185Y252451D01*
X1212451Y251185D01*
X1214105Y250500D01*
X1215895D01*
X1217549Y251185D01*
X1218814Y252451D01*
X1219500Y254105D01*
Y255895D01*
X1218814Y257549D01*
X1217549Y258815D01*
X1215895Y259500D01*
D02*
G37*
G36*
X1200895D02*
X1199105D01*
X1197451Y258815D01*
X1196185Y257549D01*
X1195500Y255895D01*
Y254105D01*
X1196185Y252451D01*
X1197451Y251185D01*
X1199105Y250500D01*
X1200895D01*
X1202549Y251185D01*
X1203814Y252451D01*
X1204500Y254105D01*
Y255895D01*
X1203814Y257549D01*
X1202549Y258815D01*
X1200895Y259500D01*
D02*
G37*
G36*
X1185895D02*
X1184105D01*
X1182451Y258815D01*
X1181185Y257549D01*
X1180500Y255895D01*
Y254105D01*
X1181185Y252451D01*
X1182451Y251185D01*
X1184105Y250500D01*
X1185895D01*
X1187549Y251185D01*
X1188814Y252451D01*
X1189500Y254105D01*
Y255895D01*
X1188814Y257549D01*
X1187549Y258815D01*
X1185895Y259500D01*
D02*
G37*
G36*
X1170895D02*
X1169105D01*
X1167451Y258815D01*
X1166185Y257549D01*
X1165500Y255895D01*
Y254105D01*
X1166185Y252451D01*
X1167451Y251185D01*
X1169105Y250500D01*
X1170895D01*
X1172549Y251185D01*
X1173814Y252451D01*
X1174500Y254105D01*
Y255895D01*
X1173814Y257549D01*
X1172549Y258815D01*
X1170895Y259500D01*
D02*
G37*
G36*
X1155895D02*
X1154105D01*
X1152451Y258815D01*
X1151185Y257549D01*
X1150500Y255895D01*
Y254105D01*
X1151185Y252451D01*
X1152451Y251185D01*
X1154105Y250500D01*
X1155895D01*
X1157549Y251185D01*
X1158814Y252451D01*
X1159500Y254105D01*
Y255895D01*
X1158814Y257549D01*
X1157549Y258815D01*
X1155895Y259500D01*
D02*
G37*
G36*
X1140895D02*
X1139105D01*
X1137451Y258815D01*
X1136185Y257549D01*
X1135500Y255895D01*
Y254105D01*
X1136185Y252451D01*
X1137451Y251185D01*
X1139105Y250500D01*
X1140895D01*
X1142549Y251185D01*
X1143815Y252451D01*
X1144500Y254105D01*
Y255895D01*
X1143815Y257549D01*
X1142549Y258815D01*
X1140895Y259500D01*
D02*
G37*
G36*
X1125895D02*
X1124105D01*
X1122451Y258815D01*
X1121185Y257549D01*
X1120500Y255895D01*
Y254105D01*
X1121185Y252451D01*
X1122451Y251185D01*
X1124105Y250500D01*
X1125895D01*
X1127549Y251185D01*
X1128815Y252451D01*
X1129500Y254105D01*
Y255895D01*
X1128815Y257549D01*
X1127549Y258815D01*
X1125895Y259500D01*
D02*
G37*
G36*
X1110895D02*
X1109105D01*
X1107451Y258815D01*
X1106185Y257549D01*
X1105500Y255895D01*
Y254105D01*
X1106185Y252451D01*
X1107451Y251185D01*
X1109105Y250500D01*
X1110895D01*
X1112549Y251185D01*
X1113815Y252451D01*
X1114500Y254105D01*
Y255895D01*
X1113815Y257549D01*
X1112549Y258815D01*
X1110895Y259500D01*
D02*
G37*
G36*
X1095895D02*
X1094105D01*
X1092451Y258815D01*
X1091185Y257549D01*
X1090500Y255895D01*
Y254105D01*
X1091185Y252451D01*
X1092451Y251185D01*
X1094105Y250500D01*
X1095895D01*
X1097549Y251185D01*
X1098815Y252451D01*
X1099500Y254105D01*
Y255895D01*
X1098815Y257549D01*
X1097549Y258815D01*
X1095895Y259500D01*
D02*
G37*
G36*
X1080895D02*
X1079105D01*
X1077451Y258815D01*
X1076185Y257549D01*
X1075500Y255895D01*
Y254105D01*
X1076185Y252451D01*
X1077451Y251185D01*
X1079105Y250500D01*
X1080895D01*
X1082549Y251185D01*
X1083815Y252451D01*
X1084500Y254105D01*
Y255895D01*
X1083815Y257549D01*
X1082549Y258815D01*
X1080895Y259500D01*
D02*
G37*
G36*
X1065895D02*
X1064105D01*
X1062451Y258815D01*
X1061185Y257549D01*
X1060500Y255895D01*
Y254105D01*
X1061185Y252451D01*
X1062451Y251185D01*
X1064105Y250500D01*
X1065895D01*
X1067549Y251185D01*
X1068815Y252451D01*
X1069500Y254105D01*
Y255895D01*
X1068815Y257549D01*
X1067549Y258815D01*
X1065895Y259500D01*
D02*
G37*
G36*
X15895D02*
X14105D01*
X12451Y258815D01*
X11185Y257549D01*
X10500Y255895D01*
Y254105D01*
X11185Y252451D01*
X12451Y251185D01*
X14105Y250500D01*
X15895D01*
X17549Y251185D01*
X18815Y252451D01*
X19500Y254105D01*
Y255895D01*
X18815Y257549D01*
X17549Y258815D01*
X15895Y259500D01*
D02*
G37*
G36*
X171146Y259500D02*
X169356D01*
X167702Y258815D01*
X166436Y257549D01*
X165751Y255895D01*
Y254105D01*
X166436Y252451D01*
X167702Y251185D01*
X169356Y250500D01*
X171146D01*
X172800Y251185D01*
X174065Y252451D01*
X174751Y254105D01*
Y255895D01*
X174065Y257549D01*
X172800Y258815D01*
X171146Y259500D01*
D02*
G37*
G36*
X121645Y254495D02*
X119855D01*
X118201Y253810D01*
X116935Y252544D01*
X116250Y250891D01*
Y249100D01*
X116935Y247446D01*
X118201Y246180D01*
X119855Y245495D01*
X121645D01*
X123299Y246180D01*
X124565Y247446D01*
X125250Y249100D01*
Y250891D01*
X124565Y252544D01*
X123299Y253810D01*
X121645Y254495D01*
D02*
G37*
G36*
X1399929Y248480D02*
X1396270D01*
Y244821D01*
X1397855Y245477D01*
X1399273Y246895D01*
X1399929Y248480D01*
D02*
G37*
G36*
X1393730D02*
X1390071D01*
X1390727Y246895D01*
X1392145Y245477D01*
X1393730Y244821D01*
Y248480D01*
D02*
G37*
G36*
X1429069Y249415D02*
X1428770D01*
Y238770D01*
X1439415D01*
Y239069D01*
X1438603Y242099D01*
X1437034Y244816D01*
X1434816Y247034D01*
X1432099Y248603D01*
X1429069Y249415D01*
D02*
G37*
G36*
X1426230D02*
X1425931D01*
X1422901Y248603D01*
X1420184Y247034D01*
X1417966Y244816D01*
X1416397Y242099D01*
X1415585Y239069D01*
Y238770D01*
X1426230D01*
Y249415D01*
D02*
G37*
G36*
X1335895Y244500D02*
X1334104D01*
X1332451Y243815D01*
X1331185Y242549D01*
X1330500Y240895D01*
Y239105D01*
X1331185Y237451D01*
X1332451Y236185D01*
X1334104Y235500D01*
X1335895D01*
X1337549Y236185D01*
X1338815Y237451D01*
X1339500Y239105D01*
Y240895D01*
X1338815Y242549D01*
X1337549Y243815D01*
X1335895Y244500D01*
D02*
G37*
G36*
X1320895D02*
X1319104D01*
X1317451Y243815D01*
X1316185Y242549D01*
X1315500Y240895D01*
Y239105D01*
X1316185Y237451D01*
X1317451Y236185D01*
X1319104Y235500D01*
X1320895D01*
X1322549Y236185D01*
X1323815Y237451D01*
X1324500Y239105D01*
Y240895D01*
X1323815Y242549D01*
X1322549Y243815D01*
X1320895Y244500D01*
D02*
G37*
G36*
X15895D02*
X14105D01*
X12451Y243815D01*
X11185Y242549D01*
X10500Y240895D01*
Y239105D01*
X11185Y237451D01*
X12451Y236185D01*
X14105Y235500D01*
X15895D01*
X17549Y236185D01*
X18815Y237451D01*
X19500Y239105D01*
Y240895D01*
X18815Y242549D01*
X17549Y243815D01*
X15895Y244500D01*
D02*
G37*
G36*
X1365395Y243750D02*
X1363605D01*
X1361951Y243065D01*
X1360685Y241799D01*
X1360000Y240145D01*
Y238355D01*
X1360685Y236701D01*
X1361951Y235435D01*
X1363605Y234750D01*
X1365395D01*
X1367049Y235435D01*
X1368315Y236701D01*
X1369000Y238355D01*
Y240145D01*
X1368315Y241799D01*
X1367049Y243065D01*
X1365395Y243750D01*
D02*
G37*
G36*
X1453997Y248875D02*
X1451002D01*
X1448109Y248100D01*
X1445516Y246602D01*
X1443398Y244484D01*
X1441900Y241891D01*
X1441125Y238998D01*
Y236003D01*
X1441900Y233109D01*
X1443398Y230516D01*
X1445516Y228398D01*
X1448109Y226900D01*
X1451002Y226125D01*
X1453997D01*
X1456891Y226900D01*
X1459484Y228398D01*
X1461602Y230516D01*
X1463100Y233109D01*
X1463875Y236003D01*
Y238998D01*
X1463100Y241891D01*
X1461602Y244484D01*
X1459484Y246602D01*
X1456891Y248100D01*
X1453997Y248875D01*
D02*
G37*
G36*
X73998Y248875D02*
X71002D01*
X68109Y248100D01*
X65516Y246602D01*
X63398Y244484D01*
X61900Y241891D01*
X61125Y238997D01*
Y236002D01*
X61900Y233109D01*
X63398Y230516D01*
X65516Y228398D01*
X68109Y226900D01*
X71002Y226125D01*
X73998D01*
X76891Y226900D01*
X79484Y228398D01*
X81602Y230516D01*
X83100Y233109D01*
X83875Y236002D01*
Y238997D01*
X83100Y241891D01*
X81602Y244484D01*
X79484Y246602D01*
X76891Y248100D01*
X73998Y248875D01*
D02*
G37*
G36*
X48998D02*
X46002D01*
X43109Y248100D01*
X40516Y246602D01*
X38398Y244484D01*
X36900Y241891D01*
X36125Y238997D01*
Y236002D01*
X36900Y233109D01*
X38398Y230516D01*
X40516Y228398D01*
X43109Y226900D01*
X46002Y226125D01*
X48998D01*
X51891Y226900D01*
X54484Y228398D01*
X56602Y230516D01*
X58100Y233109D01*
X58875Y236002D01*
Y238997D01*
X58100Y241891D01*
X56602Y244484D01*
X54484Y246602D01*
X51891Y248100D01*
X48998Y248875D01*
D02*
G37*
G36*
X1439415Y236230D02*
X1428770D01*
Y225585D01*
X1429069D01*
X1432099Y226397D01*
X1434816Y227966D01*
X1437034Y230184D01*
X1438603Y232901D01*
X1439415Y235931D01*
Y236230D01*
D02*
G37*
G36*
X1426230D02*
X1415585D01*
Y235931D01*
X1416397Y232901D01*
X1417966Y230184D01*
X1420184Y227966D01*
X1422901Y226397D01*
X1425931Y225585D01*
X1426230D01*
Y236230D01*
D02*
G37*
G36*
X326270Y224929D02*
Y221270D01*
X329929D01*
X329273Y222855D01*
X327855Y224273D01*
X326270Y224929D01*
D02*
G37*
G36*
X323730D02*
X322145Y224273D01*
X320727Y222855D01*
X320071Y221270D01*
X323730D01*
Y224929D01*
D02*
G37*
G36*
X1250895Y229500D02*
X1249105D01*
X1247451Y228815D01*
X1246185Y227549D01*
X1245500Y225895D01*
Y224105D01*
X1246185Y222451D01*
X1247451Y221185D01*
X1249105Y220500D01*
X1250895D01*
X1252549Y221185D01*
X1253815Y222451D01*
X1254500Y224105D01*
Y225895D01*
X1253815Y227549D01*
X1252549Y228815D01*
X1250895Y229500D01*
D02*
G37*
G36*
X1210895D02*
X1209105D01*
X1207451Y228815D01*
X1206185Y227549D01*
X1205500Y225895D01*
Y224105D01*
X1206185Y222451D01*
X1207451Y221185D01*
X1209105Y220500D01*
X1210895D01*
X1212549Y221185D01*
X1213815Y222451D01*
X1214500Y224105D01*
Y225895D01*
X1213815Y227549D01*
X1212549Y228815D01*
X1210895Y229500D01*
D02*
G37*
G36*
X395895D02*
X394105D01*
X392451Y228815D01*
X391185Y227549D01*
X390500Y225895D01*
Y224105D01*
X391185Y222451D01*
X392451Y221185D01*
X394105Y220500D01*
X395895D01*
X397549Y221185D01*
X398815Y222451D01*
X399500Y224105D01*
Y225895D01*
X398815Y227549D01*
X397549Y228815D01*
X395895Y229500D01*
D02*
G37*
G36*
X1335895Y229500D02*
X1334104D01*
X1332451Y228815D01*
X1331185Y227549D01*
X1330500Y225895D01*
Y224105D01*
X1331185Y222451D01*
X1332451Y221185D01*
X1334104Y220500D01*
X1335895D01*
X1337549Y221185D01*
X1338815Y222451D01*
X1339500Y224105D01*
Y225895D01*
X1338815Y227549D01*
X1337549Y228815D01*
X1335895Y229500D01*
D02*
G37*
G36*
X1320895D02*
X1319104D01*
X1317451Y228815D01*
X1316185Y227549D01*
X1315500Y225895D01*
Y224105D01*
X1316185Y222451D01*
X1317451Y221185D01*
X1319104Y220500D01*
X1320895D01*
X1322549Y221185D01*
X1323815Y222451D01*
X1324500Y224105D01*
Y225895D01*
X1323815Y227549D01*
X1322549Y228815D01*
X1320895Y229500D01*
D02*
G37*
G36*
X375895D02*
X374105D01*
X372451Y228815D01*
X371185Y227549D01*
X370500Y225895D01*
Y224105D01*
X371185Y222451D01*
X372451Y221185D01*
X374105Y220500D01*
X375895D01*
X377549Y221185D01*
X378815Y222451D01*
X379500Y224105D01*
Y225895D01*
X378815Y227549D01*
X377549Y228815D01*
X375895Y229500D01*
D02*
G37*
G36*
X15895D02*
X14105D01*
X12451Y228815D01*
X11185Y227549D01*
X10500Y225895D01*
Y224105D01*
X11185Y222451D01*
X12451Y221185D01*
X14105Y220500D01*
X15895D01*
X17549Y221185D01*
X18815Y222451D01*
X19500Y224105D01*
Y225895D01*
X18815Y227549D01*
X17549Y228815D01*
X15895Y229500D01*
D02*
G37*
G36*
X1190895Y225000D02*
X1189105D01*
X1187451Y224315D01*
X1186185Y223049D01*
X1185500Y221395D01*
Y219605D01*
X1186185Y217951D01*
X1187451Y216685D01*
X1189105Y216000D01*
X1190895D01*
X1192549Y216685D01*
X1193815Y217951D01*
X1194500Y219605D01*
Y221395D01*
X1193815Y223049D01*
X1192549Y224315D01*
X1190895Y225000D01*
D02*
G37*
G36*
X1290895Y224500D02*
X1289105D01*
X1287451Y223815D01*
X1286185Y222549D01*
X1285500Y220895D01*
Y219105D01*
X1286185Y217451D01*
X1287451Y216185D01*
X1289105Y215500D01*
X1290895D01*
X1292549Y216185D01*
X1293815Y217451D01*
X1294500Y219105D01*
Y220895D01*
X1293815Y222549D01*
X1292549Y223815D01*
X1290895Y224500D01*
D02*
G37*
G36*
X1270895Y224500D02*
X1269105D01*
X1267451Y223815D01*
X1266185Y222549D01*
X1265500Y220895D01*
Y219105D01*
X1266185Y217451D01*
X1267451Y216185D01*
X1269105Y215500D01*
X1270895D01*
X1272549Y216185D01*
X1273815Y217451D01*
X1274500Y219105D01*
Y220895D01*
X1273815Y222549D01*
X1272549Y223815D01*
X1270895Y224500D01*
D02*
G37*
G36*
X1230895D02*
X1229105D01*
X1227451Y223815D01*
X1226185Y222549D01*
X1225500Y220895D01*
Y219105D01*
X1226185Y217451D01*
X1227451Y216185D01*
X1229105Y215500D01*
X1230895D01*
X1232549Y216185D01*
X1233815Y217451D01*
X1234500Y219105D01*
Y220895D01*
X1233815Y222549D01*
X1232549Y223815D01*
X1230895Y224500D01*
D02*
G37*
G36*
X970895Y224500D02*
X969105D01*
X967451Y223815D01*
X966185Y222549D01*
X965500Y220895D01*
Y219105D01*
X966185Y217451D01*
X967451Y216185D01*
X969105Y215500D01*
X970895D01*
X972549Y216185D01*
X973815Y217451D01*
X974500Y219105D01*
Y220895D01*
X973815Y222549D01*
X972549Y223815D01*
X970895Y224500D01*
D02*
G37*
G36*
X329929Y218730D02*
X326270D01*
Y215071D01*
X327855Y215727D01*
X329273Y217145D01*
X329929Y218730D01*
D02*
G37*
G36*
X323730D02*
X320071D01*
X320727Y217145D01*
X322145Y215727D01*
X323730Y215071D01*
Y218730D01*
D02*
G37*
G36*
X15895Y214500D02*
X14105D01*
X12451Y213815D01*
X11185Y212549D01*
X10500Y210895D01*
Y209105D01*
X11185Y207451D01*
X12451Y206185D01*
X14105Y205500D01*
X15895D01*
X17549Y206185D01*
X18815Y207451D01*
X19500Y209105D01*
Y210895D01*
X18815Y212549D01*
X17549Y213815D01*
X15895Y214500D01*
D02*
G37*
G36*
X1447461Y207934D02*
X1445671D01*
X1444017Y207249D01*
X1442751Y205983D01*
X1442066Y204329D01*
Y202539D01*
X1442751Y200885D01*
X1444017Y199619D01*
X1445671Y198934D01*
X1447461D01*
X1449115Y199619D01*
X1450381Y200885D01*
X1451066Y202539D01*
Y204329D01*
X1450381Y205983D01*
X1449115Y207249D01*
X1447461Y207934D01*
D02*
G37*
G36*
X160895Y214500D02*
X159105D01*
X157451Y213815D01*
X156185Y212549D01*
X155500Y210895D01*
Y209105D01*
X156185Y207451D01*
X157451Y206185D01*
X158687Y205673D01*
Y204327D01*
X157451Y203815D01*
X156185Y202549D01*
X155500Y200895D01*
Y199105D01*
X156185Y197451D01*
X157451Y196185D01*
X159105Y195500D01*
X160895D01*
X162549Y196185D01*
X163815Y197451D01*
X164500Y199105D01*
Y200895D01*
X163815Y202549D01*
X162549Y203815D01*
X161314Y204327D01*
Y205673D01*
X162549Y206185D01*
X163815Y207451D01*
X164500Y209105D01*
Y210895D01*
X163815Y212549D01*
X162549Y213815D01*
X160895Y214500D01*
D02*
G37*
G36*
X325895Y204500D02*
X324105D01*
X322451Y203815D01*
X321185Y202549D01*
X320500Y200895D01*
Y199105D01*
X321185Y197451D01*
X322451Y196185D01*
X324105Y195500D01*
X325895D01*
X327549Y196185D01*
X328815Y197451D01*
X329500Y199105D01*
Y200895D01*
X328815Y202549D01*
X327549Y203815D01*
X325895Y204500D01*
D02*
G37*
G36*
X15895Y199500D02*
X14105D01*
X12451Y198815D01*
X11185Y197549D01*
X10500Y195895D01*
Y194105D01*
X11185Y192451D01*
X12451Y191185D01*
X14105Y190500D01*
X15895D01*
X17549Y191185D01*
X18815Y192451D01*
X19500Y194105D01*
Y195895D01*
X18815Y197549D01*
X17549Y198815D01*
X15895Y199500D01*
D02*
G37*
G36*
X1390895Y199500D02*
X1389105D01*
X1387451Y198815D01*
X1386185Y197549D01*
X1385500Y195895D01*
Y194105D01*
X1386185Y192451D01*
X1387451Y191185D01*
X1389105Y190500D01*
X1390895D01*
X1392549Y191185D01*
X1393815Y192451D01*
X1394500Y194105D01*
Y195895D01*
X1393815Y197549D01*
X1392549Y198815D01*
X1390895Y199500D01*
D02*
G37*
G36*
X1170895Y189500D02*
X1169105D01*
X1167451Y188815D01*
X1166185Y187549D01*
X1165500Y185895D01*
Y184105D01*
X1166185Y182451D01*
X1167451Y181185D01*
X1169105Y180500D01*
X1170895D01*
X1172549Y181185D01*
X1173815Y182451D01*
X1174500Y184105D01*
Y185895D01*
X1173815Y187549D01*
X1172549Y188815D01*
X1170895Y189500D01*
D02*
G37*
G36*
X1424920Y183579D02*
Y179920D01*
X1428579D01*
X1427923Y181505D01*
X1426505Y182923D01*
X1424920Y183579D01*
D02*
G37*
G36*
X1422380D02*
X1420795Y182923D01*
X1419377Y181505D01*
X1418721Y179920D01*
X1422380D01*
Y183579D01*
D02*
G37*
G36*
X1070895Y184500D02*
X1069105D01*
X1067451Y183815D01*
X1066185Y182549D01*
X1065500Y180895D01*
Y179105D01*
X1066185Y177451D01*
X1067451Y176185D01*
X1069105Y175500D01*
X1070895D01*
X1072549Y176185D01*
X1073815Y177451D01*
X1074500Y179105D01*
Y180895D01*
X1073815Y182549D01*
X1072549Y183815D01*
X1070895Y184500D01*
D02*
G37*
G36*
X995895Y184500D02*
X994105D01*
X992451Y183815D01*
X991185Y182549D01*
X990500Y180895D01*
Y179105D01*
X991185Y177451D01*
X992451Y176185D01*
X994105Y175500D01*
X995895D01*
X997549Y176185D01*
X998815Y177451D01*
X999500Y179105D01*
Y180895D01*
X998815Y182549D01*
X997549Y183815D01*
X995895Y184500D01*
D02*
G37*
G36*
X1380895Y184500D02*
X1379104D01*
X1377451Y183815D01*
X1376185Y182549D01*
X1375500Y180895D01*
Y179105D01*
X1376185Y177451D01*
X1377451Y176185D01*
X1379104Y175500D01*
X1380895D01*
X1382549Y176185D01*
X1383815Y177451D01*
X1384500Y179105D01*
Y180895D01*
X1383815Y182549D01*
X1382549Y183815D01*
X1380895Y184500D01*
D02*
G37*
G36*
X1365895D02*
X1364104D01*
X1362451Y183815D01*
X1361185Y182549D01*
X1360500Y180895D01*
Y179105D01*
X1361185Y177451D01*
X1362451Y176185D01*
X1364104Y175500D01*
X1365895D01*
X1367549Y176185D01*
X1368815Y177451D01*
X1369500Y179105D01*
Y180895D01*
X1368815Y182549D01*
X1367549Y183815D01*
X1365895Y184500D01*
D02*
G37*
G36*
X15895D02*
X14105D01*
X12451Y183815D01*
X11185Y182549D01*
X10500Y180895D01*
Y179105D01*
X11185Y177451D01*
X12451Y176185D01*
X14105Y175500D01*
X15895D01*
X17549Y176185D01*
X18815Y177451D01*
X19500Y179105D01*
Y180895D01*
X18815Y182549D01*
X17549Y183815D01*
X15895Y184500D01*
D02*
G37*
G36*
X1428579Y177380D02*
X1424920D01*
Y173721D01*
X1426505Y174377D01*
X1427923Y175795D01*
X1428579Y177380D01*
D02*
G37*
G36*
X1422380D02*
X1418721D01*
X1419377Y175795D01*
X1420795Y174377D01*
X1422380Y173721D01*
Y177380D01*
D02*
G37*
G36*
X310895Y174500D02*
X309105D01*
X307451Y173815D01*
X306185Y172549D01*
X305500Y170895D01*
Y169105D01*
X306185Y167451D01*
X307451Y166185D01*
X309105Y165500D01*
X310895D01*
X312549Y166185D01*
X313815Y167451D01*
X314500Y169105D01*
Y170895D01*
X313815Y172549D01*
X312549Y173815D01*
X310895Y174500D01*
D02*
G37*
G36*
X391270Y166929D02*
Y163270D01*
X394929D01*
X394273Y164855D01*
X392855Y166273D01*
X391270Y166929D01*
D02*
G37*
G36*
X388730D02*
X387145Y166273D01*
X385727Y164855D01*
X385071Y163270D01*
X388730D01*
Y166929D01*
D02*
G37*
G36*
X260895Y169500D02*
X259105D01*
X257451Y168815D01*
X256185Y167549D01*
X255500Y165895D01*
Y164105D01*
X256185Y162451D01*
X257451Y161185D01*
X259105Y160500D01*
X260895D01*
X262549Y161185D01*
X263815Y162451D01*
X264500Y164105D01*
Y165895D01*
X263815Y167549D01*
X262549Y168815D01*
X260895Y169500D01*
D02*
G37*
G36*
X1380895Y169500D02*
X1379104D01*
X1377451Y168815D01*
X1376185Y167549D01*
X1375500Y165895D01*
Y164105D01*
X1376185Y162451D01*
X1377451Y161185D01*
X1379104Y160500D01*
X1380895D01*
X1382549Y161185D01*
X1383815Y162451D01*
X1384500Y164105D01*
Y165895D01*
X1383815Y167549D01*
X1382549Y168815D01*
X1380895Y169500D01*
D02*
G37*
G36*
X1350895Y169500D02*
X1349105D01*
X1347451Y168815D01*
X1346185Y167549D01*
X1345500Y165895D01*
Y164105D01*
X1346185Y162451D01*
X1347451Y161185D01*
X1349105Y160500D01*
X1350895D01*
X1352549Y161185D01*
X1353815Y162451D01*
X1354500Y164105D01*
Y165895D01*
X1353815Y167549D01*
X1352549Y168815D01*
X1350895Y169500D01*
D02*
G37*
G36*
X190895Y164500D02*
X189105D01*
X187451Y163815D01*
X186185Y162549D01*
X185500Y160895D01*
Y159105D01*
X186185Y157451D01*
X187451Y156185D01*
X189105Y155500D01*
X190895D01*
X192549Y156185D01*
X193815Y157451D01*
X194500Y159105D01*
Y160895D01*
X193815Y162549D01*
X192549Y163815D01*
X190895Y164500D01*
D02*
G37*
G36*
X240895Y154500D02*
X239105D01*
X237451Y153815D01*
X236185Y152549D01*
X235500Y150895D01*
Y149105D01*
X236185Y147451D01*
X237451Y146185D01*
X239105Y145500D01*
X240895D01*
X242549Y146185D01*
X243815Y147451D01*
X244500Y149105D01*
Y150895D01*
X243815Y152549D01*
X242549Y153815D01*
X240895Y154500D01*
D02*
G37*
G36*
X225895D02*
X224105D01*
X222451Y153815D01*
X221185Y152549D01*
X220500Y150895D01*
Y149105D01*
X221185Y147451D01*
X222451Y146185D01*
X224105Y145500D01*
X225895D01*
X227549Y146185D01*
X228815Y147451D01*
X229500Y149105D01*
Y150895D01*
X228815Y152549D01*
X227549Y153815D01*
X225895Y154500D01*
D02*
G37*
G36*
X1015895Y154000D02*
X1014105D01*
X1012451Y153315D01*
X1011185Y152049D01*
X1010500Y150395D01*
Y148605D01*
X1011185Y146951D01*
X1012451Y145685D01*
X1014105Y145000D01*
X1015895D01*
X1017549Y145685D01*
X1018815Y146951D01*
X1019500Y148605D01*
Y150395D01*
X1018815Y152049D01*
X1017549Y153315D01*
X1015895Y154000D01*
D02*
G37*
G36*
X1100895Y154000D02*
X1099105D01*
X1097451Y153315D01*
X1096185Y152049D01*
X1095500Y150395D01*
Y148605D01*
X1096185Y146951D01*
X1097451Y145685D01*
X1099105Y145000D01*
X1100895D01*
X1102549Y145685D01*
X1103815Y146951D01*
X1104500Y148605D01*
Y150395D01*
X1103815Y152049D01*
X1102549Y153315D01*
X1100895Y154000D01*
D02*
G37*
G36*
X1453421Y150990D02*
X1453270D01*
Y141470D01*
X1462790D01*
Y141621D01*
X1462055Y144365D01*
X1460634Y146825D01*
X1458625Y148834D01*
X1456165Y150255D01*
X1453421Y150990D01*
D02*
G37*
G36*
X1450730D02*
X1450580D01*
X1447835Y150255D01*
X1445375Y148834D01*
X1443366Y146825D01*
X1441945Y144365D01*
X1441210Y141621D01*
Y141470D01*
X1450730D01*
Y150990D01*
D02*
G37*
G36*
X425900Y148500D02*
X424109D01*
X422455Y147815D01*
X421190Y146550D01*
X420504Y144896D01*
Y143105D01*
X421190Y141451D01*
X422455Y140186D01*
X424109Y139501D01*
X425900D01*
X427553Y140186D01*
X428819Y141451D01*
X429505Y143105D01*
Y144896D01*
X428819Y146550D01*
X427553Y147815D01*
X425900Y148500D01*
D02*
G37*
G36*
X445895Y148500D02*
X444105D01*
X442451Y147815D01*
X441185Y146549D01*
X440500Y144895D01*
Y143105D01*
X441185Y141451D01*
X442451Y140185D01*
X444105Y139500D01*
X445895D01*
X447549Y140185D01*
X448815Y141451D01*
X449500Y143105D01*
Y144895D01*
X448815Y146549D01*
X447549Y147815D01*
X445895Y148500D01*
D02*
G37*
G36*
X405895D02*
X404105D01*
X402451Y147815D01*
X401185Y146549D01*
X400500Y144895D01*
Y143105D01*
X401185Y141451D01*
X402451Y140185D01*
X404105Y139500D01*
X405895D01*
X407549Y140185D01*
X408815Y141451D01*
X409500Y143105D01*
Y144895D01*
X408815Y146549D01*
X407549Y147815D01*
X405895Y148500D01*
D02*
G37*
G36*
X591270Y134929D02*
Y131270D01*
X594929D01*
X594273Y132855D01*
X592855Y134273D01*
X591270Y134929D01*
D02*
G37*
G36*
X588730D02*
X587145Y134273D01*
X585727Y132855D01*
X585071Y131270D01*
X588730D01*
Y134929D01*
D02*
G37*
G36*
X345895Y139500D02*
X344105D01*
X342451Y138815D01*
X341185Y137549D01*
X340500Y135895D01*
Y134105D01*
X341185Y132451D01*
X342451Y131185D01*
X344105Y130500D01*
X345895D01*
X347549Y131185D01*
X348815Y132451D01*
X349500Y134105D01*
Y135895D01*
X348815Y137549D01*
X347549Y138815D01*
X345895Y139500D01*
D02*
G37*
G36*
X330895D02*
X329105D01*
X327451Y138815D01*
X326185Y137549D01*
X325500Y135895D01*
Y134105D01*
X326185Y132451D01*
X327451Y131185D01*
X329105Y130500D01*
X330895D01*
X332549Y131185D01*
X333815Y132451D01*
X334500Y134105D01*
Y135895D01*
X333815Y137549D01*
X332549Y138815D01*
X330895Y139500D01*
D02*
G37*
G36*
X255895D02*
X254105D01*
X252451Y138815D01*
X251185Y137549D01*
X250500Y135895D01*
Y134105D01*
X251185Y132451D01*
X252451Y131185D01*
X254105Y130500D01*
X255895D01*
X257549Y131185D01*
X258815Y132451D01*
X259500Y134105D01*
Y135895D01*
X258815Y137549D01*
X257549Y138815D01*
X255895Y139500D01*
D02*
G37*
G36*
X240895D02*
X239105D01*
X237451Y138815D01*
X236185Y137549D01*
X235500Y135895D01*
Y134105D01*
X236185Y132451D01*
X237451Y131185D01*
X239105Y130500D01*
X240895D01*
X242549Y131185D01*
X243815Y132451D01*
X244500Y134105D01*
Y135895D01*
X243815Y137549D01*
X242549Y138815D01*
X240895Y139500D01*
D02*
G37*
G36*
X225895D02*
X224105D01*
X222451Y138815D01*
X221185Y137549D01*
X220500Y135895D01*
Y134105D01*
X221185Y132451D01*
X222451Y131185D01*
X224105Y130500D01*
X225895D01*
X227549Y131185D01*
X228815Y132451D01*
X229500Y134105D01*
Y135895D01*
X228815Y137549D01*
X227549Y138815D01*
X225895Y139500D01*
D02*
G37*
G36*
X135895D02*
X134105D01*
X132451Y138815D01*
X131185Y137549D01*
X130500Y135895D01*
Y134105D01*
X131185Y132451D01*
X132451Y131185D01*
X134105Y130500D01*
X135895D01*
X137549Y131185D01*
X138815Y132451D01*
X139500Y134105D01*
Y135895D01*
X138815Y137549D01*
X137549Y138815D01*
X135895Y139500D01*
D02*
G37*
G36*
X1478749Y150450D02*
X1476051D01*
X1473444Y149752D01*
X1471106Y148402D01*
X1469198Y146494D01*
X1467849Y144156D01*
X1467150Y141549D01*
Y138851D01*
X1467849Y136244D01*
X1469198Y133906D01*
X1471106Y131998D01*
X1473444Y130648D01*
X1476051Y129950D01*
X1478749D01*
X1481356Y130648D01*
X1483694Y131998D01*
X1485602Y133906D01*
X1486951Y136244D01*
X1487650Y138851D01*
Y141549D01*
X1486951Y144156D01*
X1485602Y146494D01*
X1483694Y148402D01*
X1481356Y149752D01*
X1478749Y150450D01*
D02*
G37*
G36*
X1427949D02*
X1425251D01*
X1422644Y149752D01*
X1420306Y148402D01*
X1418398Y146494D01*
X1417048Y144156D01*
X1416350Y141549D01*
Y138851D01*
X1417048Y136244D01*
X1418398Y133906D01*
X1420306Y131998D01*
X1422644Y130648D01*
X1425251Y129950D01*
X1427949D01*
X1430556Y130648D01*
X1432894Y131998D01*
X1434802Y133906D01*
X1436151Y136244D01*
X1436850Y138851D01*
Y141549D01*
X1436151Y144156D01*
X1434802Y146494D01*
X1432894Y148402D01*
X1430556Y149752D01*
X1427949Y150450D01*
D02*
G37*
G36*
X1402549D02*
X1399851D01*
X1397244Y149752D01*
X1394906Y148402D01*
X1392998Y146494D01*
X1391649Y144156D01*
X1390950Y141549D01*
Y138851D01*
X1391649Y136244D01*
X1392998Y133906D01*
X1394906Y131998D01*
X1397244Y130648D01*
X1399851Y129950D01*
X1402549D01*
X1405156Y130648D01*
X1407494Y131998D01*
X1409402Y133906D01*
X1410751Y136244D01*
X1411450Y138851D01*
Y141549D01*
X1410751Y144156D01*
X1409402Y146494D01*
X1407494Y148402D01*
X1405156Y149752D01*
X1402549Y150450D01*
D02*
G37*
G36*
X1377149D02*
X1374451D01*
X1371844Y149752D01*
X1369506Y148402D01*
X1367598Y146494D01*
X1366248Y144156D01*
X1365550Y141549D01*
Y138851D01*
X1366248Y136244D01*
X1367598Y133906D01*
X1369506Y131998D01*
X1371844Y130648D01*
X1374451Y129950D01*
X1377149D01*
X1379756Y130648D01*
X1382094Y131998D01*
X1384002Y133906D01*
X1385352Y136244D01*
X1386050Y138851D01*
Y141549D01*
X1385352Y144156D01*
X1384002Y146494D01*
X1382094Y148402D01*
X1379756Y149752D01*
X1377149Y150450D01*
D02*
G37*
G36*
X1351749D02*
X1349051D01*
X1346444Y149752D01*
X1344106Y148402D01*
X1342198Y146494D01*
X1340849Y144156D01*
X1340150Y141549D01*
Y138851D01*
X1340849Y136244D01*
X1342198Y133906D01*
X1344106Y131998D01*
X1346444Y130648D01*
X1349051Y129950D01*
X1351749D01*
X1354356Y130648D01*
X1356694Y131998D01*
X1358602Y133906D01*
X1359951Y136244D01*
X1360650Y138851D01*
Y141549D01*
X1359951Y144156D01*
X1358602Y146494D01*
X1356694Y148402D01*
X1354356Y149752D01*
X1351749Y150450D01*
D02*
G37*
G36*
X1326349D02*
X1323651D01*
X1321044Y149752D01*
X1318706Y148402D01*
X1316798Y146494D01*
X1315448Y144156D01*
X1314750Y141549D01*
Y138851D01*
X1315448Y136244D01*
X1316798Y133906D01*
X1318706Y131998D01*
X1321044Y130648D01*
X1323651Y129950D01*
X1326349D01*
X1328956Y130648D01*
X1331294Y131998D01*
X1333202Y133906D01*
X1334552Y136244D01*
X1335250Y138851D01*
Y141549D01*
X1334552Y144156D01*
X1333202Y146494D01*
X1331294Y148402D01*
X1328956Y149752D01*
X1326349Y150450D01*
D02*
G37*
G36*
X1300949D02*
X1298251D01*
X1295644Y149752D01*
X1293306Y148402D01*
X1291398Y146494D01*
X1290049Y144156D01*
X1289350Y141549D01*
Y138851D01*
X1290049Y136244D01*
X1291398Y133906D01*
X1293306Y131998D01*
X1295644Y130648D01*
X1298251Y129950D01*
X1300949D01*
X1303556Y130648D01*
X1305894Y131998D01*
X1307802Y133906D01*
X1309151Y136244D01*
X1309850Y138851D01*
Y141549D01*
X1309151Y144156D01*
X1307802Y146494D01*
X1305894Y148402D01*
X1303556Y149752D01*
X1300949Y150450D01*
D02*
G37*
G36*
X1275549D02*
X1272851D01*
X1270244Y149752D01*
X1267906Y148402D01*
X1265998Y146494D01*
X1264649Y144156D01*
X1263950Y141549D01*
Y138851D01*
X1264649Y136244D01*
X1265998Y133906D01*
X1267906Y131998D01*
X1270244Y130648D01*
X1272851Y129950D01*
X1275549D01*
X1278156Y130648D01*
X1280494Y131998D01*
X1282402Y133906D01*
X1283752Y136244D01*
X1284450Y138851D01*
Y141549D01*
X1283752Y144156D01*
X1282402Y146494D01*
X1280494Y148402D01*
X1278156Y149752D01*
X1275549Y150450D01*
D02*
G37*
G36*
X1250149D02*
X1247451D01*
X1244844Y149752D01*
X1242506Y148402D01*
X1240598Y146494D01*
X1239249Y144156D01*
X1238550Y141549D01*
Y138851D01*
X1239249Y136244D01*
X1240598Y133906D01*
X1242506Y131998D01*
X1244844Y130648D01*
X1247451Y129950D01*
X1250149D01*
X1252756Y130648D01*
X1255094Y131998D01*
X1257002Y133906D01*
X1258352Y136244D01*
X1259050Y138851D01*
Y141549D01*
X1258352Y144156D01*
X1257002Y146494D01*
X1255094Y148402D01*
X1252756Y149752D01*
X1250149Y150450D01*
D02*
G37*
G36*
X1224749D02*
X1222051D01*
X1219444Y149752D01*
X1217106Y148402D01*
X1215198Y146494D01*
X1213848Y144156D01*
X1213150Y141549D01*
Y138851D01*
X1213848Y136244D01*
X1215198Y133906D01*
X1217106Y131998D01*
X1219444Y130648D01*
X1222051Y129950D01*
X1224749D01*
X1227356Y130648D01*
X1229694Y131998D01*
X1231602Y133906D01*
X1232952Y136244D01*
X1233650Y138851D01*
Y141549D01*
X1232952Y144156D01*
X1231602Y146494D01*
X1229694Y148402D01*
X1227356Y149752D01*
X1224749Y150450D01*
D02*
G37*
G36*
X1199349D02*
X1196651D01*
X1194044Y149752D01*
X1191706Y148402D01*
X1189798Y146494D01*
X1188448Y144156D01*
X1187750Y141549D01*
Y138851D01*
X1188448Y136244D01*
X1189798Y133906D01*
X1191706Y131998D01*
X1194044Y130648D01*
X1196651Y129950D01*
X1199349D01*
X1201956Y130648D01*
X1204294Y131998D01*
X1206202Y133906D01*
X1207551Y136244D01*
X1208250Y138851D01*
Y141549D01*
X1207551Y144156D01*
X1206202Y146494D01*
X1204294Y148402D01*
X1201956Y149752D01*
X1199349Y150450D01*
D02*
G37*
G36*
X1176725Y150570D02*
X1168475D01*
X1166085Y150095D01*
X1164059Y148741D01*
X1162705Y146715D01*
X1162230Y144325D01*
Y136075D01*
X1162705Y133685D01*
X1164059Y131659D01*
X1166085Y130305D01*
X1168475Y129830D01*
X1176725D01*
X1179115Y130305D01*
X1181141Y131659D01*
X1182495Y133685D01*
X1182970Y136075D01*
Y144325D01*
X1182495Y146715D01*
X1181141Y148741D01*
X1179115Y150095D01*
X1176725Y150570D01*
D02*
G37*
G36*
X1462790Y138930D02*
X1453270D01*
Y129410D01*
X1453421D01*
X1456165Y130145D01*
X1458625Y131566D01*
X1460634Y133575D01*
X1462055Y136035D01*
X1462790Y138779D01*
Y138930D01*
D02*
G37*
G36*
X1450730D02*
X1441210D01*
Y138779D01*
X1441945Y136035D01*
X1443366Y133575D01*
X1445375Y131566D01*
X1447835Y130145D01*
X1450580Y129410D01*
X1450730D01*
Y138930D01*
D02*
G37*
G36*
X645895Y135000D02*
X644105D01*
X642451Y134315D01*
X641185Y133049D01*
X640500Y131395D01*
Y129605D01*
X641185Y127951D01*
X642451Y126685D01*
X644105Y126000D01*
X645895D01*
X647549Y126685D01*
X648815Y127951D01*
X649500Y129605D01*
Y131395D01*
X648815Y133049D01*
X647549Y134315D01*
X645895Y135000D01*
D02*
G37*
G36*
X280895Y134500D02*
X279105D01*
X277451Y133815D01*
X276185Y132549D01*
X275500Y130895D01*
Y129105D01*
X276185Y127451D01*
X277451Y126185D01*
X279105Y125500D01*
X280895D01*
X282549Y126185D01*
X283815Y127451D01*
X284500Y129105D01*
Y130895D01*
X283815Y132549D01*
X282549Y133815D01*
X280895Y134500D01*
D02*
G37*
G36*
X594929Y128730D02*
X591270D01*
Y125071D01*
X592855Y125727D01*
X594273Y127145D01*
X594929Y128730D01*
D02*
G37*
G36*
X588730D02*
X585071D01*
X585727Y127145D01*
X587145Y125727D01*
X588730Y125071D01*
Y128730D01*
D02*
G37*
G36*
X665895Y134000D02*
X664105D01*
X662451Y133315D01*
X661185Y132049D01*
X660500Y130395D01*
Y128605D01*
X661185Y126951D01*
X662451Y125685D01*
X664105Y125000D01*
X665895D01*
X667549Y125685D01*
X668815Y126951D01*
X669500Y128605D01*
Y130395D01*
X668815Y132049D01*
X667549Y133315D01*
X665895Y134000D01*
D02*
G37*
G36*
X528950Y133321D02*
X526450D01*
X524296Y133038D01*
X522289Y132206D01*
X520566Y130884D01*
X519244Y129160D01*
X518412Y127154D01*
X518129Y125000D01*
X518412Y122846D01*
X519244Y120839D01*
X520566Y119116D01*
X522289Y117794D01*
X524296Y116962D01*
X526450Y116679D01*
X528950D01*
X531104Y116962D01*
X533111Y117794D01*
X534834Y119116D01*
X536156Y120839D01*
X536988Y122846D01*
X537271Y125000D01*
X536988Y127154D01*
X536156Y129160D01*
X534834Y130884D01*
X533111Y132206D01*
X531104Y133038D01*
X528950Y133321D01*
D02*
G37*
G36*
X473550D02*
X471050D01*
X468896Y133038D01*
X466889Y132206D01*
X465166Y130884D01*
X463844Y129160D01*
X463012Y127154D01*
X462729Y125000D01*
X463012Y122846D01*
X463844Y120839D01*
X465166Y119116D01*
X466889Y117794D01*
X468896Y116962D01*
X471050Y116679D01*
X473550D01*
X475704Y116962D01*
X477710Y117794D01*
X479434Y119116D01*
X480756Y120839D01*
X481588Y122846D01*
X481871Y125000D01*
X481588Y127154D01*
X480756Y129160D01*
X479434Y130884D01*
X477710Y132206D01*
X475704Y133038D01*
X473550Y133321D01*
D02*
G37*
G36*
X1453421Y125590D02*
X1453270D01*
Y116070D01*
X1462790D01*
Y116221D01*
X1462055Y118965D01*
X1460634Y121425D01*
X1458625Y123434D01*
X1456165Y124855D01*
X1453421Y125590D01*
D02*
G37*
G36*
X1450730D02*
X1450580D01*
X1447835Y124855D01*
X1445375Y123434D01*
X1443366Y121425D01*
X1441945Y118965D01*
X1441210Y116221D01*
Y116070D01*
X1450730D01*
Y125590D01*
D02*
G37*
G36*
X1095895Y124500D02*
X1094105D01*
X1092451Y123815D01*
X1091185Y122549D01*
X1090500Y120895D01*
Y119105D01*
X1091185Y117451D01*
X1092451Y116185D01*
X1094105Y115500D01*
X1095895D01*
X1097549Y116185D01*
X1098815Y117451D01*
X1099500Y119105D01*
Y120895D01*
X1098815Y122549D01*
X1097549Y123815D01*
X1095895Y124500D01*
D02*
G37*
G36*
X1080895D02*
X1079105D01*
X1077451Y123815D01*
X1076185Y122549D01*
X1075500Y120895D01*
Y119105D01*
X1076185Y117451D01*
X1077451Y116185D01*
X1079105Y115500D01*
X1080895D01*
X1082549Y116185D01*
X1083815Y117451D01*
X1084500Y119105D01*
Y120895D01*
X1083815Y122549D01*
X1082549Y123815D01*
X1080895Y124500D01*
D02*
G37*
G36*
X1065895D02*
X1064105D01*
X1062451Y123815D01*
X1061185Y122549D01*
X1060500Y120895D01*
Y119105D01*
X1061185Y117451D01*
X1062451Y116185D01*
X1064105Y115500D01*
X1065895D01*
X1067549Y116185D01*
X1068815Y117451D01*
X1069500Y119105D01*
Y120895D01*
X1068815Y122549D01*
X1067549Y123815D01*
X1065895Y124500D01*
D02*
G37*
G36*
X1050895D02*
X1049105D01*
X1047451Y123815D01*
X1046185Y122549D01*
X1045500Y120895D01*
Y119105D01*
X1046185Y117451D01*
X1047451Y116185D01*
X1049105Y115500D01*
X1050895D01*
X1052549Y116185D01*
X1053815Y117451D01*
X1054500Y119105D01*
Y120895D01*
X1053815Y122549D01*
X1052549Y123815D01*
X1050895Y124500D01*
D02*
G37*
G36*
X1035895D02*
X1034105D01*
X1032451Y123815D01*
X1031185Y122549D01*
X1030500Y120895D01*
Y119105D01*
X1031185Y117451D01*
X1032451Y116185D01*
X1034105Y115500D01*
X1035895D01*
X1037549Y116185D01*
X1038815Y117451D01*
X1039500Y119105D01*
Y120895D01*
X1038815Y122549D01*
X1037549Y123815D01*
X1035895Y124500D01*
D02*
G37*
G36*
X375895D02*
X374105D01*
X372451Y123815D01*
X371185Y122549D01*
X370500Y120895D01*
Y119105D01*
X371185Y117451D01*
X372451Y116185D01*
X374105Y115500D01*
X375895D01*
X377549Y116185D01*
X378815Y117451D01*
X379500Y119105D01*
Y120895D01*
X378815Y122549D01*
X377549Y123815D01*
X375895Y124500D01*
D02*
G37*
G36*
X360895D02*
X359105D01*
X357451Y123815D01*
X356185Y122549D01*
X355500Y120895D01*
Y119105D01*
X356185Y117451D01*
X357451Y116185D01*
X359105Y115500D01*
X360895D01*
X362549Y116185D01*
X363815Y117451D01*
X364500Y119105D01*
Y120895D01*
X363815Y122549D01*
X362549Y123815D01*
X360895Y124500D01*
D02*
G37*
G36*
X345895D02*
X344105D01*
X342451Y123815D01*
X341185Y122549D01*
X340500Y120895D01*
Y119105D01*
X341185Y117451D01*
X342451Y116185D01*
X344105Y115500D01*
X345895D01*
X347549Y116185D01*
X348815Y117451D01*
X349500Y119105D01*
Y120895D01*
X348815Y122549D01*
X347549Y123815D01*
X345895Y124500D01*
D02*
G37*
G36*
X330895D02*
X329105D01*
X327451Y123815D01*
X326185Y122549D01*
X325500Y120895D01*
Y119105D01*
X326185Y117451D01*
X327451Y116185D01*
X329105Y115500D01*
X330895D01*
X332549Y116185D01*
X333815Y117451D01*
X334500Y119105D01*
Y120895D01*
X333815Y122549D01*
X332549Y123815D01*
X330895Y124500D01*
D02*
G37*
G36*
X255895D02*
X254105D01*
X252451Y123815D01*
X251185Y122549D01*
X250500Y120895D01*
Y119105D01*
X251185Y117451D01*
X252451Y116185D01*
X254105Y115500D01*
X255895D01*
X257549Y116185D01*
X258815Y117451D01*
X259500Y119105D01*
Y120895D01*
X258815Y122549D01*
X257549Y123815D01*
X255895Y124500D01*
D02*
G37*
G36*
X240895D02*
X239105D01*
X237451Y123815D01*
X236185Y122549D01*
X235500Y120895D01*
Y119105D01*
X236185Y117451D01*
X237451Y116185D01*
X239105Y115500D01*
X240895D01*
X242549Y116185D01*
X243815Y117451D01*
X244500Y119105D01*
Y120895D01*
X243815Y122549D01*
X242549Y123815D01*
X240895Y124500D01*
D02*
G37*
G36*
X225895D02*
X224105D01*
X222451Y123815D01*
X221185Y122549D01*
X220500Y120895D01*
Y119105D01*
X221185Y117451D01*
X222451Y116185D01*
X224105Y115500D01*
X225895D01*
X227549Y116185D01*
X228815Y117451D01*
X229500Y119105D01*
Y120895D01*
X228815Y122549D01*
X227549Y123815D01*
X225895Y124500D01*
D02*
G37*
G36*
X210895D02*
X209105D01*
X207451Y123815D01*
X206185Y122549D01*
X205500Y120895D01*
Y119105D01*
X206185Y117451D01*
X207451Y116185D01*
X209105Y115500D01*
X210895D01*
X212549Y116185D01*
X213815Y117451D01*
X214500Y119105D01*
Y120895D01*
X213815Y122549D01*
X212549Y123815D01*
X210895Y124500D01*
D02*
G37*
G36*
X150895D02*
X149105D01*
X147451Y123815D01*
X146185Y122549D01*
X145500Y120895D01*
Y119105D01*
X146185Y117451D01*
X147451Y116185D01*
X149105Y115500D01*
X150895D01*
X152549Y116185D01*
X153815Y117451D01*
X154500Y119105D01*
Y120895D01*
X153815Y122549D01*
X152549Y123815D01*
X150895Y124500D01*
D02*
G37*
G36*
X135895D02*
X134105D01*
X132451Y123815D01*
X131185Y122549D01*
X130500Y120895D01*
Y119105D01*
X131185Y117451D01*
X132451Y116185D01*
X134105Y115500D01*
X135895D01*
X137549Y116185D01*
X138815Y117451D01*
X139500Y119105D01*
Y120895D01*
X138815Y122549D01*
X137549Y123815D01*
X135895Y124500D01*
D02*
G37*
G36*
X120895D02*
X119105D01*
X117451Y123815D01*
X116185Y122549D01*
X115500Y120895D01*
Y119105D01*
X116185Y117451D01*
X117451Y116185D01*
X119105Y115500D01*
X120895D01*
X122549Y116185D01*
X123815Y117451D01*
X124500Y119105D01*
Y120895D01*
X123815Y122549D01*
X122549Y123815D01*
X120895Y124500D01*
D02*
G37*
G36*
X105895D02*
X104105D01*
X102451Y123815D01*
X101185Y122549D01*
X100500Y120895D01*
Y119105D01*
X101185Y117451D01*
X102451Y116185D01*
X104105Y115500D01*
X105895D01*
X107549Y116185D01*
X108815Y117451D01*
X109500Y119105D01*
Y120895D01*
X108815Y122549D01*
X107549Y123815D01*
X105895Y124500D01*
D02*
G37*
G36*
X75895D02*
X74105D01*
X72451Y123815D01*
X71185Y122549D01*
X70500Y120895D01*
Y119105D01*
X71185Y117451D01*
X72451Y116185D01*
X74105Y115500D01*
X75895D01*
X77549Y116185D01*
X78815Y117451D01*
X79500Y119105D01*
Y120895D01*
X78815Y122549D01*
X77549Y123815D01*
X75895Y124500D01*
D02*
G37*
G36*
X60895D02*
X59105D01*
X57451Y123815D01*
X56185Y122549D01*
X55500Y120895D01*
Y119105D01*
X56185Y117451D01*
X57451Y116185D01*
X59105Y115500D01*
X60895D01*
X62549Y116185D01*
X63815Y117451D01*
X64500Y119105D01*
Y120895D01*
X63815Y122549D01*
X62549Y123815D01*
X60895Y124500D01*
D02*
G37*
G36*
X45895D02*
X44105D01*
X42451Y123815D01*
X41185Y122549D01*
X40500Y120895D01*
Y119105D01*
X41185Y117451D01*
X42451Y116185D01*
X44105Y115500D01*
X45895D01*
X47549Y116185D01*
X48815Y117451D01*
X49500Y119105D01*
Y120895D01*
X48815Y122549D01*
X47549Y123815D01*
X45895Y124500D01*
D02*
G37*
G36*
X30895D02*
X29105D01*
X27451Y123815D01*
X26185Y122549D01*
X25500Y120895D01*
Y119105D01*
X26185Y117451D01*
X27451Y116185D01*
X29105Y115500D01*
X30895D01*
X32549Y116185D01*
X33815Y117451D01*
X34500Y119105D01*
Y120895D01*
X33815Y122549D01*
X32549Y123815D01*
X30895Y124500D01*
D02*
G37*
G36*
X15895D02*
X14105D01*
X12451Y123815D01*
X11185Y122549D01*
X10500Y120895D01*
Y119105D01*
X11185Y117451D01*
X12451Y116185D01*
X14105Y115500D01*
X15895D01*
X17549Y116185D01*
X18815Y117451D01*
X19500Y119105D01*
Y120895D01*
X18815Y122549D01*
X17549Y123815D01*
X15895Y124500D01*
D02*
G37*
G36*
X170895Y124500D02*
X169105D01*
X167451Y123815D01*
X166185Y122549D01*
X165500Y120895D01*
Y119105D01*
X166185Y117451D01*
X167451Y116185D01*
X169105Y115500D01*
X170895D01*
X172549Y116185D01*
X173815Y117451D01*
X174500Y119105D01*
Y120895D01*
X173815Y122549D01*
X172549Y123815D01*
X170895Y124500D01*
D02*
G37*
G36*
X964817Y135000D02*
X962184D01*
X959640Y134319D01*
X957360Y133002D01*
X955498Y131140D01*
X954182Y128860D01*
X953500Y126316D01*
Y123684D01*
X954182Y121140D01*
X955498Y118860D01*
X957360Y116998D01*
X959640Y115681D01*
X962184Y115000D01*
X964817D01*
X967360Y115681D01*
X969640Y116998D01*
X971502Y118860D01*
X972819Y121140D01*
X973500Y123684D01*
Y126316D01*
X972819Y128860D01*
X971502Y131140D01*
X969640Y133002D01*
X967360Y134319D01*
X964817Y135000D01*
D02*
G37*
G36*
X939417D02*
X936784D01*
X934240Y134319D01*
X931960Y133002D01*
X930098Y131140D01*
X928782Y128860D01*
X928100Y126316D01*
Y123684D01*
X928782Y121140D01*
X930098Y118860D01*
X931960Y116998D01*
X934240Y115681D01*
X936784Y115000D01*
X939417D01*
X941960Y115681D01*
X944240Y116998D01*
X946102Y118860D01*
X947419Y121140D01*
X948100Y123684D01*
Y126316D01*
X947419Y128860D01*
X946102Y131140D01*
X944240Y133002D01*
X941960Y134319D01*
X939417Y135000D01*
D02*
G37*
G36*
X914016D02*
X911384D01*
X908840Y134319D01*
X906560Y133002D01*
X904698Y131140D01*
X903382Y128860D01*
X902700Y126316D01*
Y123684D01*
X903382Y121140D01*
X904698Y118860D01*
X906560Y116998D01*
X908840Y115681D01*
X911384Y115000D01*
X914016D01*
X916560Y115681D01*
X918840Y116998D01*
X920702Y118860D01*
X922019Y121140D01*
X922700Y123684D01*
Y126316D01*
X922019Y128860D01*
X920702Y131140D01*
X918840Y133002D01*
X916560Y134319D01*
X914016Y135000D01*
D02*
G37*
G36*
X888616D02*
X885984D01*
X883440Y134319D01*
X881160Y133002D01*
X879298Y131140D01*
X877981Y128860D01*
X877300Y126316D01*
Y123684D01*
X877981Y121140D01*
X879298Y118860D01*
X881160Y116998D01*
X883440Y115681D01*
X885984Y115000D01*
X888616D01*
X891160Y115681D01*
X893440Y116998D01*
X895302Y118860D01*
X896618Y121140D01*
X897300Y123684D01*
Y126316D01*
X896618Y128860D01*
X895302Y131140D01*
X893440Y133002D01*
X891160Y134319D01*
X888616Y135000D01*
D02*
G37*
G36*
X863216D02*
X860583D01*
X858040Y134319D01*
X855760Y133002D01*
X853898Y131140D01*
X852581Y128860D01*
X851900Y126316D01*
Y123684D01*
X852581Y121140D01*
X853898Y118860D01*
X855760Y116998D01*
X858040Y115681D01*
X860583Y115000D01*
X863216D01*
X865760Y115681D01*
X868040Y116998D01*
X869902Y118860D01*
X871218Y121140D01*
X871900Y123684D01*
Y126316D01*
X871218Y128860D01*
X869902Y131140D01*
X868040Y133002D01*
X865760Y134319D01*
X863216Y135000D01*
D02*
G37*
G36*
X1478749Y125050D02*
X1476051D01*
X1473444Y124352D01*
X1471106Y123002D01*
X1469198Y121094D01*
X1467849Y118756D01*
X1467150Y116149D01*
Y113451D01*
X1467849Y110844D01*
X1469198Y108506D01*
X1471106Y106598D01*
X1473444Y105248D01*
X1476051Y104550D01*
X1478749D01*
X1481356Y105248D01*
X1483694Y106598D01*
X1485602Y108506D01*
X1486951Y110844D01*
X1487650Y113451D01*
Y116149D01*
X1486951Y118756D01*
X1485602Y121094D01*
X1483694Y123002D01*
X1481356Y124352D01*
X1478749Y125050D01*
D02*
G37*
G36*
X1427949D02*
X1425251D01*
X1422644Y124352D01*
X1420306Y123002D01*
X1418398Y121094D01*
X1417048Y118756D01*
X1416350Y116149D01*
Y113451D01*
X1417048Y110844D01*
X1418398Y108506D01*
X1420306Y106598D01*
X1422644Y105248D01*
X1425251Y104550D01*
X1427949D01*
X1430556Y105248D01*
X1432894Y106598D01*
X1434802Y108506D01*
X1436151Y110844D01*
X1436850Y113451D01*
Y116149D01*
X1436151Y118756D01*
X1434802Y121094D01*
X1432894Y123002D01*
X1430556Y124352D01*
X1427949Y125050D01*
D02*
G37*
G36*
X1402549D02*
X1399851D01*
X1397244Y124352D01*
X1394906Y123002D01*
X1392998Y121094D01*
X1391649Y118756D01*
X1390950Y116149D01*
Y113451D01*
X1391649Y110844D01*
X1392998Y108506D01*
X1394906Y106598D01*
X1397244Y105248D01*
X1399851Y104550D01*
X1402549D01*
X1405156Y105248D01*
X1407494Y106598D01*
X1409402Y108506D01*
X1410751Y110844D01*
X1411450Y113451D01*
Y116149D01*
X1410751Y118756D01*
X1409402Y121094D01*
X1407494Y123002D01*
X1405156Y124352D01*
X1402549Y125050D01*
D02*
G37*
G36*
X1377149D02*
X1374451D01*
X1371844Y124352D01*
X1369506Y123002D01*
X1367598Y121094D01*
X1366248Y118756D01*
X1365550Y116149D01*
Y113451D01*
X1366248Y110844D01*
X1367598Y108506D01*
X1369506Y106598D01*
X1371844Y105248D01*
X1374451Y104550D01*
X1377149D01*
X1379756Y105248D01*
X1382094Y106598D01*
X1384002Y108506D01*
X1385352Y110844D01*
X1386050Y113451D01*
Y116149D01*
X1385352Y118756D01*
X1384002Y121094D01*
X1382094Y123002D01*
X1379756Y124352D01*
X1377149Y125050D01*
D02*
G37*
G36*
X1351749D02*
X1349051D01*
X1346444Y124352D01*
X1344106Y123002D01*
X1342198Y121094D01*
X1340849Y118756D01*
X1340150Y116149D01*
Y113451D01*
X1340849Y110844D01*
X1342198Y108506D01*
X1344106Y106598D01*
X1346444Y105248D01*
X1349051Y104550D01*
X1351749D01*
X1354356Y105248D01*
X1356694Y106598D01*
X1358602Y108506D01*
X1359951Y110844D01*
X1360650Y113451D01*
Y116149D01*
X1359951Y118756D01*
X1358602Y121094D01*
X1356694Y123002D01*
X1354356Y124352D01*
X1351749Y125050D01*
D02*
G37*
G36*
X1326349D02*
X1323651D01*
X1321044Y124352D01*
X1318706Y123002D01*
X1316798Y121094D01*
X1315448Y118756D01*
X1314750Y116149D01*
Y113451D01*
X1315448Y110844D01*
X1316798Y108506D01*
X1318706Y106598D01*
X1321044Y105248D01*
X1323651Y104550D01*
X1326349D01*
X1328956Y105248D01*
X1331294Y106598D01*
X1333202Y108506D01*
X1334552Y110844D01*
X1335250Y113451D01*
Y116149D01*
X1334552Y118756D01*
X1333202Y121094D01*
X1331294Y123002D01*
X1328956Y124352D01*
X1326349Y125050D01*
D02*
G37*
G36*
X1300949D02*
X1298251D01*
X1295644Y124352D01*
X1293306Y123002D01*
X1291398Y121094D01*
X1290049Y118756D01*
X1289350Y116149D01*
Y113451D01*
X1290049Y110844D01*
X1291398Y108506D01*
X1293306Y106598D01*
X1295644Y105248D01*
X1298251Y104550D01*
X1300949D01*
X1303556Y105248D01*
X1305894Y106598D01*
X1307802Y108506D01*
X1309151Y110844D01*
X1309850Y113451D01*
Y116149D01*
X1309151Y118756D01*
X1307802Y121094D01*
X1305894Y123002D01*
X1303556Y124352D01*
X1300949Y125050D01*
D02*
G37*
G36*
X1275549D02*
X1272851D01*
X1270244Y124352D01*
X1267906Y123002D01*
X1265998Y121094D01*
X1264649Y118756D01*
X1263950Y116149D01*
Y113451D01*
X1264649Y110844D01*
X1265998Y108506D01*
X1267906Y106598D01*
X1270244Y105248D01*
X1272851Y104550D01*
X1275549D01*
X1278156Y105248D01*
X1280494Y106598D01*
X1282402Y108506D01*
X1283752Y110844D01*
X1284450Y113451D01*
Y116149D01*
X1283752Y118756D01*
X1282402Y121094D01*
X1280494Y123002D01*
X1278156Y124352D01*
X1275549Y125050D01*
D02*
G37*
G36*
X1250149D02*
X1247451D01*
X1244844Y124352D01*
X1242506Y123002D01*
X1240598Y121094D01*
X1239249Y118756D01*
X1238550Y116149D01*
Y113451D01*
X1239249Y110844D01*
X1240598Y108506D01*
X1242506Y106598D01*
X1244844Y105248D01*
X1247451Y104550D01*
X1250149D01*
X1252756Y105248D01*
X1255094Y106598D01*
X1257002Y108506D01*
X1258352Y110844D01*
X1259050Y113451D01*
Y116149D01*
X1258352Y118756D01*
X1257002Y121094D01*
X1255094Y123002D01*
X1252756Y124352D01*
X1250149Y125050D01*
D02*
G37*
G36*
X1224749D02*
X1222051D01*
X1219444Y124352D01*
X1217106Y123002D01*
X1215198Y121094D01*
X1213848Y118756D01*
X1213150Y116149D01*
Y113451D01*
X1213848Y110844D01*
X1215198Y108506D01*
X1217106Y106598D01*
X1219444Y105248D01*
X1222051Y104550D01*
X1224749D01*
X1227356Y105248D01*
X1229694Y106598D01*
X1231602Y108506D01*
X1232952Y110844D01*
X1233650Y113451D01*
Y116149D01*
X1232952Y118756D01*
X1231602Y121094D01*
X1229694Y123002D01*
X1227356Y124352D01*
X1224749Y125050D01*
D02*
G37*
G36*
X1199349D02*
X1196651D01*
X1194044Y124352D01*
X1191706Y123002D01*
X1189798Y121094D01*
X1188448Y118756D01*
X1187750Y116149D01*
Y113451D01*
X1188448Y110844D01*
X1189798Y108506D01*
X1191706Y106598D01*
X1194044Y105248D01*
X1196651Y104550D01*
X1199349D01*
X1201956Y105248D01*
X1204294Y106598D01*
X1206202Y108506D01*
X1207551Y110844D01*
X1208250Y113451D01*
Y116149D01*
X1207551Y118756D01*
X1206202Y121094D01*
X1204294Y123002D01*
X1201956Y124352D01*
X1199349Y125050D01*
D02*
G37*
G36*
X1173949D02*
X1171251D01*
X1168644Y124352D01*
X1166306Y123002D01*
X1164398Y121094D01*
X1163048Y118756D01*
X1162350Y116149D01*
Y113451D01*
X1163048Y110844D01*
X1164398Y108506D01*
X1166306Y106598D01*
X1168644Y105248D01*
X1171251Y104550D01*
X1173949D01*
X1176556Y105248D01*
X1178894Y106598D01*
X1180802Y108506D01*
X1182151Y110844D01*
X1182850Y113451D01*
Y116149D01*
X1182151Y118756D01*
X1180802Y121094D01*
X1178894Y123002D01*
X1176556Y124352D01*
X1173949Y125050D01*
D02*
G37*
G36*
X1462790Y113530D02*
X1453270D01*
Y104010D01*
X1453421D01*
X1456165Y104745D01*
X1458625Y106166D01*
X1460634Y108175D01*
X1462055Y110635D01*
X1462790Y113379D01*
Y113530D01*
D02*
G37*
G36*
X1450730D02*
X1441210D01*
Y113379D01*
X1441945Y110635D01*
X1443366Y108175D01*
X1445375Y106166D01*
X1447835Y104745D01*
X1450580Y104010D01*
X1450730D01*
Y113530D01*
D02*
G37*
G36*
X637369Y118500D02*
X635131D01*
X632969Y117921D01*
X631031Y116802D01*
X629448Y115219D01*
X628329Y113281D01*
X627750Y111119D01*
Y108881D01*
X628329Y106719D01*
X629448Y104781D01*
X631031Y103198D01*
X632969Y102079D01*
X635131Y101500D01*
X637369D01*
X639531Y102079D01*
X641469Y103198D01*
X643052Y104781D01*
X644171Y106719D01*
X644750Y108881D01*
Y111119D01*
X644171Y113281D01*
X643052Y115219D01*
X641469Y116802D01*
X639531Y117921D01*
X637369Y118500D01*
D02*
G37*
G36*
X574869D02*
X572631D01*
X570469Y117921D01*
X568531Y116802D01*
X566948Y115219D01*
X565829Y113281D01*
X565250Y111119D01*
Y108881D01*
X565829Y106719D01*
X566948Y104781D01*
X568531Y103198D01*
X570469Y102079D01*
X572631Y101500D01*
X574869D01*
X577031Y102079D01*
X578969Y103198D01*
X580552Y104781D01*
X581671Y106719D01*
X582250Y108881D01*
Y111119D01*
X581671Y113281D01*
X580552Y115219D01*
X578969Y116802D01*
X577031Y117921D01*
X574869Y118500D01*
D02*
G37*
%LPD*%
G36*
X945000Y288574D02*
X944134Y288239D01*
X943730Y288201D01*
X942549Y289382D01*
X940895Y290067D01*
X939105D01*
X937451Y289382D01*
X936185Y288116D01*
X935500Y286462D01*
Y284672D01*
X936185Y283018D01*
X937451Y281752D01*
X939105Y281067D01*
X940466D01*
X940703Y280712D01*
Y278922D01*
X941388Y277268D01*
X942654Y276002D01*
X944308Y275317D01*
X945000D01*
Y243007D01*
X944134Y242672D01*
X943730Y242634D01*
X942549Y243815D01*
X940895Y244500D01*
X939105D01*
X937451Y243815D01*
X936185Y242549D01*
X935500Y240895D01*
Y239105D01*
X936185Y237451D01*
X937451Y236185D01*
X939105Y235500D01*
X940895D01*
X942549Y236185D01*
X943730Y237366D01*
X944134Y237328D01*
X945000Y236993D01*
Y199500D01*
X944105D01*
X942451Y198815D01*
X941185Y197549D01*
X940500Y195895D01*
Y194105D01*
X941185Y192451D01*
X942451Y191185D01*
X944105Y190500D01*
X945000D01*
Y184000D01*
X944105D01*
X942451Y183315D01*
X941185Y182049D01*
X940500Y180395D01*
Y178605D01*
X941185Y176951D01*
X942451Y175685D01*
X944105Y175000D01*
X945000D01*
Y140000D01*
X798007D01*
X797672Y140866D01*
X797634Y141270D01*
X798815Y142451D01*
X799500Y144105D01*
Y145895D01*
X798815Y147549D01*
X797549Y148815D01*
X795895Y149500D01*
X794105D01*
X792451Y148815D01*
X791185Y147549D01*
X790500Y145895D01*
Y144105D01*
X791185Y142451D01*
X792366Y141270D01*
X792328Y140866D01*
X791993Y140000D01*
X766250D01*
Y140594D01*
X765413Y142615D01*
X763866Y144163D01*
X761844Y145000D01*
X759656D01*
X757635Y144163D01*
X756087Y142615D01*
X755250Y140594D01*
Y140000D01*
X724750D01*
Y140594D01*
X723913Y142615D01*
X722365Y144163D01*
X720344Y145000D01*
X718156D01*
X716134Y144163D01*
X714587Y142615D01*
X713750Y140594D01*
Y140000D01*
X698007D01*
X697672Y140866D01*
X697634Y141270D01*
X698815Y142451D01*
X699500Y144105D01*
Y145895D01*
X698815Y147549D01*
X697549Y148815D01*
X695895Y149500D01*
X694105D01*
X692451Y148815D01*
X691185Y147549D01*
X690500Y145895D01*
Y144105D01*
X691185Y142451D01*
X692366Y141270D01*
X692328Y140866D01*
X691993Y140000D01*
X460000D01*
Y410000D01*
X606396D01*
Y396500D01*
X606809Y393368D01*
X608018Y390448D01*
X609941Y387942D01*
X612448Y386018D01*
X615367Y384809D01*
X618500Y384397D01*
X621632Y384809D01*
X624551Y386018D01*
X627058Y387942D01*
X628982Y390448D01*
X630191Y393368D01*
X630603Y396500D01*
Y410000D01*
X945000D01*
Y288574D01*
D02*
G37*
%LPC*%
G36*
X705895Y408000D02*
X704105D01*
X702451Y407315D01*
X701185Y406049D01*
X700500Y404395D01*
Y404037D01*
X699230Y403784D01*
X698812Y404793D01*
X697546Y406059D01*
X695892Y406744D01*
X694102D01*
X692448Y406059D01*
X691182Y404793D01*
X690497Y403139D01*
Y401349D01*
X691182Y399695D01*
X692173Y398704D01*
X691262Y397793D01*
X690577Y396139D01*
Y394349D01*
X691262Y392695D01*
X692297Y391660D01*
X691185Y390549D01*
X690500Y388895D01*
Y387105D01*
X691185Y385451D01*
X692136Y384500D01*
X691185Y383549D01*
X690500Y381895D01*
Y380105D01*
X691185Y378451D01*
X692451Y377185D01*
X694105Y376500D01*
X695895D01*
X697549Y377185D01*
X698815Y378451D01*
X699500Y380105D01*
Y381895D01*
X698815Y383549D01*
X697864Y384500D01*
X698815Y385451D01*
X699500Y387105D01*
Y388895D01*
X698815Y390549D01*
X697780Y391584D01*
X698892Y392695D01*
X699577Y394349D01*
Y396139D01*
X698892Y397793D01*
X697901Y398784D01*
X698812Y399695D01*
X699497Y401349D01*
Y401707D01*
X700767Y401960D01*
X701185Y400951D01*
X702451Y399685D01*
X704105Y399000D01*
X705895D01*
X707549Y399685D01*
X708815Y400951D01*
X709500Y402605D01*
Y404395D01*
X708815Y406049D01*
X707549Y407315D01*
X705895Y408000D01*
D02*
G37*
G36*
X660895Y399500D02*
X659105D01*
X657451Y398815D01*
X656185Y397549D01*
X655500Y395895D01*
Y394105D01*
X656185Y392451D01*
X657451Y391185D01*
X659105Y390500D01*
X660895D01*
X662549Y391185D01*
X663815Y392451D01*
X664500Y394105D01*
Y395895D01*
X663815Y397549D01*
X662549Y398815D01*
X660895Y399500D01*
D02*
G37*
G36*
X800895Y389500D02*
X799105D01*
X797451Y388815D01*
X796185Y387549D01*
X796073Y387278D01*
X794827Y387030D01*
X794458Y387399D01*
X792804Y388085D01*
X791014D01*
X789360Y387399D01*
X788094Y386134D01*
X787409Y384480D01*
Y382690D01*
X788094Y381036D01*
X789360Y379770D01*
X791014Y379085D01*
X792804D01*
X794458Y379770D01*
X795724Y381036D01*
X795836Y381306D01*
X797082Y381554D01*
X797451Y381185D01*
X799105Y380500D01*
X800895D01*
X802549Y381185D01*
X803815Y382451D01*
X804500Y384105D01*
Y385895D01*
X803815Y387549D01*
X802549Y388815D01*
X800895Y389500D01*
D02*
G37*
G36*
X641270Y389929D02*
Y386270D01*
X644929D01*
X644273Y387855D01*
X642855Y389273D01*
X641270Y389929D01*
D02*
G37*
G36*
X638730D02*
X637145Y389273D01*
X635727Y387855D01*
X635071Y386270D01*
X638730D01*
Y389929D01*
D02*
G37*
G36*
X706532Y389744D02*
X704742D01*
X703088Y389058D01*
X701822Y387793D01*
X701137Y386139D01*
Y384348D01*
X701822Y382695D01*
X703088Y381429D01*
X704742Y380744D01*
X706532D01*
X708186Y381429D01*
X709452Y382695D01*
X710137Y384348D01*
Y386139D01*
X709452Y387793D01*
X708186Y389058D01*
X706532Y389744D01*
D02*
G37*
G36*
X644929Y383730D02*
X641270D01*
Y380071D01*
X642855Y380727D01*
X644273Y382145D01*
X644929Y383730D01*
D02*
G37*
G36*
X638730D02*
X635071D01*
X635727Y382145D01*
X637145Y380727D01*
X638730Y380071D01*
Y383730D01*
D02*
G37*
G36*
X741249Y387932D02*
X739244D01*
X737392Y387164D01*
X735974Y385747D01*
X735206Y383894D01*
Y381889D01*
X735974Y380037D01*
X737392Y378619D01*
X739244Y377852D01*
X741249D01*
X743101Y378619D01*
X744230Y379748D01*
X745500Y379339D01*
Y379105D01*
X746185Y377451D01*
X747451Y376185D01*
X749105Y375500D01*
X750895D01*
X752549Y376185D01*
X753815Y377451D01*
X754500Y379105D01*
Y380895D01*
X753815Y382549D01*
X752549Y383815D01*
X750895Y384500D01*
X749105D01*
X747451Y383815D01*
X746556Y382921D01*
X745286Y383446D01*
Y383894D01*
X744519Y385747D01*
X743101Y387164D01*
X741249Y387932D01*
D02*
G37*
G36*
X806395Y379500D02*
X804605D01*
X802951Y378815D01*
X801685Y377549D01*
X801000Y375895D01*
Y374105D01*
X801685Y372451D01*
X802951Y371185D01*
X804605Y370500D01*
X806395D01*
X808049Y371185D01*
X809315Y372451D01*
X810000Y374105D01*
Y375895D01*
X809315Y377549D01*
X808049Y378815D01*
X806395Y379500D01*
D02*
G37*
G36*
X765895D02*
X764105D01*
X762451Y378815D01*
X761185Y377549D01*
X760500Y375895D01*
Y374105D01*
X761185Y372451D01*
X762451Y371185D01*
X762865Y371014D01*
X762957Y370549D01*
X762272Y368895D01*
Y367105D01*
X762957Y365451D01*
X764223Y364185D01*
X765877Y363500D01*
X767667D01*
X769321Y364185D01*
X770587Y365451D01*
X771272Y367105D01*
Y368895D01*
X770587Y370549D01*
X769321Y371815D01*
X768908Y371987D01*
X768815Y372451D01*
X769500Y374105D01*
Y375895D01*
X768815Y377549D01*
X767549Y378815D01*
X765895Y379500D01*
D02*
G37*
G36*
X775895Y365000D02*
X774105D01*
X772451Y364315D01*
X771185Y363049D01*
X770500Y361395D01*
Y360624D01*
X769924Y359553D01*
X769327Y359500D01*
X768105D01*
X766451Y358815D01*
X765185Y357549D01*
X764500Y355895D01*
Y354105D01*
X765185Y352451D01*
X766451Y351185D01*
X768105Y350500D01*
X769895D01*
X771549Y351185D01*
X772815Y352451D01*
X773500Y354105D01*
Y354876D01*
X774076Y355947D01*
X774673Y356000D01*
X775895D01*
X777549Y356685D01*
X778815Y357951D01*
X779500Y359605D01*
Y361395D01*
X778815Y363049D01*
X777549Y364315D01*
X775895Y365000D01*
D02*
G37*
G36*
X821002Y360040D02*
X818997D01*
X817145Y359273D01*
X815727Y357855D01*
X814960Y356003D01*
Y353997D01*
X815727Y352145D01*
X817145Y350727D01*
X818997Y349960D01*
X821002D01*
X822855Y350727D01*
X824273Y352145D01*
X825040Y353997D01*
Y356003D01*
X824273Y357855D01*
X822855Y359273D01*
X821002Y360040D01*
D02*
G37*
G36*
X781270Y350429D02*
Y346770D01*
X784929D01*
X784273Y348355D01*
X782855Y349773D01*
X781270Y350429D01*
D02*
G37*
G36*
X778730D02*
X777145Y349773D01*
X775727Y348355D01*
X775071Y346770D01*
X778730D01*
Y350429D01*
D02*
G37*
G36*
X870895Y354500D02*
X869105D01*
X867451Y353815D01*
X866185Y352549D01*
X865500Y350895D01*
Y349105D01*
X866185Y347451D01*
X867451Y346185D01*
X869105Y345500D01*
X870895D01*
X872549Y346185D01*
X873815Y347451D01*
X874500Y349105D01*
Y350895D01*
X873815Y352549D01*
X872549Y353815D01*
X870895Y354500D01*
D02*
G37*
G36*
X784929Y344230D02*
X781270D01*
Y340571D01*
X782855Y341227D01*
X784273Y342645D01*
X784929Y344230D01*
D02*
G37*
G36*
X778730D02*
X775071D01*
X775727Y342645D01*
X777145Y341227D01*
X778730Y340571D01*
Y344230D01*
D02*
G37*
G36*
X733730Y334929D02*
X732145Y334273D01*
X730727Y332855D01*
X730071Y331270D01*
X733730D01*
Y334929D01*
D02*
G37*
G36*
X900895Y339500D02*
X899105D01*
X897451Y338815D01*
X896185Y337549D01*
X895500Y335895D01*
Y334105D01*
X896185Y332451D01*
X897451Y331185D01*
X899105Y330500D01*
X900895D01*
X902549Y331185D01*
X903815Y332451D01*
X904500Y334105D01*
Y335895D01*
X903815Y337549D01*
X902549Y338815D01*
X900895Y339500D01*
D02*
G37*
G36*
X710895D02*
X709105D01*
X707451Y338815D01*
X706185Y337549D01*
X705500Y335895D01*
Y334105D01*
X706185Y332451D01*
X707451Y331185D01*
X709105Y330500D01*
X710895D01*
X712549Y331185D01*
X713815Y332451D01*
X714500Y334105D01*
Y335895D01*
X713815Y337549D01*
X712549Y338815D01*
X710895Y339500D01*
D02*
G37*
G36*
X780895Y339000D02*
X779105D01*
X777451Y338315D01*
X776185Y337049D01*
X775500Y335395D01*
Y333605D01*
X776185Y331951D01*
X777451Y330685D01*
X779105Y330000D01*
X780895D01*
X782549Y330685D01*
X783815Y331951D01*
X784500Y333605D01*
Y335395D01*
X783815Y337049D01*
X782549Y338315D01*
X780895Y339000D01*
D02*
G37*
G36*
X856270Y329929D02*
Y326270D01*
X859929D01*
X859273Y327855D01*
X857855Y329273D01*
X856270Y329929D01*
D02*
G37*
G36*
X853730D02*
X852145Y329273D01*
X850727Y327855D01*
X850071Y326270D01*
X853730D01*
Y329929D01*
D02*
G37*
G36*
X736270Y334929D02*
Y330000D01*
Y325071D01*
X737855Y325727D01*
X739273Y327145D01*
X739605Y327947D01*
X740980D01*
X741185Y327451D01*
X742451Y326185D01*
X744105Y325500D01*
X745895D01*
X747549Y326185D01*
X748815Y327451D01*
X749500Y329105D01*
Y330895D01*
X748815Y332549D01*
X747549Y333815D01*
X745895Y334500D01*
X744105D01*
X742451Y333815D01*
X741185Y332549D01*
X740980Y332053D01*
X739605D01*
X739273Y332855D01*
X737855Y334273D01*
X736270Y334929D01*
D02*
G37*
G36*
X590895Y334500D02*
X589105D01*
X587451Y333815D01*
X586185Y332549D01*
X585500Y330895D01*
Y329105D01*
X586185Y327451D01*
X587451Y326185D01*
X589105Y325500D01*
X590895D01*
X592549Y326185D01*
X593815Y327451D01*
X594500Y329105D01*
Y330895D01*
X593815Y332549D01*
X592549Y333815D01*
X590895Y334500D01*
D02*
G37*
G36*
X733730Y328730D02*
X730071D01*
X730727Y327145D01*
X732145Y325727D01*
X733730Y325071D01*
Y328730D01*
D02*
G37*
G36*
X815895Y329500D02*
X814105D01*
X812451Y328815D01*
X811185Y327549D01*
X810500Y325895D01*
Y324105D01*
X811185Y322451D01*
X812451Y321185D01*
X814105Y320500D01*
X815895D01*
X817549Y321185D01*
X818815Y322451D01*
X819500Y324105D01*
Y325895D01*
X818815Y327549D01*
X817549Y328815D01*
X815895Y329500D01*
D02*
G37*
G36*
X859929Y323730D02*
X856270D01*
Y320071D01*
X857855Y320727D01*
X859273Y322145D01*
X859929Y323730D01*
D02*
G37*
G36*
X853730D02*
X850071D01*
X850727Y322145D01*
X852145Y320727D01*
X853730Y320071D01*
Y323730D01*
D02*
G37*
G36*
X765895Y324500D02*
X764105D01*
X762451Y323815D01*
X761185Y322549D01*
X760500Y320895D01*
Y319105D01*
X761185Y317451D01*
X762451Y316185D01*
X764105Y315500D01*
X765895D01*
X767549Y316185D01*
X768815Y317451D01*
X769500Y319105D01*
Y320895D01*
X768815Y322549D01*
X767549Y323815D01*
X765895Y324500D01*
D02*
G37*
G36*
X646003Y325040D02*
X643997D01*
X642145Y324273D01*
X640727Y322855D01*
X639960Y321003D01*
Y318997D01*
X640727Y317145D01*
X642145Y315727D01*
X643997Y314960D01*
X646003D01*
X647855Y315727D01*
X649273Y317145D01*
X650040Y318997D01*
Y321003D01*
X649273Y322855D01*
X647855Y324273D01*
X646003Y325040D01*
D02*
G37*
G36*
X873753Y318107D02*
X871962D01*
X870309Y317422D01*
X869043Y316156D01*
X868357Y314502D01*
Y312712D01*
X869043Y311058D01*
X870309Y309792D01*
X871962Y309107D01*
X873753D01*
X875407Y309792D01*
X876672Y311058D01*
X877357Y312712D01*
Y314502D01*
X876672Y316156D01*
X875407Y317422D01*
X873753Y318107D01*
D02*
G37*
G36*
X675895Y314500D02*
X674105D01*
X672451Y313815D01*
X671185Y312549D01*
X670500Y310895D01*
Y309105D01*
X671185Y307451D01*
X672451Y306185D01*
X674105Y305500D01*
X675096D01*
X675500Y304895D01*
Y303105D01*
X676185Y301451D01*
X677451Y300185D01*
X679105Y299500D01*
X680895D01*
X682549Y300185D01*
X683815Y301451D01*
X684500Y303105D01*
Y304895D01*
X683815Y306549D01*
X682549Y307815D01*
X680895Y308500D01*
X679904D01*
X679500Y309105D01*
Y310895D01*
X678815Y312549D01*
X677549Y313815D01*
X675895Y314500D01*
D02*
G37*
G36*
X781270Y298443D02*
Y294784D01*
X784929D01*
X784273Y296369D01*
X782855Y297787D01*
X781270Y298443D01*
D02*
G37*
G36*
X778730D02*
X777145Y297787D01*
X775727Y296369D01*
X775071Y294784D01*
X778730D01*
Y298443D01*
D02*
G37*
G36*
X870895Y298014D02*
X869105D01*
X867451Y297329D01*
X866185Y296063D01*
X865500Y294409D01*
Y292619D01*
X866185Y290965D01*
X867451Y289699D01*
X869105Y289014D01*
X870895D01*
X872549Y289699D01*
X873815Y290965D01*
X874500Y292619D01*
Y294409D01*
X873815Y296063D01*
X872549Y297329D01*
X870895Y298014D01*
D02*
G37*
G36*
X843756Y298554D02*
X841751D01*
X839898Y297787D01*
X838481Y296369D01*
X837713Y294516D01*
Y292511D01*
X838481Y290659D01*
X839898Y289241D01*
X841751Y288474D01*
X843756D01*
X845608Y289241D01*
X847026Y290659D01*
X847793Y292511D01*
Y294516D01*
X847026Y296369D01*
X845608Y297787D01*
X843756Y298554D01*
D02*
G37*
G36*
X721270Y289929D02*
Y286270D01*
X724929D01*
X724273Y287855D01*
X722855Y289273D01*
X721270Y289929D01*
D02*
G37*
G36*
X718730D02*
X717145Y289273D01*
X715727Y287855D01*
X715071Y286270D01*
X718730D01*
Y289929D01*
D02*
G37*
G36*
X745895Y294500D02*
X744105D01*
X742451Y293815D01*
X741185Y292549D01*
X740500Y290895D01*
Y289105D01*
X741185Y287451D01*
X742451Y286185D01*
X744105Y285500D01*
X745895D01*
X747549Y286185D01*
X748815Y287451D01*
X749500Y289105D01*
Y290895D01*
X748815Y292549D01*
X747549Y293815D01*
X745895Y294500D01*
D02*
G37*
G36*
X755895Y289500D02*
X754105D01*
X752451Y288815D01*
X751185Y287549D01*
X750500Y285895D01*
Y284105D01*
X751185Y282451D01*
X752451Y281185D01*
X754105Y280500D01*
X755895D01*
X757549Y281185D01*
X758815Y282451D01*
X759500Y284105D01*
Y285895D01*
X758815Y287549D01*
X757549Y288815D01*
X755895Y289500D01*
D02*
G37*
G36*
X570895D02*
X569105D01*
X567451Y288815D01*
X566185Y287549D01*
X565500Y285895D01*
Y284105D01*
X566185Y282451D01*
X567451Y281185D01*
X569105Y280500D01*
X570895D01*
X572549Y281185D01*
X573815Y282451D01*
X574500Y284105D01*
Y285895D01*
X573815Y287549D01*
X572549Y288815D01*
X570895Y289500D01*
D02*
G37*
G36*
X784929Y292244D02*
X775071D01*
X775727Y290659D01*
X776682Y289705D01*
X777126Y289191D01*
X776691Y288055D01*
X776185Y287549D01*
X775500Y285895D01*
Y284105D01*
X776185Y282451D01*
X777451Y281185D01*
X779105Y280500D01*
X780895D01*
X782549Y281185D01*
X783815Y282451D01*
X784500Y284105D01*
Y285895D01*
X783815Y287549D01*
X783309Y288055D01*
X782874Y289191D01*
X783319Y289705D01*
X784273Y290659D01*
X784929Y292244D01*
D02*
G37*
G36*
X724929Y283730D02*
X721270D01*
Y280071D01*
X722855Y280727D01*
X724273Y282145D01*
X724929Y283730D01*
D02*
G37*
G36*
X718730D02*
X715071D01*
X715727Y282145D01*
X717145Y280727D01*
X718730Y280071D01*
Y283730D01*
D02*
G37*
G36*
X851717Y281460D02*
X849927D01*
X848273Y280775D01*
X847007Y279509D01*
X846322Y277855D01*
Y276065D01*
X847007Y274411D01*
X848273Y273145D01*
X849927Y272460D01*
X851717D01*
X853371Y273145D01*
X854637Y274411D01*
X855322Y276065D01*
Y277855D01*
X854637Y279509D01*
X853371Y280775D01*
X851717Y281460D01*
D02*
G37*
G36*
X650895Y274500D02*
X649105D01*
X647451Y273815D01*
X646185Y272549D01*
X645500Y270895D01*
Y269105D01*
X646185Y267451D01*
X647451Y266185D01*
X649105Y265500D01*
X650895D01*
X652549Y266185D01*
X653815Y267451D01*
X654500Y269105D01*
Y270895D01*
X653815Y272549D01*
X652549Y273815D01*
X650895Y274500D01*
D02*
G37*
G36*
X735895Y266000D02*
X734105D01*
X732451Y265315D01*
X731185Y264049D01*
X730500Y262395D01*
Y260605D01*
X731185Y258951D01*
X732451Y257685D01*
X734105Y257000D01*
X735895D01*
X737549Y257685D01*
X738815Y258951D01*
X739500Y260605D01*
Y262395D01*
X738815Y264049D01*
X737549Y265315D01*
X735895Y266000D01*
D02*
G37*
G36*
X625895Y260000D02*
X624105D01*
X622451Y259315D01*
X621185Y258049D01*
X620500Y256395D01*
Y254605D01*
X621185Y252951D01*
X622451Y251685D01*
X624105Y251000D01*
X625895D01*
X627549Y251685D01*
X628815Y252951D01*
X629500Y254605D01*
Y256395D01*
X628815Y258049D01*
X627549Y259315D01*
X625895Y260000D01*
D02*
G37*
G36*
X745895Y259500D02*
X744105D01*
X742451Y258815D01*
X741185Y257549D01*
X740500Y255895D01*
Y254105D01*
X741185Y252451D01*
X742451Y251185D01*
X744105Y250500D01*
X745895D01*
X747549Y251185D01*
X748815Y252451D01*
X749500Y254105D01*
Y255895D01*
X748815Y257549D01*
X747549Y258815D01*
X745895Y259500D01*
D02*
G37*
G36*
X705895D02*
X704105D01*
X702451Y258815D01*
X701185Y257549D01*
X700500Y255895D01*
Y254105D01*
X701185Y252451D01*
X702451Y251185D01*
X704105Y250500D01*
X705895D01*
X707549Y251185D01*
X708815Y252451D01*
X709500Y254105D01*
Y255895D01*
X708815Y257549D01*
X707549Y258815D01*
X705895Y259500D01*
D02*
G37*
G36*
X725895Y249500D02*
X724105D01*
X722451Y248815D01*
X721185Y247549D01*
X720500Y245895D01*
Y244105D01*
X721185Y242451D01*
X722451Y241185D01*
X722451Y241185D01*
X722551Y240683D01*
X721866Y239029D01*
Y237239D01*
X722551Y235585D01*
X723817Y234319D01*
X725471Y233634D01*
X727261D01*
X728915Y234319D01*
X730181Y235585D01*
X730866Y237239D01*
Y239029D01*
X730181Y240683D01*
X728915Y241949D01*
X728914Y241949D01*
X728815Y242451D01*
X729500Y244105D01*
Y245895D01*
X728815Y247549D01*
X727549Y248815D01*
X725895Y249500D01*
D02*
G37*
G36*
X875895Y234500D02*
X874105D01*
X872451Y233815D01*
X871185Y232549D01*
X870500Y230895D01*
Y229105D01*
X871185Y227451D01*
X872451Y226185D01*
X874105Y225500D01*
X875895D01*
X877549Y226185D01*
X878815Y227451D01*
X879500Y229105D01*
Y230895D01*
X878815Y232549D01*
X877549Y233815D01*
X875895Y234500D01*
D02*
G37*
G36*
X485895D02*
X484105D01*
X482451Y233815D01*
X481185Y232549D01*
X480500Y230895D01*
Y229105D01*
X481185Y227451D01*
X482451Y226185D01*
X484105Y225500D01*
X485895D01*
X487549Y226185D01*
X488815Y227451D01*
X489500Y229105D01*
Y230895D01*
X488815Y232549D01*
X487549Y233815D01*
X485895Y234500D01*
D02*
G37*
G36*
X886270Y224929D02*
Y221270D01*
X889929D01*
X889273Y222855D01*
X887855Y224273D01*
X886270Y224929D01*
D02*
G37*
G36*
X883730D02*
X882145Y224273D01*
X880727Y222855D01*
X880071Y221270D01*
X883730D01*
Y224929D01*
D02*
G37*
G36*
X744127Y224500D02*
X742337D01*
X740683Y223815D01*
X739417Y222549D01*
X738732Y220895D01*
Y219105D01*
X739417Y217451D01*
X740683Y216185D01*
X742337Y215500D01*
X744127D01*
X745781Y216185D01*
X747047Y217451D01*
X747732Y219105D01*
Y220895D01*
X747047Y222549D01*
X745781Y223815D01*
X744127Y224500D01*
D02*
G37*
G36*
X889929Y218730D02*
X886270D01*
Y215071D01*
X887855Y215727D01*
X889273Y217145D01*
X889929Y218730D01*
D02*
G37*
G36*
X883730D02*
X880071D01*
X880727Y217145D01*
X882145Y215727D01*
X883730Y215071D01*
Y218730D01*
D02*
G37*
G36*
X625895Y219500D02*
X624105D01*
X622451Y218815D01*
X621185Y217549D01*
X620500Y215895D01*
Y214105D01*
X621185Y212451D01*
X622451Y211185D01*
X624105Y210500D01*
X625895D01*
X627549Y211185D01*
X628815Y212451D01*
X629500Y214105D01*
Y215895D01*
X628815Y217549D01*
X627549Y218815D01*
X625895Y219500D01*
D02*
G37*
G36*
X490895D02*
X489105D01*
X487451Y218815D01*
X486185Y217549D01*
X485500Y215895D01*
Y214105D01*
X486185Y212451D01*
X487451Y211185D01*
X489105Y210500D01*
X490895D01*
X492549Y211185D01*
X493815Y212451D01*
X494500Y214105D01*
Y215895D01*
X493815Y217549D01*
X492549Y218815D01*
X490895Y219500D01*
D02*
G37*
G36*
X845895Y209500D02*
X844105D01*
X842451Y208815D01*
X841185Y207549D01*
X840500Y205895D01*
Y204105D01*
X841185Y202451D01*
X842451Y201185D01*
X844105Y200500D01*
X845895D01*
X847549Y201185D01*
X848815Y202451D01*
X849500Y204105D01*
Y205895D01*
X848815Y207549D01*
X847549Y208815D01*
X845895Y209500D01*
D02*
G37*
G36*
X723972Y207190D02*
X722182D01*
X720528Y206505D01*
X719262Y205239D01*
X718577Y203585D01*
Y201795D01*
X719262Y200141D01*
X720528Y198876D01*
X722182Y198190D01*
X723972D01*
X725626Y198876D01*
X726892Y200141D01*
X727577Y201795D01*
Y203585D01*
X726892Y205239D01*
X725626Y206505D01*
X723972Y207190D01*
D02*
G37*
G36*
X820895Y205000D02*
X819105D01*
X817451Y204315D01*
X816185Y203049D01*
X815500Y201395D01*
Y199605D01*
X816185Y197951D01*
X817451Y196685D01*
X819105Y196000D01*
X820895D01*
X822549Y196685D01*
X823815Y197951D01*
X824500Y199605D01*
Y201395D01*
X823815Y203049D01*
X822549Y204315D01*
X820895Y205000D01*
D02*
G37*
G36*
X805895Y224500D02*
X804105D01*
X802451Y223815D01*
X801185Y222549D01*
X800500Y220895D01*
Y219105D01*
X801185Y217451D01*
X802451Y216185D01*
X803686Y215673D01*
Y214327D01*
X802451Y213815D01*
X801185Y212549D01*
X800500Y210895D01*
Y209105D01*
X801185Y207451D01*
X802451Y206185D01*
X803687Y205673D01*
Y204327D01*
X802451Y203815D01*
X801185Y202549D01*
X800500Y200895D01*
Y199105D01*
X801185Y197451D01*
X802451Y196185D01*
X804105Y195500D01*
X805895D01*
X807549Y196185D01*
X808815Y197451D01*
X809500Y199105D01*
Y200895D01*
X808815Y202549D01*
X807549Y203815D01*
X806313Y204327D01*
Y205673D01*
X807549Y206185D01*
X808815Y207451D01*
X809500Y209105D01*
Y210895D01*
X808815Y212549D01*
X807549Y213815D01*
X806314Y214327D01*
Y215673D01*
X807549Y216185D01*
X808815Y217451D01*
X809500Y219105D01*
Y220895D01*
X808815Y222549D01*
X807549Y223815D01*
X805895Y224500D01*
D02*
G37*
G36*
X741003Y205040D02*
X738997D01*
X737145Y204273D01*
X735727Y202855D01*
X734960Y201003D01*
Y198997D01*
X735727Y197145D01*
X737145Y195727D01*
X738997Y194960D01*
X741003D01*
X742855Y195727D01*
X744273Y197145D01*
X745040Y198997D01*
Y201003D01*
X744273Y202855D01*
X742855Y204273D01*
X741003Y205040D01*
D02*
G37*
G36*
X730282Y198887D02*
X728492D01*
X726838Y198202D01*
X725572Y196936D01*
X724887Y195282D01*
Y193492D01*
X725572Y191838D01*
X726838Y190572D01*
X728492Y189887D01*
X730282D01*
X731936Y190572D01*
X733202Y191838D01*
X733887Y193492D01*
Y195282D01*
X733202Y196936D01*
X731936Y198202D01*
X730282Y198887D01*
D02*
G37*
G36*
X767020Y189929D02*
Y186270D01*
X770679D01*
X770023Y187855D01*
X768605Y189273D01*
X767020Y189929D01*
D02*
G37*
G36*
X764480D02*
X762895Y189273D01*
X761477Y187855D01*
X760821Y186270D01*
X764480D01*
Y189929D01*
D02*
G37*
G36*
X810144Y195000D02*
X808353D01*
X806699Y194315D01*
X805434Y193049D01*
X804749Y191395D01*
Y189605D01*
X805434Y187951D01*
X806699Y186685D01*
X808353Y186000D01*
X810144D01*
X811797Y186685D01*
X813063Y187951D01*
X813748Y189605D01*
Y191395D01*
X813063Y193049D01*
X811797Y194315D01*
X810144Y195000D01*
D02*
G37*
G36*
X830895Y189500D02*
X829105D01*
X827451Y188815D01*
X826185Y187549D01*
X825500Y185895D01*
Y184105D01*
X826185Y182451D01*
X827451Y181185D01*
X829105Y180500D01*
X830895D01*
X832549Y181185D01*
X833815Y182451D01*
X834500Y184105D01*
Y185895D01*
X833815Y187549D01*
X832549Y188815D01*
X830895Y189500D01*
D02*
G37*
G36*
X770679Y183730D02*
X767020D01*
Y180071D01*
X768605Y180727D01*
X770023Y182145D01*
X770679Y183730D01*
D02*
G37*
G36*
X764480D02*
X760821D01*
X761477Y182145D01*
X762895Y180727D01*
X764480Y180071D01*
Y183730D01*
D02*
G37*
G36*
X845895Y188000D02*
X844105D01*
X842451Y187315D01*
X841185Y186049D01*
X840500Y184395D01*
Y182605D01*
X841185Y180951D01*
X842451Y179685D01*
X844105Y179000D01*
X845895D01*
X847549Y179685D01*
X848815Y180951D01*
X849500Y182605D01*
Y184395D01*
X848815Y186049D01*
X847549Y187315D01*
X845895Y188000D01*
D02*
G37*
G36*
X818269Y186874D02*
X816479D01*
X814825Y186189D01*
X813559Y184923D01*
X812874Y183269D01*
Y181479D01*
X813559Y179825D01*
X814825Y178559D01*
X816479Y177874D01*
X818269D01*
X819923Y178559D01*
X821189Y179825D01*
X821874Y181479D01*
Y183269D01*
X821189Y184923D01*
X819923Y186189D01*
X818269Y186874D01*
D02*
G37*
G36*
X865895Y184500D02*
X864105D01*
X862451Y183815D01*
X861185Y182549D01*
X860500Y180895D01*
Y179105D01*
X861185Y177451D01*
X862451Y176185D01*
X864105Y175500D01*
X865895D01*
X867549Y176185D01*
X868815Y177451D01*
X869261Y178529D01*
X869862Y178566D01*
X870584Y178403D01*
X871185Y176951D01*
X872451Y175685D01*
X874105Y175000D01*
X875895D01*
X877549Y175685D01*
X878815Y176951D01*
X879500Y178605D01*
Y180395D01*
X878815Y182049D01*
X877549Y183315D01*
X875895Y184000D01*
X874105D01*
X872451Y183315D01*
X871185Y182049D01*
X870739Y180971D01*
X870138Y180934D01*
X869416Y181097D01*
X868815Y182549D01*
X867549Y183815D01*
X865895Y184500D01*
D02*
G37*
G36*
X775895Y179500D02*
X774105D01*
X772451Y178815D01*
X771185Y177549D01*
X770500Y175895D01*
Y174105D01*
X771185Y172451D01*
X772451Y171185D01*
X774105Y170500D01*
X775895D01*
X777549Y171185D01*
X778815Y172451D01*
X779500Y174105D01*
Y175895D01*
X778815Y177549D01*
X777549Y178815D01*
X775895Y179500D01*
D02*
G37*
G36*
X596270Y169929D02*
Y166270D01*
X599929D01*
X599273Y167855D01*
X597855Y169273D01*
X596270Y169929D01*
D02*
G37*
G36*
X593730D02*
X592145Y169273D01*
X590727Y167855D01*
X590071Y166270D01*
X593730D01*
Y169929D01*
D02*
G37*
G36*
X504615Y171772D02*
X502825D01*
X501171Y171087D01*
X499905Y169821D01*
X499220Y168167D01*
Y166377D01*
X499905Y164723D01*
X501171Y163457D01*
X502825Y162772D01*
X504615D01*
X506269Y163457D01*
X507535Y164723D01*
X508220Y166377D01*
Y168167D01*
X507535Y169821D01*
X506269Y171087D01*
X504615Y171772D01*
D02*
G37*
G36*
X575895Y169500D02*
X574105D01*
X572451Y168815D01*
X571185Y167549D01*
X570500Y165895D01*
Y164105D01*
X571185Y162451D01*
X572451Y161185D01*
X574105Y160500D01*
X575895D01*
X577549Y161185D01*
X578815Y162451D01*
X579500Y164105D01*
Y165895D01*
X578815Y167549D01*
X577549Y168815D01*
X575895Y169500D01*
D02*
G37*
G36*
X599929Y163730D02*
X596270D01*
Y160071D01*
X597855Y160727D01*
X599273Y162145D01*
X599929Y163730D01*
D02*
G37*
G36*
X593730D02*
X590071D01*
X590727Y162145D01*
X592145Y160727D01*
X593730Y160071D01*
Y163730D01*
D02*
G37*
G36*
X675895Y159500D02*
X674105D01*
X672451Y158815D01*
X671185Y157549D01*
X670500Y155895D01*
Y154105D01*
X671185Y152451D01*
X672451Y151185D01*
X674105Y150500D01*
X675895D01*
X677549Y151185D01*
X678815Y152451D01*
X679500Y154105D01*
Y155895D01*
X678815Y157549D01*
X677549Y158815D01*
X675895Y159500D01*
D02*
G37*
G36*
X732545Y159377D02*
X730754D01*
X729100Y158692D01*
X727835Y157426D01*
X727150Y155772D01*
Y154427D01*
X725805D01*
X724151Y153742D01*
X722885Y152477D01*
X722200Y150822D01*
Y149032D01*
X722885Y147378D01*
X724151Y146112D01*
X725805Y145427D01*
X727595D01*
X729249Y146112D01*
X730515Y147378D01*
X731200Y149032D01*
Y150377D01*
X732545D01*
X734199Y151062D01*
X735464Y152328D01*
X736150Y153982D01*
Y155772D01*
X735464Y157426D01*
X734199Y158692D01*
X732545Y159377D01*
D02*
G37*
G36*
X755895Y154000D02*
X754105D01*
X752451Y153315D01*
X751185Y152049D01*
X750500Y150395D01*
Y148605D01*
X751185Y146951D01*
X752451Y145685D01*
X754105Y145000D01*
X755895D01*
X757549Y145685D01*
X758815Y146951D01*
X759500Y148605D01*
Y150395D01*
X758815Y152049D01*
X757549Y153315D01*
X755895Y154000D01*
D02*
G37*
%LPD*%
D17*
X872858Y313607D02*
D03*
X900000Y335000D02*
D03*
X1420000Y435750D02*
D03*
Y454249D02*
D03*
X1465000Y454250D02*
D03*
X1445375Y435375D02*
D03*
X1379250Y350004D02*
D03*
X1379250Y310005D02*
D03*
X120750Y249995D02*
D03*
X120750Y275000D02*
D03*
X570000Y285000D02*
D03*
X695077Y395244D02*
D03*
X694997Y402244D02*
D03*
X695000Y388000D02*
D03*
X695000Y381000D02*
D03*
X645000Y320000D02*
D03*
X635000Y425000D02*
D03*
X705637Y385244D02*
D03*
X705000Y403500D02*
D03*
Y414500D02*
D03*
X655000Y450000D02*
D03*
X995000Y180000D02*
D03*
X1015000Y149500D02*
D03*
X945000Y179500D02*
D03*
X970000Y220000D02*
D03*
X945000Y195000D02*
D03*
X280000Y155000D02*
D03*
X515000Y335000D02*
D03*
X535000D02*
D03*
X215000Y375000D02*
D03*
X425000Y385000D02*
D03*
X660000Y395000D02*
D03*
X1210000Y225000D02*
D03*
X1250000D02*
D03*
X955000Y275000D02*
D03*
X989869Y291369D02*
D03*
X726366Y238134D02*
D03*
X725000Y245000D02*
D03*
X743232Y220000D02*
D03*
X765750Y185000D02*
D03*
X740000Y200000D02*
D03*
X778000Y415000D02*
D03*
X785000D02*
D03*
X1330000Y480001D02*
D03*
X1100000Y149500D02*
D03*
X590000Y330000D02*
D03*
X390000Y162000D02*
D03*
X503720Y167272D02*
D03*
X490000Y215000D02*
D03*
X485000Y230000D02*
D03*
X149105Y290500D02*
D03*
X1380000Y180000D02*
D03*
Y165000D02*
D03*
X1365000Y465000D02*
D03*
Y180000D02*
D03*
X1335000Y285000D02*
D03*
Y240000D02*
D03*
Y225000D02*
D03*
X1320000Y240000D02*
D03*
Y225000D02*
D03*
X1305000Y255000D02*
D03*
X1290000Y270000D02*
D03*
Y255000D02*
D03*
X1275000Y465000D02*
D03*
Y450000D02*
D03*
Y285000D02*
D03*
Y270000D02*
D03*
Y255000D02*
D03*
X1260000Y465000D02*
D03*
Y450000D02*
D03*
Y285000D02*
D03*
Y270000D02*
D03*
Y255000D02*
D03*
X1245000Y285000D02*
D03*
Y270000D02*
D03*
Y255000D02*
D03*
X1230000Y285000D02*
D03*
Y270000D02*
D03*
Y255000D02*
D03*
X1215000Y270000D02*
D03*
Y255000D02*
D03*
X1200000Y270000D02*
D03*
Y255000D02*
D03*
X1185000Y270000D02*
D03*
Y255000D02*
D03*
X1170000Y285000D02*
D03*
Y270000D02*
D03*
Y255000D02*
D03*
X1155000Y285000D02*
D03*
Y270000D02*
D03*
Y255000D02*
D03*
X1140000Y375000D02*
D03*
Y300000D02*
D03*
Y285000D02*
D03*
Y270000D02*
D03*
Y255000D02*
D03*
X1125000Y375000D02*
D03*
Y315000D02*
D03*
Y300000D02*
D03*
Y285000D02*
D03*
Y270000D02*
D03*
Y255000D02*
D03*
X1110000Y375000D02*
D03*
Y300000D02*
D03*
Y285000D02*
D03*
Y270000D02*
D03*
Y255000D02*
D03*
X1095000Y375000D02*
D03*
Y285000D02*
D03*
Y270000D02*
D03*
Y255000D02*
D03*
Y120000D02*
D03*
X1080000Y270000D02*
D03*
Y255000D02*
D03*
Y120000D02*
D03*
X1065000Y330000D02*
D03*
Y255000D02*
D03*
Y120000D02*
D03*
X1050000Y330000D02*
D03*
Y315000D02*
D03*
Y120000D02*
D03*
X1035000Y315000D02*
D03*
Y300000D02*
D03*
Y120000D02*
D03*
X810000Y135000D02*
D03*
X450000Y405000D02*
D03*
Y300000D02*
D03*
X435000Y465000D02*
D03*
Y315000D02*
D03*
Y300000D02*
D03*
X420000D02*
D03*
X390000Y405000D02*
D03*
X375000D02*
D03*
Y315000D02*
D03*
Y225000D02*
D03*
Y120000D02*
D03*
X360000Y405000D02*
D03*
Y315000D02*
D03*
Y300000D02*
D03*
Y120000D02*
D03*
X345000Y405000D02*
D03*
Y315000D02*
D03*
Y300000D02*
D03*
Y135000D02*
D03*
Y120000D02*
D03*
X330000Y405000D02*
D03*
Y315000D02*
D03*
Y300000D02*
D03*
Y135000D02*
D03*
Y120000D02*
D03*
X315000Y315000D02*
D03*
X300000D02*
D03*
X285000D02*
D03*
X270000D02*
D03*
X255000D02*
D03*
Y135000D02*
D03*
Y120000D02*
D03*
X240000Y315000D02*
D03*
Y150000D02*
D03*
Y135000D02*
D03*
Y120000D02*
D03*
X225000Y315000D02*
D03*
Y150000D02*
D03*
Y135000D02*
D03*
Y120000D02*
D03*
X210000D02*
D03*
X165000Y315000D02*
D03*
X150000Y120000D02*
D03*
X135000Y135000D02*
D03*
Y120000D02*
D03*
X120000D02*
D03*
X105000D02*
D03*
X75000D02*
D03*
X60000D02*
D03*
X45000D02*
D03*
X30000D02*
D03*
X15000Y375000D02*
D03*
Y270000D02*
D03*
Y255000D02*
D03*
Y240000D02*
D03*
Y225000D02*
D03*
Y210000D02*
D03*
Y195000D02*
D03*
Y180000D02*
D03*
Y120000D02*
D03*
X745000Y290000D02*
D03*
X780000Y293514D02*
D03*
X870000Y293514D02*
D03*
X842753D02*
D03*
X780000Y285000D02*
D03*
X590000Y130000D02*
D03*
X525000Y335000D02*
D03*
X520000Y330000D02*
D03*
X530000D02*
D03*
X726700Y149927D02*
D03*
X731650Y154877D02*
D03*
X875000Y230000D02*
D03*
X885000Y220000D02*
D03*
X870000Y350000D02*
D03*
X805000Y425000D02*
D03*
X1463189Y400000D02*
D03*
X1310000Y305000D02*
D03*
X1289749Y345001D02*
D03*
X1219750Y335000D02*
D03*
X1259751D02*
D03*
X1350000Y310000D02*
D03*
X1105000Y405000D02*
D03*
X1100000Y480000D02*
D03*
X1015000Y285000D02*
D03*
X855000Y325000D02*
D03*
X769000Y355000D02*
D03*
X766772Y368000D02*
D03*
X775000Y360500D02*
D03*
X791909Y383585D02*
D03*
X771000Y414940D02*
D03*
X190251Y295000D02*
D03*
X230250D02*
D03*
X240000Y285000D02*
D03*
X35000Y200000D02*
D03*
X575000Y165000D02*
D03*
X350000Y260000D02*
D03*
X280000Y285000D02*
D03*
X640000Y385000D02*
D03*
X675000Y155000D02*
D03*
X755000Y149500D02*
D03*
X595000Y165000D02*
D03*
X775000Y175000D02*
D03*
X730000Y420000D02*
D03*
X755000Y285000D02*
D03*
X780000Y345500D02*
D03*
X780000Y334500D02*
D03*
X675000Y310000D02*
D03*
X720000Y285000D02*
D03*
X735000Y330000D02*
D03*
X745000D02*
D03*
X1446566Y203434D02*
D03*
X1423650Y178650D02*
D03*
X55000Y395000D02*
D03*
X76350Y421350D02*
D03*
X855000Y455000D02*
D03*
X930000Y455000D02*
D03*
X1364500Y239250D02*
D03*
X1395000Y249750D02*
D03*
X1290000Y220000D02*
D03*
X290000Y380000D02*
D03*
X250000D02*
D03*
X210000D02*
D03*
X105000Y350250D02*
D03*
X135500Y360750D02*
D03*
X310000Y170000D02*
D03*
X280000Y130000D02*
D03*
X280250Y265000D02*
D03*
X240250D02*
D03*
X1219750Y450000D02*
D03*
X1260000Y315000D02*
D03*
X1220000D02*
D03*
Y470000D02*
D03*
X1180500Y380500D02*
D03*
Y399500D02*
D03*
X1140000Y355000D02*
D03*
X325000Y200000D02*
D03*
Y220000D02*
D03*
X723077Y202690D02*
D03*
X729387Y194387D02*
D03*
X795000Y145000D02*
D03*
X817374Y182374D02*
D03*
X845000Y205000D02*
D03*
X830000Y185000D02*
D03*
X845000Y183500D02*
D03*
X645000Y130500D02*
D03*
X665000Y129500D02*
D03*
X865000Y180000D02*
D03*
X875000Y179500D02*
D03*
X820000Y200500D02*
D03*
X809248Y190500D02*
D03*
X805000Y210000D02*
D03*
X955000Y265000D02*
D03*
Y255000D02*
D03*
X945203Y279817D02*
D03*
X805000Y200000D02*
D03*
Y220000D02*
D03*
X395000Y225000D02*
D03*
X365000Y260000D02*
D03*
X625000Y215000D02*
D03*
Y255500D02*
D03*
X735000Y261500D02*
D03*
X680000Y304000D02*
D03*
X745000Y255000D02*
D03*
X765000Y320000D02*
D03*
X260000Y165000D02*
D03*
X335000Y255000D02*
D03*
X1023000Y349500D02*
D03*
X1030000D02*
D03*
X710000Y335000D02*
D03*
X805500Y375000D02*
D03*
X765000D02*
D03*
X820000Y355000D02*
D03*
X425000Y165000D02*
D03*
X445000Y144000D02*
D03*
X425005Y144001D02*
D03*
X405000Y144000D02*
D03*
X230000Y380000D02*
D03*
X1070000Y180000D02*
D03*
X1170000Y185000D02*
D03*
X705000Y255000D02*
D03*
X850822Y276960D02*
D03*
X815000Y325000D02*
D03*
X740246Y382892D02*
D03*
X750000Y380000D02*
D03*
X940000Y285567D02*
D03*
X695000Y145000D02*
D03*
X800000Y385000D02*
D03*
X1340000Y390000D02*
D03*
Y400000D02*
D03*
X160000Y200000D02*
D03*
Y210000D02*
D03*
X1269750Y305000D02*
D03*
X1330000Y345000D02*
D03*
X1310000Y440000D02*
D03*
X210250Y255000D02*
D03*
X170251D02*
D03*
X170000Y120000D02*
D03*
X190000Y160000D02*
D03*
X940000Y240000D02*
D03*
X109426Y409426D02*
D03*
X1350000Y165000D02*
D03*
X650000Y270000D02*
D03*
X1390000Y195000D02*
D03*
X1190000Y220500D02*
D03*
X764000Y415000D02*
D03*
X1270000Y220000D02*
D03*
X1230000D02*
D03*
X270000Y380000D02*
D03*
X310000D02*
D03*
D18*
X749965Y484685D02*
D03*
X618500Y396500D02*
D03*
X670000Y480000D02*
D03*
X685000Y445000D02*
D03*
X460000Y480000D02*
D03*
D83*
X105000Y275000D02*
X120500Y290500D01*
X280000Y155000D02*
X585000D01*
X280250Y155250D02*
Y265000D01*
X280000Y155000D02*
X280250Y155250D01*
X120500Y290500D02*
X149105D01*
X105000Y215000D02*
Y275000D01*
X149105Y290500D02*
X174500D01*
X90000Y200000D02*
X105000Y215000D01*
X1390000Y335000D02*
Y378872D01*
X1365000Y310000D02*
X1390000Y335000D01*
Y378872D02*
X1411128Y400000D01*
X585000Y155000D02*
X595000Y165000D01*
X174500Y290500D02*
X200000Y265000D01*
X985000Y450000D02*
X1219750D01*
X860000Y325000D02*
X985000Y450000D01*
X855000Y325000D02*
X860000D01*
X1219750Y335000D02*
Y450000D01*
X1350000Y310000D02*
X1365000D01*
X1326127D02*
X1350000D01*
X1411128Y400000D02*
X1463189D01*
X1301128Y335000D02*
X1326127Y310000D01*
X1259751Y335000D02*
X1259751Y335000D01*
X1286127D02*
X1286128Y335000D01*
X1259751Y335000D02*
X1286127D01*
X1259751D02*
X1259751Y335000D01*
X1286128Y335000D02*
X1301128D01*
X1220878Y335000D02*
X1259751D01*
X200000Y265000D02*
X215000D01*
X215000Y265000D02*
X240250D01*
X215000Y265000D02*
X215000Y265000D01*
X240250D02*
X280250D01*
X35000Y200000D02*
X90000D01*
D84*
X618500Y396500D02*
Y423500D01*
X620000Y425000D01*
D86*
X22600Y485200D02*
D03*
X48000D02*
D03*
X22600Y459800D02*
D03*
X48000D02*
D03*
X73400Y485200D02*
D03*
Y459800D02*
D03*
X124200Y485200D02*
D03*
Y459800D02*
D03*
X175000Y485200D02*
D03*
Y459800D02*
D03*
X251200Y485200D02*
D03*
Y459800D02*
D03*
X276600Y485200D02*
D03*
Y459800D02*
D03*
X327400Y485200D02*
D03*
X302000Y459800D02*
D03*
Y485200D02*
D03*
X225800Y459800D02*
D03*
Y485200D02*
D03*
X200400Y459800D02*
D03*
Y485200D02*
D03*
X149600Y459800D02*
D03*
Y485200D02*
D03*
X98800Y459800D02*
D03*
Y485200D02*
D03*
X1401200Y114800D02*
D03*
Y140200D02*
D03*
X1350400Y114800D02*
D03*
Y140200D02*
D03*
X1299600Y114800D02*
D03*
Y140200D02*
D03*
X1274200Y114800D02*
D03*
Y140200D02*
D03*
X1198000Y114800D02*
D03*
Y140200D02*
D03*
X1172600Y114800D02*
D03*
X1223400Y140200D02*
D03*
Y114800D02*
D03*
X1248800Y140200D02*
D03*
Y114800D02*
D03*
X1325000Y140200D02*
D03*
Y114800D02*
D03*
X1375800Y140200D02*
D03*
Y114800D02*
D03*
X1426600Y140200D02*
D03*
Y114800D02*
D03*
X1452000Y140200D02*
D03*
X1477400D02*
D03*
X1452000Y114800D02*
D03*
X1477400D02*
D03*
D87*
X327400Y459800D02*
D03*
X1172600Y140200D02*
D03*
D88*
X760750Y139500D02*
D03*
X719250D02*
D03*
D89*
X963500Y125000D02*
D03*
X938100D02*
D03*
X887300D02*
D03*
X861900D02*
D03*
X912700D02*
D03*
D90*
X836500D02*
D03*
D91*
X1027700Y475000D02*
D03*
X972300D02*
D03*
X472300Y125000D02*
D03*
X527700D02*
D03*
D92*
X762500Y445315D02*
D03*
X737500D02*
D03*
X762500Y470315D02*
D03*
X737500D02*
D03*
X712500D02*
D03*
X787500Y445315D02*
D03*
X712500D02*
D03*
D93*
X787500Y470315D02*
D03*
D94*
X1452500Y237500D02*
D03*
Y262500D02*
D03*
Y287500D02*
D03*
Y312500D02*
D03*
Y337500D02*
D03*
Y362500D02*
D03*
X1427500Y237500D02*
D03*
Y262500D02*
D03*
Y287500D02*
D03*
Y312500D02*
D03*
Y337500D02*
D03*
Y362500D02*
D03*
X47500Y362500D02*
D03*
Y337500D02*
D03*
Y312500D02*
D03*
Y287500D02*
D03*
Y262500D02*
D03*
Y237500D02*
D03*
X72500Y362500D02*
D03*
Y337500D02*
D03*
Y312500D02*
D03*
Y287500D02*
D03*
Y262500D02*
D03*
Y237500D02*
D03*
D95*
X1465900Y300000D02*
D03*
X34100Y300000D02*
D03*
D96*
X573750Y110000D02*
D03*
X636250D02*
D03*
D97*
X835000Y150000D02*
X836500Y148500D01*
Y125000D02*
Y148500D01*
M02*
