**ABCDEFGHIJKLMNOPQRSTUVWXYZabcdefghijklmnopqrstuvwxyz**************************
**PARASOLID !"#$%&'()*+,-./:;<=>?@[\]^_`{|}~0123456789**************************
**PART1;
MC=AMD64;
MC_MODEL=AMD64 Family 23 Model 8 Stepping 2, AuthenticAMD;
MC_ID=unknown;
OS=Windows_NT;
OS_RELEASE=unknown;
FRU=Parasolid Version 33.1, build 260,  4-25-2022;
APPL=SOLIDWORKS 2022-2022290;
SITE=;
USER=unknown;
FORMAT=text;
GUISE=transmit;
KEY=FILEmakeProjectedPlanarWire.x_t;
DATE=Wed Feb  7 18:55:22 2024;
**PART2;
SCH=SCH_3301260_33103;
USFLD_SIZE=0;
**PART3;
**END_OF_HEADER*****************************************************************
T51 : TRANSMIT FILE created by modeller version 330126023 SCH_3301260_33103_1300
6230 0 12 35 CCCI7 lattice222 0 CCCI4 mesh1006 0 I8 polyline1008 0 CCCCCCCDI5 ow
ner1040 0 CCCCCCI13 boundary_mesh1006 0 I17 boundary_polyline1008 0 CCCA16 index
_map_offset0 0 1 dA9 index_map82 0 A17 node_id_index_map82 0 A20 schema_embeddin
g_map82 0 A5 child12 0 A14 lowest_node_id0 0 1 dA16 mesh_offset_data206 0 Z1 48
 0 2 0 0 0 0 0 0 0 1e3 1e-8 0 3 0 1 0 3 1 4 5 6 7 0 0 8 9 10 0 0 0 0 0 0 0 70 11
 CI9 list_type0 0 1 uI10 notransmit0 0 1 lCCCDCCDI12 finger_index0 0 1 dI12 fing
er_block1012 0 CZ2 0 4 T1 0 0 1 20 1 11 11 13 255 4 45 0 1 0 12 0 0 8 12 50 255
 5 3 0 12 0 0 0 +0 .0171 0 0 1 0 0 0 1 30 255 6 26 0 9 13 0 0 +-.0125 .0171 .002
5 1 0 0 29 255 7 38 0 10 14 0 -.0125 .0171 .0025 19 8 CCCCCCCA5 owner12 0 Z8 44
 0 1 0 0 4 V0 16 255 9 24 0 ?15 0 16 6 0 0 1 18 255 10 36 0 17 0 18 7 ?1 17 255
 17 0 0 0 0 10 19 20 0 21 +18 18 33 0 22 10 23 14 ?1 17 22 0 24 21 25 18 26 16 0
 15 -18 23 30 0 25 18 27 28 ?1 29 14 35 0 18 28 7 .0125 .0171 .0025 29 28 32 0 2
3 29 14 .0125 .0171 -.0025 29 29 29 0 27 0 28 -.0125 .0171 -.0025 18 27 27 0 19
 23 0 29 ?1 17 19 0 24 25 21 27 17 20 0 30 -15 255 24 8 0 19 12 0 17 25 0 24 22
 19 23 30 31 0 26 -17 21 0 24 19 22 10 15 9 0 0 -16 20 15 0 ?17 31 32 33 0 0 1 1
7 30 0 0 0 0 27 25 31 0 0 +16 31 18 0 ?30 16 20 34 0 0 1 16 16 21 0 ?26 9 31 13
 0 0 1 30 34 20 0 31 33 13 0 +-.0125 .0171 -.0025 -1 0 0 30 33 17 0 20 35 34 0 +
-.0125 .0171 -.0025 0 0 1 30 13 23 0 16 34 6 0 +.0125 .0171 -.0025 0 0 -1 31 255
 35 14 0 32 36 33 0 +-.01 .0171 0 0 1 0 0 0 1 .0015 16 32 12 0 ?37 20 38 35 0 0
 1 31 36 11 0 38 0 35 0 -.01 .0171 -367394039744206e-32 0 1 0 0 0 1 .0015 16 38
 9 0 ?39 32 0 36 0 0 1 17 39 0 0 0 0 0 40 38 0 0 +17 40 0 41 40 40 0 39 38 0 0 -
15 41 6 0 40 12 42 14 255 12 1 43 ?0 0 41 4 5 -0 0 0 0 4 15 42 7 0 37 12 24 17 3
7 0 42 37 37 0 44 32 0 0 +17 44 0 0 0 0 0 37 32 0 0 -81 255 1 43 48 45 12 0 0 0
 0 46 80 255 1 45 47 48 9000 1 1 1 1 1 1 1 1 0 FFFFTFTFFFFFFF1 82 255 1 46 -1686
89555 79 255 14 48 SWEntUnchanged17 26 0 0 0 0 23 22 16 0 0 +17 15 0 0 0 0 18 21
 9 0 0 +74 4 CI16 index_map_offset0 0 1 dCCZ20 11 1 0 0 43 0 0 0 0 0 0 0 0 0 0 0
 0 0 0 0 0 0 0 0 1 0 
