M48
;Layer_Color=9474304
;FILE_FORMAT=4:4
METRIC,LZ
;TYPE=PLATED
T01F00S00C0.2000
T02F00S00C0.2500
T03F00S00C0.3000
T04F00S00C0.7000
T05F00S00C0.8000
T06F00S00C1.0000
T07F00S00C1.0300
T08F00S00C1.1000
T09F00S00C1.2000
T10F00S00C1.3000
T11F00S00C1.4500
T12F00S00C3.2000
T13F00S00C8.0000
%
T01
X0003Y0015
X00025Y00165
X000195Y00175
X0186999Y0066555
X01905Y0069
X01902838Y0070365
X01900495Y00710413
X01905Y00723
Y0073
X01870541Y0074175
X01334157Y00741597
X01305Y0072
X01299085Y00714085
X0129Y0072
X01279741Y00722481
X01285Y00705
Y00695
Y00685
X013Y0068
X013Y00695
X012455Y0074
X01275Y005805
X01295
X00675Y0058
X00655
X00630161Y00665161
X00665Y00685
X0066Y00705
X0067
X006795Y00709929
X00686982Y007105
X0069Y00735
X00665
X00662773Y00719449
X00630541Y0074175
X00714859Y00742003
X00715096Y00734007
X00707Y007
X00715Y0068
X00094022Y00677161
X0006Y00665
Y007
X00066982Y007105
X00075Y00734139
X00095Y00755
X00035Y0058
X00085Y0098
X0014Y01005
X001585Y011535
X0069Y0108
X00725Y0095
X0069Y0084
X0131
X01349469Y00950531
X0131Y0108
X0193
X0193Y0084
X0193Y012
X01515Y0125
X0131Y012
X01305Y01395
X01304611Y01402389
X0128Y014
X0129Y013895
X00695Y01415
X0069Y0142
X006705Y014005
X00665Y01385
X0069Y012
X0031Y0125
X0034Y01355
X0025Y01365
Y0138
X00235Y01345
Y01335
T02
X00015Y0003
X0003
X00045
X0006
X00075
Y00045
Y0006
X0006
Y00045
X00045
Y0006
Y00075
X0003
Y0009
X00015
Y00105
Y0012
Y00135
X0003
X00015Y0015
X00075
Y0021
Y00315
X0006
X00045
X0003
Y003
Y00285
Y0039
X00045
X0003Y0006
Y00045
X00015
Y0006
Y00075
X01874999Y00555
X01889999
X01904999
X01889999Y0057
Y00585
Y006
X01904999
Y00615
X01919999
X01934999
X01949999
X01964999
X01979999
Y0063
Y00645
Y0066
Y00675
Y0069
Y00705
Y0072
Y00735
Y0075
Y00765
Y0078
X01964999
Y00765
Y0075
Y00735
Y0072
Y00705
Y0069
Y00675
Y0066
Y00645
Y0063
X01949999
Y00645
Y0066
Y00675
X01934999Y0069
Y00705
Y0072
Y00735
Y0075
Y00765
Y0078
X01919999Y00765
Y0075
Y00735
Y0072
X01904999Y0075
Y00765
X01934999Y0066
Y00645
Y0063
X01919999
Y00645
X01904999Y0063
X01889999
Y00615
X01874999
Y0063
Y006
Y00585
Y0057
X01964999
X01979999
Y00585
Y006
X01964999
Y00585
Y00555
X01979999
X01949999
Y006
X01305Y00555
X0129
X01275
X0126
Y0057
Y00585
Y006
X01245
Y00615
Y0063
Y00585
Y0057
Y00555
X01305Y0066
X0129Y00765
X01245Y0075
X0066Y00765
X0063Y0063
Y00615
Y006
X00645
Y00585
Y0057
Y00555
X0066
X00675
X0069
X0063
Y0057
Y00585
X00045Y00555
X0003
Y0057
Y00645
Y0066
Y00675
Y0069
Y00705
Y0072
Y00735
Y0075
Y00765
Y0078
X0006Y0069
Y00675
X00045Y00435
Y0042
Y00405
X0003
Y0042
Y00435
X00075Y00405
X0009Y00795
Y0081
Y00825
Y0084
Y00855
Y0087
Y00885
Y009
Y00915
Y0093
Y00945
Y0096
X00105
Y00975
X0012
Y0099
X00135
X0015Y01005
X00165Y0102
X00195Y0105
X0021Y01065
X0024Y0108
Y01095
X00255
Y0111
X0027
Y01125
X00285
Y0114
X003
Y01155
X00315
Y0117
X0033
Y01185
X00345
X00285
X0027
Y0117
X00255
Y01185
X0024
Y0117
Y01155
X00255
X0024Y0114
X0021
Y01155
Y0117
Y01185
X00195
Y0117
Y01155
Y0114
Y01125
X0021
Y0111
X00195
Y01095
X0018
Y0111
Y01125
Y0114
Y01155
Y0117
Y01185
X00165
Y0117
X0015Y0111
Y01065
X00135
X0018Y0108
X00075
Y01095
Y0111
Y01125
Y0114
Y01155
Y0117
X0003
Y01185
Y01155
Y0114
Y01125
Y0111
Y01095
Y0108
Y01065
Y0105
Y01035
Y0102
Y01005
Y0099
Y00975
Y0096
Y00945
Y0093
Y00915
Y009
Y00885
Y0087
Y00855
Y0084
Y00825
Y0081
Y00795
X00075Y0081
Y00825
Y0084
Y00855
Y0087
Y00885
Y009
Y00915
Y0093
Y00945
Y0099
X0009
X00075Y01005
Y0102
Y01035
Y0105
Y01065
X00645
X0066
Y0108
X00645
X0066Y0105
X0069
X00705
Y01065
Y0108
X00735
X0075
X00765
X0078
Y01095
Y0111
Y01125
Y0114
Y01155
Y0117
Y01185
X00765
Y0117
Y01155
Y0114
Y01125
Y0111
Y01095
X0075
Y0111
Y01125
Y0114
Y01155
Y0117
Y01185
X00735
Y0117
Y01155
Y0114
Y01125
Y0111
Y01095
Y01065
X0075
X00765
X0078
Y0105
Y01035
Y0102
Y01005
X00765
Y0102
Y01035
Y0105
X0075
Y01035
Y0102
Y01005
Y0099
X00765
X0075Y00975
X00735
Y0099
Y01005
Y0102
Y01035
Y0105
X00705Y01035
Y0102
Y01005
Y0099
Y00975
Y0096
Y00945
Y0093
Y00915
Y009
Y00885
Y0087
Y00855
Y0084
Y00825
Y0081
Y00795
X0069Y0087
Y00885
Y009
Y00915
Y0093
Y00945
Y0096
Y00975
Y0099
Y01005
Y0102
Y01035
Y01065
X0066Y01005
Y0099
Y00975
Y0096
Y00945
X00645Y0096
Y00975
Y0099
Y01005
X00735Y0096
X0066Y0087
Y0117
Y01185
X00645Y0117
X00705
Y01185
X00795
X0081
X00825
X0084
X00855
X0087
X00885
X009
X00915
X0093
X00945
X0096
X00945Y0117
X0093
Y01155
X00915
Y0117
X009
Y01155
Y0114
X00915
X009Y01125
X00885
Y0114
Y01155
Y0117
X0087
Y01155
Y0114
Y01125
Y0111
X00885
X0087Y01095
X00855
Y0111
Y01125
Y0114
Y01155
Y0117
X0084
Y01155
Y0114
Y01125
Y0111
Y01095
Y0108
X00855
X0084Y01065
X00825
Y0108
Y01095
Y0111
Y01125
Y0114
Y01155
Y0117
X0081
Y01155
Y0114
Y01125
Y0111
Y01095
Y0108
Y01065
Y0105
X00825
X0081Y01035
X00795
Y0105
Y01065
Y0108
Y01095
Y0111
Y01125
Y0114
Y01155
Y0117
Y0102
X0126Y01005
X01275
Y0099
Y00975
Y0096
Y00945
X01305
X0132
X01335
Y0096
Y00975
Y0099
Y01005
Y0102
Y01035
Y0105
Y01065
Y0108
X0132
Y01065
Y0105
Y01035
Y0102
Y01005
Y0099
Y00975
Y0096
X01305
Y00975
Y0099
Y01005
Y0102
Y01035
Y0105
Y01065
X01275
Y0108
X0126
Y01065
Y0105
X01275
X0126Y0099
Y00975
Y0096
X01305Y0093
X0132
X01335
Y00915
Y009
Y00885
Y0087
Y00855
Y0084
Y00825
Y0081
Y00795
X0132Y00825
Y0084
Y00855
Y0087
Y00885
Y009
Y00915
X01305
Y009
Y00885
Y0087
X01365Y00975
Y0099
X0138
Y01005
X01395
Y0102
X0141
Y01035
X01425
Y0105
X0144
Y01065
X01455
Y0108
X0147
Y01095
X01485
Y0111
X015
Y01125
X01515
Y0114
X0153
Y01155
X01545
Y0117
X0156
Y01185
X01575
X01545
X0153
Y0117
X01515
Y01185
X015
Y0117
Y01155
X01515
X015Y0114
X01485
Y01155
Y0117
Y01185
X0147
Y0117
Y01155
Y0114
Y01125
X01485
X0147Y0111
X01455
Y01125
Y0114
Y01155
Y0117
Y01185
X0144
Y0117
Y01155
Y0114
Y01125
Y0111
Y01095
X01455
X0144Y0108
X01425
Y01095
Y0111
Y01125
Y0114
Y01155
Y0117
Y01185
X0141
Y0117
Y01155
Y0114
Y01125
Y0111
Y01095
Y0108
Y01065
X01425
X0141Y0105
X01395
Y01065
Y0108
Y01095
Y0111
Y01125
Y0114
Y01155
Y0117
Y01185
X0138
Y0117
Y01155
Y0114
Y01125
Y0111
Y01095
Y0108
Y01065
Y0105
Y01035
X01395
X0138Y0102
X01365
Y01035
Y0105
Y01065
Y0108
Y01095
Y0111
Y01125
Y0114
Y01155
Y0117
Y01185
X01335
Y0117
Y01155
X01275Y0117
X0126Y01185
X01365Y01005
X01874999
X01889999
X01904999
Y0099
Y00975
Y0096
Y00945
X01934999
Y0096
Y00975
Y0099
Y01005
Y0102
Y01035
Y0105
Y01065
X01964999
X01979999
Y0108
Y01095
Y0111
Y01125
Y0114
Y01155
Y0117
Y01185
X01964999
Y0117
Y01155
Y0114
Y01125
Y01095
Y0108
Y0105
X01979999
Y01035
Y0102
Y01005
Y0099
Y00975
Y0096
Y00945
Y0093
Y00915
Y009
Y00885
Y0087
Y00855
Y0084
Y00825
Y0081
Y00795
X01964999
Y0081
Y00825
Y0084
Y00855
Y0087
Y00885
Y009
Y00915
Y0093
Y00945
Y0096
Y00975
Y0099
Y01005
Y0102
Y01035
X01904999Y0105
Y01065
Y0108
X01889999
Y01065
X01874999
Y0108
Y01095
Y0105
X01889999Y0099
X01874999Y00975
Y0096
X01934999Y0093
Y00915
Y009
Y00885
Y0087
Y00855
X01904999Y0087
Y0117
Y01185
X01889999Y0117
X01874999Y012
Y01215
Y01245
Y0126
X01904999Y01275
Y0129
Y01305
Y0132
X01889999
Y01335
Y0135
Y01365
X01904999
X01919999Y0138
X01934999
Y01395
X01949999
Y0141
X01964999
Y01425
X01979999
Y0144
Y01455
Y0147
Y01485
X01964999
Y0147
Y01455
Y0144
X01949999
Y01455
Y0147
Y01485
X01934999
Y0147
Y01455
Y0144
Y01425
X01949999
X01934999Y0141
X01919999
Y01425
Y0144
Y01455
Y0147
Y01485
X01904999
Y0147
Y01455
Y0144
Y01425
Y0141
Y01395
X01919999
X01889999Y0141
Y01425
Y0144
Y01455
Y0147
Y01485
X01874999
Y0147
Y01455
Y0144
Y01425
X01859999Y0144
Y01455
Y0147
Y01485
X01844999
Y0147
Y01455
X01829999Y0147
Y01485
X01814999
X01799999
X01785
X0177
X01755
X0174
X01725
X0171
X01695
X0168
X01665
X0165
X01635
X0162
X01605
X0159
Y01425
X01605
X0162
X01635
X0165
X01665
X0168
X01695
X0171
X01725
X0174
X01755
X0177
X01785
X01799999
X01814999
X01829999
X01889999Y0138
X01964999
X01979999
Y01395
Y01365
Y0135
Y01335
Y0132
Y01305
Y0129
Y01275
Y0126
Y01245
Y0123
Y01215
Y012
X01964999
Y01215
Y0123
Y01245
Y0126
Y01275
Y0129
Y01305
Y0132
Y01335
Y0135
Y01365
X01949999
Y0135
Y01335
Y0132
Y01305
Y0129
Y01275
Y0126
Y01245
Y0123
X01934999Y01245
Y0126
Y01275
Y0129
Y01305
Y0132
Y01335
Y0135
X01889999Y01305
Y0129
X01934999Y01215
X0165Y0126
Y01275
Y0129
Y01305
Y0132
Y01335
Y0135
Y01365
Y0138
Y01395
Y0141
X01635
Y01395
Y0138
Y01365
Y0135
Y01335
Y0132
Y01305
Y0129
Y01275
Y0126
Y01245
X0162
Y0126
Y01275
Y0129
Y01305
Y0132
Y01335
Y0135
Y01365
Y0138
Y01395
Y0141
X01605
Y01395
Y0138
Y01365
Y0135
Y01335
Y0132
Y01305
Y0129
Y01275
Y0126
Y01245
Y0123
X0162
X01605Y01215
X0159
Y0123
Y01245
Y0126
Y01275
Y0129
Y01305
Y0132
Y01335
Y0135
Y01365
Y0138
Y01395
Y0141
Y012
X01575
Y01215
Y0123
Y01245
Y0126
Y01275
Y0129
Y01305
Y0132
Y01335
Y0135
Y01365
Y0138
Y01395
Y0141
Y01425
X0156
Y0141
Y01395
Y0138
Y01365
Y0135
Y01335
Y0132
Y01305
Y0129
Y01275
Y0126
Y01245
Y0123
Y01215
Y012
X01545
Y01215
Y0123
Y01245
Y0126
Y01275
Y0129
Y01305
Y0132
Y01335
Y0135
Y01365
Y0138
Y01395
Y0141
Y01425
X0153
Y0141
Y01395
Y0138
Y01365
Y0135
Y01335
Y0132
Y01305
Y0129
Y01275
Y0126
Y01245
Y0123
Y01215
Y012
X01515
Y01215
Y0123
X015
Y01245
Y0126
X01515
Y01275
Y0129
Y01305
Y0132
Y01335
Y0135
Y01365
Y0138
Y01395
Y0141
Y01425
X015
Y0141
Y01395
Y0138
Y01365
Y0135
Y01335
Y0132
Y01305
Y0129
Y01275
X01485
Y0129
Y01305
Y0132
Y01335
Y0135
Y01365
Y0138
Y01395
Y0141
Y01425
X0147
Y0141
Y01395
Y0138
Y01365
Y0135
Y01335
Y0132
Y01305
Y0129
Y01275
Y0126
X01485
Y01245
Y0123
Y01215
X015
Y012
X01485
X0147
Y01215
Y0123
Y01245
X01455
Y0126
Y01275
Y0129
Y01305
Y0132
Y01335
Y0135
Y01365
Y0138
Y01395
Y0141
Y01425
X0144
Y0141
Y01395
Y0138
Y01365
Y0135
Y01335
Y0132
Y01305
Y0129
Y01275
Y0126
Y01245
Y0123
X01455
Y01215
Y012
X0144
Y01215
X01425
Y0123
Y01245
Y0126
Y01275
Y0129
Y01305
Y0132
Y01335
Y0135
Y01365
Y0138
Y01395
Y0141
Y01425
X0141
Y0141
Y01395
Y0138
Y01365
Y0135
Y01335
Y0132
Y01305
Y0129
Y01275
Y0126
Y01245
Y0123
Y01215
Y012
X01425
X01395
Y01215
Y0123
Y01245
Y0126
Y01275
Y0129
Y01305
Y0132
Y01335
Y0135
Y01365
Y0138
Y01395
Y0141
Y01425
X0138
Y0141
Y01395
Y0138
Y01365
Y0135
Y01335
Y0132
Y01305
Y0129
Y01275
Y0126
Y01245
Y0123
Y01215
Y012
X01365
Y01215
Y0123
Y01245
Y0126
Y01275
Y0129
Y01305
Y0132
Y01335
Y0135
Y01365
Y0138
Y01395
Y0141
Y01425
X0135
Y0141
Y01395
Y0138
Y01365
Y0135
Y01335
X01335Y0135
Y01365
Y0138
Y01395
Y0141
X0132Y01395
Y0138
Y01365
X01305Y0138
X01275Y01365
Y0135
Y01335
Y0132
Y01305
Y0129
Y01275
Y0126
X0126
Y01275
Y0129
Y01305
Y0132
Y01335
Y0135
Y01365
X0132Y0132
Y01305
X01335
Y0129
Y01275
Y0126
Y01245
Y0123
Y01215
Y012
X0132
Y01215
Y0123
Y01245
Y0126
Y01275
Y0129
X01275Y012
X0126
X01215Y01425
X012
Y01485
X01215
X0123
X01245
X0126
X01275
X0129
X01305
X0132
X01335
X0135
X01365
X0138
X01395
X0141
X01425
X0144
X01455
X0147
X01485
X015
X01515
X0153
X01545
X0156
X01575
X01185
X0117
X01155
X0114
X01125
X0111
X01095
X0108
X01065
X0105
X01035
X0102
X01005
X0099
X00975
X0096
X00945
X0093
X00915
X009
X00885
X0087
X00855
X0084
X00825
X0081
X00795
Y01425
X0081
X00825
X0084
X00855
X0087
X00885
X009
X00915
X0093
X00945
X0096
X00975
X0099
X01005
X0102
X01035
X0105
X01065
X0108
X01095
X0111
X01125
X0114
X01155
X0117
X01185
X01035Y0141
X0102
Y01395
Y0138
Y01365
Y0135
Y01335
Y0132
Y01305
Y0129
Y01275
Y0126
Y01245
X01005
Y0126
Y01275
Y0129
Y01305
Y0132
Y01335
Y0135
Y01365
Y0138
Y01395
Y0141
X0099
Y01395
Y0138
Y01365
Y0135
Y01335
Y0132
Y01305
Y0129
Y01275
Y0126
Y01245
Y0123
X01005
X0099Y01215
X00975
Y0123
Y01245
Y0126
Y01275
Y0129
Y01305
Y0132
Y01335
Y0135
Y01365
Y0138
Y01395
Y0141
X0096
Y01395
Y0138
Y01365
Y0135
Y01335
Y0132
Y01305
Y0129
Y01275
Y0126
Y01245
Y0123
Y01215
Y012
X00975
X00945
Y01215
Y0123
Y01245
Y0126
Y01275
Y0129
Y01305
Y0132
Y01335
Y0135
Y01365
Y0138
Y01395
Y0141
X0093
Y01395
Y0138
Y01365
Y0135
Y01335
Y0132
Y01305
Y0129
Y01275
Y0126
Y01245
Y0123
Y01215
Y012
X00915
Y01215
Y0123
Y01245
Y0126
Y01275
Y0129
Y01305
Y0132
Y01335
Y0135
Y01365
Y0138
Y01395
Y0141
X009
Y01395
Y0138
Y01365
Y0135
Y01335
Y0132
Y01305
Y0129
Y01275
X00885Y0129
Y01305
Y0132
Y01335
Y0135
Y01365
Y0138
Y01395
Y0141
X0087
Y01395
Y0138
Y01365
Y0135
Y01335
Y0132
Y01305
Y0129
Y01275
X00855
Y0129
Y01305
Y0132
Y01335
Y0135
Y01365
Y0138
Y01395
Y0141
X0084
Y01395
Y0138
Y01365
Y0135
Y01335
Y0132
Y01305
Y0129
Y01275
Y0126
X00855
Y01245
Y0123
Y01215
X0087
X00885
X009
Y012
X00885
X0087
X00855
X0084
Y01215
Y0123
Y01245
X00825
Y0126
Y01275
Y0129
Y01305
Y0132
Y01335
Y0135
Y01365
Y0138
Y01395
Y0141
X0081
Y01395
Y0138
Y01365
Y0135
Y01335
Y0132
Y01305
Y0129
Y01275
Y0126
Y01245
Y0123
X00825
Y01215
Y012
X0081
Y01215
X00795
Y0123
Y01245
Y0126
Y01275
Y0129
Y01305
Y0132
Y01335
Y0135
Y01365
Y0138
Y01395
Y0141
Y012
X0078
Y01215
Y0123
Y01245
Y0126
Y01275
Y0129
Y01305
Y0132
Y01335
Y0135
Y01365
Y0138
Y01395
Y0141
Y01425
X00765
Y0141
Y01395
Y0138
Y01365
Y0135
Y01335
Y0132
Y01305
Y0129
Y01275
Y0126
Y01245
Y0123
Y01215
Y012
X0075
Y01215
Y0123
Y01245
Y0126
Y01275
Y0129
Y01305
Y0132
Y01335
Y0135
Y01365
Y0138
Y01395
Y0141
Y01425
X00735
Y0141
Y01395
Y0138
Y01365
Y0135
Y01335
Y0132
Y01305
Y0129
Y01275
Y0126
Y01245
Y0123
Y01215
Y012
X00705
Y01215
Y0123
Y01245
Y0126
Y01275
Y0129
Y01305
Y0132
X0069
Y01335
X0072
Y0135
Y01365
Y0138
Y01395
Y0141
Y01425
X00705Y0141
Y01395
Y0138
Y01365
Y0135
X0069Y01365
Y0138
Y01395
X00675Y01425
X00645Y0141
X0063Y01425
Y0138
Y01365
X00645
Y0135
Y01335
Y0132
Y01305
Y0129
Y01275
Y0126
X0063
Y01275
Y0129
Y01305
Y0132
Y01335
Y0135
X0069Y01305
Y0129
Y01275
Y0126
Y01245
Y0123
Y01215
X00645Y012
X0063Y01245
X00405
Y0126
Y01275
Y0129
Y01305
Y0132
Y01335
Y0135
Y01365
Y0138
Y01395
Y01485
X0042
X00435
X0045
X00465
X0048
X00495
X0051
X00525
X0054
X00555
X0057
X00585
X006
X00615
X0063
X00645
X0066
X00675
X0069
X00705
X0072
X00735
X0075
X00765
X0078
X0039
X00375
X0036
X00345
X0033
Y0147
X00315
Y01485
X003
Y0147
Y01455
X00315
X003Y0144
X00285
Y01455
Y0147
Y01485
X0027
Y0147
Y01455
Y0144
Y01425
X00285
X0027Y0141
X00255
Y01425
Y0144
Y01455
Y0147
Y01485
X0024Y01455
Y0144
Y01425
Y0141
Y01395
X00255
X00225
Y0141
Y01425
Y0144
Y01455
X0021
Y0144
Y01425
Y0141
Y01395
X00195
Y0141
Y01425
Y0144
Y01455
X0018
Y0147
X00165
Y01455
Y0144
X0018
Y01425
Y0141
Y01395
Y0138
X00195
X0021Y01365
X00225
Y01305
X0021Y0129
Y0126
Y01245
Y0123
Y01215
Y012
X00195
Y01215
Y0123
Y01245
X0018Y0123
Y01215
Y012
X00165
Y01215
Y01245
Y01305
X0018
X0015
X0012Y0132
X0009
Y01335
Y0135
Y01365
X00075Y0135
Y01335
Y0132
Y01305
X0009
Y0129
X00075
Y01275
X0003
Y0129
Y01305
Y01335
Y01365
Y0138
X00045
Y01395
X0006
Y0141
X00075
Y01425
X0009
Y0144
X00105
X0012
X00135
X0015
Y01425
X00165
Y0141
Y01395
Y0138
X0015Y0141
X0012Y0138
X00075Y0144
Y01455
Y0147
Y01485
X0006
Y0147
Y01455
Y0144
Y01425
X00045
Y0144
Y01455
Y0147
Y01485
X0003
Y0147
Y01455
Y0144
Y01425
Y0141
X00045
X0003Y01395
X00015
Y0141
Y01425
Y0144
Y01455
Y0147
Y01485
Y0138
Y01365
Y0135
X0003Y0126
Y01245
Y0123
Y01215
Y012
X0009Y01215
Y0123
X0015Y012
X0024
X00255
X0027
X00285
X003
Y01215
X00315
Y0123
X00345
X0036
X00375
X0039
Y01245
Y0126
Y01275
Y0129
Y01305
Y0132
Y01335
Y0135
Y01365
Y0138
Y01395
X00375Y0138
Y01365
Y0135
Y01335
Y0132
Y01305
Y0129
Y01275
Y0126
Y01245
X0036
Y0126
Y01275
Y0129
Y01305
Y0132
Y01335
Y0135
Y01365
X00345Y0135
Y01335
Y0132
Y01305
Y0129
Y01275
Y0126
Y01245
Y01215
X0036
X00375
X0036Y012
X00345
X00285Y01215
X0027
X00255
Y0123
Y01245
Y0126
Y01275
X0027
Y0129
X00285
X003
X00315
Y01305
Y0132
Y01335
X003
Y0132
Y01305
X00285
Y0132
X0027Y01305
X00255Y0129
X0024Y01275
Y0126
Y01245
Y0123
Y01215
X00315Y0126
Y01275
X003
X00315Y01365
X0033Y0138
X00345Y01395
T03
X00030382Y00189617
X01715Y0075
X01805Y00755
X018145Y00665
X01525Y0076
X013905Y0075445
X01335Y00755
Y0073
X01405Y00655
X0125Y00665
X011945
X01185Y00755
X01095Y0075
X00905Y0076
X007705Y0075445
X00785Y00655
X005745Y00665
X00565Y00755
X00475Y0075
X00285Y0076
X001505Y0075445
X00165Y00655
X00055Y0058
X0037Y00865
X0054Y0085
X0056Y0086
X00565Y009
X0054
X0067Y0084
X007Y0111
X0099Y00865
X0116Y0085
X0118Y0086
X01185Y009
X0116
X0129Y0084
X0132Y0111
X0161Y00865
X0178Y0085
X018Y0086
X01805Y009
X0178
X0191Y0084
X0194Y0111
T04
X01605Y00654
Y00686
Y00718
Y0075
Y00782
X01701Y00718
X01733
Y00622
Y0059
X01701
X01541
X01509
X01477
Y00718
X01509
X01573
X01113
X01081
X00985
Y00686
Y00654
Y0075
Y00782
X00953Y00718
X00889
X00857
Y0059
X00889
X00921
X01081
X01113
Y00622
X00493
Y0059
X00461
Y00718
X00493
X00365
Y00686
Y00654
Y0075
Y00782
X00333Y00718
X00269
X00237
Y0059
X00269
X00301
Y00846
X00269
X00237
X00365Y0091
X00397
X00461Y00846
X00493
Y00814
X00857Y00846
X00889
X00921
X00985Y0091
X01017
X01081Y00846
X01113
Y00814
X01477Y00846
X01509
X01541
X01605Y0091
X01637
X01701Y00846
X01733
Y00814
T05
X00652Y0110143
Y01120475
Y0113952
Y0115857
X01277
Y0113952
Y01120475
Y0110143
X01897
Y01120475
Y0113952
Y0115857
T06
X0004Y001
X000654
X001416
X001924
T07
X001061Y011726
X001315
Y01198
Y012234
Y012488
X001061
Y012234
Y01198
Y012742
Y012996
Y01325
Y013504
X001315
Y013758
X001061
Y014012
Y014266
X001315
Y014012
Y01452
X001061
Y014774
X001315
Y01325
Y012996
Y012742
T08
X0127Y0062
X012954
X013716
X01397
X014224
X008024
X00777
X007516
X006754
X0065
X001844
X00159
X001336
X000574
X00032
X005396Y008
X00565
X005904
X006666
X00692
X01163
X011884
X012138
X0129
X013154
X017826
X01808
X018334
X019096
X01935
T09
X00325Y0005
Y0035
X00485
X00645
Y0005
X00485
X00805
X00965
X01125
Y0035
X00965
X00805
X01285
X01445
Y0005
X01285
X01605
X01765
Y0035
X01605
T10
X004742Y010665
X004996
X00525
X005504
X010992
X011246
X0115
X011754
X017192
X017446
X0177
X017954
Y011935
X0177
X017446
X017192
X011754
X0115
X011246
X010992
X005504
X00525
X004996
X004742
T11
X018919Y000419
X019173
X019427
X019681
Y001181
X019427
X019173
X018919
X018919Y002819
X019173
X019427
X019681
Y003581
X019427
X019173
X018919
X017981Y012569
X017727
X017473
X017219
Y013331
X017473
X017727
X017981
X011781
X011527
X011273
X011019
Y012569
X011273
X011527
X011781
X005581
X005327
X005073
X004819
Y013331
X005073
X005327
X005581
T12
X017455Y005375
X014645
X011255
X008445
X005055
X002245
X00045Y005
X002245Y009625
X005055
X00645Y0103
X008445Y009625
X011255
X0127Y0103
X014645Y009625
X017455
X0189Y0103
Y0123
X0127
X00645
T13
X01605Y00485
X00985
X00365
Y01015
X00985
X01605
M30
